<?xml version="1.0" standalone="no"?>
<!DOCTYPE svg PUBLIC "-//W3C//DTD SVG 1.1//EN" "http://www.w3.org/Graphics/SVG/1.1/DTD/svg11.dtd" >
<svg xmlns="http://www.w3.org/2000/svg">
<metadata>
This is a custom SVG webfont generated by Font Squirrel.
Copyright   : Copyright c 2011 Natanael Gama exondiscoveredcom with Reserved Font Name Exo
Designer    : Natanael Gama
</metadata>
<defs>
<font id="ExoLight" horiz-adv-x="1118" >
<font-face units-per-em="2048" ascent="1638" descent="-410" />
<missing-glyph horiz-adv-x="532" />
<glyph unicode="&#xfb01;" horiz-adv-x="1234" d="M45 967v88l201 28v113q0 184 104.5 299t286.5 115q162 0 379 -60v-75l-352 20q-127 6 -214.5 -65.5t-87.5 -233.5v-113l748 -18v-1065h-119v967h-629v-967h-116v967h-201z" />
<glyph unicode="&#xfb02;" horiz-adv-x="1470" d="M45 971v86l203 30v109q0 182 81 298t253 116h530v-1221q0 -106 21.5 -166.5t47 -76t72.5 -27.5q158 -37 172 -37v-80h-165q-139 0 -202 89t-63 298v1106h-387q-119 0 -181 -66.5t-62 -232.5v-109h299v-116h-302v-971h-116v971h-201z" />
<glyph horiz-adv-x="1579" d="M219 0v1087h1143v-1087h-1143zM248 45l524 500l-524 493v-993zM268 1061l527 -496l520 496h-1047zM274 27h1039l-518 497zM817 545l516 -494v985z" />
<glyph horiz-adv-x="1579" d="M219 0v1087h1143v-1087h-1143zM248 45l524 500l-524 493v-993zM268 1061l527 -496l520 496h-1047zM274 27h1039l-518 497zM817 545l516 -494v985z" />
<glyph unicode="&#xd;" horiz-adv-x="1984" />
<glyph unicode=" "  horiz-adv-x="532" />
<glyph unicode="&#x09;" horiz-adv-x="532" />
<glyph unicode="&#xa0;" horiz-adv-x="532" />
<glyph unicode="!" horiz-adv-x="542" d="M188 39v121q0 43 41 43h82q39 0 39 -43v-121q0 -39 -39 -39h-82q-41 0 -41 39zM201 1497h135l-12 -1096h-111z" />
<glyph unicode="&#x22;" horiz-adv-x="694" d="M164 1362v137h119v-137l-19 -275h-82zM416 1362v137h119v-137l-19 -275h-82z" />
<glyph unicode="#" horiz-adv-x="1382" d="M45 487l12 80h340l58 365h-340l14 80h338l78 487h80l-78 -487h352l78 487h78l-76 -487h362l-14 -80h-362l-58 -367h363l-13 -80h-362l-78 -485h-78l76 485l-352 2l-78 -487h-78l76 487h-338zM477 567l350 -2l58 367h-350z" />
<glyph unicode="$" horiz-adv-x="1183" d="M125 1012v135q2 207 106.5 285.5t294.5 78.5v177h92v-181q74 -6 219.5 -22.5t161.5 -18.5v-88l-471 19q-141 6 -213.5 -46.5t-72.5 -203.5v-135q0 -123 65.5 -170t177.5 -47h248q100 0 168 -28t100.5 -79t45 -104.5t12.5 -124.5v-140q0 -356 -441 -335v-166h-92v174 q-262 20 -356 37v84q20 0 110.5 -4.5t187.5 -6.5t181 -2q293 0 293 219v140q0 109 -48 163t-161 54h-246q-362 0 -362 336z" />
<glyph unicode="%" horiz-adv-x="1953" d="M96 971v272q0 135 57.5 195.5t206.5 60.5h207q145 0 202.5 -60.5t57.5 -195.5v-272q0 -135 -57 -195.5t-207 -60.5h-207q-145 0 -202.5 60.5t-57.5 195.5zM195 971q0 -92 35.5 -125t125.5 -33h207q98 0 132 33t34 125v272q0 90 -35 124t-127 34h-207q-98 0 -131.5 -33 t-33.5 -125v-272zM475 0l897 1499h111l-897 -1499h-111zM1128 260v272q0 135 57.5 195.5t207.5 60.5h206q145 0 203 -60t58 -196v-272q0 -135 -57.5 -195.5t-207.5 -60.5h-206q-145 0 -203 60.5t-58 195.5zM1227 260q0 -92 35.5 -125t126.5 -33h206q98 0 132 33t34 125v272 q0 90 -34.5 124t-127.5 34h-206q-98 0 -132 -32.5t-34 -125.5v-272z" />
<glyph unicode="&#x26;" horiz-adv-x="1314" d="M79.5 477.5q24.5 155.5 162.5 272.5l176 149l-129 174q-80 111 -68 201t72.5 148.5t138.5 68.5q236 29 545 -27v-78h-416q-96 0 -152.5 -28.5t-65.5 -92t67 -163.5l520 -703l260 265l39 -39l-119 -203l-109 -113l224 -309h-142l-168 227l-147 -137q-82 -76 -192.5 -95.5 t-222 26t-185.5 147.5q-113 154 -88.5 309.5zM266 233q78 -100 199 -123.5t219 60.5l160 149l-359 484l-159 -133q-240 -201 -60 -437z" />
<glyph unicode="'" horiz-adv-x="327" d="M104 1362v137h119v-137l-16 -275h-82z" />
<glyph unicode="(" horiz-adv-x="671" d="M172 668q0 158 34 327.5t82 300.5t95 240t81 167l34 58h127q-14 -23 -37 -61.5t-80 -161.5t-102.5 -246t-81 -296t-35.5 -328q0 -489 260 -968q45 -83 78 -130h-129q-12 18 -35 52t-79 146.5t-99 233.5t-78 303.5t-35 362.5z" />
<glyph unicode=")" horiz-adv-x="669" d="M45 -430q14 20 36.5 56t81 153t102.5 237.5t81 300t37 351.5q0 449 -266 964l-72 129h129q12 -23 34.5 -61.5t79 -160.5t99.5 -245t78 -296t35 -330q0 -180 -34 -360.5t-82 -307.5t-95 -228.5t-81 -151.5l-34 -50h-129z" />
<glyph unicode="*" horiz-adv-x="919" d="M115 1178v63l286 41l7 -115zM262 844l55 276l117 -26l-112 -269zM381 1473l61 24l150 -246l-109 -49zM449 987l63 100l229 -180l-32 -51zM537 1157l239 160l31 -55l-193 -195z" />
<glyph unicode="+" horiz-adv-x="1058" d="M115 672v114h356v359h117v-359h358v-114h-358v-359h-117v359h-356z" />
<glyph unicode="," horiz-adv-x="483" d="M164 43v117q0 45 41 45h76q41 0 41 -45v-201q0 -70 -38 -100.5t-75 -27.5l-37 3v47q33 -2 42 14.5t9 38.5v66h-18q-41 0 -41 43z" />
<glyph unicode="-" horiz-adv-x="712" d="M45 537v114h623v-114h-623z" />
<glyph unicode="." horiz-adv-x="487" d="M164 39v121q0 43 39 43h80q43 0 43 -43v-121q0 -39 -43 -39h-80q-39 0 -39 39z" />
<glyph unicode="/" horiz-adv-x="786" d="M45 -147l576 1724h120l-575 -1724h-121z" />
<glyph unicode="0" horiz-adv-x="1329" d="M160 332v835q0 160 99 246t253 86h315q176 0 259 -92t83 -240v-835q0 -332 -342 -332h-315q-154 0 -253 80t-99 252zM276 332q0 -111 66 -163t170 -52h315q225 0 226 215v835q0 215 -226 215h-315q-115 0 -175.5 -58t-60.5 -157v-835z" />
<glyph unicode="1" horiz-adv-x="735" d="M92 1245v80l344 174h117v-1499h-117v1366z" />
<glyph unicode="2" horiz-adv-x="1222" d="M92 1401v84q272 35 602 35q209 0 312.5 -123t103.5 -307q0 -111 -70.5 -244t-165 -240.5t-217 -219.5t-196.5 -169t-135 -100h784v-117h-1004v109q94 68 178.5 131t223.5 183t236.5 223.5t172 227t74.5 220.5q0 147 -75.5 227t-225.5 80h-598z" />
<glyph unicode="3" horiz-adv-x="1220" d="M68 1386v72q174 53 630 45q168 -2 260.5 -96t92.5 -242v-141q0 -117 -52.5 -186.5t-121.5 -92.5q174 -86 174 -294v-121q0 -344 -365 -344q-166 0 -238.5 1t-185 11t-182.5 33l4 73h592q115 0 184.5 46.5t69.5 179.5v121q0 119 -72 175t-172 60l-479 14v88l479 19 q115 4 181.5 59.5t66.5 157.5v141q0 111 -70.5 166t-175.5 55h-620z" />
<glyph unicode="4" horiz-adv-x="1214" d="M45 467l649 1032h137l-610 -977h647v445l58 153h59v-598h184v-90l-184 -31v-397h-117v397h-768z" />
<glyph unicode="5" horiz-adv-x="1265" d="M174 31v84h623q104 0 161.5 64.5t57.5 164.5v215q0 227 -219 227h-316q-76 0 -136 -52t-60 -136h-107l45 901h864v-117h-755l-29 -565q23 29 73 55.5t113 30.5q55 4 115 4t118 -2t75 -2q174 0 255 -91t81 -249v-223q0 -98 -34 -171t-88.5 -108.5t-107.5 -52t-106 -16.5 q-379 0 -623 39z" />
<glyph unicode="6" horiz-adv-x="1284" d="M150 786q0 375 101 550t251 175q348 0 598 -32v-84h-580q-74 0 -127 -59.5t-78.5 -156t-37 -182.5t-11.5 -172q295 35 553 35q190 0 260 -81t70 -222v-254q0 -305 -330 -305h-284q-90 0 -156 35t-120 120t-81.5 243.5t-27.5 389.5zM266 743q0 -629 269 -628h284 q100 0 157.5 40t57.5 154v248q0 106 -57 146t-158 40h-553z" />
<glyph unicode="7" horiz-adv-x="1110" d="M68 1382v117h925l49 -82l-524 -1417h-139l514 1382h-825z" />
<glyph unicode="8" horiz-adv-x="1312" d="M172 315v201q0 186 184 223q-184 51 -184 283v133q0 195 94 274.5t266 79.5h279q168 0 250 -84t82 -270v-133q0 -31 -7.5 -64.5t-24.5 -71.5t-52 -66.5t-82 -37.5q84 -18 125 -97t41 -169v-201q0 -94 -33 -160.5t-87 -98t-105.5 -44t-108.5 -12.5h-277 q-100 0 -171.5 25.5t-107.5 59.5t-55.5 84t-22.5 79.5t-3 66.5zM289 309q0 -193 243 -192h277q86 0 151.5 48t65.5 144v215q0 184 -211 185h-305q-86 0 -153.5 -44t-67.5 -141v-215zM289 1012q0 -188 221 -189h305q113 0 162 57.5t49 131.5v139q0 129 -52 185.5t-163 56.5 h-279q-129 0 -186 -51.5t-57 -190.5v-139z" />
<glyph unicode="9" horiz-adv-x="1284" d="M137 948v254q0 305 330 305h285q90 0 155.5 -34.5t119.5 -119.5t82 -244t28 -390q0 -373 -101.5 -549t-251.5 -176q-416 0 -598 33v84h578q76 0 129 59t78.5 155.5t37 183.5t11.5 173q-313 -37 -553 -37q-190 0 -260 81t-70 222zM252 948q0 -106 57.5 -146t157.5 -40h553 q0 629 -268 629h-285q-100 0 -157.5 -40t-57.5 -155v-248z" />
<glyph unicode=":" horiz-adv-x="489" d="M164 39v121q0 43 39 43h80q43 0 43 -43v-121q0 -39 -43 -39h-80q-39 0 -39 39zM164 926v121q0 41 39 40h80q43 0 43 -40v-121q0 -39 -43 -39h-80q-39 0 -39 39z" />
<glyph unicode=";" horiz-adv-x="489" d="M164 43v117q0 18 11 31.5t30 13.5h76q41 0 41 -45v-201q0 -70 -38 -100.5t-75 -27.5l-37 3v47q33 -2 42 14.5t9 38.5v66h-18q-16 0 -28.5 13.5t-12.5 29.5zM166 926v121q0 43 41 43h80q41 0 41 -43v-121q0 -39 -41 -39h-80q-41 0 -41 39z" />
<glyph unicode="&#x3c;" horiz-adv-x="974" d="M115 666v120l747 353v-127l-592 -287l592 -307v-131z" />
<glyph unicode="=" horiz-adv-x="964" d="M45 434v117h875v-117h-875zM45 897v117h875v-117h-875z" />
<glyph unicode="&#x3e;" horiz-adv-x="974" d="M115 287v131l592 307l-592 287v127l747 -353v-120z" />
<glyph unicode="?" horiz-adv-x="1099" d="M45 1395v84q326 41 557 34q408 2 408 -378v-207q0 -389 -514 -322v-207h-119v303h264q254 8 254 226v207q0 141 -71.5 200.5t-235.5 59.5h-543zM354 39v121q0 43 41 43h84q39 0 39 -43v-121q0 -39 -39 -39h-84q-16 0 -28.5 11.5t-12.5 27.5z" />
<glyph unicode="@" horiz-adv-x="1742" d="M150 0v713q0 35 3 64.5t21.5 83.5t51 91t102 67t166.5 30h430q129 0 221 -67t92 -220v-762h-88l-23 131l-24 -15q-25 -15 -65 -37t-88 -44.5t-108.5 -37.5t-111.5 -15q-113 -2 -188.5 66.5t-73.5 172.5v109q0 125 69.5 198.5t194.5 73.5h391q2 156 0 156q0 96 -51 135 t-153 39h-424q-106 0 -167 -47t-61 -172v-713q0 -246 228 -246h694q133 0 189.5 59.5t56.5 186.5v1049q0 127 -65.5 197.5t-180.5 70.5h-817v74q221 45 590 43h227q168 -4 265 -101.5t97 -283.5v-1049q0 -365 -362 -365h-694q-160 0 -252 94.5t-92 270.5zM582 279.5 q0 -44.5 2 -46.5q0 -53 46 -95t113 -40q131 -2 379 117v307l-381 -28q-68 -6 -113.5 -47t-43.5 -121q-2 -2 -2 -46.5z" />
<glyph unicode="A" horiz-adv-x="1363" d="M102 0l555 1499h125l529 -1499h-137l-148 453h-627l-155 -453h-142zM442 569h543l-266 760z" />
<glyph unicode="B" horiz-adv-x="1222" d="M184 0v1499h557q141 0 232.5 -59.5t124 -141t32.5 -184.5q0 -127 -56 -218t-159 -116q82 -18 152 -111.5t70 -250.5q0 -418 -396 -418h-557zM301 117h440q279 0 279 305q0 129 -76 217q-74 86 -197 86h-6h-440v-608zM301 844h440q127 0 199 69.5t74 200.5v8 q0 144 -74 201q-76 59 -199 59h-440v-538z" />
<glyph unicode="C" horiz-adv-x="1177" d="M125 754q0 190 21.5 322t74.5 235.5t153.5 154t250.5 50.5q203 0 479 -52v-88l-18 1q-17 1 -45.5 3t-66.5 5.5t-83 5.5t-89 4t-91 3t-86 1q-141 0 -221 -52.5t-121 -194.5t-41 -402q0 -645 383 -646q96 0 216 5.5t191 9.5l72 4v-90q-242 -45 -479 -45q-500 0 -500 766z " />
<glyph unicode="D" horiz-adv-x="1353" d="M184 0v1499h543q133 0 232.5 -50t154.5 -126t90 -182.5t45.5 -199.5t10.5 -198q0 -135 -30 -261t-90.5 -236.5t-167 -178t-245.5 -67.5h-543zM301 121h426q139 0 236.5 93t138.5 230.5t41 300.5q0 637 -416 637h-426v-1261z" />
<glyph unicode="E" horiz-adv-x="1171" d="M184 252v981q0 141 74 205q70 61 171 61h13l633 -29v-88h-633q-80 0 -110.5 -37.5t-30.5 -111.5v-428l692 -17v-90l-692 -16v-430q0 -49 13.5 -79t40 -43t49 -16t59.5 -3h612v-86l-612 -31h-22q-43 0 -79 6q-44 8 -87.5 32.5t-67 81t-23.5 138.5z" />
<glyph unicode="F" horiz-adv-x="1171" d="M184 0v1233q0 141 74 205q70 61 171 61h13l633 -29v-88h-633q-80 0 -110.5 -37.5t-30.5 -111.5v-428l692 -17v-90l-692 -16v-682h-117z" />
<glyph unicode="G" horiz-adv-x="1261" d="M125 758q0 135 9 237.5t39 205t80 168t136 106.5t205 41q80 0 243.5 -17.5t272.5 -38.5v-92q-2 0 -38 3t-92 8t-120.5 9.5t-137.5 7.5t-128 3q-209 0 -280.5 -151.5t-71.5 -493.5q0 -358 77.5 -503t282.5 -147q70 0 176.5 25t177.5 49l72 25v475h-377v78q150 41 355 41 q66 0 139 -6v-791h-86l-27 104q-205 -114 -426 -114h-4h-12q-115 0 -200 38q-89 40 -139 104.5t-80 170t-38 208t-8 247.5z" />
<glyph unicode="H" horiz-adv-x="1323" d="M184 0v1499h117v-717h778v717h117v-1499h-117v668h-778v-668h-117z" />
<glyph unicode="I" horiz-adv-x="428" d="M184 0v1499h117v-1499h-117z" />
<glyph unicode="J" horiz-adv-x="727" d="M80 43l8 82q51 -14 86 -20.5t87 -11.5q16 -2 30 -2q32 0 56 9q34 11 68 35.5t51 76.5t17 126v1161h117v-1161q0 -229 -106 -301q-75 -49 -196 -49h-10q-128 2 -208 55z" />
<glyph unicode="K" horiz-adv-x="1210" d="M184 0v1499h117v-688h215l479 688h142l-512 -747l512 -752h-142l-479 692h-213v-692h-119z" />
<glyph unicode="L" horiz-adv-x="1140" d="M184 258v1241h117v-1241q0 -49 13.5 -78.5t40 -43t49 -16.5t59.5 -3h604v-117h-604q-59 0 -102.5 8t-86.5 33t-66.5 80t-23.5 137z" />
<glyph unicode="M" horiz-adv-x="1636" d="M125 0l123 1499h162l411 -1304l402 1304h163l134 -1499h-117l-117 1298l-401 -1298h-121l-414 1298l-108 -1298h-117z" />
<glyph unicode="N" horiz-adv-x="1380" d="M184 0v1499h119l834 -1280v1280h116v-1499h-116l-836 1280v-1280h-117z" />
<glyph unicode="O" horiz-adv-x="1382" d="M150 739q0 207 27.5 350.5t71.5 225.5t122 126t154.5 56t193.5 12q98 0 165.5 -8t138.5 -34.5t115 -79t80.5 -136.5t53 -212t16.5 -300q0 -197 -25.5 -332t-67.5 -216.5t-118 -126t-156.5 -58.5t-201.5 -14q-102 0 -171 8t-139.5 33.5t-113.5 76t-79 132.5t-51 205.5 t-15 291.5zM266 739q0 -168 15.5 -278.5t45 -182t88 -108.5t126 -49t178.5 -12q176 0 267 44t138 180t47 406q0 156 -11 266.5t-40.5 182.5t-61.5 113.5t-91.5 61t-109.5 25t-138 5.5q-57 0 -91 -1t-80 -7.5t-72.5 -18.5t-60.5 -34.5t-53.5 -56.5t-40 -82t-30.5 -112.5 t-17.5 -150t-7.5 -191.5z" />
<glyph unicode="P" horiz-adv-x="1191" d="M137 0v1499h600q358 0 359 -426q0 -121 -23.5 -208t-57.5 -132t-87.5 -70.5t-93 -30.5t-97.5 -5q-61 0 -268 15t-215 20v-662h-117zM254 745h483q115 0 179 66q62 64 61 250v12q0 100 -22.5 167t-62.5 94.5t-74 36.5t-81 9h-483v-635z" />
<glyph unicode="Q" horiz-adv-x="1382" d="M150 739q0 172 16 300t53 212t81 136.5t114.5 79t137 34.5t165.5 8q121 0 197.5 -12t154.5 -56t122 -127t70.5 -225.5t26.5 -349.5q0 -197 -25.5 -332t-68.5 -216.5t-119 -126t-156.5 -58.5t-201.5 -14q-102 0 -171 8t-139.5 33.5t-112.5 76t-78 132.5t-51 205.5 t-15 291.5zM266 739q0 -209 21.5 -332.5t79 -190t135.5 -87t215 -20.5q88 0 148.5 9t114.5 33.5t88 68.5t58.5 115t34.5 169t10 235q0 117 -7 208t-23.5 159t-35 116t-52 79.5t-62 50t-79 28t-90.5 11.5t-105 2q-74 0 -115 -3.5t-97 -15.5t-86 -37.5t-63.5 -71.5t-50 -116 t-28 -172.5t-11.5 -237.5zM672 -68h80q86 -97 210 -97q64 0 138 26v-125q-58 -22 -121 -22q-68 0 -142 27q-140 52 -165 191z" />
<glyph unicode="R" horiz-adv-x="1200" d="M137 0v1499h615q350 0 350 -436q0 -410 -283 -430l322 -633h-127l-320 629q-436 25 -440 26v-655h-117zM254 754h498q53 0 86.5 8t70.5 35.5t55.5 94t18.5 171.5q0 102 -19.5 168.5t-55.5 97.5t-71.5 41t-84.5 10h-498v-626z" />
<glyph unicode="S" horiz-adv-x="1196" d="M150 1012v135q0 207 104 285.5t297 78.5q178 0 493 -45v-90q-494 18 -493 19q-15 1 -29 1q-120 0 -184 -46q-72 -52 -72 -203v-135q0 -135 57.5 -176t182.5 -41h272q98 0 165 -28t99.5 -79t46 -105.5t13.5 -123.5v-140q0 -104 -34 -173.5t-96.5 -103.5t-128 -46 t-151.5 -12q-74 0 -252 16t-250 29v90q195 -18 502 -19q293 0 293 219v140q0 109 -47 163t-160 54h-268q-117 0 -192.5 27.5t-110.5 80t-46 103.5t-11 125z" />
<glyph unicode="T" horiz-adv-x="1200" d="M94 1382v117h1047v-117h-471v-1382h-117v1382h-459z" />
<glyph unicode="U" horiz-adv-x="1390" d="M184 655v844h117v-844q0 -90 7 -162.5t16.5 -127t31 -96.5t38 -68.5t50 -45t56 -28.5t67.5 -14t72 -5.5t80 -1.5h8q84 0 131 5.5t109.5 35t95.5 85t57.5 162t24.5 261.5v844h117v-844q0 -137 -18.5 -244.5t-43 -177t-72 -117.5t-85 -73t-103.5 -37t-104.5 -14t-108.5 -2 h-17q-90 0 -136 3t-119.5 20.5t-111.5 59.5t-81 112.5t-60.5 189t-17.5 280.5z" />
<glyph unicode="V" horiz-adv-x="1363" d="M102 1499h129l465 -1323l488 1323h127l-553 -1499h-125z" />
<glyph unicode="W" horiz-adv-x="1976" d="M102 1499h129l463 -1309l416 1309h131l-164 -526l295 -791l424 1317h127l-485 -1499h-125l-297 780l-258 -780h-125z" />
<glyph unicode="X" horiz-adv-x="1198" d="M102 1499h131l388 -655l393 655h131l-447 -745l437 -754h-131l-383 651l-381 -651h-131l436 754z" />
<glyph unicode="Y" horiz-adv-x="1282" d="M102 1499h129l414 -825l457 825h127l-524 -967v-532h-117v532z" />
<glyph unicode="Z" horiz-adv-x="1142" d="M80 0v117l838 1265h-838v117h989v-117l-838 -1265h838v-117h-989z" />
<glyph unicode="[" horiz-adv-x="661" d="M195 -78v1450q0 57 9 108.5t35.5 112t86 96t147.5 35.5h143v-116h-143q-74 0 -118 -61.5t-44 -174.5v-1450q0 -106 41 -170.5t121 -64.5h143v-117h-143q-88 0 -147.5 36t-86 96t-35.5 111.5t-9 108.5z" />
<glyph unicode="\" horiz-adv-x="786" d="M45 1577h121l575 -1724h-120z" />
<glyph unicode="]" horiz-adv-x="661" d="M45 -313h143q80 0 121 64.5t41 170.5v1450q0 113 -43 174.5t-119 61.5h-143v116h143q88 0 147.5 -35.5t86.5 -96t36 -111.5t9 -109v-1450q0 -57 -9 -108.5t-36 -111.5t-86.5 -96t-147.5 -36h-143v117z" />
<glyph unicode="^" horiz-adv-x="813" d="M115 1087l250 267h110l223 -267h-108l-172 177l-193 -177h-110z" />
<glyph unicode="_" horiz-adv-x="1368" d="M45 -2v117h1278v-117h-1278z" />
<glyph unicode="`" horiz-adv-x="466" d="M45 1360h148l229 -273h-105z" />
<glyph unicode="a" horiz-adv-x="1062" d="M92 258v125q0 127 73 199.5t200 72.5q234 -1 351.5 -1t117.5 1q1 68 1 102.5t-1 35.5q0 202 -201 202h-2q-193 0 -504 -32v84q215 59 510 61h7q132 0 218 -77q88 -79 88 -238v-793h-86l-30 131l-31 -14q-31 -14 -82 -36t-109.5 -43.5t-126 -35.5t-120.5 -14 q-117 0 -195 71.5t-78 198.5zM209 268q0 -86 44 -125t112 -39h6q162 0 463 111v352l-469 -28q-156 -10 -156 -164v-107z" />
<glyph unicode="b" horiz-adv-x="1132" d="M137 0v1608h113v-586q92 37 210 59.5t193 22.5q111 0 186.5 -47t113.5 -133t52.5 -177.5t14.5 -207.5q0 -82 -9.5 -155t-35 -147.5t-65.5 -128t-105.5 -87t-151.5 -33.5q-94 0 -224 47t-177 86l-33 -121h-82zM252 205q225 -100 401 -101q115 0 182.5 110t67.5 325 q0 254 -64.5 351t-185.5 97q-190 0 -401 -55v-727z" />
<glyph unicode="c" horiz-adv-x="1024" d="M115 545q0 172 25.5 285.5t76.5 170t110.5 77t145.5 20.5q168 0 447 -54v-81q-264 18 -447 18q-61 0 -100 -13.5t-74 -56.5t-51.5 -135t-16.5 -239q0 -250 57.5 -340.5t184.5 -90.5l461 29v-86q-199 -55 -461 -59q-84 0 -142.5 20.5t-110.5 76.5t-78.5 171t-26.5 287z " />
<glyph unicode="d" horiz-adv-x="1132" d="M115 539q0 117 14 208t51 177t113 133t186 47q76 0 194 -22.5t210 -59.5v586h112v-1608h-80l-34 121q-47 -39 -177.5 -86t-224.5 -47q-106 0 -181 49t-113 134t-54 174.5t-16 193.5zM231 539q0 -219 67 -327t181 -108q180 0 402 101v727q-213 55 -402 55 q-121 0 -184.5 -96t-63.5 -352z" />
<glyph unicode="e" horiz-adv-x="1075" d="M115 549q0 180 23.5 288.5t84 166t137 75t209.5 17.5q88 0 142.5 -5.5t113 -27t89 -62t51 -112.5t20.5 -178q0 -119 -68.5 -175.5t-211.5 -56.5h-474q0 -223 54.5 -298t187.5 -75q309 0 492 27v-86q-203 -57 -492 -57q-207 2 -282.5 123t-75.5 436zM231 594h474 q80 0 121.5 25.5t41.5 91.5q0 92 -13 145t-52 81t-88 35t-144 7q-72 0 -112.5 -3t-84.5 -16.5t-66.5 -38t-42 -67.5t-27 -105.5t-7.5 -154.5z" />
<glyph unicode="f" horiz-adv-x="806" d="M45 971v86l193 30v203q0 45 2 77t14 82t35.5 82t70 55.5t109.5 23.5q164 0 293 -41v-74h-264h-7q-86 0 -111 -48q-26 -50 -26 -157v-203h324v-116h-324v-971h-116v971h-193z" />
<glyph unicode="g" horiz-adv-x="1146" d="M102 -57l64 161q-57 44 -57 136q0 55 35.5 103t103.5 56q-139 72 -139 306q0 387 354 387h639v-86l-187 -31q2 -2 11.5 -14.5t13.5 -18.5t13.5 -21.5t14.5 -27.5t12 -33.5t10 -43t6 -50.5t3 -61q0 -57 -13 -113.5t-46 -122.5t-104.5 -106.5t-173.5 -40.5h-320 q-117 0 -117 -80q0 -43 34 -64.5t77 -21.5h432q131 0 202.5 -76t71.5 -203v-121q0 -309 -307 -309h-307q-150 0 -238 81t-88 234v181zM221 72v-310q0 -198 205 -198h2h307q190 0 191 192v115q0 86 -38 128t-138 42h-412q-35 0 -63.5 8t-41.5 16zM225 705q0 -115 54.5 -191 t169.5 -76h202q125 0 179 81q53 78 53 179v7q-4 135 -51.5 202.5t-151.5 67.5h-223q-232 0 -232 -270z" />
<glyph unicode="h" d="M137 0v1606h117v-645q78 47 129 72.5t130 49t157 23.5q156 0 246 -102.5t90 -245.5v-758h-117v758q0 109 -59.5 170t-159.5 61q-117 0 -200 -25.5t-216 -93.5v-870h-117z" />
<glyph unicode="i" horiz-adv-x="382" d="M115 1268v114q0 43 41 43h75q39 0 39 -43v-114q0 -41 -39 -41h-75q-41 0 -41 41zM131 0v1087h117v-1087h-117z" />
<glyph unicode="j" horiz-adv-x="430" d="M137 1268v114q0 43 41 43h76q39 0 39 -43v-114q0 -41 -39 -41h-76q-41 0 -41 41zM156 -553v1640h116v-1095v-57q0 -316 -41 -488h-75z" />
<glyph unicode="k" horiz-adv-x="1021" d="M137 0v1602h117v-918h96l461 403h166l-516 -462l516 -625h-150l-477 565h-96v-565h-117z" />
<glyph unicode="l" horiz-adv-x="612" d="M137 387v1217h117v-1217q0 -82 11 -135t35 -80t44.5 -38t50.5 -17q158 -37 172 -37v-80h-166q-264 0 -264 387z" />
<glyph unicode="m" horiz-adv-x="1861" d="M137 0v1087h80l37 -129q78 47 127 73t126 48.5t152 22.5q100 0 181.5 -44t117.5 -118q88 70 209 116t244 46q147 0 241.5 -99.5t94.5 -250.5v-752h-117v752q0 102 -60.5 167.5t-158.5 65.5q-225 0 -424 -125q10 -27 10 -104v-756h-116v752q0 102 -61.5 167.5t-160.5 65.5 q-113 0 -191.5 -25.5t-213.5 -93.5v-866h-117z" />
<glyph unicode="n" d="M137 0v1087h80l37 -126q78 47 129 72.5t130 49t157 23.5q156 0 246 -102.5t90 -245.5v-758h-117v758q0 106 -60.5 168.5t-158.5 62.5q-117 0 -200 -25.5t-216 -93.5v-870h-117z" />
<glyph unicode="o" horiz-adv-x="1165" d="M115 528q0 328 102 449t367 121q268 0 368.5 -126t100.5 -444q0 -303 -101.5 -420.5t-367.5 -117.5q-268 0 -368.5 120.5t-100.5 417.5zM231 528q0 -141 21.5 -228t72 -128t106.5 -53.5t153 -12.5q98 0 155.5 13.5t106.5 56.5t69.5 128t20.5 224q0 152 -19.5 243 t-67.5 137t-106.5 59.5t-158.5 13.5q-80 0 -128 -7t-96.5 -31.5t-73 -73t-40 -132.5t-15.5 -209z" />
<glyph unicode="p" horiz-adv-x="1132" d="M137 -551v1638h82l33 -120q47 39 177 86t224 47q86 0 151.5 -34t105.5 -87t65.5 -128t35 -147.5t9.5 -154.5q0 -117 -14.5 -208t-52.5 -177t-113.5 -133t-186.5 -47q-76 0 -193.5 22.5t-209.5 59.5v-617h-113zM252 156q211 -55 401 -56q121 0 185.5 97.5t64.5 351.5 q0 215 -67.5 324.5t-182.5 109.5q-180 0 -401 -100v-727z" />
<glyph unicode="q" horiz-adv-x="1138" d="M115 549q0 264 94 407.5t283 143.5q143 0 509 -39v-1614h-116v612q-195 -79 -388 -79h-5q-115 0 -191 41.5t-116 122.5t-55 177.5t-15 227.5zM231 549q0 -80 4.5 -136.5t18.5 -121t42 -103t77 -65.5t119 -27q174 0 393 56v831h-393q-261 0 -261 -434z" />
<glyph unicode="r" horiz-adv-x="870" d="M137 0v1087h80l37 -137q4 2 36 20.5t39 22.5t36.5 20.5t41 20.5t39 17.5t43 17.5t41 12.5t46 10.5t46 5t52.5 3q111 0 151 -17v-114q-49 12 -151 12q-80 0 -156 -19.5t-116 -37t-148 -68.5v-856h-117z" />
<glyph unicode="s" horiz-adv-x="1034" d="M92 737v94q0 131 65.5 199t217.5 68q215 0 514 -29v-86h-514q-102 0 -134 -36t-32 -116v-94q0 -92 38 -115.5t128 -23.5h303q127 0 196.5 -67.5t69.5 -184.5v-100q0 -152 -72.5 -204t-193.5 -52q-70 0 -271.5 13t-269.5 20v83h541h5h4q141 0 140 140v100q0 137 -149 137 h-303q-154 0 -218.5 51t-64.5 203z" />
<glyph unicode="t" horiz-adv-x="753" d="M45 973v86l193 31l30 303h86v-303h332v-117h-332v-586q0 -104 23.5 -165.5t50.5 -79t68 -25.5q158 -35 172 -35v-82h-166q-264 0 -264 387v586h-193z" />
<glyph unicode="u" d="M115 330v757h116v-757q0 -106 60.5 -169t159.5 -63q117 0 197.5 27t217.5 94v868h117v-1087h-80l-37 127q-78 -47 -129 -72.5t-130 -49t-156 -23.5q-156 0 -246 102.5t-90 245.5z" />
<glyph unicode="v" horiz-adv-x="1085" d="M45 1087h127l369 -917l374 917h125l-442 -1087h-119z" />
<glyph unicode="w" horiz-adv-x="1624" d="M45 1087h129l348 -917l318 917h127l-125 -368l252 -549l358 917h127l-422 -1087h-119l-254 563l-198 -563h-127z" />
<glyph unicode="x" horiz-adv-x="1042" d="M55 0l394 545l-394 542h146l317 -444l324 444h145l-395 -546l385 -541h-135l-320 442l-321 -442h-146z" />
<glyph unicode="y" horiz-adv-x="1116" d="M47 1087h129l277 -849q23 -66 63 -96q34 -25 61 -25h7l28 4l326 966h129l-479 -1431l-133 -209h-70l186 553q-176 0 -243 225z" />
<glyph unicode="z" horiz-adv-x="946" d="M68 971v116h811v-116l-627 -852h627v-117h-779v117l633 852h-665z" />
<glyph unicode="{" horiz-adv-x="643" d="M45 629v108q39 4 59.5 7.5t55.5 15.5t52 36.5t17 63.5v483q0 164 89.5 272.5t279.5 108.5v-116q-121 0 -186.5 -58.5t-65.5 -206.5v-483q0 -72 -48 -118t-122 -58q72 -10 120 -58t48 -112v-592q0 -246 254 -235v-117q-109 0 -185.5 31.5t-114.5 86t-54.5 111t-16.5 123.5 v584q0 63 -57 96t-125 27z" />
<glyph unicode="|" horiz-adv-x="507" d="M197 -147v1724h116v-1724h-116z" />
<glyph unicode="}" horiz-adv-x="643" d="M45 -313q254 -10 254 235v592q0 63 48 111.5t120 58.5q-74 12 -122 58t-48 118v483q0 147 -65.5 206t-186.5 59v116q190 0 279.5 -108.5t89.5 -272.5v-483q0 -39 17.5 -63.5t52 -36.5t55 -15.5t59.5 -7.5v-108q-68 6 -125 -27t-57 -96v-584q0 -68 -16.5 -124 t-54.5 -110.5t-114.5 -86t-185.5 -31.5v117z" />
<glyph unicode="~" horiz-adv-x="919" d="M115 1171q12 10 42.5 38t45 39.5t40 27.5t50 22.5t53.5 6.5q45 0 120 -49.5t112 -49.5q23 0 44 5.5t46.5 18.5t36 19t39 25.5t30.5 21.5l33 -61q-4 -4 -29.5 -28.5t-35 -34t-34 -29t-41 -27.5t-41 -15t-48.5 -7q-47 0 -123 49t-113 49q-35 0 -63.5 -10.5t-71.5 -36 t-62 -35.5z" />
<glyph unicode="&#xa1;" horiz-adv-x="548" d="M190 791v114q0 35 41 39h74q16 -2 28.5 -13t12.5 -30v-110q-4 -45 -39 -46h-76q-41 1 -41 46zM203 -553l10 1092h111l14 -1092h-135z" />
<glyph unicode="&#xa2;" horiz-adv-x="1001" d="M92 545q0 178 26.5 292.5t82 172t120 76t162.5 14.5v188h95v-194q139 -14 319 -50v-81q-264 20 -446 20q-61 0 -100.5 -13.5t-74 -57.5t-51 -136t-16.5 -239q0 -250 57.5 -341.5t184.5 -91.5l460 29v-86q-152 -45 -333 -55v-178h-95v174q-78 -2 -131 8t-106 43t-84 93.5 t-50.5 164t-19.5 248.5z" />
<glyph unicode="&#xa3;" horiz-adv-x="1222" d="M115 0v90l147 27v573h-147v70l147 28v246q0 92 12.5 164t33 120t55 83t69.5 53.5t88 28.5t97.5 13t111.5 3q51 0 146.5 -7t164.5 -14l70 -8v-86h-377q-74 0 -117 -3t-89 -14t-69.5 -33.5t-44 -61.5t-27.5 -96.5t-7 -141.5v-246l569 -28v-70h-569v-573h729v-117h-993z" />
<glyph unicode="&#xa4;" horiz-adv-x="944" d="M117 936l61 55l86 -90q86 70 201 70q121 0 209 -72l96 94l55 -61l-94 -94q63 -84 64 -193q0 -115 -66 -207l98 -98l-65 -57l-90 92q-88 -76 -207 -76q-111 0 -199 74l-92 -90l-55 63l88 86q-68 94 -68 213q0 113 68 199zM225 641q0 -104 70 -179t170 -75q102 0 173 75 t71 179q0 100 -71 171t-173 71q-98 0 -169 -71t-71 -171z" />
<glyph unicode="&#xa5;" horiz-adv-x="1216" d="M45 1499h131l412 -725l450 725h133l-522 -842h387v-90h-389v-133h389v-90h-389v-344h-117v344h-368v90h368v133h-368v90h366z" />
<glyph unicode="&#xa6;" horiz-adv-x="509" d="M197 -147v671h116v-671h-116zM197 879v698h116v-698h-116z" />
<glyph unicode="&#xa7;" horiz-adv-x="1134" d="M125 1208v144q0 137 75.5 195.5t190.5 58.5q70 0 271.5 -13.5t269.5 -19.5v-84h-541q-147 0 -149 -137v-144q0 -115 149 -114h346q164 0 219.5 -58.5t53.5 -183.5v-127q0 -172 -92 -182q31 -4 50 -21.5t27.5 -44t10.5 -48t2 -54.5v-150q0 -80 -23.5 -131t-70 -73.5 t-88.5 -29.5t-101 -7q-213 0 -524 32v84h524q82 0 124 26t42 99v150q0 72 -30 92t-124 20h-346q-139 0 -201.5 45.5t-62.5 190.5v127q0 164 98 190q-100 25 -100 168zM242 723q0 -80 30.5 -98.5t118.5 -18.5h346q104 0 129 23.5t25 95.5v127q0 74 -27.5 100.5t-126.5 26.5 h-346q-88 0 -118.5 -22.5t-30.5 -108.5v-125z" />
<glyph unicode="&#xa8;" horiz-adv-x="911" d="M115 1192q0 33 23.5 56.5t58.5 23.5q33 0 55 -23.5t22 -56.5q0 -35 -22.5 -58.5t-55 -23.5t-57 24.5t-24.5 57.5zM637 1192q0 33 23.5 56.5t58.5 23.5q33 0 55.5 -23.5t22.5 -56.5q0 -35 -22.5 -58.5t-55.5 -23.5q-35 0 -58.5 24.5t-23.5 57.5z" />
<glyph unicode="&#xa9;" horiz-adv-x="1697" d="M125 754q0 111 11 207t43 198.5t83 175t138 118.5t200 46h543q430 0 430 -745q0 -209 -41 -373t-141.5 -272.5t-247.5 -108.5h-543q-133 0 -231.5 77t-148.5 198.5t-72.5 241.5t-22.5 237zM221 754q0 -162 38 -305.5t127 -248t214 -104.5h543q145 2 239.5 173t94.5 485 q0 649 -334 649h-543q-377 0 -379 -649zM485 748q0 233 80 339.5t215 106.5q113 0 365 -45v-76q-172 25 -365 25q-199 0 -198 -357q0 -166 44 -255t154 -89q195 0 377 33v-76q-188 -53 -377 -53q-137 0 -216 97.5t-79 349.5z" />
<glyph unicode="&#xaa;" horiz-adv-x="741" d="M68 565v88h606v-88h-606zM68 948v94q0 84 55 134.5t149 50.5q303 -2 303 0q2 63 0 65q0 131 -157 131q-94 0 -326 -20v63q16 4 58.5 12.5t65 12.5t60 10t76.5 9t82 3q104 2 170 -51t66 -159v-529h-62l-30 100l-21 -11q-20 -11 -53 -27.5t-71 -32t-82 -26.5t-79 -11 q-84 0 -144 48t-60 134zM164 969q0 -109 121 -109q55 0 127.5 19.5t117.5 39.5l45 19v221l-290 -16q-121 -6 -121 -113v-61z" />
<glyph unicode="&#xab;" horiz-adv-x="1122" d="M115 725l420 416l83 -82l-339 -334l350 -344l-82 -82zM494 725l421 416l82 -82l-340 -334l353 -344l-84 -82z" />
<glyph unicode="&#xac;" horiz-adv-x="1081" d="M115 541v118h854v-333h-117v215h-737z" />
<glyph unicode="&#xad;" horiz-adv-x="733" d="M45 537v114h643v-114h-643z" />
<glyph unicode="&#xae;" horiz-adv-x="1697" d="M125 754q0 111 11 207t43 198.5t83 175t138 118.5t200 46h543q430 0 430 -745q0 -209 -41 -373t-141.5 -272.5t-247.5 -108.5h-543q-133 0 -231.5 77t-148.5 198.5t-72.5 241.5t-22.5 237zM221 754q0 -162 38 -305.5t127 -248t214 -104.5h543q145 2 239.5 173t94.5 485 q0 649 -334 649h-543q-377 0 -379 -649zM551 313v875h362q268 0 269 -260q0 -78 -18.5 -130.5t-54.5 -76t-58.5 -30.5t-62.5 -13q-9 -2 -13 -2l199 -363h-109l-201 363l-217 20v-383h-96zM647 762h279q92 0 125.5 32.5t33.5 131t-43 132.5t-116 34h-279v-330z" />
<glyph unicode="&#xaf;" horiz-adv-x="798" d="M115 1087v97h571v-97h-571z" />
<glyph unicode="&#xb0;" horiz-adv-x="643" d="M115 1294q0 88 61.5 149.5t147.5 61.5t146 -61.5t60 -149.5t-60 -148.5t-146 -60.5t-147.5 60.5t-61.5 148.5zM188 1294.5q0 -55.5 40 -94.5t95.5 -39t94.5 39t39 94.5t-39 95.5t-94.5 40t-95.5 -40t-40 -95.5z" />
<glyph unicode="&#xb1;" horiz-adv-x="1083" d="M129 213v117h832v-117h-832zM129 809v117h356v358h117v-358h359v-117h-359v-356h-117v356h-356z" />
<glyph unicode="&#xb2;" horiz-adv-x="808" d="M71 1754l1 5q203 25 374 25q266 0 267 -279q0 -240 -441 -599q-12 -9 -16 -13h455v-96h-633v88q10 8 85 66.5t117 93t114.5 102t112.5 119t72.5 116t32.5 117.5q0 96 -40 142.5t-144 46.5h-356q-7 0 -1 66z" />
<glyph unicode="&#xb3;" horiz-adv-x="851" d="M68 1679v64q20 6 43.5 11t42 8t49 5t47 3.5t54.5 2.5t52 1h58h55q125 0 186.5 -68t61.5 -168v-72q0 -70 -40 -119t-85 -63q125 -59 125 -194v-58q0 -119 -58.5 -181.5t-201.5 -62.5q-281 0 -381 33l2 62l362 2q98 0 138 33.5t40 121.5v47q0 78 -49 116t-120 40l-291 10 v70l291 12q80 4 127 42t47 104v53q0 145 -168 145h-387z" />
<glyph unicode="&#xb4;" horiz-adv-x="466" d="M45 1087l229 273h148l-272 -273h-105z" />
<glyph unicode="&#xb5;" horiz-adv-x="1232" d="M207 330v757h117v-757q0 -106 60 -169t159 -63q117 0 197.5 27t217.5 94v868h117v-1087h-80l-37 127q-78 -47 -129 -72.5t-129.5 -49t-156.5 -23.5q-135 0 -219 88v-623h-117v883z" />
<glyph unicode="&#xb6;" horiz-adv-x="1181" d="M92 1022v190q0 137 95.5 212t224.5 75h727v-121h-142v-1378h-116v1382h-242v-1935h-117v1311q-74 -33 -110 -31q-152 0 -236 84t-84 211zM209 1026q0 -74 42 -118t82 -54t79 -10h110v538h-110q-102 0 -152.5 -51t-50.5 -123v-182z" />
<glyph unicode="&#xb7;" horiz-adv-x="550" d="M195 739v86q0 43 41 43h79q41 0 41 -43v-86q0 -39 -41 -39h-79q-16 0 -28.5 11.5t-12.5 27.5z" />
<glyph unicode="&#xb8;" horiz-adv-x="526" d="M115 -299l94 23q55 16 78.5 61t21.5 139h103q0 -158 -42 -218t-165 -60h-90v55z" />
<glyph unicode="&#xb9;" horiz-adv-x="542" d="M37 1587v72l262 113h96v-975h-96v868z" />
<glyph unicode="&#xba;" horiz-adv-x="790" d="M68 1126q0 219 69.5 301t262 82t258 -80.5t65.5 -302.5q0 -203 -66.5 -282.5t-257 -79.5t-261 80.5t-70.5 281.5zM92 569v86h610v-86h-610zM164 1126q0 -170 51 -219t184 -49q68 0 105 7t68.5 34t44 81t12.5 146q0 129 -23.5 191.5t-68.5 80t-138 17.5q-72 0 -108.5 -7 t-70.5 -36t-45 -87.5t-11 -158.5z" />
<glyph unicode="&#xbb;" horiz-adv-x="1122" d="M115 381l352 344l-342 334l82 82l422 -416l-430 -426zM494 381l352 344l-340 334l82 82l422 -416l-432 -426z" />
<glyph unicode="&#xbc;" horiz-adv-x="1828" d="M37 1315v71l262 113h96v-975h-96v869zM444 0l740 1526h100l-739 -1526h-101zM1006 317l413 654h111l-373 -592h410v248l43 98h53v-346h121v-76l-121 -27v-276h-96v276h-529z" />
<glyph unicode="&#xbd;" horiz-adv-x="1972" d="M37 1315v71l262 113h96v-975h-96v869zM430 0l737 1526h103l-740 -1526h-100zM1238 958l1 5q203 25 375 24q266 0 266 -278q0 -41 -12.5 -85t-37 -87t-50 -83t-64.5 -82t-68.5 -74t-70.5 -68.5t-62.5 -56t-54.5 -47.5t-37 -30h455v-96h-633v88q8 6 85 66.5t118 94.5 t113.5 101.5t112.5 118.5t73 115.5t33 117.5q0 96 -40 142.5t-145 46.5h-356q-7 0 -1 67z" />
<glyph unicode="&#xbe;" horiz-adv-x="2072" d="M68 1407v63q20 6 43.5 11.5t42 8.5t49 5t47 3t54.5 2t52 1h58h55q125 0 186.5 -67.5t61.5 -167.5v-72q0 -70 -40 -119t-85 -63q125 -59 125 -195v-57q0 -119 -58.5 -181.5t-201.5 -62.5q-281 0 -381 33l2 61l362 2q98 0 138 34t40 122v47q0 78 -49 116t-120 40l-291 10 v70l291 12q80 4 127 42t47 103v54q0 145 -168 145h-387zM662 0l739 1526h100l-739 -1526h-100zM1178 317l413 654h105l-373 -596h420v252l41 98h51v-350h121v-72l-121 -24v-279h-92v279h-533z" />
<glyph unicode="&#xbf;" horiz-adv-x="1101" d="M90 43q-2 186 135 266t377 49v207h123l2 -303h-268q-104 -4 -167 -63.5t-67 -165.5q-2 -178 -2 -207q0 -121 71 -190.5t220 -67.5l545 2q-2 0 -2 -10v-21v-25v-20q0 -8 -2 -8q-326 -41 -557 -35q-231 -2 -319.5 103.5t-88.5 279.5v209zM586 809v111q0 41 39 45h75 q41 -4 41 -41v-115q-4 -41 -36 -43h-84q-35 8 -35 43z" />
<glyph unicode="&#xc0;" horiz-adv-x="1363" d="M102 0l555 1499h125l529 -1499h-137l-148 453h-627l-155 -453h-142zM395 1905h148l227 -273h-102zM442 569h543l-266 760z" />
<glyph unicode="&#xc1;" horiz-adv-x="1363" d="M102 0l555 1499h125l529 -1499h-137l-148 453h-627l-155 -453h-142zM442 569h543l-266 760zM668 1632l229 273h145l-272 -273h-102z" />
<glyph unicode="&#xc2;" horiz-adv-x="1363" d="M102 0l555 1499h125l529 -1499h-137l-148 453h-627l-155 -453h-142zM428 1632l250 266h108l226 -266h-109l-174 176l-192 -176h-109zM442 569h543l-266 760z" />
<glyph unicode="&#xc3;" horiz-adv-x="1363" d="M102 0l555 1499h125l529 -1499h-137l-148 453h-627l-155 -453h-142zM373 1710q51 43 79.5 64.5t71.5 42t82 20.5q51 -2 129 -50t105 -48q16 0 34.5 4t43 15t37 18.5t42 25t35.5 21.5l33 -62q-8 -6 -33.5 -27.5t-37 -30.5t-36 -26.5t-41 -24.5t-39 -12.5t-42.5 -5.5 q-55 2 -127 49.5t-105 47.5q-39 0 -68.5 -11.5t-70.5 -36t-59 -34.5zM442 569h543l-266 760z" />
<glyph unicode="&#xc4;" horiz-adv-x="1363" d="M102 0l555 1499h125l529 -1499h-137l-148 453h-627l-155 -453h-142zM379 1714q0 35 23.5 57.5t56.5 22.5t56.5 -22.5t23.5 -57.5t-23.5 -58.5t-56.5 -23.5t-56.5 23.5t-23.5 58.5zM442 569h543l-266 760zM899 1714q0 33 23.5 56.5t58.5 23.5t57.5 -22.5t22.5 -57.5 t-23.5 -58.5t-56.5 -23.5q-35 0 -58.5 23.5t-23.5 58.5z" />
<glyph unicode="&#xc5;" horiz-adv-x="1363" d="M102 0l555 1499h25q-74 14 -122 71.5t-48 133.5q0 88 61.5 149.5t147.5 61.5t146.5 -61.5t60.5 -149.5q0 -76 -47 -133.5t-121 -71.5h22l529 -1499h-137l-148 453h-627l-155 -453h-142zM442 569h543l-266 760zM586 1704q0 -55 40 -94t95 -39t94 39t39 94t-39 95t-94 40 t-95 -40t-40 -95z" />
<glyph unicode="&#xc6;" horiz-adv-x="1894" d="M68 0l665 1227q98 182 190.5 229t256.5 43l618 -29v-90h-618q-49 0 -79 -9t-42 -29.5t-15.5 -41t-2.5 -56.5q0 -9 -1 -15v-430l676 -19v-88l-676 -18v-424q0 -49 12.5 -79t41 -41t48 -13t60.5 -2l594 -2v-93l-594 -28q-279 -16 -278 256v235h-463l-262 -483h-131z M522 598h402v741z" />
<glyph unicode="&#xc7;" horiz-adv-x="1177" d="M125 754q0 190 21.5 322t74.5 235.5t153.5 154t250.5 50.5q203 0 479 -52v-88l-18 1q-17 1 -45.5 3t-66.5 5.5t-83 5.5t-89 4t-91 3t-86 1q-141 0 -221 -52.5t-121 -194.5t-41 -402q0 -645 383 -646q96 0 216 5.5t191 9.5l72 4v-90q-242 -45 -479 -45q-500 0 -500 766z M442 -297l95 23q57 16 79.5 61t20.5 139h102q0 -158 -42 -218t-165 -60h-90v55z" />
<glyph unicode="&#xc8;" horiz-adv-x="1171" d="M184 252v981q0 141 74 205.5t184 60.5l633 -29v-88h-633q-80 0 -110.5 -37.5t-30.5 -111.5v-428l692 -17v-90l-692 -16v-430q0 -49 13.5 -79t40 -43t49 -16t59.5 -3h612v-86l-612 -31q-57 -2 -101.5 6t-87.5 32.5t-66.5 81t-23.5 138.5zM377 1894h147l228 -272h-103z" />
<glyph unicode="&#xc9;" horiz-adv-x="1171" d="M184 252v981q0 141 74 205.5t184 60.5l633 -29v-88h-633q-80 0 -110.5 -37.5t-30.5 -111.5v-428l692 -17v-90l-692 -16v-430q0 -49 13.5 -79t40 -43t49 -16t59.5 -3h612v-86l-612 -31q-57 -2 -101.5 6t-87.5 32.5t-66.5 81t-23.5 138.5zM618 1622l230 272h147l-272 -272 h-105z" />
<glyph unicode="&#xca;" horiz-adv-x="1171" d="M184 252v981q0 141 74 205.5t184 60.5l633 -29v-88h-633q-80 0 -110.5 -37.5t-30.5 -111.5v-428l692 -17v-90l-692 -16v-430q0 -49 13.5 -79t40 -43t49 -16t59.5 -3h612v-86l-612 -31q-57 -2 -101.5 6t-87.5 32.5t-66.5 81t-23.5 138.5zM369 1632l249 266h111l223 -266 h-108l-174 176l-191 -176h-110z" />
<glyph unicode="&#xcb;" horiz-adv-x="1171" d="M184 252v981q0 141 74 205.5t184 60.5l633 -29v-88h-633q-80 0 -110.5 -37.5t-30.5 -111.5v-428l692 -17v-90l-692 -16v-430q0 -49 13.5 -79t40 -43t49 -16t59.5 -3h612v-86l-612 -31q-57 -2 -101.5 6t-87.5 32.5t-66.5 81t-23.5 138.5zM313 1726.5q0 34.5 23.5 57 t56.5 22.5t56.5 -22.5t23.5 -57t-23.5 -58t-56.5 -23.5t-56.5 23.5t-23.5 58zM834 1726q0 33 23.5 56.5t58 23.5t57 -22.5t22.5 -57t-23.5 -58t-56.5 -23.5q-35 0 -58 23t-23 58z" />
<glyph unicode="&#xcc;" horiz-adv-x="428" d="M-82 1905h145l230 -273h-103zM184 0v1499h117v-1499h-117z" />
<glyph unicode="&#xcd;" horiz-adv-x="428" d="M184 0v1499h117v-1499h-117zM190 1632l230 273h145l-272 -273h-103z" />
<glyph unicode="&#xce;" horiz-adv-x="428" d="M-51 1632l252 266h108l226 -266h-109l-174 176l-193 -176h-110zM184 0v1499h117v-1499h-117z" />
<glyph unicode="&#xcf;" horiz-adv-x="428" d="M-100 1714q0 33 23.5 56.5t58 23.5t57 -22.5t22.5 -57.5t-23.5 -58.5t-55.5 -23.5q-35 0 -58.5 23.5t-23.5 58.5zM184 0v1499h117v-1499h-117zM422 1714q0 33 23.5 56.5t58.5 23.5q33 0 56.5 -22.5t23.5 -57.5t-23.5 -58.5t-56.5 -23.5t-57.5 23.5t-24.5 58.5z" />
<glyph unicode="&#xd0;" horiz-adv-x="1353" d="M51 723v82h133v692q0 2 537 2q133 0 232.5 -50t154.5 -126t89 -182.5t44 -198.5t10 -199q0 -135 -28.5 -261t-88 -236.5t-167 -178t-246.5 -67.5h-537v723h-133zM301 121h420q106 0 187 53t128 143.5t70.5 199t23.5 228.5q0 631 -409 631l-420 -2v-569h297v-82h-297v-602 z" />
<glyph unicode="&#xd1;" horiz-adv-x="1380" d="M184 0v1499h119l834 -1280v1280h116v-1499h-116l-836 1280v-1280h-117zM373 1710q53 45 79.5 65.5t70.5 41t83 20.5q51 -2 128 -50t104 -48q16 0 34.5 4t43 15t37 18.5t42 25t35.5 21.5l35 -62q-8 -6 -33.5 -27.5t-37 -30.5t-36 -26.5t-41 -24.5t-39 -12.5t-42.5 -5.5 q-55 2 -128 49.5t-106 47.5q-39 0 -68.5 -11.5t-69.5 -36t-61 -34.5z" />
<glyph unicode="&#xd2;" horiz-adv-x="1382" d="M150 739q0 207 27.5 350.5t71.5 225.5t122 126t154.5 56t193.5 12q98 0 165.5 -8t138.5 -34.5t115 -79t80.5 -136.5t53 -212t16.5 -300q0 -197 -25.5 -332t-67.5 -216.5t-118 -126t-156.5 -58.5t-201.5 -14q-102 0 -171 8t-139.5 33.5t-113.5 76t-79 132.5t-51 205.5 t-15 291.5zM266 739q0 -168 15.5 -278.5t45 -182t88 -108.5t126 -49t178.5 -12q176 0 267 44t138 180t47 406q0 156 -11 266.5t-40.5 182.5t-61.5 113.5t-91.5 61t-109.5 25t-138 5.5q-57 0 -91 -1t-80 -7.5t-72.5 -18.5t-60.5 -34.5t-53.5 -56.5t-40 -82t-30.5 -112.5 t-17.5 -150t-7.5 -191.5zM395 1905h148l229 -273h-104z" />
<glyph unicode="&#xd3;" horiz-adv-x="1382" d="M150 739q0 207 27.5 350.5t71.5 225.5t122 126t154.5 56t193.5 12q98 0 165.5 -8t138.5 -34.5t115 -79t80.5 -136.5t53 -212t16.5 -300q0 -197 -25.5 -332t-67.5 -216.5t-118 -126t-156.5 -58.5t-201.5 -14q-102 0 -171 8t-139.5 33.5t-113.5 76t-79 132.5t-51 205.5 t-15 291.5zM266 739q0 -168 15.5 -278.5t45 -182t88 -108.5t126 -49t178.5 -12q176 0 267 44t138 180t47 406q0 156 -11 266.5t-40.5 182.5t-61.5 113.5t-91.5 61t-109.5 25t-138 5.5q-57 0 -91 -1t-80 -7.5t-72.5 -18.5t-60.5 -34.5t-53.5 -56.5t-40 -82t-30.5 -112.5 t-17.5 -150t-7.5 -191.5zM668 1632l229 273h147l-272 -273h-104z" />
<glyph unicode="&#xd4;" horiz-adv-x="1382" d="M150 739q0 207 27.5 350.5t71.5 225.5t122 126t154.5 56t193.5 12q98 0 165.5 -8t138.5 -34.5t115 -79t80.5 -136.5t53 -212t16.5 -300q0 -197 -25.5 -332t-67.5 -216.5t-118 -126t-156.5 -58.5t-201.5 -14q-102 0 -171 8t-139.5 33.5t-113.5 76t-79 132.5t-51 205.5 t-15 291.5zM266 739q0 -168 15.5 -278.5t45 -182t88 -108.5t126 -49t178.5 -12q176 0 267 44t138 180t47 406q0 156 -11 266.5t-40.5 182.5t-61.5 113.5t-91.5 61t-109.5 25t-138 5.5q-57 0 -91 -1t-80 -7.5t-72.5 -18.5t-60.5 -34.5t-53.5 -56.5t-40 -82t-30.5 -112.5 t-17.5 -150t-7.5 -191.5zM428 1632l250 266h110l224 -266h-109l-174 176l-192 -176h-109z" />
<glyph unicode="&#xd5;" horiz-adv-x="1382" d="M150 739q0 207 27.5 350.5t71.5 225.5t122 126t154.5 56t193.5 12q98 0 165.5 -8t138.5 -34.5t115 -79t80.5 -136.5t53 -212t16.5 -300q0 -197 -25.5 -332t-67.5 -216.5t-118 -126t-156.5 -58.5t-201.5 -14q-102 0 -171 8t-139.5 33.5t-113.5 76t-79 132.5t-51 205.5 t-15 291.5zM266 739q0 -168 15.5 -278.5t45 -182t88 -108.5t126 -49t178.5 -12q176 0 267 44t138 180t47 406q0 156 -11 266.5t-40.5 182.5t-61.5 113.5t-91.5 61t-109.5 25t-138 5.5q-57 0 -91 -1t-80 -7.5t-72.5 -18.5t-60.5 -34.5t-53.5 -56.5t-40 -82t-30.5 -112.5 t-17.5 -150t-7.5 -191.5zM373 1710q51 43 79.5 64.5t71.5 42t82 20.5q51 -2 129 -50t105 -48q16 0 34.5 4t43 15t37 18.5t42 25t35.5 21.5l33 -62q-8 -6 -33.5 -27.5t-37 -30.5t-36 -26.5t-41 -24.5t-39 -12.5t-42.5 -5.5q-55 2 -127 49.5t-105 47.5q-39 0 -68.5 -11.5 t-70.5 -36t-59 -34.5z" />
<glyph unicode="&#xd6;" horiz-adv-x="1382" d="M150 739q0 207 27.5 350.5t71.5 225.5t122 126t154.5 56t193.5 12q98 0 165.5 -8t138.5 -34.5t115 -79t80.5 -136.5t53 -212t16.5 -300q0 -197 -25.5 -332t-67.5 -216.5t-118 -126t-156.5 -58.5t-201.5 -14q-102 0 -171 8t-139.5 33.5t-113.5 76t-79 132.5t-51 205.5 t-15 291.5zM266 739q0 -168 15.5 -278.5t45 -182t88 -108.5t126 -49t178.5 -12q176 0 267 44t138 180t47 406q0 156 -11 266.5t-40.5 182.5t-61.5 113.5t-91.5 61t-109.5 25t-138 5.5q-57 0 -91 -1t-80 -7.5t-72.5 -18.5t-60.5 -34.5t-53.5 -56.5t-40 -82t-30.5 -112.5 t-17.5 -150t-7.5 -191.5zM379 1714q0 35 23.5 57.5t56.5 22.5t56.5 -22.5t23.5 -57.5t-23.5 -58.5t-56.5 -23.5t-56.5 23.5t-23.5 58.5zM899 1714q0 33 23.5 56.5t58.5 23.5t57.5 -22.5t22.5 -57.5t-23.5 -58.5t-56.5 -23.5q-35 0 -58.5 23.5t-23.5 58.5z" />
<glyph unicode="&#xd7;" horiz-adv-x="923" d="M129 477l252 250l-252 254l82 82l252 -252l254 252l82 -82l-254 -254l254 -250l-82 -84l-254 252l-250 -250z" />
<glyph unicode="&#xd8;" horiz-adv-x="1382" d="M150 739q0 207 26.5 350.5t70.5 225.5t121.5 126t154.5 56t196 12q270 0 379 -88l51 78h94l-88 -135q133 -172 133 -625q0 -197 -25.5 -332t-67.5 -216.5t-118 -126t-156.5 -58.5t-201.5 -14q-276 0 -387 86l-51 -78h-97l88 137q-122 160 -122 602zM266 739 q0 -360 78 -489l690 1071q-51 45 -122.5 58.5t-192.5 13.5q-57 0 -91 -1t-80 -7.5t-72.5 -18.5t-60.5 -34.5t-53.5 -56.5t-40 -82t-30.5 -112.5t-17.5 -150t-7.5 -191.5zM397 184q88 -76 322 -75q176 0 267 44t138 180t47 406q0 373 -84 516z" />
<glyph unicode="&#xd9;" horiz-adv-x="1390" d="M184 655v844h117v-844q0 -90 7 -162.5t16.5 -127t31 -96.5t38 -68.5t50 -45t56 -28.5t67.5 -14t72 -5.5t80 -1.5h8q84 0 131 5.5t109.5 35t95.5 85t57.5 162t24.5 261.5v844h117v-844q0 -137 -18.5 -244.5t-43 -177t-72 -117.5t-85 -73t-103.5 -37t-104.5 -14t-108.5 -2 h-17q-90 0 -136 3t-119.5 20.5t-111.5 59.5t-81 112.5t-60.5 189t-17.5 280.5zM399 1905h146l229 -273h-102z" />
<glyph unicode="&#xda;" horiz-adv-x="1390" d="M184 655v844h117v-844q0 -90 7 -162.5t16.5 -127t31 -96.5t38 -68.5t50 -45t56 -28.5t67.5 -14t72 -5.5t80 -1.5h8q84 0 131 5.5t109.5 35t95.5 85t57.5 162t24.5 261.5v844h117v-844q0 -137 -18.5 -244.5t-43 -177t-72 -117.5t-85 -73t-103.5 -37t-104.5 -14t-108.5 -2 h-17q-90 0 -136 3t-119.5 20.5t-111.5 59.5t-81 112.5t-60.5 189t-17.5 280.5zM672 1632l229 273h146l-273 -273h-102z" />
<glyph unicode="&#xdb;" horiz-adv-x="1390" d="M184 655v844h117v-844q0 -90 7 -162.5t16.5 -127t31 -96.5t38 -68.5t50 -45t56 -28.5t67.5 -14t72 -5.5t80 -1.5h8q84 0 131 5.5t109.5 35t95.5 85t57.5 162t24.5 261.5v844h117v-844q0 -137 -18.5 -244.5t-43 -177t-72 -117.5t-85 -73t-103.5 -37t-104.5 -14t-108.5 -2 h-17q-90 0 -136 3t-119.5 20.5t-111.5 59.5t-81 112.5t-60.5 189t-17.5 280.5zM430 1632l250 266h111l225 -266h-109l-174 176l-192 -176h-111z" />
<glyph unicode="&#xdc;" horiz-adv-x="1390" d="M184 655v844h117v-844q0 -90 7 -162.5t16.5 -127t31 -96.5t38 -68.5t50 -45t56 -28.5t67.5 -14t72 -5.5t80 -1.5h8q84 0 131 5.5t109.5 35t95.5 85t57.5 162t24.5 261.5v844h117v-844q0 -137 -18.5 -244.5t-43 -177t-72 -117.5t-85 -73t-103.5 -37t-104.5 -14t-108.5 -2 h-17q-90 0 -136 3t-119.5 20.5t-111.5 59.5t-81 112.5t-60.5 189t-17.5 280.5zM381 1714q0 33 23.5 56.5t58.5 23.5q33 0 56.5 -22.5t23.5 -57.5t-23.5 -58.5t-56.5 -23.5t-57.5 23.5t-24.5 58.5zM903 1714q0 33 23.5 56.5t58.5 23.5t57.5 -22.5t22.5 -57.5t-23.5 -58.5 t-56.5 -23.5q-35 0 -58.5 23.5t-23.5 58.5z" />
<glyph unicode="&#xdd;" horiz-adv-x="1282" d="M102 1499h129l414 -825l457 825h127l-524 -967v-532h-117v532zM614 1632l230 273h145l-272 -273h-103z" />
<glyph unicode="&#xde;" horiz-adv-x="1136" d="M137 0v1493h117v-289h418q360 -4 360 -436q0 -121 -23.5 -209t-58.5 -135t-87 -76t-95 -36t-96 -7q-242 0 -418 33v-338h-117zM254 422h418q115 -2 178 73.5t63 276.5q0 102 -23.5 170t-64.5 96.5t-75.5 37.5t-77.5 9h-418v-663z" />
<glyph unicode="&#xdf;" horiz-adv-x="1163" d="M137 0v1159q0 186 118 309t329 123q172 0 281.5 -52t143 -132t27.5 -169t-54 -169t-116 -127q-27 -23 -68.5 -53.5t-61 -46t-41 -38t-30 -44t-8.5 -47.5q0 -55 73 -83t159 -39t158.5 -66.5t72.5 -157.5v-97q2 -145 -95 -215.5t-228 -70.5q-82 0 -355 36v91 q25 0 91.5 -3.5t136 -5.5t133.5 -2q94 0 146 50.5t55 119.5v97q0 51 -47.5 78.5t-116 40t-136 29.5t-115.5 65.5t-48 132.5q0 90 47 147.5t209 173.5q115 82 123 215q12 119 -83.5 172.5t-252.5 53.5q-147 0 -238.5 -79t-91.5 -237v-1159h-117z" />
<glyph unicode="&#xe0;" horiz-adv-x="1062" d="M92 258v125q0 127 73 199.5t200 72.5q469 -2 469 0q2 135 0 138q0 203 -203 202q-193 0 -504 -32v84q215 59 510 61q137 2 225 -77t88 -238v-793h-86l-30 131l-31 -14q-31 -14 -82 -36t-109.5 -43.5t-126 -35.5t-120.5 -14q-117 0 -195 71.5t-78 198.5zM209 268 q0 -86 44 -125t112 -39q162 -2 469 111v352l-469 -28q-156 -10 -156 -164v-107zM225 1503h146l229 -272h-102z" />
<glyph unicode="&#xe1;" horiz-adv-x="1062" d="M92 258v125q0 127 73 199.5t200 72.5q469 -2 469 0q2 135 0 138q0 203 -203 202q-193 0 -504 -32v84q215 59 510 61q137 2 225 -77t88 -238v-793h-86l-30 131l-31 -14q-31 -14 -82 -36t-109.5 -43.5t-126 -35.5t-120.5 -14q-117 0 -195 71.5t-78 198.5zM209 268 q0 -86 44 -125t112 -39q162 -2 469 111v352l-469 -28q-156 -10 -156 -164v-107zM487 1231l228 272h147l-272 -272h-103z" />
<glyph unicode="&#xe2;" horiz-adv-x="1062" d="M92 258v125q0 127 73 199.5t200 72.5q469 -2 469 0q2 135 0 138q0 203 -203 202q-193 0 -504 -32v84q215 59 510 61q137 2 225 -77t88 -238v-793h-86l-30 131l-31 -14q-31 -14 -82 -36t-109.5 -43.5t-126 -35.5t-120.5 -14q-117 0 -195 71.5t-78 198.5zM209 268 q0 -86 44 -125t112 -39q162 -2 469 111v352l-469 -28q-156 -10 -156 -164v-107zM250 1231l252 266h108l226 -266h-109l-174 176l-193 -176h-110z" />
<glyph unicode="&#xe3;" horiz-adv-x="1062" d="M92 258v125q0 127 73 199.5t200 72.5q469 -2 469 0q2 135 0 138q0 203 -203 202q-193 0 -504 -32v84q215 59 510 61q137 2 225 -77t88 -238v-793h-86l-30 131l-31 -14q-31 -14 -82 -36t-109.5 -43.5t-126 -35.5t-120.5 -14q-117 0 -195 71.5t-78 198.5zM186 1315 q51 43 80 64.5t72 42t82 20.5q51 -2 129 -50.5t102 -48.5q55 -2 193 87l35 -62q-6 -4 -25.5 -21.5t-28 -23.5t-27 -20.5t-28.5 -21.5t-27.5 -17.5t-31 -14.5t-29.5 -7t-33 -3q-55 2 -126.5 49t-104.5 47q-39 0 -69 -11t-70.5 -35.5t-61.5 -35.5zM209 268q0 -86 44 -125 t112 -39q162 -2 469 111v352l-469 -28q-156 -10 -156 -164v-107z" />
<glyph unicode="&#xe4;" horiz-adv-x="1062" d="M92 258v125q0 127 73 199.5t200 72.5q469 -2 469 0q2 135 0 138q0 203 -203 202q-193 0 -504 -32v84q215 59 510 61q137 2 225 -77t88 -238v-793h-86l-30 131l-31 -14q-31 -14 -82 -36t-109.5 -43.5t-126 -35.5t-120.5 -14q-117 0 -195 71.5t-78 198.5zM199 1335.5 q0 32.5 23.5 56t58.5 23.5q33 0 55 -23.5t22 -56.5q0 -35 -22.5 -58.5t-54.5 -23.5q-35 0 -58.5 25t-23.5 57.5zM209 268q0 -86 44 -125t112 -39q162 -2 469 111v352l-469 -28q-156 -10 -156 -164v-107zM721 1335.5q0 32.5 23.5 56t58.5 23.5q33 0 55.5 -23.5t22.5 -56.5 q0 -35 -22.5 -58.5t-55.5 -23.5t-57.5 25t-24.5 57.5z" />
<glyph unicode="&#xe5;" horiz-adv-x="1062" d="M92 258v125q0 127 73 199.5t200 72.5q469 -2 469 0q2 135 0 138q0 203 -203 202q-193 0 -504 -32v84q215 59 510 61q137 2 225 -77t88 -238v-793h-86l-30 131l-31 -14q-31 -14 -82 -36t-109.5 -43.5t-126 -35.5t-120.5 -14q-117 0 -195 71.5t-78 198.5zM209 268 q0 -86 44 -125t112 -39q162 -2 469 111v352l-469 -28q-156 -10 -156 -164v-107zM332 1378q0 88 61.5 149.5t147.5 61.5t145 -61.5t59 -149.5t-59 -148.5t-145 -60.5t-147.5 60.5t-61.5 148.5zM403 1378.5q0 -55.5 41 -94.5t96.5 -39t94.5 39t39 94.5t-39 95t-94.5 39.5 t-96.5 -39.5t-41 -95z" />
<glyph unicode="&#xe6;" horiz-adv-x="1796" d="M92 266v74q0 127 73 199.5t200 72.5q469 -2 469 0q2 186 0 189q0 203 -203 203q-186 0 -504 -33v84q193 57 510 61q201 4 274 -151q45 82 134.5 110.5t242.5 28.5q90 0 142.5 -4t112 -24.5t90 -59.5t51 -110.5t20.5 -178.5q0 -119 -68.5 -175t-212.5 -56h-471 q-2 -236 41 -308.5t201 -72.5q287 -4 489 26v-86q-203 -57 -489 -57q-98 0 -165.5 23.5t-93.5 47t-63 70.5l-34 -14q-35 -14 -91.5 -35.5t-121 -43t-136 -36t-124.5 -14.5q-117 0 -195 71.5t-78 198.5zM209 276q0 -86 44 -124.5t112 -38.5q162 -2 469 114v303l-469 -26 q-156 -8 -156 -164v-64zM952 610h471q84 0 124 24.5t40 92.5q0 76 -10 122t-26.5 75.5t-56.5 42t-82 16.5t-122 4q-72 0 -114.5 -4t-85.5 -16.5t-66 -37t-41 -67.5t-24.5 -103.5t-6.5 -148.5z" />
<glyph unicode="&#xe7;" horiz-adv-x="1024" d="M115 545q0 172 25.5 285.5t76.5 171t110.5 78t145.5 20.5q158 0 447 -56v-81q-264 20 -447 20q-61 0 -100 -13.5t-74 -57.5t-51.5 -136t-16.5 -239q0 -250 57.5 -341.5t184.5 -91.5l461 29v-86q-199 -55 -461 -59q-84 0 -142.5 20.5t-110.5 77.5t-78.5 172t-26.5 287z M348 -299l94 25q55 16 78 61t23 139h102q0 -160 -42 -219t-165 -59h-90v53z" />
<glyph unicode="&#xe8;" horiz-adv-x="1075" d="M115 549q0 180 23.5 288.5t84 166t137 75t209.5 17.5q88 0 142.5 -5.5t113 -27t89 -62t51 -112.5t20.5 -178q0 -119 -68.5 -175.5t-211.5 -56.5h-474q0 -223 54.5 -298t187.5 -75q309 0 492 27v-86q-203 -57 -492 -57q-207 2 -282.5 123t-75.5 436zM231 594h474 q80 0 121.5 25.5t41.5 91.5q0 92 -13 145t-52 81t-88 35t-144 7q-72 0 -112.5 -3t-84.5 -16.5t-66.5 -38t-42 -67.5t-27 -105.5t-7.5 -154.5zM256 1489h145l230 -272h-103z" />
<glyph unicode="&#xe9;" horiz-adv-x="1075" d="M115 549q0 180 23.5 288.5t84 166t137 75t209.5 17.5q88 0 142.5 -5.5t113 -27t89 -62t51 -112.5t20.5 -178q0 -119 -68.5 -175.5t-211.5 -56.5h-474q0 -223 54.5 -298t187.5 -75q309 0 492 27v-86q-203 -57 -492 -57q-207 2 -282.5 123t-75.5 436zM231 594h474 q80 0 121.5 25.5t41.5 91.5q0 92 -13 145t-52 81t-88 35t-144 7q-72 0 -112.5 -3t-84.5 -16.5t-66.5 -38t-42 -67.5t-27 -105.5t-7.5 -154.5zM510 1217l229 272h148l-273 -272h-104z" />
<glyph unicode="&#xea;" horiz-adv-x="1075" d="M115 549q0 180 23.5 288.5t84 166t137 75t209.5 17.5q88 0 142.5 -5.5t113 -27t89 -62t51 -112.5t20.5 -178q0 -119 -68.5 -175.5t-211.5 -56.5h-474q0 -223 54.5 -298t187.5 -75q309 0 492 27v-86q-203 -57 -492 -57q-207 2 -282.5 123t-75.5 436zM231 594h474 q80 0 121.5 25.5t41.5 91.5q0 92 -13 145t-52 81t-88 35t-144 7q-72 0 -112.5 -3t-84.5 -16.5t-66.5 -38t-42 -67.5t-27 -105.5t-7.5 -154.5zM266 1217l250 266h111l225 -266h-109l-174 176l-192 -176h-111z" />
<glyph unicode="&#xeb;" horiz-adv-x="1075" d="M115 549q0 180 23.5 288.5t84 166t137 75t209.5 17.5q88 0 142.5 -5.5t113 -27t89 -62t51 -112.5t20.5 -178q0 -119 -68.5 -175.5t-211.5 -56.5h-474q0 -223 54.5 -298t187.5 -75q309 0 492 27v-86q-203 -57 -492 -57q-207 2 -282.5 123t-75.5 436zM219 1321 q0 35 23.5 57.5t56.5 22.5t56.5 -22.5t23.5 -57.5t-23.5 -57.5t-56.5 -22.5t-56.5 22.5t-23.5 57.5zM231 594h474q80 0 121.5 25.5t41.5 91.5q0 92 -13 145t-52 81t-88 35t-144 7q-72 0 -112.5 -3t-84.5 -16.5t-66.5 -38t-42 -67.5t-27 -105.5t-7.5 -154.5zM739 1321 q0 33 23.5 56.5t58.5 23.5t57.5 -22.5t22.5 -57.5t-22.5 -57.5t-57.5 -22.5t-58.5 23.5t-23.5 56.5z" />
<glyph unicode="&#xec;" horiz-adv-x="391" d="M-129 1493h147l230 -272h-105zM137 0v1087h117v-1087h-117z" />
<glyph unicode="&#xed;" horiz-adv-x="391" d="M137 0v1087h117v-1087h-117zM143 1221l230 272h147l-272 -272h-105z" />
<glyph unicode="&#xee;" horiz-adv-x="391" d="M-96 1221l250 266h110l223 -266h-108l-174 176l-191 -176h-110zM137 0v1087h117v-1087h-117z" />
<glyph unicode="&#xef;" horiz-adv-x="391" d="M-145 1302.5q0 32.5 23.5 56t56 23.5t56 -23.5t23.5 -55.5q0 -35 -23.5 -58.5t-56 -23.5t-56 24.5t-23.5 57zM137 0v1087h117v-1087h-117zM377 1302.5q0 32.5 23.5 56t56.5 23.5q35 0 57.5 -23.5t22.5 -55.5q0 -35 -24 -58.5t-56.5 -23.5t-56 24.5t-23.5 57z" />
<glyph unicode="&#xf0;" horiz-adv-x="1101" d="M92 541q0 274 83 410t282 136h184q51 0 111.5 -20t78.5 -45q-55 215 -169 330l-310 -123l-35 92l254 100q-127 84 -307 80v103q266 0 430 -136l250 101l37 -92l-207 -82q236 -276 236 -854q0 -291 -96.5 -416t-272.5 -125h-184q-205 0 -285 128t-80 413zM209 541 q0 -139 17.5 -226.5t53 -128.5t75.5 -53t102 -12h184q143 0 197.5 107.5t54.5 312.5q0 227 -51 328.5t-201 101.5h-184q-127 0 -187.5 -88t-60.5 -342z" />
<glyph unicode="&#xf1;" d="M137 0v1087h80l37 -126q78 47 129 72.5t130 49t157 23.5q156 0 246 -102.5t90 -245.5v-758h-117v758q0 106 -60.5 168.5t-158.5 62.5q-117 0 -200 -25.5t-216 -93.5v-870h-117zM225 1307q51 43 80 64.5t72 42t82 20.5q51 -2 128 -50.5t103 -48.5q14 0 32.5 4t31 8.5 t35 16.5t31.5 17t34 20.5t29 17.5l35 -61q-8 -6 -34 -27.5t-37 -31t-36 -27t-41 -24.5t-38.5 -12t-43.5 -5q-55 2 -127 49t-104 47q-39 0 -69 -11t-71 -36t-61 -35z" />
<glyph unicode="&#xf2;" horiz-adv-x="1165" d="M115 528q0 328 102 449t367 121q268 0 368.5 -126t100.5 -444q0 -303 -101.5 -420.5t-367.5 -117.5q-268 0 -368.5 120.5t-100.5 417.5zM231 528q0 -141 21.5 -228t72 -128t106.5 -53.5t153 -12.5q98 0 155.5 13.5t106.5 56.5t69.5 128t20.5 224q0 152 -19.5 243 t-67.5 137t-106.5 59.5t-158.5 13.5q-80 0 -128 -7t-96.5 -31.5t-73 -73t-40 -132.5t-15.5 -209zM272 1493h148l227 -272h-102z" />
<glyph unicode="&#xf3;" horiz-adv-x="1165" d="M115 528q0 328 102 449t367 121q268 0 368.5 -126t100.5 -444q0 -303 -101.5 -420.5t-367.5 -117.5q-268 0 -368.5 120.5t-100.5 417.5zM231 528q0 -141 21.5 -228t72 -128t106.5 -53.5t153 -12.5q98 0 155.5 13.5t106.5 56.5t69.5 128t20.5 224q0 152 -19.5 243 t-67.5 137t-106.5 59.5t-158.5 13.5q-80 0 -128 -7t-96.5 -31.5t-73 -73t-40 -132.5t-15.5 -209zM532 1221l228 272h147l-272 -272h-103z" />
<glyph unicode="&#xf4;" horiz-adv-x="1165" d="M115 528q0 328 102 449t367 121q268 0 368.5 -126t100.5 -444q0 -303 -101.5 -420.5t-367.5 -117.5q-268 0 -368.5 120.5t-100.5 417.5zM231 528q0 -141 21.5 -228t72 -128t106.5 -53.5t153 -12.5q98 0 155.5 13.5t106.5 56.5t69.5 128t20.5 224q0 152 -19.5 243 t-67.5 137t-106.5 59.5t-158.5 13.5q-80 0 -128 -7t-96.5 -31.5t-73 -73t-40 -132.5t-15.5 -209zM297 1221l250 266h110l226 -266h-109l-174 176l-192 -176h-111z" />
<glyph unicode="&#xf5;" horiz-adv-x="1165" d="M115 528q0 328 102 449t367 121q268 0 368.5 -126t100.5 -444q0 -303 -101.5 -420.5t-367.5 -117.5q-268 0 -368.5 120.5t-100.5 417.5zM231 528q0 -141 21.5 -228t72 -128t106.5 -53.5t153 -12.5q98 0 155.5 13.5t106.5 56.5t69.5 128t20.5 224q0 152 -19.5 243 t-67.5 137t-106.5 59.5t-158.5 13.5q-80 0 -128 -7t-96.5 -31.5t-73 -73t-40 -132.5t-15.5 -209zM250 1298q53 45 79.5 65.5t70.5 41t83 20.5q51 -2 128 -50t104 -48q16 0 34.5 4t43 15.5t37 18.5t42 24.5t35.5 21.5l35 -61q-8 -6 -33.5 -28t-37 -31t-36 -26.5t-41 -24.5 t-39 -12t-42.5 -5q-57 2 -129 49t-105 47q-39 0 -68.5 -11.5t-69.5 -36t-60 -34.5z" />
<glyph unicode="&#xf6;" horiz-adv-x="1165" d="M115 528q0 328 102 449t367 121q268 0 368.5 -126t100.5 -444q0 -303 -101.5 -420.5t-367.5 -117.5q-268 0 -368.5 120.5t-100.5 417.5zM231 528q0 -141 21.5 -228t72 -128t106.5 -53.5t153 -12.5q98 0 155.5 13.5t106.5 56.5t69.5 128t20.5 224q0 152 -19.5 243 t-67.5 137t-106.5 59.5t-158.5 13.5q-80 0 -128 -7t-96.5 -31.5t-73 -73t-40 -132.5t-15.5 -209zM244 1303q0 33 23.5 56t56 23t56 -23.5t23.5 -55.5q0 -35 -23.5 -58.5t-56 -23.5t-56 23.5t-23.5 58.5zM764 1302.5q0 32.5 23.5 56t58.5 23.5t57.5 -23.5t22.5 -55.5 q0 -35 -23.5 -58.5t-56.5 -23.5q-35 0 -58.5 24.5t-23.5 57z" />
<glyph unicode="&#xf7;" horiz-adv-x="1079" d="M115 664v118h852v-118h-852zM469 344v102q0 43 41 43h76q39 0 39 -43v-102q0 -39 -39 -39h-76q-41 0 -41 39zM469 981v104q0 41 41 41h76q39 0 39 -41v-104q0 -37 -39 -37h-76q-41 0 -41 37z" />
<glyph unicode="&#xf8;" horiz-adv-x="1165" d="M115 528q0 328 102 449t367 121q197 0 297 -66l43 55h102l-80 -108q106 -123 107 -451q0 -303 -101.5 -420.5t-367.5 -117.5q-215 0 -318 73l-47 -63h-96l86 117q-94 116 -94 411zM231 528q0 -213 56 -307l526 715q-70 45 -229 45q-80 0 -128 -7t-96.5 -31.5t-73 -73 t-40 -132.5t-15.5 -209zM336 160q70 -53 248 -54q98 0 155.5 12.5t106.5 55.5t69.5 128t20.5 226q0 256 -66 353z" />
<glyph unicode="&#xf9;" d="M115 330v757h116v-757q0 -106 60.5 -169t159.5 -63q117 0 197.5 27t217.5 94v868h117v-1087h-80l-37 127q-78 -47 -129 -72.5t-130 -49t-156 -23.5q-156 0 -246 102.5t-90 245.5zM238 1493h147l229 -272h-104z" />
<glyph unicode="&#xfa;" d="M115 330v757h116v-757q0 -106 60.5 -169t159.5 -63q117 0 197.5 27t217.5 94v868h117v-1087h-80l-37 127q-78 -47 -129 -72.5t-130 -49t-156 -23.5q-156 0 -246 102.5t-90 245.5zM498 1221l229 272h145l-272 -272h-102z" />
<glyph unicode="&#xfb;" d="M115 330v757h116v-757q0 -106 60.5 -169t159.5 -63q117 0 197.5 27t217.5 94v868h117v-1087h-80l-37 127q-78 -47 -129 -72.5t-130 -49t-156 -23.5q-156 0 -246 102.5t-90 245.5zM256 1221l252 266h108l226 -266h-109l-174 176l-192 -176h-111z" />
<glyph unicode="&#xfc;" d="M115 330v757h116v-757q0 -106 60.5 -169t159.5 -63q117 0 197.5 27t217.5 94v868h117v-1087h-80l-37 127q-78 -47 -129 -72.5t-130 -49t-156 -23.5q-156 0 -246 102.5t-90 245.5zM207 1302.5q0 32.5 23.5 56t58.5 23.5t57.5 -23.5t22.5 -55.5q0 -35 -23.5 -58.5 t-56.5 -23.5q-35 0 -58.5 24.5t-23.5 57zM729 1302.5q0 32.5 23.5 56t58.5 23.5q33 0 56.5 -23.5t23.5 -55.5q0 -35 -23.5 -58.5t-56.5 -23.5t-57.5 24.5t-24.5 57z" />
<glyph unicode="&#xfd;" horiz-adv-x="1116" d="M47 1087h129l277 -849q23 -66 62.5 -95.5t68.5 -25.5l28 4l326 966h129l-479 -1431l-133 -209h-70l186 553q-176 0 -243 225zM506 1221l229 272h146l-273 -272h-102z" />
<glyph unicode="&#xfe;" horiz-adv-x="1138" d="M160 -553v2155h116v-637q53 39 187.5 90t226.5 51q100 0 173 -47t112 -129t56.5 -176.5t17.5 -206.5q0 -92 -7.5 -165t-29 -151.5t-59.5 -131t-105.5 -86t-157.5 -33.5q-80 0 -201.5 21.5t-212.5 57.5v-612h-116zM276 150q162 -45 414 -54q123 0 182.5 102.5t59.5 352.5 q0 213 -64.5 325.5t-177.5 112.5q-152 -6 -414 -108v-731z" />
<glyph unicode="&#xff;" horiz-adv-x="1116" d="M47 1087h129l277 -849q23 -66 62.5 -95.5t68.5 -25.5l28 4l326 966h129l-479 -1431l-133 -209h-70l186 553q-176 0 -243 225zM215 1302.5q0 32.5 23.5 56t58.5 23.5t57.5 -23.5t22.5 -55.5q0 -35 -23.5 -58.5t-56.5 -23.5q-35 0 -58.5 24.5t-23.5 57zM737 1302.5 q0 32.5 23.5 56t58.5 23.5q33 0 56.5 -23.5t23.5 -55.5q0 -35 -23.5 -58.5t-56.5 -23.5t-57.5 24.5t-24.5 57z" />
<glyph unicode="&#x100;" horiz-adv-x="1363" d="M102 0l555 1499h125l529 -1499h-137l-148 453h-627l-155 -453h-142zM434 1632v97h572v-97h-572zM442 569h543l-266 760z" />
<glyph unicode="&#x101;" horiz-adv-x="1062" d="M92 258v125q0 127 73 199.5t200 72.5q469 -2 469 0q2 135 0 138q0 203 -203 202q-193 0 -504 -32v84q215 59 510 61q137 2 225 -77t88 -238v-793h-86l-30 131l-31 -14q-31 -14 -82 -36t-109.5 -43.5t-126 -35.5t-120.5 -14q-117 0 -195 71.5t-78 198.5zM209 268 q0 -86 44 -125t112 -39q162 -2 469 111v352l-469 -28q-156 -10 -156 -164v-107zM268 1231v96h572v-96h-572z" />
<glyph unicode="&#x102;" horiz-adv-x="1363" d="M102 0l555 1499h125l529 -1499h-137l-148 453h-627l-155 -453h-142zM442 569h543l-266 760zM489 1866h74q0 -68 48 -115t112 -45q70 0 117 44t47 116h74q0 -109 -73 -171.5t-165 -62.5q-90 0 -162 65t-72 169z" />
<glyph unicode="&#x103;" horiz-adv-x="1062" d="M92 258v125q0 127 73 199.5t200 72.5q469 -2 469 0q2 135 0 138q0 203 -203 202q-193 0 -504 -32v84q215 59 510 61q137 2 225 -77t88 -238v-793h-86l-30 131l-31 -14q-31 -14 -82 -36t-109.5 -43.5t-126 -35.5t-120.5 -14q-117 0 -195 71.5t-78 198.5zM209 268 q0 -86 44 -125t112 -39q162 -2 469 111v352l-469 -28q-156 -10 -156 -164v-107zM322 1464h73q0 -68 48.5 -114.5t111.5 -44.5q70 0 117 44t47 115h74q0 -109 -73 -171t-165 -62q-90 0 -161.5 64.5t-71.5 168.5z" />
<glyph unicode="&#x104;" horiz-adv-x="1363" d="M102 0l555 1499h125l529 -1499h-33q-92 -59 -122 -126t11 -111t138 -44v-90q-86 -12 -155 26t-94.5 97.5t13.5 130t148 117.5h-43l-148 453h-627l-155 -453h-142zM442 569h543l-266 760z" />
<glyph unicode="&#x105;" horiz-adv-x="1091" d="M104 258v125q0 125 73 198.5t200 73.5q469 -2 469 0q2 135 0 138q0 203 -201 202q-195 0 -506 -32v84q215 59 510 61q137 2 225.5 -77t88.5 -238v-793h-11q-141 -92 -132 -185.5t159 -95.5v-90q-86 -12 -154.5 26t-93 97.5t13 130t146.5 117.5h-12l-33 131l-31 -14 q-31 -14 -81 -36t-109.5 -43.5t-127 -35.5t-120.5 -14q-117 0 -195 71.5t-78 198.5zM221 268q0 -86 44 -125t112 -39q162 -2 469 111v352l-469 -28q-156 -10 -156 -164v-107z" />
<glyph unicode="&#x106;" horiz-adv-x="1177" d="M125 754q0 190 21.5 322t74.5 235.5t153.5 154t250.5 50.5q203 0 479 -52v-88l-18 1q-17 1 -45.5 3t-66.5 5.5t-83 5.5t-89 4t-91 3t-86 1q-141 0 -221 -52.5t-121 -194.5t-41 -402q0 -645 383 -646q96 0 216 5.5t191 9.5l72 4v-90q-242 -45 -479 -45q-500 0 -500 766z M618 1638l230 273h145l-272 -273h-103z" />
<glyph unicode="&#x107;" horiz-adv-x="1024" d="M115 545q0 172 25.5 285.5t76.5 170t110.5 77t145.5 20.5q168 0 447 -54v-81q-264 18 -447 18q-61 0 -100 -13.5t-74 -56.5t-51.5 -135t-16.5 -239q0 -250 57.5 -340.5t184.5 -90.5l461 29v-86q-199 -55 -461 -59q-84 0 -142.5 20.5t-110.5 76.5t-78.5 171t-26.5 287z M502 1223l227 272h148l-273 -272h-102z" />
<glyph unicode="&#x108;" horiz-adv-x="1177" d="M125 754q0 190 21.5 322t74.5 235.5t153.5 154t250.5 50.5q203 0 479 -52v-88l-18 1q-17 1 -45.5 3t-66.5 5.5t-83 5.5t-89 4t-91 3t-86 1q-141 0 -221 -52.5t-121 -194.5t-41 -402q0 -645 383 -646q96 0 216 5.5t191 9.5l72 4v-90q-242 -45 -479 -45q-500 0 -500 766z M385 1638l250 267h110l224 -267h-109l-174 177l-190 -177h-111z" />
<glyph unicode="&#x109;" horiz-adv-x="1024" d="M115 545q0 172 25.5 285.5t76.5 170t110.5 77t145.5 20.5q168 0 447 -54v-81q-264 18 -447 18q-61 0 -100 -13.5t-74 -56.5t-51.5 -135t-16.5 -239q0 -250 57.5 -340.5t184.5 -90.5l461 29v-86q-199 -55 -461 -59q-84 0 -142.5 20.5t-110.5 76.5t-78.5 171t-26.5 287z M279 1223l249 266h109l225 -266h-108l-174 176l-193 -176h-108z" />
<glyph unicode="&#x10a;" horiz-adv-x="1177" d="M125 754q0 190 21.5 322t74.5 235.5t153.5 154t250.5 50.5q203 0 479 -52v-88l-18 1q-17 1 -45.5 3t-66.5 5.5t-83 5.5t-89 4t-91 3t-86 1q-141 0 -221 -52.5t-121 -194.5t-41 -402q0 -645 383 -646q96 0 216 5.5t191 9.5l72 4v-90q-242 -45 -479 -45q-500 0 -500 766z M621 1681v115q0 43 41 43h75q39 0 39 -43v-115q0 -41 -39 -41h-75q-16 0 -28.5 11.5t-12.5 29.5z" />
<glyph unicode="&#x10b;" horiz-adv-x="1024" d="M115 545q0 172 25.5 285.5t76.5 170t110.5 77t145.5 20.5q168 0 447 -54v-81q-264 18 -447 18q-61 0 -100 -13.5t-74 -56.5t-51.5 -135t-16.5 -239q0 -250 57.5 -340.5t184.5 -90.5l461 29v-86q-199 -55 -461 -59q-84 0 -142.5 20.5t-110.5 76.5t-78.5 171t-26.5 287z M512 1266v116q0 41 41 41h74q41 0 41 -41v-116q0 -39 -41 -39h-74q-41 0 -41 39z" />
<glyph unicode="&#x10c;" horiz-adv-x="1177" d="M125 754q0 190 21.5 322t74.5 235.5t153.5 154t250.5 50.5q203 0 479 -52v-88l-18 1q-17 1 -45.5 3t-66.5 5.5t-83 5.5t-89 4t-91 3t-86 1q-141 0 -221 -52.5t-121 -194.5t-41 -402q0 -645 383 -646q96 0 216 5.5t191 9.5l72 4v-90q-242 -45 -479 -45q-500 0 -500 766z M395 1905h109l186 -176l180 176h109l-231 -267h-113z" />
<glyph unicode="&#x10d;" horiz-adv-x="1024" d="M115 545q0 172 25.5 285.5t76.5 170t110.5 77t145.5 20.5q168 0 447 -54v-81q-264 18 -447 18q-61 0 -100 -13.5t-74 -56.5t-51.5 -135t-16.5 -239q0 -250 57.5 -340.5t184.5 -90.5l461 29v-86q-199 -55 -461 -59q-84 0 -142.5 20.5t-110.5 76.5t-78.5 171t-26.5 287z M268 1489h109l186 -176l180 176h109l-231 -266h-111z" />
<glyph unicode="&#x10e;" horiz-adv-x="1353" d="M184 0v1499h543q133 0 232.5 -50t154.5 -126t90 -182.5t45.5 -199.5t10.5 -198q0 -135 -30 -261t-90.5 -236.5t-167 -178t-245.5 -67.5h-543zM301 121h426q139 0 236.5 93t138.5 230.5t41 300.5q0 637 -416 637h-426v-1261zM387 1888h109l186 -176l180 176h109l-234 -266 h-110z" />
<glyph unicode="&#x10f;" horiz-adv-x="1132" d="M115 539q0 117 14 208t51 177t113 133t186 47q76 0 194 -22.5t210 -59.5v586h112v-1608h-80l-34 121q-47 -39 -177.5 -86t-224.5 -47q-106 0 -181 49t-113 134t-54 174.5t-16 193.5zM231 539q0 -219 67 -327t181 -108q180 0 402 101v727q-213 55 -402 55 q-121 0 -184.5 -96t-63.5 -352zM1104 1552l100 47l19 -92l-15 -227l-75 -92l-23 180z" />
<glyph unicode="&#x110;" horiz-adv-x="1353" d="M51 723v82h133v692q0 2 537 2q133 0 232.5 -50t154.5 -126t89 -182.5t44 -198.5t10 -199q0 -135 -28.5 -261t-88 -236.5t-167 -178t-246.5 -67.5h-537v723h-133zM301 121h420q106 0 187 53t128 143.5t70.5 199t23.5 228.5q0 631 -409 631l-420 -2v-569h297v-82h-297v-602 z" />
<glyph unicode="&#x111;" horiz-adv-x="1132" d="M115 539q0 117 14 208t52 177t114 133t186 47q76 0 193 -22.5t209 -59.5v256h-258v84h258v246h114v-246h154v-84h-154v-1278h-82l-32 121q-47 -39 -177.5 -86t-224.5 -47q-86 0 -151.5 33.5t-105.5 87t-65.5 128t-34.5 147.5t-9 155zM231 539q0 -215 68 -325t182 -110 q176 0 402 101v727q-211 55 -402 55q-121 0 -185.5 -97t-64.5 -351z" />
<glyph unicode="&#x112;" horiz-adv-x="1171" d="M184 252v981q0 141 74 205.5t184 60.5l633 -29v-88h-633q-80 0 -110.5 -37.5t-30.5 -111.5v-428l692 -17v-90l-692 -16v-430q0 -49 13.5 -79t40 -43t49 -16t59.5 -3h612v-86l-612 -31q-57 -2 -101.5 6t-87.5 32.5t-66.5 81t-23.5 138.5zM379 1628v96h569v-96h-569z" />
<glyph unicode="&#x113;" horiz-adv-x="1075" d="M115 549q0 180 23.5 288.5t84 166t137 75t209.5 17.5q88 0 142.5 -5.5t113 -27t89 -62t51 -112.5t20.5 -178q0 -119 -68.5 -175.5t-211.5 -56.5h-474q0 -223 54.5 -298t187.5 -75q309 0 492 27v-86q-203 -57 -492 -57q-207 2 -282.5 123t-75.5 436zM231 594h474 q80 0 121.5 25.5t41.5 91.5q0 92 -13 145t-52 81t-88 35t-144 7q-72 0 -112.5 -3t-84.5 -16.5t-66.5 -38t-42 -67.5t-27 -105.5t-7.5 -154.5zM274 1219v96h570v-96h-570z" />
<glyph unicode="&#x116;" horiz-adv-x="1171" d="M184 252v981q0 141 74 205.5t184 60.5l633 -29v-88h-633q-80 0 -110.5 -37.5t-30.5 -111.5v-428l692 -17v-90l-692 -16v-430q0 -49 13.5 -79t40 -43t49 -16t59.5 -3h612v-86l-612 -31q-57 -2 -101.5 6t-87.5 32.5t-66.5 81t-23.5 138.5zM588 1667v117q0 43 41 43h76 q39 0 38 -43v-117q0 -39 -38 -39h-76q-41 0 -41 39z" />
<glyph unicode="&#x117;" horiz-adv-x="1075" d="M115 549q0 180 23.5 288.5t84 166t137 75t209.5 17.5q88 0 142.5 -5.5t113 -27t89 -62t51 -112.5t20.5 -178q0 -119 -68.5 -175.5t-211.5 -56.5h-474q0 -223 54.5 -298t187.5 -75q309 0 492 27v-86q-203 -57 -492 -57q-207 2 -282.5 123t-75.5 436zM231 594h474 q80 0 121.5 25.5t41.5 91.5q0 92 -13 145t-52 81t-88 35t-144 7q-72 0 -112.5 -3t-84.5 -16.5t-66.5 -38t-42 -67.5t-27 -105.5t-7.5 -154.5zM494 1260v116q0 43 41 43h73q41 0 41 -43v-116q0 -39 -41 -39h-73q-41 0 -41 39z" />
<glyph unicode="&#x118;" horiz-adv-x="1171" d="M184 252v981q0 141 74 205.5t184 60.5l633 -29v-88h-633q-80 0 -110.5 -37.5t-30.5 -111.5v-428l692 -17v-90l-692 -16v-430q0 -49 13.5 -79t40 -43t49 -16t59.5 -3h612v-86q-92 -61 -121.5 -127t11.5 -110t137 -44v-90q-68 -10 -128.5 12.5t-92 64.5t-37.5 93t36 104.5 t126 91.5l-543 -26q-57 -2 -101.5 6t-87.5 32.5t-66.5 81t-23.5 138.5z" />
<glyph unicode="&#x119;" horiz-adv-x="1075" d="M115 549q0 180 23.5 288.5t84 166t137 75t209.5 17.5q88 0 142.5 -5.5t113 -27t89 -62t51 -112.5t20.5 -178q0 -119 -68.5 -175.5t-211.5 -56.5h-474q0 -223 54.5 -298t187.5 -75q309 0 492 27v-86q-92 -59 -122 -125.5t10 -110.5t136 -44v-91q-106 -14 -184 42.5 t-72 146.5t115 155q-154 -31 -375 -30q-207 2 -282.5 123t-75.5 436zM231 594h474q80 0 121.5 25.5t41.5 91.5q0 92 -13 145t-52 81t-88 35t-144 7q-72 0 -112.5 -3t-84.5 -16.5t-66.5 -38t-42 -67.5t-27 -105.5t-7.5 -154.5z" />
<glyph unicode="&#x11a;" horiz-adv-x="1171" d="M184 252v981q0 141 74 205.5t184 60.5l633 -29v-88h-633q-80 0 -110.5 -37.5t-30.5 -111.5v-428l692 -17v-90l-692 -16v-430q0 -49 13.5 -79t40 -43t49 -16t59.5 -3h612v-86l-612 -31q-57 -2 -101.5 6t-87.5 32.5t-66.5 81t-23.5 138.5zM371 1888h108l187 -176l180 176 h108l-231 -266h-111z" />
<glyph unicode="&#x11b;" horiz-adv-x="1075" d="M115 549q0 180 23.5 288.5t84 166t137 75t209.5 17.5q88 0 142.5 -5.5t113 -27t89 -62t51 -112.5t20.5 -178q0 -119 -68.5 -175.5t-211.5 -56.5h-474q0 -223 54.5 -298t187.5 -75q309 0 492 27v-86q-203 -57 -492 -57q-207 2 -282.5 123t-75.5 436zM231 594h474 q80 0 121.5 25.5t41.5 91.5q0 92 -13 145t-52 81t-88 35t-144 7q-72 0 -112.5 -3t-84.5 -16.5t-66.5 -38t-42 -67.5t-27 -105.5t-7.5 -154.5zM283 1481h108l187 -176l180 176h108l-231 -267h-113z" />
<glyph unicode="&#x11c;" horiz-adv-x="1261" d="M125 758q0 135 9 237.5t39 205t80 168t136 106.5t205 41q80 0 243.5 -17.5t272.5 -38.5v-92q-2 0 -38 3t-92 8t-120.5 9.5t-137.5 7.5t-128 3q-209 0 -280.5 -151.5t-71.5 -493.5q0 -358 77.5 -503t282.5 -147q70 0 176.5 25t177.5 49l72 25v475h-377v78q150 41 355 41 q66 0 139 -6v-791h-86l-27 104q-207 -115 -430 -114q-123 -2 -212 38t-139 104.5t-80 170t-38 208t-8 247.5zM389 1638l250 267h111l225 -267h-109l-174 177l-192 -177h-111zM750 1905z" />
<glyph unicode="&#x11d;" horiz-adv-x="1146" d="M102 -57l64 161q-57 44 -57 136q0 55 35.5 103t103.5 56q-139 72 -139 306q0 387 354 387h639v-86l-187 -31q2 -2 11.5 -14.5t13.5 -18.5t13.5 -21.5t14.5 -27.5t12 -33.5t10 -43t6 -50.5t3 -61q0 -57 -13 -113.5t-46 -122.5t-104.5 -106.5t-173.5 -40.5h-320 q-117 0 -117 -80q0 -43 34 -64.5t77 -21.5h432q131 0 202.5 -76t71.5 -203v-121q0 -309 -307 -309h-307q-150 0 -238 81t-88 234v181zM221 72v-310q0 -199 207 -198h307q190 0 191 192v115q0 86 -38 128t-138 42h-412q-35 0 -63.5 8t-41.5 16zM225 705q0 -115 54.5 -191 t169.5 -76h202q125 0 179.5 81t52.5 186q-4 135 -51.5 202.5t-151.5 67.5h-223q-232 0 -232 -270zM276 1223l250 266h111l223 -266h-108l-174 176l-191 -176h-111zM637 1489z" />
<glyph unicode="&#x11e;" horiz-adv-x="1261" d="M125 758q0 135 9 237.5t39 205t80 168t136 106.5t205 41q80 0 243.5 -17.5t272.5 -38.5v-92q-2 0 -38 3t-92 8t-120.5 9.5t-137.5 7.5t-128 3q-209 0 -280.5 -151.5t-71.5 -493.5q0 -358 77.5 -503t282.5 -147q70 0 176.5 25t177.5 49l72 25v475h-377v78q150 41 355 41 q66 0 139 -6v-791h-86l-27 104q-207 -115 -430 -114q-123 -2 -212 38t-139 104.5t-80 170t-38 208t-8 247.5zM457 1872h73q0 -68 48.5 -115t111.5 -45q70 0 117 44t47 116h74q0 -109 -73 -171.5t-165 -62.5q-90 0 -161.5 65t-71.5 169z" />
<glyph unicode="&#x11f;" horiz-adv-x="1146" d="M102 -57l64 161q-57 44 -57 136q0 55 35.5 103t103.5 56q-139 72 -139 306q0 387 354 387h639v-86l-187 -31q2 -2 11.5 -14.5t13.5 -18.5t13.5 -21.5t14.5 -27.5t12 -33.5t10 -43t6 -50.5t3 -61q0 -57 -13 -113.5t-46 -122.5t-104.5 -106.5t-173.5 -40.5h-320 q-117 0 -117 -80q0 -43 34 -64.5t77 -21.5h432q131 0 202.5 -76t71.5 -203v-121q0 -309 -307 -309h-307q-150 0 -238 81t-88 234v181zM221 72v-310q0 -199 207 -198h307q190 0 191 192v115q0 86 -38 128t-138 42h-412q-35 0 -63.5 8t-41.5 16zM225 705q0 -115 54.5 -191 t169.5 -76h202q125 0 179.5 81t52.5 186q-4 135 -51.5 202.5t-151.5 67.5h-223q-232 0 -232 -270zM330 1456h71q0 -68 49.5 -115t112.5 -47q72 2 118 46t46 116h74q0 -109 -73 -171t-165 -62q-90 0 -161.5 64.5t-71.5 168.5z" />
<glyph unicode="&#x120;" horiz-adv-x="1261" d="M125 758q0 135 9 237.5t39 205t80 168t136 106.5t205 41q80 0 243.5 -17.5t272.5 -38.5v-92q-2 0 -38 3t-92 8t-120.5 9.5t-137.5 7.5t-128 3q-209 0 -280.5 -151.5t-71.5 -493.5q0 -358 77.5 -503t282.5 -147q70 0 176.5 25t177.5 49l72 25v475h-377v78q150 41 355 41 q66 0 139 -6v-791h-86l-27 104q-207 -115 -430 -114q-123 -2 -212 38t-139 104.5t-80 170t-38 208t-8 247.5zM602 1677v117q0 43 41 43h76q39 0 39 -43v-117q0 -39 -39 -39h-76q-16 0 -28.5 11.5t-12.5 27.5z" />
<glyph unicode="&#x121;" horiz-adv-x="1146" d="M102 -57l64 161q-57 44 -57 136q0 55 35.5 103t103.5 56q-139 72 -139 306q0 387 354 387h639v-86l-187 -31q2 -2 11.5 -14.5t13.5 -18.5t13.5 -21.5t14.5 -27.5t12 -33.5t10 -43t6 -50.5t3 -61q0 -57 -13 -113.5t-46 -122.5t-104.5 -106.5t-173.5 -40.5h-320 q-117 0 -117 -80q0 -43 34 -64.5t77 -21.5h432q131 0 202.5 -76t71.5 -203v-121q0 -309 -307 -309h-307q-150 0 -238 81t-88 234v181zM221 72v-310q0 -199 207 -198h307q190 0 191 192v115q0 86 -38 128t-138 42h-412q-35 0 -63.5 8t-41.5 16zM225 705q0 -115 54.5 -191 t169.5 -76h202q125 0 179.5 81t52.5 186q-4 135 -51.5 202.5t-151.5 67.5h-223q-232 0 -232 -270zM498 1264v116q0 43 41 43h75q39 0 39 -43v-116q0 -39 -39 -39h-75q-41 0 -41 39z" />
<glyph unicode="&#x122;" horiz-adv-x="1261" d="M125 758q0 135 9 237.5t39 205t80 168t136 106.5t205 41q80 0 243.5 -17.5t272.5 -38.5v-92q-2 0 -38 3t-92 8t-120.5 9.5t-137.5 7.5t-128 3q-209 0 -280.5 -151.5t-71.5 -493.5q0 -358 77.5 -503t282.5 -147q70 0 176.5 25t177.5 49l72 25v475h-377v78q150 41 355 41 q66 0 139 -6v-791h-86l-27 104q-207 -115 -430 -114q-123 -2 -212 38t-139 104.5t-80 170t-38 208t-8 247.5zM594 -184q0 41 37 41h69q35 0 35 -41v-181q0 -61 -33.5 -89.5t-67.5 -25.5l-34 3v43q49 -2 49 47v59h-18q-37 0 -37 39v105z" />
<glyph unicode="&#x123;" horiz-adv-x="1146" d="M102 -57l64 159q-57 44 -57 136q0 57 35.5 105t103.5 56q-139 72 -139 306q0 387 354 387h639v-86l-187 -31q2 -2 11.5 -14.5t13.5 -18.5t13.5 -21.5t14.5 -27.5t12 -33.5t10 -43t6 -50.5t3 -61q0 -57 -13 -113.5t-46 -122.5t-104.5 -106.5t-173.5 -40.5h-320 q-117 0 -117 -80q0 -72 117 -88l403 -52q133 -16 215 -85.5t82 -186.5v-68q0 -55 -11 -102t-40.5 -99.5t-95.5 -83t-160 -30.5h-307q-150 0 -238 81t-88 234v181zM221 72v-310q0 -199 207 -198h307q190 0 191 198v58q0 143 -201 170l-373 49zM225 705q0 -115 54.5 -191 t169.5 -76h202q125 0 179.5 81t52.5 186q-4 135 -51.5 202.5t-151.5 67.5h-223q-232 0 -232 -270zM498 1255v179q0 63 33.5 90.5t67.5 24.5l34 -3v-41q-47 0 -47 -47v-61h16q39 0 39 -37v-105q0 -41 -39 -41h-67q-37 0 -37 41z" />
<glyph unicode="&#x124;" horiz-adv-x="1323" d="M184 0v1499h117v-717h778v717h117v-1499h-117v668h-778v-668h-117zM397 1632l250 266h111l223 -266h-109l-172 176l-192 -176h-111z" />
<glyph unicode="&#x125;" d="M-88 1729l250 266h110l224 -266h-109l-174 176l-190 -176h-111zM152 0v1606h116v-645q78 47 129.5 72.5t130 49t156.5 23.5q156 0 246 -102.5t90 -245.5v-758h-117v758q0 109 -59.5 170t-159.5 61q-117 0 -200 -25.5t-216 -93.5v-870h-116z" />
<glyph unicode="&#x126;" horiz-adv-x="1351" d="M55 1071v84h129v344h117v-344h778v344h117v-344h125v-84h-125v-1071h-117v668h-778v-668h-117v1071h-129zM301 782h778v289h-778v-289z" />
<glyph unicode="&#x127;" d="M-14 1264v84h151v258h121v-258h283v-84h-283v-303q246 147 424 145q152 4 238 -98.5t86 -247.5v-760h-121v756q-6 236 -226 235q-170 -6 -401 -121v-870h-121v1264h-151z" />
<glyph unicode="&#x128;" horiz-adv-x="428" d="M-104 1710q51 43 79.5 64.5t71.5 42t82 20.5q51 -2 128 -50t103 -48q14 0 33 4t31 8t34.5 16.5t32 17.5t34 20.5t28.5 17.5l35 -62q-8 -6 -34 -27.5t-37 -30.5t-35.5 -26.5t-41 -24.5t-39 -12.5t-43.5 -5.5q-55 2 -126.5 49.5t-104.5 47.5q-39 0 -68.5 -11.5t-70.5 -36 t-62 -34.5zM184 0v1499h117v-1499h-117z" />
<glyph unicode="&#x129;" horiz-adv-x="391" d="M-150 1298q53 45 80 65.5t71 41t83 20.5q51 -2 128 -50t103 -48q16 0 35 4t43.5 15.5t36.5 18.5l42 25q30 17 36 21l35 -61q-8 -6 -34 -28t-37 -31t-35.5 -26.5t-41 -24.5t-39 -12t-43.5 -5q-57 2 -128.5 49t-104.5 47q-39 0 -68.5 -11.5t-69.5 -36t-61 -34.5zM137 0 v1087h117v-1087h-117z" />
<glyph unicode="&#x12a;" horiz-adv-x="428" d="M-43 1632v97h569v-97h-569zM184 0v1499h117v-1499h-117z" />
<glyph unicode="&#x12b;" horiz-adv-x="391" d="M-90 1221v96h571v-96h-571zM137 0v1087h117v-1087h-117z" />
<glyph unicode="&#x12e;" horiz-adv-x="428" d="M54.5 -247.5q-25.5 59.5 13 130t147.5 117.5h61q-92 -59 -121.5 -126t11.5 -111t137 -44v-90q-86 -12 -154.5 26t-94 97.5zM184 0v1499h117v-1499h-117z" />
<glyph unicode="&#x12f;" horiz-adv-x="382" d="M18.5 -247.5q-24.5 59.5 14 130t147.5 117.5h62q-92 -59 -122 -126t10 -111t136 -44v-90q-86 -12 -154.5 26t-93 97.5zM129 1268v114q0 43 39 43h76q39 0 39 -43v-114q0 -41 -39 -41h-76q-39 0 -39 41zM145 0v1087h117v-1087h-117z" />
<glyph unicode="&#x130;" horiz-adv-x="428" d="M164 1671v117q0 43 41 43h76q39 0 38 -43v-117q0 -39 -38 -39h-76q-41 0 -41 39zM184 0v1499h117v-1499h-117z" />
<glyph unicode="&#x131;" horiz-adv-x="391" d="M137 0v1087h117v-1087h-117z" />
<glyph unicode="&#x134;" horiz-adv-x="727" d="M80 43l8 82q51 -14 86 -20.5t87 -11.5t86 6.5t68 36t51 76.5t17 126v1161h117v-1161q0 -229 -106 -301q-78 -51 -206 -49t-208 55zM250 1632l250 266h110l224 -266h-109l-174 176l-193 -176h-108z" />
<glyph unicode="&#x135;" horiz-adv-x="411" d="M-96 1225l250 307h110l223 -307h-92l-190 202l-205 -202h-96zM141 -553v1640h125v-1095q4 -309 -43 -545h-82z" />
<glyph unicode="&#x136;" horiz-adv-x="1210" d="M184 0v1499h117v-688h215l479 688h142l-512 -747l512 -752h-142l-479 692h-213v-692h-119zM565 -174q0 41 39 41h68q37 0 37 -41v-180q0 -63 -34 -91t-68 -25l-34 3v43q20 0 31.5 8t14 17.5t2.5 21.5v60h-17q-39 -1 -39 38v105z" />
<glyph unicode="&#x137;" horiz-adv-x="1021" d="M137 0v1602h117v-918h96l461 403h166l-516 -462l516 -625h-150l-477 565h-96v-565h-117zM471 -174q0 41 39 41h68q37 0 36 -41v-180q0 -61 -33.5 -90t-67.5 -26l-34 3v43q47 -2 47 47v60h-16q-39 -1 -39 38v105z" />
<glyph unicode="&#x138;" horiz-adv-x="1028" d="M137 0v1087h117v-487h195l391 487h143l-430 -544l401 -543h-145l-365 483h-188l-2 -483h-117z" />
<glyph unicode="&#x139;" horiz-adv-x="1140" d="M184 258v1241h117v-1241q0 -49 13.5 -78.5t40 -43t49 -16.5t59.5 -3h604v-117h-604q-59 0 -102.5 8t-86.5 33t-66.5 80t-23.5 137zM193 1628l229 273h147l-272 -273h-104z" />
<glyph unicode="&#x13a;" horiz-adv-x="612" d="M137 387v1217h117v-1217q0 -82 11 -135t35 -80t44.5 -38t50.5 -17q158 -37 172 -37v-80h-166q-264 0 -264 387zM186 1726l230 273h147l-272 -273h-105z" />
<glyph unicode="&#x13b;" horiz-adv-x="1140" d="M184 258v1241h117v-1241q0 -49 13.5 -78.5t40 -43t49 -16.5t59.5 -3h604v-117h-604q-59 0 -102.5 8t-86.5 33t-66.5 80t-23.5 137zM569 -174q0 41 39 41h68q37 0 37 -41v-180q0 -61 -34 -90t-68 -26l-33 3v43q47 -2 47 47v60h-17q-39 -1 -39 38v105z" />
<glyph unicode="&#x13c;" horiz-adv-x="612" d="M137 387v1217h117v-1217q0 -82 11 -135t35 -80t44.5 -38t50.5 -17q158 -37 172 -37v-80h-166q-264 0 -264 387zM252 -174q0 41 39 41h67q37 0 37 -41v-180q0 -61 -33.5 -90t-67.5 -26l-34 3v43q47 -2 47 47v60h-16q-39 -1 -39 38v105z" />
<glyph unicode="&#x13d;" horiz-adv-x="1140" d="M184 258v1241h117v-1241q0 -49 13.5 -78.5t40 -43t49 -16.5t59.5 -3h604v-117h-604q-59 0 -102.5 8t-86.5 33t-66.5 80t-23.5 137zM463 1444v137h119v-137l-19 -275h-80z" />
<glyph unicode="&#x13e;" horiz-adv-x="612" d="M137 387v1217h117v-1217q0 -150 31.5 -201t109.5 -69q158 -37 172 -37v-80h-170q-137 0 -198.5 87t-61.5 300zM426 1462v137h119v-137l-19 -274h-80z" />
<glyph unicode="&#x141;" horiz-adv-x="1140" d="M14 684v96l170 74v645h117v-594l272 117l-2 -96l-270 -119v-549q0 -49 13.5 -78.5t40 -43t49 -16.5t59.5 -3h604v-117h-604q-59 0 -102.5 8t-86.5 33t-66.5 80t-23.5 137v500z" />
<glyph unicode="&#x142;" horiz-adv-x="653" d="M20 776v98l158 70v660h117v-607l287 131l-2 -94l-285 -133v-514q0 -145 35 -200.5t106 -69.5q158 -37 172 -37v-80h-170q-260 0 -260 387v463z" />
<glyph unicode="&#x143;" horiz-adv-x="1380" d="M184 0v1499h119l834 -1280v1280h116v-1499h-116l-836 1280v-1280h-117zM686 1632l227 273h148l-273 -273h-102z" />
<glyph unicode="&#x144;" d="M137 0v1087h80l37 -126q78 47 129 72.5t130 49t157 23.5q156 0 246 -102.5t90 -245.5v-758h-117v758q0 106 -60.5 168.5t-158.5 62.5q-117 0 -200 -25.5t-216 -93.5v-870h-117zM516 1229l227 272h148l-273 -272h-102z" />
<glyph unicode="&#x145;" horiz-adv-x="1380" d="M184 0v1499h119l834 -1280v1280h116v-1499h-116l-836 1280v-1280h-117zM647 -178q0 41 37 41h70q37 0 37 -41v-178q0 -63 -34 -92t-68 -26l-34 3v43q47 0 47 47v62h-18q-37 -1 -37 36v105z" />
<glyph unicode="&#x146;" d="M137 0v1087h80l37 -126q78 47 129 72.5t130 49t157 23.5q156 0 246 -102.5t90 -245.5v-758h-117v758q0 106 -60.5 168.5t-158.5 62.5q-117 0 -200 -25.5t-216 -93.5v-870h-117zM502 -174q0 41 39 41h67q37 0 37 -41v-180q0 -61 -33.5 -90t-67.5 -26l-34 3v43q47 -2 47 47 v60h-16q-39 -1 -39 38v105z" />
<glyph unicode="&#x147;" horiz-adv-x="1380" d="M184 0v1499h119l834 -1280v1280h116v-1499h-116l-836 1280v-1280h-117zM440 1898h109l186 -176l180 176h109l-231 -266h-113z" />
<glyph unicode="&#x148;" d="M137 0v1087h80l37 -126q78 47 129 72.5t130 49t157 23.5q156 0 246 -102.5t90 -245.5v-758h-117v758q0 106 -60.5 168.5t-158.5 62.5q-117 0 -200 -25.5t-216 -93.5v-870h-117zM295 1495h108l187 -176l180 176h109l-234 -266h-110z" />
<glyph unicode="&#x14a;" horiz-adv-x="1378" d="M184 0v1499h119l832 -1266v1266h116v-1499v-172q0 -113 -27.5 -185.5t-85 -108.5t-124 -48t-166.5 -12v90q16 4 57 10t60.5 11t52.5 16.5t48 30t34.5 46t27 70.5t7.5 98v154l-832 1280l-2 -1280h-117z" />
<glyph unicode="&#x14b;" horiz-adv-x="1142" d="M137 0v1087h80l37 -126q92 53 131 73.5t120 46t159 25.5q156 0 249 -102.5t93 -245.5v-758l-2 -184q-2 -78 -27 -138.5t-53.5 -93.5t-80.5 -59.5t-82 -35.5t-83 -21l-49 61q53 20 88 37.5t79 50.5t67.5 82t25.5 113v188v758q0 104 -63.5 167.5t-161.5 63.5 q-80 0 -154 -18.5t-118 -37t-138 -65.5v-868h-117z" />
<glyph unicode="&#x14c;" horiz-adv-x="1382" d="M150 739q0 207 27.5 350.5t71.5 225.5t122 126t154.5 56t193.5 12q98 0 165.5 -8t138.5 -34.5t115 -79t80.5 -136.5t53 -212t16.5 -300q0 -197 -25.5 -332t-67.5 -216.5t-118 -126t-156.5 -58.5t-201.5 -14q-102 0 -171 8t-139.5 33.5t-113.5 76t-79 132.5t-51 205.5 t-15 291.5zM266 739q0 -168 15.5 -278.5t45 -182t88 -108.5t126 -49t178.5 -12q176 0 267 44t138 180t47 406q0 156 -11 266.5t-40.5 182.5t-61.5 113.5t-91.5 61t-109.5 25t-138 5.5q-57 0 -91 -1t-80 -7.5t-72.5 -18.5t-60.5 -34.5t-53.5 -56.5t-40 -82t-30.5 -112.5 t-17.5 -150t-7.5 -191.5zM434 1632v97h572v-97h-572z" />
<glyph unicode="&#x14d;" horiz-adv-x="1165" d="M115 528q0 328 102 449t367 121q268 0 368.5 -126t100.5 -444q0 -303 -101.5 -420.5t-367.5 -117.5q-268 0 -368.5 120.5t-100.5 417.5zM231 528q0 -141 21.5 -228t72 -128t106.5 -53.5t153 -12.5q98 0 155.5 13.5t106.5 56.5t69.5 128t20.5 224q0 152 -19.5 243 t-67.5 137t-106.5 59.5t-158.5 13.5q-80 0 -128 -7t-96.5 -31.5t-73 -73t-40 -132.5t-15.5 -209zM297 1221v96h571v-96h-571z" />
<glyph unicode="&#x150;" horiz-adv-x="1382" d="M150 739q0 207 27.5 350.5t71.5 225.5t122 126t154.5 56t193.5 12q98 0 165.5 -8t138.5 -34.5t115 -79t80.5 -136.5t53 -212t16.5 -300q0 -197 -25.5 -332t-67.5 -216.5t-118 -126t-156.5 -58.5t-201.5 -14q-102 0 -171 8t-139.5 33.5t-113.5 76t-79 132.5t-51 205.5 t-15 291.5zM266 739q0 -168 15.5 -278.5t45 -182t88 -108.5t126 -49t178.5 -12q176 0 267 44t138 180t47 406q0 156 -11 266.5t-40.5 182.5t-61.5 113.5t-91.5 61t-109.5 25t-138 5.5q-57 0 -91 -1t-80 -7.5t-72.5 -18.5t-60.5 -34.5t-53.5 -56.5t-40 -82t-30.5 -112.5 t-17.5 -150t-7.5 -191.5zM528 1632l230 273h145l-272 -273h-103zM807 1632l229 273h148l-273 -273h-104z" />
<glyph unicode="&#x151;" horiz-adv-x="1165" d="M115 528q0 328 102 449t367 121q268 0 368.5 -126t100.5 -444q0 -303 -101.5 -420.5t-367.5 -117.5q-268 0 -368.5 120.5t-100.5 417.5zM231 528q0 -141 21.5 -228t72 -128t106.5 -53.5t153 -12.5q98 0 155.5 13.5t106.5 56.5t69.5 128t20.5 224q0 152 -19.5 243 t-67.5 137t-106.5 59.5t-158.5 13.5q-80 0 -128 -7t-96.5 -31.5t-73 -73t-40 -132.5t-15.5 -209zM391 1221l230 272h147l-272 -272h-105zM672 1221l227 272h148l-273 -272h-102z" />
<glyph unicode="&#x152;" horiz-adv-x="2158" d="M150 739q0 172 17 300t54 212t81 136.5t114.5 79t137.5 34.5t165 8q180 0 289.5 -38.5t175.5 -161.5q18 102 83.5 148t159.5 42l615 -29v-88h-615q-80 0 -110.5 -38.5t-30.5 -110.5q0 -377 2 -428l672 -17v-90l-672 -16l-2 -430q0 -49 13.5 -79t40 -43t49 -16t59.5 -3 h594v-86l-594 -31q-233 -12 -266 190q-66 -113 -175.5 -152.5t-287.5 -39.5q-102 0 -171 8t-139.5 33.5t-113.5 76t-79 132.5t-51 205.5t-15 291.5zM266 739q0 -168 15.5 -278.5t45 -182t88 -108.5t126 -49t178.5 -12q90 0 152.5 9t115.5 35.5t86 70.5t55.5 117t31.5 170 t9 234q0 154 -11 262.5t-39.5 179t-60.5 112.5t-90.5 62.5t-109.5 26t-139 5.5q-57 0 -91 -1t-80 -7.5t-72.5 -18.5t-60.5 -34.5t-53.5 -56.5t-40 -82t-30.5 -112.5t-17.5 -150t-7.5 -191.5z" />
<glyph unicode="&#x153;" horiz-adv-x="1892" d="M115 528q0 328 102 449t367 121q162 0 258 -45t145 -146q43 113 135 151t264 38q88 0 142.5 -5.5t113 -27t89 -62t51 -112.5t20.5 -178q0 -119 -68.5 -175.5t-211.5 -56.5h-471q-2 -213 53 -293t186 -80q309 0 492 27v-86q-203 -57 -492 -57q-123 0 -195.5 43t-109.5 137 q-47 -96 -143.5 -138t-257.5 -42q-268 0 -368.5 120.5t-100.5 417.5zM231 528q0 -141 21.5 -228t72 -128t106.5 -53.5t153 -12.5q209 0 279.5 85t70.5 352q0 137 -18.5 223t-63.5 134t-106.5 64.5t-161.5 16.5q-80 0 -128 -7t-96.5 -31.5t-73 -73t-40 -132.5t-15.5 -209z M1051 594h471q80 0 122 25.5t42 91.5q0 92 -13.5 145t-52.5 81t-88 35t-143 7q-70 0 -114 -4t-86 -17.5t-66.5 -39t-43 -68.5t-24.5 -105.5t-4 -150.5z" />
<glyph unicode="&#x154;" horiz-adv-x="1200" d="M137 0v1499h615q350 0 350 -436q0 -410 -283 -430l322 -633h-127l-320 629q-436 25 -440 26v-655h-117zM254 754h498q53 0 86.5 8t70.5 35.5t55.5 94t18.5 171.5q0 102 -19.5 168.5t-55.5 97.5t-71.5 41t-84.5 10h-498v-626zM541 1622l229 272h148l-273 -272h-104z" />
<glyph unicode="&#x155;" horiz-adv-x="870" d="M137 0v1087h80l37 -137q4 2 36 20.5t39 22.5t36.5 20.5t41 20.5t39 17.5t43 17.5t41 12.5t46 10.5t46 5t52.5 3q111 0 151 -17v-114q-49 12 -151 12q-80 0 -156 -19.5t-116 -37t-148 -68.5v-856h-117zM457 1225l229 272h145l-272 -272h-102z" />
<glyph unicode="&#x156;" horiz-adv-x="1200" d="M137 0v1499h615q350 0 350 -436q0 -410 -283 -430l322 -633h-127l-320 629q-436 25 -440 26v-655h-117zM254 754h498q53 0 86.5 8t70.5 35.5t55.5 94t18.5 171.5q0 102 -19.5 168.5t-55.5 97.5t-71.5 41t-84.5 10h-498v-626zM537 -174q0 41 36 41h68q37 0 37 -41v-180 q0 -61 -34 -90t-67 -26l-34 3v43q47 -2 47 47v60h-17q-36 -1 -36 38v105z" />
<glyph unicode="&#x157;" horiz-adv-x="870" d="M123 -174q0 41 37 41h67q37 0 37 -41v-180q0 -61 -33.5 -90t-67.5 -26l-34 3v43q47 -2 47 47v60h-16q-37 -1 -37 38v105zM135 0v1087h78l39 -137q4 2 35.5 20.5t39 22.5t37 20.5t41 20.5t39 17.5t43 17.5t41 12.5t46 10.5t46 5t52.5 3q111 0 151 -17v-114q-49 12 -151 12 q-80 0 -156 -19.5t-116 -37t-148 -68.5v-856h-117z" />
<glyph unicode="&#x158;" horiz-adv-x="1200" d="M137 0v1499h615q350 0 350 -436q0 -410 -283 -430l322 -633h-127l-320 629q-436 25 -440 26v-655h-117zM254 754h498q53 0 86.5 8t70.5 35.5t55.5 94t18.5 171.5q0 102 -19.5 168.5t-55.5 97.5t-71.5 41t-84.5 10h-498v-626zM303 1894h109l186 -176l180 176h109 l-232 -266h-112z" />
<glyph unicode="&#x159;" horiz-adv-x="870" d="M137 0v1087h80l37 -137q4 2 36 20.5t39 22.5t36.5 20.5t41 20.5t39 17.5t43 17.5t41 12.5t46 10.5t46 5t52.5 3q111 0 151 -17v-114q-49 12 -151 12q-80 0 -156 -19.5t-116 -37t-148 -68.5v-856h-117zM188 1489h109l188 -176l181 176h108l-233 -266h-111z" />
<glyph unicode="&#x15a;" horiz-adv-x="1196" d="M150 1012v135q0 207 104 285.5t297 78.5q178 0 493 -45v-90q-494 18 -493 19q-141 6 -213 -45.5t-72 -202.5v-135q0 -135 57.5 -176t182.5 -41h272q98 0 165 -28t99.5 -79t46 -105.5t13.5 -123.5v-140q0 -104 -34 -173.5t-96.5 -103.5t-128 -46t-151.5 -12q-74 0 -252 16 t-250 29v90q195 -18 502 -19q293 0 293 219v140q0 109 -47 163t-160 54h-268q-117 0 -192.5 27.5t-110.5 80t-46 103.5t-11 125zM580 1634l227 273h147l-272 -273h-102z" />
<glyph unicode="&#x15b;" horiz-adv-x="1034" d="M92 737v94q0 131 65.5 199t217.5 68q215 0 514 -29v-86h-514q-102 0 -134 -36t-32 -116v-94q0 -92 38 -115.5t128 -23.5h303q127 0 196.5 -67.5t69.5 -184.5v-100q0 -152 -72.5 -204t-193.5 -52q-70 0 -271.5 13t-269.5 20v83h541h5q145 -2 144 140v100q0 137 -149 137 h-303q-154 0 -218.5 51t-64.5 203zM467 1231l229 272h146l-273 -272h-102z" />
<glyph unicode="&#x15c;" horiz-adv-x="1196" d="M150 1012v135q0 207 104 285.5t297 78.5q178 0 493 -45v-90q-494 18 -493 19q-141 6 -213 -45.5t-72 -202.5v-135q0 -135 57.5 -176t182.5 -41h272q98 0 165 -28t99.5 -79t46 -105.5t13.5 -123.5v-140q0 -104 -34 -173.5t-96.5 -103.5t-128 -46t-151.5 -12q-74 0 -252 16 t-250 29v90q195 -18 502 -19q293 0 293 219v140q0 109 -47 163t-160 54h-268q-117 0 -192.5 27.5t-110.5 80t-46 103.5t-11 125zM344 1634l250 267h111l223 -267h-109l-174 176l-190 -176h-111zM705 1901z" />
<glyph unicode="&#x15d;" horiz-adv-x="1034" d="M92 737v94q0 131 65.5 199t217.5 68q215 0 514 -29v-86h-514q-102 0 -134 -36t-32 -116v-94q0 -92 38 -115.5t128 -23.5h303q127 0 196.5 -67.5t69.5 -184.5v-100q0 -152 -72.5 -204t-193.5 -52q-70 0 -271.5 13t-269.5 20v83h541h5q145 -2 144 140v100q0 137 -149 137 h-303q-154 0 -218.5 51t-64.5 203zM223 1221l250 266h111l223 -266h-109l-174 176l-190 -176h-111zM584 1487z" />
<glyph unicode="&#x15e;" horiz-adv-x="1196" d="M150 1012v135q0 207 104 285.5t297 78.5q178 0 493 -45v-90q-494 18 -493 19q-141 6 -213 -45.5t-72 -202.5v-135q0 -135 57.5 -176t182.5 -41h272q98 0 165 -28t99.5 -79t46 -105.5t13.5 -123.5v-140q0 -104 -34 -173.5t-96.5 -103.5t-128 -46t-151.5 -12q-74 0 -252 16 t-250 29v90q195 -18 502 -19q293 0 293 219v140q0 109 -47 163t-160 54h-268q-117 0 -192.5 27.5t-110.5 80t-46 103.5t-11 125zM410 -315l94 22q55 16 78.5 61.5t21.5 139.5h103q0 -158 -42 -218.5t-165 -60.5h-90v56z" />
<glyph unicode="&#x15f;" horiz-adv-x="1034" d="M92 737v94q0 131 65.5 199t217.5 68q215 0 514 -29v-86h-514q-102 0 -134 -36t-32 -116v-94q0 -92 38 -115.5t128 -23.5h303q127 0 196.5 -67.5t69.5 -184.5v-100q0 -152 -72.5 -204t-193.5 -52q-70 0 -271.5 13t-269.5 20v83h541h5q145 -2 144 140v100q0 137 -149 137 h-303q-154 0 -218.5 51t-64.5 203zM303 -303l94 22q55 16 79 61.5t22 139.5h102q0 -158 -42 -218t-165 -60h-90v55z" />
<glyph unicode="&#x160;" horiz-adv-x="1196" d="M150 1012v135q0 207 104 285.5t297 78.5q178 0 493 -45v-90q-494 18 -493 19q-141 6 -213 -45.5t-72 -202.5v-135q0 -135 57.5 -176t182.5 -41h272q98 0 165 -28t99.5 -79t46 -105.5t13.5 -123.5v-140q0 -104 -34 -173.5t-96.5 -103.5t-128 -46t-151.5 -12q-74 0 -252 16 t-250 29v90q195 -18 502 -19q293 0 293 219v140q0 109 -47 163t-160 54h-268q-117 0 -192.5 27.5t-110.5 80t-46 103.5t-11 125zM344 1901h109l186 -177l180 177h109l-232 -267h-110z" />
<glyph unicode="&#x161;" horiz-adv-x="1034" d="M92 737v94q0 131 65.5 199t217.5 68q215 0 514 -29v-86h-514q-102 0 -134 -36t-32 -116v-94q0 -92 38 -115.5t128 -23.5h303q127 0 196.5 -67.5t69.5 -184.5v-100q0 -152 -72.5 -204t-193.5 -52q-70 0 -271.5 13t-269.5 20v83h541h5q145 -2 144 140v100q0 137 -149 137 h-303q-154 0 -218.5 51t-64.5 203zM236 1497h108l186 -176l181 176h108l-231 -266h-113z" />
<glyph unicode="&#x162;" horiz-adv-x="1200" d="M94 1382v117h1047v-117h-471v-1382h-117v1382h-459zM362 -322l95 25q57 14 79.5 59t20.5 140h102q0 -158 -42 -218.5t-164 -60.5h-91v55z" />
<glyph unicode="&#x163;" horiz-adv-x="753" d="M45 973v86l193 31l30 303h86v-303h332v-117h-332v-586q0 -104 23.5 -165.5t50.5 -79t68 -25.5q158 -35 172 -35v-82h-166q-264 0 -264 387v586h-193zM182 -328l92 23q57 16 80 61t21 140h102q0 -158 -42 -218.5t-165 -60.5h-88v55z" />
<glyph unicode="&#x164;" horiz-adv-x="1200" d="M94 1382v117h1047v-117h-471v-1382h-117v1382h-459zM311 1898h109l186 -176l180 176h109l-231 -266h-111z" />
<glyph unicode="&#x165;" horiz-adv-x="731" d="M45 973v86l193 31l30 303h86v-303h332v-117h-332v-584q0 -80 11.5 -134t33 -81t43 -38t54.5 -17q158 -37 172 -37v-80h-170q-260 0 -260 387v584h-193zM498 1591l100 45l18 -90l-16 -227l-76 -94l-20 182z" />
<glyph unicode="&#x166;" horiz-adv-x="1200" d="M80 1382v117h1046v-117h-471v-487h267v-82h-267v-813h-116v813h-252v82h252v487h-459z" />
<glyph unicode="&#x167;" horiz-adv-x="731" d="M45 973v86l193 31l30 303h86v-303h332v-117h-332v-307h230v-82h-230v-195q0 -88 9.5 -141t33 -79t42 -34t61.5 -16q150 -33 155 -33v-84h-155q-139 0 -200.5 88t-61.5 299v195h-166v82h166v307h-193z" />
<glyph unicode="&#x168;" horiz-adv-x="1390" d="M184 655v844h117v-844q0 -90 7 -162.5t16.5 -127t31 -96.5t38 -68.5t50 -45t56 -28.5t67.5 -14t72 -5.5t80 -1.5h8q84 0 131 5.5t109.5 35t95.5 85t57.5 162t24.5 261.5v844h117v-844q0 -137 -18.5 -244.5t-43 -177t-72 -117.5t-85 -73t-103.5 -37t-104.5 -14t-108.5 -2 h-17q-90 0 -136 3t-119.5 20.5t-111.5 59.5t-81 112.5t-60.5 189t-17.5 280.5zM377 1702q53 45 79.5 65.5t70.5 41t83 20.5q51 -2 129 -50t103 -48q53 0 192 86l35 -62q-6 -4 -25.5 -21.5t-27.5 -23.5t-26.5 -20.5t-29 -21.5t-28 -17.5t-30.5 -14.5t-29.5 -7t-32.5 -3 q-57 2 -129 50t-105 48q-39 0 -68.5 -11t-70.5 -35.5t-59 -35.5z" />
<glyph unicode="&#x169;" d="M115 330v757h116v-757q0 -106 60.5 -169t159.5 -63q117 0 197.5 27t217.5 94v868h117v-1087h-80l-37 127q-78 -47 -129 -72.5t-130 -49t-156 -23.5q-156 0 -246 102.5t-90 245.5zM203 1298q51 43 79.5 64.5t71.5 42t82 20.5q51 -2 128 -50t104 -48q14 0 32.5 4t30.5 8 t34.5 16.5t32 17.5t34 20.5t28.5 17.5l35 -61q-8 -6 -33.5 -28t-37 -31t-36 -26.5t-41 -24.5t-39 -12t-42.5 -5q-55 2 -127 49t-105 47q-39 0 -68.5 -11.5t-70.5 -36t-62 -34.5z" />
<glyph unicode="&#x16a;" horiz-adv-x="1390" d="M184 655v844h117v-844q0 -90 7 -162.5t16.5 -127t31 -96.5t38 -68.5t50 -45t56 -28.5t67.5 -14t72 -5.5t80 -1.5h8q84 0 131 5.5t109.5 35t95.5 85t57.5 162t24.5 261.5v844h117v-844q0 -137 -18.5 -244.5t-43 -177t-72 -117.5t-85 -73t-103.5 -37t-104.5 -14t-108.5 -2 h-17q-90 0 -136 3t-119.5 20.5t-111.5 59.5t-81 112.5t-60.5 189t-17.5 280.5zM438 1632v97h570v-97h-570z" />
<glyph unicode="&#x16b;" d="M115 330v757h116v-757q0 -106 60.5 -169t159.5 -63q117 0 197.5 27t217.5 94v868h117v-1087h-80l-37 127q-78 -47 -129 -72.5t-130 -49t-156 -23.5q-156 0 -246 102.5t-90 245.5zM264 1221v96h570v-96h-570z" />
<glyph unicode="&#x16c;" horiz-adv-x="1390" d="M184 655v844h117v-844q0 -90 7 -162.5t16.5 -127t31 -96.5t38 -68.5t50 -45t56 -28.5t67.5 -14t72 -5.5t80 -1.5h8q84 0 131 5.5t109.5 35t95.5 85t57.5 162t24.5 261.5v844h117v-844q0 -137 -18.5 -244.5t-43 -177t-72 -117.5t-85 -73t-103.5 -37t-104.5 -14t-108.5 -2 h-17q-90 0 -136 3t-119.5 20.5t-111.5 59.5t-81 112.5t-60.5 189t-17.5 280.5zM487 1866h74q0 -68 48 -115t112 -45q70 0 117 44t47 116h73q0 -109 -72.5 -171.5t-164.5 -62.5q-90 0 -162 65t-72 169z" />
<glyph unicode="&#x16d;" d="M115 330v757h116v-757q0 -106 60.5 -169t159.5 -63q117 0 197.5 27t217.5 94v868h117v-1087h-80l-37 127q-78 -47 -129 -72.5t-130 -49t-156 -23.5q-156 0 -246 102.5t-90 245.5zM324 1454h73q0 -68 48.5 -115t111.5 -45q70 0 118 44t48 116h72q0 -109 -73 -171t-165 -62 q-90 0 -161.5 64.5t-71.5 168.5z" />
<glyph unicode="&#x16e;" horiz-adv-x="1390" d="M184 655v844h117v-844q0 -90 7 -162.5t16.5 -127t31 -96.5t38 -68.5t50 -45t56 -28.5t67.5 -14t72 -5.5t80 -1.5h8q84 0 131 5.5t109.5 35t95.5 85t57.5 162t24.5 261.5v844h117v-844q0 -137 -18.5 -244.5t-43 -177t-72 -117.5t-85 -73t-103.5 -37t-104.5 -14t-108.5 -2 h-17q-90 0 -136 3t-119.5 20.5t-111.5 59.5t-81 112.5t-60.5 189t-17.5 280.5zM516 1841q0 88 61.5 149.5t147.5 61.5t145.5 -61.5t59.5 -149.5t-59.5 -148.5t-145.5 -60.5t-147.5 60.5t-61.5 148.5zM588 1841q0 -55 40 -94t97 -39q55 0 93 39t38 94t-38 95t-93 40 q-57 0 -97 -40t-40 -95z" />
<glyph unicode="&#x16f;" d="M115 330v757h116v-757q0 -106 60.5 -169t159.5 -63q117 0 197.5 27t217.5 94v868h117v-1087h-80l-37 127q-78 -47 -129 -72.5t-130 -49t-156 -23.5q-156 0 -246 102.5t-90 245.5zM342 1429.5q0 88.5 61.5 149.5t147.5 61t145.5 -61t59.5 -149.5t-59.5 -148.5t-145.5 -60 t-147.5 60t-61.5 148.5zM414 1429.5q0 -55.5 41 -94.5t96 -39t94 39t39 94.5t-39 95.5t-94 40t-96 -40t-41 -95.5z" />
<glyph unicode="&#x170;" horiz-adv-x="1390" d="M184 655v844h117v-844q0 -90 7 -162.5t16.5 -127t31 -96.5t38 -68.5t50 -45t56 -28.5t67.5 -14t72 -5.5t80 -1.5h8q84 0 131 5.5t109.5 35t95.5 85t57.5 162t24.5 261.5v844h117v-844q0 -137 -18.5 -244.5t-43 -177t-72 -117.5t-85 -73t-103.5 -37t-104.5 -14t-108.5 -2 h-17q-90 0 -136 3t-119.5 20.5t-111.5 59.5t-81 112.5t-60.5 189t-17.5 280.5zM532 1632l228 273h147l-272 -273h-103zM811 1632l229 273h146l-273 -273h-102z" />
<glyph unicode="&#x171;" d="M115 330v757h116v-757q0 -106 60.5 -169t159.5 -63q117 0 197.5 27t217.5 94v868h117v-1087h-80l-37 127q-78 -47 -129 -72.5t-130 -49t-156 -23.5q-156 0 -246 102.5t-90 245.5zM358 1221l228 272h147l-272 -272h-103zM637 1221l229 272h146l-273 -272h-102z" />
<glyph unicode="&#x172;" horiz-adv-x="1390" d="M184 655v844h117v-844q0 -90 7 -162.5t16.5 -127t31 -96.5t38 -68.5t50 -45t56 -28.5t67.5 -14t72 -5.5t80 -1.5h8q84 0 131 5.5t109.5 35t95.5 85t57.5 162t24.5 261.5v844h117v-844q0 -137 -18.5 -244.5t-43 -177t-72 -117.5t-85 -73t-103.5 -37t-104.5 -14t-108.5 -2 h-17q-90 0 -136 3t-119.5 20.5t-111.5 59.5t-81 112.5t-60.5 189t-17.5 280.5zM528.5 -256q-24.5 59 14 130t147.5 118h60q-141 -92 -131 -185.5t157 -95.5v-90q-86 -12 -154.5 26t-93 97z" />
<glyph unicode="&#x173;" horiz-adv-x="1175" d="M131 330v757h117v-757q0 -106 60.5 -169t158.5 -63q117 0 197.5 27t218.5 94v868h116v-1087h-79l-37 127q-78 -47 -129.5 -72.5t-130 -49t-156.5 -23.5q-156 0 -246 102.5t-90 245.5zM769 -247.5q-26 59.5 13 130t148 117.5h61q-92 -59 -121.5 -124.5t11.5 -110 t137 -44.5v-92q-86 -12 -154.5 26t-94.5 97.5z" />
<glyph unicode="&#x174;" horiz-adv-x="1976" d="M102 1499h129l463 -1309l416 1309h131l-164 -526l295 -791l424 1317h127l-485 -1499h-125l-297 780l-258 -780h-125zM735 1626l250 266h109l225 -266h-109l-174 176l-192 -176h-109zM1094 1892z" />
<glyph unicode="&#x175;" horiz-adv-x="1624" d="M45 1087h129l348 -917l318 917h127l-125 -368l252 -549l358 917h127l-422 -1087h-119l-254 563l-198 -563h-127zM535 1214l249 267h111l223 -267h-108l-174 177l-193 -177h-108zM895 1481z" />
<glyph unicode="&#x176;" horiz-adv-x="1282" d="M102 1499h129l414 -825l457 825h127l-524 -967v-532h-117v532zM360 1626l250 266h111l223 -266h-108l-174 176l-191 -176h-111zM721 1892z" />
<glyph unicode="&#x177;" horiz-adv-x="1116" d="M47 1087h129l277 -849q8 -25 19 -44.5t22.5 -31.5t22.5 -21.5t23.5 -13.5t22.5 -6t19 -2h16q6 0 10 1l4 1l326 966h129l-479 -1431l-133 -209h-70l186 553q-176 0 -243 225zM266 1221l250 266h111l223 -266h-109l-174 176l-192 -176h-109zM627 1487z" />
<glyph unicode="&#x178;" horiz-adv-x="1282" d="M102 1499h129l414 -825l457 825h127l-524 -967v-532h-117v532zM326 1714q0 35 23.5 57.5t56 22.5t56 -22.5t23.5 -57.5t-23.5 -58.5t-56 -23.5t-56 23.5t-23.5 58.5zM846 1714q0 33 23.5 56.5t58.5 23.5t57.5 -22.5t22.5 -57.5t-23.5 -58.5t-56.5 -23.5q-35 0 -58.5 23.5 t-23.5 58.5z" />
<glyph unicode="&#x179;" horiz-adv-x="1142" d="M80 0v117l838 1265h-838v117h989v-117l-838 -1265h838v-117h-989zM537 1632l229 273h145l-272 -273h-102z" />
<glyph unicode="&#x17a;" horiz-adv-x="946" d="M68 971v116h811v-116l-627 -852h627v-117h-779v117l633 852h-665zM424 1217l227 272h148l-273 -272h-102z" />
<glyph unicode="&#x17b;" horiz-adv-x="1142" d="M80 0v117l838 1265h-838v117h989v-117l-838 -1265h838v-117h-989zM498 1671v117q0 43 39 43h75q39 0 39 -43v-117q0 -39 -39 -39h-75q-39 0 -39 39z" />
<glyph unicode="&#x17c;" horiz-adv-x="946" d="M68 971v116h811v-116l-627 -852h627v-117h-779v117l633 852h-665zM395 1260v116q0 43 41 43h76q39 0 39 -43v-116q0 -39 -39 -39h-76q-16 0 -28.5 11.5t-12.5 27.5z" />
<glyph unicode="&#x17d;" horiz-adv-x="1142" d="M80 0v117l838 1265h-838v117h989v-117l-838 -1265h838v-117h-989zM283 1898h108l187 -176l180 176h108l-231 -266h-113z" />
<glyph unicode="&#x17e;" horiz-adv-x="946" d="M68 971v116h811v-116l-627 -852h627v-117h-779v117l633 852h-665zM197 1487h108l187 -176l180 176h108l-231 -266h-111z" />
<glyph unicode="&#x192;" horiz-adv-x="1218" d="M45 -375l12 74h174q59 0 105.5 43t74 125t43 148.5t29.5 164.5l101 649h-209l20 119h209l14 88q16 106 34 185t46.5 162t65.5 135.5t92 86t125 33.5q29 0 57.5 -4t51 -10t39 -11t30.5 -11l15 -7l-13 -73h-180q-39 0 -70.5 -18.5t-56.5 -59.5t-41 -79t-31.5 -105.5 t-22.5 -107.5t-20 -116l-14 -90h291l-21 -117h-290l-101 -649q-14 -92 -25.5 -148.5t-32 -136t-46 -127t-62.5 -95.5t-89 -69.5t-118 -21.5q-51 0 -111.5 16.5t-74.5 26.5z" />
<glyph unicode="&#x2c6;" horiz-adv-x="813" d="M115 1087l250 267h110l223 -267h-108l-174 177l-191 -177h-110z" />
<glyph unicode="&#x2c7;" horiz-adv-x="813" d="M115 1354h108l187 -176l180 176h108l-231 -267h-113z" />
<glyph unicode="&#x2d8;" horiz-adv-x="696" d="M115 1319h73q0 -68 48.5 -115t111.5 -45q70 0 117 44t47 116h74q0 -109 -73 -171.5t-165 -62.5q-90 0 -161.5 65t-71.5 169z" />
<glyph unicode="&#x2d9;" horiz-adv-x="382" d="M111 1153v117q0 43 41 43h75q39 0 39 -43v-117q0 -39 -39 -39h-75q-41 0 -41 39z" />
<glyph unicode="&#x2da;" horiz-adv-x="643" d="M115 1294q0 88 61.5 149.5t147.5 61.5t146 -61.5t60 -149.5t-60 -148.5t-146 -60.5t-147.5 60.5t-61.5 148.5zM188 1294.5q0 -55.5 40 -94.5t95.5 -39t94.5 39t39 94.5t-39 95.5t-94.5 40t-95.5 -40t-40 -95.5z" />
<glyph unicode="&#x2db;" horiz-adv-x="481" d="M119.5 -247.5q-25.5 59.5 13.5 130t148 117.5h61q-92 -59 -122 -126t11 -111t138 -44v-90q-86 -12 -155 26t-94.5 97.5z" />
<glyph unicode="&#x2dc;" horiz-adv-x="919" d="M115 1171q51 43 79.5 64.5t71.5 42t82 20.5q51 -2 129 -50t105 -48q51 -2 192 86l33 -61q-6 -4 -25.5 -21.5t-28 -23.5t-26.5 -20.5t-28.5 -22t-28 -17.5t-30.5 -14t-29.5 -7t-32.5 -3q-55 2 -127 49t-105 47q-39 0 -68.5 -11.5t-70.5 -36t-62 -34.5z" />
<glyph unicode="&#x2dd;" horiz-adv-x="751" d="M45 1087l229 273h148l-272 -273h-105zM326 1087l227 273h147l-272 -273h-102z" />
<glyph unicode="&#x338;" horiz-adv-x="1327" d="M160 332v835q0 160 99 246t253 86h315q176 0 259 -92t83 -240v-835q0 -332 -342 -332h-315q-154 0 -253 80t-99 252zM276 332q0 -74 31 -119l625 1141q-37 29 -105 28h-315q-115 0 -175.5 -58t-60.5 -157v-835zM383 154q51 -37 129 -37h315q225 0 226 215v835 q0 92 -39 142z" />
<glyph unicode="&#x3a9;" horiz-adv-x="1603" d="M147 795q0 102 16.5 196t60.5 192.5t115 169t190.5 115.5t273.5 45q147 0 261 -40.5t185.5 -107.5t116.5 -163t62.5 -197.5t17.5 -220.5q0 -213 -60.5 -377.5t-232.5 -285.5l303 -23v-98h-467v123q203 135 271.5 286.5t68.5 378.5q0 129 -23.5 230.5t-79 190.5 t-163 138.5t-260.5 49.5q-539 0 -539 -619q0 -223 64.5 -354t281.5 -301v-123h-450v100l307 23q-76 51 -132 106.5t-90 113.5t-54.5 107.5t-29.5 117t-11.5 110.5t-2.5 117z" />
<glyph unicode="&#x3c0;" horiz-adv-x="1282" d="M45 971v116h1092v-116h-265v-631q0 -127 38 -179t122 -52h203v-70q-115 -49 -203 -49q-139 0 -207.5 77.5t-68.5 272.5v631h-418v-971h-117v971h-176z" />
<glyph unicode="&#x1e02;" horiz-adv-x="1222" d="M184 0v1499h557q141 0 232.5 -59.5t124 -141t32.5 -184.5q0 -127 -56 -218t-159 -116q82 -18 152 -111.5t70 -250.5q0 -418 -396 -418h-557zM301 117h440q279 0 279 305q0 129 -76 217t-203 86h-440v-608zM301 844h440q127 0 199 69.5t74 200.5q2 150 -74 209t-199 59 h-440v-538zM559 1667v115q0 43 41 43h74q41 0 41 -43v-115q0 -41 -41 -41h-74q-41 0 -41 41z" />
<glyph unicode="&#x1e03;" horiz-adv-x="1132" d="M121 1782v116q0 43 41 44h74q41 0 40 -44v-116q0 -39 -40 -39h-74q-41 0 -41 39zM137 0v1608h113v-586q92 37 210 59.5t193 22.5q111 0 186.5 -47t113.5 -133t52.5 -177.5t14.5 -207.5q0 -82 -9.5 -155t-35 -147.5t-65.5 -128t-105.5 -87t-151.5 -33.5q-94 0 -224 47 t-177 86l-33 -121h-82zM252 205q225 -100 401 -101q115 0 182.5 110t67.5 325q0 254 -64.5 351t-185.5 97q-190 0 -401 -55v-727z" />
<glyph unicode="&#x1e0a;" horiz-adv-x="1353" d="M184 0v1499h543q133 0 232.5 -50t154.5 -126t90 -182.5t45.5 -199.5t10.5 -198q0 -135 -30 -261t-90.5 -236.5t-167 -178t-245.5 -67.5h-543zM301 121h426q139 0 236.5 93t138.5 230.5t41 300.5q0 637 -416 637h-426v-1261zM590 1679v115q0 43 41 43h76q39 0 38 -43v-115 q0 -41 -38 -41h-76q-41 0 -41 41z" />
<glyph unicode="&#x1e0b;" horiz-adv-x="1132" d="M115 539q0 117 14 208t51 177t113 133t186 47q76 0 194 -22.5t210 -59.5v586h112v-1608h-80l-34 121q-47 -39 -177.5 -86t-224.5 -47q-106 0 -181 49t-113 134t-54 174.5t-16 193.5zM231 539q0 -219 67 -327t181 -108q180 0 402 101v727q-213 55 -402 55 q-121 0 -184.5 -96t-63.5 -352zM858 1772v116q0 41 41 41h76q39 0 39 -41v-116q0 -39 -39 -39h-76q-41 0 -41 39z" />
<glyph unicode="&#x1e1e;" horiz-adv-x="1171" d="M184 0v1233q0 141 74 205.5t184 60.5l633 -29v-88h-633q-80 0 -110.5 -37.5t-30.5 -111.5v-428l692 -17v-90l-692 -16v-682h-117zM563 1686v116q0 43 41 43h74q41 0 41 -43v-116q0 -39 -41 -39h-74q-41 0 -41 39z" />
<glyph unicode="&#x1e1f;" horiz-adv-x="806" d="M45 971v86l193 30v203q0 45 2 77t14 82t35.5 82t70 55.5t109.5 23.5q164 0 293 -41v-74h-264q-92 2 -118 -48t-26 -157v-203h324v-116h-324v-971h-116v971h-193zM440 1800v117q0 41 41 41h74q41 0 41 -41v-117q0 -39 -41 -39h-74q-41 0 -41 39z" />
<glyph unicode="&#x1e40;" horiz-adv-x="1636" d="M125 0l123 1499h162l411 -1304l402 1304h163l134 -1499h-117l-117 1298l-401 -1298h-121l-414 1298l-108 -1298h-117zM739 1671v117q0 43 41 43h74q41 0 41 -43v-117q0 -39 -41 -39h-74q-41 0 -41 39z" />
<glyph unicode="&#x1e41;" horiz-adv-x="1861" d="M137 0v1087h80l37 -129q78 47 127 73t126 48.5t152 22.5q100 0 181.5 -44t117.5 -118q88 70 209 116t244 46q147 0 241.5 -99.5t94.5 -250.5v-752h-117v752q0 102 -60.5 167.5t-158.5 65.5q-225 0 -424 -125q10 -27 10 -104v-756h-116v752q0 102 -61.5 167.5t-160.5 65.5 q-113 0 -191.5 -25.5t-213.5 -93.5v-866h-117zM911 1264v116q0 43 41 43h76q39 0 39 -43v-116q0 -39 -39 -39h-76q-16 0 -28.5 11.5t-12.5 27.5z" />
<glyph unicode="&#x1e56;" horiz-adv-x="1191" d="M137 0v1499h600q358 0 359 -426q0 -121 -23.5 -208t-57.5 -132t-87.5 -70.5t-93 -30.5t-97.5 -5q-61 0 -268 15t-215 20v-662h-117zM254 745h483q115 0 178.5 66t61.5 262q0 100 -22.5 167t-62.5 94.5t-74 36.5t-81 9h-483v-635zM528 1708v117q0 43 41 43h76q39 0 39 -43 v-117q0 -39 -39 -39h-76q-41 0 -41 39z" />
<glyph unicode="&#x1e57;" horiz-adv-x="1132" d="M137 -551v1638h82l33 -120q47 39 177 86t224 47q86 0 151.5 -34t105.5 -87t65.5 -128t35 -147.5t9.5 -154.5q0 -117 -14.5 -208t-52.5 -177t-113.5 -133t-186.5 -47q-76 0 -193.5 22.5t-209.5 59.5v-617h-113zM252 156q211 -55 401 -56q121 0 185.5 97.5t64.5 351.5 q0 215 -67.5 324.5t-182.5 109.5q-180 0 -401 -100v-727zM524 1278v117q0 41 41 41h74q41 0 41 -41v-117q0 -39 -41 -39h-74q-41 0 -41 39z" />
<glyph unicode="&#x1e60;" horiz-adv-x="1196" d="M150 1012v135q0 207 104 285.5t297 78.5q178 0 493 -45v-90q-494 18 -493 19q-141 6 -213 -45.5t-72 -202.5v-135q0 -135 57.5 -176t182.5 -41h272q98 0 165 -28t99.5 -79t46 -105.5t13.5 -123.5v-140q0 -104 -34 -173.5t-96.5 -103.5t-128 -46t-151.5 -12q-74 0 -252 16 t-250 29v90q195 -18 502 -19q293 0 293 219v140q0 109 -47 163t-160 54h-268q-117 0 -192.5 27.5t-110.5 80t-46 103.5t-11 125zM547 1688v116q0 41 41 41h76q39 0 38 -41v-116q0 -39 -38 -39h-76q-41 0 -41 39z" />
<glyph unicode="&#x1e61;" horiz-adv-x="1034" d="M92 737v94q0 131 65.5 199t217.5 68q215 0 514 -29v-86h-514q-102 0 -134 -36t-32 -116v-94q0 -92 38 -115.5t128 -23.5h303q127 0 196.5 -67.5t69.5 -184.5v-100q0 -152 -72.5 -204t-193.5 -52q-70 0 -271.5 13t-269.5 20v83h541h5q145 -2 144 140v100q0 137 -149 137 h-303q-154 0 -218.5 51t-64.5 203zM471 1276v117q0 41 41 41h76q39 0 39 -41v-117q0 -39 -39 -39h-76q-16 0 -28.5 11.5t-12.5 27.5z" />
<glyph unicode="&#x1e6a;" horiz-adv-x="1200" d="M94 1382v117h1047v-117h-471v-1382h-117v1382h-459zM524 1671v117q0 43 41 43h76q39 0 39 -43v-117q0 -39 -39 -39h-76q-16 0 -28.5 11.5t-12.5 27.5z" />
<glyph unicode="&#x1e6b;" horiz-adv-x="753" d="M45 973v86l193 31l30 303h86v-303h332v-117h-332v-586q0 -104 23.5 -165.5t50.5 -79t68 -25.5q158 -35 172 -35v-82h-166q-264 0 -264 387v586h-193zM233 1556v117q0 41 41 41h76q39 0 39 -41v-117q0 -39 -39 -38h-76q-41 -1 -41 38z" />
<glyph unicode="&#x1e80;" horiz-adv-x="1976" d="M102 1499h129l463 -1309l416 1309h131l-164 -526l295 -791l424 1317h127l-485 -1499h-125l-297 780l-258 -780h-125zM702 1898h146l229 -272h-102z" />
<glyph unicode="&#x1e81;" horiz-adv-x="1624" d="M45 1087h129l348 -917l318 917h127l-125 -368l252 -549l358 917h127l-422 -1087h-119l-254 563l-198 -563h-127zM502 1487h147l228 -273h-103z" />
<glyph unicode="&#x1e82;" horiz-adv-x="1976" d="M102 1499h129l463 -1309l416 1309h131l-164 -526l295 -791l424 1317h127l-485 -1499h-125l-297 780l-258 -780h-125zM977 1626l227 272h148l-273 -272h-102z" />
<glyph unicode="&#x1e83;" horiz-adv-x="1624" d="M45 1087h129l348 -917l318 917h127l-125 -368l252 -549l358 917h127l-422 -1087h-119l-254 563l-198 -563h-127zM776 1214l228 273h147l-272 -273h-103z" />
<glyph unicode="&#x1e84;" horiz-adv-x="1976" d="M102 1499h129l463 -1309l416 1309h131l-164 -526l295 -791l424 1317h127l-485 -1499h-125l-297 780l-258 -780h-125zM686 1706q0 35 23.5 57.5t56.5 22.5t56.5 -22.5t23.5 -57.5q0 -33 -23.5 -56.5t-56.5 -23.5t-56.5 23.5t-23.5 56.5zM1206 1706q0 33 23.5 56.5 t58.5 23.5t57.5 -22.5t22.5 -57.5q0 -33 -23.5 -56.5t-56.5 -23.5t-57.5 23.5t-24.5 56.5z" />
<glyph unicode="&#x1e85;" horiz-adv-x="1624" d="M45 1087h129l348 -917l318 917h127l-125 -368l252 -549l358 917h127l-422 -1087h-119l-254 563l-198 -563h-127zM485 1294.5q0 32.5 23.5 56t56.5 23.5t56.5 -23.5t23.5 -56t-23.5 -56.5t-56.5 -24t-56.5 24t-23.5 56.5zM1008 1294.5q0 32.5 22.5 56t57 23.5t57 -23.5 t22.5 -56t-23.5 -56.5t-56 -24t-56 24t-23.5 56.5z" />
<glyph unicode="&#x1ef2;" horiz-adv-x="1282" d="M102 1499h129l414 -825l457 825h127l-524 -967v-532h-117v532zM342 1905h147l228 -273h-103z" />
<glyph unicode="&#x1ef3;" horiz-adv-x="1116" d="M47 1087h129l277 -849q8 -25 19 -44.5t22.5 -31.5t22.5 -21.5t23.5 -13.5t22.5 -6t19 -2h16q6 0 10 1l4 1l326 966h129l-479 -1431l-133 -209h-70l186 553q-176 0 -243 225zM248 1493h145l230 -272h-103z" />
<glyph unicode="&#x2000;" horiz-adv-x="1026" />
<glyph unicode="&#x2001;" horiz-adv-x="2052" />
<glyph unicode="&#x2002;" horiz-adv-x="1026" />
<glyph unicode="&#x2003;" horiz-adv-x="2052" />
<glyph unicode="&#x2004;" horiz-adv-x="684" />
<glyph unicode="&#x2005;" horiz-adv-x="513" />
<glyph unicode="&#x2006;" horiz-adv-x="342" />
<glyph unicode="&#x2007;" horiz-adv-x="342" />
<glyph unicode="&#x2008;" horiz-adv-x="256" />
<glyph unicode="&#x2009;" horiz-adv-x="410" />
<glyph unicode="&#x200a;" horiz-adv-x="114" />
<glyph unicode="&#x2010;" horiz-adv-x="712" d="M45 537v114h623v-114h-623z" />
<glyph unicode="&#x2011;" horiz-adv-x="712" d="M45 537v114h623v-114h-623z" />
<glyph unicode="&#x2012;" horiz-adv-x="712" d="M45 537v114h623v-114h-623z" />
<glyph unicode="&#x2013;" horiz-adv-x="1058" d="M45 528v119h969v-119h-969z" />
<glyph unicode="&#x2014;" horiz-adv-x="1515" d="M45 532v119h1425v-119h-1425z" />
<glyph unicode="&#x2018;" horiz-adv-x="481" d="M154 1163v207q0 49 17 81t42 43t48.5 15t40.5 2l17 -2v-53q-59 2 -59 -57v-64h23q47 0 47 -49v-123q0 -51 -47 -51h-84q-45 0 -45 51z" />
<glyph unicode="&#x2019;" horiz-adv-x="481" d="M154 1337v123q0 53 49 53h82q47 0 47 -53l-2 -207q0 -49 -17.5 -80.5t-42 -43t-48 -15.5t-41.5 -2l-17 2v51q59 -2 59 60v63h-22q-47 0 -47 49z" />
<glyph unicode="&#x201a;" horiz-adv-x="481" d="M154 47v123q0 53 47 53h84q45 0 45 -53v-205q0 -135 -120 -143l-46 2v51q59 -2 59 62v61h-22q-47 0 -47 49z" />
<glyph unicode="&#x201c;" horiz-adv-x="741" d="M139 1163v207q0 49 17.5 81t42 43t49 15t42.5 2l17 -2v-53q-59 2 -59 -57v-64h20q49 0 49 -49v-123q0 -51 -49 -51h-84q-45 0 -45 51zM426 1163v207q0 49 17.5 81t42 43t49 15t42.5 2l17 -2v-53q-59 2 -59 -57v-64h22q45 0 45 -49v-123q0 -51 -45 -51h-84q-47 0 -47 51z " />
<glyph unicode="&#x201d;" horiz-adv-x="741" d="M139 1337v123q0 53 47 53h84q47 0 47 -53v-207q0 -49 -17 -80.5t-42 -43t-49.5 -15.5t-41.5 -2l-17 2v51q57 -2 57 60v63h-21q-47 0 -47 49zM426 1337v123q0 53 49 53h84q43 0 43 -53v-207q0 -49 -17.5 -80.5t-42 -43t-48 -15.5t-40.5 -2l-18 2v51q59 -2 60 60v63h-21 q-49 0 -49 49z" />
<glyph unicode="&#x201e;" horiz-adv-x="741" d="M139 49v123q0 53 47 53h84q47 0 47 -53v-207q0 -49 -17 -82t-42 -44t-49.5 -15t-41.5 -2l-17 2v53q57 -2 57 60v63h-21q-47 0 -47 49zM426 49v123q0 53 49 53h84q43 0 43 -53v-207q0 -135 -120 -143l-46 2v53q59 -2 60 60v63h-21q-49 0 -49 49z" />
<glyph unicode="&#x2020;" horiz-adv-x="794" d="M45 1018v90l293 14l14 455h94l15 -455l289 -14v-90l-289 -17l-17 -1148h-94l-12 1148z" />
<glyph unicode="&#x2021;" horiz-adv-x="841" d="M45 371v88l295 16l-2 526l-293 17v90l293 14l14 455h94l15 -455l289 -14v-90l-289 -17l-6 -526l295 -16v-88l-297 -19l-9 -499h-94l-8 499z" />
<glyph unicode="&#x2022;" horiz-adv-x="645" d="M195 717v127q0 74 67 74h117q72 0 72 -74v-127q0 -66 -72 -66h-117q-67 0 -67 66z" />
<glyph unicode="&#x2026;" horiz-adv-x="1665" d="M190 39v121q0 43 41 43h80q41 0 41 -43v-121q0 -39 -41 -39h-80q-41 0 -41 39zM748 39v121q0 43 40 43h80q41 0 41 -43v-121q0 -39 -41 -39h-80q-40 0 -40 39zM1305 39v121q0 43 41 43h79q41 0 41 -43v-121q0 -39 -41 -39h-79q-41 0 -41 39z" />
<glyph unicode="&#x202f;" horiz-adv-x="410" />
<glyph unicode="&#x2030;" horiz-adv-x="2826" d="M96 971v272q0 135 57.5 195.5t206.5 60.5h207q145 0 202.5 -60.5t57.5 -195.5v-272q0 -135 -57 -195.5t-207 -60.5h-207q-145 0 -202.5 60.5t-57.5 195.5zM195 971q0 -92 35.5 -125t125.5 -33h207q98 0 132 33t34 125v272q0 90 -35 124t-127 34h-207q-98 0 -131.5 -33 t-33.5 -125v-272zM475 0l897 1499h111l-897 -1499h-111zM1128 260v272q0 135 57.5 195.5t207.5 60.5h206q145 0 203 -60t58 -196v-272q0 -135 -57.5 -195.5t-207.5 -60.5h-206q-145 0 -203 60.5t-58 195.5zM1227 260q0 -92 35.5 -125t126.5 -33h206q98 0 132 33t34 125v272 q0 90 -34.5 124t-127.5 34h-206q-98 0 -132 -32.5t-34 -125.5v-272zM2001 260v272q0 135 57.5 195.5t206.5 60.5h207q145 0 202.5 -60t57.5 -196v-272q0 -135 -57.5 -195.5t-206.5 -60.5h-207q-145 0 -202.5 60.5t-57.5 195.5zM2099 260q0 -92 36 -125t126 -33h207 q98 0 132 33t34 125v272q0 90 -35 124t-127 34h-207q-100 0 -133 -31.5t-33 -126.5v-272z" />
<glyph unicode="&#x2039;" horiz-adv-x="727" d="M115 725l422 416l81 -82l-342 -334l353 -344l-82 -82z" />
<glyph unicode="&#x203a;" horiz-adv-x="727" d="M115 381l352 344l-342 334l82 82l422 -416l-432 -426z" />
<glyph unicode="&#x2044;" horiz-adv-x="425" d="M-207 0l739 1526h101l-739 -1526h-101z" />
<glyph unicode="&#x205f;" horiz-adv-x="513" />
<glyph unicode="&#x2070;" horiz-adv-x="987" d="M137 1020v522q0 123 61.5 174t178.5 51h239q231 0 232 -225v-522q0 -135 -58.5 -180t-173.5 -45h-239q-53 0 -90 7t-74 28.5t-56.5 68.5t-19.5 121zM236 1028q0 -82 30.5 -109.5t118.5 -27.5h223q90 0 118 30.5t28 106.5v506q0 74 -31 105.5t-115 31.5h-223 q-86 0 -117.5 -32.5t-31.5 -104.5v-506z" />
<glyph unicode="&#x2074;" horiz-adv-x="847" d="M37 1114l414 653h110l-373 -591h410v247l43 99h53v-346h121v-76l-121 -25v-278h-96v278h-528z" />
<glyph unicode="&#x2075;" horiz-adv-x="880" d="M125 811v74h432q135 0 135 143v115q0 33 -3 51t-14 43t-40 37t-74 12h-231q-53 0 -87 -31.5t-34 -85.5h-84l31 598h604v-96h-514l-19 -348q16 23 46 37t72 19t73 6t82 -1t65 -2q223 0 223 -231v-131q0 -121 -60 -177.5t-163 -56.5q-297 0 -440 25z" />
<glyph unicode="&#x2076;" horiz-adv-x="921" d="M125 1309q2 145 21.5 241.5t57.5 143.5t78 64.5t95 21.5q186 10 420 -21v-76h-416q-156 0 -160 -354q207 23 393 23q125 0 170 -50.5t45 -140.5v-149q0 -106 -58 -160.5t-157 -54.5h-219q-61 0 -106 19.5t-85 71.5t-60.5 157.5t-18.5 263.5zM221 1255q0 -68 7.5 -127 t25.5 -114.5t53 -88t84 -32.5h217q125 0 125 129v133q0 61 -29.5 80.5t-95.5 19.5h-387z" />
<glyph unicode="&#x2077;" horiz-adv-x="757" d="M35 1675v97h657l31 -54l-373 -921h-108l358 878h-565z" />
<glyph unicode="&#x2078;" horiz-adv-x="983" d="M152 1006v118q0 68 37.5 104t86.5 46q-66 18 -95 69.5t-29 112.5v82q0 133 62 186.5t175 53.5h225q111 0 166.5 -55.5t55.5 -184.5v-82q0 -47 -26 -97t-89 -61q49 -8 82 -62t33 -112v-118q0 -213 -215 -213h-246q-129 0 -176 57.5t-47 155.5zM248 1014q0 -68 28.5 -95.5 t106.5 -27.5h229q127 0 127 123v102q0 59 -34.5 91t-83.5 32h-242q-61 0 -96 -30.5t-35 -90.5v-104zM248 1464q0 -66 35.5 -96.5t87.5 -30.5h241q66 0 96.5 36t30.5 91v66q0 88 -33.5 119.5t-109.5 31.5h-199q-84 0 -116.5 -31.5t-32.5 -119.5v-66z" />
<glyph unicode="&#x2079;" horiz-adv-x="921" d="M102 1415v150q0 106 58.5 160.5t156.5 54.5h220q61 0 106 -19.5t85 -72t60.5 -158t18.5 -262.5q-2 -145 -20.5 -241.5t-56.5 -143.5t-77 -64.5t-96 -21.5q-233 -14 -422 20v76h416q156 0 160 354q-225 -25 -394 -24q-125 0 -170 51t-45 141zM199 1421q0 -61 29.5 -80.5 t95.5 -19.5h387q0 362 -166 362h-221q-125 0 -125 -129v-133z" />
<glyph unicode="&#x2080;" horiz-adv-x="987" d="M137 -184v522q0 123 61.5 174t178.5 51h239q231 0 232 -225v-522q0 -135 -58.5 -180.5t-173.5 -45.5h-239q-53 0 -90 7.5t-74 29t-56.5 68.5t-19.5 121zM236 -176q0 -82 30.5 -109.5t118.5 -27.5h223q90 0 118 30.5t28 106.5v506q0 74 -31 105.5t-115 31.5h-223 q-86 0 -117.5 -33t-31.5 -104v-506z" />
<glyph unicode="&#x2081;" horiz-adv-x="542" d="M37 383v72l262 112h96v-975h-96v869z" />
<glyph unicode="&#x2082;" horiz-adv-x="808" d="M71 550l1 5q203 25 374 25q266 0 267 -279q0 -240 -441 -599q-12 -9 -16 -13h455v-97h-633v89q10 8 85 66t117 93t114.5 102.5t112.5 119t72.5 116t32.5 117.5q0 96 -40 142t-144 46h-356q-7 0 -1 67z" />
<glyph unicode="&#x2083;" horiz-adv-x="851" d="M68 475v64q20 6 43.5 11t42 8t49 5t47 3t54.5 2t52 1h58h55q125 0 186.5 -67.5t61.5 -167.5v-72q0 -70 -40 -119t-85 -63q125 -59 125 -195v-57q0 -119 -58.5 -181.5t-201.5 -62.5q-281 0 -381 33l2 61l362 3q98 0 138 33.5t40 121.5v47q0 78 -49 116t-120 40l-291 10v70 l291 12q80 4 127 42t47 103v54q0 145 -168 145h-387z" />
<glyph unicode="&#x2084;" horiz-adv-x="847" d="M37 -90l414 653h110l-373 -592h410v248l43 98h53v-346h121v-75l-121 -25v-279h-96v279h-528z" />
<glyph unicode="&#x2085;" horiz-adv-x="880" d="M125 -35l31 598h604v-96h-514l-19 -348q16 23 46 37t72 19t73 6t82 -1t65 -2q223 0 223 -231v-131q0 -121 -60 -177.5t-163 -56.5q-297 0 -440 25v74h432q135 0 135 143v115q0 33 -3 51t-14 42.5t-40 37t-74 12.5h-231q-53 0 -87 -32t-34 -85h-84z" />
<glyph unicode="&#x2086;" horiz-adv-x="921" d="M125 104q2 145 21.5 241.5t57.5 144t78 64.5t95 21q244 10 420 -20v-76h-416q-156 0 -160 -354q207 23 393 22q125 0 170 -50t45 -140v-150q0 -106 -58 -160.5t-157 -54.5h-219q-61 0 -106 19.5t-85 72t-60.5 157.5t-18.5 263zM221 51q0 -68 7.5 -127t25.5 -114.5t53 -88 t84 -32.5h217q125 0 125 129v133q0 61 -29.5 80.5t-95.5 19.5h-387z" />
<glyph unicode="&#x2087;" horiz-adv-x="757" d="M35 471v96h657l31 -53l-373 -922h-108l358 879h-565z" />
<glyph unicode="&#x2088;" horiz-adv-x="983" d="M152 -80q0 68 37.5 103.5t86.5 46.5q-66 18 -95 69t-29 113v82q0 133 62 186t175 53h225q111 0 166.5 -55t55.5 -184v-82q0 -47 -26 -97.5t-89 -60.5q49 -8 82 -62.5t33 -111.5v-119q0 -213 -215 -213h-246q-129 0 -176 57.5t-47 155.5v119zM248 -86v-104 q0 -68 28.5 -95.5t106.5 -27.5h229q127 0 127 123v102q0 59 -34.5 91t-83.5 32h-242q-61 0 -96 -31t-35 -90zM248 260q0 -66 35.5 -96.5t87.5 -30.5h241q66 0 96.5 36t30.5 91v66q0 88 -33.5 119.5t-109.5 31.5h-199q-84 0 -116.5 -31.5t-32.5 -119.5v-66z" />
<glyph unicode="&#x2089;" horiz-adv-x="921" d="M102 211v149q0 106 58.5 160.5t156.5 54.5h220q61 0 106 -19t85 -71.5t60.5 -158t18.5 -263.5q-2 -145 -20.5 -241t-56.5 -143.5t-77 -64.5t-96 -22q-238 -14 -422 21v76h416q156 0 160 354q-225 -25 -394 -25q-125 0 -170 51.5t-45 141.5zM199 217q0 -61 29.5 -80.5 t95.5 -19.5h387q0 362 -166 362h-221q-125 0 -125 -129v-133z" />
<glyph unicode="&#x20ac;" horiz-adv-x="1239" d="M45 535v73l180 10v236l-180 12v68l180 14v17q0 51 1 82.5t10.5 95t26 107.5t51 98.5t85 87t129 56.5t177.5 24q184 0 481 -56v-88q-311 27 -481 27q-96 0 -165 -23.5t-107 -60.5t-58.5 -99.5t-26.5 -121t-6 -146.5l514 -10v-74l-514 -10v-236l514 -12v-74q-33 0 -87 -1 t-167 -3t-187.5 -3t-72.5 -3q-2 -203 95.5 -309.5t267.5 -108.5q92 0 213.5 7.5t198.5 15.5l77 8v-86q-238 -61 -489 -61q-55 0 -110.5 10t-125.5 45t-121 90t-87 156.5t-36 232.5z" />
<glyph unicode="&#x2113;" horiz-adv-x="811" d="M68 508q66 59 118 115v671q2 100 67.5 159.5t162.5 59.5q119 0 186.5 -83.5t67.5 -204.5q-2 -147 -103.5 -311t-265.5 -312v-215q2 -160 31.5 -208t111.5 -62q0 -2 84 -20.5t88 -16.5v-80h-170q-139 0 -199.5 89t-60.5 298v121q-43 -35 -77 -51zM301 762q84 102 135 176 t89 181.5t12 191.5q-16 55 -73.5 77.5t-110 -6t-52.5 -100.5v-520z" />
<glyph unicode="&#x2116;" horiz-adv-x="2199" d="M164 0v1333q0 98 69.5 146.5t153.5 24t119 -110.5l524 -1241q20 -51 64.5 -41t48.5 65v987q0 342 309 342l387 -2q152 -4 211 -91t59 -279q0 -176 -60 -264.5t-210 -88.5h-135q-158 0 -214 103.5t-56 376.5h96q0 -164 22.5 -250t58.5 -109.5t101 -23.5h119q92 0 137 54 t45 202q0 90 -12 145t-41 80.5t-56.5 34t-76.5 8.5q-231 2 -379 2q-92 0 -140 -62.5t-48 -173.5v-1005q0 -88 -67 -139.5t-149.5 -33t-119.5 110.5l-529 1246q-20 53 -66 41.5t-46 -66.5v-1321h-119z" />
<glyph unicode="&#x2122;" horiz-adv-x="1425" d="M45 1403v96h530v-96h-215v-619h-96v619h-219zM655 784l56 715h94l225 -549l201 549h96l64 -715h-95l-43 494l-180 -494h-80l-205 496l-36 -496h-97z" />
<glyph unicode="&#x212e;" horiz-adv-x="1507" d="M137 545q0 231 172 393q172 154 445 154q252 0 426 -136q178 -137 190 -428h-981q-2 0 -5 1q-7 0 -10 -0.5t-6 -6.5t-3 -16v-273q0 -51 115.5 -120.5t273.5 -69.5q113 0 218 48t173 124h115q-119 -125 -232 -170q-119 -45 -274 -45q-283 0 -447 152q-170 157 -170 393z M365 582q0 -18 18 -19h731q25 0 26 2q1 3 1 13v272q0 66 -129 134.5t-260 68.5q-102 0 -196.5 -39t-142.5 -82t-48 -70v-280z" />
<glyph unicode="&#x2202;" horiz-adv-x="1341" d="M131 464.5q0 231.5 133 350.5t389 119q229 0 383 -115q-10 313 -108.5 446.5t-323.5 133.5q-195 0 -368 -109l-35 72q86 57 132 82.5t120.5 48.5t156.5 23q545 0 545 -723q0 -158 -29.5 -297.5t-90 -255t-165 -183t-239.5 -67.5q-215 0 -357.5 121.5t-142.5 353zM248 469 q0 -174 109.5 -268.5t269.5 -94.5q96 0 171.5 49.5t119 121t72 161.5t38.5 162t10 133q-59 33 -167.5 59.5t-217.5 26.5q-405 0 -405 -350z" />
<glyph unicode="&#x2206;" horiz-adv-x="1490" d="M45 0l657 1499h113l631 -1499h-1401zM227 117h1045l-512 1222z" />
<glyph unicode="&#x220f;" horiz-adv-x="1277" d="M45 1382v117h1190v-117h-178v-1382h-117v1382h-602v-1382h-117v1382h-176z" />
<glyph unicode="&#x2211;" horiz-adv-x="1185" d="M92 -287l438 840l-438 829v117h1049v-117h-910l437 -829l-437 -840h910v-123h-1049v123z" />
<glyph unicode="&#x2212;" horiz-adv-x="921" d="M45 672v114h832v-114h-832z" />
<glyph unicode="&#x221a;" horiz-adv-x="1259" d="M45 616v117h252l272 -565l529 1470h116l-583 -1638h-105l-301 616h-180z" />
<glyph unicode="&#x221e;" horiz-adv-x="1632" d="M115 698q0 76 12 132.5t44 110.5t100.5 83t168.5 29q109 0 210.5 -73t166.5 -173q61 98 164.5 172t212.5 74q100 0 169 -30t100.5 -84t44 -110.5t12.5 -130.5q0 -352 -326 -352q-236 0 -379 252q-137 -252 -375 -252q-325 0 -325 352zM231 698q0 -117 46.5 -176 t162.5 -59q170 0 326 237q-63 96 -153.5 166t-172.5 70q-129 0 -169 -56.5t-40 -181.5zM868 700q147 -238 326 -237q119 0 164 61.5t45 173.5q0 121 -40 179.5t-169 58.5q-80 0 -173.5 -72t-152.5 -164z" />
<glyph unicode="&#x222b;" horiz-adv-x="911" d="M45 -301h188q39 0 68 16.5t46.5 52t27.5 71.5t14 100.5t6 108.5t2 124v8v856q0 111 4.5 190t20.5 161.5t44 134t78 84t120 32.5q43 0 78.5 -5t52 -10t40 -14.5t31.5 -11.5v-75h-186q-39 0 -67.5 -17.5t-46 -58.5t-29 -78t-15.5 -104.5t-6 -108.5t-2 -119v-856 q0 -115 -3 -189.5t-18.5 -159.5t-42 -134t-76.5 -82t-122 -33q-141 0 -207 41v76z" />
<glyph unicode="&#x2248;" horiz-adv-x="1046" d="M115 512q55 47 83.5 68.5t82 45t106.5 23.5q55 0 146.5 -50t142.5 -50q41 0 75.5 12t80 39t67.5 37l35 -62q-12 -8 -44 -35.5t-49.5 -40t-47 -30.5t-59 -25.5t-60.5 -7.5q-55 0 -146.5 51.5t-142.5 51.5q-43 0 -80 -12.5t-85 -38t-75 -35.5zM115 874q55 47 83.5 69 t82 45.5t106.5 23.5q55 0 146.5 -51.5t142.5 -51.5q41 0 75.5 13.5t80 40t67.5 36.5l35 -61q-12 -10 -44 -37t-50.5 -40t-47 -30.5t-58 -25.5t-60.5 -8q-55 0 -146.5 51t-142.5 51q-43 0 -79 -11t-87 -38t-74 -37z" />
<glyph unicode="&#x2260;" horiz-adv-x="964" d="M45 434v123h293l203 334h-496v123h569l95 153h96l-94 -153h209v-123h-285l-203 -334h488v-123h-562l-106 -176h-96l106 176h-217z" />
<glyph unicode="&#x2264;" horiz-adv-x="997" d="M115 229v117h772v-117h-772zM115 829v121l747 353v-127l-592 -287l592 -307v-131z" />
<glyph unicode="&#x2265;" horiz-adv-x="997" d="M115 229v117h772v-117h-772zM139 451v131l592 307l-592 287v127l748 -353v-121z" />
<glyph unicode="&#x25ca;" horiz-adv-x="1077" d="M45 764l442 735h117l428 -735l-428 -764h-117zM184 764l361 -612l350 612l-350 594z" />
<glyph unicode="&#xe000;" horiz-adv-x="1085" d="M0 1085h1085v-1085h-1085v1085z" />
<glyph unicode="&#xfb00;" horiz-adv-x="1581" d="M45 971v86l203 30v183q0 45 2 77.5t16.5 82t39 81t74.5 55t120 23.5q106 0 266 -45v-76l-240 7q-94 2 -127.5 -47.5t-33.5 -157.5v-183h647v203q0 45 2 77t14 82t35.5 82t70 55.5t109.5 23.5q141 0 293 -45v-76l-264 6q-92 2 -118 -49t-26 -156v-203h322v-116h-324v-973 h-116v973h-650v-971h-116v971h-199z" />
<glyph unicode="&#xfb03;" horiz-adv-x="1982" d="M45 971v86l203 30v183q0 45 2 77.5t16.5 82t39 81t74.5 55t120 23.5q106 0 266 -45v-76l-240 7q-94 2 -127.5 -47.5t-33.5 -157.5l-5 -183h625v109q0 184 104.5 299t284.5 115q162 0 379 -60v-75l-352 20q-127 6 -213 -65.5t-86 -233.5v-109l743 -18v-1069h-119v971h-626 v-971h-117v971h-623v-971h-116v971h-199z" />
<glyph unicode="&#xfb04;" horiz-adv-x="2203" d="M45 971v86l203 30v183q0 45 2 77.5t16.5 82t39 81t74.5 55t120 23.5q106 0 266 -45v-76l-240 7q-94 2 -127.5 -47.5t-33.5 -157.5l-5 -183h623v109q0 182 81 297t253 115h530v-1219q0 -106 20.5 -165.5t46 -77t75.5 -27.5q158 -37 172 -37v-80h-166q-141 0 -202.5 88 t-61.5 299v1108h-385q-119 0 -182.5 -67.5t-63.5 -233.5v-109h299v-116h-303v-971h-117v971h-619v-971h-116v971h-199z" />
<glyph unicode="&#xfb06;" horiz-adv-x="1785" d="M92 723v96q0 133 65.5 202t217.5 69h905l31 303h86v-303h332v-115h-332v-588q0 -88 10 -142.5t33.5 -80t41 -32.5t58.5 -15q152 -33 158 -33v-84h-154q-141 0 -202.5 89t-61.5 298v588h-905q-100 0 -133 -37t-33 -119v-96q0 -39 8 -65.5t19.5 -40t37 -19.5t43 -7t58.5 -1 h303q125 0 195.5 -66.5t70.5 -181.5v-92q0 -152 -73.5 -207t-192.5 -55q-70 0 -271.5 13t-269.5 19v84h541q150 0 149 146v92q0 131 -149 131h-303q-154 0 -218.5 50t-64.5 200z" />
<glyph horiz-adv-x="542" d="M188 1337v121q0 39 39 39h82q41 0 41 -39v-121q0 -43 -41 -43h-82q-39 0 -39 43zM203 0l12 1096h111l12 -1096h-135z" />
<glyph horiz-adv-x="1329" d="M160 332v629q0 160 99 245.5t253 85.5h315q178 0 260 -90t82 -241v-629q0 -332 -342 -332h-315q-154 0 -253 80t-99 252zM276 332q0 -111 66 -163t170 -52h315q225 0 226 215v629q0 215 -226 215h-315q-115 0 -175.5 -58.5t-60.5 -156.5v-629z" />
<glyph horiz-adv-x="722" d="M68 1040v80l344 174h116v-1294h-116v1161z" />
<glyph horiz-adv-x="1222" d="M94 1190v82q319 47 598 35q209 0 312.5 -101.5t103.5 -281.5q0 -98 -68.5 -211t-164 -205t-209 -180t-192.5 -137.5t-126 -73.5h750v-117h-994v109q92 49 185.5 105t227.5 149.5t232.5 181.5t170 191.5t71.5 191.5q0 268 -307 262h-590z" />
<glyph horiz-adv-x="1265" d="M115 1188v72q174 53 630 45q168 -2 259.5 -96.5t91.5 -241.5v-142q0 -117 -52.5 -186.5t-121.5 -91.5q174 -88 174 -295v-121q0 -344 -365 -344q-166 0 -238.5 1t-185 11.5t-180.5 32.5l2 74h594q252 0 252 225v121q0 119 -72 175t-172 60l-477 15v88l477 16 q115 4 181.5 60.5t66.5 158.5v142q0 111 -69.5 166t-174.5 55h-620z" />
<glyph horiz-adv-x="1214" d="M45 262l649 1032h137l-610 -977h647v445l58 153h59v-598h184v-90l-184 -32v-396h-117v396h-768z" />
<glyph horiz-adv-x="1304" d="M174 -90h623q104 0 161.5 64.5t57.5 164.5v215q0 227 -219 228h-316q-76 0 -136 -52.5t-60 -136.5h-107l45 901h864v-116h-755l-29 -568q23 31 72 57.5t114 30.5q55 4 115 4t118 -2t75 -2q174 0 255 -91t81 -249v-223q0 -98 -34 -171t-88.5 -108.5t-107.5 -52t-106 -16.5 q-391 0 -623 39v84z" />
<glyph horiz-adv-x="1284" d="M170 786q0 375 101.5 550t250.5 175q348 0 598 -32v-84h-579q-74 0 -127.5 -59.5t-79 -156t-36.5 -182.5t-11 -172q295 35 553 35q190 0 259.5 -81t69.5 -222v-254q0 -305 -329 -305h-285q-90 0 -155.5 35t-120 120t-82 243.5t-27.5 389.5zM287 743q0 -629 268 -628h285 q100 0 157.5 40t57.5 154v248q0 106 -57.5 146t-157.5 40h-553z" />
<glyph horiz-adv-x="1110" d="M68 1178v116h925l49 -82l-524 -1417h-139l514 1383h-825z" />
<glyph horiz-adv-x="1312" d="M172 315v201q0 186 184 223q-184 51 -184 283v133q0 195 94 274.5t266 79.5h279q168 0 250 -84t82 -270v-133q0 -31 -7.5 -64.5t-24.5 -71.5t-52 -66.5t-82 -37.5q84 -18 125 -97t41 -169v-201q0 -94 -33 -160.5t-87 -98t-105.5 -44t-108.5 -12.5h-277 q-100 0 -171.5 25.5t-107.5 59.5t-55.5 84t-22.5 79.5t-3 66.5zM289 309q0 -193 243 -192h277q86 0 151.5 48t65.5 144v215q0 184 -211 185h-305q-86 0 -153.5 -44t-67.5 -141v-215zM289 1012q0 -188 221 -189h305q113 0 162 57.5t49 131.5v139q0 129 -52 185.5t-163 56.5 h-279q-129 0 -186 -51.5t-57 -190.5v-139z" />
<glyph horiz-adv-x="1284" d="M137 735v254q0 305 330 305h285q90 0 155.5 -34.5t119.5 -119.5t82 -244t28 -390q0 -375 -101.5 -550t-251.5 -175q-412 0 -598 33v84h578q76 0 129 59t78.5 155.5t37 182.5t11.5 172q-295 -35 -553 -35q-190 0 -260 81t-70 222zM252 735q0 -106 57.5 -146t157.5 -40h553 q0 629 -268 629h-285q-100 0 -157.5 -40t-57.5 -155v-248z" />
<glyph horiz-adv-x="1099" d="M92 367v206q0 389 514 322v207h119v-303h-266q-113 -4 -182.5 -57.5t-69.5 -168.5v-206q0 -141 71.5 -202t235.5 -61l543 2v-83q-326 -41 -557 -35q-408 -2 -408 379zM588 1341v119q0 41 39 41h84q16 0 28.5 -11t12.5 -30v-119q0 -43 -41 -43h-84q-39 0 -39 43z" />
<glyph horiz-adv-x="1746" d="M150 174v713q0 35 3 64.5t21.5 84t51 91t102 66.5t166.5 30h430q129 0 221 -66.5t92 -220.5v-762h-86l-25 131l-24 -15q-25 -15 -65 -37t-88 -44.5t-108.5 -37.5t-111.5 -15q-113 -2 -188.5 66.5t-73.5 172.5v109q0 125 69.5 198.5t194.5 73.5h393q2 156 0 156 q0 96 -52 135t-154 39h-424q-106 0 -167 -47t-61 -172v-713q0 -137 66.5 -191.5t161.5 -54.5h694q133 0 189.5 60.5t56.5 185.5v1049q0 127 -64.5 197.5t-181.5 70.5h-817v74q221 45 590 43h227q168 -4 265 -101.5t97 -283.5v-1049q0 -365 -362 -364h-694q-160 0 -252 94 t-92 270zM584 408q0 -53 46 -94.5t113 -41.5q129 -2 381 119v305l-383 -28q-70 -6 -113.5 -46t-43.5 -122v-92z" />
<glyph horiz-adv-x="1140" d="M115 549q0 264 94 407.5t283 143.5q96 0 197.5 -8.5t198.5 -19.5t118 -13v-1272q0 -176 -102.5 -266t-223.5 -78l-508 49v76l508 -10q90 -2 149.5 56t59.5 173v272q-197 -80 -397 -79q-115 0 -191 41.5t-116 122.5t-55 177.5t-15 227.5zM231 549q0 -104 8.5 -174 t33 -139.5t80 -104.5t139.5 -35q170 0 397 58v829h-397q-261 0 -261 -434z" />
<glyph horiz-adv-x="1931" d="M100 586v182q0 197 101.5 259.5t330.5 62.5h918l31 303h86v-306h317v-79l-317 -35v-590q0 -92 -30 -161.5t-77 -110.5t-112.5 -67t-127 -35t-130.5 -9h-316q-94 0 -157.5 11.5t-119 45t-82 102t-26.5 173.5q-70 0 -131 21.5t-109.5 82t-48.5 150.5zM217 586 q0 -139 172 -140q0 182 80 269.5t250 87.5h264q49 0 78 -2t71 -15.5t66.5 -37t41.5 -69.5t17 -114q0 -143 -60 -189t-214 -46h-477q0 -74 19.5 -119t64.5 -64.5t78.5 -23.5t105.5 -6h316q360 0 360 266v590h-918q-182 0 -248.5 -35t-66.5 -170v-182zM506 446h477 q98 0 128 19.5t30 99.5q0 78 -30 99.5t-128 21.5h-264q-111 0 -162 -46.5t-51 -193.5z" />
<glyph horiz-adv-x="755" d="M72 948v94q0 84 55 134.5t149 50.5q297 0 297 2v63q0 131 -151 131q-137 0 -326 -14v64q137 35 338 40q102 2 169 -51t67 -159v-529h-64l-33 107l-19 -13q-19 -12 -51 -28.5t-69 -32.5t-80 -28.5t-78 -12.5q-84 0 -144 48t-60 134zM168 965q0 -102 117 -103q122 0 288 88 v213l-290 -22q-115 -10 -115 -107v-69z" />
<glyph horiz-adv-x="802" d="M86 774v1073h96v-395q147 61 277 61q68 0 117 -22.5t76.5 -56t44 -87t21.5 -101.5t5 -111q0 -369 -266 -369q-123 0 -275 106l-32 -98h-64zM182 940q6 -2 53.5 -23.5t67 -28.5t61.5 -16.5t85 -9.5q178 0 178 273q0 164 -41 223t-137 59q-29 0 -54.5 -1t-44 -3t-43 -7 t-37 -8t-42 -9.5t-46.5 -10.5v-438z" />
<glyph horiz-adv-x="737" d="M72 1136.5q0 221.5 67.5 297t200.5 75.5q98 0 311 -41v-71q-182 16 -303 16q-47 0 -74.5 -7t-54 -33.5t-39 -86t-12.5 -153.5q0 -156 41 -214.5t139 -58.5l314 21v-72q-141 -43 -322 -45q-131 0 -199.5 75.5t-68.5 297z" />
<glyph horiz-adv-x="798" d="M72 1137q0 63 5 111t20.5 101.5t43 87t76.5 56.5t117 23q129 0 276 -62v395h95v-1075h-64l-33 98q-145 -106 -272 -106q-264 0 -264 371zM168 1137q0 -274 178 -275q43 0 85 9.5t60.5 15.5t64.5 28.5t52 24.5v438q-12 4 -45 11.5t-43 10.5t-35.5 8t-42 6t-43 3t-55.5 2 q-94 0 -135 -59t-41 -223z" />
<glyph horiz-adv-x="798" d="M72 1141q0 193 68.5 278.5t260.5 85.5q76 0 123 -7t97.5 -30.5t75 -80t24.5 -144.5q0 -160 -217 -160h-336q0 -137 41 -180t145 -43q221 0 351 21v-70q-170 -47 -363 -47q-145 0 -207.5 80t-62.5 297zM168 1182h330q125 0 125 71q0 94 -45.5 125t-176.5 31 q-127 0 -180 -45t-53 -182z" />
<glyph horiz-adv-x="669" d="M59 1391v73l154 21v149q0 215 197 215q88 0 200 -26v-68l-172 4q-78 0 -103.5 -32.5t-25.5 -102.5v-137h236v-96h-240v-617h-96v617h-150z" />
<glyph horiz-adv-x="849" d="M74 901q0 41 28.5 77t85.5 42q-49 23 -78.5 84t-29.5 131q0 129 66.5 196.5t181.5 67.5h452v-57l-129 -35q23 -14 45.5 -63.5t22.5 -108.5q0 -102 -58.5 -185t-191.5 -83h-211q-86 0 -86 -58q-2 -31 14.5 -44t51.5 -17l301 -35q92 -10 146 -60.5t54 -131.5v-17 q0 -223 -207 -223h-233q-102 0 -162.5 54.5t-60.5 160.5v86l41 106q-43 35 -43 113zM170 614q0 -80 39 -109.5t108 -29.5h199q70 0 100.5 32t30.5 97v10q0 55 -37 78t-102 31l-272 33l-66 12v-154zM178 1235q-2 -72 39 -122t125 -50h119q82 0 122 50t40 122q0 74 -39 122 t-111 48h-127q-164 0 -168 -170z" />
<glyph horiz-adv-x="815" d="M86 774v1071h96v-442q2 2 28 17.5t31 18.5t28.5 15t32.5 16.5t30.5 13.5t36 12t34 8t39 7t39.5 2q119 0 182.5 -67.5t63.5 -165.5v-506h-96v492q0 72 -45 111.5t-113 39.5q-55 0 -107.5 -12t-81 -24.5t-102.5 -45.5v-561h-96z" />
<glyph horiz-adv-x="278" d="M78 1628v82q0 33 33 33h55q33 0 33 -33v-82q0 -31 -33 -31h-55q-33 0 -33 31zM88 774v729h96v-729h-96z" />
<glyph horiz-adv-x="284" d="M80 1634v80q0 35 33 35h57q31 0 31 -35v-80q0 -33 -31 -32h-57q-33 -1 -33 32zM88 401v1100h100v-733q4 -188 -32 -367h-68z" />
<glyph horiz-adv-x="763" d="M86 774v1067h96v-616h78l301 272h137l-350 -317l352 -406h-127l-303 354h-88v-354h-96z" />
<glyph horiz-adv-x="487" d="M84 1032v811h96v-801q0 -96 24.5 -129.5t86.5 -48.5q127 -25 133 -24v-66h-137q-111 0 -157 60.5t-46 197.5z" />
<glyph horiz-adv-x="1351" d="M86 774v725h72l24 -98q66 39 92.5 54t86 34.5t114.5 19.5q76 0 134.5 -30.5t82.5 -83.5q145 115 324 114q109 0 178.5 -66.5t69.5 -166.5v-502h-97v488q0 70 -44 110.5t-111 40.5q-143 0 -289 -78q6 -18 6 -69v-492h-96v488q0 70 -46 110.5t-114 40.5q-55 0 -107.5 -12 t-81 -24.5t-102.5 -45.5v-557h-96z" />
<glyph horiz-adv-x="815" d="M86 774v725h66l30 -94q59 37 90 53.5t91.5 35.5t117.5 19q119 0 182.5 -67.5t63.5 -165.5v-506h-96v492q0 74 -45 113.5t-113 39.5q-18 0 -35.5 -1t-36 -4t-31 -5t-32 -9t-27.5 -9t-31.5 -12.5t-29.5 -12.5t-34 -15.5t-34 -15.5v-561h-96z" />
<glyph horiz-adv-x="808" d="M72 1126q0 195 71.5 287t259.5 92q184 0 254 -91t70 -288q0 -182 -69.5 -270t-254.5 -88q-188 0 -259.5 88t-71.5 270zM168 1126q0 -160 53 -211t182 -51q127 0 177.5 54.5t50.5 207.5q0 168 -50.5 225.5t-181.5 57.5q-133 0 -182 -60.5t-49 -222.5z" />
<glyph horiz-adv-x="798" d="M86 397v1104h64l28 -96q47 35 127 70.5t154 35.5q260 0 260 -372q0 -80 -9.5 -140.5t-35 -119t-78.5 -90t-133 -31.5q-139 0 -285 61v-422h-92zM178 893q150 -39 273 -39q90 0 131 60.5t41 224.5q0 276 -174 276q-27 0 -55.5 -4t-47 -8t-49.5 -16.5t-40 -15.5t-43 -19.5 t-36 -16.5v-442z" />
<glyph horiz-adv-x="804" d="M72 1139q0 178 71.5 276t212.5 98q74 0 142.5 -6t131 -14t81.5 -10v-1086h-97v416q-147 -61 -258 -61q-284 0 -284 387zM168 1139q0 -61 7 -106.5t26.5 -91.5t62.5 -69.5t107 -23.5q43 0 71.5 3t43 5t55.5 12.5t73 18.5v530h-243q-203 1 -203 -278z" />
<glyph horiz-adv-x="679" d="M86 774v725h68l28 -104q6 4 36 21.5t41 23.5t38 20.5t44 19.5t43 13t49.5 11t49.5 3q86 0 115 -12v-92q-37 8 -115 8q-57 0 -111.5 -12.5t-83 -23.5t-106.5 -46v-555h-96z" />
<glyph horiz-adv-x="768" d="M72 1262v71q0 186 194 187q141 0 381 -27v-72l-362 2q-76 0 -96.5 -24.5t-20.5 -81.5v-49q0 -31 6 -49.5t22.5 -25.5t33 -9t49.5 -2h231q88 0 134 -46t46 -130v-76q0 -178 -182 -178q-117 0 -402 32v70l379 -4q2 0 13.5 -1t18.5 0t20.5 3t21.5 8t17.5 17.5t13.5 29 t4 41.5v51q0 47 -22.5 65.5t-79.5 18.5h-230q-102 0 -146 37.5t-44 141.5z" />
<glyph horiz-adv-x="634" d="M61 1407v70l152 22l29 207h67v-203h230v-96h-230v-369q0 -98 21.5 -131t91.5 -43q115 -20 117 -20v-68h-121q-111 0 -158 57.5t-47 196.5v377h-152z" />
<glyph horiz-adv-x="806" d="M82 1006v497h96v-491q0 -70 46 -111t112 -41q25 0 44 1t42.5 7t36 8.5t39 12.5t34 13t41 18.5t41.5 19.5v563h99v-725h-68l-31 96q-6 -4 -30.5 -19t-32.5 -20.5t-30.5 -18.5t-34 -17t-33 -13.5t-39 -12.5t-40 -6t-44.5 -3q-117 0 -182.5 72t-65.5 170z" />
<glyph horiz-adv-x="851" d="M57 1499h109l264 -584l256 584h107l-322 -725h-84z" />
<glyph horiz-adv-x="1261" d="M57 1499h109l264 -584l256 584h107l-109 -242l156 -342l254 584h108l-321 -725h-84l-166 361l-160 -361h-84z" />
<glyph horiz-adv-x="804" d="M59 774l287 367l-287 358h119l225 -280l215 280h121l-278 -358l282 -367h-118l-222 291l-225 -291h-119z" />
<glyph horiz-adv-x="878" d="M57 1501h107l223 -557q35 -76 86 -76l238 633h106l-354 -960l-107 -140h-65l145 369q-88 10 -139 135z" />
<glyph horiz-adv-x="768" d="M72 1405v94h614v-82l-465 -547h463v-94h-590v94l459 535h-481z" />
<glyph horiz-adv-x="1275" d="M133 332v835q0 160 99.5 246t252.5 86h316q176 0 259 -92t83 -240v-835q0 -332 -342 -332h-316q-154 0 -253 80t-99 252zM250 332q0 -111 65.5 -163t169.5 -52h316q225 0 225 215v835q0 215 -225 215h-316q-115 0 -175 -58t-60 -157v-835z" />
<glyph horiz-adv-x="1275" d="M324 0v119h362v1247l-362 -125v80l362 178h119v-1380h346v-119h-827z" />
<glyph horiz-adv-x="1275" d="M129 1401v84q272 35 602 35q209 0 312.5 -123t103.5 -307q0 -111 -70.5 -244t-165 -240.5t-217.5 -219.5t-196.5 -169t-135.5 -100h785v-117h-1004v109q94 68 178.5 131t223.5 183t236.5 223.5t172 227t74.5 220.5q0 147 -75.5 227t-225.5 80h-598z" />
<glyph horiz-adv-x="1275" d="M152 1386v72q172 53 630 45q168 -2 258 -96t90 -242v-141q0 -117 -52 -186.5t-120 -92.5q172 -86 172 -294v-121q0 -344 -364 -344q-166 0 -238.5 1t-184.5 11t-179 33v73h594q115 0 183.5 46.5t68.5 179.5v121q0 119 -72 175t-172 60l-475 14v88l475 19 q115 4 181.5 59.5t66.5 157.5v141q0 111 -70 166t-174 55h-618z" />
<glyph horiz-adv-x="1275" d="M63 467l650 1032h139l-610 -977h647v445l55 153h62v-598h184v-90l-184 -31v-397h-117v397h-770z" />
<glyph horiz-adv-x="1275" d="M174 31v84h623q104 0 161.5 64.5t57.5 164.5v215q0 227 -219 227h-316q-76 0 -136 -52t-60 -136h-107l45 901h864v-117h-755l-29 -565q59 78 184 84q55 4 115 5t120 -1t75 -2q174 0 255 -91t81 -249v-223q0 -98 -34 -171t-88.5 -108.5t-107.5 -52t-106 -16.5 q-379 0 -623 39z" />
<glyph horiz-adv-x="1275" d="M139 786q0 375 101.5 550t251.5 175q342 0 598 -32v-84h-578q-76 0 -129 -59.5t-78.5 -156t-37 -182.5t-11.5 -172q297 35 553 35q190 0 260 -81t70 -222v-254q0 -305 -330 -305h-285q-90 0 -155.5 35t-119.5 120t-82 243.5t-28 389.5zM256 743q0 -629 268 -628h285 q100 0 157.5 40t57.5 154v248q0 106 -57.5 146t-157.5 40h-553z" />
<glyph horiz-adv-x="1275" d="M154 1382v117h925l47 -82l-524 -1417h-137l514 1382h-825z" />
<glyph horiz-adv-x="1275" d="M156 315v201q0 104 54 155.5t130 67.5q-100 29 -142 108t-42 175v133q0 195 94 274.5t266 79.5h279q168 0 249.5 -84t81.5 -270v-133q2 -72 -36.5 -148.5t-128.5 -91.5q84 -18 125.5 -97t39.5 -169v-201q0 -94 -32.5 -160.5t-87 -98t-105.5 -44t-108 -12.5h-277 q-100 0 -172 25.5t-107.5 59.5t-55 84t-22.5 79.5t-3 66.5zM272 309q0 -193 244 -192h277q86 0 151.5 48t65.5 144v215q0 184 -211 185h-305q-86 0 -154 -44t-68 -141v-215zM272 1012q0 -188 222 -189h305q113 0 162 57.5t49 131.5v139q0 129 -52.5 185.5t-162.5 56.5h-279 q-129 0 -186.5 -51.5t-57.5 -190.5v-139z" />
<glyph horiz-adv-x="1275" d="M139 948v254q0 305 330 305h285q90 0 155.5 -34.5t119.5 -119.5t82 -244t28 -390q0 -373 -101.5 -549t-251.5 -176q-391 0 -598 33v84h578q76 0 129 59t78.5 155.5t37 183.5t11.5 173q-313 -37 -553 -37q-190 0 -260 81t-70 222zM254 948q0 -106 57.5 -146t157.5 -40h553 q0 629 -268 629h-285q-100 0 -157.5 -40t-57.5 -155v-248z" />
<glyph horiz-adv-x="1275" d="M133 332v629q0 160 99.5 245.5t252.5 85.5h316q178 0 260 -90t82 -241v-629q0 -332 -342 -332h-316q-154 0 -253 80t-99 252zM250 332q0 -111 65.5 -163t169.5 -52h316q225 0 225 215v629q0 215 -225 215h-316q-115 0 -175 -58.5t-60 -156.5v-629z" />
<glyph horiz-adv-x="1275" d="M326 0v119h348v1042l-344 -121v80l344 174h117v-1175h333v-119h-798z" />
<glyph horiz-adv-x="1275" d="M129 1190v82q319 47 598 35q209 0 312.5 -101.5t103.5 -281.5q0 -98 -68.5 -211t-164 -205t-209 -180t-192.5 -137.5t-126 -73.5h750v-117h-994v109q92 49 185.5 105t227.5 149.5t232.5 181.5t170 191.5t71.5 191.5q0 268 -307 262h-590z" />
<glyph horiz-adv-x="1275" d="M152 1186v71q166 53 630 46q168 -2 258 -96.5t90 -241.5v-142q0 -117 -52 -186.5t-120 -89.5q172 -86 172 -297v-121q0 -344 -364 -344q-166 0 -238.5 1t-184.5 12.5t-179 33.5v72h594q115 0 183.5 46t68.5 179v121q0 121 -72 176t-172 59l-475 15v88l475 18 q115 4 181.5 59.5t66.5 157.5v142q0 111 -70 166t-174 55h-618z" />
<glyph horiz-adv-x="1275" d="M63 262l650 1032h139l-610 -977h647v445l55 153h62v-598h184v-90l-184 -32v-396h-117v396h-770z" />
<glyph horiz-adv-x="1275" d="M174 -90h623q104 0 161.5 64.5t57.5 164.5v215q0 227 -219 228h-316q-76 0 -136 -52.5t-60 -136.5h-107l45 901h864v-116h-755l-29 -568q23 31 72 57.5t114 30.5q55 4 115 4t118 -2t75 -2q174 0 255 -91t81 -249v-223q0 -98 -34 -171t-88.5 -108.5t-107.5 -52t-106 -16.5 q-391 0 -623 39v84z" />
<glyph horiz-adv-x="1275" d="M139 786q0 375 101.5 550t251.5 175q342 0 598 -32v-84h-578q-76 0 -129 -59.5t-78.5 -156t-37 -182.5t-11.5 -172q297 35 553 35q190 0 260 -81t70 -222v-254q0 -305 -330 -305h-285q-90 0 -155.5 35t-119.5 120t-82 243.5t-28 389.5zM256 743q0 -629 268 -628h285 q100 0 157.5 40t57.5 154v248q0 106 -57.5 146t-157.5 40h-553z" />
<glyph horiz-adv-x="1275" d="M154 1178v116h925l47 -82l-524 -1417h-137l514 1383h-825z" />
<glyph horiz-adv-x="1275" d="M156 315v201q0 104 54 155.5t130 67.5q-100 29 -142 108t-42 175v133q0 195 94 274.5t266 79.5h279q168 0 249.5 -84t81.5 -270v-133q2 -72 -36.5 -148.5t-128.5 -91.5q84 -18 125.5 -97t39.5 -169v-201q0 -94 -32.5 -160.5t-87 -98t-105.5 -44t-108 -12.5h-277 q-100 0 -172 25.5t-107.5 59.5t-55 84t-22.5 79.5t-3 66.5zM272 309q0 -193 244 -192h277q86 0 151.5 48t65.5 144v215q0 184 -211 185h-305q-86 0 -154 -44t-68 -141v-215zM272 1012q0 -188 222 -189h305q113 0 162 57.5t49 131.5v139q0 129 -52.5 185.5t-162.5 56.5h-279 q-129 0 -186.5 -51.5t-57.5 -190.5v-139z" />
<glyph horiz-adv-x="1275" d="M139 735v254q0 305 330 305h285q90 0 155.5 -34.5t119.5 -119.5t82 -244t28 -390q0 -375 -101.5 -550t-251.5 -175q-412 0 -598 33v84h578q76 0 129 59t78.5 155.5t37 182.5t11.5 172q-297 -35 -553 -35q-190 0 -260 81t-70 222zM254 735q0 -106 57.5 -146t157.5 -40h553 q0 629 -268 629h-285q-100 0 -157.5 -40t-57.5 -155v-248z" />
<glyph horiz-adv-x="1140" d="M115 549q0 264 94 407.5t283 143.5q96 0 197.5 -8.5t198.5 -19.5t118 -13v-1272q0 -176 -102.5 -266t-223.5 -78l-508 49v76l508 -10q90 -2 149.5 56t59.5 173v272q-197 -80 -397 -79q-115 0 -191 41.5t-116 122.5t-55 177.5t-15 227.5zM231 549q0 -104 8.5 -174 t33 -139.5t80 -104.5t139.5 -35q170 0 397 58v829h-397q-261 0 -261 -434zM362 1448h74q0 -68 48 -115t112 -45q70 0 117 44t47 116h74q0 -109 -73 -171.5t-165 -62.5q-90 0 -162 65t-72 169z" />
<glyph horiz-adv-x="1140" d="M115 549q0 264 94 407.5t283 143.5q96 0 197.5 -8.5t198.5 -19.5t118 -13v-1272q0 -176 -102.5 -266t-223.5 -78l-508 49v76l508 -10q90 -2 149.5 56t59.5 173v272q-197 -80 -397 -79q-115 0 -191 41.5t-116 122.5t-55 177.5t-15 227.5zM231 549q0 -104 8.5 -174 t33 -139.5t80 -104.5t139.5 -35q170 0 397 58v829h-397q-261 0 -261 -434zM524 1260v116q0 41 41 41h76q39 0 39 -41v-116q0 -39 -39 -39h-76q-41 0 -41 39z" />
<glyph horiz-adv-x="1140" d="M115 549q0 264 94 407.5t283 143.5q96 0 197.5 -8.5t198.5 -19.5t118 -13v-1272q0 -176 -102.5 -266t-223.5 -78l-508 49v76l508 -10q90 -2 149.5 56t59.5 173v272q-197 -80 -397 -79q-115 0 -191 41.5t-116 122.5t-55 177.5t-15 227.5zM231 549q0 -104 8.5 -174 t33 -139.5t80 -104.5t139.5 -35q170 0 397 58v829h-397q-261 0 -261 -434zM317 1217l250 266h109l225 -266h-108l-175 176l-192 -176h-109zM676 1483z" />
<glyph horiz-adv-x="1712" d="M92 537q0 172 25.5 284.5t78 170t111 78t144.5 20.5h770l28 301h88v-304h332v-116h-332v-586q0 -88 9.5 -141.5t33 -79t43 -33.5t58.5 -16q152 -31 157 -31v-86h-151q-141 0 -203.5 89t-62.5 298v584h-770q-61 0 -99.5 -13.5t-74 -56.5t-52 -134t-16.5 -237 q0 -250 57.5 -338t184.5 -88l460 29v-86q-199 -55 -460 -59q-68 0 -116 11t-97.5 46t-79 93.5t-48 160t-18.5 240.5z" />
<glyph horiz-adv-x="1488" d="M45 973v86l193 31l30 303h86v-303h643l29 303h88v-303h330v-117h-330v-584q0 -88 9.5 -142t33 -80t42 -33t58.5 -15q150 -33 156 -33v-84h-151q-141 0 -203 88t-62 299v584h-643v-586q0 -88 10.5 -141t35 -79t42 -34t58.5 -16q150 -31 155 -31v-86h-151q-141 0 -203.5 89 t-62.5 298v586h-193z" />
<glyph horiz-adv-x="1548" d="M45 971v86l195 30v203q0 45 2 77t14 82t35.5 82t70 55.5t109.5 23.5q164 0 295 -41v-74h-266q-90 2 -117 -48t-27 -157v-200h699l30 303h86v-303h332v-117h-332l3 -586q0 -88 9 -141t33.5 -79t42 -34t58.5 -16q150 -31 158 -31v-86h-154q-141 0 -202.5 89t-61.5 298 l-2 586h-701v-973h-116v971h-193z" />
<glyph horiz-adv-x="1904" d="M45 973v86l193 31l30 303h86v-303h326q117 0 181.5 -25t94 -68t62.5 -135l229 -622q41 -117 146 -116l14 1l324 965h131l-478 -1432l-135 -209h-78l199 553q-172 8 -248 225l-219 594q-31 88 -77 120t-146 32h-326v-586q0 -88 10.5 -141t34 -79t43 -34t58.5 -16 q150 -31 155 -31v-86h-151q-141 0 -203.5 89t-62.5 298v586h-193z" />
<glyph horiz-adv-x="1953" d="M45 971v86l195 30v203q0 45 2 77t14 82t35.5 82t70 55.5t109.5 23.5q111 0 295 -54v-75l-266 14q-90 6 -117 -45t-27 -160v-203h359q168 0 230.5 -46t113.5 -179l235 -620q20 -61 60.5 -90t69.5 -28l30 1l322 967h131l-477 -1432l-136 -209h-75l198 553q-35 0 -71.5 11.5 t-91 65.5t-87.5 148l-223 592q-33 86 -80 118t-149 32h-361v-971h-116v971h-193z" />
<glyph horiz-adv-x="1140" d="M115 549q0 264 94 407.5t283 143.5q96 0 197.5 -8.5t198.5 -19.5t118 -13v-1272q0 -176 -102.5 -266t-223.5 -78l-508 49v76l508 -10q90 -2 149.5 56t59.5 173v272q-197 -80 -397 -79q-115 0 -191 41.5t-116 122.5t-55 177.5t-15 227.5zM231 549q0 -104 8.5 -174 t33 -139.5t80 -104.5t139.5 -35q170 0 397 58v829h-397q-261 0 -261 -434zM526 1255v179q0 63 34 90.5t69 24.5l35 -3v-41q-49 0 -50 -47v-61h19q37 0 37 -37v-105q0 -41 -37 -41h-70q-37 0 -37 41z" />
<glyph horiz-adv-x="542" d="M188 39v121q0 43 41 43h82q39 0 39 -43v-121q0 -39 -39 -39h-82q-41 0 -41 39zM201 1167h135l-12 -825h-111z" />
<glyph horiz-adv-x="694" d="M164 1137v137h117v-137l-19 -275h-80zM416 1137v137h116v-137l-18 -275h-80z" />
<glyph horiz-adv-x="1161" d="M45 369l12 77h265l47 271h-269l11 76h270l63 374h80l-63 -374h280l62 374h80l-64 -374h299l-10 -76h-299l-47 -271h303l-12 -77h-303l-62 -371h-80l62 371h-279l-63 -371h-80l63 371h-266zM401 446h283l45 271h-280z" />
<glyph horiz-adv-x="1052" d="M115 805v63q0 98 30.5 163t89 94.5t115 41t133.5 11.5v133h99v-137q111 -6 309 -29v-86h-424q-123 0 -179.5 -42t-56.5 -149v-63q0 -164 215 -164h168q152 0 235 -86t83 -197v-77q0 -150 -106.5 -224.5t-243.5 -68.5v-129h-99v135q-33 2 -110.5 9t-138 12t-82.5 8v83 q20 0 193 1.5t255 1.5q80 0 146.5 38.5t66.5 133.5v77q0 76 -55.5 123t-143.5 47h-168q-172 0 -251.5 75t-79.5 202z" />
<glyph horiz-adv-x="1636" d="M66 784v129q0 135 57 195.5t207 60.5h94q145 0 202.5 -60t57.5 -196v-129q0 -135 -57.5 -195.5t-206.5 -60.5h-94q-145 0 -202.5 60.5t-57.5 195.5zM164 784q0 -92 36 -124.5t126 -32.5h94q98 0 132 32.5t34 124.5v129q0 90 -35 124t-127 34h-94q-98 0 -132 -32.5 t-34 -125.5v-129zM410 0l702 1167h111l-703 -1167h-110zM952 256v127q0 135 57.5 195.5t207.5 60.5h94q145 0 202.5 -60.5t57.5 -195.5v-127q0 -135 -57.5 -195.5t-206.5 -60.5h-95q-145 0 -202.5 60.5t-57.5 195.5zM1051 256q0 -92 35.5 -125t125.5 -33h95q98 0 132 33 t34 125v127q0 90 -35 124t-127 34h-94q-98 0 -132 -33t-34 -125v-127z" />
<glyph horiz-adv-x="1126" d="M76.5 366.5q17.5 118.5 134.5 217.5l145 118l-90 115q-68 90 -62.5 165t51.5 124t112 59q168 25 467 -24v-80h-365q-119 0 -139.5 -58.5t47.5 -138.5l393 -495l191 178l36 -41l-100 -174l-55 -56l213 -276h-137l-160 201l-137 -131q-66 -59 -151 -78t-173.5 15 t-149.5 120q-88 121 -70.5 239.5zM198.5 283q12.5 -47 45 -90t83 -69t113 -19.5t111.5 55.5l135 129l-254 323l-139 -114q-63 -51 -85 -109.5t-9.5 -105.5z" />
<glyph horiz-adv-x="442" d="M164 1137v137h117v-137l-19 -275h-80z" />
<glyph horiz-adv-x="917" d="M115 866v64l286 43l7 -117zM262 532l55 277l117 -27l-115 -268zM381 1161l61 25l150 -246l-109 -47zM449 678l63 100l229 -182l-32 -51zM537 846l237 160l33 -56l-193 -194z" />
<glyph horiz-adv-x="1206" d="M160 332v504q0 164 98 247.5t254 83.5h193q90 0 156.5 -25.5t100 -61.5t54 -86t26 -86t5.5 -72v-504q0 -332 -342 -332h-193q-154 0 -253 80t-99 252zM276 332q0 -113 68 -164t168 -51h193q225 0 225 215v504q0 215 -225 215h-193q-236 0 -236 -215v-504z" />
<glyph horiz-adv-x="696" d="M92 930v82l305 174h117v-1186h-117v1053z" />
<glyph horiz-adv-x="1060" d="M92 1051v75q57 8 125 18.5t99.5 14.5t92 7t142.5 3q395 0 395 -383q0 -338 -612 -669h602v-117h-832v109q43 31 156 98t196 123.5t175 132.5t142 159t50 166q0 131 -67.5 200t-223.5 65z" />
<glyph horiz-adv-x="1062" d="M68 1057v78q125 43 553 39q127 -2 199.5 -86t72.5 -207v-72q0 -92 -39 -151.5t-88 -75.5q53 -27 90 -88.5t37 -151.5v-57q0 -295 -283 -295q-430 0 -530 37v79h493q94 0 146.5 38t52.5 141v57q0 96 -54 137t-130 41l-410 12v99l410 8q188 0 188 170v72q0 176 -192 176 h-516z" />
<glyph horiz-adv-x="1101" d="M45 369l457 798h137l-418 -741h535v354l57 154h59v-508h185v-90l-185 -33v-299h-116v299h-652z" />
<glyph horiz-adv-x="1138" d="M174 39v84h506q111 0 159 49t48 141v111q0 41 -4 65.5t-22.5 54t-60.5 44t-112 14.5h-207q-80 0 -138 -45t-58 -125h-109l35 735h739v-116h-624l-21 -420q68 88 176 88h207q172 0 244 -75t72 -216v-119q0 -162 -89.5 -235.5t-234.5 -75.5q-346 -4 -506 41z" />
<glyph horiz-adv-x="1146" d="M150 614q0 160 28.5 277t77.5 176t100.5 86t108.5 27q252 4 508 -27v-90h-508q-59 0 -102.5 -45t-62.5 -116t-26.5 -129t-7.5 -111q186 23 467 22q154 0 215.5 -62.5t61.5 -175.5v-188q0 -133 -77 -196.5t-200 -63.5h-256q-72 0 -126 24.5t-102 88t-73.5 190.5t-25.5 313 zM266 567q0 -453 211 -452h256q160 0 160 151v180q0 70 -38 95.5t-122 25.5h-467z" />
<glyph horiz-adv-x="980" d="M68 1051v116h798l49 -82l-409 -1085h-129l395 1051h-704z" />
<glyph horiz-adv-x="1210" d="M172 270v119q0 152 152 186q-74 23 -113 89.5t-39 146.5v78q0 158 67.5 223.5t211.5 65.5h331q258 0 258 -289v-78q0 -70 -34.5 -130t-104.5 -75q63 -10 101 -76.5t38 -142.5v-117q0 -143 -75.5 -206.5t-184.5 -63.5h-331q-78 0 -133.5 21.5t-82 48t-42 70.5t-17.5 68.5 t-2 61.5zM289 266q0 -78 39 -112.5t133 -34.5h307q72 0 114 37t42 110v109q0 158 -160 157h-311q-164 0 -164 -153v-113zM289 807q0 -156 164 -156h311q162 0 162 156v78q0 100 -35 137t-121 37h-307q-100 0 -137 -31t-37 -143v-78z" />
<glyph horiz-adv-x="1146" d="M137 727v188q0 133 77 197t200 64h258q72 0 126 -26t102 -89.5t73.5 -189.5t25.5 -312q0 -160 -28.5 -276.5t-77.5 -176t-100.5 -86t-108.5 -26.5q-311 -4 -510 26v91h508q61 0 104 45t62.5 115.5t27 129t7.5 111.5q-186 -23 -469 -23q-154 0 -215.5 62.5t-61.5 175.5z M254 727q0 -70 38 -95.5t122 -25.5h469q0 453 -211 453h-258q-160 0 -160 -152v-180z" />
<glyph horiz-adv-x="952" d="M45 1055v88q268 35 442 28q188 0 280.5 -83.5t92.5 -233.5v-96q0 -158 -119.5 -228.5t-291.5 -46.5v-143h-121v248q127 -4 190 0q92 2 158.5 42t66.5 128v96q0 104 -63.5 152.5t-200.5 48.5h-434zM307 39v121q0 43 41 43h80q41 0 41 -43v-121q0 -39 -41 -39h-80 q-41 0 -41 39z" />
<glyph horiz-adv-x="1742" d="M150 86v713q0 35 3 64.5t21.5 83.5t51 91t102 67t166.5 30h430q129 0 221 -67t92 -220v-762h-88l-23 131l-24 -15q-25 -15 -65 -37t-88 -44.5t-108.5 -37.5t-111.5 -15q-113 -2 -188.5 66.5t-73.5 172.5v109q0 125 69.5 198.5t194.5 73.5h391q2 156 0 156q0 96 -51 135 t-153 39h-424q-106 0 -167 -47t-61 -172v-713q0 -246 228 -246h694q133 0 189.5 59.5t56.5 186.5v1049q0 127 -65.5 197.5t-180.5 70.5h-817v74q221 45 590 43h227q168 -4 265 -101.5t97 -283.5v-1049q0 -365 -362 -365h-694q-160 0 -252 94.5t-92 270.5zM582 365.5 q0 -44.5 2 -46.5q0 -53 46 -95t113 -40q131 -2 379 117v307l-381 -28q-68 -6 -113.5 -47t-43.5 -121q-2 -2 -2 -46.5z" />
<glyph horiz-adv-x="1200" d="M80 0l483 1167h117l446 -1167h-127l-131 332h-520l-141 -332h-127zM395 449h432l-206 555z" />
<glyph horiz-adv-x="1120" d="M184 0v1169h518q90 0 156 -27.5t98.5 -75.5t47 -98t14.5 -108q0 -188 -154 -264q55 -18 107.5 -88t52.5 -180q0 -328 -322 -328h-518zM301 119h401q41 0 71 6t63.5 25.5t52 64.5t18.5 113q0 98 -53 157.5t-152 59.5q-354 -4 -401 0v-426zM301 662h401q100 0 149.5 47 t49.5 151q0 193 -199 193h-401v-391z" />
<glyph horiz-adv-x="1073" d="M125 604q0 123 17.5 218.5t60.5 181.5t129 133t211 47q74 0 228.5 -15.5t227.5 -31.5v-90q-25 4 -192.5 12t-263.5 8q-162 0 -231.5 -115.5t-69.5 -347.5q0 -238 65.5 -365.5t235.5 -129.5l456 20v-86q-270 -51 -456 -51q-106 0 -185 38t-123.5 95t-70 143t-32.5 163 t-7 173z" />
<glyph horiz-adv-x="1241" d="M184 0v1171h492q129 -2 221 -57t139 -147.5t67.5 -187.5t20.5 -199q0 -119 -19.5 -214.5t-47 -154.5t-72.5 -102t-81 -63.5t-87 -32t-76.5 -12.5t-64.5 -1h-492zM301 117h375q332 0 332 463q0 242 -93.5 358.5t-238.5 116.5h-375v-938z" />
<glyph horiz-adv-x="1064" d="M184 170v815q0 90 56.5 137t156.5 47l574 -22v-92h-570q-61 0 -80.5 -21.5t-19.5 -68.5v-322l606 -14v-92l-606 -13v-323q0 -88 90 -88h580v-90l-615 -27q-78 0 -125 47t-47 127z" />
<glyph horiz-adv-x="1064" d="M184 0v985q0 90 56.5 137t156.5 47l574 -22v-92h-570q-61 0 -79.5 -22.5t-20.5 -67.5v-324l606 -16v-93l-606 -12v-520h-117z" />
<glyph horiz-adv-x="1179" d="M125 586q0 305 93 452.5t343 147.5q72 0 228.5 -16.5t244.5 -34.5v-95q-297 29 -473 29t-247.5 -101.5t-71.5 -377.5q0 -199 77.5 -344.5t241.5 -145.5q111 0 225.5 39t159.5 74v307h-379v76q213 41 359 41q63 0 137 -6v-631h-84l-29 96q-80 -51 -187.5 -80.5 t-201.5 -29.5q-86 0 -156.5 28.5t-115.5 70.5t-78 104.5t-48.5 115.5t-24.5 116.5t-11 97.5t-2 67z" />
<glyph horiz-adv-x="1230" d="M184 -2v1169h117v-544h684v544h117v-1169h-117v506h-684v-506h-117z" />
<glyph horiz-adv-x="428" d="M184 0v1167h117v-1167h-117z" />
<glyph horiz-adv-x="679" d="M80 43l8 82q84 -16 136 -19.5t105.5 13t79 71t27.5 150.5v827h117v-827q0 -229 -115 -303q-90 -49 -184 -44t-174 50z" />
<glyph horiz-adv-x="1126" d="M184 -2v1169h117v-536h191l415 536h146l-459 -594l459 -575h-146l-418 514h-188v-514h-117z" />
<glyph horiz-adv-x="1032" d="M184 176v991h117v-966q-2 -49 22.5 -66.5t75.5 -17.5h559v-117h-598q-82 0 -129 46t-47 130z" />
<glyph horiz-adv-x="1505" d="M125 0l125 1169h137l375 -970l377 970h131l119 -1169h-113l-96 950l-367 -950h-96l-371 958l-110 -958h-111z" />
<glyph horiz-adv-x="1245" d="M184 0v1169h111l709 -954v954h114v-1169h-108l-709 961v-961h-117z" />
<glyph horiz-adv-x="1243" d="M125 573q0 186 28.5 305t95 184.5t153.5 90.5t223 25q111 0 182.5 -11.5t138 -46.5t102 -99.5t57 -171t21.5 -261.5q0 -186 -28.5 -305t-95 -182.5t-153.5 -87t-224 -23.5q-135 0 -219 20.5t-153 80t-98.5 177t-29.5 305.5zM242 584q0 -158 19.5 -253t70.5 -144.5 t115.5 -65t177.5 -15.5q104 0 166.5 14.5t118 62.5t79 146.5t21.5 258.5q-2 166 -21.5 261t-73 142t-114 58.5t-176.5 11.5q-84 0 -132.5 -6t-102.5 -32t-81.5 -76t-47 -140t-19.5 -223z" />
<glyph horiz-adv-x="1085" d="M137 0v1165h541q125 0 218 -79.5t93 -245.5q0 -86 -13 -150.5t-41 -103.5t-54.5 -62.5t-68.5 -34t-68.5 -12.5t-69.5 -2l-418 23v-498h-119zM256 590h422q94 0 144 45t50 192q2 111 -54 166.5t-140 55.5h-422v-459z" />
<glyph horiz-adv-x="1243" d="M125 573q0 186 28.5 305t95 184.5t153.5 90.5t223 25q111 0 182.5 -11.5t138 -46.5t102 -99.5t57 -171t21.5 -261.5q0 -186 -28.5 -305t-95 -182.5t-153.5 -87t-224 -23.5q-135 0 -219 20.5t-153 80t-98.5 177t-29.5 305.5zM242 584q0 -158 19.5 -253t70.5 -144.5 t115.5 -65t177.5 -15.5q104 0 165.5 14.5t117 62.5t79 146.5t23.5 258.5q0 133 -15.5 221t-41 138t-79 76t-105.5 32t-144 6q-104 0 -161.5 -11.5t-115 -56.5t-82 -145t-24.5 -264zM590 -68h80q131 -145 350 -71v-125q-123 -47 -264 5t-166 191z" />
<glyph horiz-adv-x="1099" d="M137 0v1169h541q53 0 102 -14t99.5 -48t81 -103.5t30.5 -165.5q0 -145 -64.5 -241.5t-181.5 -104.5l283 -492h-135l-268 479q-369 25 -371 29v-508h-117zM254 596h430q74 0 132 52t58 188q0 70 -22.5 116.5t-58 66t-62 27t-53.5 7.5h-424v-457z" />
<glyph horiz-adv-x="1112" d="M125 766v127q0 281 283 281q258 0 532 -37v-88q-332 10 -532 10q-166 0 -166 -166v-127q0 -51 10 -80t38.5 -40t48 -13t69.5 -2h321q131 0 198.5 -64.5t67.5 -181.5v-143q0 -262 -266 -262q-104 0 -306 12t-253 28v84q362 -8 559 -8q74 0 112 52.5t38 93.5v143 q0 68 -35 99.5t-115 31.5h-321q-152 0 -217.5 53.5t-65.5 196.5z" />
<glyph horiz-adv-x="1073" d="M80 1051v116h919v-116h-401v-1051h-117v1051h-401z" />
<glyph horiz-adv-x="1265" d="M182 532v635h119v-635q0 -254 81 -340t284 -86q182 0 267 90.5t85 335.5v635h119v-635q0 -172 -37 -284.5t-108.5 -166.5t-146.5 -72.5t-179 -18.5q-92 0 -157 9t-131.5 41t-106.5 89t-64.5 158.5t-24.5 244.5z" />
<glyph horiz-adv-x="1216" d="M80 1167h129l407 -991l400 991h127l-469 -1167h-113z" />
<glyph horiz-adv-x="1724" d="M80 1167h129l371 -993l354 993h127l-133 -381l241 -612l361 993h121l-424 -1167h-117l-244 627l-223 -627h-121z" />
<glyph horiz-adv-x="1140" d="M80 0l420 586l-416 581h152l337 -477l342 477h154l-422 -581l418 -586h-147l-345 479l-346 -479h-147z" />
<glyph horiz-adv-x="1155" d="M80 1167h129l375 -655l368 655h129l-440 -778v-391h-117v391z" />
<glyph horiz-adv-x="1019" d="M80 0v117l713 934h-713v116h866v-116l-706 -934h706v-117h-866z" />
<glyph horiz-adv-x="466" d="M45 1360h148l229 -273h-105z" />
<glyph horiz-adv-x="1245" d="M92 0l483 1167h117l447 -1167h-129l-131 332h-519l-141 -332h-127zM408 449h432l-207 555zM887.5 -247.5q-25.5 59.5 13.5 130t148 117.5h61q-92 -59 -122 -126t11 -111t138 -44v-90q-86 -12 -155 26t-94.5 97.5z" />
<glyph horiz-adv-x="1099" d="M137 0v1169h541q53 0 102 -14t99.5 -48t81 -103.5t30.5 -165.5q0 -145 -64.5 -241.5t-181.5 -104.5l283 -492h-135l-268 479q-369 25 -371 29v-508h-117zM254 596h430q74 0 132 52t58 188q0 70 -22.5 116.5t-58 66t-62 27t-53.5 7.5h-424v-457zM492 -174q0 41 36 41h70 q35 0 35 -41v-180q0 -61 -34 -90t-68 -26l-33 3v43q49 -2 49 47v60h-19q-36 -1 -36 38v105z" />
<glyph horiz-adv-x="428" d="M-117 1368q51 43 80 64.5t72 42t82 20.5q51 -2 128 -50t103 -48q18 0 36.5 4t43.5 15t37 17.5t43 26t35 21.5l32 -62q-8 -6 -33.5 -27.5t-36.5 -30.5t-36 -26.5t-41 -24.5t-38.5 -12.5t-43.5 -5.5q-55 2 -127 49.5t-104 47.5q-39 0 -69 -11.5t-71 -36t-61 -34.5zM184 0 v1167h117v-1167h-117z" />
<glyph horiz-adv-x="1032" d="M184 176v991h117v-966q-2 -49 22.5 -66.5t75.5 -17.5h559v-117h-598q-82 0 -129 46t-47 130zM520 -174q0 41 37 41h70q37 0 37 -41v-180q0 -61 -34 -90t-68 -26l-34 3v43q47 -2 47 47v60h-18q-37 -1 -37 38v105z" />
<glyph horiz-adv-x="911" d="M115 1190q0 35 24.5 58.5t57 23.5t56 -24.5t23.5 -57.5t-23.5 -56.5t-55.5 -23.5q-35 0 -58.5 23.5t-23.5 56.5zM637 1190q0 35 23.5 58.5t58.5 23.5q33 0 55.5 -23.5t22.5 -58.5q0 -33 -22.5 -56.5t-55.5 -23.5q-35 0 -58.5 23.5t-23.5 56.5z" />
<glyph horiz-adv-x="1112" d="M125 766v127q0 281 283 281q258 0 532 -37v-88q-332 10 -532 10q-166 0 -166 -166v-127q0 -51 10 -80t38.5 -40t48 -13t69.5 -2h321q131 0 198.5 -64.5t67.5 -181.5v-143q0 -262 -266 -262q-104 0 -306 12t-253 28v84q362 -8 559 -8q74 0 112 52.5t38 93.5v143 q0 68 -35 99.5t-115 31.5h-321q-152 0 -217.5 53.5t-65.5 196.5zM270 1563h109l186 -177l180 177h109l-231 -267h-113zM623 1296z" />
<glyph horiz-adv-x="1064" d="M184 170v815q0 90 56.5 137t156.5 47l574 -22v-92h-570q-61 0 -80.5 -21.5t-19.5 -68.5v-322l606 -14v-92l-606 -13v-323q0 -88 90 -88h580v-90l-615 -27q-78 0 -125 47t-47 127zM317 1294v97h570v-97h-570z" />
<glyph horiz-adv-x="1179" d="M125 586q0 303 99.5 451.5t355.5 148.5q70 0 213 -16.5t235 -34.5v-93q-315 29 -440 29q-188 0 -266 -101.5t-78 -379.5q0 -233 79.5 -356t256.5 -130q238 -8 360 89v325h-393v78q209 41 373 41q63 0 137 -6v-631q-6 -2 -41 0t-45 0l-29 84q-150 -98 -371 -98 q-92 0 -165.5 29.5t-119.5 70.5t-79 105.5t-48.5 113.5t-23.5 118t-9 96.5t-1 66.5zM547 -176q0 41 37 41h67q37 0 37 -41v-180q0 -63 -33.5 -91t-67.5 -25l-34 3v43q23 0 34 8t12 16.5t1 22.5v60h-16q-37 -1 -37 38v105z" />
<glyph horiz-adv-x="1011" d="M45 1051v116h922v-116h-402v-344h215v-82h-215v-625h-116v625h-224v82h224v344h-404z" />
<glyph horiz-adv-x="1019" d="M80 0v117l713 934h-713v116h866v-116l-706 -934h706v-117h-866zM221 1556h109l186 -176l180 176h109l-234 -266h-110zM571 1290z" />
<glyph horiz-adv-x="825" d="M115 1085v97h598v-97h-598z" />
<glyph horiz-adv-x="643" d="M115 960.5q0 88.5 60.5 149.5t146.5 61t146 -61t60 -149.5t-60 -149.5t-146 -61t-146.5 61t-60.5 149.5zM188 960.5q0 -55.5 39 -95.5t94.5 -40t94.5 40t39 95.5t-38 94.5t-95 39q-55 0 -94.5 -39t-39.5 -94.5z" />
<glyph horiz-adv-x="466" d="M45 1087l229 273h148l-272 -273h-105z" />
<glyph horiz-adv-x="813" d="M115 1395h92l190 -203l205 203h96l-249 -308h-111zM449 1087z" />
<glyph horiz-adv-x="1245" d="M184 0v1169h111l709 -956v956h114v-1169v-115q-6 -324 -364 -323v96q113 8 181.5 56t68.5 175v115l-703 957v-961h-117z" />
<glyph horiz-adv-x="1200" d="M80 0l483 1167h117l446 -1167h-127l-131 332h-520l-141 -332h-127zM338 1290v96h569v-96h-569zM395 449h432l-206 555z" />
<glyph horiz-adv-x="1200" d="M80 0l483 1167h117l446 -1167h-127l-131 332h-520l-141 -332h-127zM395 449h432l-206 555zM571 1290l230 273h145l-272 -273h-103z" />
<glyph horiz-adv-x="1200" d="M80 0l483 1167h117l446 -1167h-127l-131 332h-520l-141 -332h-127zM330 1290l250 266h110l225 -266h-108l-174 176l-193 -176h-110zM395 449h432l-206 555zM690 1556z" />
<glyph horiz-adv-x="1200" d="M80 0l483 1167h117l446 -1167h-127l-131 332h-520l-141 -332h-127zM276 1368q51 43 80 64.5t72 42t82 20.5q51 -2 128 -50t103 -48q16 0 35 4t43.5 15t36.5 18.5t42 25t36 21.5l35 -62q-8 -6 -34 -27.5t-37 -30.5t-35.5 -26.5t-41 -24.5t-39 -12.5t-43.5 -5.5 q-55 2 -126.5 49.5t-104.5 47.5q-39 0 -68.5 -11.5t-70.5 -36t-62 -34.5zM395 449h432l-206 555z" />
<glyph horiz-adv-x="1200" d="M80 0l483 1167h117l446 -1167h-127l-131 332h-520l-141 -332h-127zM281 1372q0 33 23.5 56.5t58 23.5t57 -23.5t22.5 -56.5q0 -35 -23.5 -58.5t-56.5 -23.5q-35 0 -58 24.5t-23 57.5zM395 449h432l-206 555zM803 1372q0 33 23.5 56.5t58.5 23.5q33 0 56.5 -23.5 t23.5 -56.5q0 -35 -23.5 -58.5t-56.5 -23.5t-57.5 24.5t-24.5 57.5z" />
<glyph horiz-adv-x="1200" d="M80 0l483 1167h117l446 -1167h-127l-131 332h-520l-141 -332h-127zM395 449h432l-206 555zM418 1368q0 88 61.5 149.5t147.5 61.5t145 -61.5t59 -149.5t-59 -148.5t-145 -60.5t-147.5 60.5t-61.5 148.5zM489 1368q0 -55 41 -94t96.5 -39t94.5 39t39 94t-39 95t-94.5 40 t-96.5 -40t-41 -95z" />
<glyph horiz-adv-x="1626" d="M53 0l555 987q61 109 137 141.5t234 36.5l555 -22v-92h-551q-63 0 -81.5 -18.5t-22.5 -71.5v-326l591 -14v-93l-591 -16v-317q0 -86 94 -86h561v-91l-590 -26q-86 -2 -134 44t-48 128v196h-369l-209 -360h-131zM453 477h309v543z" />
<glyph horiz-adv-x="428" d="M63.5 -247.5q-24.5 59.5 14 130t147.5 117.5h62q-92 -59 -122 -126t10 -111t136 -44v-90q-86 -12 -154.5 26t-93 97.5zM188 0v1167h117v-1167h-117z" />
<glyph horiz-adv-x="1073" d="M125 604q0 123 17.5 218.5t60.5 181.5t129 133t211 47q74 0 228.5 -15.5t227.5 -31.5v-90q-25 4 -192.5 12t-263.5 8q-162 0 -231.5 -115.5t-69.5 -347.5q0 -238 65.5 -365.5t235.5 -129.5l456 20v-86q-270 -51 -456 -51q-106 0 -185 38t-123.5 95t-70 143t-32.5 163 t-7 173zM322 1583h108l186 -176l181 176h108l-231 -266h-113zM674 1317z" />
<glyph horiz-adv-x="1064" d="M184 170v815q0 90 56.5 137t156.5 47l574 -22v-92h-570q-61 0 -80.5 -21.5t-19.5 -68.5v-322l606 -14v-92l-606 -13v-323q0 -88 90 -88h580v-90l-615 -27q-78 0 -125 47t-47 127zM553 1294l229 273h146l-273 -273h-102z" />
<glyph horiz-adv-x="1064" d="M184 170v815q0 90 56.5 137t156.5 47l574 -22v-92h-570q-61 0 -80.5 -21.5t-19.5 -68.5v-322l606 -14v-92l-606 -13v-323q0 -88 90 -88h580v-90l-615 -27q-78 0 -125 47t-47 127zM748.5 -225.5q-25.5 59.5 13 130.5t147.5 118h62q-92 -59 -122 -126t11 -111t137 -44v-90 q-86 -12 -154.5 25.5t-94 97z" />
<glyph horiz-adv-x="1064" d="M184 170v815q0 90 56.5 137t156.5 47l574 -22v-92h-570q-61 0 -80.5 -21.5t-19.5 -68.5v-322l606 -14v-92l-606 -13v-323q0 -88 90 -88h580v-90l-615 -27q-78 0 -125 47t-47 127zM254 1399q0 33 23.5 56.5t58.5 23.5q33 0 55.5 -22.5t22.5 -57.5t-22.5 -58.5t-55.5 -23.5 t-57.5 23.5t-24.5 58.5zM776 1399q0 33 23.5 56.5t58.5 23.5t57.5 -22.5t22.5 -57.5t-23.5 -58.5t-56.5 -23.5q-35 0 -58.5 23.5t-23.5 58.5z" />
<glyph horiz-adv-x="1064" d="M184 170v815q0 90 56.5 137t156.5 47l574 -22v-92h-570q-61 0 -80.5 -21.5t-19.5 -68.5v-322l606 -14v-92l-606 -13v-323q0 -88 90 -88h580v-90l-615 -27q-78 0 -125 47t-47 127zM537 1333v117q0 41 41 41h73q41 0 41 -41v-117q0 -39 -41 -39h-73q-41 0 -41 39z" />
<glyph horiz-adv-x="428" d="M184 0v1167h117v-1167h-117zM203 1290l229 273h146l-273 -273h-102z" />
<glyph horiz-adv-x="428" d="M-41 1290l250 266h108l226 -266h-109l-174 176l-192 -176h-109zM184 0v1167h117v-1167h-117zM317 1556z" />
<glyph horiz-adv-x="428" d="M-27 1290v96h572v-96h-572zM190 0v1167h117v-1167h-117z" />
<glyph horiz-adv-x="1224" d="M45 553v82h137v536h122q89 0 216 -1t135 -1q123 0 213 -55t135.5 -147.5t64.5 -187.5t19 -199q0 -119 -19 -214.5t-48 -154.5t-74 -102t-82 -63.5t-86 -32t-72.5 -12.5t-58.5 -1h-465v553h-137zM303 119h324q186 0 261 123t75 338q0 244 -91.5 356.5t-236.5 112.5h-332 v-414h221v-82h-221v-434z" />
<glyph horiz-adv-x="1245" d="M184 0v1169h111l709 -954v954h114v-1169h-108l-709 961v-961h-117zM584 -174q0 41 37 41h69q35 0 35 -41v-180q0 -63 -34 -91t-67 -25l-34 3v43q49 -2 49 47v60h-18q-37 -1 -37 38v105z" />
<glyph horiz-adv-x="1243" d="M125 573q0 186 28.5 305t95 184.5t153.5 90.5t223 25q111 0 182.5 -11.5t138 -46.5t102 -99.5t57 -171t21.5 -261.5q0 -186 -28.5 -305t-95 -182.5t-153.5 -87t-224 -23.5q-135 0 -219 20.5t-153 80t-98.5 177t-29.5 305.5zM242 584q0 -158 19.5 -253t70.5 -144.5 t115.5 -65t177.5 -15.5q104 0 166.5 14.5t118 62.5t79 146.5t21.5 258.5q-2 166 -21.5 261t-73 142t-114 58.5t-176.5 11.5q-84 0 -132.5 -6t-102.5 -32t-81.5 -76t-47 -140t-19.5 -223zM342 1315v96h571v-96h-571z" />
<glyph horiz-adv-x="1126" d="M184 -2v1169h117v-536h191l415 536h146l-459 -594l459 -575h-146l-418 514h-188v-514h-117zM514 -176q0 41 39 41h68q37 0 36 -41v-178q0 -63 -33.5 -92t-67.5 -26l-34 3v43q47 0 47 47v62h-16q-39 -1 -39 36v105z" />
<glyph horiz-adv-x="1243" d="M125 573q0 186 28.5 305t95 184.5t153.5 90.5t223 25q111 0 182.5 -11.5t138 -46.5t102 -99.5t57 -171t21.5 -261.5q0 -186 -28.5 -305t-95 -182.5t-153.5 -87t-224 -23.5q-135 0 -219 20.5t-153 80t-98.5 177t-29.5 305.5zM242 584q0 -158 19.5 -253t70.5 -144.5 t115.5 -65t177.5 -15.5q104 0 166.5 14.5t118 62.5t79 146.5t21.5 258.5q-2 166 -21.5 261t-73 142t-114 58.5t-176.5 11.5q-84 0 -132.5 -6t-102.5 -32t-81.5 -76t-47 -140t-19.5 -223zM330 1294l250 267h110l223 -267h-108l-174 176l-193 -176h-108zM690 1561z" />
<glyph horiz-adv-x="1243" d="M125 573q0 186 28.5 305t95 184.5t153.5 90.5t223 25q111 0 182.5 -11.5t138 -46.5t102 -99.5t57 -171t21.5 -261.5q0 -186 -28.5 -305t-95 -182.5t-153.5 -87t-224 -23.5q-135 0 -219 20.5t-153 80t-98.5 177t-29.5 305.5zM242 584q0 -158 19.5 -253t70.5 -144.5 t115.5 -65t177.5 -15.5q104 0 166.5 14.5t118 62.5t79 146.5t21.5 258.5q-2 166 -21.5 261t-73 142t-114 58.5t-176.5 11.5q-84 0 -132.5 -6t-102.5 -32t-81.5 -76t-47 -140t-19.5 -223zM299 1378q51 43 80 64.5t72 42t81 20.5q51 -2 129 -50t105 -48q16 0 34.5 4t43 15.5 t37 18.5t42 24.5t35.5 21.5l33 -61q-8 -6 -33.5 -28t-37 -31t-36 -26.5t-41 -24.5t-39 -12t-42.5 -5q-55 2 -127 49t-105 47q-39 0 -68.5 -11.5t-70.5 -36t-61 -34.5z" />
<glyph horiz-adv-x="1243" d="M125 573q0 186 28.5 305t95 184.5t153.5 90.5t223 25q111 0 182.5 -11.5t138 -46.5t102 -99.5t57 -171t21.5 -261.5q0 -186 -28.5 -305t-95 -182.5t-153.5 -87t-224 -23.5q-135 0 -219 20.5t-153 80t-98.5 177t-29.5 305.5zM242 584q0 -158 19.5 -253t70.5 -144.5 t115.5 -65t177.5 -15.5q104 0 166.5 14.5t118 62.5t79 146.5t21.5 258.5q-2 166 -21.5 261t-73 142t-114 58.5t-176.5 11.5q-84 0 -132.5 -6t-102.5 -32t-81.5 -76t-47 -140t-19.5 -223zM281 1382.5q0 34.5 23.5 57t56 22.5t56 -22.5t23.5 -57t-23.5 -58.5t-56 -24t-56 24 t-23.5 58.5zM801 1382q0 33 23.5 56.5t58.5 23.5t57.5 -22.5t22.5 -57t-24 -58.5t-56 -24q-35 0 -58.5 23.5t-23.5 58.5z" />
<glyph horiz-adv-x="1222" d="M111 0q96 131 100 137q-86 129 -86 436q0 186 27.5 305t92 184.5t151.5 90.5t222 25q240 0 336 -68q18 29 43 57h97q-8 -10 -40 -52t-44 -58q104 -127 104 -469q0 -186 -27.5 -304t-92 -182.5t-151.5 -88t-225 -23.5q-256 0 -356 90q-6 -8 -57 -80h-94zM242 584 q0 -236 51 -340q580 760 588 770q-66 47 -263 47q-68 0 -110.5 -4t-90.5 -19.5t-76 -46t-53.5 -83t-35.5 -133t-10 -191.5zM338 178q74 -72 280 -72q82 0 133.5 8.5t103.5 36t80 79t45 140.5t17 218q0 272 -67 368q-96 -121 -592 -778z" />
<glyph horiz-adv-x="1161" d="M209 532v635h119v-635q-2 -254 78.5 -340t283.5 -86q182 0 268 90.5t86 335.5v635h119v-635q0 -172 -36.5 -284.5t-108.5 -166.5t-146.5 -72.5t-181.5 -18.5q-92 0 -155.5 9t-130 41t-106.5 89t-64.5 158.5t-24.5 244.5zM497 -201q-5 51 39 105.5t130 91.5h61 q-92 -59 -122 -125t11 -110t138 -44v-92q-68 -10 -129.5 12.5t-92 66.5t-35.5 95z" />
<glyph horiz-adv-x="1265" d="M182 532v635h119v-635q0 -254 81 -340t284 -86q182 0 267 90.5t85 335.5v635h119v-635q0 -172 -37 -284.5t-108.5 -166.5t-146.5 -72.5t-179 -18.5q-92 0 -157 9t-131.5 41t-106.5 89t-64.5 158.5t-24.5 244.5zM608 1290l230 273h145l-272 -273h-103z" />
<glyph horiz-adv-x="1265" d="M182 532v635h119v-635q0 -254 81 -340t284 -86q182 0 267 90.5t85 335.5v635h119v-635q0 -172 -37 -284.5t-108.5 -166.5t-146.5 -72.5t-179 -18.5q-92 0 -157 9t-131.5 41t-106.5 89t-64.5 158.5t-24.5 244.5zM365 1290l249 266h111l223 -266h-108l-174 176l-191 -176 h-110zM725 1556z" />
<glyph horiz-adv-x="1265" d="M182 532v635h119v-635q0 -254 81 -340t284 -86q182 0 267 90.5t85 335.5v635h119v-635q0 -172 -37 -284.5t-108.5 -166.5t-146.5 -72.5t-179 -18.5q-92 0 -157 9t-131.5 41t-106.5 89t-64.5 158.5t-24.5 244.5zM313 1372q0 33 23.5 56.5t58.5 23.5t57.5 -23.5t22.5 -56.5 q0 -35 -23.5 -58.5t-56.5 -23.5q-35 0 -58.5 24.5t-23.5 57.5zM836 1372q0 33 23.5 56.5t58.5 23.5q33 0 56 -23.5t23 -56.5q0 -35 -23.5 -58.5t-56 -23.5t-57 24.5t-24.5 57.5z" />
<glyph horiz-adv-x="1265" d="M182 532v635h119v-635q0 -254 81 -340t284 -86q182 0 267 90.5t85 335.5v635h119v-635q0 -172 -37 -284.5t-108.5 -166.5t-146.5 -72.5t-179 -18.5q-92 0 -157 9t-131.5 41t-106.5 89t-64.5 158.5t-24.5 244.5zM311 1368q53 45 80 65.5t71 41t83 20.5q51 -2 128 -50 t103 -48q16 0 34.5 4t43.5 15t37 18.5t42 25t36 21.5l35 -62q-8 -6 -34 -27.5t-37 -30.5t-36 -26.5t-41 -24.5t-38.5 -12.5t-43.5 -5.5q-57 2 -129 49.5t-104 47.5q-39 0 -69 -11.5t-70 -36t-60 -34.5z" />
<glyph horiz-adv-x="1265" d="M182 532v635h119v-635q0 -254 81 -340t284 -86q182 0 267 90.5t85 335.5v635h119v-635q0 -172 -37 -284.5t-108.5 -166.5t-146.5 -72.5t-179 -18.5q-92 0 -157 9t-131.5 41t-106.5 89t-64.5 158.5t-24.5 244.5zM371 1290v96h571v-96h-571z" />
<glyph horiz-adv-x="2062" d="M84 766q0 -143 65.5 -196.5t217.5 -53.5h307q82 0 115.5 -30.5t33.5 -100.5v-143q0 -63 -35.5 -104.5t-113.5 -41.5l-545 8v-84q51 -16 246.5 -28t298.5 -12q266 0 266 262v143q0 117 -67.5 181.5t-198.5 64.5h-307q-41 0 -56.5 1t-43 7t-38 19.5t-19.5 40t-9 67.5v137 q0 156 166 156l518 -10v88q-274 37 -518 37q-152 0 -217.5 -69t-65.5 -202v-137zM1106 766v137q0 133 65.5 202t217.5 69q244 0 518 -37v-88q-317 10 -518 10q-90 0 -128 -39t-38 -117v-137q0 -51 10 -80t37.5 -40t48 -13t70.5 -2h307q131 0 198.5 -64.5t67.5 -181.5v-143 q0 -262 -266 -262q-102 0 -298 12t-247 28v84q348 -8 545 -8q78 0 113.5 41t35.5 105v143q0 70 -33.5 100.5t-115.5 30.5h-307q-152 0 -217.5 53.5t-65.5 196.5z" />
<glyph horiz-adv-x="1200" d="M80 0l483 1167h117l446 -1167h-127l-131 332h-520l-141 -332h-127zM262 1563h148l227 -273h-102zM395 449h432l-206 555z" />
<glyph horiz-adv-x="1073" d="M125 604q0 123 17.5 218.5t60.5 181.5t129 133t211 47q74 0 228.5 -15.5t227.5 -31.5v-90q-25 4 -192.5 12t-263.5 8q-162 0 -231.5 -115.5t-69.5 -347.5q0 -238 65.5 -365.5t235.5 -129.5l456 20v-86q-270 -51 -456 -51q-106 0 -185 38t-123.5 95t-70 143t-32.5 163 t-7 173zM385 -301l92 22q57 16 80 61.5t21 139.5h102q0 -158 -42 -218t-165 -60h-88v55z" />
<glyph horiz-adv-x="1228" d="M57 553v82h136v536h121q89 0 216 -1t136 -1q123 0 213 -55t135 -147.5t65.5 -187.5t20.5 -199q0 -119 -19.5 -214.5t-48 -154.5t-74 -102t-82 -63.5t-86 -32t-73 -12.5t-58.5 -1h-466v553h-136zM315 119h324q184 0 259 123t75 338q0 244 -90 356.5t-236 112.5h-332v-414 h222v-82h-222v-434z" />
<glyph horiz-adv-x="1064" d="M184 170v815q0 90 56.5 137t156.5 47l574 -22v-92h-570q-61 0 -80.5 -21.5t-19.5 -68.5v-322l606 -14v-92l-606 -13v-323q0 -88 90 -88h580v-90l-615 -27q-78 0 -125 47t-47 127zM307 1567h146l229 -273h-102z" />
<glyph horiz-adv-x="1064" d="M184 170v815q0 90 56.5 137t156.5 47l574 -22v-92h-570q-61 0 -80.5 -21.5t-19.5 -68.5v-322l606 -14v-92l-606 -13v-323q0 -88 90 -88h580v-90l-615 -27q-78 0 -125 47t-47 127zM313 1294l250 267h111l223 -267h-109l-174 176l-192 -176h-109zM674 1561z" />
<glyph horiz-adv-x="428" d="M-68 1563h148l229 -273h-104zM184 0v1167h117v-1167h-117z" />
<glyph horiz-adv-x="428" d="M-92 1372q0 33 23.5 56.5t56 23.5t56.5 -23.5t24 -56.5q0 -35 -24 -58.5t-56.5 -23.5t-56 23.5t-23.5 58.5zM184 0v1167h117v-1167h-117zM428 1372q0 33 23.5 56.5t58.5 23.5t57.5 -23.5t22.5 -56.5q0 -35 -23.5 -58.5t-56.5 -23.5q-35 0 -58.5 24.5t-23.5 57.5z" />
<glyph horiz-adv-x="1245" d="M184 0v1169h111l709 -954v954h114v-1169h-108l-709 961v-961h-117zM291 1370q53 45 79.5 65.5t70.5 41t83 20.5q51 -2 128 -50t104 -48q16 0 34.5 4t43 15.5t37 18.5t42 24.5t35.5 21.5l35 -62q-8 -6 -33.5 -27.5t-37 -30.5t-36 -26.5t-41 -24.5t-39 -12.5t-42.5 -5.5 q-55 2 -128 49.5t-106 47.5q-39 0 -68.5 -11.5t-69.5 -36t-60 -34.5z" />
<glyph horiz-adv-x="1243" d="M125 573q0 186 28.5 305t95 184.5t153.5 90.5t223 25q111 0 182.5 -11.5t138 -46.5t102 -99.5t57 -171t21.5 -261.5q0 -186 -28.5 -305t-95 -182.5t-153.5 -87t-224 -23.5q-135 0 -219 20.5t-153 80t-98.5 177t-29.5 305.5zM242 584q0 -158 19.5 -253t70.5 -144.5 t115.5 -65t177.5 -15.5q104 0 166.5 14.5t118 62.5t79 146.5t21.5 258.5q-2 166 -21.5 261t-73 142t-114 58.5t-176.5 11.5q-84 0 -132.5 -6t-102.5 -32t-81.5 -76t-47 -140t-19.5 -223zM322 1573h147l229 -273h-104z" />
<glyph horiz-adv-x="1243" d="M125 573q0 186 28.5 305t95 184.5t153.5 90.5t223 25q111 0 182.5 -11.5t138 -46.5t102 -99.5t57 -171t21.5 -261.5q0 -186 -28.5 -305t-95 -182.5t-153.5 -87t-224 -23.5q-135 0 -219 20.5t-153 80t-98.5 177t-29.5 305.5zM242 584q0 -158 19.5 -253t70.5 -144.5 t115.5 -65t177.5 -15.5q104 0 166.5 14.5t118 62.5t79 146.5t21.5 258.5q-2 166 -21.5 261t-73 142t-114 58.5t-176.5 11.5q-84 0 -132.5 -6t-102.5 -32t-81.5 -76t-47 -140t-19.5 -223zM594 1300l229 273h146l-273 -273h-102z" />
<glyph horiz-adv-x="1265" d="M182 532v635h119v-635q0 -254 81 -340t284 -86q182 0 267 90.5t85 335.5v635h119v-635q0 -172 -37 -284.5t-108.5 -166.5t-146.5 -72.5t-179 -18.5q-92 0 -157 9t-131.5 41t-106.5 89t-64.5 158.5t-24.5 244.5zM350 1563h146l229 -273h-102z" />
<glyph horiz-adv-x="1155" d="M80 1167h129l375 -655l368 655h129l-440 -778v-391h-117v391zM510 1290l229 273h146l-273 -273h-102z" />
<glyph d="M172 0v1165h115v-211h383q45 0 90 -13t95 -47t82 -109.5t32 -182.5q0 -125 -27 -206t-77 -115.5t-93 -46t-102 -11.5q-279 0 -383 29v-252h-115zM287 346h383q96 0 139 54.5t43 203.5q0 223 -182 234h-383v-492z" />
<glyph horiz-adv-x="475" d="M152 49v133q0 57 51 58h92q49 0 49 -58v-219q0 -146 -131 -156q-51 2 -51 3v55q63 -2 63 65v68h-22q-51 0 -51 51z" />
<glyph horiz-adv-x="763" d="M137 807v219q0 147 132 156q51 -3 50 -2v-58q-63 2 -63 -63v-68h23q23 0 38 -13t15 -38v-133q0 -55 -53 -55h-91q-51 0 -51 55zM434 807v219q0 86 47 124t93 34l47 -4v-58q-68 2 -68 -63v-68h27q49 0 49 -51v-133q0 -55 -49 -55h-95q-51 0 -51 55z" />
<glyph horiz-adv-x="763" d="M137 993v133q0 55 51 56h93q51 0 51 -56v-221q0 -145 -131 -154q-53 3 -54 3v55q66 -2 66 63v70h-25q-51 0 -51 51zM434 993v133q0 55 53 56h93q49 0 49 -56v-221q0 -84 -46 -122t-91 -33l-46 4v55q63 -2 64 63v70h-23q-53 0 -53 51z" />
<glyph horiz-adv-x="763" d="M137 49v135q0 55 51 56h93q51 0 51 -56v-221q0 -53 -19.5 -89t-46 -48t-53.5 -17.5t-46 -2.5l-20 4v57q66 -2 66 63v68h-25q-51 0 -51 51zM434 49v135q0 55 53 56h93q49 0 49 -56v-221q0 -146 -132 -156q-51 2 -51 3v57q63 -2 64 63v68h-23q-23 0 -38 13t-15 38z" />
<glyph horiz-adv-x="542" d="M188 1008v120q0 39 39 39h82q41 0 41 -39v-120q0 -43 -41 -43h-82q-39 0 -39 43zM203 0l12 825h111l12 -825h-135z" />
<glyph horiz-adv-x="868" d="M102 809q0 219 70 301t264 82q193 0 261.5 -81t68.5 -302q0 -201 -69.5 -282t-260 -81t-262.5 81t-72 282zM125 297v90h616v-90h-616zM199 809q0 -168 53 -217t184 -49q133 0 182.5 47t51.5 219q0 98 -11.5 156.5t-44 86t-70.5 36t-108 8.5q-94 0 -140 -17.5t-71.5 -79 t-25.5 -190.5z" />
<glyph horiz-adv-x="851" d="M137 301v90h649v-90h-649zM145 461l277 708h117l243 -708h-92l-69 203h-302l-75 -203h-99zM352 748h238l-109 329z" />
<glyph horiz-adv-x="1050" d="M37 420v69l139 13v145l-139 12v66l139 14q0 442 395 443q137 0 398 -47v-93q-266 23 -398 23q-90 0 -149.5 -27.5t-85 -81t-33.5 -101.5t-8 -116l379 -12v-70l-379 -10v-145l379 -10v-72q-25 0 -64 -1t-123 -3t-139 -4t-53 -4q0 -150 74.5 -223.5t201.5 -73.5l404 28v-92 q-201 -57 -404 -57q-47 0 -95 10t-103.5 39t-97.5 74t-70.5 120.5t-28.5 174.5z" />
<glyph horiz-adv-x="1032" d="M184 176v991h117v-966q-2 -49 22.5 -66.5t75.5 -17.5h559v-117h-598q-82 0 -129 46t-47 130zM457 1114v137h116v-137l-16 -274h-80z" />
<glyph horiz-adv-x="1112" d="M125 766v127q0 281 283 281q258 0 532 -37v-88q-332 10 -532 10q-166 0 -166 -166v-127q0 -51 10 -80t38.5 -40t48 -13t69.5 -2h321q131 0 198.5 -64.5t67.5 -181.5v-143q0 -262 -266 -262q-104 0 -306 12t-253 28v84q362 -8 559 -8q74 0 112 52.5t38 93.5v143 q0 68 -35 99.5t-115 31.5h-321q-152 0 -217.5 53.5t-65.5 196.5zM489 1309l230 272h147l-272 -272h-105z" />
<glyph horiz-adv-x="1112" d="M125 766v127q0 281 283 281q258 0 532 -37v-88q-332 10 -532 10q-166 0 -166 -166v-127q0 -51 10 -80t38.5 -40t48 -13t69.5 -2h321q131 0 198.5 -64.5t67.5 -181.5v-143q0 -262 -266 -262q-104 0 -306 12t-253 28v84q362 -8 559 -8q74 0 112 52.5t38 93.5v143 q0 68 -35 99.5t-115 31.5h-321q-152 0 -217.5 53.5t-65.5 196.5zM313 -307l95 24q57 16 79.5 61.5t20.5 139.5h102q0 -160 -42 -219t-165 -59h-90v53z" />
<glyph horiz-adv-x="1196" d="M190 1051v116h920v-116h-401v-1051h-117v1051h-402zM360 1583h109l188 -176l181 176h108l-233 -266h-111zM713 1317z" />
<glyph horiz-adv-x="1019" d="M80 0v117l713 934h-713v116h866v-116l-706 -934h706v-117h-866zM465 1290l229 273h146l-273 -273h-102z" />
<glyph horiz-adv-x="1019" d="M80 0v117l713 934h-713v116h866v-116l-706 -934h706v-117h-866zM434 1329v117q0 43 41 43h76q39 0 39 -43v-117q0 -39 -39 -39h-76q-16 0 -28.5 11.5t-12.5 27.5z" />
<glyph horiz-adv-x="1099" d="M137 0v1169h541q53 0 102 -14t99.5 -48t81 -103.5t30.5 -165.5q0 -145 -64.5 -241.5t-181.5 -104.5l283 -492h-135l-268 479q-369 25 -371 29v-508h-117zM254 596h430q74 0 132 52t58 188q0 70 -22.5 116.5t-58 66t-62 27t-53.5 7.5h-424v-457zM498 1292l229 273h147 l-272 -273h-104z" />
<glyph horiz-adv-x="1200" d="M80 0l483 1167h117l446 -1167h-127l-131 332h-520l-141 -332h-127zM387 1524h74q0 -68 48 -115t112 -45q70 0 116.5 44t46.5 116h74q0 -109 -72.5 -171.5t-164.5 -62.5q-90 0 -162 65t-72 169zM395 449h432l-206 555z" />
<glyph horiz-adv-x="1032" d="M184 176v991h117v-966q-2 -49 22.5 -66.5t75.5 -17.5h559v-117h-598q-82 0 -129 46t-47 130zM203 1290l229 273h146l-273 -273h-102z" />
<glyph horiz-adv-x="1073" d="M125 604q0 123 17.5 218.5t60.5 181.5t129 133t211 47q74 0 228.5 -15.5t227.5 -31.5v-90q-25 4 -192.5 12t-263.5 8q-162 0 -231.5 -115.5t-69.5 -347.5q0 -238 65.5 -365.5t235.5 -129.5l456 20v-86q-270 -51 -456 -51q-106 0 -185 38t-123.5 95t-70 143t-32.5 163 t-7 173zM524 1317l230 272h145l-272 -272h-103z" />
<glyph horiz-adv-x="1064" d="M184 170v815q0 90 56.5 137t156.5 47l574 -22v-92h-570q-61 0 -80.5 -21.5t-19.5 -68.5v-322l606 -14v-92l-606 -13v-323q0 -88 90 -88h580v-90l-615 -27q-78 0 -125 47t-47 127zM299 1559h109l186 -177l180 177h109l-232 -267h-112zM651 1292z" />
<glyph horiz-adv-x="1234" d="M262 0v1171h492q129 -2 221 -57t139 -147.5t67.5 -187.5t20.5 -199q0 -119 -19.5 -214.5t-47 -154.5t-72.5 -102t-81 -63.5t-87 -32t-76.5 -12.5t-64.5 -1h-492zM379 117h375q184 0 257.5 125t73.5 338q0 242 -93 358.5t-238 116.5h-375v-938zM403 1561h109l186 -177 l181 177h108l-233 -267h-111zM754 1294z" />
<glyph horiz-adv-x="1245" d="M184 0v1169h111l709 -954v954h114v-1169h-108l-709 961v-961h-117zM623 1292l227 273h147l-272 -273h-102z" />
<glyph horiz-adv-x="1245" d="M184 0v1169h111l709 -954v954h114v-1169h-108l-709 961v-961h-117zM362 1559h109l188 -177l181 177h108l-233 -267h-111zM715 1292z" />
<glyph horiz-adv-x="1243" d="M125 573q0 186 28.5 305t95 184.5t153.5 90.5t223 25q111 0 182.5 -11.5t138 -46.5t102 -99.5t57 -171t21.5 -261.5q0 -186 -28.5 -305t-95 -182.5t-153.5 -87t-224 -23.5q-135 0 -219 20.5t-153 80t-98.5 177t-29.5 305.5zM242 584q0 -158 19.5 -253t70.5 -144.5 t115.5 -65t177.5 -15.5q104 0 166.5 14.5t118 62.5t79 146.5t21.5 258.5q-2 166 -21.5 261t-73 142t-114 58.5t-176.5 11.5q-84 0 -132.5 -6t-102.5 -32t-81.5 -76t-47 -140t-19.5 -223zM436 1300l228 273h147l-272 -273h-103zM715 1300l229 273h146l-273 -273h-102z" />
<glyph horiz-adv-x="1099" d="M137 0v1169h541q53 0 102 -14t99.5 -48t81 -103.5t30.5 -165.5q0 -145 -64.5 -241.5t-181.5 -104.5l283 -492h-135l-268 479q-369 25 -371 29v-508h-117zM252 1559h108l187 -177l180 177h109l-232 -267h-112zM254 596h430q74 0 132 52t58 188q0 70 -22.5 116.5t-58 66 t-62 27t-53.5 7.5h-424v-457zM604 1292z" />
<glyph horiz-adv-x="1265" d="M182 532v635h119v-635q0 -254 81 -340t284 -86q182 0 267 90.5t85 335.5v635h119v-635q0 -172 -37 -284.5t-108.5 -166.5t-146.5 -72.5t-179 -18.5q-92 0 -157 9t-131.5 41t-106.5 89t-64.5 158.5t-24.5 244.5zM453 1458q0 88 61 149.5t147.5 61.5t146.5 -61.5t60 -149.5 t-60 -148.5t-146.5 -60.5t-147.5 60.5t-61 148.5zM526 1458q0 -55 40 -94t95.5 -39t94.5 39t39 94t-39 95t-94.5 40t-95.5 -40t-40 -95z" />
<glyph horiz-adv-x="1265" d="M182 532v635h119v-635q0 -254 81 -340t284 -86q182 0 267 90.5t85 335.5v635h119v-635q0 -172 -37 -284.5t-108.5 -166.5t-146.5 -72.5t-179 -18.5q-92 0 -157 9t-131.5 41t-106.5 89t-64.5 158.5t-24.5 244.5zM463 1290l229 273h146l-273 -273h-102zM741 1290l230 273 h147l-272 -273h-105z" />
<glyph horiz-adv-x="1073" d="M80 1051v116h919v-116h-401v-1051h-117v1051h-401zM274 -319l95 22q55 16 77.5 61.5t22.5 139.5h102q0 -158 -42 -218.5t-164 -60.5h-91v56z" />
<glyph horiz-adv-x="1019" d="M61 494v102l129 53v518h117v-471l242 99l-2 -101l-240 -98v-395q0 -49 24.5 -66.5t76.5 -17.5h559v-117h-600q-82 0 -129.5 46t-47.5 130v373z" />
<glyph horiz-adv-x="1021" d="M129 311v99q0 158 120 228.5t292 45.5v143h121v-245h-191q-92 -4 -158.5 -43t-66.5 -129v-99q0 -104 63.5 -151t200.5 -47h434v-90q-279 -33 -442 -29q-188 0 -280.5 83.5t-92.5 233.5zM520 1008v120q0 39 41 39h80q41 0 41 -39v-120q0 -43 -41 -43h-80q-41 0 -41 43z " />
<glyph horiz-adv-x="1839" d="M92 573q0 186 29 305t95.5 184.5t153.5 90.5t222 25q158 0 250 -29t145 -111q31 131 203 131l565 -22v-92h-561q-61 0 -80.5 -21.5t-19.5 -68.5v-322l598 -14v-92l-598 -13v-323q0 -88 90 -88h571v-90l-606 -27q-70 0 -112 38t-52 101q-94 -145 -393 -145 q-135 0 -219 20.5t-152.5 80t-98.5 177t-30 305.5zM209 584q0 -158 19.5 -253t70.5 -144.5t115.5 -65t177.5 -15.5q102 0 164.5 14.5t118 62.5t79 146.5t23.5 258.5q0 166 -20.5 262t-75 142t-114.5 57.5t-175 11.5q-84 0 -132 -6t-102.5 -32t-83 -76t-47 -140t-18.5 -223z " />
<glyph horiz-adv-x="1155" d="M80 1167h129l375 -655l368 655h129l-440 -778v-391h-117v391zM240 1372q0 33 23.5 56.5t58.5 23.5q33 0 55 -23.5t22 -56.5q0 -35 -22.5 -58.5t-54.5 -23.5q-35 0 -58.5 24.5t-23.5 57.5zM762 1372q0 33 23.5 56.5t58.5 23.5q33 0 55.5 -23.5t22.5 -56.5 q0 -35 -22.5 -58.5t-55.5 -23.5t-57.5 24.5t-24.5 57.5z" />
<glyph horiz-adv-x="1079" d="M115 0v74l114 32v422h-114v66l116 24v183q0 369 402 368l336 -24v-88h-334q-162 0 -225.5 -64.5t-63.5 -195.5v-172l496 -27v-74h-496v-409h621v-115h-852z" />
<glyph horiz-adv-x="1042" d="M45 1169h133l344 -551l338 551h137l-397 -641h318v-90h-338v-92h338v-90h-338v-256h-117v256h-320v90h320v92h-320v90h297z" />
<glyph horiz-adv-x="2392" d="M66 784v129q0 135 57 195.5t207 60.5h94q145 0 202.5 -60t57.5 -196v-129q0 -135 -57.5 -195.5t-206.5 -60.5h-94q-145 0 -202.5 60.5t-57.5 195.5zM164 784q0 -92 36 -124.5t126 -32.5h94q98 0 132 32.5t34 124.5v129q0 90 -35 124t-127 34h-94q-98 0 -132 -32.5 t-34 -125.5v-129zM410 0l702 1167h111l-703 -1167h-110zM956 256v127q0 135 57.5 195.5t207.5 60.5h92q145 0 202.5 -60.5t57.5 -195.5v-127q0 -135 -57.5 -195.5t-206.5 -60.5h-92q-145 0 -203 60.5t-58 195.5zM1055 256q0 -92 34.5 -125t127.5 -33h92q98 0 132 33t34 125 v127q0 90 -35 124t-127 34h-92q-100 0 -133 -32t-33 -126v-127zM1686 256v127q0 135 57 195.5t207 60.5h92q145 0 202.5 -60.5t57.5 -195.5v-127q0 -135 -57.5 -195.5t-206.5 -60.5h-92q-145 0 -202.5 60.5t-57.5 195.5zM1784 256q0 -92 34.5 -125t127.5 -33h92q98 0 132 33 t34 125v127q0 90 -35 124t-127 34h-92q-98 0 -132 -33t-34 -125v-127z" />
<glyph horiz-adv-x="813" d="M115 1087l250 267h110l223 -267h-108l-174 177l-191 -177h-110zM475 1354z" />
<glyph horiz-adv-x="919" d="M115 1171q51 43 79.5 64.5t71.5 42t82 20.5q51 -2 129 -50t105 -48q51 -2 192 86l33 -61q-6 -4 -25.5 -21.5t-28 -23.5t-26.5 -20.5t-28.5 -22t-28 -17.5t-30.5 -14t-29.5 -7t-32.5 -3q-55 2 -127 49t-105 47q-39 0 -68.5 -11.5t-70.5 -36t-62 -34.5z" />
<glyph horiz-adv-x="643" d="M115 1294q0 88 60.5 149.5t146.5 61.5t146 -61.5t60 -149.5t-60 -149.5t-146 -61.5t-146.5 61.5t-60.5 149.5zM188 1294.5q0 -55.5 39 -94.5t95 -39q57 0 95 39t38 94.5t-39 95.5t-94.5 40t-94.5 -40t-39 -95.5z" />
<glyph horiz-adv-x="1230" d="M84 831v76h100v260h117v-260h684v260h117v-260h100v-76h-100v-833h-117v508h-684v-508h-117v833h-100zM301 623h684v208h-684v-208z" />
<glyph horiz-adv-x="1230" d="M184 -2v1169h117v-544h684v544h117v-1169h-117v506h-684v-506h-117zM344 1290l250 266h108l226 -266h-109l-174 176l-192 -176h-109zM702 1556z" />
<glyph horiz-adv-x="1179" d="M125 586q0 305 93 452.5t343 147.5q72 0 228.5 -16.5t244.5 -34.5v-95q-297 29 -473 29t-247.5 -101.5t-71.5 -377.5q0 -199 77.5 -344.5t241.5 -145.5q111 0 225.5 39t159.5 74v307h-379v76q213 41 359 41q63 0 137 -6v-631h-84l-29 96q-80 -51 -187.5 -80.5 t-201.5 -29.5q-86 0 -156.5 28.5t-115.5 70.5t-78 104.5t-48.5 115.5t-24.5 116.5t-11 97.5t-2 67zM397 1542h74q0 -68 48 -115t112 -45q70 0 117 44t47 116h73q0 -109 -72.5 -171t-164.5 -62q-90 0 -162 64.5t-72 168.5z" />
<glyph horiz-adv-x="679" d="M80 43l8 82q84 -16 136 -19.5t105.5 13t79 71t27.5 150.5v827h117v-827q0 -229 -115 -303q-90 -49 -184 -44t-174 50zM178 1290l250 266h111l223 -266h-109l-174 176l-190 -176h-111zM539 1556z" />
<glyph horiz-adv-x="1073" d="M125 604q0 123 17.5 218.5t60.5 181.5t129 133t211 47q74 0 228.5 -15.5t227.5 -31.5v-90q-25 4 -192.5 12t-263.5 8q-162 0 -231.5 -115.5t-69.5 -347.5q0 -238 65.5 -365.5t235.5 -129.5l456 20v-86q-270 -51 -456 -51q-106 0 -185 38t-123.5 95t-70 143t-32.5 163 t-7 173zM547 1356v117q0 43 41 43h76q39 0 38 -43v-117q0 -39 -38 -39h-76q-41 0 -41 39z" />
<glyph horiz-adv-x="1073" d="M125 604q0 123 17.5 218.5t60.5 181.5t129 133t211 47q74 0 228.5 -15.5t227.5 -31.5v-90q-25 4 -192.5 12t-263.5 8q-162 0 -231.5 -115.5t-69.5 -347.5q0 -238 65.5 -365.5t235.5 -129.5l456 20v-86q-270 -51 -456 -51q-106 0 -185 38t-123.5 95t-70 143t-32.5 163 t-7 173zM338 1317l250 266h110l226 -266h-109l-174 176l-192 -176h-111zM698 1583z" />
<glyph horiz-adv-x="1179" d="M125 586q0 305 93 452.5t343 147.5q72 0 228.5 -16.5t244.5 -34.5v-95q-297 29 -473 29t-247.5 -101.5t-71.5 -377.5q0 -199 77.5 -344.5t241.5 -145.5q111 0 225.5 39t159.5 74v307h-379v76q213 41 359 41q63 0 137 -6v-631h-84l-29 96q-80 -51 -187.5 -80.5 t-201.5 -29.5q-86 0 -156.5 28.5t-115.5 70.5t-78 104.5t-48.5 115.5t-24.5 116.5t-11 97.5t-2 67zM563 1348v116q0 43 41 43h76q39 0 39 -43v-116q0 -39 -39 -39h-76q-16 0 -28.5 11.5t-12.5 27.5z" />
<glyph horiz-adv-x="1179" d="M125 586q0 305 93 452.5t343 147.5q72 0 228.5 -16.5t244.5 -34.5v-95q-297 29 -473 29t-247.5 -101.5t-71.5 -377.5q0 -199 77.5 -344.5t241.5 -145.5q111 0 225.5 39t159.5 74v307h-379v76q213 41 359 41q63 0 137 -6v-631h-84l-29 96q-80 -51 -187.5 -80.5 t-201.5 -29.5q-86 0 -156.5 28.5t-115.5 70.5t-78 104.5t-48.5 115.5t-24.5 116.5t-11 97.5t-2 67zM352 1307l250 266h111l225 -266h-109l-174 176l-192 -176h-111zM713 1573z" />
<glyph horiz-adv-x="1265" d="M182 532v635h119v-635q0 -254 81 -340t284 -86q182 0 267 90.5t85 335.5v635h119v-635q0 -172 -37 -284.5t-108.5 -166.5t-146.5 -72.5t-179 -18.5q-92 0 -157 9t-131.5 41t-106.5 89t-64.5 158.5t-24.5 244.5zM426 1524h72q0 -68 49 -115t112 -45q70 0 117 44t47 116h74 q0 -109 -72.5 -171.5t-165.5 -62.5q-90 0 -161.5 65t-71.5 169z" />
<glyph horiz-adv-x="1112" d="M125 766v127q0 281 283 281q258 0 532 -37v-88q-332 10 -532 10q-166 0 -166 -166v-127q0 -51 10 -80t38.5 -40t48 -13t69.5 -2h321q131 0 198.5 -64.5t67.5 -181.5v-143q0 -262 -266 -262q-104 0 -306 12t-253 28v84q362 -8 559 -8q74 0 112 52.5t38 93.5v143 q0 68 -35 99.5t-115 31.5h-321q-152 0 -217.5 53.5t-65.5 196.5zM236 1305l251 266h109l225 -266h-108l-174 176l-193 -176h-110zM596 1571z" />
<glyph horiz-adv-x="405" d="M143 1370v117q0 43 41 43h76q39 0 39 -43v-117q0 -39 -39 -39h-76q-41 0 -41 39zM160 0v1167h116v-1167h-116z" />
<glyph horiz-adv-x="550" d="M205 582v84q0 43 39 43h82q41 0 41 -43v-84q0 -41 -41 -41h-82q-39 0 -39 41z" />
<glyph horiz-adv-x="645" d="M195 596v129q0 72 67 72h117q72 0 72 -72v-129q0 -66 -72 -66h-117q-67 0 -67 66z" />
<glyph horiz-adv-x="495" d="M152 807v219q0 86 46 124t92 34l46 -4v-58q-66 2 -66 -63v-68h25q49 0 49 -51v-133q0 -55 -49 -55h-92q-51 0 -51 55z" />
<glyph horiz-adv-x="495" d="M152 993v133q0 55 51 56h92q49 0 49 -56v-221q0 -84 -45 -122t-91 -33l-46 4v55q63 -2 63 63v70h-22q-51 0 -51 51z" />
<glyph horiz-adv-x="1120" d="M184 0v1169h518q90 0 156 -27.5t98.5 -75.5t47 -98t14.5 -108q0 -188 -154 -264q55 -18 107.5 -88t52.5 -180q0 -328 -322 -328h-518zM301 119h401q41 0 71 6t63.5 25.5t52 64.5t18.5 113q0 98 -53 157.5t-152 59.5q-354 -4 -401 0v-426zM301 662h401q100 0 149.5 47 t49.5 151q0 193 -199 193h-401v-391zM502 1331v117q0 43 41 43h73q41 0 41 -43v-117q0 -39 -41 -39h-73q-41 0 -41 39z" />
<glyph horiz-adv-x="1241" d="M184 0v1171h492q129 -2 221 -57t139 -147.5t67.5 -187.5t20.5 -199q0 -119 -19.5 -214.5t-47 -154.5t-72.5 -102t-81 -63.5t-87 -32t-76.5 -12.5t-64.5 -1h-492zM301 117h375q332 0 332 463q0 242 -93.5 358.5t-238.5 116.5h-375v-938zM510 1333v117q0 43 41 43h76 q39 0 39 -43v-117q0 -39 -39 -39h-76q-41 0 -41 39z" />
<glyph horiz-adv-x="1064" d="M184 0v985q0 90 56.5 137t156.5 47l574 -22v-92h-570q-61 0 -79.5 -22.5t-20.5 -67.5v-324l606 -16v-93l-606 -12v-520h-117zM514 1333v117q0 41 39 41h76q39 0 39 -41v-117q0 -39 -39 -39h-76q-39 0 -39 39z" />
<glyph horiz-adv-x="1505" d="M125 0l125 1169h137l375 -970l377 970h131l119 -1169h-113l-96 950l-367 -950h-96l-371 958l-110 -958h-111zM702 1331v117q0 43 41 43h76q39 0 39 -43v-117q0 -39 -39 -39h-76q-41 0 -41 39z" />
<glyph horiz-adv-x="1724" d="M80 1167h129l371 -993l354 993h127l-133 -381l241 -612l361 993h121l-424 -1167h-117l-244 627l-223 -627h-121zM549 1565h147l230 -273h-105z" />
<glyph horiz-adv-x="1085" d="M137 0v1165h541q125 0 218 -79.5t93 -245.5q0 -86 -13 -150.5t-41 -103.5t-54.5 -62.5t-68.5 -34t-68.5 -12.5t-69.5 -2l-418 23v-498h-119zM256 590h422q94 0 144 45t50 192q2 111 -54 166.5t-140 55.5h-422v-459zM481 1327v117q0 43 41 43h76q39 0 39 -43v-117 q0 -39 -39 -39h-76q-16 0 -28.5 11.5t-12.5 27.5z" />
<glyph horiz-adv-x="1724" d="M80 1167h129l371 -993l354 993h127l-133 -381l241 -612l361 993h121l-424 -1167h-117l-244 627l-223 -627h-121zM821 1292l230 273h147l-272 -273h-105z" />
<glyph horiz-adv-x="1155" d="M80 1167h129l375 -655l368 655h129l-440 -778v-391h-117v391zM264 1563h148l227 -273h-102z" />
<glyph horiz-adv-x="1724" d="M80 1167h129l371 -993l354 993h127l-133 -381l241 -612l361 993h121l-424 -1167h-117l-244 627l-223 -627h-121zM530 1372q0 33 24 56.5t58.5 23.5t57 -23.5t22.5 -56.5t-23.5 -56.5t-56 -23.5t-57.5 23.5t-25 56.5zM1053 1372q0 33 23.5 56.5t58.5 23.5q33 0 56 -23.5 t23 -56.5t-23.5 -56.5t-56 -23.5t-57 23.5t-24.5 56.5z" />
<glyph horiz-adv-x="1112" d="M125 766v127q0 281 283 281q258 0 532 -37v-88q-332 10 -532 10q-166 0 -166 -166v-127q0 -51 10 -80t38.5 -40t48 -13t69.5 -2h321q131 0 198.5 -64.5t67.5 -181.5v-143q0 -262 -266 -262q-104 0 -306 12t-253 28v84q362 -8 559 -8q74 0 112 52.5t38 93.5v143 q0 68 -35 99.5t-115 31.5h-321q-152 0 -217.5 53.5t-65.5 196.5zM469 1335v117q0 43 41 43h76q39 0 39 -43v-117q0 -39 -39 -39h-76q-41 0 -41 39z" />
<glyph horiz-adv-x="1724" d="M80 1167h129l371 -993l354 993h127l-133 -381l241 -612l361 993h121l-424 -1167h-117l-244 627l-223 -627h-121zM582 1292l249 267h111l223 -267h-108l-174 176l-191 -176h-110zM942 1559z" />
<glyph horiz-adv-x="1073" d="M80 1051v116h919v-116h-401v-1051h-117v1051h-401zM461 1329v117q0 43 41 43h76q39 0 38 -43v-117q0 -39 -38 -39h-76q-41 0 -41 39z" />
<glyph horiz-adv-x="1155" d="M80 1167h129l375 -655l368 655h129l-440 -778v-391h-117v391zM289 1290l250 266h110l223 -266h-108l-174 176l-191 -176h-110zM649 1556z" />
<glyph horiz-adv-x="2058" d="M92 545q0 172 25.5 285.5t77 171t111 78t145.5 20.5q158 0 446 -56v-81q-264 20 -446 20q-61 0 -100.5 -13.5t-74 -57.5t-51 -136t-16.5 -239q0 -244 84 -338.5t237 -94.5q223 0 646 390v1108h116v-1006l549 494l166 -3l-518 -471l522 -616h-143l-463 541l-113 -103v-438 h-116v336q-403 -350 -646 -348q-68 0 -124 11t-116.5 47t-102.5 95.5t-68.5 163t-26.5 240.5z" />
<glyph horiz-adv-x="1398" d="M184 0v1335q0 98 69 146.5t151.5 23t117.5 -111.5l520 -1239q23 -51 67 -43t46 59v1329h117v-1337q0 -88 -67.5 -139.5t-148.5 -32t-118 111.5l-524 1248q-12 31 -40 39t-50.5 -10.5t-22.5 -53.5v-1325h-117z" />
<glyph horiz-adv-x="1644" d="M125 0l82 1335q0 98 70.5 147.5t152.5 24t109 -113.5l252 -840q8 -27 24 -35t31.5 2t21.5 33l228 842q20 66 74.5 96.5t110.5 22t100 -55.5t46 -121l101 -1337h-117l-102 1333q-2 33 -24.5 49.5t-47.5 8t-33 -38.5l-225 -840q-18 -72 -81.5 -99.5t-128 0t-87.5 99.5 l-254 838q-16 49 -57 40.5t-45 -57.5l-86 -1333h-115z" />
<glyph horiz-adv-x="1644" d="M125 0l82 1335q0 98 70.5 147.5t152.5 24t109 -113.5l252 -840q8 -27 24 -35t31.5 2t21.5 33l228 842q20 66 74.5 96.5t110.5 22t100 -55.5t46 -121l101 -1337h-117l-102 1333q-2 33 -24.5 49.5t-47.5 8t-33 -38.5l-225 -840q-18 -72 -81.5 -99.5t-128 0t-87.5 99.5 l-254 838q-16 49 -57 40.5t-45 -57.5l-86 -1333h-115zM766 1677v117q0 41 41 41h76q39 0 39 -41v-117q0 -39 -39 -39h-76q-41 0 -41 39z" />
<glyph horiz-adv-x="1398" d="M184 0v1335q0 98 69 146.5t151.5 23t117.5 -111.5l520 -1239q23 -51 67 -43t46 59v1329h117v-1337q0 -88 -67.5 -139.5t-148.5 -32t-118 111.5l-524 1248q-12 31 -40 39t-50.5 -10.5t-22.5 -53.5v-1325h-117zM403 1716q51 43 80 64.5t72 42t82 20.5q51 -2 129 -50 t102 -48q53 -2 195 86l33 -62q-6 -4 -25.5 -21t-28 -23.5t-27 -20.5t-28.5 -21.5t-27.5 -17.5t-31 -14t-29.5 -7.5t-33 -3.5q-55 2 -126.5 49.5t-104.5 47.5q-39 0 -68.5 -11.5t-70.5 -36t-62 -34.5z" />
<glyph horiz-adv-x="1398" d="M184 0v1335q0 98 69 146.5t151.5 23t117.5 -111.5l520 -1239q23 -51 67 -43t46 59v1329h117v-1337q0 -88 -67.5 -139.5t-148.5 -32t-118 111.5l-524 1248q-12 31 -40 39t-50.5 -10.5t-22.5 -53.5v-1325h-117zM715 1632l229 273h146l-273 -273h-102z" />
<glyph horiz-adv-x="1398" d="M184 0v1335q0 98 69 146.5t151.5 23t117.5 -111.5l520 -1239q23 -51 67 -43t46 59v1329h117v-1337q0 -88 -67.5 -139.5t-148.5 -32t-118 111.5l-524 1248q-12 31 -40 39t-50.5 -10.5t-22.5 -53.5v-1325h-117zM469 1898h109l186 -176l180 176h109l-232 -266h-112z M821 1632z" />
<glyph horiz-adv-x="1398" d="M184 0v1335q0 98 69 146.5t151.5 23t117.5 -111.5l520 -1239q23 -51 67 -43t46 59v1329h117v-1337q0 -88 -67.5 -139.5t-148.5 -32t-118 111.5l-524 1248q-12 31 -40 39t-50.5 -10.5t-22.5 -53.5v-1325h-117zM625 -188q0 41 39 41h67q37 0 37 -41v-179q0 -63 -34 -91.5 t-67 -25.5l-34 3v43q47 0 47 47v61h-16q-39 0 -39 37v105z" />
<glyph horiz-adv-x="987" d="M137 748v522q0 123 61.5 174t178.5 51h239q231 0 232 -225v-522q0 -135 -58.5 -180.5t-173.5 -45.5h-239q-53 0 -90 7.5t-74 29t-56.5 68.5t-19.5 121zM236 756q0 -82 30.5 -110t118.5 -28h223q90 0 118 31t28 107v506q0 74 -31 105.5t-115 31.5h-223q-86 0 -117.5 -33 t-31.5 -104v-506z" />
<glyph horiz-adv-x="542" d="M37 1315v71l262 113h96v-975h-96v869z" />
<glyph horiz-adv-x="808" d="M71 1482l1 5q203 25 374 24q266 0 267 -278q0 -240 -441 -600l-16 -12h455v-97h-633v88q10 8 85 66.5t117 93.5t114.5 102.5t112.5 118.5t72.5 116t32.5 118q0 96 -40 142t-144 46h-356q-7 0 -1 67z" />
<glyph horiz-adv-x="851" d="M68 1407v63q20 6 43.5 11.5t42 8.5t49 5t47 3t54.5 2t52 1h58h55q125 0 186.5 -67.5t61.5 -167.5v-72q0 -70 -40 -119t-85 -63q125 -59 125 -195v-57q0 -119 -58.5 -181.5t-201.5 -62.5q-281 0 -381 33l2 61l362 2q98 0 138 34t40 122v47q0 78 -49 116t-120 40l-291 10 v70l291 12q80 4 127 42t47 103v54q0 145 -168 145h-387z" />
<glyph horiz-adv-x="847" d="M37 842l414 653h110l-373 -592h410v248l43 98h53v-346h121v-76l-121 -24v-279h-96v279h-528z" />
<glyph horiz-adv-x="880" d="M125 539v73h432q135 0 135 144v114q0 33 -3 51.5t-14 43t-40 37t-74 12.5h-231q-53 0 -87 -32t-34 -85h-84l31 598h604v-96h-514l-19 -348q16 23 46 37t72 19t73 6t82 -1t65 -2q223 0 223 -231v-131q0 -121 -60 -177.5t-163 -56.5q-297 0 -440 25z" />
<glyph horiz-adv-x="921" d="M125 1036q2 145 21.5 241.5t57.5 143.5t78 64.5t95 21.5q207 10 420 -20v-76h-416q-156 0 -160 -354q207 23 393 22q125 0 170 -50t45 -140v-150q0 -106 -58 -160.5t-157 -54.5h-219q-61 0 -106 19.5t-85 72t-60.5 157.5t-18.5 263zM221 983q0 -68 7.5 -127t25.5 -114.5 t53 -88t84 -32.5h217q125 0 125 129v133q0 61 -29.5 80.5t-95.5 19.5h-387z" />
<glyph horiz-adv-x="757" d="M35 1403v96h657l31 -53l-373 -922h-108l358 879h-565z" />
<glyph horiz-adv-x="983" d="M152 733v119q0 68 37.5 103.5t86.5 45.5q-66 18 -95 69.5t-29 113.5v82q0 133 62 186t175 53h225q111 0 166.5 -55t55.5 -184v-82q0 -47 -26 -97.5t-89 -60.5q49 -8 82 -62.5t33 -111.5v-119q0 -213 -215 -213h-246q-129 0 -176 57.5t-47 155.5zM248 741 q0 -68 28.5 -95.5t106.5 -27.5h229q127 0 127 123v103q0 61 -34.5 92t-83.5 31h-242q-61 0 -96 -31t-35 -90v-105zM248 1192q0 -66 35.5 -96.5t87.5 -30.5h241q66 0 96.5 36t30.5 91v65q0 88 -33.5 120t-109.5 32h-199q-84 0 -116.5 -31.5t-32.5 -120.5v-65z" />
<glyph horiz-adv-x="921" d="M102 1143v149q0 106 58.5 160.5t156.5 54.5h220q61 0 106 -19.5t85 -71.5t60.5 -157.5t18.5 -263.5q-2 -145 -20.5 -241.5t-56.5 -143.5t-77 -64.5t-96 -21.5q-246 -14 -422 21v76h416q156 0 160 354q-225 -25 -394 -25q-125 0 -170 51.5t-45 141.5zM199 1149 q0 -61 29.5 -80.5t95.5 -19.5h387q0 362 -166 362h-221q-125 0 -125 -129v-133z" />
<glyph horiz-adv-x="987" d="M137 225v523q0 123 61.5 174t178.5 51h239q231 0 232 -225v-523q0 -135 -58.5 -180t-173.5 -45h-239q-53 0 -90 7t-74 28.5t-56.5 68.5t-19.5 121zM236 233q0 -82 30.5 -109.5t118.5 -27.5h223q90 0 118 31t28 106v506q0 74 -31 106t-115 32h-223q-86 0 -117.5 -33 t-31.5 -105v-506z" />
<glyph horiz-adv-x="542" d="M37 793v71l262 113h96v-975h-96v868z" />
<glyph horiz-adv-x="808" d="M71 960l1 5q203 25 374 24q266 0 267 -278q0 -240 -441 -600q-12 -9 -16 -13h455v-96h-633v88q10 8 85 66.5t117 93.5t114.5 102.5t112.5 118.5t72.5 115.5t32.5 118.5q0 96 -40 142t-144 46h-356q-7 0 -1 67z" />
<glyph horiz-adv-x="851" d="M68 885v63q20 6 43.5 11.5t42 8.5t49 5t47 3t54.5 2t52 1h58h55q125 0 186.5 -67.5t61.5 -168.5v-71q0 -70 -40 -119t-85 -64q125 -59 125 -194v-57q0 -119 -58.5 -181.5t-201.5 -62.5q-281 0 -381 33l2 61l362 2q98 0 138 34t40 122v47q0 78 -49 115.5t-120 40.5 l-291 10v69l291 13q80 4 127 42t47 103v53q0 145 -168 146h-387z" />
<glyph horiz-adv-x="847" d="M37 319l414 654h110l-373 -592h410v248l43 98h53v-346h121v-76l-121 -24v-279h-96v279h-528z" />
<glyph horiz-adv-x="880" d="M125 16v74h432q135 0 135 143v115q0 33 -3 51.5t-14 43t-40 37t-74 12.5h-231q-53 0 -87 -32t-34 -85h-84l31 598h604v-96h-514l-19 -349q16 23 46 37.5t72 19.5t73 6t82 -1t65 -2q223 0 223 -232v-131q0 -121 -60 -177t-163 -56q-297 -1 -440 24z" />
<glyph horiz-adv-x="921" d="M125 514q2 145 21.5 241.5t57.5 143.5t78 64.5t95 21.5q236 10 420 -20v-76h-416q-156 0 -160 -354q207 23 393 22q125 0 170 -50t45 -140v-150q0 -106 -58 -160.5t-157 -54.5h-219q-61 0 -106 19.5t-85 71.5t-60.5 157.5t-18.5 263.5zM221 461q0 -68 7.5 -127.5 t25.5 -114.5t53 -88t84 -33h217q125 0 125 129v133q0 61 -29.5 81t-95.5 20h-387z" />
<glyph horiz-adv-x="757" d="M35 881v96h657l31 -53l-373 -922h-108l358 879h-565z" />
<glyph horiz-adv-x="983" d="M152 211v119q0 68 37.5 103.5t86.5 45.5q-66 18 -95 69.5t-29 113.5v81q0 133 62 186.5t175 53.5h225q111 0 166.5 -55.5t55.5 -184.5v-81q0 -47 -26 -97.5t-89 -60.5q49 -8 82 -62.5t33 -111.5v-119q0 -213 -215 -213h-246q-129 0 -176 57.5t-47 155.5zM248 219 q0 -68 28.5 -95.5t106.5 -27.5h229q127 0 127 123v103q0 59 -34.5 90.5t-83.5 31.5h-242q-61 0 -96 -30.5t-35 -89.5v-105zM248 670q0 -66 35.5 -96.5t87.5 -30.5h241q66 0 96.5 35.5t30.5 91.5v65q0 88 -33.5 120t-109.5 32h-199q-84 0 -116.5 -32t-32.5 -120v-65z" />
<glyph horiz-adv-x="921" d="M102 621v149q0 106 58.5 160.5t156.5 54.5h220q61 0 106 -19.5t85 -71.5t60.5 -157.5t18.5 -263.5q-2 -145 -20.5 -241.5t-56.5 -143.5t-77 -64.5t-96 -21.5q-248 -14 -422 21v75h416q156 0 160 355q-225 -25 -394 -25q-125 0 -170 51.5t-45 141.5zM199 627 q0 -61 29.5 -81t95.5 -20h387q0 362 -166 363h-221q-125 0 -125 -129v-133z" />
<glyph horiz-adv-x="2140" d="M92 545q0 172 25.5 285.5t77 171t111 78t145.5 20.5q158 0 446 -56v-81q-264 20 -446 20q-61 0 -100.5 -13.5t-74 -57.5t-51 -136t-16.5 -239q0 -250 57.5 -341.5t184.5 -91.5q41 0 109.5 -1t107.5 -1t98 1t95 6.5t82 15.5t73.5 25.5t58.5 40t47.5 56.5t26.5 76t10 99 v1184h117v-645q74 45 124 70.5t131 50t161 24.5q156 0 246 -102.5t90 -245.5v-758h-119v758q0 109 -59.5 170t-157.5 61q-86 0 -163 -18.5t-121 -38t-132 -62.5v-448q0 -94 -21.5 -166t-59.5 -117t-90 -77.5t-113.5 -46t-129 -21.5t-138.5 -6t-140.5 0t-132.5 0 q-86 0 -144.5 20.5t-111 77.5t-78 171t-25.5 288z" />
<glyph horiz-adv-x="1839" d="M137 0v989q182 72 278.5 94.5t254.5 22.5q147 0 237 -94q143 55 239.5 74.5t244.5 19.5q156 0 245.5 -102.5t89.5 -245.5v-758h-116v758q0 106 -60.5 168.5t-158.5 62.5q-209 0 -420 -78q35 -63 35 -153v-758h-117v758q0 106 -60.5 168.5t-158.5 62.5q-115 0 -200 -15.5 t-216 -64.5v-909h-117z" />
<glyph d="M137 0v989q182 72 278.5 94.5t254.5 22.5q156 0 246 -102.5t90 -245.5v-758h-117v758q0 106 -60.5 168.5t-158.5 62.5q-115 0 -200 -15.5t-216 -64.5v-909h-117z" />
<glyph d="M137 0v989q182 72 278.5 94.5t254.5 22.5q156 0 246 -102.5t90 -245.5v-758h-117v758q0 106 -60.5 168.5t-158.5 62.5q-115 0 -200 -15.5t-216 -64.5v-909h-117zM225 1307q51 43 80 64.5t72 42t82 20.5q51 -2 128 -50.5t103 -48.5q14 0 32.5 4t31 8.5t35 16.5t31.5 17 t34 20.5t29 17.5l35 -61q-8 -6 -34 -27.5t-37 -31t-36 -27t-41 -24.5t-38.5 -12t-43.5 -5q-55 2 -127 49t-104 47q-39 0 -69 -11t-71 -36t-61 -35z" />
<glyph d="M137 0v989q182 72 278.5 94.5t254.5 22.5q156 0 246 -102.5t90 -245.5v-758h-117v758q0 106 -60.5 168.5t-158.5 62.5q-115 0 -200 -15.5t-216 -64.5v-909h-117zM494 -174q0 41 36 41h68q37 0 37 -41v-180q0 -61 -34 -90t-67 -26l-34 3v43q47 -2 47 47v60h-17 q-36 -1 -36 38v105z" />
<glyph d="M137 0v989q182 72 278.5 94.5t254.5 22.5q156 0 246 -102.5t90 -245.5v-758h-117v758q0 106 -60.5 168.5t-158.5 62.5q-115 0 -200 -15.5t-216 -64.5v-909h-117zM274 1495h109l188 -176l181 176h108l-233 -266h-111zM627 1229z" />
<glyph d="M137 0v989q182 72 278.5 94.5t254.5 22.5q156 0 246 -102.5t90 -245.5v-758h-117v758q0 106 -60.5 168.5t-158.5 62.5q-115 0 -200 -15.5t-216 -64.5v-909h-117zM532 1229l230 272h145l-272 -272h-103z" />
<glyph horiz-adv-x="1839" d="M137 0v989q182 72 278.5 94.5t254.5 22.5q147 0 237 -94q143 55 239.5 74.5t244.5 19.5q156 0 245.5 -102.5t89.5 -245.5v-758h-116v758q0 106 -60.5 168.5t-158.5 62.5q-209 0 -420 -78q35 -63 35 -153v-758h-117v758q0 106 -60.5 168.5t-158.5 62.5q-115 0 -200 -15.5 t-216 -64.5v-909h-117zM881 1268v116q0 43 41 43h75q39 0 39 -43v-116q0 -39 -39 -39h-75q-41 0 -41 39z" />
<glyph horiz-adv-x="876" d="M137 0v989q184 78 323.5 105.5t368.5 7.5v-119q-299 29 -575 -74v-909h-117z" />
<glyph horiz-adv-x="876" d="M137 0v989q184 78 323.5 105.5t368.5 7.5v-119q-299 29 -575 -74v-909h-117zM459 1233l229 272h148l-273 -272h-104z" />
<glyph horiz-adv-x="876" d="M137 0v989q184 78 323.5 105.5t368.5 7.5v-119q-299 29 -575 -74v-909h-117zM219 1499h109l186 -176l180 176h109l-234 -266h-110zM569 1233z" />
<glyph horiz-adv-x="876" d="M119 -174q0 41 37 41h69q37 0 37 -41v-180q0 -63 -34.5 -91t-68.5 -25l-34 3v43q49 -2 49 47v60h-18q-37 -1 -37 38v105zM131 0v989q184 78 323.5 105.5t368.5 7.5v-119q-299 29 -575 -74v-909h-117z" />
<glyph horiz-adv-x="1083" d="M45 0l305 438q43 61 51.5 102.5t-7 75t-64.5 99.5l-285 372h143l240 -317q82 -106 93 -185t-56 -188l-277 -397h-143zM564.5 526.5q-9.5 61.5 14 116.5t78.5 127l240 317h141l-282 -372q-72 -94 -77 -137t56 -140l303 -438h-141l-276 397q-47 68 -56.5 129.5z" />
<glyph horiz-adv-x="1247" d="M45 0l389 618q39 59 45 114.5t-11 104t-60 111.5l-363 551h135l332 -502q158 -242 41 -415l-373 -582h-135zM696 582q-117 174 41 415l332 502h135l-362 -551q-43 -63 -60.5 -111.5t-11.5 -103.5t45 -115l389 -618h-135z" />
<glyph horiz-adv-x="1099" d="M115 268v131q0 250 280 250h473q0 111 -16 179.5t-52 101.5t-76 43t-103 10q-82 0 -484 -22v83q25 4 85.5 15.5t95 16.5t89 12.5t108.5 9.5t112 2q213 -2 286.5 -120t73.5 -437v-224q0 -319 -317 -319h-275q-280 0 -280 268zM231 268q0 -76 36 -113.5t128 -37.5h275 q119 0 158.5 51t39.5 151v244l-473 -28q-86 -4 -125 -34t-39 -102v-131z" />
<glyph horiz-adv-x="1099" d="M115 268v131q0 250 280 250h473q0 111 -16 179.5t-52 101.5t-76 43t-103 10q-82 0 -484 -22v83q25 4 85.5 15.5t95 16.5t89 12.5t108.5 9.5t112 2q213 -2 286.5 -120t73.5 -437v-224q0 -319 -317 -319h-275q-280 0 -280 268zM231 268q0 -76 36 -113.5t128 -37.5h275 q119 0 158.5 51t39.5 151v244l-473 -28q-86 -4 -125 -34t-39 -102v-131zM266 1495h148l229 -272h-104z" />
<glyph horiz-adv-x="1099" d="M115 268v131q0 250 280 250h473q0 111 -16 179.5t-52 101.5t-76 43t-103 10q-82 0 -484 -22v83q25 4 85.5 15.5t95 16.5t89 12.5t108.5 9.5t112 2q213 -2 286.5 -120t73.5 -437v-224q0 -319 -317 -319h-275q-280 0 -280 268zM231 268q0 -76 36 -113.5t128 -37.5h275 q119 0 158.5 51t39.5 151v244l-473 -28q-86 -4 -125 -34t-39 -102v-131zM510 1223l229 272h146l-273 -272h-102z" />
<glyph horiz-adv-x="1099" d="M115 268v131q0 250 280 250h473q0 111 -16 179.5t-52 101.5t-76 43t-103 10q-82 0 -484 -22v83q25 4 85.5 15.5t95 16.5t89 12.5t108.5 9.5t112 2q213 -2 286.5 -120t73.5 -437v-224q0 -319 -317 -319h-275q-280 0 -280 268zM225 1300q51 43 80 64.5t72 42t82 20.5 q51 -2 129 -50t104 -48q16 0 34.5 4t43.5 15.5t37 18.5l42 25q30 17 36 21l33 -61q-8 -6 -34 -27.5t-37 -31t-36 -27t-41 -24.5t-38.5 -12t-43.5 -5q-55 2 -127 49t-104 47q-39 0 -69 -11.5t-71 -36t-61 -34.5zM231 268q0 -76 36 -113.5t128 -37.5h275q119 0 158.5 51 t39.5 151v244l-473 -28q-86 -4 -125 -34t-39 -102v-131z" />
<glyph horiz-adv-x="1099" d="M115 268v131q0 250 280 250h473q0 111 -16 179.5t-52 101.5t-76 43t-103 10q-82 0 -484 -22v83q25 4 85.5 15.5t95 16.5t89 12.5t108.5 9.5t112 2q213 -2 286.5 -120t73.5 -437v-224q0 -319 -317 -319h-275q-280 0 -280 268zM231 268q0 -76 36 -113.5t128 -37.5h275 q119 0 158.5 51t39.5 151v244l-473 -28q-86 -4 -125 -34t-39 -102v-131zM354 1431.5q0 88.5 61.5 149.5t147.5 61t146.5 -61t60.5 -149.5t-60.5 -148.5t-146.5 -60t-147.5 60t-61.5 148.5zM428 1431.5q0 -55.5 40 -94.5t95 -39t94 39t39 94.5t-39 95.5t-94 40t-95 -40 t-40 -95.5z" />
<glyph horiz-adv-x="1099" d="M115 268v131q0 250 280 250h473q0 111 -16 179.5t-52 101.5t-76 43t-103 10q-82 0 -484 -22v83q25 4 85.5 15.5t95 16.5t89 12.5t108.5 9.5t112 2q213 -2 286.5 -120t73.5 -437v-224q0 -319 -317 -319h-275q-280 0 -280 268zM231 268q0 -76 36 -113.5t128 -37.5h275 q119 0 158.5 51t39.5 151v244l-473 -28q-86 -4 -125 -34t-39 -102v-131zM270 1223l250 266h111l223 -266h-109l-174 176l-192 -176h-109zM631 1489z" />
<glyph horiz-adv-x="1099" d="M115 268v131q0 250 280 250h473q0 111 -16 179.5t-52 101.5t-76 43t-103 10q-82 0 -484 -22v83q25 4 85.5 15.5t95 16.5t89 12.5t108.5 9.5t112 2q213 -2 286.5 -120t73.5 -437v-224q0 -319 -317 -319h-275q-280 0 -280 268zM221 1304.5q0 34.5 22.5 57t57.5 22.5 t57.5 -22.5t22.5 -57t-23.5 -58t-56.5 -23.5t-56.5 23.5t-23.5 58zM231 268q0 -76 36 -113.5t128 -37.5h275q119 0 158.5 51t39.5 151v244l-473 -28q-86 -4 -125 -34t-39 -102v-131zM741 1305q0 33 23.5 56t58.5 23q33 0 56.5 -22.5t23.5 -57t-23.5 -58t-56 -23.5 t-57.5 23.5t-25 58.5z" />
</font>
</defs>
</svg>
