<?xml version="1.0" standalone="no"?>
<!DOCTYPE svg PUBLIC "-//W3C//DTD SVG 1.1//EN" "http://www.w3.org/Graphics/SVG/1.1/DTD/svg11.dtd" >
<svg xmlns="http://www.w3.org/2000/svg">
<metadata>
This is a custom SVG webfont generated by Font Squirrel.
Copyright   : Copyright c 2011 Natanael Gama exondiscoveredcom with Reserved Font Name Exo
Designer    : Natanael Gama
</metadata>
<defs>
<font id="ExoBold" horiz-adv-x="1126" >
<font-face units-per-em="2048" ascent="1638" descent="-410" />
<missing-glyph horiz-adv-x="512" />
<glyph unicode="&#xfb01;" horiz-adv-x="1284" d="M31 868v185l172 34v82q0 186 121.5 312.5t322.5 128.5q88 2 252 -15.5t225 -42.5v-172l-374 13q-260 8 -261 -236v-70l711 -20v-1067h-287v868h-424v-868h-286v868h-172z" />
<glyph unicode="&#xfb02;" horiz-adv-x="1476" d="M31 868v185l172 34v93q0 430 403 430l611 -4v-1174q0 -113 20 -152.5t74 -60.5q123 -43 137 -43v-176h-238q-147 0 -213.5 87t-66.5 300v1004l-268 2q-90 0 -131.5 -45t-41.5 -168v-93h246v-219h-248v-868h-286v868h-170z" />
<glyph horiz-adv-x="1452" d="M156 0v1087h1142v-1087h-1142zM184 45l525 500l-525 493v-993zM205 1061l526 -496l520 496h-1046zM211 27h1038l-518 497zM754 545l516 -494v985z" />
<glyph horiz-adv-x="1452" d="M156 0v1087h1142v-1087h-1142zM184 45l525 500l-525 493v-993zM205 1061l526 -496l520 496h-1046zM211 27h1038l-518 497zM754 545l516 -494v985z" />
<glyph unicode="&#xd;" horiz-adv-x="1554" />
<glyph unicode=" "  horiz-adv-x="512" />
<glyph unicode="&#x09;" horiz-adv-x="512" />
<glyph unicode="&#xa0;" horiz-adv-x="512" />
<glyph unicode="!" horiz-adv-x="559" d="M133 1497h289l-31 -1096h-233zM137 47v184q0 51 49 52h181q47 0 47 -52v-184q0 -47 -47 -47h-181q-49 0 -49 47z" />
<glyph unicode="&#x22;" horiz-adv-x="909" d="M133 1362v137h277v-137l-21 -275h-233zM502 1362v137h276v-137l-20 -275h-234z" />
<glyph unicode="#" horiz-adv-x="1476" d="M31 430l30 197h312l43 247h-316l33 197h318l75 428h197l-76 -428h254l74 428h196l-73 -428h350l-29 -197h-354l-41 -249h352l-26 -197h-367l-76 -428h-196l75 428l-254 2l-75 -430h-197l76 430h-305zM569 627l258 -2l41 249h-256z" />
<glyph unicode="$" horiz-adv-x="1167" d="M86 995v129q2 377 401 387v177h175v-179q184 -10 366 -57v-223q-266 18 -459 18q-104 4 -150 -23.5t-46 -121.5v-74q0 -80 40 -111.5t124 -31.5h190q86 0 151.5 -25.5t103.5 -65.5t61.5 -95.5t31.5 -105.5t8 -106v-100q0 -412 -421 -403v-168h-175v172q-195 10 -354 57 v221q369 -18 477 -18q186 0 187 129v80q0 70 -30 105.5t-108 35.5h-186q-100 0 -174 29.5t-114 72.5t-63.5 101.5t-29.5 102.5t-6 91z" />
<glyph unicode="%" horiz-adv-x="1970" d="M66 983v250q0 135 63.5 200.5t212.5 65.5h207q145 0 207.5 -66.5t62.5 -199.5v-250q0 -137 -62.5 -202.5t-211.5 -65.5h-207q-147 0 -209.5 65.5t-62.5 202.5zM266 1016q0 -55 20.5 -78t78.5 -23h151q63 0 82.5 23t19.5 78v182q0 59 -21.5 79.5t-76.5 20.5h-151 q-59 0 -81 -20.5t-22 -79.5v-182zM426 0l915 1499h205l-907 -1499h-213zM1153 272v250q0 137 62.5 203t211.5 66h207q145 0 209 -67t64 -202v-250q0 -135 -63.5 -200.5t-213.5 -65.5h-207q-145 0 -207.5 65.5t-62.5 200.5zM1354 307q0 -55 20.5 -77.5t77.5 -22.5h150 q66 0 85 22.5t19 77.5v182q0 59 -22.5 80t-77.5 21h-150q-59 0 -80.5 -20.5t-21.5 -80.5v-182z" />
<glyph unicode="&#x26;" horiz-adv-x="1390" d="M58.5 480.5q29.5 154.5 166.5 275.5l142 125l-105 151q-78 113 -65.5 212t78 169t149.5 82q86 12 167 13t157.5 -9t123 -18t119.5 -27v-209h-336q-117 0 -134 -47t61 -154l346 -473l248 234l100 -121l-123 -219l-76 -90l279 -375h-336l-146 197l-133 -119 q-72 -63 -184.5 -83t-231 23.5t-192.5 149.5q-104 158 -74.5 312.5zM369 332q29 -37 67.5 -58.5t86.5 -16.5t89 44l105 100l-207 275l-107 -94q-138 -119 -34 -250z" />
<glyph unicode="'" horiz-adv-x="458" d="M86 1362v137h289v-137l-21 -275h-245z" />
<glyph unicode="(" horiz-adv-x="772" d="M117 668q0 518 265 958q53 87 93 135h268q-14 -20 -36.5 -59t-81 -159t-103.5 -241.5t-82 -297t-37 -336.5q0 -501 260 -967q46 -83 80 -131h-268q-14 14 -38.5 43t-86 130t-108.5 218t-86 308.5t-39 398.5z" />
<glyph unicode=")" horiz-adv-x="772" d="M31 -430q14 18 36.5 54t81 149.5t103.5 234.5t82 301t37 359q0 462 -265 962q-76 131 -75 131h268q14 -18 38.5 -51t86 -142.5t109 -228t86 -302t38.5 -369.5q0 -207 -36.5 -396.5t-90 -311.5t-105.5 -215t-89 -134l-37 -41h-268z" />
<glyph unicode="*" horiz-adv-x="874" d="M78 1159v115l284 49l11 -174zM195 852l49 281l170 -43l-111 -273zM340 1475l111 38l137 -249l-162 -68zM389 956l96 146l230 -184l-66 -93zM489 1169l246 162l64 -96l-197 -199z" />
<glyph unicode="+" horiz-adv-x="989" d="M70 608v242h303v305h241v-305h308v-242h-308v-305h-241v305h-303z" />
<glyph unicode="," horiz-adv-x="534" d="M133 51v178q0 55 51 56h172q49 0 50 -56v-252q0 -63 -27 -103t-66 -51t-77.5 -13.5t-65.5 4.5l-27 6v98q63 0 64 53v29h-23q-51 0 -51 51z" />
<glyph unicode="-" horiz-adv-x="724" d="M41 473v242h643v-242h-643z" />
<glyph unicode="." horiz-adv-x="538" d="M133 47v184q0 51 49 52h176q51 0 52 -52v-184q0 -47 -52 -47h-176q-49 0 -49 47z" />
<glyph unicode="/" horiz-adv-x="933" d="M31 -147l575 1724h297l-575 -1724h-297z" />
<glyph unicode="0" horiz-adv-x="1290" d="M109 365v757q0 180 101 278.5t275 98.5h336q193 0 278 -101.5t85 -262.5v-770q0 -178 -95.5 -271.5t-269.5 -93.5h-336q-176 0 -275 92.5t-99 272.5zM395 412q0 -147 154 -148h199q76 0 112.5 33t36.5 113v680q0 145 -139 145h-215q-84 0 -116 -44t-32 -101v-678z" />
<glyph unicode="1" horiz-adv-x="759" d="M61 1143v186l291 170h285v-1499h-287v1214z" />
<glyph unicode="2" horiz-adv-x="1204" d="M61 1253v213q303 53 623 54q219 0 331.5 -131.5t112.5 -331.5q0 -338 -565 -793h565v-264h-1050v252q90 61 202.5 149t247 208t223.5 241t89 205q0 102 -57.5 150t-188.5 48h-533z" />
<glyph unicode="3" horiz-adv-x="1193" d="M47 1239v207q84 29 198.5 43t225.5 15t238 -1q170 -4 270 -100t100 -260v-107q0 -233 -155 -291q156 -68 155 -307v-86q0 -178 -99 -272t-286 -94h-74h-80q-16 0 -72 1t-76.5 2t-68 4t-73 7t-63 10t-68.5 14.5t-60 18.5l2 209h521q117 0 163 24.5t46 114.5v66 q0 86 -48.5 117.5t-148.5 35.5l-408 17v229l408 21q111 6 156 36.5t45 110.5v74q0 141 -201 141h-547z" />
<glyph unicode="4" horiz-adv-x="1269" d="M31 459l534 1040h316l-449 -901h371v342l65 158h222v-500h151v-221l-151 -49v-324h-287v324h-703z" />
<glyph unicode="5" horiz-adv-x="1220" d="M119 41v225h577q150 0 150 146v137q0 31 -4 52.5t-17.5 45t-42 35.5t-73.5 12h-193q-125 0 -125 -121h-270l45 926h911v-264h-635l-16 -338q53 41 141 49q61 8 226 0q172 -8 256 -107.5t84 -265.5v-211q0 -100 -35 -174.5t-93.5 -115.5t-122 -60.5t-130.5 -19.5 q-209 0 -324.5 8t-308.5 41z" />
<glyph unicode="6" horiz-adv-x="1245" d="M102 786q0 195 29 338.5t81 221t111.5 115.5t131.5 44q283 25 651 -41v-217h-512q-205 0 -205 -379q170 41 414 41q203 0 277.5 -91t74.5 -257v-225q0 -338 -362 -338h-293q-96 0 -164 34t-123 117.5t-83 242t-28 394.5zM389 657q0 -90 6 -151.5t25.5 -121.5t59.5 -91 t104 -31h155q70 0 100.5 25.5t30.5 101.5v137q0 76 -29.5 103.5t-95.5 27.5h-356z" />
<glyph unicode="7" horiz-adv-x="1134" d="M47 1235v264h965l78 -131l-502 -1368h-314l461 1235h-688z" />
<glyph unicode="8" horiz-adv-x="1277" d="M117 344v150q0 92 43 153.5t119 77.5q-68 29 -106 80t-47 100t-9 117v133q0 354 383 354h309q178 0 266 -84t88 -272v-109q0 -25 -4 -56.5t-18.5 -71t-48 -70.5t-82.5 -39q45 -8 77.5 -41t48 -77t21.5 -84t6 -79v-176q0 -109 -30.5 -182.5t-86 -107t-111.5 -47 t-128 -13.5h-307q-106 0 -182 26.5t-114 61.5t-59.5 89t-24.5 88t-3 79zM403 375q0 -63 34 -92t114 -29h190q135 0 136 121v143q0 127 -129 127h-207q-137 0 -138 -127v-143zM403 1012q0 -127 138 -127h204q80 0 106 32.5t26 94.5v96q0 86 -33 117.5t-101 31.5h-192 q-80 0 -114 -27.5t-34 -121.5v-96z" />
<glyph unicode="9" horiz-adv-x="1245" d="M94 944v223q0 338 363 338h293q96 0 163.5 -33.5t123 -117.5t83 -243t27.5 -394q0 -195 -30 -337t-82 -221t-110.5 -117t-129.5 -44q-322 -29 -652 41v217h512q66 0 110 35t62.5 98.5t25.5 117.5t7 130q-166 -43 -414 -43q-201 0 -276.5 92t-75.5 258zM379 977 q0 -76 29.5 -103.5t95.5 -27.5h356q0 90 -6 151.5t-25.5 122t-59.5 91t-103 30.5h-158q-70 0 -99.5 -25.5t-29.5 -101.5v-137z" />
<glyph unicode=":" horiz-adv-x="538" d="M133 47v184q0 51 49 52h176q51 0 52 -52v-184q0 -47 -52 -47h-176q-49 0 -49 47zM133 852v184q0 51 49 51h176q51 0 52 -51v-184q0 -47 -52 -47h-176q-49 0 -49 47z" />
<glyph unicode=";" horiz-adv-x="540" d="M133 51v178q0 55 51 56h172q49 0 50 -56v-252q0 -63 -27 -103t-66 -51t-77.5 -13.5t-65.5 4.5l-27 6v98q63 0 64 53v29h-23q-23 0 -37 14t-14 37zM135 854v184q0 51 49 52h176q51 0 52 -52v-184q0 -47 -52 -47h-176q-49 0 -49 47z" />
<glyph unicode="&#x3c;" horiz-adv-x="921" d="M78 590v264l768 297v-266l-463 -162l463 -180v-269z" />
<glyph unicode="=" horiz-adv-x="956" d="M41 377v241h874v-241h-874zM41 817v242h874v-242h-874z" />
<glyph unicode="&#x3e;" horiz-adv-x="921" d="M78 274v269l463 180l-463 162v266l768 -297v-264z" />
<glyph unicode="?" horiz-adv-x="1110" d="M31 1247v215q322 61 577 51q219 0 331 -117.5t112 -283.5v-149q0 -418 -465 -379v-185h-232v400h234q178 8 178 168v108q0 90 -54.5 131t-170.5 41h-510zM332 47v184q0 51 49 52h178q49 0 49 -52v-184q0 -47 -49 -47h-178q-49 0 -49 47z" />
<glyph unicode="@" horiz-adv-x="1777" d="M102 23v622q0 57 10.5 109.5t38 108t72.5 95t123 65.5t178 26h394q74 0 130 -11.5t112.5 -43t86 -98.5t29.5 -167v-729h-184l-41 119l-16 -15q-15 -14 -43.5 -34.5t-65.5 -40t-88.5 -33.5t-104.5 -14q-123 -2 -192.5 78.5t-69.5 193.5v86q0 137 79 211t220 74h277 q2 86 0 88q0 63 -30 84.5t-97 21.5h-396q-90 0 -141 -37t-51 -147v-590q0 -125 57 -173t135 -48h682q119 0 165 54t46 167v936q0 115 -57 177.5t-154 62.5h-827v174q279 57 622 55h205q190 -2 315.5 -115.5t125.5 -353.5v-936q0 -455 -430 -455h-693q-188 0 -305 106 t-117 327zM713 291q0 -33 26.5 -56.5t69.5 -21.5q141 -4 238 86v164l-244 -23q-90 -8 -90 -94v-55z" />
<glyph unicode="A" horiz-adv-x="1417" d="M70 0l505 1499h326l488 -1499h-306l-106 332h-492l-108 -332h-307zM561 586h348l-168 536z" />
<glyph unicode="B" horiz-adv-x="1236" d="M125 0v1499h618q217 0 319.5 -111.5t102.5 -289.5q0 -115 -51 -208t-153 -112q98 -18 163.5 -109t65.5 -229q0 -440 -442 -440h-623zM412 254h325q166 0 166 199q0 92 -41 151.5t-125 59.5h-325v-410zM412 905h313q158 0 158 170t-158 170h-313v-340z" />
<glyph unicode="C" horiz-adv-x="1169" d="M86 754q0 190 22.5 323t79 235.5t157.5 153t251 50.5q291 0 522 -68v-225l-15 2q-15 2 -41 4t-59.5 5t-75.5 6t-85 5t-90 4t-88 2q-88 0 -136.5 -14t-87.5 -65.5t-53 -151.5t-14 -270q0 -266 60.5 -382t230.5 -116q96 0 209.5 4t179.5 8l65 4v-223q-182 -58 -467 -58 q-27 0 -55 1q-272 2 -391 196.5t-119 569.5z" />
<glyph unicode="D" horiz-adv-x="1355" d="M125 0v1499h637q520 0 520 -756q0 -346 -128 -544.5t-392 -198.5h-637zM412 256h327q256 0 256 489q0 285 -63.5 392.5t-192.5 107.5h-327v-989z" />
<glyph unicode="E" horiz-adv-x="1161" d="M119 295v893q0 92 29.5 157.5t81 97.5t103.5 44t111 12q528 -14 660 -33v-237h-592q-49 0 -74.5 -19.5t-28.5 -39t-3 -56.5v-233l606 -21v-237l-606 -19v-233q0 -39 10 -62.5t32.5 -32t38 -10.5t45.5 -2h572v-235q-117 -16 -639 -35h-21q-46 0 -90 7q-52 9 -110 37 t-91.5 93.5t-33.5 163.5z" />
<glyph unicode="F" horiz-adv-x="1161" d="M119 0v1184q0 168 95 244q90 72 217 71h13q528 -14 660 -33v-237h-592q-49 0 -74.5 -19.5t-28.5 -39t-3 -56.5v-233l606 -21v-237l-606 -19v-604h-287z" />
<glyph unicode="G" horiz-adv-x="1257" d="M86 757.5q0 141.5 11.5 248t44 206t86 164t141.5 102.5t206 38q309 0 576 -66v-223q-2 0 -34 4t-84 9t-113.5 9t-136 8.5t-140.5 4.5q-164 0 -217 -109t-53 -399q0 -295 50 -394.5t206 -101.5q63 0 127.5 23.5t97.5 47.5l33 23v269h-209v182q117 49 356 49q90 0 140 -4 v-848h-205l-78 100q-111 -102 -318 -110h-23q-108 0 -190 34q-90 39 -142 105t-83 171.5t-40 210.5t-9 246.5z" />
<glyph unicode="H" horiz-adv-x="1302" d="M125 0v1499h287v-643h514v643h286v-1499h-286v594h-514v-594h-287z" />
<glyph unicode="I" horiz-adv-x="501" d="M125 0v1499h287v-1499h-287z" />
<glyph unicode="J" horiz-adv-x="729" d="M55 47l4 223q68 -6 121 -6q20 0 38 1q65 3 99.5 49t34.5 149v1036h287v-1161q0 -231 -109 -301q-76 -47 -215 -47h-23q-155 4 -237 57z" />
<glyph unicode="K" horiz-adv-x="1286" d="M125 0v1499h274v-627h121l381 627h334l-459 -751l459 -748h-334l-381 618h-119v-618h-276z" />
<glyph unicode="L" horiz-adv-x="1103" d="M125 291v1208h287v-1128q0 -39 10 -62.5t32.5 -32t38 -10.5t46.5 -2h514v-264h-617q-311 0 -311 291z" />
<glyph unicode="M" horiz-adv-x="1734" d="M86 0l131 1499h399l250 -1024l248 1024h397l140 -1499h-283l-98 1001l-242 -1001h-319l-252 1001l-88 -1001h-283z" />
<glyph unicode="N" horiz-adv-x="1388" d="M125 0v1499h291l594 -969v969h286v-1499h-286l-596 958v-958h-289z" />
<glyph unicode="O" horiz-adv-x="1374" d="M102 739q0 205 32 349.5t80 225.5t132 126t163 57t196 12q100 0 168.5 -8t143.5 -34.5t123 -79t89 -136.5t59.5 -212t18.5 -300q0 -195 -29 -332t-76 -217.5t-128 -125t-164 -58.5t-205 -14q-102 0 -173 8t-146 33.5t-122 77t-87 132.5t-57.5 204.5t-17.5 291.5zM389 739 q0 -209 26.5 -309t90 -137t199.5 -37q127 0 191.5 37t94 140.5t29.5 305.5q0 174 -15.5 275.5t-58.5 153t-94 64.5t-147 13q-76 0 -119 -7t-87 -33.5t-63.5 -81t-33 -148t-13.5 -236.5z" />
<glyph unicode="P" horiz-adv-x="1232" d="M104 0v1499h646q82 0 146.5 -16.5t130 -62.5t102 -143t36.5 -241q0 -131 -27.5 -225t-67.5 -144.5t-100.5 -78t-109.5 -32.5q-35 -4 -76 -4q-16 0 -34 1q-57 2 -204 19.5t-155 21.5v-594h-287zM391 807h336q74 0 112 50t38 177q-2 211 -150 211h-336v-438z" />
<glyph unicode="Q" horiz-adv-x="1374" d="M102 739q0 205 31 349.5t79 225.5t131 126t162 57t197 12q84 0 145.5 -6t129 -24.5t114 -51t89.5 -90t69.5 -138.5t42 -196.5t15.5 -263.5q0 -162 -18.5 -284.5t-57.5 -203.5t-87 -133t-122 -79t-146.5 -37t-173.5 -10q-76 0 -132 4t-116.5 16.5t-103.5 36t-86 61 t-69.5 94t-49 131.5t-33 176t-10.5 228zM389 739q0 -211 26.5 -310t90 -136t196.5 -37q127 0 191.5 37t95.5 140.5t31 305.5q0 174 -15.5 275.5t-59.5 153t-95 64.5t-148 13q-76 0 -118.5 -7t-85.5 -33.5t-63.5 -81t-33 -148t-12.5 -236.5zM614 -68h162q49 -82 174 -82 q68 0 160 25v-231q-52 -13 -107 -13q-28 0 -56 3q-85 10 -156.5 39.5t-121 97t-55.5 161.5z" />
<glyph unicode="R" horiz-adv-x="1243" d="M104 0v1499h656q193 0 301 -106.5t108 -360.5q0 -106 -18 -186t-39.5 -122t-61.5 -74t-61.5 -40t-58.5 -20l284 -590h-323l-248 567l-252 29v-596h-287zM393 821h340q80 0 114 41t34 170q0 121 -37 167t-111 46h-340v-424z" />
<glyph unicode="S" horiz-adv-x="1208" d="M102 995v129q0 209 107.5 296t298.5 91q30 1 59 0q314 0 520 -59v-225q-219 20 -501 20h-16q-97 1 -137 -23q-44 -26 -44 -122v-74q0 -86 35 -114.5t125 -28.5h237q104 0 178 -37t110 -100.5t51.5 -127t15.5 -133.5v-100q0 -121 -35 -205t-97.5 -125t-130 -57t-151.5 -16 q-367 0 -580 61v225q216 -22 498 -22h25q184 0 184 129v80q0 72 -28.5 106.5t-106.5 34.5h-230q-387 0 -387 397z" />
<glyph unicode="T" horiz-adv-x="1214" d="M63 1235v264h1108v-264h-415v-1235h-287v1235h-406z" />
<glyph unicode="U" horiz-adv-x="1359" d="M125 655v844h287v-844q0 -170 29.5 -257t88 -115.5t172.5 -28.5q152 0 215.5 82t63.5 319v844h289v-844q0 -109 -12.5 -197.5t-30 -153t-50 -116t-61.5 -83t-76 -55t-79.5 -35t-87 -17.5t-85 -7t-86.5 -1h-19q-110 0 -166 4t-144 38t-133 100.5t-80 198t-35 324.5z" />
<glyph unicode="V" horiz-adv-x="1402" d="M70 1499h305l334 -1122l352 1122h305l-494 -1499h-331z" />
<glyph unicode="W" horiz-adv-x="2031" d="M70 1499h305l332 -1112l270 1112h307l-104 -387l237 -731l275 1118h303l-412 -1499h-332l-202 614l-177 -614h-331z" />
<glyph unicode="X" horiz-adv-x="1312" d="M70 1499h317l283 -512l288 512h318l-451 -747l441 -752h-318l-278 504l-277 -504h-317l440 752z" />
<glyph unicode="Y" horiz-adv-x="1343" d="M70 1499h311l293 -719l321 719h312l-494 -1034v-465h-287v465z" />
<glyph unicode="Z" horiz-adv-x="1138" d="M55 0v264l686 971h-686v264h1032v-264l-653 -971h653v-264h-1032z" />
<glyph unicode="[" horiz-adv-x="681" d="M133 -20v1359q0 385 346 385h174v-241h-106q-127 0 -127 -178v-1315q0 -178 127 -178h106v-242h-174q-346 0 -346 410z" />
<glyph unicode="\" horiz-adv-x="933" d="M31 1577h297l575 -1724h-297z" />
<glyph unicode="]" horiz-adv-x="681" d="M31 -188h108q127 0 127 178v1315q0 178 -127 178h-108v241h176q96 0 165.5 -30.5t107.5 -86t55.5 -122t17.5 -146.5v-1359q0 -410 -346 -410h-176v242z" />
<glyph unicode="^" horiz-adv-x="786" d="M78 1087l221 277h213l197 -277h-191l-119 123l-129 -123h-192z" />
<glyph unicode="_" horiz-adv-x="1380" d="M41 -2v242h1298v-242h-1298z" />
<glyph unicode="`" horiz-adv-x="497" d="M31 1372h252l184 -285h-186z" />
<glyph unicode="a" horiz-adv-x="1062" d="M61 276v103q0 131 78 215t242 84q160 -1 239.5 -1t79.5 1q1 34 1 51.5t-1 18.5q0 82 -34.5 107.5t-110.5 25.5q-133 0 -457 -23v178q186 72 496 72q188 0 290.5 -79t102.5 -271v-758h-227l-60 119q-8 -14 -52 -45q-44 -32 -124 -60q-75 -27 -145 -26h-10 q-147 4 -227.5 88.5t-80.5 199.5zM348 317q0 -61 26.5 -80.5t76.5 -19.5q117 0 249 86v199l-264 -21q-88 -6 -88 -110v-54z" />
<glyph unicode="b" horiz-adv-x="1138" d="M94 0v1608h285v-576q150 72 330 72q209 0 281.5 -140.5t72.5 -424.5q0 -264 -82 -407.5t-272 -143.5q-88 0 -178.5 36.5t-149.5 86.5l-51 -111h-236zM381 299q104 -66 254 -66q72 0 106.5 71t34.5 245q0 197 -33.5 263.5t-107.5 66.5q-150 0 -254 -41v-539z" />
<glyph unicode="c" horiz-adv-x="1011" d="M78 545q0 215 48 341t123 169t187 43q303 0 500 -66v-176q-195 12 -377 12q-59 0 -88 -6t-57.5 -36.5t-38.5 -99.5t-10 -187q0 -201 38.5 -259.5t155.5 -58.5l391 19v-181q-45 -23 -93 -38t-112.5 -21t-94 -8t-114.5 -2h-100q-82 0 -142.5 24.5t-111.5 84t-77.5 171 t-26.5 275.5z" />
<glyph unicode="d" horiz-adv-x="1138" d="M78 539q0 141 13 236t50 174t109 117t182 38q176 0 330 -72v576h287v-1608h-238l-49 111q-156 -123 -330 -123q-190 0 -272 141.5t-82 409.5zM365 549q0 -174 34.5 -245t108.5 -71q150 0 254 66v539q-109 41 -254 41q-76 0 -109.5 -66.5t-33.5 -263.5z" />
<glyph unicode="e" horiz-adv-x="1075" d="M78 549q0 176 24.5 282.5t86 166t144.5 79t220 19.5q133 0 208 -11.5t138.5 -51.5t89 -119.5t25.5 -213.5q0 -274 -303 -274h-346q0 -135 49 -171t180 -36q258 0 399 23v-195q-154 -57 -557 -57q-203 0 -280.5 127t-77.5 432zM365 633h272q90 0 90 82q0 104 -27.5 133 t-130.5 29q-68 0 -98.5 -5.5t-60 -29t-37.5 -72.5t-8 -137z" />
<glyph unicode="f" horiz-adv-x="825" d="M31 868v185l170 34v203q0 152 73.5 236t247.5 84q154 0 275 -49v-170l-197 2q-43 0 -66.5 -8.5t-32.5 -36t-11.5 -49t-2.5 -76.5v-136h248v-219h-248v-868h-286v868h-170z" />
<glyph unicode="g" horiz-adv-x="1146" d="M72 209q0 154 127 194q-119 76 -119 302q0 387 377 387h661v-170l-121 -37q2 -2 9.5 -21.5t9.5 -27t8 -28t8 -35.5t4 -43t2 -58q0 -66 -16 -125.5t-54 -116.5t-116 -91t-186 -34h-252q-82 0 -82 -47q0 -55 82 -55h334q152 0 236.5 -81t84.5 -241v-119q0 -135 -78 -225 t-262 -90h-307q-152 0 -246 80t-94 235v138l96 100q-106 62 -106 209zM367 705q0 -168 131 -168h114q139 0 140 168q-4 86 -35 120.5t-107 34.5h-108q-80 0 -107.5 -40.5t-27.5 -114.5zM371 -23v-180q0 -74 31.5 -97.5t97.5 -23.5h168q72 0 94 29t22 86v80q0 98 -106 100 h-221z" />
<glyph unicode="h" d="M94 0v1604h285v-633q63 47 96 67.5t102.5 44t147.5 23.5q326 0 326 -381v-725h-287v729q0 147 -121 148q-82 0 -138 -21.5t-124 -73.5v-782h-287z" />
<glyph unicode="i" horiz-adv-x="464" d="M78 1249v181q0 53 49 53h215q45 0 45 -53v-181q0 -47 -45 -47h-215q-49 0 -49 47zM88 0v1087h287v-1087h-287z" />
<glyph unicode="j" horiz-adv-x="495" d="M94 1249v181q0 53 49 53h215q47 0 48 -53v-181q0 -47 -48 -47h-215q-49 0 -49 47zM106 -553v1640h287v-1095v-35q0 -342 -76 -510h-211z" />
<glyph unicode="k" horiz-adv-x="1140" d="M94 0v1602h287v-879h59l308 364h364l-407 -473l407 -614h-342l-330 504h-59v-504h-287z" />
<glyph unicode="l" horiz-adv-x="641" d="M94 387v1217h287v-1172q0 -109 22.5 -152.5t71.5 -60.5q123 -43 137 -43v-176h-237q-139 0 -210 89t-71 298z" />
<glyph unicode="m" horiz-adv-x="1792" d="M94 0v1087h230l57 -116q70 51 98.5 69.5t96 41t143.5 22.5q211 0 282 -141q190 141 392 141q324 0 323 -383v-721h-286v725q0 147 -121 147q-164 0 -267 -86q0 -4 1 -30.5t1 -32.5v-723h-286v725q0 147 -121 147q-80 0 -134 -20.5t-122 -71.5v-780h-287z" />
<glyph unicode="n" d="M94 0v1087h230l57 -116q66 47 97.5 67.5t100 44t146.5 23.5q326 0 326 -381v-725h-287v729q0 147 -121 148q-82 0 -138 -21.5t-124 -73.5v-782h-287z" />
<glyph unicode="o" horiz-adv-x="1146" d="M78 528q0 328 108.5 449t386.5 121q281 0 388.5 -123t107.5 -447q0 -305 -105.5 -421.5t-390.5 -116.5q-279 0 -387 121.5t-108 416.5zM365 528q0 -139 22.5 -205.5t62 -84t123.5 -17.5q90 0 129 17.5t59.5 82t20.5 207.5q0 119 -7 182.5t-33.5 101.5t-62.5 47t-106 9 q-92 0 -132 -22.5t-58 -92t-18 -225.5z" />
<glyph unicode="p" horiz-adv-x="1138" d="M94 -553v1640h236l49 -108q59 47 150.5 84t179.5 37q354 0 354 -551q0 -131 -13.5 -224.5t-50 -175t-109.5 -123.5t-181 -42q-178 0 -330 69v-606h-285zM379 250q109 -41 256 -41q74 0 107.5 66.5t33.5 261.5q0 176 -34.5 246.5t-106.5 70.5q-152 0 -256 -66v-538z" />
<glyph unicode="q" horiz-adv-x="1136" d="M78 549q0 551 397 551q154 0 320 -19.5t249 -42.5v-1591h-286v612q-116 -79 -279 -79h-4q-223 0 -310 140t-87 429zM365 557q0 -78 1 -118t10 -93t25.5 -78.5t49 -44t79.5 -18.5q117 0 228 45v631h-226q-57 0 -94 -30t-51 -88t-18 -100.5t-4 -105.5z" />
<glyph unicode="r" horiz-adv-x="854" d="M94 0v1087h242l45 -137q147 147 311 148q92 0 121 -13v-276q-86 6 -158 6q-98 0 -161.5 -24.5t-112.5 -96.5v-694h-287z" />
<glyph unicode="s" horiz-adv-x="1040" d="M61 711v94q0 293 283 293q487 0 582 -56v-180h-494q-51 0 -67.5 -17.5t-16.5 -58.5v-49q0 -33 12.5 -48t27.5 -18t44 -3h258q147 0 218 -77t71 -206v-111q0 -154 -76 -219t-190 -65q-514 0 -607 59v178h515q72 0 71 70v51q0 37 -14 53.5t-57 16.5h-254q-306 0 -306 293z " />
<glyph unicode="t" horiz-adv-x="780" d="M31 870v160l176 60l47 303h240v-303h243v-220h-243v-436q0 -111 22.5 -153.5t69.5 -61.5q123 -43 137 -43v-176h-250q-266 0 -266 389v481h-176z" />
<glyph unicode="u" d="M78 365v722h287v-729q0 -145 120 -145q82 0 139.5 21.5t123.5 72.5v780h286v-1087h-231l-55 115q-12 -8 -73 -45t-83.5 -48.5t-76.5 -25.5t-114 -14q-323 0 -323 383z" />
<glyph unicode="v" horiz-adv-x="1155" d="M31 1087h307l237 -751l244 751h307l-395 -1087h-321z" />
<glyph unicode="w" horiz-adv-x="1691" d="M31 1087h307l217 -751l195 751h286l-75 -292l180 -459l215 751h307l-352 -1087h-320l-164 393l-122 -393h-326z" />
<glyph unicode="x" horiz-adv-x="1171" d="M37 0l377 545l-377 542h348l199 -325l204 325h347l-381 -548l364 -539h-330l-202 322l-201 -322h-348z" />
<glyph unicode="y" horiz-adv-x="1183" d="M33 1087h301l188 -761q6 -20 15.5 -36t18.5 -23t22.5 -12t21.5 -6t20 -2l11 -1l217 841h299l-377 -1431l-149 -209h-205l153 553q-250 0 -323 276z" />
<glyph unicode="z" horiz-adv-x="970" d="M47 846v241h879v-241l-467 -602h467v-242h-848v240l487 604h-518z" />
<glyph unicode="{" horiz-adv-x="657" d="M31 575v216q43 4 70.5 10t54 31.5t26.5 66.5v444q0 174 112 277.5t333 103.5v-241q-84 0 -121 -48.5t-37 -181.5v-370q0 -174 -197 -199q90 -16 142.5 -66.5t52.5 -125.5v-492q0 -102 37 -152.5t123 -48.5v-229q-240 0 -343.5 91t-103.5 261v545q0 55 -43 83.5t-106 24.5 z" />
<glyph unicode="|" horiz-adv-x="505" d="M133 -147v1724h242v-1724h-242z" />
<glyph unicode="}" horiz-adv-x="657" d="M31 -201q86 -2 124 48.5t38 152.5v492q0 76 52 126t142 66q-197 25 -197 199v370q0 133 -37.5 181.5t-121.5 48.5v241q223 0 334.5 -103t111.5 -278v-444q0 -59 41 -80.5t109 -27.5v-216q-63 4 -105.5 -24.5t-42.5 -83.5v-545q0 -168 -104.5 -260t-343.5 -92v229z" />
<glyph unicode="~" horiz-adv-x="858" d="M78 1200q43 47 69.5 72.5t75.5 50.5t101 25q45 0 110.5 -36t106.5 -36q90 -2 190 82l49 -123q-123 -147 -231 -148q-47 0 -120 36t-112 36q-18 0 -37.5 -3t-31.5 -6t-31.5 -12.5t-27 -13.5t-31 -18t-31.5 -19z" />
<glyph unicode="&#xa1;" horiz-adv-x="565" d="M133 -553l29 1092h235l29 -1092h-293zM143 719v178q0 43 50 47h174q18 -2 33.5 -17.5t15.5 -35.5v-172q-4 -55 -47 -55h-176q-50 0 -50 55z" />
<glyph unicode="&#xa2;" horiz-adv-x="997" d="M61 545q0 319 96.5 439t278.5 116v198h176v-204q182 -18 310 -62v-176q-197 12 -379 12q-47 0 -72 -3t-52.5 -20.5t-40.5 -51t-21.5 -96t-8.5 -158.5q0 -139 19.5 -208t57.5 -90.5t118 -21.5q84 0 182 5t155 9l56 5v-181q-127 -63 -328 -67v-185h-176v183 q-86 0 -149.5 23.5t-115.5 83t-79 172t-27 278.5z" />
<glyph unicode="&#xa3;" horiz-adv-x="1191" d="M78 0v221l135 43v379h-135v148l135 45v153q0 166 35 270.5t109.5 155.5t159.5 67.5t220 16.5q51 0 146.5 -8t164.5 -16l68 -9v-229h-387q-76 0 -111.5 -5t-67.5 -26.5t-41 -66.5t-9 -125v-178l454 -33v-160h-454v-379h614v-264h-1036z" />
<glyph unicode="&#xa4;" horiz-adv-x="913" d="M80 897l98 100l94 -92q80 57 183 58q100 0 184 -58l94 96l103 -96l-101 -102q45 -74 45 -164q0 -106 -59 -193l98 -98l-96 -102l-109 104q-74 -45 -159 -45q-90 0 -174 53l-95 -98l-100 102l96 99q-51 86 -51 178q0 90 45 164zM291 637q0 -72 47 -121t116.5 -49t118 49 t48.5 121q0 70 -48.5 118t-117.5 48q-68 0 -116 -49t-48 -117z" />
<glyph unicode="&#xa5;" horiz-adv-x="1298" d="M31 1499h313l291 -676l317 676h316l-420 -807h227v-168h-301v-73h301v-166h-301v-285h-287v285h-286v166h286v73h-286v168h217z" />
<glyph unicode="&#xa6;" horiz-adv-x="507" d="M133 -147v671h242v-671h-242zM133 879v698h242v-698h-242z" />
<glyph unicode="&#xa7;" horiz-adv-x="1107" d="M86 1208v99q0 147 77 223t212 76q129 0 312 -11.5t259 -27.5v-203h-493q-80 0 -80 -74v-69q0 -72 82 -72h252q170 0 244.5 -63.5t72.5 -194.5v-72q0 -188 -119 -221q117 -18 117 -201v-114q0 -299 -283 -299q-418 0 -577 39v202h485q47 0 67.5 13.5t22.5 50.5v82 q0 39 -19.5 53t-66.5 14h-254q-154 0 -231.5 54.5t-77.5 195.5v72q0 43 2 67.5t12.5 63.5t38 64.5t70.5 39.5q-125 55 -125 213zM373 750q0 -51 21.5 -66.5t70.5 -15.5h176q61 0 78.5 18.5t17.5 65.5v77q0 33 -4 48.5t-25.5 28t-66.5 12.5h-176q-57 0 -74.5 -19.5 t-17.5 -73.5v-75z" />
<glyph unicode="&#xa8;" horiz-adv-x="917" d="M78 1192q0 49 36 84t85 35q51 0 84.5 -35t33.5 -84t-34.5 -85t-83.5 -36t-85 36t-36 85zM600 1192q0 49 36 84t85 35q51 0 85 -35t34 -84t-35 -85t-84 -36t-85 36t-36 85z" />
<glyph unicode="&#xa9;" horiz-adv-x="1638" d="M86 754q0 121 12.5 221t46 200.5t90 169t151.5 111.5t220 43h475q145 0 244.5 -63.5t147 -179t64.5 -233.5t17 -269q0 -356 -121.5 -555t-351.5 -199h-475q-139 0 -243.5 64.5t-163 174t-86 239t-27.5 276.5zM272 754q0 -252 84 -415t250 -163h463q139 0 219 139.5 t80 438.5q0 74 -3 129t-11 126.5t-28.5 122t-50.5 97.5t-79 70.5t-115 23.5h-475q-74 0 -130 -24.5t-104 -85t-74 -176t-26 -283.5zM457 748q0 446 295 446q213 0 376 -49v-152q-172 25 -331 25q-84 0 -118 -61.5t-34 -215.5q0 -135 36 -199.5t124 -64.5q158 0 336 33v-152 q-145 -57 -379 -57q-139 0 -222 98.5t-83 348.5z" />
<glyph unicode="&#xaa;" horiz-adv-x="749" d="M47 537v143h658v-143h-658zM47 954v72q0 86 55.5 140.5t171.5 54.5q207 -2 207 0q2 33 0 34q0 51 -24.5 67.5t-79.5 16.5q-63 0 -121.5 -3t-112 -8t-71.5 -7v137q160 53 336 53q295 4 294 -231v-506h-167l-54 92q-10 -23 -76.5 -62.5t-138.5 -37.5q-104 2 -161.5 57 t-57.5 131zM254 993q0 -61 74 -61q39 0 77.5 13t57.5 26l18 12v121l-164 -14q-63 -4 -63 -68v-29z" />
<glyph unicode="&#xab;" horiz-adv-x="1187" d="M78 725l422 416l157 -156l-268 -260l273 -268l-152 -158zM526 725l422 416l158 -156l-266 -260l272 -268l-154 -158z" />
<glyph unicode="&#xac;" horiz-adv-x="1011" d="M70 492v229h872v-395h-229v166h-643z" />
<glyph unicode="&#xad;" horiz-adv-x="724" d="M41 473v242h643v-242h-643z" />
<glyph unicode="&#xae;" horiz-adv-x="1638" d="M86 754q0 121 12.5 221t46 200.5t90 169t151.5 111.5t220 43h475q145 0 244.5 -63.5t147 -179t64.5 -233.5t17 -269q0 -356 -121.5 -555t-351.5 -199h-475q-139 0 -243.5 64.5t-163 174t-86 239t-27.5 276.5zM272 754q0 -252 84 -415t250 -163h463q139 0 219 139.5 t80 438.5q0 74 -3 129t-11 126.5t-28.5 122t-50.5 97.5t-79 70.5t-115 23.5h-475q-74 0 -130 -24.5t-104 -85t-74 -176t-26 -283.5zM508 313v875h373q274 0 274 -275q0 -131 -43 -188t-117 -78l179 -334h-203l-170 326l-107 25v-351h-186zM694 799h154q80 0 100.5 20.5 t20.5 93.5q0 63 -28 81t-93 18h-154v-213z" />
<glyph unicode="&#xaf;" horiz-adv-x="751" d="M78 1087v162h598v-162h-598z" />
<glyph unicode="&#xb0;" horiz-adv-x="569" d="M78 1294q0 88 61.5 149.5t147.5 61.5t146.5 -61.5t60.5 -149.5t-60.5 -148.5t-146.5 -60.5t-147.5 60.5t-61.5 148.5zM195 1294q0 -37 26.5 -63.5t65.5 -26.5q37 0 62.5 26.5t25.5 63.5t-25.5 64.5t-62.5 27.5q-39 0 -65.5 -27.5t-26.5 -64.5z" />
<glyph unicode="&#xb1;" horiz-adv-x="1024" d="M88 143v242h852v-242h-852zM88 782v242h303v303h242v-303h307v-242h-307v-307h-242v307h-303z" />
<glyph unicode="&#xb2;" horiz-adv-x="819" d="M49 1571v166q238 39 408 39q152 0 225.5 -81t73.5 -218q0 -221 -355 -498h353v-205h-699v195q475 332 475 485q0 66 -34.5 91.5t-120.5 25.5h-326z" />
<glyph unicode="&#xb3;" horiz-adv-x="835" d="M47 1561v161q125 47 438 43q123 -2 191.5 -69.5t68.5 -177.5v-62q0 -154 -116 -190q117 -45 116 -203v-47q0 -252 -270 -252h-47h-47h-43q-33 0 -45 1t-41 2t-43 3t-39 5t-41 7t-35.5 10.5t-38.5 12.5l2 164h326q82 0 110.5 16t28.5 66v24q0 51 -32.5 70.5t-98.5 21.5 l-252 11v176l252 14q72 4 103.5 22.5t31.5 63.5v25q0 82 -135 82h-344z" />
<glyph unicode="&#xb4;" horiz-adv-x="497" d="M31 1087l186 285h250l-250 -285h-186z" />
<glyph unicode="&#xb5;" horiz-adv-x="1204" d="M141 365v722h287v-729q0 -145 119 -145q84 0 140 21.5t124 72.5v780h287v-1087h-232l-55 115q-10 -6 -41 -24.5t-43 -26t-38.5 -21.5t-44 -20.5t-43.5 -13.5t-50 -11q-66 -8 -123 10v-561h-287v918z" />
<glyph unicode="&#xb6;" horiz-adv-x="1181" d="M61 1022v190q0 139 90.5 213t229.5 74h772v-213h-109v-1286h-208v1290h-136v-1843h-208v1315q-2 0 -17.5 -10.5t-39 -17.5t-54.5 -7q-160 0 -240 83t-80 212zM270 1047q0 -113 123 -113h99v356h-99q-74 0 -98.5 -28.5t-24.5 -90.5v-124z" />
<glyph unicode="&#xb7;" horiz-adv-x="538" d="M133 696v185q0 51 49 51h176q51 0 52 -51v-185q0 -47 -52 -47h-176q-49 0 -49 47z" />
<glyph unicode="&#xb8;" horiz-adv-x="499" d="M78 -242l90 31q41 16 51 44t10 91h193q0 -160 -49 -224.5t-180 -64.5h-115v123z" />
<glyph unicode="&#xb9;" horiz-adv-x="552" d="M25 1513v136l208 112h220v-987h-222v787z" />
<glyph unicode="&#xba;" horiz-adv-x="806" d="M47 1126q0 219 77 300t282 81q203 0 279.5 -82t76.5 -299q0 -203 -77 -281.5t-279 -78.5q-201 0 -280 80.5t-79 279.5zM74 541v141h659v-141h-659zM268 1128q0 -121 30 -152.5t108 -31.5q80 0 106.5 30t28.5 154q2 133 -26 167t-109 34q-84 0 -111 -34t-27 -167z" />
<glyph unicode="&#xbb;" horiz-adv-x="1187" d="M78 457l272 268l-266 260l156 156l422 -416l-433 -426zM526 457l273 268l-267 260l158 156l422 -416l-432 -426z" />
<glyph unicode="&#xbc;" horiz-adv-x="1906" d="M25 1262v135l208 114h220v-989h-222v787zM358 0l846 1542h209l-846 -1542h-209zM1034 297l350 688h234l-285 -575h221v211l50 100h172v-311h100v-172l-100 -37v-199h-222v199h-475z" />
<glyph unicode="&#xbd;" horiz-adv-x="2029" d="M25 1262v135l208 114h220v-989h-222v787zM344 0l846 1542h207l-846 -1542h-207zM1253 797v166q242 39 412 38q154 0 227.5 -80.5t73.5 -218.5q0 -59 -30.5 -127.5t-65.5 -116.5t-98.5 -109.5t-87.5 -82.5l-74 -61h356v-205h-704v197q481 344 481 497q0 57 -36 80t-124 23 h-330z" />
<glyph unicode="&#xbe;" horiz-adv-x="2138" d="M47 1311v162q123 45 442 40q123 -2 193 -69.5t70 -177.5v-62q0 -150 -117 -190q117 -47 117 -203v-47q0 -250 -273 -250h-47h-47h-43q-33 0 -46 1t-42 2t-43 3t-39 6t-42 7.5t-36.5 9.5t-38.5 12l2 162l330 2q84 0 113.5 15.5t29.5 64.5v26q0 49 -33.5 68.5t-101.5 21.5 l-256 11v176l256 16q74 2 105.5 20.5t31.5 63.5v27q0 82 -137 82h-348zM569 0l846 1542h207l-846 -1542h-207zM1219 297l350 688h231l-287 -577h230v213l45 102h174v-315h98v-170l-98 -37v-199h-219v199h-477z" />
<glyph unicode="&#xbf;" horiz-adv-x="1112" d="M61 8q-2 199 115 296t348 79v184h234l2 -399h-236q-76 -4 -120 -48t-46 -124v-109q0 -78 53.5 -125t159.5 -45l510 2v-215q-326 -61 -577 -51q-117 0 -206 36t-139 95.5t-74 128t-24 144.5v151zM504 737v178q0 47 51 52h172q49 -4 49 -47v-183q0 -51 -47 -51h-178 q-43 6 -47 51z" />
<glyph unicode="&#xc0;" horiz-adv-x="1417" d="M70 0l505 1499h326l488 -1499h-306l-106 332h-492l-108 -332h-307zM395 1917h252l184 -285h-186zM561 586h348l-168 536z" />
<glyph unicode="&#xc1;" horiz-adv-x="1417" d="M70 0l505 1499h326l488 -1499h-306l-106 332h-492l-108 -332h-307zM561 586h348l-168 536zM645 1632l186 285h250l-250 -285h-186z" />
<glyph unicode="&#xc2;" horiz-adv-x="1417" d="M70 0l505 1499h326l488 -1499h-306l-106 332h-492l-108 -332h-307zM422 1632l221 277h213l199 -277h-191l-121 123l-129 -123h-192zM561 586h348l-168 536z" />
<glyph unicode="&#xc3;" horiz-adv-x="1417" d="M70 0l505 1499h326l488 -1499h-306l-106 332h-492l-108 -332h-307zM387 1745q131 143 248 143q49 -2 115.5 -36.5t101.5 -34.5q80 -4 188 77l50 -122q-129 -139 -232 -140q-51 2 -121.5 37t-107.5 35q-25 0 -44.5 -3t-41 -12.5t-32.5 -14.5t-38 -20.5t-37 -21.5zM561 586 h348l-168 536z" />
<glyph unicode="&#xc4;" horiz-adv-x="1417" d="M70 0l505 1499h326l488 -1499h-306l-106 332h-492l-108 -332h-307zM356 1753q0 51 36 85t87 34q49 0 84 -34t35 -85q0 -49 -35 -85t-84 -36q-51 0 -87 36t-36 85zM561 586h348l-168 536zM879 1753q0 51 35.5 85t86.5 34q49 0 84 -34t35 -85q0 -49 -34.5 -85t-84.5 -36 q-51 0 -86.5 36t-35.5 85z" />
<glyph unicode="&#xc5;" horiz-adv-x="1417" d="M70 0l505 1499h125q-74 14 -122 71.5t-48 133.5q0 88 61.5 149.5t147.5 61.5t146.5 -61.5t60.5 -149.5q0 -76 -47 -133.5t-121 -71.5h123l488 -1499h-306l-106 332h-492l-108 -332h-307zM561 586h348l-168 536zM651 1704q0 -37 25.5 -61.5t62.5 -24.5t62.5 24.5 t25.5 61.5t-25.5 63.5t-62.5 26.5t-62.5 -26.5t-25.5 -63.5z" />
<glyph unicode="&#xc6;" horiz-adv-x="1953" d="M47 0l580 1178q57 115 126.5 185.5t156.5 99t157 34.5t176 2q510 -14 641 -33v-237h-573q-37 0 -59.5 -8.5t-31 -29t-10.5 -33.5t-4 -42v-239l584 -23v-236l-584 -18v-231q0 -39 9.5 -61.5t34 -31t36.5 -9.5t47 -1h551v-239q-51 -8 -205.5 -16.5t-283.5 -13.5l-129 -5 q-59 -4 -113.5 4t-111 32.5t-89 81t-32.5 138.5v149h-359l-196 -397h-318zM682 651h238v492z" />
<glyph unicode="&#xc7;" horiz-adv-x="1169" d="M86 754q0 190 22.5 323t79 235.5t157.5 153t251 50.5q291 0 522 -68v-225l-15 2q-15 2 -41 4t-59.5 5t-75.5 6t-85 5t-90 4t-88 2q-88 0 -136.5 -14t-87.5 -65.5t-53 -151.5t-14 -270q0 -266 60.5 -382t230.5 -116q96 0 209.5 4t179.5 8l65 4v-223q-199 -63 -522 -57 q-272 2 -391 196.5t-119 569.5zM233 -242l91 31q41 16 51 44t10 91h193q0 -160 -49.5 -224.5t-180.5 -64.5h-115v123z" />
<glyph unicode="&#xc8;" horiz-adv-x="1161" d="M119 295v893q0 92 29.5 157.5t81 97.5t103.5 44t111 12q528 -14 660 -33v-237h-592q-49 0 -74.5 -19.5t-28.5 -39t-3 -56.5v-233l606 -21v-237l-606 -19v-233q0 -39 10 -62.5t32.5 -32t38 -10.5t45.5 -2h572v-235q-117 -16 -639 -35q-59 -2 -111.5 7t-110 37t-91 93.5 t-33.5 163.5zM336 1913h252l184 -285h-186z" />
<glyph unicode="&#xc9;" horiz-adv-x="1161" d="M119 295v893q0 92 29.5 157.5t81 97.5t103.5 44t111 12q528 -14 660 -33v-237h-592q-49 0 -74.5 -19.5t-28.5 -39t-3 -56.5v-233l606 -21v-237l-606 -19v-233q0 -39 10 -62.5t32.5 -32t38 -10.5t45.5 -2h572v-235q-117 -16 -639 -35q-59 -2 -111.5 7t-110 37t-91 93.5 t-33.5 163.5zM563 1628l187 283h249l-249 -283h-187z" />
<glyph unicode="&#xca;" horiz-adv-x="1161" d="M119 295v893q0 92 29.5 157.5t81 97.5t103.5 44t111 12q528 -14 660 -33v-237h-592q-49 0 -74.5 -19.5t-28.5 -39t-3 -56.5v-233l606 -21v-237l-606 -19v-233q0 -39 10 -62.5t32.5 -32t38 -10.5t45.5 -2h572v-235q-117 -16 -639 -35q-59 -2 -111.5 7t-110 37t-91 93.5 t-33.5 163.5zM334 1632l221 277h213l199 -277h-191l-121 123l-129 -123h-192z" />
<glyph unicode="&#xcb;" horiz-adv-x="1161" d="M119 295v893q0 92 29.5 157.5t81 97.5t103.5 44t111 12q528 -14 660 -33v-237h-592q-49 0 -74.5 -19.5t-28.5 -39t-3 -56.5v-233l606 -21v-237l-606 -19v-233q0 -39 10 -62.5t32.5 -32t38 -10.5t45.5 -2h572v-235q-117 -16 -639 -35q-59 -2 -111.5 7t-110 37t-91 93.5 t-33.5 163.5zM258 1749q0 49 36 84t87 35q49 0 84 -35t35 -84t-35 -85t-84 -36q-51 0 -87 36t-36 85zM780 1749q0 49 36 84t87 35q49 0 84 -35t35 -84t-35 -85t-84 -36q-51 0 -87 36t-36 85z" />
<glyph unicode="&#xcc;" horiz-adv-x="501" d="M-76 1917h252l184 -285h-186zM125 0v1499h287v-1499h-287z" />
<glyph unicode="&#xcd;" horiz-adv-x="501" d="M125 0v1499h287v-1499h-287zM174 1632l186 285h250l-250 -285h-186z" />
<glyph unicode="&#xce;" horiz-adv-x="501" d="M-49 1632l221 277h213l199 -277h-191l-121 123l-129 -123h-192zM125 0v1499h287v-1499h-287z" />
<glyph unicode="&#xcf;" horiz-adv-x="501" d="M-115 1753q0 51 36 85t87 34q49 0 84 -34t35 -85q0 -49 -35 -85t-84 -36q-51 0 -87 36t-36 85zM125 0v1499h287v-1499h-287zM410 1753q0 51 34.5 85t85.5 34q49 0 84 -34t35 -85q0 -49 -34.5 -85t-84.5 -36q-51 0 -85.5 36t-34.5 85z" />
<glyph unicode="&#xd0;" horiz-adv-x="1355" d="M-8 696v135h133v668h637q520 0 520 -756q0 -346 -128 -544.5t-392 -198.5h-637v696h-133zM412 256h327q252 0 252 489q0 281 -63.5 388.5t-188.5 107.5h-327v-410h227v-135h-227v-440z" />
<glyph unicode="&#xd1;" horiz-adv-x="1388" d="M125 0v1499h291l594 -969v969h286v-1499h-286l-596 958v-958h-289zM358 1745q131 143 248 143q51 -2 118 -36.5t99 -34.5q80 -4 191 77l49 -122q-129 -139 -234 -140q-51 2 -121.5 37t-107.5 35q-25 0 -44 -3t-40.5 -12.5t-32 -13.5t-38 -21.5t-35.5 -21.5z" />
<glyph unicode="&#xd2;" horiz-adv-x="1374" d="M102 739q0 205 32 349.5t80 225.5t132 126t163 57t196 12q100 0 168.5 -8t143.5 -34.5t123 -79t89 -136.5t59.5 -212t18.5 -300q0 -195 -29 -332t-76 -217.5t-128 -125t-164 -58.5t-205 -14q-102 0 -173 8t-146 33.5t-122 77t-87 132.5t-57.5 204.5t-17.5 291.5z M362 1917h250l187 -285h-187zM389 739q0 -209 26.5 -309t90 -137t199.5 -37q127 0 191.5 37t94 140.5t29.5 305.5q0 174 -15.5 275.5t-58.5 153t-94 64.5t-147 13q-76 0 -119 -7t-87 -33.5t-63.5 -81t-33 -148t-13.5 -236.5z" />
<glyph unicode="&#xd3;" horiz-adv-x="1374" d="M102 739q0 205 32 349.5t80 225.5t132 126t163 57t196 12q100 0 168.5 -8t143.5 -34.5t123 -79t89 -136.5t59.5 -212t18.5 -300q0 -195 -29 -332t-76 -217.5t-128 -125t-164 -58.5t-205 -14q-102 0 -173 8t-146 33.5t-122 77t-87 132.5t-57.5 204.5t-17.5 291.5zM389 739 q0 -209 26.5 -309t90 -137t199.5 -37q127 0 191.5 37t94 140.5t29.5 305.5q0 174 -15.5 275.5t-58.5 153t-94 64.5t-147 13q-76 0 -119 -7t-87 -33.5t-63.5 -81t-33 -148t-13.5 -236.5zM612 1632l185 285h252l-250 -285h-187z" />
<glyph unicode="&#xd4;" horiz-adv-x="1374" d="M102 739q0 205 32 349.5t80 225.5t132 126t163 57t196 12q100 0 168.5 -8t143.5 -34.5t123 -79t89 -136.5t59.5 -212t18.5 -300q0 -195 -29 -332t-76 -217.5t-128 -125t-164 -58.5t-205 -14q-102 0 -173 8t-146 33.5t-122 77t-87 132.5t-57.5 204.5t-17.5 291.5zM389 739 q0 -209 26.5 -309t90 -137t199.5 -37q127 0 191.5 37t94 140.5t29.5 305.5q0 174 -15.5 275.5t-58.5 153t-94 64.5t-147 13q-76 0 -119 -7t-87 -33.5t-63.5 -81t-33 -148t-13.5 -236.5zM389 1632l219 277h213l199 -277h-191l-120 123l-127 -123h-193z" />
<glyph unicode="&#xd5;" horiz-adv-x="1374" d="M102 739q0 205 32 349.5t80 225.5t132 126t163 57t196 12q100 0 168.5 -8t143.5 -34.5t123 -79t89 -136.5t59.5 -212t18.5 -300q0 -195 -29 -332t-76 -217.5t-128 -125t-164 -58.5t-205 -14q-102 0 -173 8t-146 33.5t-122 77t-87 132.5t-57.5 204.5t-17.5 291.5z M352 1745q131 143 248 143q51 -2 118.5 -36.5t100.5 -34.5q78 -4 189 77l49 -122q-129 -139 -234 -140q-51 2 -121.5 37t-107.5 35q-25 0 -44.5 -3t-41 -12.5t-31.5 -13.5t-37.5 -21.5t-36.5 -21.5zM389 739q0 -209 26.5 -309t90 -137t199.5 -37q127 0 191.5 37t94 140.5 t29.5 305.5q0 174 -15.5 275.5t-58.5 153t-94 64.5t-147 13q-76 0 -119 -7t-87 -33.5t-63.5 -81t-33 -148t-13.5 -236.5z" />
<glyph unicode="&#xd6;" horiz-adv-x="1374" d="M102 739q0 205 32 349.5t80 225.5t132 126t163 57t196 12q100 0 168.5 -8t143.5 -34.5t123 -79t89 -136.5t59.5 -212t18.5 -300q0 -195 -29 -332t-76 -217.5t-128 -125t-164 -58.5t-205 -14q-102 0 -173 8t-146 33.5t-122 77t-87 132.5t-57.5 204.5t-17.5 291.5z M324 1753q0 49 35.5 84t85 35t84 -34t34.5 -85q0 -49 -34.5 -85t-84 -36t-85 36t-35.5 85zM389 739q0 -209 26.5 -309t90 -137t199.5 -37q127 0 191.5 37t94 140.5t29.5 305.5q0 174 -15.5 275.5t-58.5 153t-94 64.5t-147 13q-76 0 -119 -7t-87 -33.5t-63.5 -81t-33 -148 t-13.5 -236.5zM846 1753q0 49 36 84t85 35t83.5 -34t34.5 -85q0 -49 -34.5 -85t-83.5 -36t-85 36t-36 85z" />
<glyph unicode="&#xd7;" horiz-adv-x="944" d="M88 512l215 215l-215 217l170 170l215 -215l217 217l172 -170l-217 -219l215 -215l-170 -170l-217 215l-213 -215z" />
<glyph unicode="&#xd8;" horiz-adv-x="1390" d="M109 0l116 170q-112 170 -112 569q0 172 19.5 301t60 212t89 135.5t123 79t143 34.5t167.5 8q254 0 372 -73l46 63h153l-104 -151q135 -178 135 -609q0 -195 -28.5 -332t-76 -217.5t-128 -125t-163.5 -58.5t-206 -14q-281 0 -402 84l-53 -76h-151zM399 739 q0 -193 29 -278l498 741q-55 43 -211 43q-78 0 -120 -7t-86 -33.5t-64.5 -81t-33 -148t-12.5 -236.5zM483 319q63 -63 232 -63q127 0 190.5 37t94 140.5t30.5 305.5q0 233 -39 338z" />
<glyph unicode="&#xd9;" horiz-adv-x="1359" d="M125 655v844h287v-844q0 -170 29.5 -257t88 -115.5t172.5 -28.5q152 0 215.5 82t63.5 319v844h289v-844q0 -109 -12.5 -197.5t-30 -153t-50 -116t-61.5 -83t-76 -55t-79.5 -35t-87 -17.5t-85 -7t-86.5 -1h-19q-110 0 -166 4t-144 38t-133 100.5t-80 198t-35 324.5z M354 1917h250l187 -285h-187z" />
<glyph unicode="&#xda;" horiz-adv-x="1359" d="M125 655v844h287v-844q0 -170 29.5 -257t88 -115.5t172.5 -28.5q152 0 215.5 82t63.5 319v844h289v-844q0 -109 -12.5 -197.5t-30 -153t-50 -116t-61.5 -83t-76 -55t-79.5 -35t-87 -17.5t-85 -7t-86.5 -1h-19q-110 0 -166 4t-144 38t-133 100.5t-80 198t-35 324.5z M604 1632l184 285h252l-249 -285h-187z" />
<glyph unicode="&#xdb;" horiz-adv-x="1359" d="M125 655v844h287v-844q0 -170 29.5 -257t88 -115.5t172.5 -28.5q152 0 215.5 82t63.5 319v844h289v-844q0 -109 -12.5 -197.5t-30 -153t-50 -116t-61.5 -83t-76 -55t-79.5 -35t-87 -17.5t-85 -7t-86.5 -1h-19q-110 0 -166 4t-144 38t-133 100.5t-80 198t-35 324.5z M381 1632l221 277h213l197 -277h-189l-121 123l-129 -123h-192z" />
<glyph unicode="&#xdc;" horiz-adv-x="1359" d="M125 655v844h287v-844q0 -170 29.5 -257t88 -115.5t172.5 -28.5q152 0 215.5 82t63.5 319v844h289v-844q0 -109 -12.5 -197.5t-30 -153t-50 -116t-61.5 -83t-76 -55t-79.5 -35t-87 -17.5t-85 -7t-86.5 -1h-19q-110 0 -166 4t-144 38t-133 100.5t-80 198t-35 324.5z M315 1753q0 49 36 84t85 35q51 0 86 -34t35 -85q0 -49 -35 -85t-86 -36q-49 0 -85 36t-36 85zM838 1753q0 49 35.5 84t84.5 35q51 0 85 -34t34 -85q0 -49 -34.5 -85t-84 -36t-85 36t-35.5 85z" />
<glyph unicode="&#xdd;" horiz-adv-x="1343" d="M70 1499h311l293 -719l321 719h312l-494 -1034v-465h-287v465zM594 1632l186 285h252l-250 -285h-188z" />
<glyph unicode="&#xde;" horiz-adv-x="1118" d="M94 0v1493h287v-289h301q360 0 360 -436q0 -147 -32.5 -245.5t-93 -142.5t-112.5 -58.5t-122 -16.5q-49 -2 -85 -1t-86 9.5t-130 30.5v-344h-287zM381 557h211q88 0 125 40t37 169q0 63 -13.5 103t-40 56.5t-49 20.5t-59.5 4h-211v-393z" />
<glyph unicode="&#xdf;" horiz-adv-x="1171" d="M94 0v1159q0 188 128 314t362 126q168 0 283.5 -50t163.5 -129t56.5 -172t-26.5 -183t-98 -160q-23 -23 -57 -54.5t-49 -48t-28.5 -40t-13.5 -49.5q0 -35 51.5 -66t112.5 -55.5t112.5 -86t51.5 -149.5v-63q0 -88 -30 -151.5t-83 -96.5t-109.5 -47t-123.5 -14 q-129 0 -305 39v202q221 -12 233 -12q53 0 91 29.5t40 87.5v49q0 37 -32.5 62.5t-79 45t-92.5 43t-78.5 70.5t-32.5 117q0 92 37.5 148.5t142.5 142.5q84 74 84 172q0 160 -209 159q-111 0 -163 -64.5t-52 -217.5v-1057h-287z" />
<glyph unicode="&#xe0;" horiz-adv-x="1062" d="M61 276v103q0 131 78 215t242 84q319 -2 319 0q2 68 0 70q0 82 -34.5 107.5t-110.5 25.5q-133 0 -457 -23v178q186 72 496 72q188 0 290.5 -79t102.5 -271v-758h-227l-60 119q-8 -14 -52 -45t-124 -59.5t-155 -26.5q-147 4 -227.5 88.5t-80.5 199.5zM205 1516h250 l186 -285h-186zM348 317q0 -61 26.5 -80.5t76.5 -19.5q117 0 249 86v199l-264 -21q-88 -6 -88 -110v-54z" />
<glyph unicode="&#xe1;" horiz-adv-x="1062" d="M61 276v103q0 131 78 215t242 84q319 -2 319 0q2 68 0 70q0 82 -34.5 107.5t-110.5 25.5q-133 0 -457 -23v178q186 72 496 72q188 0 290.5 -79t102.5 -271v-758h-227l-60 119q-8 -14 -52 -45t-124 -59.5t-155 -26.5q-147 4 -227.5 88.5t-80.5 199.5zM348 317 q0 -61 26.5 -80.5t76.5 -19.5q117 0 249 86v199l-264 -21q-88 -6 -88 -110v-54zM451 1231l184 285h252l-250 -285h-186z" />
<glyph unicode="&#xe2;" horiz-adv-x="1062" d="M61 276v103q0 131 78 215t242 84q319 -2 319 0q2 68 0 70q0 82 -34.5 107.5t-110.5 25.5q-133 0 -457 -23v178q186 72 496 72q188 0 290.5 -79t102.5 -271v-758h-227l-60 119q-8 -14 -52 -45t-124 -59.5t-155 -26.5q-147 4 -227.5 88.5t-80.5 199.5zM229 1231l220 276 h213l198 -276h-190l-121 123l-127 -123h-193zM348 317q0 -61 26.5 -80.5t76.5 -19.5q117 0 249 86v199l-264 -21q-88 -6 -88 -110v-54z" />
<glyph unicode="&#xe3;" horiz-adv-x="1062" d="M61 276v103q0 131 78 215t242 84q319 -2 319 0q2 68 0 70q0 82 -34.5 107.5t-110.5 25.5q-133 0 -457 -23v178q186 72 496 72q188 0 290.5 -79t102.5 -271v-758h-227l-60 119q-8 -14 -52 -45t-124 -59.5t-155 -26.5q-147 4 -227.5 88.5t-80.5 199.5zM188 1343 q131 143 246 144q51 -2 119 -37t100 -35q80 -4 189 78l49 -123q-129 -139 -232 -139q-51 2 -121.5 37t-107.5 35q-25 0 -44 -3.5t-40.5 -12.5t-33 -14t-38 -20.5t-36.5 -21.5zM348 317q0 -61 26.5 -80.5t76.5 -19.5q117 0 249 86v199l-264 -21q-88 -6 -88 -110v-54z" />
<glyph unicode="&#xe4;" horiz-adv-x="1062" d="M61 276v103q0 131 78 215t242 84q319 -2 319 0q2 68 0 70q0 82 -34.5 107.5t-110.5 25.5q-133 0 -457 -23v178q186 72 496 72q188 0 290.5 -79t102.5 -271v-758h-227l-60 119q-8 -14 -52 -45t-124 -59.5t-155 -26.5q-147 4 -227.5 88.5t-80.5 199.5zM162 1352 q0 51 35.5 86t85 35t84 -35t34.5 -86q0 -49 -34.5 -85t-84 -36t-85 36t-35.5 85zM348 317q0 -61 26.5 -80.5t76.5 -19.5q117 0 249 86v199l-264 -21q-88 -6 -88 -110v-54zM684 1352q0 51 36 86t85 35t84 -35t35 -86q0 -49 -35 -85t-84 -36t-85 36t-36 85z" />
<glyph unicode="&#xe5;" horiz-adv-x="1062" d="M61 276v103q0 131 78 215t242 84q319 -2 319 0q2 68 0 70q0 82 -34.5 107.5t-110.5 25.5q-133 0 -457 -23v178q186 72 496 72q188 0 290.5 -79t102.5 -271v-758h-227l-60 119q-8 -14 -52 -45t-124 -59.5t-155 -26.5q-147 4 -227.5 88.5t-80.5 199.5zM338 1413 q0 86 61.5 147.5t147.5 61.5t146.5 -61.5t60.5 -147.5q0 -88 -60.5 -148.5t-146.5 -60.5t-147.5 60.5t-61.5 148.5zM348 317q0 -61 26.5 -80.5t76.5 -19.5q117 0 249 86v199l-264 -21q-88 -6 -88 -110v-54zM459 1413q0 -37 25.5 -62.5t62.5 -25.5t62.5 25.5t25.5 62.5 q0 35 -25.5 61.5t-62.5 26.5t-62.5 -26.5t-25.5 -61.5z" />
<glyph unicode="&#xe6;" horiz-adv-x="1724" d="M61 283v71q0 131 78 215t242 84q319 -2 319 0q2 98 0 101q0 80 -34.5 106.5t-110.5 26.5q-88 0 -457 -25v178q168 70 496 74q203 -4 285 -88q100 76 323 76q131 0 208 -12.5t140.5 -51.5t89 -116.5t25.5 -202.5q0 -141 -76 -201.5t-229 -60.5h-344q0 -139 52 -185.5 t177 -46.5q260 0 400 21v-193q-154 -57 -558 -57q-113 0 -179 35t-117 106q-18 -39 -165 -92t-257 -51q-147 2 -227.5 88t-80.5 201zM348 317q0 -61 25.5 -77.5t77.5 -16.5q53 0 115.5 21.5t98.5 42.5l35 20v174l-264 -20q-88 -6 -88 -111v-33zM1016 651h270q92 0 92 82 q0 102 -26.5 126t-132.5 24q-72 0 -98.5 -3t-57.5 -24.5t-39 -69t-8 -135.5z" />
<glyph unicode="&#xe7;" horiz-adv-x="1011" d="M78 545q0 164 25.5 275.5t75.5 171t111.5 84t145.5 24.5q297 0 500 -68v-176q-195 12 -377 12q-59 0 -88 -6t-57.5 -36.5t-38.5 -99.5t-10 -187q0 -139 19 -208t57 -90.5t118 -21.5l391 19v-181q-39 -18 -84 -32.5t-79.5 -20.5t-91 -10t-84 -5t-91.5 -1h-84 q-170 0 -264 122t-94 435zM324 -244l90 31q41 16 51 44t10 91h193q0 -160 -49.5 -224.5t-180.5 -64.5h-114v123z" />
<glyph unicode="&#xe8;" horiz-adv-x="1075" d="M78 549q0 176 24.5 282.5t86 166t144.5 79t220 19.5q133 0 208 -11.5t138.5 -51.5t89 -119.5t25.5 -213.5q0 -274 -303 -274h-346q0 -135 49 -171t180 -36q258 0 399 23v-195q-154 -57 -557 -57q-203 0 -280.5 127t-77.5 432zM217 1503h252l184 -282h-186zM365 633h272 q90 0 90 82q0 104 -27.5 133t-130.5 29q-68 0 -98.5 -5.5t-60 -29t-37.5 -72.5t-8 -137z" />
<glyph unicode="&#xe9;" horiz-adv-x="1075" d="M78 549q0 176 24.5 282.5t86 166t144.5 79t220 19.5q133 0 208 -11.5t138.5 -51.5t89 -119.5t25.5 -213.5q0 -274 -303 -274h-346q0 -135 49 -171t180 -36q258 0 399 23v-195q-154 -57 -557 -57q-203 0 -280.5 127t-77.5 432zM365 633h272q90 0 90 82q0 104 -27.5 133 t-130.5 29q-68 0 -98.5 -5.5t-60 -29t-37.5 -72.5t-8 -137zM459 1221l184 282h252l-250 -282h-186z" />
<glyph unicode="&#xea;" horiz-adv-x="1075" d="M78 549q0 176 24.5 282.5t86 166t144.5 79t220 19.5q133 0 208 -11.5t138.5 -51.5t89 -119.5t25.5 -213.5q0 -274 -303 -274h-346q0 -135 49 -171t180 -36q258 0 399 23v-195q-154 -57 -557 -57q-203 0 -280.5 127t-77.5 432zM229 1221l222 278h213l198 -278h-190 l-121 122l-129 -122h-193zM365 633h272q90 0 90 82q0 104 -27.5 133t-130.5 29q-68 0 -98.5 -5.5t-60 -29t-37.5 -72.5t-8 -137z" />
<glyph unicode="&#xeb;" horiz-adv-x="1075" d="M78 549q0 176 24.5 282.5t86 166t144.5 79t220 19.5q133 0 208 -11.5t138.5 -51.5t89 -119.5t25.5 -213.5q0 -274 -303 -274h-346q0 -135 49 -171t180 -36q258 0 399 23v-195q-154 -57 -557 -57q-203 0 -280.5 127t-77.5 432zM162 1341q0 51 35.5 86t85 35t84 -34.5 t34.5 -86.5q0 -49 -34.5 -84.5t-84 -35.5t-85 35.5t-35.5 84.5zM365 633h272q90 0 90 82q0 104 -27.5 133t-130.5 29q-68 0 -98.5 -5.5t-60 -29t-37.5 -72.5t-8 -137zM684 1341q0 51 36 86t85 35t84 -34.5t35 -86.5q0 -49 -35 -84.5t-84 -35.5t-85 35.5t-36 84.5z" />
<glyph unicode="&#xec;" horiz-adv-x="471" d="M-106 1503h251l185 -282h-187zM94 0v1087h287v-1087h-287z" />
<glyph unicode="&#xed;" horiz-adv-x="471" d="M94 0v1087h287v-1087h-287zM143 1221l187 282h250l-250 -282h-187z" />
<glyph unicode="&#xee;" horiz-adv-x="471" d="M-80 1221l221 278h213l199 -278h-191l-120 122l-129 -122h-193zM94 0v1087h287v-1087h-287z" />
<glyph unicode="&#xef;" horiz-adv-x="471" d="M-145 1341q0 51 35.5 86t86.5 35q49 0 84 -34.5t35 -86.5q0 -49 -34.5 -84.5t-84.5 -35.5q-51 0 -86.5 35.5t-35.5 84.5zM94 0v1087h287v-1087h-287zM377 1341q0 51 36 86t87 35q49 0 83.5 -34.5t34.5 -86.5q0 -49 -34.5 -84.5t-83.5 -35.5q-51 0 -87 35.5t-36 84.5z" />
<glyph unicode="&#xf0;" horiz-adv-x="1105" d="M61 541q0 270 91.5 408t291.5 138h115q119 0 154 -18q-37 125 -117 197l-234 -109l-57 117l148 69q-92 33 -258 25v236q340 0 524 -123l190 88l60 -119l-140 -64q215 -244 215 -845q0 -541 -385 -541h-215q-207 0 -295 130t-88 411zM348 541q0 -174 31 -223.5t113 -49.5 h122q90 0 117 57.5t27 215.5q0 180 -25.5 231t-118.5 51h-122q-78 0 -111 -56t-33 -226z" />
<glyph unicode="&#xf1;" d="M94 0v1087h230l57 -116q66 47 97.5 67.5t100 44t146.5 23.5q326 0 326 -381v-725h-287v729q0 147 -121 148q-82 0 -138 -21.5t-124 -73.5v-782h-287zM219 1341q131 143 248 144q51 -2 118.5 -37t100.5 -35q78 -4 188 78l50 -123q-129 -139 -232 -139q-53 2 -122.5 36.5 t-106.5 34.5q-18 0 -33.5 -1t-31 -6t-24.5 -8t-26.5 -12t-24 -12.5t-27 -15.5t-26.5 -16z" />
<glyph unicode="&#xf2;" horiz-adv-x="1146" d="M78 528q0 328 108.5 449t386.5 121q281 0 388.5 -123t107.5 -447q0 -305 -105.5 -421.5t-390.5 -116.5q-279 0 -387 121.5t-108 416.5zM240 1503h252l184 -282h-187zM365 528q0 -139 22.5 -205.5t62 -84t123.5 -17.5q90 0 129 17.5t59.5 82t20.5 207.5q0 119 -7 182.5 t-33.5 101.5t-62.5 47t-106 9q-92 0 -132 -22.5t-58 -92t-18 -225.5z" />
<glyph unicode="&#xf3;" horiz-adv-x="1146" d="M78 528q0 328 108.5 449t386.5 121q281 0 388.5 -123t107.5 -447q0 -305 -105.5 -421.5t-390.5 -116.5q-279 0 -387 121.5t-108 416.5zM365 528q0 -139 22.5 -205.5t62 -84t123.5 -17.5q90 0 129 17.5t59.5 82t20.5 207.5q0 119 -7 182.5t-33.5 101.5t-62.5 47t-106 9 q-92 0 -132 -22.5t-58 -92t-18 -225.5zM481 1221l185 282h252l-250 -282h-187z" />
<glyph unicode="&#xf4;" horiz-adv-x="1146" d="M78 528q0 328 108.5 449t386.5 121q281 0 388.5 -123t107.5 -447q0 -305 -105.5 -421.5t-390.5 -116.5q-279 0 -387 121.5t-108 416.5zM262 1221l221 278h213l199 -278h-190l-121 122l-129 -122h-193zM365 528q0 -139 22.5 -205.5t62 -84t123.5 -17.5q90 0 129 17.5 t59.5 82t20.5 207.5q0 119 -7 182.5t-33.5 101.5t-62.5 47t-106 9q-92 0 -132 -22.5t-58 -92t-18 -225.5z" />
<glyph unicode="&#xf5;" horiz-adv-x="1146" d="M78 528q0 328 108.5 449t386.5 121q281 0 388.5 -123t107.5 -447q0 -305 -105.5 -421.5t-390.5 -116.5q-279 0 -387 121.5t-108 416.5zM229 1333q131 143 248 144q51 -2 119 -37t100 -35q78 -4 189 78l49 -123q-129 -139 -232 -139q-53 2 -122.5 36.5t-106.5 34.5 q-18 0 -33.5 -1t-31 -6t-24.5 -8t-26.5 -12.5t-23.5 -12.5t-26.5 -15t-26.5 -16zM365 528q0 -139 22.5 -205.5t62 -84t123.5 -17.5q90 0 129 17.5t59.5 82t20.5 207.5q0 119 -7 182.5t-33.5 101.5t-62.5 47t-106 9q-92 0 -132 -22.5t-58 -92t-18 -225.5z" />
<glyph unicode="&#xf6;" horiz-adv-x="1146" d="M78 528q0 328 108.5 449t386.5 121q281 0 388.5 -123t107.5 -447q0 -305 -105.5 -421.5t-390.5 -116.5q-279 0 -387 121.5t-108 416.5zM193 1341q0 51 35.5 86t86.5 35q49 0 84 -34.5t35 -86.5q0 -49 -34.5 -84.5t-84.5 -35.5q-51 0 -86.5 35.5t-35.5 84.5zM365 528 q0 -139 22.5 -205.5t62 -84t123.5 -17.5q90 0 129 17.5t59.5 82t20.5 207.5q0 119 -7 182.5t-33.5 101.5t-62.5 47t-106 9q-92 0 -132 -22.5t-58 -92t-18 -225.5zM715 1341q0 51 35.5 86t87.5 35q49 0 83.5 -34.5t34.5 -86.5q0 -49 -34.5 -84.5t-83.5 -35.5q-51 0 -87 35.5 t-36 84.5z" />
<glyph unicode="&#xf7;" horiz-adv-x="1017" d="M78 602v242h864v-242h-864zM381 317v138q0 49 49 49h152q49 0 49 -49v-138q0 -47 -49 -47h-152q-49 0 -49 47zM381 979v137q0 51 49 51h152q49 0 49 -51v-137q0 -47 -49 -47h-152q-49 0 -49 47z" />
<glyph unicode="&#xf8;" horiz-adv-x="1189" d="M78 0l110 137q-88 119 -88 391q0 328 108.5 449t387.5 121q203 0 309 -58l39 47h158l-105 -129q94 -123 95 -430q0 -305 -105.5 -421.5t-390.5 -116.5q-209 0 -320 65l-45 -55h-153zM387 528q0 -86 19 -127l333 433q-41 35 -143 34q-92 0 -132 -22.5t-58.5 -92 t-18.5 -225.5zM444 262q37 -41 152 -41q90 0 129 17.5t59.5 82t20.5 207.5q0 121 -21 170z" />
<glyph unicode="&#xf9;" d="M78 365v722h287v-729q0 -145 120 -145q82 0 139.5 21.5t123.5 72.5v780h286v-1087h-231l-55 115q-12 -8 -73 -45t-83.5 -48.5t-76.5 -25.5t-114 -14q-323 0 -323 383zM221 1503h252l184 -282h-186z" />
<glyph unicode="&#xfa;" d="M78 365v722h287v-729q0 -145 120 -145q82 0 139.5 21.5t123.5 72.5v780h286v-1087h-231l-55 115q-12 -8 -73 -45t-83.5 -48.5t-76.5 -25.5t-114 -14q-323 0 -323 383zM463 1221l184 282h252l-250 -282h-186z" />
<glyph unicode="&#xfb;" d="M78 365v722h287v-729q0 -145 120 -145q82 0 139.5 21.5t123.5 72.5v780h286v-1087h-231l-55 115q-12 -8 -73 -45t-83.5 -48.5t-76.5 -25.5t-114 -14q-323 0 -323 383zM240 1221l221 278h213l198 -278h-190l-121 122l-129 -122h-192z" />
<glyph unicode="&#xfc;" d="M78 365v722h287v-729q0 -145 120 -145q82 0 139.5 21.5t123.5 72.5v780h286v-1087h-231l-55 115q-12 -8 -73 -45t-83.5 -48.5t-76.5 -25.5t-114 -14q-323 0 -323 383zM174 1341q0 51 36 86t85 35q51 0 86 -34.5t35 -86.5q0 -49 -35 -84.5t-86 -35.5q-49 0 -85 35.5 t-36 84.5zM696 1341q0 51 36 86t85 35q51 0 86 -34.5t35 -86.5q0 -49 -35 -84.5t-86 -35.5q-49 0 -85 35.5t-36 84.5z" />
<glyph unicode="&#xfd;" horiz-adv-x="1183" d="M33 1087h301l188 -761q6 -20 15.5 -36t18.5 -23t22.5 -12t21.5 -6t20 -2l11 -1l217 841h299l-377 -1431l-149 -209h-205l153 553q-250 0 -323 276zM498 1221l184 282h252l-250 -282h-186z" />
<glyph unicode="&#xfe;" horiz-adv-x="1138" d="M109 -553v2155h286v-633q59 49 149.5 87t178.5 38q354 0 354 -553q0 -102 -7 -180t-29.5 -154t-61.5 -125t-103.5 -79t-152.5 -30q-182 0 -328 76v-602h-286zM395 238q90 -35 252 -39q74 0 109 68.5t35 262.5q0 319 -144 320q-143 -6 -252 -72v-540z" />
<glyph unicode="&#xff;" horiz-adv-x="1183" d="M33 1087h301l188 -761q6 -20 15.5 -36t18.5 -23t22.5 -12t21.5 -6t20 -2l11 -1l217 841h299l-377 -1431l-149 -209h-205l153 553q-250 0 -323 276zM209 1341q0 51 36 86t85 35t84 -34.5t35 -86.5q0 -49 -35 -84.5t-84 -35.5t-85 35.5t-36 84.5zM731 1341q0 51 36 86 t85 35t84 -34.5t35 -86.5q0 -49 -35 -84.5t-84 -35.5t-85 35.5t-36 84.5z" />
<glyph unicode="&#x100;" horiz-adv-x="1417" d="M70 0l505 1499h326l488 -1499h-306l-106 332h-492l-108 -332h-307zM440 1632v162h598v-162h-598zM561 586h348l-168 536z" />
<glyph unicode="&#x101;" horiz-adv-x="1062" d="M61 276v103q0 131 78 215t242 84q319 -2 319 0q2 68 0 70q0 82 -34.5 107.5t-110.5 25.5q-133 0 -457 -23v178q186 72 496 72q188 0 290.5 -79t102.5 -271v-758h-227l-60 119q-8 -14 -52 -45t-124 -59.5t-155 -26.5q-147 4 -227.5 88.5t-80.5 199.5zM254 1231v162h598 v-162h-598zM348 317q0 -61 26.5 -80.5t76.5 -19.5q117 0 249 86v199l-264 -21q-88 -6 -88 -110v-54z" />
<glyph unicode="&#x102;" horiz-adv-x="1417" d="M70 0l505 1499h326l488 -1499h-306l-106 332h-492l-108 -332h-307zM504 1866h119q0 -51 31.5 -83t82.5 -32q57 0 88 30.5t31 84.5h119q0 -106 -68.5 -170t-169 -64t-167 65t-66.5 169zM561 586h348l-168 536z" />
<glyph unicode="&#x103;" horiz-adv-x="1062" d="M61 276v103q0 131 78 215t242 84q319 -2 319 0q2 68 0 70q0 82 -34.5 107.5t-110.5 25.5q-133 0 -457 -23v178q186 72 496 72q188 0 290.5 -79t102.5 -271v-758h-227l-60 119q-8 -14 -52 -45t-124 -59.5t-155 -26.5q-147 4 -227.5 88.5t-80.5 199.5zM317 1464h119 q0 -51 33 -82.5t82 -31.5q57 0 88 30.5t31 83.5h118q0 -106 -67.5 -169.5t-169.5 -63.5q-98 0 -166 64.5t-68 168.5zM348 317q0 -61 26.5 -80.5t76.5 -19.5q117 0 249 86v199l-264 -21q-88 -6 -88 -110v-54z" />
<glyph unicode="&#x104;" horiz-adv-x="1417" d="M70 0l505 1499h326l488 -1499h-91q-76 -57 -91 -111.5t19 -85t91 -26.5v-158q-63 -14 -125 5.5t-98.5 64.5t-49 98t22.5 112.5t117 100.5h-101l-106 332h-492l-108 -332h-307zM561 586h348l-168 536z" />
<glyph unicode="&#x105;" horiz-adv-x="1062" d="M61 276v103q0 131 78 215t242 84q319 -2 319 0q2 68 0 70q0 82 -34.5 107.5t-110.5 25.5q-133 0 -457 -23v178q186 72 496 72q188 0 290.5 -79t102.5 -271v-758h-51q-78 -57 -93.5 -112.5t18.5 -85t91 -27.5v-156q-63 -16 -124.5 4.5t-98.5 64.5t-50 98t23.5 113.5 t118.5 100.5h-61l-60 119q-8 -14 -52 -45t-124 -59.5t-155 -26.5q-147 4 -227.5 88.5t-80.5 199.5zM348 317q0 -61 26.5 -80.5t76.5 -19.5q117 0 249 86v199l-264 -21q-88 -6 -88 -110v-54z" />
<glyph unicode="&#x106;" horiz-adv-x="1169" d="M86 754q0 190 22.5 323t79 235.5t157.5 153t251 50.5q291 0 522 -68v-225l-15 2q-15 2 -41 4t-59.5 5t-75.5 6t-85 5t-90 4t-88 2q-88 0 -136.5 -14t-87.5 -65.5t-53 -151.5t-14 -270q0 -266 60.5 -382t230.5 -116q96 0 209.5 4t179.5 8l65 4v-223q-199 -63 -522 -57 q-272 2 -391 196.5t-119 569.5zM586 1638l186 283h250l-250 -283h-186z" />
<glyph unicode="&#x107;" horiz-adv-x="1011" d="M78 545q0 215 48 341t123 169t187 43q303 0 500 -66v-176q-195 12 -377 12q-59 0 -88 -6t-57.5 -36.5t-38.5 -99.5t-10 -187q0 -201 38.5 -259.5t155.5 -58.5l391 19v-181q-45 -23 -93 -38t-112.5 -21t-94 -8t-114.5 -2h-100q-82 0 -142.5 24.5t-111.5 84t-77.5 171 t-26.5 275.5zM469 1223l184 284h252l-250 -284h-186z" />
<glyph unicode="&#x108;" horiz-adv-x="1169" d="M86 754q0 190 22.5 323t79 235.5t157.5 153t251 50.5q291 0 522 -68v-225l-15 2q-15 2 -41 4t-59.5 5t-75.5 6t-85 5t-90 4t-88 2q-88 0 -136.5 -14t-87.5 -65.5t-53 -151.5t-14 -270q0 -266 60.5 -382t230.5 -116q96 0 209.5 4t179.5 8l65 4v-223q-199 -63 -522 -57 q-272 2 -391 196.5t-119 569.5zM360 1638l222 279h213l198 -279h-190l-121 123l-129 -123h-193z" />
<glyph unicode="&#x109;" horiz-adv-x="1011" d="M78 545q0 215 48 341t123 169t187 43q303 0 500 -66v-176q-195 12 -377 12q-59 0 -88 -6t-57.5 -36.5t-38.5 -99.5t-10 -187q0 -201 38.5 -259.5t155.5 -58.5l391 19v-181q-45 -23 -93 -38t-112.5 -21t-94 -8t-114.5 -2h-100q-82 0 -142.5 24.5t-111.5 84t-77.5 171 t-26.5 275.5zM238 1223l219 276h213l198 -276h-190l-121 123l-127 -123h-192z" />
<glyph unicode="&#x10a;" horiz-adv-x="1169" d="M86 754q0 190 22.5 323t79 235.5t157.5 153t251 50.5q291 0 522 -68v-225l-15 2q-15 2 -41 4t-59.5 5t-75.5 6t-85 5t-90 4t-88 2q-88 0 -136.5 -14t-87.5 -65.5t-53 -151.5t-14 -270q0 -266 60.5 -382t230.5 -116q96 0 209.5 4t179.5 8l65 4v-223q-199 -63 -522 -57 q-272 2 -391 196.5t-119 569.5zM555 1688v155q0 51 49 51h148q47 0 47 -51v-155q0 -47 -47 -48h-148q-49 1 -49 48z" />
<glyph unicode="&#x10b;" horiz-adv-x="1011" d="M78 545q0 215 48 341t123 169t187 43q303 0 500 -66v-176q-195 12 -377 12q-59 0 -88 -6t-57.5 -36.5t-38.5 -99.5t-10 -187q0 -201 38.5 -259.5t155.5 -58.5l391 19v-181q-45 -23 -93 -38t-112.5 -21t-94 -8t-114.5 -2h-100q-82 0 -142.5 24.5t-111.5 84t-77.5 171 t-26.5 275.5zM461 1272v155q0 51 49 52h147q47 0 48 -52v-155q0 -47 -48 -47h-147q-49 0 -49 47z" />
<glyph unicode="&#x10c;" horiz-adv-x="1169" d="M86 754q0 190 22.5 323t79 235.5t157.5 153t251 50.5q291 0 522 -68v-225l-15 2q-15 2 -41 4t-59.5 5t-75.5 6t-85 5t-90 4t-88 2q-88 0 -136.5 -14t-87.5 -65.5t-53 -151.5t-14 -270q0 -266 60.5 -382t230.5 -116q96 0 209.5 4t179.5 8l65 4v-223q-199 -63 -522 -57 q-272 2 -391 196.5t-119 569.5zM377 1917h192l129 -123l119 123h193l-209 -279h-213z" />
<glyph unicode="&#x10d;" horiz-adv-x="1011" d="M78 545q0 215 48 341t123 169t187 43q303 0 500 -66v-176q-195 12 -377 12q-59 0 -88 -6t-57.5 -36.5t-38.5 -99.5t-10 -187q0 -201 38.5 -259.5t155.5 -58.5l391 19v-181q-45 -23 -93 -38t-112.5 -21t-94 -8t-114.5 -2h-100q-82 0 -142.5 24.5t-111.5 84t-77.5 171 t-26.5 275.5zM240 1501h190l129 -123l121 123h190l-208 -278h-213z" />
<glyph unicode="&#x10e;" horiz-adv-x="1355" d="M125 0v1499h637q520 0 520 -756q0 -346 -128 -544.5t-392 -198.5h-637zM336 1905h190l129 -123l121 123h191l-209 -277h-213zM412 256h327q256 0 256 489q0 285 -63.5 392.5t-192.5 107.5h-327v-989z" />
<glyph unicode="&#x10f;" horiz-adv-x="1243" d="M78 539q0 141 13 236t50 174t109 117t182 38q176 0 330 -72v576h287v-1608h-238l-49 111q-59 -47 -150.5 -85t-179.5 -38q-190 0 -272 141.5t-82 409.5zM365 549q0 -174 34.5 -245t108.5 -71q150 0 254 66v539q-104 41 -254 41q-76 0 -109.5 -66.5t-33.5 -263.5z M1151 1599h199v-137l-23 -274h-153l-21 274z" />
<glyph unicode="&#x110;" horiz-adv-x="1355" d="M-8 696v135h133v668h637q520 0 520 -756q0 -346 -128 -544.5t-392 -198.5h-637v696h-133zM412 256h327q252 0 252 489q0 281 -63.5 388.5t-188.5 107.5h-327v-410h227v-135h-227v-440z" />
<glyph unicode="&#x111;" horiz-adv-x="1153" d="M72 539q0 141 13 236t50 174t108.5 117t182.5 38q176 0 330 -72v207h-219v133h219v236h284v-236h136v-133h-136v-1239h-235l-49 111q-59 -47 -150.5 -85t-179.5 -38q-193 0 -273.5 140.5t-80.5 410.5zM358 549q0 -174 35 -245t107 -71q152 0 256 66v539q-109 41 -256 41 q-74 0 -108 -66.5t-34 -263.5z" />
<glyph unicode="&#x112;" horiz-adv-x="1161" d="M119 295v893q0 92 29.5 157.5t81 97.5t103.5 44t111 12q528 -14 660 -33v-237h-592q-49 0 -74.5 -19.5t-28.5 -39t-3 -56.5v-233l606 -21v-237l-606 -19v-233q0 -39 10 -62.5t32.5 -32t38 -10.5t45.5 -2h572v-235q-117 -16 -639 -35q-59 -2 -111.5 7t-110 37t-91 93.5 t-33.5 163.5zM340 1630v164h598v-164h-598z" />
<glyph unicode="&#x113;" horiz-adv-x="1075" d="M78 549q0 176 24.5 282.5t86 166t144.5 79t220 19.5q133 0 208 -11.5t138.5 -51.5t89 -119.5t25.5 -213.5q0 -274 -303 -274h-346q0 -135 49 -171t180 -36q258 0 399 23v-195q-154 -57 -557 -57q-203 0 -280.5 127t-77.5 432zM258 1221v161h598v-161h-598zM365 633h272 q90 0 90 82q0 104 -27.5 133t-130.5 29q-68 0 -98.5 -5.5t-60 -29t-37.5 -72.5t-8 -137z" />
<glyph unicode="&#x116;" horiz-adv-x="1161" d="M119 295v893q0 92 29.5 157.5t81 97.5t103.5 44t111 12q528 -14 660 -33v-237h-592q-49 0 -74.5 -19.5t-28.5 -39t-3 -56.5v-233l606 -21v-237l-606 -19v-233q0 -39 10 -62.5t32.5 -32t38 -10.5t45.5 -2h572v-235q-117 -16 -639 -35q-59 -2 -111.5 7t-110 37t-91 93.5 t-33.5 163.5zM543 1677v156q0 51 49 51h147q47 0 47 -51v-156q0 -47 -47 -47h-147q-49 0 -49 47z" />
<glyph unicode="&#x117;" horiz-adv-x="1075" d="M78 549q0 176 24.5 282.5t86 166t144.5 79t220 19.5q133 0 208 -11.5t138.5 -51.5t89 -119.5t25.5 -213.5q0 -274 -303 -274h-346q0 -135 49 -171t180 -36q258 0 399 23v-195q-154 -57 -557 -57q-203 0 -280.5 127t-77.5 432zM365 633h272q90 0 90 82q0 104 -27.5 133 t-130.5 29q-68 0 -98.5 -5.5t-60 -29t-37.5 -72.5t-8 -137zM434 1268v155q0 51 49 52h148q47 0 47 -52v-155q0 -47 -47 -47h-148q-49 0 -49 47z" />
<glyph unicode="&#x118;" horiz-adv-x="1161" d="M119 295v893q0 92 29.5 157.5t81 97.5t103.5 44t111 12q528 -14 660 -33v-237h-592q-49 0 -74.5 -19.5t-28.5 -39t-3 -56.5v-233l606 -21v-237l-606 -19v-233q0 -39 10 -62.5t32.5 -32t38 -10.5t45.5 -2h572v-235h-2q-76 -57 -91.5 -112.5t18.5 -85.5t91 -28v-155 q-102 -25 -189 36.5t-85 162t123 169.5l-504 -22q-59 -2 -111.5 7t-110 37t-91 93.5t-33.5 163.5z" />
<glyph unicode="&#x119;" horiz-adv-x="1075" d="M78 549q0 176 24.5 282.5t86 166t144.5 79t220 19.5q133 0 208 -11.5t138.5 -51.5t89 -119.5t25.5 -213.5q0 -274 -303 -274h-346q0 -135 49 -171t180 -36q258 0 399 23v-195q-78 -57 -93 -112.5t18.5 -85t91.5 -27.5v-158q-72 -16 -140.5 13.5t-104.5 82t-26.5 122 t76.5 124.5q-127 -16 -379 -16q-203 0 -280.5 127t-77.5 432zM365 633h272q90 0 90 82q0 104 -27.5 133t-130.5 29q-68 0 -98.5 -5.5t-60 -29t-37.5 -72.5t-8 -137z" />
<glyph unicode="&#x11a;" horiz-adv-x="1161" d="M119 295v893q0 92 29.5 157.5t81 97.5t103.5 44t111 12q528 -14 660 -33v-237h-592q-49 0 -74.5 -19.5t-28.5 -39t-3 -56.5v-233l606 -21v-237l-606 -19v-233q0 -39 10 -62.5t32.5 -32t38 -10.5t45.5 -2h572v-235q-117 -16 -639 -35q-59 -2 -111.5 7t-110 37t-91 93.5 t-33.5 163.5zM338 1905h192l129 -123l119 123h193l-209 -277h-213z" />
<glyph unicode="&#x11b;" horiz-adv-x="1075" d="M78 549q0 176 24.5 282.5t86 166t144.5 79t220 19.5q133 0 208 -11.5t138.5 -51.5t89 -119.5t25.5 -213.5q0 -274 -303 -274h-346q0 -135 49 -171t180 -36q258 0 399 23v-195q-154 -57 -557 -57q-203 0 -280.5 127t-77.5 432zM248 1493h192l129 -123l119 123h193 l-209 -276h-213zM365 633h272q90 0 90 82q0 104 -27.5 133t-130.5 29q-68 0 -98.5 -5.5t-60 -29t-37.5 -72.5t-8 -137z" />
<glyph unicode="&#x11c;" horiz-adv-x="1257" d="M86 757.5q0 141.5 11.5 248t44 206t86 164t141.5 102.5t206 38q309 0 576 -66v-223q-2 0 -34 4t-84 9t-113.5 9t-136 8.5t-140.5 4.5q-164 0 -217 -109t-53 -399q0 -295 50 -394.5t206 -101.5q63 0 127.5 23.5t97.5 47.5l33 23v269h-209v182q117 49 356 49q90 0 140 -4 v-848h-205l-78 100q-111 -102 -318 -110q-123 -4 -213 34.5t-142 104.5t-83 171.5t-40 210.5t-9 246.5zM369 1638l219 279h213l198 -279h-190l-121 123l-127 -123h-192z" />
<glyph unicode="&#x11d;" horiz-adv-x="1146" d="M72 209q0 154 127 194q-119 76 -119 302q0 387 377 387h661v-170l-121 -37q2 -2 9.5 -21.5t9.5 -27t8 -28t8 -35.5t4 -43t2 -58q0 -66 -16 -125.5t-54 -116.5t-116 -91t-186 -34h-252q-82 0 -82 -47q0 -55 82 -55h334q152 0 236.5 -81t84.5 -241v-119q0 -135 -78 -225 t-262 -90h-307q-152 0 -246 80t-94 235v138l96 100q-106 62 -106 209zM254 1221l219 278h213l199 -278h-191l-121 122l-127 -122h-192zM367 705q0 -168 131 -168h114q139 0 140 168q-4 86 -35 120.5t-107 34.5h-108q-80 0 -107.5 -40.5t-27.5 -114.5zM371 -23v-180 q0 -74 31.5 -97.5t97.5 -23.5h168q72 0 94 29t22 86v80q0 98 -106 100h-221z" />
<glyph unicode="&#x11e;" horiz-adv-x="1257" d="M86 757.5q0 141.5 11.5 248t44 206t86 164t141.5 102.5t206 38q309 0 576 -66v-223q-2 0 -34 4t-84 9t-113.5 9t-136 8.5t-140.5 4.5q-164 0 -217 -109t-53 -399q0 -295 50 -394.5t206 -101.5q63 0 127.5 23.5t97.5 47.5l33 23v269h-209v182q117 49 356 49q90 0 140 -4 v-848h-205l-78 100q-111 -102 -318 -110q-123 -4 -213 34.5t-142 104.5t-83 171.5t-40 210.5t-9 246.5zM434 1872h119q0 -51 31.5 -83t83.5 -32q57 0 87.5 31t30.5 84h119q0 -106 -68.5 -170t-169 -64t-167 65t-66.5 169z" />
<glyph unicode="&#x11f;" horiz-adv-x="1146" d="M72 209q0 154 127 194q-119 76 -119 302q0 387 377 387h661v-170l-121 -37q2 -2 9.5 -21.5t9.5 -27t8 -28t8 -35.5t4 -43t2 -58q0 -66 -16 -125.5t-54 -116.5t-116 -91t-186 -34h-252q-82 0 -82 -47q0 -55 82 -55h334q152 0 236.5 -81t84.5 -241v-119q0 -135 -78 -225 t-262 -90h-307q-152 0 -246 80t-94 235v138l96 100q-106 62 -106 209zM334 1454h119q0 -51 32.5 -83t81.5 -32q57 0 88 31t31 84h119q0 -106 -68.5 -169.5t-169.5 -63.5q-98 0 -165.5 64.5t-67.5 168.5zM367 705q0 -168 131 -168h114q139 0 140 168q-4 86 -35 120.5 t-107 34.5h-108q-80 0 -107.5 -40.5t-27.5 -114.5zM371 -23v-180q0 -74 31.5 -97.5t97.5 -23.5h168q72 0 94 29t22 86v80q0 98 -106 100h-221z" />
<glyph unicode="&#x120;" horiz-adv-x="1257" d="M86 757.5q0 141.5 11.5 248t44 206t86 164t141.5 102.5t206 38q309 0 576 -66v-223q-2 0 -34 4t-84 9t-113.5 9t-136 8.5t-140.5 4.5q-164 0 -217 -109t-53 -399q0 -295 50 -394.5t206 -101.5q63 0 127.5 23.5t97.5 47.5l33 23v269h-209v182q117 49 356 49q90 0 140 -4 v-848h-205l-78 100q-111 -102 -318 -110q-123 -4 -213 34.5t-142 104.5t-83 171.5t-40 210.5t-9 246.5zM545 1686v155q0 51 49 51h147q47 0 47 -51v-155q0 -47 -47 -48h-147q-49 1 -49 48z" />
<glyph unicode="&#x121;" horiz-adv-x="1146" d="M72 209q0 154 127 194q-119 76 -119 302q0 387 377 387h661v-170l-121 -37q2 -2 9.5 -21.5t9.5 -27t8 -28t8 -35.5t4 -43t2 -58q0 -66 -16 -125.5t-54 -116.5t-116 -91t-186 -34h-252q-82 0 -82 -47q0 -55 82 -55h334q152 0 236.5 -81t84.5 -241v-119q0 -135 -78 -225 t-262 -90h-307q-152 0 -246 80t-94 235v138l96 100q-106 62 -106 209zM367 705q0 -168 131 -168h114q139 0 140 168q-4 86 -35 120.5t-107 34.5h-108q-80 0 -107.5 -40.5t-27.5 -114.5zM371 -23v-180q0 -74 31.5 -97.5t97.5 -23.5h168q72 0 94 29t22 86v80q0 98 -106 100 h-221zM453 1270v155q0 51 49 52h147q47 0 47 -52v-155q0 -47 -47 -47h-147q-49 0 -49 47z" />
<glyph unicode="&#x122;" horiz-adv-x="1257" d="M86 757.5q0 141.5 11.5 248t44 206t86 164t141.5 102.5t206 38q309 0 576 -66v-223q-2 0 -34 4t-84 9t-113.5 9t-136 8.5t-140.5 4.5q-164 0 -217 -109t-53 -399q0 -295 50 -394.5t206 -101.5q63 0 127.5 23.5t97.5 47.5l33 23v269h-209v182q117 49 356 49q90 0 140 -4 v-848h-205l-78 100q-111 -102 -318 -110q-123 -4 -213 34.5t-142 104.5t-83 171.5t-40 210.5t-9 246.5zM518 -207q0 49 47 49h154q45 0 45 -49v-227q0 -154 -164 -151q-71 9 -72 10v90q20 0 32.5 4t18 12t6.5 14t1 17v24h-21q-47 0 -47 47v160z" />
<glyph unicode="&#x123;" horiz-adv-x="1146" d="M72 209q0 166 127 194q-119 76 -119 302q0 387 377 387h661v-170l-121 -37q2 -2 9.5 -21.5t9.5 -27t8 -28t8 -35.5t4 -43t2 -58q0 -66 -16 -125.5t-54 -116.5t-116 -91t-186 -34h-252q-82 0 -82 -49q0 -23 13 -35t25.5 -15t43.5 -5l327 -39q162 -16 245 -89t83 -243v-68 q0 -135 -78 -225t-262 -90h-307q-152 0 -246 80t-94 235v150l106 98q-116 64 -116 199zM367 705q0 -180 131 -181h114q139 0 140 181q-4 94 -35 130.5t-107 36.5h-108q-135 1 -135 -167zM371 -33v-170q0 -74 31.5 -97.5t97.5 -23.5h168q72 0 94 29t22 86v41q0 84 -125 100 l-194 23zM442 1264v227q0 154 165 150l71 -9v-88q-57 2 -57 -47v-27h20q45 0 45 -45v-161q0 -49 -45 -50h-156q-43 1 -43 50z" />
<glyph unicode="&#x124;" horiz-adv-x="1302" d="M125 0v1499h287v-643h514v643h286v-1499h-286v594h-514v-594h-287zM352 1632l221 277h213l197 -277h-188l-121 123l-129 -123h-193z" />
<glyph unicode="&#x125;" d="M-160 1726l219 277h213l199 -277h-190l-121 123l-127 -123h-193zM6 0v1604h287v-633q63 47 96 67.5t102.5 44t147.5 23.5q324 0 324 -381v-725h-287v729q0 147 -119 148q-82 0 -138.5 -21.5t-125.5 -73.5v-782h-287z" />
<glyph unicode="&#x126;" horiz-adv-x="1404" d="M31 1057v133h129v309h286v-309h515v309h286v-309h127v-133h-127v-1057h-286v594h-515v-594h-286v1057h-129zM446 856h515v201h-515v-201z" />
<glyph unicode="&#x127;" horiz-adv-x="1155" d="M-16 1237v135h139v232h289v-232h229v-135h-229v-266q8 6 51 31.5t56 32.5t50 25.5t60.5 26t60.5 13.5t74 6q174 2 244.5 -101.5t70.5 -279.5v-725h-288v727q-4 78 -32 114t-93 36q-131 -2 -254 -95v-782h-289v1237h-139z" />
<glyph unicode="&#x128;" horiz-adv-x="501" d="M-84 1745q131 143 248 143q49 -2 116.5 -36.5t100.5 -34.5q80 -4 188 77l49 -122q-125 -139 -231 -140q-51 2 -121.5 37t-107.5 35q-25 0 -44.5 -3t-41 -12.5t-32.5 -14.5t-38 -20.5t-37 -21.5zM125 0v1499h287v-1499h-287z" />
<glyph unicode="&#x129;" horiz-adv-x="471" d="M-115 1333q131 143 248 144q49 -2 116.5 -37t100.5 -35q80 -4 189 78l49 -123q-129 -139 -232 -139q-51 2 -121.5 36.5t-107.5 34.5q-18 0 -33.5 -1t-30 -6t-24.5 -8t-26.5 -11.5t-23.5 -12.5t-26.5 -16t-28.5 -16zM94 0v1087h287v-1087h-287z" />
<glyph unicode="&#x12a;" horiz-adv-x="501" d="M-31 1632v162h598v-162h-598zM125 0v1499h287v-1499h-287z" />
<glyph unicode="&#x12b;" horiz-adv-x="471" d="M-61 1221v163h598v-163h-598zM94 0v1087h287v-1087h-287z" />
<glyph unicode="&#x12e;" horiz-adv-x="501" d="M83 -214q-13 54 22.5 113.5t117.5 100.5h-98v1499h287v-1499h-74q-47 -35 -71.5 -70.5t-25.5 -63.5t13 -49.5t41 -32.5t61 -9v-156q-63 -16 -124.5 4.5t-98.5 64.5t-50 98z" />
<glyph unicode="&#x12f;" horiz-adv-x="464" d="M42 -214q-13 54 22.5 113.5t117.5 100.5h-94v1087h287v-1087h-78q-76 -57 -91.5 -112.5t18.5 -85t91 -27.5v-156q-63 -16 -124.5 4.5t-98.5 64.5t-50 98zM78 1249v181q0 53 49 53h215q45 0 45 -53v-181q0 -47 -45 -47h-215q-49 0 -49 47z" />
<glyph unicode="&#x130;" horiz-adv-x="501" d="M125 0v1499h287v-1499h-287zM145 1679v156q0 51 50 51h147q47 0 47 -51v-156q0 -47 -47 -47h-147q-50 0 -50 47z" />
<glyph unicode="&#x131;" horiz-adv-x="471" d="M94 0v1087h287v-1087h-287z" />
<glyph unicode="&#x134;" horiz-adv-x="729" d="M55 47l4 223q94 -8 159 -5t99.5 49t34.5 149v1036h287v-1161q0 -231 -109 -301q-82 -51 -237.5 -47t-237.5 57zM178 1632l221 277h213l199 -277h-190l-121 123l-129 -123h-193z" />
<glyph unicode="&#x135;" horiz-adv-x="495" d="M-61 1221l221 305h211l198 -305h-180l-133 141l-135 -141h-182zM111 -553v1640h290v-1095q4 -352 -75 -545h-215z" />
<glyph unicode="&#x136;" horiz-adv-x="1286" d="M125 0v1499h274v-627h121l381 627h334l-459 -751l459 -748h-334l-381 618h-119v-618h-276zM518 -197q0 49 45 50h156q43 0 43 -50v-227q0 -154 -164 -150q-71 9 -72 9v90q57 -2 58 45v27h-21q-45 0 -45 47v159z" />
<glyph unicode="&#x137;" horiz-adv-x="1140" d="M94 0v1602h287v-879h59l308 364h364l-407 -473l407 -614h-342l-330 504h-59v-504h-287zM440 -197q0 49 47 50h156q43 0 43 -50v-227q0 -154 -164 -150l-71 9v90q57 -2 57 45v27h-21q-47 0 -47 47v159z" />
<glyph unicode="&#x138;" horiz-adv-x="1165" d="M94 0v1087h287v-440h104l306 440h344l-392 -546l353 -541h-336l-281 430h-96l-2 -430h-287z" />
<glyph unicode="&#x139;" horiz-adv-x="1103" d="M125 291v1208h287v-1128q0 -39 10 -62.5t32.5 -32t38 -10.5t46.5 -2h514v-264h-617q-311 0 -311 291zM174 1632l186 285h250l-250 -285h-186z" />
<glyph unicode="&#x13a;" horiz-adv-x="641" d="M94 387v1217h287v-1172q0 -109 22.5 -152.5t71.5 -60.5q123 -43 137 -43v-176h-237q-139 0 -210 89t-71 298zM172 1726l186 285h250l-250 -285h-186z" />
<glyph unicode="&#x13b;" horiz-adv-x="1103" d="M125 291v1208h287v-1128q0 -39 10 -62.5t32.5 -32t38 -10.5t46.5 -2h514v-264h-617q-311 0 -311 291zM479 -190q0 49 47 49h154q45 0 45 -49v-228q0 -154 -164 -150q-71 9 -72 9v88q25 0 38.5 8t15.5 16.5t2 22.5v27h-19q-47 0 -47 45v162z" />
<glyph unicode="&#x13c;" horiz-adv-x="641" d="M94 387v1217h287v-1172q0 -109 22.5 -152.5t71.5 -60.5q123 -43 137 -43v-176h-237q-139 0 -210 89t-71 298zM229 -193q0 49 45 50h156q43 0 43 -50v-227q0 -152 -164 -150l-71 9v90q20 0 32.5 4t17.5 12.5t6 14.5t1 16v25h-21q-45 0 -45 47v159z" />
<glyph unicode="&#x13d;" horiz-adv-x="1103" d="M125 291v1208h287v-1128q0 -39 10 -62.5t32.5 -32t38 -10.5t46.5 -2h514v-264h-617q-311 0 -311 291zM539 1444v137h196v-137l-20 -275h-154z" />
<glyph unicode="&#x13e;" horiz-adv-x="733" d="M94 387v1217h287v-1172q0 -113 20.5 -152.5t73.5 -60.5q123 -43 137 -43v-176h-237q-147 0 -214 87t-67 300zM514 1464v138h197v-138l-21 -274h-153z" />
<glyph unicode="&#x141;" horiz-adv-x="1167" d="M29 625v147l159 68v659h287v-536l232 98l-2 -146l-230 -100v-444q0 -39 10.5 -62.5t33 -32t37.5 -10.5t46 -2h514v-264h-614q-313 0 -314 291v401z" />
<glyph unicode="&#x142;" horiz-adv-x="731" d="M23 717v147l153 66v674h287v-551l235 102v-147l-235 -103v-473q0 -109 22.5 -152.5t71.5 -60.5q123 -43 137 -43v-176h-237q-139 0 -210 89t-71 298v397z" />
<glyph unicode="&#x143;" horiz-adv-x="1388" d="M125 0v1499h291l594 -969v969h286v-1499h-286l-596 958v-958h-289zM627 1632l184 285h252l-250 -285h-186z" />
<glyph unicode="&#x144;" d="M94 0v1087h230l57 -116q66 47 97.5 67.5t100 44t146.5 23.5q326 0 326 -381v-725h-287v729q0 147 -121 148q-82 0 -138 -21.5t-124 -73.5v-782h-287zM475 1229l187 282h249l-249 -282h-187z" />
<glyph unicode="&#x145;" horiz-adv-x="1388" d="M125 0v1499h291l594 -969v969h286v-1499h-286l-596 958v-958h-289zM580 -197q0 49 47 50h155q43 0 43 -50v-227q0 -154 -164 -150l-71 9v90q57 -2 57 45v27h-20q-47 0 -47 47v159z" />
<glyph unicode="&#x146;" d="M94 0v1087h230l57 -116q66 47 97.5 67.5t100 44t146.5 23.5q326 0 326 -381v-725h-287v729q0 147 -121 148q-82 0 -138 -21.5t-124 -73.5v-782h-287zM442 -197q0 49 47 50h154q45 0 45 -50v-227q0 -154 -164 -150l-71 9v90q57 -2 57 45v27h-21q-47 0 -47 47v159z" />
<glyph unicode="&#x147;" horiz-adv-x="1388" d="M125 0v1499h291l594 -969v969h286v-1499h-286l-596 958v-958h-289zM403 1909h193l129 -123l119 123h192l-209 -277h-213z" />
<glyph unicode="&#x148;" d="M94 0v1087h230l57 -116q66 47 97.5 67.5t100 44t146.5 23.5q326 0 326 -381v-725h-287v729q0 147 -121 148q-82 0 -138 -21.5t-124 -73.5v-782h-287zM266 1507h191l129 -123l121 123h190l-207 -278h-213z" />
<glyph unicode="&#x14a;" horiz-adv-x="1386" d="M125 0v1499h291l592 -958v958h286v-1499v-150q0 -104 -30.5 -178.5t-80.5 -112.5t-117 -61.5t-140.5 -24.5t-147.5 1v207q8 2 40 6t43 6t38 8t37 13t27.5 21.5t24.5 32t13.5 43t6.5 58.5v131l-594 958l-2 -958h-287z" />
<glyph unicode="&#x14b;" horiz-adv-x="1140" d="M94 0v1087h230l57 -116q16 10 58 37.5t62.5 39t58.5 29t78 23.5t87 6q326 0 326 -381v-725l-2 -139q-2 -115 -45 -198t-112 -125t-125 -60.5t-120 -26.5l-74 156q49 18 74 31.5t56.5 40t45 69.5t15.5 105v147v729q0 147 -121 148q-82 0 -138 -21.5t-124 -73.5v-782h-287z " />
<glyph unicode="&#x14c;" horiz-adv-x="1374" d="M102 739q0 205 32 349.5t80 225.5t132 126t163 57t196 12q100 0 168.5 -8t143.5 -34.5t123 -79t89 -136.5t59.5 -212t18.5 -300q0 -195 -29 -332t-76 -217.5t-128 -125t-164 -58.5t-205 -14q-102 0 -173 8t-146 33.5t-122 77t-87 132.5t-57.5 204.5t-17.5 291.5zM389 739 q0 -209 26.5 -309t90 -137t199.5 -37q127 0 191.5 37t94 140.5t29.5 305.5q0 174 -15.5 275.5t-58.5 153t-94 64.5t-147 13q-76 0 -119 -7t-87 -33.5t-63.5 -81t-33 -148t-13.5 -236.5zM406 1632v162h598v-162h-598z" />
<glyph unicode="&#x14d;" horiz-adv-x="1146" d="M78 528q0 328 108.5 449t386.5 121q281 0 388.5 -123t107.5 -447q0 -305 -105.5 -421.5t-390.5 -116.5q-279 0 -387 121.5t-108 416.5zM274 1221v163h598v-163h-598zM365 528q0 -139 22.5 -205.5t62 -84t123.5 -17.5q90 0 129 17.5t59.5 82t20.5 207.5q0 119 -7 182.5 t-33.5 101.5t-62.5 47t-106 9q-92 0 -132 -22.5t-58 -92t-18 -225.5z" />
<glyph unicode="&#x150;" horiz-adv-x="1374" d="M102 739q0 205 32 349.5t80 225.5t132 126t163 57t196 12q100 0 168.5 -8t143.5 -34.5t123 -79t89 -136.5t59.5 -212t18.5 -300q0 -195 -29 -332t-76 -217.5t-128 -125t-164 -58.5t-205 -14q-102 0 -173 8t-146 33.5t-122 77t-87 132.5t-57.5 204.5t-17.5 291.5zM389 739 q0 -209 26.5 -309t90 -137t199.5 -37q127 0 191.5 37t94 140.5t29.5 305.5q0 174 -15.5 275.5t-58.5 153t-94 64.5t-147 13q-76 0 -119 -7t-87 -33.5t-63.5 -81t-33 -148t-13.5 -236.5zM453 1632l184 285h252l-250 -285h-186zM770 1632l186 285h252l-250 -285h-188z" />
<glyph unicode="&#x151;" horiz-adv-x="1146" d="M78 528q0 328 108.5 449t386.5 121q281 0 388.5 -123t107.5 -447q0 -305 -105.5 -421.5t-390.5 -116.5q-279 0 -387 121.5t-108 416.5zM322 1221l184 282h252l-250 -282h-186zM365 528q0 -139 22.5 -205.5t62 -84t123.5 -17.5q90 0 129 17.5t59.5 82t20.5 207.5 q0 119 -7 182.5t-33.5 101.5t-62.5 47t-106 9q-92 0 -132 -22.5t-58 -92t-18 -225.5zM641 1221l184 282h252l-250 -282h-186z" />
<glyph unicode="&#x152;" horiz-adv-x="2064" d="M102 739q0 205 32 349.5t80 225.5t132 126t163 57t196 12q281 0 397 -102q76 100 241 92q506 -14 639 -33v-237h-571q-49 0 -74.5 -19.5t-28.5 -39t-3 -56.5v-233l583 -21v-237l-583 -19v-233q0 -51 22.5 -76t43 -28t61.5 -3h550v-235q-51 -8 -205.5 -16.5t-283.5 -13.5 l-129 -5q-193 -8 -270 92q-119 -94 -389 -94q-102 0 -173 8t-146 33.5t-122 77t-87 132.5t-57.5 204.5t-17.5 291.5zM389 739q0 -209 26.5 -309t90 -137t199.5 -37q125 0 189 37t94 140.5t30 305.5q0 141 -12.5 232.5t-32 147t-61.5 83t-87 35.5t-120 8q-78 0 -120 -7 t-86 -33.5t-64.5 -81t-33 -148t-12.5 -236.5z" />
<glyph unicode="&#x153;" horiz-adv-x="1777" d="M78 528q0 328 108.5 449t386.5 121q238 0 342 -92q51 51 131 70.5t211.5 19.5t206 -11.5t138 -51.5t89 -119.5t25.5 -213.5q0 -274 -303 -274h-344q-2 -129 49 -168t180 -39q258 0 398 23v-195q-152 -57 -557 -57q-160 0 -232 84q-100 -84 -334 -84q-279 0 -387 121.5 t-108 416.5zM365 528q0 -139 22.5 -205.5t62 -84t123.5 -17.5q141 0 175 57.5t34 270.5q0 201 -38.5 260t-170.5 59q-92 0 -132 -22.5t-58 -92t-18 -225.5zM1069 633h270q90 0 91 82q0 104 -27 133t-129 29q-125 0 -168 -42t-37 -202z" />
<glyph unicode="&#x154;" horiz-adv-x="1243" d="M104 0v1499h656q193 0 301 -106.5t108 -360.5q0 -106 -18 -186t-39.5 -122t-61.5 -74t-61.5 -40t-58.5 -20l284 -590h-323l-248 567l-252 29v-596h-287zM393 821h340q80 0 114 41t34 170q0 121 -37 167t-111 46h-340v-424zM530 1628l185 283h252l-250 -283h-187z" />
<glyph unicode="&#x155;" horiz-adv-x="854" d="M94 0v1087h242l45 -137q147 147 311 148q92 0 121 -13v-276q-86 6 -158 6q-98 0 -161.5 -24.5t-112.5 -96.5v-694h-287zM379 1223l184 282h252l-250 -282h-186z" />
<glyph unicode="&#x156;" horiz-adv-x="1243" d="M104 0v1499h656q193 0 301 -106.5t108 -360.5q0 -106 -18 -186t-39.5 -122t-61.5 -74t-61.5 -40t-58.5 -20l284 -590h-323l-248 567l-252 29v-596h-287zM393 821h340q80 0 114 41t34 170q0 121 -37 167t-111 46h-340v-424zM489 -188q0 49 46 49h155q45 0 45 -49v-228 q0 -57 -24.5 -93t-59.5 -46t-69.5 -11t-59.5 4l-24 5v88q57 -2 57 47v27h-20q-46 0 -46 45v162z" />
<glyph unicode="&#x157;" horiz-adv-x="854" d="M84 0v1087h242l45 -137q152 147 313 148q92 0 121 -13v-276q-86 6 -158 6q-98 0 -161.5 -24.5t-114.5 -96.5v-694h-287zM98 -197q0 49 45 50h156q45 0 45 -50v-227q0 -57 -24.5 -93t-59.5 -46t-69.5 -11t-59.5 4l-25 5v90q57 -2 58 45v27h-21q-45 0 -45 47v159z" />
<glyph unicode="&#x158;" horiz-adv-x="1243" d="M104 0v1499h656q193 0 301 -106.5t108 -360.5q0 -106 -18 -186t-39.5 -122t-61.5 -74t-61.5 -40t-58.5 -20l284 -590h-323l-248 567l-252 29v-596h-287zM309 1909h191l129 -123l121 123h190l-207 -277h-213zM393 821h340q80 0 114 41t34 170q0 121 -37 167t-111 46h-340 v-424z" />
<glyph unicode="&#x159;" horiz-adv-x="854" d="M94 0v1087h242l45 -137q147 147 311 148q92 0 121 -13v-276q-86 6 -158 6q-98 0 -161.5 -24.5t-112.5 -96.5v-694h-287zM137 1499h193l129 -123l119 123h192l-209 -278h-213z" />
<glyph unicode="&#x15a;" horiz-adv-x="1208" d="M102 995v129q0 209 107.5 296t298.5 91q354 6 579 -59v-225q-219 20 -501 20q-109 2 -153 -23.5t-44 -121.5v-74q0 -86 35 -114.5t125 -28.5h237q104 0 178 -37t110 -100.5t51.5 -127t15.5 -133.5v-100q0 -121 -35 -205t-97.5 -125t-130 -57t-151.5 -16q-367 0 -580 61 v225q225 -23 523 -22q184 0 184 129v80q0 72 -28.5 106.5t-106.5 34.5h-230q-387 0 -387 397zM535 1634l186 285h250l-250 -285h-186z" />
<glyph unicode="&#x15b;" horiz-adv-x="1040" d="M61 711v94q0 293 283 293q487 0 582 -56v-180h-494q-51 0 -67.5 -17.5t-16.5 -58.5v-49q0 -33 12.5 -48t27.5 -18t44 -3h258q147 0 218 -77t71 -206v-111q0 -154 -76 -219t-190 -65q-514 0 -607 59v178h515q72 0 71 70v51q0 37 -14 53.5t-57 16.5h-254q-306 0 -306 293z M432 1225l184 284h252l-250 -284h-186z" />
<glyph unicode="&#x15c;" horiz-adv-x="1208" d="M102 995v129q0 209 107.5 296t298.5 91q354 6 579 -59v-225q-219 20 -501 20q-109 2 -153 -23.5t-44 -121.5v-74q0 -86 35 -114.5t125 -28.5h237q104 0 178 -37t110 -100.5t51.5 -127t15.5 -133.5v-100q0 -121 -35 -205t-97.5 -125t-130 -57t-151.5 -16q-367 0 -580 61 v225q225 -23 523 -22q184 0 184 129v80q0 72 -28.5 106.5t-106.5 34.5h-230q-387 0 -387 397zM317 1634l222 279h213l198 -279h-190l-121 123l-129 -123h-193z" />
<glyph unicode="&#x15d;" horiz-adv-x="1040" d="M61 711v94q0 293 283 293q487 0 582 -56v-180h-494q-51 0 -67.5 -17.5t-16.5 -58.5v-49q0 -33 12.5 -48t27.5 -18t44 -3h258q147 0 218 -77t71 -206v-111q0 -154 -76 -219t-190 -65q-514 0 -607 59v178h515q72 0 71 70v51q0 37 -14 53.5t-57 16.5h-254q-306 0 -306 293z M207 1221l221 278h213l197 -278h-191l-119 122l-129 -122h-192z" />
<glyph unicode="&#x15e;" horiz-adv-x="1208" d="M102 995v129q0 209 107.5 296t298.5 91q354 6 579 -59v-225q-219 20 -501 20q-109 2 -153 -23.5t-44 -121.5v-74q0 -86 35 -114.5t125 -28.5h237q104 0 178 -37t110 -100.5t51.5 -127t15.5 -133.5v-100q0 -121 -35 -205t-97.5 -125t-130 -57t-151.5 -16q-367 0 -580 61 v225q225 -23 523 -22q184 0 184 129v80q0 72 -28.5 106.5t-106.5 34.5h-230q-387 0 -387 397zM401 -256l91 31q41 16 51 43.5t10 91.5h192q0 -160 -49 -224.5t-180 -64.5h-115v123z" />
<glyph unicode="&#x15f;" horiz-adv-x="1040" d="M61 711v94q0 293 283 293q487 0 582 -56v-180h-494q-51 0 -67.5 -17.5t-16.5 -58.5v-49q0 -33 12.5 -48t27.5 -18t44 -3h258q147 0 218 -77t71 -206v-111q0 -154 -76 -219t-190 -65q-514 0 -607 59v178h515q72 0 71 70v51q0 37 -14 53.5t-57 16.5h-254q-306 0 -306 293z M168 -244l92 31q41 16 50 43t9 92h195q0 -160 -49 -224.5t-180 -64.5h-117v123z" />
<glyph unicode="&#x160;" horiz-adv-x="1208" d="M102 995v129q0 209 107.5 296t298.5 91q354 6 579 -59v-225q-219 20 -501 20q-109 2 -153 -23.5t-44 -121.5v-74q0 -86 35 -114.5t125 -28.5h237q104 0 178 -37t110 -100.5t51.5 -127t15.5 -133.5v-100q0 -121 -35 -205t-97.5 -125t-130 -57t-151.5 -16q-367 0 -580 61 v225q225 -23 523 -22q184 0 184 129v80q0 72 -28.5 106.5t-106.5 34.5h-230q-387 0 -387 397zM317 1913h193l129 -123l119 123h192l-209 -279h-213z" />
<glyph unicode="&#x161;" horiz-adv-x="1040" d="M61 711v94q0 293 283 293q487 0 582 -56v-180h-494q-51 0 -67.5 -17.5t-16.5 -58.5v-49q0 -33 12.5 -48t27.5 -18t44 -3h258q147 0 218 -77t71 -206v-111q0 -154 -76 -219t-190 -65q-514 0 -607 59v178h515q72 0 71 70v51q0 37 -14 53.5t-57 16.5h-254q-306 0 -306 293z M217 1503h191l129 -123l120 123h191l-209 -278h-213z" />
<glyph unicode="&#x162;" horiz-adv-x="1214" d="M63 1235v264h1108v-264h-415v-1235h-287v1235h-406zM195 -254l90 31q41 16 51 44.5t10 92.5h193q0 -160 -49.5 -225.5t-180.5 -65.5h-114v123z" />
<glyph unicode="&#x163;" horiz-adv-x="780" d="M31 870v160l176 60l47 303h240v-303h243v-220h-243v-436q0 -111 22.5 -153.5t69.5 -61.5q123 -43 137 -43v-176h-250q-266 0 -266 389v481h-176zM117 -256l90 31q41 16 51 44.5t10 92.5h193q0 -160 -49.5 -225.5t-180.5 -65.5h-114v123z" />
<glyph unicode="&#x164;" horiz-adv-x="1214" d="M63 1235v264h1108v-264h-415v-1235h-287v1235h-406zM293 1909h190l129 -123l121 123h193l-209 -277h-213z" />
<glyph unicode="&#x165;" horiz-adv-x="845" d="M31 870v160l176 60l47 303h240v-303h243v-220h-243v-436q0 -111 22.5 -153.5t69.5 -61.5q123 -43 137 -43v-176h-250q-266 0 -266 389v481h-176zM602 1640h199v-137l-23 -274h-151l-23 274z" />
<glyph unicode="&#x166;" horiz-adv-x="1196" d="M45 1235v264h1108v-264h-418v-348h201v-133h-201v-754h-286v754h-201v133h201v348h-404z" />
<glyph unicode="&#x167;" horiz-adv-x="765" d="M31 870v160l176 60l47 303h240v-303h243v-220h-243v-211h168v-133h-168v-92q0 -121 19 -158.5t75 -56.5q119 -41 127 -41v-178h-240q-137 0 -202.5 89t-65.5 300v137h-146v133h146v211h-176z" />
<glyph unicode="&#x168;" horiz-adv-x="1359" d="M125 655v844h287v-844q0 -170 29.5 -257t88 -115.5t172.5 -28.5q152 0 215.5 82t63.5 319v844h289v-844q0 -109 -12.5 -197.5t-30 -153t-50 -116t-61.5 -83t-76 -55t-79.5 -35t-87 -17.5t-85 -7t-86.5 -1h-19q-110 0 -166 4t-144 38t-133 100.5t-80 198t-35 324.5z M344 1741q131 143 248 143q51 -2 117.5 -37t99.5 -35q84 -4 190 78l50 -123q-131 -141 -234 -139q-51 2 -121.5 37t-107.5 35q-20 0 -39 -3t-32 -7t-31.5 -12.5t-26.5 -13.5t-31 -18.5t-31 -17.5z" />
<glyph unicode="&#x169;" d="M78 365v722h287v-729q0 -145 120 -145q82 0 139.5 21.5t123.5 72.5v780h286v-1087h-231l-55 115q-12 -8 -73 -45t-83.5 -48.5t-76.5 -25.5t-114 -14q-323 0 -323 383zM205 1333q127 143 246 144q51 -2 118.5 -37t100.5 -35q78 -4 188 78l49 -123q-129 -139 -231 -139 q-51 2 -122 36.5t-108 34.5q-18 0 -33.5 -1t-29.5 -6t-24.5 -8t-27 -11.5t-23.5 -12.5t-26.5 -16t-27.5 -16z" />
<glyph unicode="&#x16a;" horiz-adv-x="1359" d="M125 655v844h287v-844q0 -170 29.5 -257t88 -115.5t172.5 -28.5q152 0 215.5 82t63.5 319v844h289v-844q0 -109 -12.5 -197.5t-30 -153t-50 -116t-61.5 -83t-76 -55t-79.5 -35t-87 -17.5t-85 -7t-86.5 -1h-19q-110 0 -166 4t-144 38t-133 100.5t-80 198t-35 324.5z M397 1632v162h598v-162h-598z" />
<glyph unicode="&#x16b;" d="M78 365v722h287v-729q0 -145 120 -145q82 0 139.5 21.5t123.5 72.5v780h286v-1087h-231l-55 115q-12 -8 -73 -45t-83.5 -48.5t-76.5 -25.5t-114 -14q-323 0 -323 383zM256 1221v163h598v-163h-598z" />
<glyph unicode="&#x16c;" horiz-adv-x="1359" d="M125 655v844h287v-844q0 -170 29.5 -257t88 -115.5t172.5 -28.5q152 0 215.5 82t63.5 319v844h289v-844q0 -109 -12.5 -197.5t-30 -153t-50 -116t-61.5 -83t-76 -55t-79.5 -35t-87 -17.5t-85 -7t-86.5 -1h-19q-110 0 -166 4t-144 38t-133 100.5t-80 198t-35 324.5z M461 1866h119q0 -51 32.5 -83t81.5 -32q57 0 88 30.5t31 84.5h119q0 -106 -67.5 -170t-170.5 -64q-98 0 -165.5 65t-67.5 169z" />
<glyph unicode="&#x16d;" d="M78 365v722h287v-729q0 -145 120 -145q82 0 139.5 21.5t123.5 72.5v780h286v-1087h-231l-55 115q-12 -8 -73 -45t-83.5 -48.5t-76.5 -25.5t-114 -14q-323 0 -323 383zM328 1454h118q0 -51 33 -83t82 -32q57 0 88 31t31 84h119q0 -106 -67.5 -169.5t-170.5 -63.5 q-100 0 -166.5 64.5t-66.5 168.5z" />
<glyph unicode="&#x16e;" horiz-adv-x="1359" d="M125 655v844h287v-844q0 -170 29.5 -257t88 -115.5t172.5 -28.5q152 0 215.5 82t63.5 319v844h289v-844q0 -109 -12.5 -197.5t-30 -153t-50 -116t-61.5 -83t-76 -55t-79.5 -35t-87 -17.5t-85 -7t-86.5 -1h-19q-110 0 -166 4t-144 38t-133 100.5t-80 198t-35 324.5z M489 1841q0 88 61.5 149.5t147.5 61.5t146.5 -61.5t60.5 -149.5t-60.5 -148.5t-146.5 -60.5t-147.5 60.5t-61.5 148.5zM608 1841q0 -37 27 -61.5t63.5 -24.5t61 24.5t24.5 61.5t-24.5 62.5t-61 25.5t-63.5 -25.5t-27 -62.5z" />
<glyph unicode="&#x16f;" d="M78 365v722h287v-729q0 -145 120 -145q82 0 139.5 21.5t123.5 72.5v780h286v-1087h-231l-55 115q-12 -8 -73 -45t-83.5 -48.5t-76.5 -25.5t-114 -14q-323 0 -323 383zM348 1429.5q0 88.5 61.5 149.5t147.5 61t146.5 -61t60.5 -149.5t-60.5 -148.5t-146.5 -60t-147.5 60 t-61.5 148.5zM467 1429.5q0 -36.5 26.5 -61.5t63.5 -25t61.5 25t24.5 61.5t-24.5 62.5t-61.5 26t-63.5 -26t-26.5 -62.5z" />
<glyph unicode="&#x170;" horiz-adv-x="1359" d="M125 655v844h287v-844q0 -170 29.5 -257t88 -115.5t172.5 -28.5q152 0 215.5 82t63.5 319v844h289v-844q0 -109 -12.5 -197.5t-30 -153t-50 -116t-61.5 -83t-76 -55t-79.5 -35t-87 -17.5t-85 -7t-86.5 -1h-19q-110 0 -166 4t-144 38t-133 100.5t-80 198t-35 324.5z M444 1632l185 285h252l-250 -285h-187zM764 1632l184 285h252l-250 -285h-186z" />
<glyph unicode="&#x171;" d="M78 365v722h287v-729q0 -145 120 -145q82 0 139.5 21.5t123.5 72.5v780h286v-1087h-231l-55 115q-12 -8 -73 -45t-83.5 -48.5t-76.5 -25.5t-114 -14q-323 0 -323 383zM303 1221l184 282h252l-250 -282h-186zM623 1221l184 282h252l-250 -282h-186z" />
<glyph unicode="&#x172;" horiz-adv-x="1359" d="M125 655v844h287v-844q0 -170 29.5 -257t88 -115.5t172.5 -28.5q152 0 215.5 82t63.5 319v844h289v-844q0 -129 -17.5 -231t-44 -171t-69.5 -119t-84 -76.5t-99.5 -43t-103.5 -20.5t-104 -4q-72 -55 -85.5 -108.5t20.5 -83t91 -27.5v-156q-61 -16 -122.5 3.5t-98.5 63.5 t-51.5 96t18.5 110.5t111 101.5q-63 0 -108.5 4t-103 19.5t-96 42t-79.5 76.5t-64.5 118.5t-39 171t-15.5 233.5z" />
<glyph unicode="&#x173;" d="M78 365v722h287v-729q0 -145 120 -145q82 0 139.5 21.5t123.5 72.5v780h286v-1087h-231l-55 115q-12 -8 -73 -45t-83.5 -48.5t-76.5 -25.5t-114 -14q-323 0 -323 383zM724 -216q-13 54 23.5 113.5t118.5 100.5h113q-76 -57 -91.5 -112.5t18.5 -86t91 -26.5v-158 q-63 -16 -124.5 4.5t-98.5 65.5t-50 99z" />
<glyph unicode="&#x174;" horiz-adv-x="2031" d="M70 1499h305l332 -1112l270 1112h307l-104 -387l237 -731l275 1118h303l-412 -1499h-332l-202 614l-177 -614h-331zM735 1628l219 277h213l199 -277h-190l-121 123l-127 -123h-193z" />
<glyph unicode="&#x175;" horiz-adv-x="1691" d="M31 1087h307l217 -751l195 751h286l-75 -292l180 -459l215 751h307l-352 -1087h-320l-164 393l-122 -393h-326zM547 1217l221 276h213l199 -276h-191l-121 122l-129 -122h-192z" />
<glyph unicode="&#x176;" horiz-adv-x="1343" d="M70 1499h311l293 -719l321 719h312l-494 -1034v-465h-287v465zM362 1628l222 277h213l198 -277h-190l-121 123l-129 -123h-193z" />
<glyph unicode="&#x177;" horiz-adv-x="1183" d="M33 1087h301l188 -761q6 -20 15.5 -36t18.5 -23t22.5 -12t21.5 -6t20 -2l11 -1l217 841h299l-377 -1431l-149 -209h-205l153 553q-250 0 -323 276zM274 1221l222 278h213l198 -278h-190l-121 122l-129 -122h-193z" />
<glyph unicode="&#x178;" horiz-adv-x="1343" d="M70 1499h311l293 -719l321 719h312l-494 -1034v-465h-287v465zM307 1753q0 49 36 84t85 35t84 -34t35 -85q0 -49 -35 -85t-84 -36t-85 36t-36 85zM829 1753q0 49 36 84t85 35t84 -34t35 -85q0 -49 -35 -85t-84 -36t-85 36t-36 85z" />
<glyph unicode="&#x179;" horiz-adv-x="1138" d="M55 0v264l686 971h-686v264h1032v-264l-653 -971h653v-264h-1032zM477 1632l187 285h249l-249 -285h-187z" />
<glyph unicode="&#x17a;" horiz-adv-x="970" d="M47 846v241h879v-241l-467 -602h467v-242h-848v240l487 604h-518zM393 1221l185 282h251l-249 -282h-187z" />
<glyph unicode="&#x17b;" horiz-adv-x="1138" d="M55 0v264l686 971h-686v264h1032v-264l-653 -971h653v-264h-1032zM449 1679v156q0 51 49 51h147q47 0 47 -51v-156q0 -47 -47 -47h-147q-49 0 -49 47z" />
<glyph unicode="&#x17c;" horiz-adv-x="970" d="M47 846v241h879v-241l-467 -602h467v-242h-848v240l487 604h-518zM365 1268v155q0 51 49 52h147q47 0 47 -52v-155q0 -47 -47 -47h-147q-49 0 -49 47z" />
<glyph unicode="&#x17d;" horiz-adv-x="1138" d="M55 0v264l686 971h-686v264h1032v-264l-653 -971h653v-264h-1032zM254 1909h192l129 -123l119 123h193l-209 -277h-213z" />
<glyph unicode="&#x17e;" horiz-adv-x="970" d="M47 846v241h879v-241l-467 -602h467v-242h-848v240l487 604h-518zM170 1499h192l130 -123l118 123h193l-209 -278h-213z" />
<glyph unicode="&#x192;" horiz-adv-x="1214" d="M31 -367l28 179h127q41 0 74 23.5t53.5 56t38 87t25.5 96.5t18 105l92 588h-178l37 219h176l8 49q96 602 414 602q35 0 67.5 -3t55.5 -7t44.5 -11t32.5 -11t24.5 -11.5t15.5 -7.5l-27 -178h-125q-41 0 -73.5 -22.5t-53 -53t-38 -86t-27 -98.5t-21.5 -113l-6 -49h236 l-35 -219h-238l-92 -588q-45 -293 -137 -445.5t-273 -152.5q-80 0 -149 17.5t-94 33.5z" />
<glyph unicode="&#x2c6;" horiz-adv-x="786" d="M78 1087l221 277h213l197 -277h-191l-121 123l-127 -123h-192z" />
<glyph unicode="&#x2c7;" horiz-adv-x="786" d="M78 1364h190l129 -123l121 123h191l-207 -277h-213z" />
<glyph unicode="&#x2d8;" horiz-adv-x="622" d="M78 1319h119q0 -51 31.5 -83t82.5 -32q57 0 88 31t31 84h119q0 -106 -67.5 -170t-170.5 -64q-100 0 -166.5 65t-66.5 169z" />
<glyph unicode="&#x2d9;" horiz-adv-x="397" d="M78 1116v156q0 51 49 51h147q47 0 48 -51v-156q0 -47 -48 -47h-147q-49 0 -49 47z" />
<glyph unicode="&#x2da;" horiz-adv-x="569" d="M78 1294q0 88 61.5 149.5t147.5 61.5t146.5 -61.5t60.5 -149.5t-60.5 -148.5t-146.5 -60.5t-147.5 60.5t-61.5 148.5zM197 1294q0 -37 26.5 -61.5t63.5 -24.5t61.5 24.5t24.5 61.5t-24.5 62.5t-61.5 25.5t-63.5 -25.5t-26.5 -62.5z" />
<glyph unicode="&#x2db;" horiz-adv-x="428" d="M79 -214q-13 54 23.5 113.5t118.5 100.5h113q-47 -35 -71.5 -70.5t-25.5 -63.5t13 -49.5t40.5 -32.5t61.5 -9v-156q-63 -16 -124.5 4.5t-98.5 64.5t-50 98z" />
<glyph unicode="&#x2dc;" horiz-adv-x="858" d="M78 1200q131 143 248 143q49 -2 115.5 -36.5t101.5 -34.5q80 -4 188 78l49 -123q-129 -139 -231 -140q-51 2 -122 37t-108 35q-25 0 -44 -3t-40.5 -12t-33 -14.5t-38 -20.5t-36.5 -22z" />
<glyph unicode="&#x2dd;" horiz-adv-x="821" d="M31 1087l186 285h250l-250 -285h-186zM350 1087l185 285h251l-249 -285h-187z" />
<glyph unicode="&#x338;" horiz-adv-x="1290" d="M109 365v757q0 180 101 278.5t275 98.5h336q193 0 278 -101.5t85 -262.5v-770q0 -178 -95.5 -271.5t-269.5 -93.5h-336q-176 0 -275 92.5t-99 272.5zM395 547q0 -78 8 -92l402 772q-18 8 -47 8h-215q-84 0 -116 -44t-32 -101v-543zM471 281q29 -16 78 -17h199 q76 0 112.5 33t36.5 113v563q0 80 -16 98z" />
<glyph unicode="&#x3a9;" horiz-adv-x="1562" d="M100 807q0 100 18.5 194.5t68 189.5t124 164.5t195.5 113.5t276 44q184 0 318.5 -58t209 -161.5t109.5 -227.5t35 -271q0 -186 -45 -309.5t-162 -227.5l217 -20v-238h-512v262q133 104 174 220t41 306q0 68 -9 128.5t-34.5 123t-66.5 107.5t-112 73.5t-163 28.5 q-395 0 -395 -471q0 -184 39 -288.5t182 -227.5v-262h-495v242l227 20q-143 94 -191.5 222t-48.5 323z" />
<glyph unicode="&#x3c0;" horiz-adv-x="1320" d="M31 823v264h1161v-264h-186v-438q0 -98 31.5 -131t109.5 -33h143v-168q-94 -63 -256 -63q-315 0 -315 383v450h-248v-823h-287v823h-153z" />
<glyph unicode="&#x1e02;" horiz-adv-x="1236" d="M125 0v1499h618q217 0 319.5 -111.5t102.5 -289.5q0 -115 -51 -208t-153 -112q98 -18 163.5 -109t65.5 -229q0 -440 -442 -440h-623zM412 254h325q166 0 166 199q0 92 -41 151.5t-125 59.5h-325v-410zM412 905h313q158 0 158 170t-158 170h-313v-340zM512 1675v156 q0 51 49 51h148q47 0 47 -51v-156q0 -47 -47 -47h-148q-49 0 -49 47z" />
<glyph unicode="&#x1e03;" horiz-adv-x="1138" d="M82 0v1608h285v-576q154 72 331 72q209 0 282 -140.5t73 -424.5q0 -264 -82 -407.5t-273 -143.5q-88 0 -179 37.5t-150 85.5l-52 -111h-235zM104 1786v156q0 51 50 51h147q47 0 47 -51v-156q0 -47 -47 -47h-147q-50 0 -50 47zM369 299q104 -66 254 -66q74 0 108.5 71 t34.5 245q0 197 -35 263.5t-108 66.5q-145 0 -254 -41v-539z" />
<glyph unicode="&#x1e0a;" horiz-adv-x="1355" d="M125 0v1499h637q520 0 520 -756q0 -346 -128 -544.5t-392 -198.5h-637zM412 256h327q256 0 256 489q0 285 -63.5 392.5t-192.5 107.5h-327v-989zM524 1683v156q0 51 49 51h148q47 0 47 -51v-156q0 -47 -47 -47h-148q-49 0 -49 47z" />
<glyph unicode="&#x1e0b;" horiz-adv-x="1138" d="M78 539q0 141 13 236t50 174t109 117t182 38q176 0 330 -72v576h287v-1608h-238l-49 111q-156 -123 -330 -123q-190 0 -272 141.5t-82 409.5zM365 549q0 -174 34.5 -245t108.5 -71q150 0 254 66v539q-109 41 -254 41q-76 0 -109.5 -66.5t-33.5 -263.5zM782 1778v155 q0 51 49 52h148q47 0 47 -52v-155q0 -47 -47 -47h-148q-49 0 -49 47z" />
<glyph unicode="&#x1e1e;" horiz-adv-x="1161" d="M119 0v1184q0 168 95 243.5t230 71.5q528 -14 660 -33v-237h-592q-49 0 -74.5 -19.5t-28.5 -39t-3 -56.5v-233l606 -21v-237l-606 -19v-604h-287zM522 1675v156q0 51 49 51h148q47 0 47 -51v-156q0 -47 -47 -47h-148q-49 0 -49 47z" />
<glyph unicode="&#x1e1f;" horiz-adv-x="825" d="M31 868v185l170 34v203q0 152 73.5 236t247.5 84q154 0 275 -49v-170l-197 2q-43 0 -66.5 -8.5t-32.5 -36t-11.5 -49t-2.5 -76.5v-136h248v-219h-248v-868h-286v868h-170zM381 1798v156q0 51 49 51h148q47 0 47 -51v-156q0 -47 -47 -47h-148q-49 0 -49 47z" />
<glyph unicode="&#x1e40;" horiz-adv-x="1734" d="M86 0l131 1499h399l250 -1024l248 1024h397l140 -1499h-283l-98 1001l-242 -1001h-319l-252 1001l-88 -1001h-283zM743 1679v156q0 51 50 51h147q47 0 47 -51v-156q0 -47 -47 -47h-147q-50 0 -50 47z" />
<glyph unicode="&#x1e41;" horiz-adv-x="1792" d="M94 0v1087h230l57 -116q70 51 98.5 69.5t96 41t143.5 22.5q211 0 282 -141q190 141 392 141q324 0 323 -383v-721h-286v725q0 147 -121 147q-164 0 -267 -86q0 -4 1 -30.5t1 -32.5v-723h-286v725q0 147 -121 147q-80 0 -134 -20.5t-122 -71.5v-780h-287zM817 1274v156 q0 51 49 51h148q47 0 47 -51v-156q0 -47 -47 -47h-148q-49 0 -49 47z" />
<glyph unicode="&#x1e56;" horiz-adv-x="1232" d="M104 0v1499h646q82 0 146.5 -16.5t130 -62.5t102 -143t36.5 -241q0 -131 -27.5 -225t-67.5 -144.5t-100.5 -78t-109.5 -32.5t-110 -3q-57 2 -204 19.5t-155 21.5v-594h-287zM391 807h336q74 0 112 50t38 177q-2 211 -150 211h-336v-438zM457 1686v155q0 51 49 51h147 q47 0 47 -51v-155q0 -47 -47 -48h-147q-49 1 -49 48z" />
<glyph unicode="&#x1e57;" horiz-adv-x="1138" d="M94 -553v1640h236l49 -108q59 47 150.5 84t179.5 37q354 0 354 -551q0 -131 -13.5 -224.5t-50 -175t-109.5 -123.5t-181 -42q-178 0 -330 69v-606h-285zM379 250q109 -41 256 -41q74 0 107.5 66.5t33.5 261.5q0 176 -34.5 246.5t-106.5 70.5q-152 0 -256 -66v-538z M473 1280v156q0 51 49 51h148q47 0 47 -51v-156q0 -47 -47 -47h-148q-49 0 -49 47z" />
<glyph unicode="&#x1e60;" horiz-adv-x="1208" d="M102 995v129q0 209 107.5 296t298.5 91q354 6 579 -59v-225q-219 20 -501 20q-109 2 -153 -23.5t-44 -121.5v-74q0 -86 35 -114.5t125 -28.5h237q104 0 178 -37t110 -100.5t51.5 -127t15.5 -133.5v-100q0 -121 -35 -205t-97.5 -125t-130 -57t-151.5 -16q-367 0 -580 61 v225q225 -23 523 -22q184 0 184 129v80q0 72 -28.5 106.5t-106.5 34.5h-230q-387 0 -387 397zM483 1692v155q0 51 49 51h148q45 0 45 -51v-155q0 -47 -45 -47h-148q-49 0 -49 47z" />
<glyph unicode="&#x1e61;" horiz-adv-x="1040" d="M61 711v94q0 293 283 293q487 0 582 -56v-180h-494q-51 0 -67.5 -17.5t-16.5 -58.5v-49q0 -33 12.5 -48t27.5 -18t44 -3h258q147 0 218 -77t71 -206v-111q0 -154 -76 -219t-190 -65q-514 0 -607 59v178h515q72 0 71 70v51q0 37 -14 53.5t-57 16.5h-254q-306 0 -306 293z M420 1278v156q0 51 49 51h147q47 0 48 -51v-156q0 -47 -48 -47h-147q-49 0 -49 47z" />
<glyph unicode="&#x1e6a;" horiz-adv-x="1214" d="M63 1235v264h1108v-264h-415v-1235h-287v1235h-406zM487 1679v156q0 51 50 51h147q47 0 47 -51v-156q0 -47 -47 -47h-147q-50 0 -50 47z" />
<glyph unicode="&#x1e6b;" horiz-adv-x="780" d="M31 870v160l176 60l47 303h240v-303h243v-220h-243v-436q0 -111 22.5 -153.5t69.5 -61.5q123 -43 137 -43v-176h-250q-266 0 -266 389v481h-176zM236 1563v155q0 51 49 51h147q47 0 47 -51v-155q0 -47 -47 -47h-147q-49 0 -49 47z" />
<glyph unicode="&#x1e80;" horiz-adv-x="2031" d="M70 1499h305l332 -1112l270 1112h307l-104 -387l237 -731l275 1118h303l-412 -1499h-332l-202 614l-177 -614h-331zM698 1911h250l187 -283h-187z" />
<glyph unicode="&#x1e81;" horiz-adv-x="1691" d="M31 1087h307l217 -751l195 751h286l-75 -292l180 -459l215 751h307l-352 -1087h-320l-164 393l-122 -393h-326zM510 1499h252l184 -282h-186z" />
<glyph unicode="&#x1e82;" horiz-adv-x="2031" d="M70 1499h305l332 -1112l270 1112h307l-104 -387l237 -731l275 1118h303l-412 -1499h-332l-202 614l-177 -614h-331zM948 1628l187 283h249l-249 -283h-187z" />
<glyph unicode="&#x1e83;" horiz-adv-x="1691" d="M31 1087h307l217 -751l195 751h286l-75 -292l180 -459l215 751h307l-352 -1087h-320l-164 393l-122 -393h-326zM760 1217l186 282h250l-250 -282h-186z" />
<glyph unicode="&#x1e84;" horiz-adv-x="2031" d="M70 1499h305l332 -1112l270 1112h307l-104 -387l237 -731l275 1118h303l-412 -1499h-332l-202 614l-177 -614h-331zM653 1749q0 49 35 84t86 35q49 0 84 -35t35 -84t-35 -85t-84 -36q-51 0 -86 36t-35 85zM1176 1749q0 49 34.5 84t85.5 35q49 0 84 -35t35 -84t-34.5 -85 t-84.5 -36q-51 0 -85.5 36t-34.5 85z" />
<glyph unicode="&#x1e85;" horiz-adv-x="1691" d="M31 1087h307l217 -751l195 751h286l-75 -292l180 -459l215 751h307l-352 -1087h-320l-164 393l-122 -393h-326zM473 1337q0 49 36 84t87 35q49 0 84 -35t35 -84t-35 -84.5t-84 -35.5q-51 0 -87 35.5t-36 84.5zM995 1337q0 49 36 84t87 35q49 0 84 -35t35 -84t-35 -84.5 t-84 -35.5q-51 0 -87 35.5t-36 84.5z" />
<glyph unicode="&#x1ef2;" horiz-adv-x="1343" d="M70 1499h311l293 -719l321 719h312l-494 -1034v-465h-287v465zM344 1917h252l186 -285h-188z" />
<glyph unicode="&#x1ef3;" horiz-adv-x="1183" d="M33 1087h301l188 -761q6 -20 15.5 -36t18.5 -23t22.5 -12t21.5 -6t20 -2l11 -1l217 841h299l-377 -1431l-149 -209h-205l153 553q-250 0 -323 276zM256 1503h252l184 -282h-186z" />
<glyph unicode="&#x2000;" horiz-adv-x="1026" />
<glyph unicode="&#x2001;" horiz-adv-x="2052" />
<glyph unicode="&#x2002;" horiz-adv-x="1026" />
<glyph unicode="&#x2003;" horiz-adv-x="2052" />
<glyph unicode="&#x2004;" horiz-adv-x="684" />
<glyph unicode="&#x2005;" horiz-adv-x="513" />
<glyph unicode="&#x2006;" horiz-adv-x="342" />
<glyph unicode="&#x2007;" horiz-adv-x="342" />
<glyph unicode="&#x2008;" horiz-adv-x="256" />
<glyph unicode="&#x2009;" horiz-adv-x="410" />
<glyph unicode="&#x200a;" horiz-adv-x="114" />
<glyph unicode="&#x2010;" horiz-adv-x="724" d="M41 473v242h643v-242h-643z" />
<glyph unicode="&#x2011;" horiz-adv-x="724" d="M41 473v242h643v-242h-643z" />
<glyph unicode="&#x2012;" horiz-adv-x="724" d="M41 473v242h643v-242h-643z" />
<glyph unicode="&#x2013;" horiz-adv-x="1050" d="M41 467v244h969v-244h-969z" />
<glyph unicode="&#x2014;" horiz-adv-x="1507" d="M41 471v244h1425v-244h-1425z" />
<glyph unicode="&#x2018;" horiz-adv-x="530" d="M125 1057v272q0 175 175 191q52 5 95 -4v-113q-68 0 -67 -68v-43h24q53 0 54 -51v-184q0 -57 -54 -58h-176q-51 1 -51 58z" />
<glyph unicode="&#x2019;" horiz-adv-x="530" d="M125 1282v182q0 57 53 58h176q51 0 52 -58v-272q0 -175 -175 -191q-52 -5 -96 5v112q68 0 68 68v41h-25q-53 0 -53 55z" />
<glyph unicode="&#x201a;" horiz-adv-x="530" d="M125 53v183q0 59 53 59h176q51 0 52 -59v-271q0 -177 -175 -193q-52 -5 -96 5v112q68 0 68 68v43h-25q-53 0 -53 53z" />
<glyph unicode="&#x201c;" horiz-adv-x="870" d="M113 1055v272q0 175 174 191q52 5 96 -5v-112q-66 0 -66 -68v-41h25q53 0 53 -55v-182q0 -57 -53 -58h-178q-51 1 -51 58zM477 1055v272q0 68 27.5 113t68.5 59t81 18.5t68 0.5l28 -5v-112q-68 0 -68 -68v-41h25q53 0 53 -55v-182q0 -57 -53 -58h-177q-53 1 -53 58z" />
<glyph unicode="&#x201d;" horiz-adv-x="870" d="M113 1278v184q0 57 53 58h178q51 0 51 -58v-272q0 -68 -27.5 -113t-68.5 -59t-81 -18.5t-67 -0.5l-28 5v112q68 -2 67 68v41h-24q-53 0 -53 53zM477 1278v184q0 57 55 58h177q51 0 51 -58v-272q0 -175 -175 -191q-52 -5 -96 5v112q66 -2 66 68v41h-23q-55 0 -55 53z" />
<glyph unicode="&#x201e;" horiz-adv-x="870" d="M113 53v183q0 59 53 59h178q51 0 51 -59v-271q0 -70 -27.5 -114t-68.5 -59t-81 -19t-67 0l-28 4v112q68 0 67 68v43h-24q-53 0 -53 53zM477 53v183q0 59 55 59h177q51 0 51 -59v-271q0 -177 -175 -193q-52 -5 -96 5v112q66 0 66 68v43h-23q-55 0 -55 53z" />
<glyph unicode="&#x2020;" horiz-adv-x="901" d="M31 928v223l272 25l23 401h252l22 -401l270 -25v-223l-270 -27l-25 -1048h-251l-21 1048z" />
<glyph unicode="&#x2021;" horiz-adv-x="931" d="M31 299v223l276 31l-4 348l-272 27v223l272 25l23 401h252l22 -401l270 -25v-223l-270 -27l-6 -350l276 -29v-223l-284 -27l-11 -419h-251l-9 417z" />
<glyph unicode="&#x2022;" horiz-adv-x="632" d="M133 659v242q0 72 68 72h229q72 0 72 -72v-242q0 -66 -72 -65h-229q-68 -1 -68 65z" />
<glyph unicode="&#x2026;" horiz-adv-x="1652" d="M606 47v184q0 51 49 52h56h57h63h56h57q51 0 51 -52v-184q0 -47 -51 -47h-57h-56h-63h-57h-56q-49 0 -49 47z" />
<glyph unicode="&#x202f;" horiz-adv-x="410" />
<glyph unicode="&#x2030;" horiz-adv-x="2824" d="M66 983v250q0 135 63.5 200.5t212.5 65.5h207q145 0 207.5 -66.5t62.5 -199.5v-250q0 -137 -62.5 -202.5t-211.5 -65.5h-207q-147 0 -209.5 65.5t-62.5 202.5zM266 1016q0 -55 20.5 -78t78.5 -23h151q63 0 82.5 23t19.5 78v182q0 59 -21.5 79.5t-76.5 20.5h-151 q-59 0 -81 -20.5t-22 -79.5v-182zM426 0l915 1499h205l-907 -1499h-213zM1153 272v250q0 137 62.5 203t211.5 66h207q145 0 209 -67t64 -202v-250q0 -135 -63.5 -200.5t-213.5 -65.5h-207q-145 0 -207.5 65.5t-62.5 200.5zM1354 307q0 -55 20.5 -77.5t77.5 -22.5h150 q66 0 85 22.5t19 77.5v182q0 59 -22.5 80t-77.5 21h-150q-59 0 -80.5 -20.5t-21.5 -80.5v-182zM2007 272v250q0 137 62.5 203t211.5 66h207q145 0 209 -67t64 -202v-250q0 -135 -63.5 -200.5t-213.5 -65.5h-207q-145 0 -207.5 65.5t-62.5 200.5zM2208 307q0 -55 20.5 -77.5 t77.5 -22.5h152q63 0 82.5 22.5t19.5 77.5v182q0 59 -21.5 80t-76.5 21h-152q-59 0 -80.5 -20.5t-21.5 -80.5v-182z" />
<glyph unicode="&#x2039;" horiz-adv-x="729" d="M78 725l422 416l157 -156l-268 -260l273 -268l-152 -158z" />
<glyph unicode="&#x203a;" horiz-adv-x="729" d="M78 457l272 268l-266 260l156 156l422 -416l-433 -426z" />
<glyph unicode="&#x2044;" horiz-adv-x="659" d="M-141 0l733 1542h209l-733 -1542h-209z" />
<glyph unicode="&#x205f;" horiz-adv-x="513" />
<glyph unicode="&#x2070;" horiz-adv-x="950" d="M94 1018v489q0 252 266 252h242q256 0 256 -246v-495q0 -244 -256 -244h-244q-264 0 -264 244zM315 1065q0 -51 23.5 -69.5t73.5 -18.5h133q53 0 72.5 18.5t19.5 69.5v403q0 47 -19.5 66.5t-66.5 19.5h-143q-43 0 -64.5 -15t-25 -29.5t-3.5 -41.5v-403z" />
<glyph unicode="&#x2074;" horiz-adv-x="880" d="M25 1069l350 690h227l-291 -573h228v209l49 102h172v-311h100v-174l-100 -17v-219h-221v199h-467z" />
<glyph unicode="&#x2075;" horiz-adv-x="851" d="M86 799v176h393q57 0 73.5 20.5t16.5 61.5v67q0 25 -4 41.5t-23.5 31.5t-56.5 15h-137q-74 0 -74 -71h-188l31 618h635v-205h-441l-8 -180q63 49 252 33q119 -4 177.5 -73.5t58.5 -186.5v-131q0 -127 -74 -188.5t-185 -61.5q-260 0 -446 33z" />
<glyph unicode="&#x2076;" horiz-adv-x="897" d="M84 1292q2 260 69.5 361.5t184.5 113.5q180 23 463 -26v-172h-363q-45 0 -73.5 -18.5t-40 -56.5t-14.5 -65.5t-5 -74.5q121 31 281 30q141 0 195.5 -63.5t54.5 -175.5v-137q0 -233 -254 -234h-213q-68 0 -116 21.5t-89 75t-60.5 158.5t-19.5 263zM305 1188 q0 -209 123 -209h109q41 0 59 16.5t18 55.5v67q0 43 -14 56.5t-57 13.5h-238z" />
<glyph unicode="&#x2077;" horiz-adv-x="813" d="M23 1556v205h710l58 -94l-375 -893h-244l330 782h-479z" />
<glyph unicode="&#x2078;" horiz-adv-x="948" d="M102 1001v95q0 59 31 100t84 51q-115 45 -115 197v86q0 240 269 239h229q125 0 186.5 -55t61.5 -182v-70q2 -25 -4 -52.5t-32 -61t-71 -39.5q59 -10 83 -68.5t24 -120.5v-110q0 -139 -65.5 -188.5t-180.5 -49.5h-237q-86 0 -142.5 20.5t-80 59.5t-32 71.5t-8.5 77.5z M324 1036q0 -37 17 -52t65 -15h143q78 0 78 67v72q0 74 -76 74h-148q-43 0 -61 -17.5t-18 -56.5v-72zM324 1446q0 -76 79 -76h144q51 0 65.5 19.5t14.5 56.5v45q0 49 -20.5 65.5t-65.5 16.5h-129q-49 0 -68.5 -16.5t-19.5 -65.5v-45z" />
<glyph unicode="&#x2079;" horiz-adv-x="897" d="M70 1399v137q0 238 254 238h211q68 0 115.5 -21.5t88.5 -77t61.5 -163t20.5 -267.5q0 -182 -39 -290.5t-89 -144.5t-126 -44q-203 -27 -463 27v172h361q45 0 74.5 19.5t41 57t14.5 68.5t3 78q-106 -31 -276 -31q-143 0 -197.5 63.5t-54.5 178.5zM291 1427q0 -45 15.5 -59 t58.5 -14h233q0 215 -119 215h-112q-41 0 -58.5 -16.5t-17.5 -57.5v-68z" />
<glyph unicode="&#x2080;" horiz-adv-x="950" d="M94 -164v488q0 254 266 254h242q256 0 256 -246v-496q0 -246 -256 -246h-244q-264 0 -264 246zM315 -117q0 -53 23.5 -70.5t73.5 -17.5h133q53 0 72.5 17.5t19.5 68.5v406q0 47 -19.5 66.5t-66.5 19.5h-143q-43 0 -64.5 -15.5t-25 -30t-3.5 -40.5v-404z" />
<glyph unicode="&#x2081;" horiz-adv-x="552" d="M25 330v137l208 111h220v-988h-222v787z" />
<glyph unicode="&#x2082;" horiz-adv-x="825" d="M49 387v166q215 39 410 39q156 0 229.5 -80t73.5 -217q0 -213 -359 -500h359v-205h-707v197q481 332 482 485q0 66 -35 90.5t-123 24.5h-330z" />
<glyph unicode="&#x2083;" horiz-adv-x="843" d="M47 379v162q123 45 442 41q123 0 193 -69t70 -179v-62q0 -150 -117 -190q117 -45 117 -203v-47q0 -250 -273 -250h-47h-47h-43q-33 0 -46 1t-42 2t-43 3t-39 6.5t-42 7.5t-36.5 9t-38.5 12l2 162l330 2q84 0 113.5 16.5t29.5 63.5v27q0 49 -33.5 68.5t-101.5 21.5 l-256 10v176l256 16q74 2 105.5 20.5t31.5 63.5v25q0 84 -137 84h-348z" />
<glyph unicode="&#x2084;" horiz-adv-x="888" d="M25 -113l350 691h233l-284 -576h221v211l49 100h172v-311h100v-174l-100 -16v-218h-221v197h-473z" />
<glyph unicode="&#x2085;" horiz-adv-x="856" d="M86 -29l31 607h639v-205h-443l-10 -183q57 45 254 35q121 -6 179.5 -75.5t58.5 -184.5v-131q0 -127 -74 -188.5t-186 -61.5q-262 0 -449 33v176h395q57 0 74.5 20.5t17.5 59.5v70q0 25 -3 41t-22.5 30.5t-55.5 14.5h-142q-74 0 -74 -58h-190z" />
<glyph unicode="&#x2086;" horiz-adv-x="897" d="M84 111q2 260 69.5 361t184.5 112q199 25 463 -27v-170h-363q-45 0 -73.5 -18.5t-40 -56.5t-14.5 -66.5t-5 -75.5q121 31 281 31q141 0 195.5 -63.5t54.5 -174.5v-137q0 -236 -254 -236h-213q-68 0 -116 21.5t-89 76t-60.5 160t-19.5 263.5zM305 6q0 -211 123 -211h109 q41 0 59 16.5t18 55.5v67q0 43 -15 57.5t-56 14.5h-238z" />
<glyph unicode="&#x2087;" horiz-adv-x="813" d="M23 375v203h710l58 -95l-375 -893h-244l330 785h-479z" />
<glyph unicode="&#x2088;" horiz-adv-x="948" d="M102 -88q0 131 115 154q-115 45 -115 196v86q0 238 269 238h229q125 0 186.5 -54.5t61.5 -181.5v-69q2 -23 -4 -52.5t-33 -62.5t-70 -41q59 -10 83 -67.5t24 -120.5v-111q0 -137 -65.5 -186.5t-180.5 -49.5h-237q-86 0 -142.5 20.5t-80 58.5t-32 72t-8.5 79v92zM324 -76 v-69q0 -37 17 -52.5t65 -15.5h143q43 0 60.5 15.5t17.5 52.5v69q0 76 -76 76h-148q-43 0 -61 -17.5t-18 -58.5zM324 262q0 -76 79 -76h144q51 0 65.5 19.5t14.5 56.5v47q0 49 -20.5 64.5t-65.5 15.5h-129q-49 0 -68.5 -15.5t-19.5 -64.5v-47z" />
<glyph unicode="&#x2089;" horiz-adv-x="897" d="M70 215v139q0 238 254 238h211q68 0 115.5 -21.5t88.5 -77t61.5 -162t20.5 -265.5q0 -182 -39 -291t-89 -145t-126 -44q-182 -23 -463 23v172h361q45 0 74.5 19.5t41 57.5t14.5 68.5t3 77.5q-117 -31 -276 -31q-143 0 -197.5 63.5t-54.5 178.5zM291 244q0 -45 15.5 -59.5 t58.5 -14.5h233q0 217 -119 217h-112q-41 0 -58.5 -17.5t-17.5 -58.5v-67z" />
<glyph unicode="&#x20ac;" horiz-adv-x="1263" d="M31 512v139l157 17v139l-157 16v131l157 21q0 47 1 77.5t11.5 92t28 105.5t54 97.5t89 87t134.5 57.5t184 24q96 0 261 -20.5t276 -53.5v-209q-301 29 -469 29q-57 0 -101.5 -7.5t-75 -17.5t-50 -31.5t-31 -41t-17.5 -54.5t-7 -61.5t-1 -73.5l479 -17v-139l-479 -12v-139 l479 -17v-139q-31 0 -81 -2t-155.5 -5t-175 -5t-67.5 -4q0 -156 75 -211.5t208 -55.5q82 0 201.5 11.5t197.5 22.5l78 11v-204q-195 -82 -545 -82q-59 0 -113.5 8t-129 39t-129 82t-92.5 149.5t-38 229.5z" />
<glyph unicode="&#x2113;" horiz-adv-x="944" d="M47 520q39 33 117 115v569q0 150 95 229.5t271 79.5q135 0 226.5 -90t93.5 -256q0 -170 -120 -331.5t-279 -278.5v-100q0 -125 31.5 -176.5t150.5 -71.5l149 -31v-176h-79h-157h-79q-154 0 -228.5 85t-74.5 286v53q-16 -12 -68 -41zM451 856q164 207 143 352 q0 39 -36 61.5t-71.5 6.5t-35.5 -70v-350z" />
<glyph unicode="&#x2116;" horiz-adv-x="2265" d="M111 0v1241q0 100 57 169t141 89.5t171 9t157 -69t86 -145.5l295 -1013q8 -29 28.5 -24t20.5 30v872q0 180 94 262t250 82h510q156 -2 218.5 -85t62.5 -285q0 -184 -67 -266.5t-237 -86.5h-90q-178 4 -241.5 88t-63.5 346h217q0 -106 12.5 -156t31 -60.5t57.5 -10.5h65 q57 0 78 24.5t21 121.5q0 104 -21.5 130.5t-93.5 26.5q-164 4 -293 4q-121 0 -172 -34.5t-51 -135.5v-866q0 -115 -86 -187.5t-192.5 -83t-205 49t-120.5 180.5l-299 1024q-2 10 -8.5 15.5t-13.5 4.5t-14 -4.5t-11.5 -11.5t-4.5 -18v-1227h-288z" />
<glyph unicode="&#x2122;" horiz-adv-x="1443" d="M31 1335v164h575v-164h-192v-551h-189v551h-194zM641 784l78 715h194l123 -420l99 420h200l86 -715h-186l-39 377l-76 -377h-166l-94 377l-31 -377h-188z" />
<glyph unicode="&#x212e;" horiz-adv-x="1417" d="M94 545q0 231 172 393q172 154 445 154q252 0 426 -136q178 -137 190 -428h-981q-2 0 -5 1q-7 0 -10 -0.5t-6 -6.5t-3 -16v-273q0 -51 115.5 -120.5t273.5 -69.5q113 0 218 48t173 124h115q-119 -125 -232 -170q-119 -45 -274 -45q-283 0 -447 152q-170 157 -170 393z M322 582q0 -18 18 -19h731q25 0 26 2q1 3 1 13v272q0 66 -129 134.5t-260 68.5q-102 0 -196.5 -39t-142.5 -82t-48 -70v-280z" />
<glyph unicode="&#x2202;" horiz-adv-x="1298" d="M88 465q0 231 131 359t361 128q205 0 303 -116q-8 227 -74 321t-211 94q-106 0 -210.5 -31.5t-170.5 -72.5l-47 209q123 80 219 120t215 40q291 0 429 -189.5t138 -533.5q0 -233 -54 -407.5t-185 -285t-330 -110.5q-217 0 -365.5 123t-148.5 352zM373 471 q0 -104 68.5 -162.5t168.5 -58.5q72 0 125 44t80 111.5t38 126t11 105.5q-98 55 -237 55q-254 0 -254 -221z" />
<glyph unicode="&#x2206;" horiz-adv-x="1462" d="M31 0l637 1499h151l613 -1499h-1401zM424 254h676l-336 815z" />
<glyph unicode="&#x220f;" horiz-adv-x="1331" d="M31 1235v264h1272v-264h-156v-1235h-287v1235h-389v-1235h-287v1235h-153z" />
<glyph unicode="&#x2211;" horiz-adv-x="1169" d="M61 -139l439 692l-439 682v264h1078v-264h-725l436 -682l-436 -692h725v-271h-1078v271z" />
<glyph unicode="&#x2212;" horiz-adv-x="933" d="M41 608v242h852v-242h-852z" />
<glyph unicode="&#x221a;" horiz-adv-x="1349" d="M31 492v264h336l174 -365l471 1247h307l-617 -1638h-280l-252 492h-139z" />
<glyph unicode="&#x221e;" horiz-adv-x="1558" d="M78 698q0 354 340 355q217 0 358 -195q119 195 367 195q340 0 340 -355q0 -158 -79 -255t-261 -97q-117 0 -206 43t-165 154q-68 -113 -150.5 -155t-203.5 -42q-182 0 -261 97t-79 255zM295 698q0 -70 29.5 -107.5t107.5 -37.5q119 0 215 145q-39 59 -98.5 103.5 t-116.5 44.5q-61 0 -93 -21.5t-38 -49.5t-6 -77zM907 696q98 -143 219 -143q137 0 138 145q0 37 -4.5 58.5t-16.5 45t-42 34t-75 10.5q-127 0 -219 -150z" />
<glyph unicode="&#x222b;" horiz-adv-x="905" d="M31 -188h129q41 0 69.5 23.5t44 55t23.5 89t10 95.5t2 105v856q0 602 318 602q45 0 81.5 -4t64.5 -10t43 -12t34.5 -14.5t23.5 -10.5v-178h-122q-51 0 -84 -29.5t-47.5 -88t-19.5 -116t-5 -139.5v-856q0 -291 -69.5 -444.5t-243.5 -153.5q-176 0 -252 51v179z" />
<glyph unicode="&#x2248;" horiz-adv-x="1042" d="M78 532q164 145 301 146q61 0 152.5 -38t152.5 -38q20 0 37.5 1t36 6t30 8.5t32 13.5t28.5 14t32.5 18.5t34.5 18.5l52 -127q-53 -49 -83 -73.5t-88.5 -51.5t-115.5 -27q-51 0 -146.5 39t-158.5 39q-47 0 -86 -12t-86 -33.5t-82 -32.5zM78 903q164 145 301 146 q61 0 152.5 -38t152.5 -38q20 0 37.5 1t36 6t30 8t32 13.5t28.5 14.5t32.5 18.5t34.5 18.5l52 -129q-57 -51 -84 -73t-86.5 -49.5t-116.5 -27.5q-51 0 -146.5 39t-158.5 39q-47 0 -86 -12.5t-86 -34t-82 -31.5z" />
<glyph unicode="&#x2260;" horiz-adv-x="935" d="M31 377v248h307l113 188h-420v246h563l80 135h147l-80 -135h164v-246h-307l-113 -188h420v-248h-561l-92 -156h-148l93 156h-166z" />
<glyph unicode="&#x2264;" horiz-adv-x="921" d="M78 166v219h768v-219h-768zM78 754v264l768 272v-264l-463 -139l463 -158v-266z" />
<glyph unicode="&#x2265;" horiz-adv-x="921" d="M78 166v219h768v-219h-768zM78 463v266l463 158l-463 139v264l768 -272v-264z" />
<glyph unicode="&#x25ca;" horiz-adv-x="1048" d="M31 764l424 735h151l412 -735l-412 -764h-151zM315 764l215 -395l207 395l-207 375z" />
<glyph unicode="&#xe000;" horiz-adv-x="1085" d="M0 1085h1085v-1085h-1085v1085z" />
<glyph unicode="&#xfb00;" horiz-adv-x="1628" d="M31 868v185l202 34v183q0 55 12.5 106t43 101.5t92 81t149.5 30.5q162 0 287 -49v-172l-184 2q-39 0 -62.5 -9t-35 -33.5t-13.5 -48.5t-2 -69v-123h484v203q0 152 73.5 236t247.5 84q154 0 274 -49v-170l-196 2q-43 0 -66.5 -8.5t-33 -36t-11.5 -49t-2 -76.5v-136h246 v-219h-248v-868h-287v868h-485v-868h-287v868h-198z" />
<glyph unicode="&#xfb03;" horiz-adv-x="2062" d="M31 868v185l202 34v183q0 55 12.5 106t43 101.5t92 81t149.5 30.5q162 0 287 -49v-172l-184 2q-39 0 -62.5 -8t-34 -36t-12.5 -47t-4 -69l-2 -123h457v82q0 186 122 312.5t322 128.5q88 2 252 -15.5t225 -42.5v-172l-374 13q-260 8 -260 -236v-70l710 -20v-1067h-289v868 h-423v-868h-287v868h-455v-868h-289v868h-198z" />
<glyph unicode="&#xfb04;" horiz-adv-x="2254" d="M31 868v185l202 34v183q0 55 12.5 106t43 101.5t92 81t149.5 30.5q162 0 287 -49v-172l-184 2q-39 0 -62.5 -9t-35 -33.5t-13.5 -48.5t-2 -69l-2 -123h463v93q0 428 403 428l611 -4v-1172q0 -113 20.5 -152.5t73.5 -60.5q123 -43 137 -43v-176h-237q-147 0 -214 87 t-67 300v1004l-268 2q-90 0 -131 -45t-41 -168v-93h245v-219h-247v-868h-287v868h-461v-868h-289v868h-198z" />
<glyph unicode="&#xfb06;" horiz-adv-x="1816" d="M61 705v96q0 133 72 209.5t223 76.5h893l49 304h238v-304h244v-217h-244v-438q2 -121 21.5 -158.5t74.5 -56.5q117 -39 127 -39v-180h-241q-137 0 -203 90t-66 299v471h-817q-53 0 -68.5 -16.5t-15.5 -59.5v-49q0 -33 12.5 -49t27.5 -19t44 -3h258q147 0 218 -77t71 -204 v-107q0 -154 -76 -219t-190 -65q-514 0 -607 59v178h515q72 0 71 70v45q0 37 -15 54.5t-56 17.5h-254q-150 0 -228 68.5t-78 222.5z" />
<glyph horiz-adv-x="559" d="M133 0l31 1096h233l27 -1096h-291zM143 1266v184q0 47 47 47h181q49 0 49 -47v-184q0 -51 -49 -52h-181q-47 1 -47 52z" />
<glyph horiz-adv-x="1290" d="M109 365v553q0 180 101 278t275 98h336q362 0 363 -364v-565q0 -178 -95.5 -271.5t-269.5 -93.5h-336q-176 0 -275 92.5t-99 272.5zM395 412q0 -147 154 -148h199q76 0 112.5 33t36.5 113v475q0 145 -139 145h-215q-84 0 -116 -44t-32 -101v-473z" />
<glyph horiz-adv-x="751" d="M47 936v188l289 170h285v-1294h-287v1008z" />
<glyph horiz-adv-x="1206" d="M63 1047v213q311 55 623 51q442 0 442 -398q0 -109 -65.5 -221t-165.5 -199t-174 -140.5t-137 -88.5h538v-264h-1046v252q66 37 96.5 53.5t112.5 63.5t130 79.5t121.5 83t120 92.5t92.5 89t68.5 92t22.5 84q0 90 -56.5 125t-191.5 33h-531z" />
<glyph horiz-adv-x="1224" d="M78 1044v207q84 29 198.5 43.5t225 15.5t237.5 -1q170 -4 270.5 -100.5t100.5 -260.5v-108q0 -231 -156 -289q156 -66 156 -305v-88q0 -178 -99.5 -272.5t-285.5 -94.5h-75h-80q-15 0 -71.5 1t-77 2t-67.5 4t-72.5 7.5t-63.5 10.5t-68.5 14t-59.5 18l2 209h520 q115 0 162 26t47 114v65q0 86 -48 119t-148 37l-408 12v234l408 20q109 4 154.5 35t45.5 110v74q0 141 -200 141h-547z" />
<glyph horiz-adv-x="1269" d="M31 254l534 1040h316l-449 -901h371v342l65 158h222v-500h151v-221l-151 -49v-324h-287v324h-703z" />
<glyph horiz-adv-x="1249" d="M139 61h578q150 0 149 146v137q0 31 -4 52.5t-17.5 45t-42 35.5t-73.5 12h-192q-125 0 -125 -120h-271l45 925h912v-264h-635l-17 -338q53 41 142 49q61 8 225 0q172 -8 256 -107t84 -265v-211q0 -100 -35 -175t-93 -116t-121.5 -60.5t-131.5 -19.5q-209 0 -324.5 8 t-308.5 41v225z" />
<glyph horiz-adv-x="1245" d="M102 786q0 195 29 338.5t81 221t111.5 115.5t131.5 44q283 25 651 -41v-217h-512q-205 0 -205 -379q170 41 414 41q203 0 277.5 -91t74.5 -257v-225q0 -338 -362 -338h-293q-96 0 -164 34t-123 117.5t-83 242t-28 394.5zM389 657q0 -90 6 -151.5t25.5 -121.5t59.5 -91 t104 -31h155q70 0 100.5 25.5t30.5 101.5v137q0 76 -29.5 103.5t-95.5 27.5h-356z" />
<glyph horiz-adv-x="1134" d="M47 1030v264h965l78 -131l-502 -1368h-314l461 1235h-688z" />
<glyph horiz-adv-x="1277" d="M117 344v150q0 92 43 153.5t119 77.5q-68 29 -106 80t-47 100t-9 117v133q0 354 383 354h309q178 0 266 -84t88 -272v-109q0 -25 -4 -56.5t-18.5 -71t-48 -70.5t-82.5 -39q45 -8 77.5 -41t48 -77t21.5 -84t6 -79v-176q0 -109 -30.5 -182.5t-86 -107t-111.5 -47 t-128 -13.5h-307q-106 0 -182 26.5t-114 61.5t-59.5 89t-24.5 88t-3 79zM403 375q0 -63 34 -92t114 -29h190q135 0 136 121v143q0 127 -129 127h-207q-137 0 -138 -127v-143zM403 1012q0 -127 138 -127h204q80 0 106 32.5t26 94.5v96q0 86 -33 117.5t-101 31.5h-192 q-80 0 -114 -27.5t-34 -121.5v-96z" />
<glyph horiz-adv-x="1245" d="M94 733v223q0 340 363 340h293q96 0 163.5 -33.5t123 -117.5t83 -243t27.5 -394q0 -375 -99.5 -541t-252.5 -180q-322 -27 -652 41v219h512q53 0 92 25.5t59.5 61.5t33 91.5t16.5 99.5t4 101q-166 -43 -414 -43q-201 0 -276.5 92t-75.5 258zM379 768q0 -76 28.5 -103.5 t96.5 -27.5h356q0 88 -6 149.5t-25.5 123t-59.5 92t-103 30.5h-158q-68 0 -98.5 -25.5t-30.5 -101.5v-137z" />
<glyph horiz-adv-x="1110" d="M61 387v150q0 418 465 378v185h232v-400h-234q-176 -8 -176 -168v-110q0 -90 53.5 -131t169.5 -41l510 2v-215q-322 -61 -577 -51q-219 0 -331 117.5t-112 283.5zM508 1268v184q0 47 47 47h180q49 0 49 -47v-184q0 -51 -49 -51h-180q-47 0 -47 51z" />
<glyph horiz-adv-x="1779" d="M102 233v623q0 74 17.5 138.5t61.5 128t132 100.5t213 37h392q74 0 130 -11.5t112.5 -43t86 -98.5t29.5 -167v-729h-184l-39 121l-17 -15q-16 -14 -43.5 -34.5t-64.5 -41t-89.5 -34.5t-103.5 -14q-123 -2 -193.5 79.5t-68.5 194.5v86q0 137 78 210t219 73h279q2 88 0 88 q0 63 -30 84.5t-97 21.5h-396q-90 0 -141 -37t-51 -147v-590q0 -125 57.5 -173t134.5 -48h680q119 0 165 54t46 167v936q0 115 -57 177.5t-154 62.5h-827v176q279 57 625 55l202 -2q190 -2 316.5 -114.5t126.5 -354.5v-936q0 -455 -430 -455h-693q-188 0 -306 106.5 t-118 325.5zM713 529.5q0 -25.5 2 -27.5q0 -35 25.5 -57.5t70.5 -20.5q139 -4 238 88v162l-246 -23q-90 -10 -88 -94q-2 -2 -2 -27.5z" />
<glyph horiz-adv-x="1136" d="M78 567q0 539 397 539q154 0 320 -19.5t249 -42.5v-1167q0 -211 -117.5 -333t-310.5 -101l-493 49v191h461q174 0 174 194v199q-119 -78 -283 -78q-223 0 -310 140t-87 429zM365 575q0 -78 1 -117.5t10 -93t25.5 -79t49 -44t79.5 -18.5q117 0 228 45v619h-226 q-57 0 -94 -29t-51 -83t-18 -95.5t-4 -104.5z" />
<glyph horiz-adv-x="2004" d="M70 655v174q0 125 30.5 206t99 124t156.5 59.5t224 16.5h880l37 254h250v-258h227v-193l-227 -41v-551q0 -449 -533 -448h-335q-119 0 -208 28.5t-150.5 106.5t-61.5 199q-389 -1 -389 323zM356 664q0 -109 103 -109q0 180 98 259t291 79h151q164 0 262.5 -64.5 t98.5 -236.5q0 -70 -18.5 -118t-47 -73.5t-80 -40t-97.5 -17.5t-122 -3h-250q0 -45 20.5 -68.5t45.5 -28.5t72 -7h331q246 0 246 215v546h-868q-147 0 -191.5 -32.5t-44.5 -135.5v-165zM745 553h248q49 0 64.5 10t15.5 53q0 39 -15.5 50.5t-64.5 11.5h-133q-35 0 -50 -2 t-33.5 -13.5t-25 -38t-6.5 -71.5z" />
<glyph horiz-adv-x="763" d="M47 954v72q0 86 55.5 140.5t171.5 54.5q207 0 207 2q2 31 0 32q0 51 -24.5 67.5t-79.5 16.5q-96 0 -305 -18v137q127 51 338 53q293 4 292 -231v-506h-165l-54 92q-10 -23 -77.5 -62.5t-139.5 -37.5q-104 2 -161.5 57t-57.5 131zM256 993q0 -61 72 -61q88 0 153 53v121 l-164 -16q-61 -4 -61 -68v-29z" />
<glyph horiz-adv-x="823" d="M59 774v1071h222v-377q121 53 227 54q154 0 207 -95.5t53 -287.5q0 -373 -260 -373q-113 0 -227 92l-45 -84h-177zM281 997q78 -41 163 -41q51 0 77 42t26 149q0 121 -24.5 160t-80.5 39q-80 0 -161 -27v-322z" />
<glyph horiz-adv-x="722" d="M47 1137q0 209 67.5 289.5t192.5 80.5q205 0 355 -49v-139q-127 10 -254 10q-57 0 -80 -7t-40.5 -50t-17.5 -137q0 -115 29 -153t109 -38l264 12v-137q-33 -18 -68 -29.5t-80 -15.5t-65.5 -6t-80.5 -2h-71q-123 0 -191.5 81t-68.5 290z" />
<glyph horiz-adv-x="819" d="M47 1141q0 195 52.5 288t207.5 93q117 0 230 -54v379h219v-1073h-178l-43 84q-115 -92 -228 -92q-139 0 -199.5 95.5t-60.5 279.5zM270 1147q0 -109 24.5 -150t78.5 -41q84 0 162 41v322q-80 29 -162 29q-55 0 -79 -39t-24 -162z" />
<glyph horiz-adv-x="796" d="M47 1138.5q0 202.5 71.5 284.5t272.5 82q96 0 152.5 -8t106.5 -34.5t71.5 -82t21.5 -145.5q0 -186 -225 -186h-248q0 -68 23.5 -86.5t112.5 -18.5q227 0 321 10v-143q-121 -45 -412 -45q-147 0 -207.5 85t-60.5 287.5zM270 1210h187q66 0 65 43q0 49 -22.5 64.5 t-98.5 15.5q-78 0 -105.5 -23.5t-25.5 -99.5z" />
<glyph horiz-adv-x="641" d="M41 1333v144l123 10v139q0 221 237 221q115 0 201 -35v-135l-137 4q-53 2 -66.5 -20.5t-13.5 -79.5v-78h170v-170h-172v-559h-221v559h-121z" />
<glyph horiz-adv-x="856" d="M49 901q0 43 22.5 83t71.5 46q-90 47 -90 211q0 135 72 199.5t192 64.5h492v-123l-82 -39q29 -35 29 -141q0 -100 -61.5 -172t-196.5 -72h-191q-57 0 -57 -32q0 -25 14.5 -31t44.5 -8l248 -27q115 -10 167 -65.5t52 -167.5v-17q0 -223 -237 -223h-232q-113 0 -182.5 52 t-69.5 163v94l82 66q-88 35 -88 139zM276 645q0 -47 19.5 -63.5t64.5 -16.5h125q39 0 55.5 14.5t16.5 53.5v10q0 33 -20.5 48.5t-65.5 19.5l-141 16l-54 4v-86zM276 1241q-4 -113 97 -113h76q88 0 88 113q0 96 -91 96h-73q-97 0 -97 -96z" />
<glyph horiz-adv-x="827" d="M59 774v1069h220v-426q4 4 26.5 19.5t30.5 20.5t29.5 17.5t36 17.5t36 12t45 10.5t47.5 3.5q238 0 238 -256v-488h-221v467q0 96 -86 96q-96 0 -180 -59v-504h-222z" />
<glyph horiz-adv-x="344" d="M53 1599v138q0 39 37 39h164q35 0 35 -39v-138q0 -35 -35 -34h-164q-37 -1 -37 34zM59 774v729h222v-729h-222z" />
<glyph horiz-adv-x="346" d="M55 1606v137q0 39 37 39h164q35 0 35 -39v-137q0 -37 -35 -37h-164q-37 0 -37 37zM61 399v1100h224v-733q4 -231 -56 -367h-168z" />
<glyph horiz-adv-x="837" d="M59 774v1067h222v-588h38l216 242h262l-297 -317l295 -404h-246l-223 326h-45v-326h-222z" />
<glyph horiz-adv-x="481" d="M57 1032v811h222v-764q0 -74 13 -100.5t52 -38.5q86 -29 96 -29v-137h-176q-109 0 -158 58.5t-49 199.5z" />
<glyph horiz-adv-x="1318" d="M59 774v723h177l38 -88q2 2 20.5 15.5t20.5 15.5t19.5 13t22.5 13t21.5 11.5t25 11.5t23.5 8t28.5 7t30 3t34.5 2q160 0 209 -106q129 106 291 106q240 0 240 -254v-481h-222v461q0 96 -86 96q-106 0 -184 -55v-39v-463h-221v461q0 96 -88 96t-180 -59v-498h-220z" />
<glyph horiz-adv-x="827" d="M59 774v723h172l43 -86q2 2 22.5 16.5t25 17.5t22.5 15.5t25.5 14.5t25 11t29.5 11t29.5 7t36 6t38.5 1q240 0 240 -254v-483h-221v465q0 96 -86 96q-88 0 -180 -61v-500h-222z" />
<glyph horiz-adv-x="819" d="M47 1126q0 207 80 293t281 86q199 0 277.5 -87t78.5 -292q0 -193 -78 -275.5t-278 -82.5q-199 0 -280 85t-81 273zM270 1128q0 -117 29 -149.5t109 -32.5q78 0 105.5 32t27.5 150q0 125 -26 162t-109 37q-82 0 -109 -38t-27 -161z" />
<glyph horiz-adv-x="821" d="M59 393v1114h177l43 -82q111 92 229 93q258 0 258 -379q0 -88 -10.5 -152.5t-38 -121t-79.5 -85t-130 -28.5q-119 0 -229 55v-414h-220zM279 954q72 -29 163 -28q53 0 78 41t25 163q0 111 -24.5 153t-76.5 42q-90 0 -165 -43v-328z" />
<glyph horiz-adv-x="821" d="M47 1139q0 377 297 377q242 0 414 -46v-1077h-223v416q-88 -61 -193 -61q-164 0 -229.5 100.5t-65.5 290.5zM270 1143q0 -47 1 -70.5t7.5 -57.5t17.5 -49.5t34.5 -27.5t58.5 -12q68 0 146 26v391h-144q-41 0 -67.5 -18t-37 -54t-13.5 -61.5t-3 -66.5z" />
<glyph horiz-adv-x="638" d="M59 774v723h187l28 -102q111 111 222 110q68 0 88 -8v-213q-8 0 -46 1t-63 1q-131 0 -194 -74v-438h-222z" />
<glyph horiz-adv-x="751" d="M47 1255v64q0 193 197 192q281 0 413 -43v-141h-346q-35 0 -45 -10t-10 -35v-27q0 -29 13.5 -36t43.5 -7h191q98 0 146 -48t48 -128v-80q0 -106 -53 -151t-131 -45q-111 0 -256 12t-176 35v139h356h5q48 -2 49 43v27q0 43 -54 43h-180q-211 -1 -211 196z" />
<glyph horiz-adv-x="608" d="M41 1333v125l125 33l39 211h182v-197h170v-172h-170v-262q0 -76 13.5 -98.5t52.5 -34.5q82 -25 88 -25v-139h-176q-100 0 -149.5 58.5t-49.5 195.5v305h-125z" />
<glyph horiz-adv-x="821" d="M55 1020v477h221v-465q0 -94 86.5 -94t174.5 57v502h221v-723h-174l-47 90q-45 -39 -70 -57.5t-69 -32.5t-103 -14q-240 0 -240 260z" />
<glyph horiz-adv-x="843" d="M39 1497h219l164 -477l164 477h217l-277 -723h-215z" />
<glyph horiz-adv-x="1232" d="M39 1497h219l164 -477l149 477h205l-67 -199l108 -278l156 477h219l-270 -723h-207l-103 252l-92 -252h-209z" />
<glyph horiz-adv-x="845" d="M41 774l262 367l-262 356h242l139 -205l135 205h246l-260 -358l256 -365h-238l-137 217l-139 -217h-244z" />
<glyph horiz-adv-x="890" d="M39 1499h213l145 -500q16 -55 64 -55l166 555h223l-277 -960l-116 -140h-158l113 369q-158 6 -203 180z" />
<glyph horiz-adv-x="747" d="M47 1319v178h643v-172l-332 -371h332v-178h-620v178l344 365h-367z" />
<glyph horiz-adv-x="1255" d="M90 365v757q0 180 101.5 278.5t275.5 98.5h336q193 0 278.5 -101.5t85.5 -262.5v-770q0 -178 -95 -271.5t-269 -93.5h-336q-176 0 -276.5 92.5t-100.5 272.5zM377 412q0 -147 155 -148h199q76 0 113 33t37 113v680q0 145 -140 145h-217q-82 0 -114.5 -44t-32.5 -101v-678 z" />
<glyph horiz-adv-x="1255" d="M225 0v242h303v972l-301 -75v188l303 172h287v-1257h293v-242h-885z" />
<glyph horiz-adv-x="1255" d="M88 1253v213q303 53 623 54q219 0 331.5 -131.5t112.5 -331.5q0 -344 -567 -793h567v-264h-1055v252q90 59 204 149.5t248 209t224 239.5t90 205q0 102 -59 150t-191 48h-528z" />
<glyph horiz-adv-x="1255" d="M102 1239v207q84 29 199 43t226.5 15t238.5 -1q170 -4 269.5 -100t99.5 -260v-107q0 -233 -156 -291q156 -68 156 -307v-86q0 -178 -99.5 -272t-285.5 -94h-75h-80q-15 0 -71.5 1t-77 2t-67.5 4t-72.5 7t-63.5 10t-69 14.5t-59 18.5l2 209h520q115 0 162 24.5t47 114.5 v66q0 86 -48 117.5t-149 35.5l-407 17v229l407 21q111 6 156 36.5t45 110.5v74q0 141 -201 141h-547z" />
<glyph horiz-adv-x="1255" d="M43 459l535 1040h315l-447 -901h371v342l64 158h223v-500h149v-221l-149 -49v-324h-287v324h-704z" />
<glyph horiz-adv-x="1255" d="M139 41v225h578q150 0 149 146v137q0 31 -4 52.5t-17.5 45t-42 35.5t-73.5 12h-192q-125 0 -125 -121h-271l45 926h912v-264h-635l-17 -338q53 41 140 49q72 8 227 0q172 -8 256 -107.5t84 -265.5v-211q0 -100 -35 -174.5t-93 -115.5t-121.5 -60.5t-131.5 -19.5 q-209 0 -324.5 8t-308.5 41z" />
<glyph horiz-adv-x="1255" d="M94 786q0 375 99.5 541t252.5 178q281 25 654 -41v-217h-514q-66 0 -110 -34.5t-62.5 -98t-25.5 -118t-7 -128.5q172 41 416 41q201 0 276.5 -91t75.5 -257v-225q0 -338 -365 -338h-292q-96 0 -164 34t-123 117.5t-83 242t-28 394.5zM381 657q0 -90 6 -151.5t25.5 -121.5 t59.5 -91t103 -31h158q70 0 99.5 25.5t29.5 101.5v137q0 76 -28.5 103.5t-94.5 27.5h-358z" />
<glyph horiz-adv-x="1255" d="M104 1235v264h965l78 -131l-502 -1368h-313l461 1235h-689z" />
<glyph horiz-adv-x="1255" d="M106 344v150q0 92 43.5 153.5t116.5 77.5q-66 29 -103.5 80t-47 100t-9.5 117v133q0 354 381 354h312q178 0 266 -84t88 -272v-109q0 -27 -5 -56.5t-19.5 -70t-47 -71.5t-82.5 -39q59 -12 96.5 -65.5t47.5 -106.5t10 -109v-176q0 -109 -30.5 -182.5t-86 -107t-112 -47 t-127.5 -13.5h-310q-106 0 -182 26.5t-112.5 61.5t-58 89t-25 88t-3.5 79zM393 375q0 -63 34 -92t112 -29h192q135 0 135 121v143q0 127 -129 127h-209q-135 0 -135 -127v-143zM393 1012q0 -127 135 -127h205q82 0 107.5 32.5t25.5 94.5v96q0 86 -33.5 117.5t-99.5 31.5 h-194q-78 0 -112 -27.5t-34 -121.5v-96z" />
<glyph horiz-adv-x="1255" d="M94 944v223q0 338 365 338h293q96 0 163.5 -33.5t123 -117.5t83 -243t27.5 -394q0 -195 -29.5 -337t-82 -221t-111 -117t-129.5 -44q-305 -27 -654 41v217h514q66 0 110 35t62.5 98.5t25.5 117.5t7 130q-170 -43 -416 -43q-201 0 -276.5 92t-75.5 258zM381 977 q0 -76 28.5 -103.5t94.5 -27.5h358q0 90 -6 151.5t-25.5 122t-60.5 91t-104 30.5h-156q-70 0 -99.5 -25.5t-29.5 -101.5v-137z" />
<glyph horiz-adv-x="1255" d="M90 365v553q0 180 101.5 278t275.5 98h336q365 0 364 -364v-565q0 -178 -95 -271.5t-269 -93.5h-336q-176 0 -276.5 92.5t-100.5 272.5zM377 412q0 -147 155 -148h199q76 0 113 33t37 113v475q0 145 -140 145h-217q-82 0 -114.5 -44t-32.5 -101v-473z" />
<glyph horiz-adv-x="1255" d="M268 0v242h293v766l-287 -72v188l289 170h285v-1052h287v-242h-867z" />
<glyph horiz-adv-x="1255" d="M88 1047v213q311 55 621 51q444 0 444 -398q0 -109 -65.5 -221t-166 -199t-174 -140.5t-137.5 -88.5h539v-264h-1049v252q70 39 97.5 54.5t111.5 63.5t130 79.5t123 83t121 91.5t92 88t69.5 93t21.5 84q0 90 -57 125t-193 33h-528z" />
<glyph horiz-adv-x="1255" d="M102 1044v207q84 29 199 43.5t226.5 15.5t238.5 -1q170 -4 269.5 -101.5t99.5 -259.5v-108q0 -231 -156 -289q156 -68 156 -307v-86q0 -178 -99.5 -272.5t-285.5 -94.5h-75h-80q-15 0 -71.5 1t-77 2t-67.5 4t-72.5 7.5t-63.5 10.5t-69 14t-59 18l2 209h520 q117 0 163 24.5t46 115.5v63q0 88 -48 119t-149 37l-407 14v232l407 20q109 4 155 36t46 111v74q0 141 -201 141h-547z" />
<glyph horiz-adv-x="1255" d="M43 254l535 1040h315l-447 -901h371v342l64 158h223v-500h149v-221l-149 -49v-324h-287v324h-704z" />
<glyph horiz-adv-x="1255" d="M139 61h578q150 0 149 146v137q0 31 -4 52.5t-17.5 45t-42 35.5t-73.5 12h-192q-125 0 -125 -120h-271l45 925h912v-264h-635l-17 -338q53 41 142 49q61 8 225 0q172 -8 256 -107t84 -265v-211q0 -100 -35 -175t-93 -116t-121.5 -60.5t-131.5 -19.5q-209 0 -324.5 8 t-308.5 41v225z" />
<glyph horiz-adv-x="1255" d="M94 786q0 375 99.5 541t252.5 178q281 25 654 -41v-217h-514q-66 0 -110 -34.5t-62.5 -98t-25.5 -118t-7 -128.5q172 41 416 41q201 0 276.5 -91t75.5 -257v-225q0 -338 -365 -338h-292q-96 0 -164 34t-123 117.5t-83 242t-28 394.5zM381 657q0 -90 6 -151.5t25.5 -121.5 t59.5 -91t103 -31h158q70 0 99.5 25.5t29.5 101.5v137q0 76 -28.5 103.5t-94.5 27.5h-358z" />
<glyph horiz-adv-x="1255" d="M104 1030v264h965l78 -131l-502 -1368h-313l461 1235h-689z" />
<glyph horiz-adv-x="1255" d="M106 344v150q0 92 43.5 153.5t116.5 77.5q-66 29 -103.5 80t-47 100t-9.5 117v133q0 354 381 354h312q178 0 266 -84t88 -272v-109q0 -27 -5 -56.5t-19.5 -70t-47 -71.5t-82.5 -39q59 -12 96.5 -65.5t47.5 -106.5t10 -109v-176q0 -109 -30.5 -182.5t-86 -107t-112 -47 t-127.5 -13.5h-310q-106 0 -182 26.5t-112.5 61.5t-58 89t-25 88t-3.5 79zM393 375q0 -63 34 -92t112 -29h192q135 0 135 121v143q0 127 -129 127h-209q-135 0 -135 -127v-143zM393 1012q0 -127 135 -127h205q82 0 107.5 32.5t25.5 94.5v96q0 86 -33.5 117.5t-99.5 31.5 h-194q-78 0 -112 -27.5t-34 -121.5v-96z" />
<glyph horiz-adv-x="1255" d="M94 733v223q0 340 365 340h293q96 0 163.5 -33.5t123 -117.5t83 -243t27.5 -394q0 -375 -99.5 -541t-252.5 -180q-322 -25 -654 41v219h514q53 0 92 25.5t59.5 61.5t33 91.5t16.5 99.5t4 101q-170 -43 -416 -43q-201 0 -276.5 92t-75.5 258zM381 768q0 -76 28.5 -103.5 t94.5 -27.5h358q0 88 -6 149.5t-25.5 123t-60.5 92t-104 30.5h-156q-68 0 -98.5 -25.5t-30.5 -101.5v-137z" />
<glyph horiz-adv-x="1136" d="M78 567q0 539 397 539q154 0 320 -19.5t249 -42.5v-1167q0 -211 -117.5 -333t-310.5 -101l-493 49v191h461q174 0 174 194v199q-119 -78 -283 -78q-223 0 -310 140t-87 429zM358 1458h119q0 -51 33 -83t82 -32q57 0 88 31t31 84h118q0 -106 -68.5 -169.5t-168.5 -63.5 q-98 0 -166 64.5t-68 168.5zM365 575q0 -78 1 -117.5t10 -93t25.5 -79t49 -44t79.5 -18.5q117 0 228 45v619h-226q-57 0 -94 -29t-51 -83t-18 -95.5t-4 -104.5z" />
<glyph horiz-adv-x="1136" d="M78 567q0 539 397 539q154 0 320 -19.5t249 -42.5v-1167q0 -211 -117.5 -333t-310.5 -101l-493 49v191h461q174 0 174 194v199q-119 -78 -283 -78q-223 0 -310 140t-87 429zM365 575q0 -78 1 -117.5t10 -93t25.5 -79t49 -44t79.5 -18.5q117 0 228 45v619h-226 q-57 0 -94 -29t-51 -83t-18 -95.5t-4 -104.5zM471 1274v156q0 51 49 51h148q47 0 47 -51v-156q0 -47 -47 -47h-148q-49 0 -49 47z" />
<glyph horiz-adv-x="1136" d="M78 567q0 539 397 539q154 0 320 -19.5t249 -42.5v-1167q0 -211 -117.5 -333t-310.5 -101l-493 49v191h461q174 0 174 194v199q-119 -78 -283 -78q-223 0 -310 140t-87 429zM281 1225l221 278h213l196 -278h-190l-119 123l-129 -123h-192zM365 575q0 -78 1 -117.5t10 -93 t25.5 -79t49 -44t79.5 -18.5q117 0 228 45v619h-226q-57 0 -94 -29t-51 -83t-18 -95.5t-4 -104.5z" />
<glyph horiz-adv-x="1751" d="M61 534.5q0 172.5 28 287t81 171t114.5 78t147.5 21.5l762 -2l47 301h240v-304h241v-219h-241v-436q0 -119 19.5 -157.5t74.5 -57.5q119 -39 127 -39v-180h-242q-135 0 -200.5 90t-65.5 299v481l-637 -2q-37 0 -51 -1t-43 -6t-40 -17.5t-29.5 -36t-26 -60t-13.5 -91 t-6 -128.5q0 -141 21.5 -207.5t58.5 -84t119 -17.5q84 0 182 4t155 9l56 6v-181q-203 -70 -516 -69q-86 0 -145.5 19.5t-112.5 74.5t-79 168.5t-26 286z" />
<glyph horiz-adv-x="1546" d="M31 870v160l176 60l47 303h240v-303h493l47 303h240v-303h244v-220h-244v-436q0 -121 20.5 -158.5t75.5 -56.5q117 -41 127 -41v-178h-242q-137 0 -202.5 89t-65.5 300v481h-493v-436q0 -121 19 -158.5t75 -56.5q119 -41 127 -41v-178h-240q-137 0 -202.5 89t-65.5 300 v481h-176z" />
<glyph horiz-adv-x="1556" d="M31 868v185l172 34v203q0 152 73.5 236t247.5 84q154 0 275 -49v-170l-197 2q-43 0 -66.5 -8.5t-32.5 -36t-11.5 -49t-2.5 -76.5v-133h508l50 303h237v-303h244v-220h-244v-436q2 -121 21.5 -158.5t74.5 -56.5q117 -41 127 -41v-178h-241q-137 0 -203 89t-66 300v481 h-510v-870h-286v868h-170z" />
<glyph horiz-adv-x="1970" d="M31 870v160l176 60l47 303h240v-303h294q176 0 260.5 -61.5t118.5 -199.5l146 -503q20 -70 110 -80l219 841h300l-377 -1431l-150 -209h-209l160 553q-248 0 -328 276l-137 445q-23 86 -64.5 117.5t-131.5 31.5h-211v-436q0 -121 19 -158.5t75 -56.5q119 -41 127 -41 v-178h-240q-137 0 -202.5 89t-65.5 300v481h-176z" />
<glyph horiz-adv-x="2009" d="M31 868v185l172 34v203q0 152 73.5 236t247.5 84q127 0 275 -58v-172l-197 13q-41 2 -65.5 -6.5t-33.5 -36t-11.5 -50t-2.5 -77.5v-136h326q180 2 265 -59t124 -199l150 -501q23 -80 108 -80l219 839h299l-376 -1431l-150 -209h-209l160 553q-248 0 -328 279l-141 442 q-23 84 -67 116.5t-134 30.5h-248v-868h-286v868h-170z" />
<glyph horiz-adv-x="1136" d="M78 567q0 539 397 539q154 0 320 -19.5t249 -42.5v-1167q0 -211 -117.5 -333t-310.5 -101l-493 49v191h461q174 0 174 194v199q-119 -78 -283 -78q-223 0 -310 140t-87 429zM365 575q0 -78 1 -117.5t10 -93t25.5 -79t49 -44t79.5 -18.5q117 0 228 45v619h-226 q-57 0 -94 -29t-51 -83t-18 -95.5t-4 -104.5zM467 1264v227q0 57 24.5 93t59.5 45t69.5 11t59.5 -3l25 -5v-88q-57 2 -58 -47v-27h21q45 0 45 -45v-161q0 -49 -45 -50h-156q-45 1 -45 50z" />
<glyph horiz-adv-x="557" d="M133 1167h289l-33 -790h-231zM135 47v184q0 51 49 52h181q47 0 47 -52v-184q0 -47 -47 -47h-181q-49 0 -49 47z" />
<glyph horiz-adv-x="907" d="M133 1094v137h275v-137l-21 -275h-231zM502 1094v137h276v-137l-20 -275h-234z" />
<glyph horiz-adv-x="1249" d="M31 309l30 195h246l33 192h-248l29 197h250l49 301h196l-49 -301h195l51 301h197l-52 -301h263l-29 -197h-262l-33 -192h262l-29 -197h-264l-51 -307h-197l52 307l-197 2l-51 -309h-197l51 309h-245zM504 504h196l31 192h-194z" />
<glyph horiz-adv-x="1064" d="M78 768v70q0 332 342 338v153h180v-160q180 -14 334 -39v-206q-324 10 -453 10q-117 0 -116 -103v-40q0 -88 108 -89h199q166 0 238.5 -94t72.5 -233v-70q0 -188 -99.5 -256.5t-283.5 -66.5v-148h-180v156q-250 18 -301 39v202q8 0 88 -1t189.5 -3t189.5 -2 q45 0 77.5 23.5t32.5 64.5v52q0 43 -27.5 65.5t-74.5 22.5h-188q-328 0 -328 315z" />
<glyph horiz-adv-x="1890" d="M45 715v186q0 135 62.5 200.5t211.5 65.5h156q145 0 209 -66.5t64 -199.5v-186q0 -135 -63.5 -200.5t-213.5 -65.5h-156q-145 0 -207.5 65.5t-62.5 200.5zM246 750q0 -55 20.5 -78t77.5 -23h98q66 0 85.5 22.5t19.5 78.5v116q0 59 -22.5 80t-78.5 21h-98 q-59 0 -80.5 -20.5t-21.5 -80.5v-116zM537 0l608 1167h207l-602 -1167h-213zM1143 270v185q0 135 63.5 200.5t212.5 65.5h156q145 0 207.5 -65.5t62.5 -200.5v-185q0 -137 -62.5 -202.5t-211.5 -65.5h-156q-145 0 -208.5 66.5t-63.5 201.5zM1343 303q0 -55 20.5 -77.5 t80.5 -22.5h98q63 0 83 22.5t20 77.5v117q0 59 -21.5 79.5t-77.5 20.5h-98q-61 0 -83 -20.5t-22 -79.5v-117z" />
<glyph horiz-adv-x="1218" d="M57.5 399q24.5 121 143.5 226l114 96l-61 82q-63 88 -57 166t55 133t117 65q211 33 483 -39v-198h-264q-125 0 -47 -96l245 -314l199 158l107 -119l-111 -178l-51 -51l252 -330h-310l-129 164l-102 -96q-57 -51 -149.5 -73t-197.5 11t-171 129q-90 143 -65.5 264z M332 283q31 -37 70.5 -45.5t91.5 30.5l98 90l-129 164l-103 -82q-94 -73 -28 -157z" />
<glyph horiz-adv-x="538" d="M133 1094v137h275v-137l-21 -275h-231z" />
<glyph horiz-adv-x="872" d="M78 819v115l284 49l9 -174zM193 512l51 281l170 -43l-111 -273zM340 1135l111 39l137 -252l-162 -66zM389 614l96 148l230 -184l-66 -93zM489 829l244 162l66 -98l-197 -199z" />
<glyph horiz-adv-x="1167" d="M109 332v504q0 164 98 247.5t254 83.5h258q90 0 156.5 -25.5t100.5 -61.5t54.5 -86t25.5 -86t5 -72v-504q0 -332 -342 -332h-258q-154 0 -253 80t-99 252zM395 393q0 -74 35 -101.5t94 -27.5h129q121 0 121 129v371q0 45 -6 70.5t-34.5 47t-82.5 21.5h-129 q-76 0 -101.5 -36t-25.5 -101v-373z" />
<glyph horiz-adv-x="733" d="M61 813v186l265 170h284v-1169h-286v885z" />
<glyph horiz-adv-x="1058" d="M61 911v211q41 8 113 22.5t104.5 18.5t103.5 9.5t165 5.5q434 0 434 -406q0 -96 -42 -184t-109.5 -151.5t-124 -103.5t-113.5 -69h385v-264h-901v252q29 16 130 69.5t167.5 93.5t148.5 98t125 120.5t43 124.5q0 86 -47 121.5t-174 33.5z" />
<glyph horiz-adv-x="1038" d="M47 915v213q168 59 582 46q135 -4 215 -88.5t80 -206.5v-60q0 -209 -115 -237q115 -59 115 -250v-43q0 -291 -306 -299q-412 -10 -561 43v215h461q115 0 115 86v28q0 55 -27.5 74t-85.5 21l-364 10v229l364 9q66 2 91.5 19t25.5 73v34q0 47 -27.5 65.5t-87.5 18.5h-475z " />
<glyph horiz-adv-x="1138" d="M31 393l389 774h307l-321 -657h278v248l76 176h211v-424h139v-223l-139 -37v-246h-287v246h-569z" />
<glyph horiz-adv-x="1087" d="M119 47v215h481q63 0 87 21.5t24 72.5v64q0 35 -4.5 51t-28 29.5t-72.5 13.5h-133q-109 0 -108 -96h-244l35 749h788v-264h-541l-14 -219q55 57 143 57h130q176 0 255.5 -80.5t79.5 -242.5v-107q0 -309 -335 -313q-353 -4 -543 49z" />
<glyph horiz-adv-x="1105" d="M102 614q0 307 101.5 436.5t247.5 129.5q344 0 528 -31v-234h-461q-129 0 -129 -210q154 25 348 24q279 0 279 -291v-135q0 -152 -88 -228.5t-213 -76.5h-252q-88 0 -148.5 24.5t-111.5 89t-76 189.5t-25 313zM389 504q0 -41 1 -63.5t7 -61.5t17.5 -60.5t34 -39 t55.5 -17.5h143q43 0 62.5 16.5t19.5 65.5v90q0 43 -18.5 56.5t-63.5 13.5h-258z" />
<glyph horiz-adv-x="976" d="M47 903v264h801l84 -131l-385 -1036h-311l339 903h-528z" />
<glyph horiz-adv-x="1150" d="M117 266v144q0 43 10 71.5t35.5 46t41 24.5t50.5 17q-70 25 -103.5 90.5t-33.5 139.5v88q0 170 72.5 230.5t224.5 60.5h340q139 0 211.5 -64.5t72.5 -226.5v-88q0 -166 -118 -191q59 -10 88.5 -72.5t29.5 -125.5v-144q0 -80 -26.5 -135t-71.5 -81.5t-88 -38t-92 -11.5 h-359q-76 0 -132 18.5t-84.5 44t-45 65.5t-19.5 69.5t-3 68.5zM403 326q0 -51 19.5 -66.5t81.5 -15.5h160q47 0 67.5 16t20.5 62v77q0 45 -19.5 63.5t-64.5 18.5h-179q-43 0 -64.5 -16t-21.5 -64v-75zM403 782q0 -82 84 -82h183q37 0 56 13.5t22.5 27t3.5 37.5v70 q0 51 -18.5 68.5t-65.5 17.5h-172q-53 0 -73 -14.5t-20 -71.5v-66z" />
<glyph horiz-adv-x="1105" d="M94 737v137q0 152 86 229t211 77h254q88 0 149.5 -25t112.5 -89.5t76 -189t25 -313.5q0 -131 -18.5 -231.5t-49.5 -163t-75 -101t-89 -54t-96 -15.5q-389 0 -549 31v233h459q131 0 131 211q-158 -25 -352 -24q-275 -1 -275 288zM381 743q0 -43 16.5 -56t61.5 -13h262 q0 47 -3 79.5t-13.5 74.5t-36 64.5t-66.5 22.5h-143q-43 0 -60.5 -16t-17.5 -68v-88z" />
<glyph horiz-adv-x="958" d="M31 905v232q285 49 487 39q379 0 379 -351v-65q0 -164 -107.5 -246t-275.5 -51v-86h-223v287h205q115 4 114 90v49q0 55 -32.5 78.5t-104.5 23.5h-442zM262 47v184q0 51 49 52h176q51 0 52 -52v-184q0 -47 -52 -47h-176q-49 0 -49 47z" />
<glyph horiz-adv-x="1777" d="M102 106v623q0 57 10.5 109.5t38 107.5t72.5 95t123 66t178 26h394q74 0 130 -11.5t112.5 -43t86 -99.5t29.5 -168v-727h-184l-41 119l-16 -15q-15 -14 -43.5 -33.5t-65.5 -40t-88.5 -34.5t-104.5 -14q-123 -2 -192.5 78.5t-69.5 193.5v86q0 137 79 211t220 74h277 q2 86 0 88q0 63 -29 83.5t-98 20.5h-396q-90 0 -141 -37t-51 -147v-588q0 -125 57 -174t135 -49h682q119 0 165 55t46 168v936q0 115 -57 177.5t-154 62.5h-827v174q279 57 622 55h205q190 -2 315.5 -115.5t125.5 -353.5v-936q0 -455 -430 -455h-693q-188 0 -305 105.5 t-117 326.5zM713 375q0 -33 26.5 -56.5t69.5 -23.5q143 0 238 88v162l-244 -21q-90 -8 -90 -94v-55z" />
<glyph horiz-adv-x="1241" d="M55 0l410 1167h342l383 -1167h-301l-80 238h-367l-86 -238h-301zM512 469h233l-110 346z" />
<glyph horiz-adv-x="1122" d="M125 0v1169h551q373 0 373 -313q0 -223 -162 -260q72 -16 120 -84t48 -180q0 -174 -92.5 -253t-286.5 -79h-551zM412 244h241q49 0 80 24.5t31 100.5q0 131 -111 131q-209 -2 -241 0v-256zM412 709h241q63 0 86 25.5t23 88.5q0 104 -109 105h-241v-219z" />
<glyph horiz-adv-x="1052" d="M86 604q0 281 98.5 430.5t352.5 149.5q287 0 462 -62v-200q-35 6 -171 19t-224 13q-145 0 -188 -79.5t-43 -270.5v-74q0 -20 3 -67t8 -66.5t15.5 -54.5t27.5 -51.5t41 -34.5t58.5 -26.5t77.5 -8.5q161 2 395 31v-195q-170 -66 -462 -65q-117 0 -201 33.5t-132 86 t-75 137.5t-35 164.5t-8 190.5z" />
<glyph horiz-adv-x="1208" d="M125 0v1171h551q449 -4 448 -591q0 -123 -18.5 -218.5t-42 -156t-67.5 -102.5t-75.5 -61t-88 -29.5t-80 -11.5t-76.5 -1h-551zM412 254h231q113 0 154 87t41 239q0 338 -195 338h-231v-664z" />
<glyph horiz-adv-x="1048" d="M125 215v725q0 225 258 229q494 -10 598 -30v-221h-504q-43 0 -54 -13.5t-11 -52.5v-147l495 -17v-215l-495 -14v-144q0 -29 10 -44t24.5 -18t38.5 -3h496v-221q-127 -29 -639 -33q-100 2 -158.5 57.5t-58.5 161.5z" />
<glyph horiz-adv-x="1048" d="M125 0v940q0 225 258 229q494 -10 598 -30v-221h-504q-43 0 -53 -13.5t-12 -52.5v-172l495 -16v-215l-495 -15v-434h-287z" />
<glyph horiz-adv-x="1161" d="M86 586q0 301 90 446.5t324 153.5q123 4 289.5 -10.5t259.5 -40.5v-205q-213 25 -437 24q-100 0 -146 -22.5t-69.5 -100t-23.5 -241.5q0 -66 4 -111t21.5 -105.5t60.5 -93t108 -32.5q80 0 143.5 28.5t80.5 67.5v135h-207v158q141 39 356 39q63 0 137 -6v-670h-215l-65 90 q-104 -104 -310 -104q-401 0 -401 600z" />
<glyph horiz-adv-x="1200" d="M125 -2v1169h287v-471h411v471h287v-1169h-287v432h-411v-432h-287z" />
<glyph horiz-adv-x="501" d="M125 0v1167h287v-1167h-287z" />
<glyph horiz-adv-x="688" d="M55 43l4 223q145 -12 196.5 20.5t53.5 141.5v739h287v-829q0 -240 -123 -303q-111 -51 -224.5 -45t-193.5 53z" />
<glyph horiz-adv-x="1185" d="M125 -2v1169h274v-475h117l291 475h326l-367 -594l367 -575h-326l-295 453h-113v-453h-274z" />
<glyph horiz-adv-x="1026" d="M125 244v923h287v-802q0 -37 7 -58.5t26.5 -30t36 -10.5t53.5 -2h440v-264h-606q-111 0 -177.5 61.5t-66.5 182.5z" />
<glyph horiz-adv-x="1566" d="M86 0l111 1169h370l219 -763l220 763h368l109 -1169h-281l-72 737l-196 -737h-289l-201 735l-71 -735h-287z" />
<glyph horiz-adv-x="1230" d="M125 0v1169h281l450 -647v647h285v-1169h-279l-450 657v-657h-287z" />
<glyph horiz-adv-x="1224" d="M86 573q0 184 33 305t104.5 185.5t162.5 89.5t226 25q111 0 184.5 -11.5t144.5 -46.5t111 -98.5t64.5 -171t24.5 -262.5q0 -184 -33 -304t-104.5 -183.5t-161.5 -87t-230 -23.5q-137 0 -224 20.5t-160.5 80t-107.5 178t-34 304.5zM373 584q0 -209 48 -269.5t191 -60.5 q68 0 106 9t72.5 42t49 101.5t14.5 181.5q0 115 -11.5 181.5t-45 98t-71.5 38.5t-114 7q-68 0 -103.5 -7t-71.5 -37.5t-50 -99t-14 -185.5z" />
<glyph horiz-adv-x="1083" d="M94 0v1165h565q356 0 357 -366q0 -131 -32 -217t-89 -122t-103.5 -47.5t-109.5 -11.5q-29 -2 -164 9.5t-137 15.5v-426h-287zM381 618h242q51 0 78.5 31t27.5 123q2 74 -26.5 113t-79.5 39h-242v-306z" />
<glyph horiz-adv-x="1224" d="M86 573q0 184 33 305t104.5 185.5t162.5 89.5t226 25q111 0 184.5 -11.5t144.5 -46.5t111 -98.5t64.5 -171t24.5 -262.5q0 -184 -33 -304t-104.5 -183.5t-161.5 -87t-230 -23.5q-137 0 -224 20.5t-160.5 80t-107.5 178t-34 304.5zM373 584q0 -209 48 -269.5t191 -60.5 q68 0 106 9t72.5 42t49 101.5t14.5 181.5q0 115 -11.5 181.5t-45 98t-71.5 38.5t-114 7q-68 0 -103.5 -7t-71.5 -37.5t-50 -99t-14 -185.5zM537 -68h163q74 -127 332 -57v-231q-76 -20 -161 -10t-157.5 39.5t-121.5 97t-55 161.5z" />
<glyph horiz-adv-x="1124" d="M94 0v1167h553q369 0 369 -364q0 -322 -172 -367l227 -436h-307l-191 412q-193 14 -192 18v-430h-287zM381 621h240q109 0 108 161q0 82 -32.5 113t-75.5 31h-240v-305z" />
<glyph horiz-adv-x="1112" d="M86 754v96q0 324 315 324q338 0 572 -48v-206q-295 14 -514 14q-86 0 -86 -88v-68q0 -49 19.5 -63.5t66.5 -14.5h280q289 0 289 -315v-98q0 -307 -289 -307q-514 0 -608 49v202q324 -10 528 -10q29 0 49.5 18.5t26.5 35.5l6 18v80q0 41 -18 57t-64 16h-268 q-164 0 -234.5 77t-70.5 231z" />
<glyph horiz-adv-x="1064" d="M55 903v264h959v-264h-336v-903h-287v903h-336z" />
<glyph horiz-adv-x="1228" d="M123 532v635h289v-635q0 -170 51 -224t172 -54q113 0 163 56.5t50 221.5v635h289v-635q0 -137 -30 -238t-75 -158.5t-114.5 -91.5t-134 -44t-148.5 -10q-94 0 -161.5 9t-138.5 41t-114 89t-70.5 158.5t-27.5 244.5z" />
<glyph horiz-adv-x="1247" d="M55 1167h301l275 -809l262 809h301l-391 -1167h-342z" />
<glyph horiz-adv-x="1738" d="M55 1167h301l230 -813l213 813h299l-97 -327l175 -486l217 813h295l-340 -1167h-344l-127 367l-115 -367h-346z" />
<glyph horiz-adv-x="1208" d="M55 0l373 582l-367 585h349l196 -358l201 358h350l-375 -589l369 -578h-338l-207 350l-205 -350h-346z" />
<glyph horiz-adv-x="1212" d="M55 1167h312l245 -460l236 460h313l-407 -766v-403h-287v403z" />
<glyph horiz-adv-x="1024" d="M55 0v264l547 639h-547v264h918v-264l-529 -639h529v-264h-918z" />
<glyph horiz-adv-x="497" d="M31 1372h252l184 -285h-186z" />
<glyph horiz-adv-x="1253" d="M55 0l410 1167h342l383 -1167h-90q-76 -57 -90.5 -111.5t19.5 -85t91 -26.5v-158q-63 -14 -124.5 5.5t-98.5 64.5t-50 98t21.5 111.5t116.5 101.5h-96l-80 238h-367l-86 -238h-301zM512 469h233l-110 346z" />
<glyph horiz-adv-x="1124" d="M94 0v1167h553q369 0 369 -364q0 -322 -172 -367l227 -436h-307l-191 412q-193 14 -192 18v-430h-287zM381 621h240q109 0 108 161q0 82 -32.5 113t-75.5 31h-240v-305zM440 -197q0 49 47 50h156q43 0 43 -50v-227q0 -154 -164 -150l-71 9v90q57 -2 57 45v27h-21 q-47 0 -47 47v159z" />
<glyph horiz-adv-x="501" d="M-106 1403q131 143 247 143q49 -2 116 -36.5t101 -34.5q80 -4 189 77l49 -122q-129 -139 -231 -140q-51 2 -122 37t-108 35q-18 0 -33.5 -1t-30 -6t-24.5 -8.5t-26.5 -11.5t-23.5 -12t-26.5 -16.5t-27.5 -16.5zM125 0v1167h287v-1167h-287z" />
<glyph horiz-adv-x="1026" d="M125 244v923h287v-802q0 -37 7 -58.5t26.5 -30t36 -10.5t53.5 -2h440v-264h-606q-111 0 -177.5 61.5t-66.5 182.5zM426 -197q0 49 45 50h156q45 0 45 -50v-227q0 -57 -24.5 -93t-59.5 -46t-70 -11t-59 4l-25 5v90q57 -2 58 45v27h-21q-45 0 -45 47v159z" />
<glyph horiz-adv-x="917" d="M78 1192q0 49 36 84t85 35q51 0 84.5 -35t33.5 -84q0 -51 -33.5 -87t-84.5 -36q-49 0 -85 36t-36 87zM600 1192q0 49 36 84t85 35q51 0 85 -35t34 -84q0 -51 -34 -87t-85 -36q-49 0 -85 36t-36 87z" />
<glyph horiz-adv-x="1112" d="M86 754v96q0 324 315 324q338 0 572 -48v-206q-295 14 -514 14q-86 0 -86 -88v-68q0 -49 19.5 -63.5t66.5 -14.5h280q289 0 289 -315v-98q0 -307 -289 -307q-514 0 -608 49v202q324 -10 528 -10q29 0 49.5 18.5t26.5 35.5l6 18v80q0 41 -18 57t-64 16h-268 q-164 0 -234.5 77t-70.5 231zM244 1573h190l129 -123l121 123h190l-206 -277h-213z" />
<glyph horiz-adv-x="1048" d="M125 215v725q0 225 258 229q494 -10 598 -30v-221h-504q-43 0 -54 -13.5t-11 -52.5v-147l495 -17v-215l-495 -14v-144q0 -29 10 -44t24.5 -18t38.5 -3h496v-221q-127 -29 -639 -33q-100 2 -158.5 57.5t-58.5 161.5zM270 1292v164h598v-164h-598z" />
<glyph horiz-adv-x="1161" d="M86 571v15q0 299 94 445.5t332 154.5q121 4 282.5 -9.5t254.5 -41.5v-205q-190 27 -420 26q-78 0 -121 -10t-77 -48t-46 -110.5t-12 -197.5q0 -80 6 -130t24.5 -102.5t62.5 -79t114 -28.5q166 -6 211 78v151h-220v158q141 39 369 39q63 0 137 -6v-670q-4 0 -106.5 1 t-108.5 -1l-65 82q-53 -53 -122 -74.5t-181 -21.5q-412 0 -408 585zM487 -199q0 49 45 49h156q45 0 45 -49v-227q0 -57 -24.5 -93t-59.5 -45t-69.5 -11.5t-59.5 3.5l-24 5v88q57 0 57 47v26h-21q-45 1 -45 46v161z" />
<glyph horiz-adv-x="1019" d="M31 903v264h958v-264h-336v-227h189v-133h-189v-543h-286v543h-193v133h193v227h-336z" />
<glyph horiz-adv-x="1024" d="M55 0v264l547 639h-547v264h918v-264l-529 -639h529v-264h-918zM197 1569h192l129 -123l119 123h192l-208 -279h-213z" />
<glyph horiz-adv-x="751" d="M78 1030v164h598v-164h-598z" />
<glyph horiz-adv-x="569" d="M78 956q0 88 60.5 149.5t146.5 61.5t146.5 -61.5t60.5 -149.5t-60.5 -148t-146.5 -60t-146.5 60t-60.5 148zM197 956.5q0 -36.5 25.5 -61.5t62.5 -25t62.5 25t25.5 61.5t-25.5 62t-62.5 25.5q-35 0 -61.5 -25.5t-26.5 -62z" />
<glyph horiz-adv-x="497" d="M31 1087l186 285h250l-250 -285h-186z" />
<glyph horiz-adv-x="786" d="M78 1393h180l131 -142l137 142h183l-220 -306h-213z" />
<glyph horiz-adv-x="1230" d="M117 0v1169h280l451 -647v647h285v-1169v-104q-2 -182 -118 -259t-343 -71v201q178 0 178 151v88l-447 651v-657h-286z" />
<glyph horiz-adv-x="1241" d="M55 0l410 1167h342l383 -1167h-301l-80 238h-367l-86 -238h-301zM336 1290v164h598v-164h-598zM512 469h233l-110 346z" />
<glyph horiz-adv-x="1241" d="M55 0l410 1167h342l383 -1167h-301l-80 238h-367l-86 -238h-301zM512 469h233l-110 346zM543 1290l186 283h250l-250 -283h-186z" />
<glyph horiz-adv-x="1241" d="M55 0l410 1167h342l383 -1167h-301l-80 238h-367l-86 -238h-301zM319 1290l222 279h213l198 -279h-190l-121 123l-129 -123h-193zM512 469h233l-110 346z" />
<glyph horiz-adv-x="1241" d="M55 0l410 1167h342l383 -1167h-301l-80 238h-367l-86 -238h-301zM285 1403q127 143 247 143q49 -2 116 -36.5t102 -34.5q80 -4 188 77l49 -122q-129 -139 -231 -140q-51 2 -122 37t-108 35q-18 0 -33.5 -1t-29.5 -6t-24.5 -8.5t-27 -11.5t-23.5 -12t-26.5 -16.5 t-27.5 -16.5zM512 469h233l-110 346z" />
<glyph horiz-adv-x="1241" d="M55 0l410 1167h342l383 -1167h-301l-80 238h-367l-86 -238h-301zM254 1411q0 51 36 86t87 35q49 0 84 -35t35 -86q0 -49 -35 -85t-84 -36q-51 0 -87 36t-36 85zM512 469h233l-110 346zM776 1411q0 51 36 86t85 35q51 0 86 -35t35 -86q0 -49 -35 -85t-86 -36q-49 0 -85 36 t-36 85z" />
<glyph horiz-adv-x="1241" d="M55 0l410 1167h121q-68 16 -112 72.5t-44 130.5q0 88 61.5 149.5t147.5 61.5t146.5 -61.5t60.5 -149.5q0 -74 -44 -130t-112 -73h117l383 -1167h-301l-80 238h-367l-86 -238h-301zM512 469h233l-110 346zM549 1370q0 -37 26.5 -62.5t63.5 -25.5t61.5 25.5t24.5 62.5 t-24.5 62.5t-61.5 25.5t-63.5 -25.5t-26.5 -62.5z" />
<glyph horiz-adv-x="1644" d="M37 0l416 946q23 53 56.5 93t84.5 63.5t88 37t107.5 19.5t98 7t103.5 1q485 -10 590 -30v-219h-496q-45 0 -55 -13.5t-12 -54.5v-150l489 -16v-215l-489 -14v-144q0 -41 18.5 -52t57.5 -11l487 -2v-219q-57 -12 -214 -20.5t-285 -10.5l-128 -2q-98 -2 -161.5 49 t-63.5 158v78h-258l-125 -279h-309zM559 487h170v375z" />
<glyph horiz-adv-x="501" d="M94.5 -128q26.5 77 126.5 128h-96v1167h287v-1167h-74q-76 -57 -90.5 -111.5t19.5 -84t91 -27.5v-156q-78 -18 -150.5 17.5t-106 96t-7 137.5z" />
<glyph horiz-adv-x="1052" d="M86 604q0 281 98.5 430.5t352.5 149.5q287 0 462 -62v-200q-35 6 -171 19t-224 13q-145 0 -188 -79.5t-43 -270.5v-74q0 -20 3 -67t8 -66.5t15.5 -54.5t27.5 -51.5t41 -34.5t58.5 -26.5t77.5 -8.5q161 2 395 31v-195q-170 -66 -462 -65q-117 0 -201 33.5t-132 86 t-75 137.5t-35 164.5t-8 190.5zM281 1593h192l129 -123l119 123h192l-208 -276h-213z" />
<glyph horiz-adv-x="1048" d="M125 215v725q0 225 258 229q494 -10 598 -30v-221h-504q-43 0 -54 -13.5t-11 -52.5v-147l495 -17v-215l-495 -14v-144q0 -29 10 -44t24.5 -18t38.5 -3h496v-221q-127 -29 -639 -33q-100 2 -158.5 57.5t-58.5 161.5zM485 1292l187 285h250l-250 -285h-187z" />
<glyph horiz-adv-x="1048" d="M125 215v725q0 225 258 229q494 -10 598 -30v-221h-504q-43 0 -54 -13.5t-11 -52.5v-147l495 -17v-215l-495 -14v-144q0 -29 10 -44t24.5 -18t38.5 -3h496v-221q-47 -35 -71.5 -71t-25.5 -63.5t13 -49t41 -33t61 -9.5v-155q-61 -14 -121.5 3t-97.5 59t-52 93.5 t12.5 108.5t97.5 100q-88 -6 -212 -10t-204 -5l-80 -1q-100 2 -158.5 57.5t-58.5 161.5z" />
<glyph horiz-adv-x="1048" d="M125 215v725q0 225 258 229q494 -10 598 -30v-221h-504q-43 0 -54 -13.5t-11 -52.5v-147l495 -17v-215l-495 -14v-144q0 -29 10 -44t24.5 -18t38.5 -3h496v-221q-127 -29 -639 -33q-100 2 -158.5 57.5t-58.5 161.5zM182 1415q0 49 35 84t86 35q49 0 84 -35t35 -84 q0 -51 -35 -87t-84 -36q-51 0 -86 36t-35 87zM705 1415q0 49 34.5 84t85.5 35q49 0 84 -35t35 -84q0 -51 -35 -87t-84 -36q-51 0 -85.5 36t-34.5 87z" />
<glyph horiz-adv-x="1048" d="M125 215v725q0 225 258 229q494 -10 598 -30v-221h-504q-43 0 -54 -13.5t-11 -52.5v-147l495 -17v-215l-495 -14v-144q0 -29 10 -44t24.5 -18t38.5 -3h496v-221q-127 -29 -639 -33q-100 2 -158.5 57.5t-58.5 161.5zM465 1339v156q0 51 49 51h148q47 0 47 -51v-156 q0 -47 -47 -47h-148q-49 0 -49 47z" />
<glyph horiz-adv-x="501" d="M125 0v1167h287v-1167h-287zM166 1290l184 283h252l-250 -283h-186z" />
<glyph horiz-adv-x="501" d="M-57 1290l219 279h213l198 -279h-190l-121 123l-127 -123h-192zM125 0v1167h287v-1167h-287z" />
<glyph horiz-adv-x="501" d="M-29 1290v164h598v-164h-598zM125 0v1167h287v-1167h-287z" />
<glyph horiz-adv-x="1228" d="M31 528v131h123v512h542q438 -4 439 -591q0 -121 -17.5 -215.5t-41 -153.5t-65.5 -102t-75 -63.5t-84 -32t-77.5 -12.5t-73.5 -1h-9h-538v528h-123zM444 254h203q113 0 154 86t41 240q0 336 -189 335h-209v-256h166v-131h-166v-274z" />
<glyph horiz-adv-x="1230" d="M125 0v1169h281l450 -647v647h285v-1169h-279l-450 657v-657h-287zM500 -197q0 49 45 50h155q43 0 43 -50v-227q0 -154 -164 -150l-71 9v90q57 -2 57 45v27h-20q-45 0 -45 47v159z" />
<glyph horiz-adv-x="1224" d="M86 573q0 184 33 305t104.5 185.5t162.5 89.5t226 25q111 0 184.5 -11.5t144.5 -46.5t111 -98.5t64.5 -171t24.5 -262.5q0 -184 -33 -304t-104.5 -183.5t-161.5 -87t-230 -23.5q-137 0 -224 20.5t-160.5 80t-107.5 178t-34 304.5zM315 1311v162h598v-162h-598zM373 584 q0 -209 48 -269.5t191 -60.5q68 0 106 9t72.5 42t49 101.5t14.5 181.5q0 115 -11.5 181.5t-45 98t-71.5 38.5t-114 7q-68 0 -103.5 -7t-71.5 -37.5t-50 -99t-14 -185.5z" />
<glyph horiz-adv-x="1185" d="M125 -2v1169h274v-475h117l291 475h326l-367 -594l367 -575h-326l-295 453h-113v-453h-274zM477 -199q0 49 47 49h154q45 0 45 -49v-227q0 -154 -164 -151q-71 9 -72 10v90q20 0 32.5 4t18 12t6.5 14.5t1 16.5v24h-21q-47 1 -47 48v159z" />
<glyph horiz-adv-x="1224" d="M86 573q0 184 33 305t104.5 185.5t162.5 89.5t226 25q111 0 184.5 -11.5t144.5 -46.5t111 -98.5t64.5 -171t24.5 -262.5q0 -184 -33 -304t-104.5 -183.5t-161.5 -87t-230 -23.5q-137 0 -224 20.5t-160.5 80t-107.5 178t-34 304.5zM293 1296l221 277h213l197 -277h-191 l-119 123l-129 -123h-192zM373 584q0 -209 48 -269.5t191 -60.5q68 0 106 9t72.5 42t49 101.5t14.5 181.5q0 115 -11.5 181.5t-45 98t-71.5 38.5t-114 7q-68 0 -103.5 -7t-71.5 -37.5t-50 -99t-14 -185.5z" />
<glyph horiz-adv-x="1224" d="M86 573q0 184 33 305t104.5 185.5t162.5 89.5t226 25q111 0 184.5 -11.5t144.5 -46.5t111 -98.5t64.5 -171t24.5 -262.5q0 -184 -33 -304t-104.5 -183.5t-161.5 -87t-230 -23.5q-137 0 -224 20.5t-160.5 80t-107.5 178t-34 304.5zM274 1413q131 143 248 143 q51 -2 118 -36.5t99 -34.5q80 -4 189 78l51 -123q-129 -139 -234 -140q-51 2 -121.5 37t-107.5 35q-25 0 -44 -3t-40.5 -12t-33 -14.5t-38 -20.5t-36.5 -22zM373 584q0 -209 48 -269.5t191 -60.5q68 0 106 9t72.5 42t49 101.5t14.5 181.5q0 115 -11.5 181.5t-45 98 t-71.5 38.5t-114 7q-68 0 -103.5 -7t-71.5 -37.5t-50 -99t-14 -185.5z" />
<glyph horiz-adv-x="1224" d="M86 573q0 184 33 305t104.5 185.5t162.5 89.5t226 25q111 0 184.5 -11.5t144.5 -46.5t111 -98.5t64.5 -171t24.5 -262.5q0 -184 -33 -304t-104.5 -183.5t-161.5 -87t-230 -23.5q-137 0 -224 20.5t-160.5 80t-107.5 178t-34 304.5zM227 1421q0 51 36 85t87 34 q49 0 84 -33.5t35 -85.5q0 -49 -35 -85t-84 -36q-51 0 -87 36t-36 85zM373 584q0 -209 48 -269.5t191 -60.5q68 0 106 9t72.5 42t49 101.5t14.5 181.5q0 115 -11.5 181.5t-45 98t-71.5 38.5t-114 7q-68 0 -103.5 -7t-71.5 -37.5t-50 -99t-14 -185.5zM750 1421q0 51 35.5 85 t86.5 34q49 0 84 -33.5t35 -85.5q0 -49 -34.5 -85t-84.5 -36q-51 0 -86.5 36t-35.5 85z" />
<glyph horiz-adv-x="1216" d="M84 0q66 94 100 137q-96 133 -96 436q0 184 33 305t102.5 185.5t160.5 89.5t226 25q219 0 318 -52q25 33 33 43h151q-6 -10 -43 -59t-45 -59q111 -129 111 -463q0 -184 -32 -304t-102.5 -183.5t-160.5 -87t-230 -23.5q-229 0 -336 65q-4 -6 -20 -28.5t-21 -26.5h-149z M375 584q0 -104 16 -166q205 266 365 475q-35 20 -146 20q-68 0 -102.5 -7t-70.5 -37.5t-49 -99t-13 -185.5zM446 287q45 -33 164 -33q68 0 106 9t71.5 43t47 101.5t13.5 180.5q0 129 -23 196q-53 -67 -379 -497z" />
<glyph horiz-adv-x="1187" d="M123 532v635h289v-635q0 -170 51 -224t172 -54q113 0 163 56.5t50 221.5v635h289v-635q0 -158 -35 -266t-101.5 -164.5t-138 -80t-166.5 -29.5q-72 -57 -86 -110.5t20 -83t91 -27.5v-156q-78 -18 -149.5 16.5t-105.5 95t-8.5 136.5t122.5 127q-84 4 -146.5 16t-124 48 t-100.5 93.5t-62.5 154.5t-23.5 230z" />
<glyph horiz-adv-x="1228" d="M123 532v635h289v-635q0 -170 51 -224t172 -54q113 0 163 56.5t50 221.5v635h289v-635q0 -137 -30 -238t-75 -158.5t-114.5 -91.5t-134 -44t-148.5 -10q-94 0 -161.5 9t-138.5 41t-114 89t-70.5 158.5t-27.5 244.5zM537 1290l186 283h250l-250 -283h-186z" />
<glyph horiz-adv-x="1228" d="M123 532v635h289v-635q0 -170 51 -224t172 -54q113 0 163 56.5t50 221.5v635h289v-635q0 -137 -30 -238t-75 -158.5t-114.5 -91.5t-134 -44t-148.5 -10q-94 0 -161.5 9t-138.5 41t-114 89t-70.5 158.5t-27.5 244.5zM311 1290l221 279h213l199 -279h-190l-121 123 l-129 -123h-193z" />
<glyph horiz-adv-x="1228" d="M123 532v635h289v-635q0 -170 51 -224t172 -54q113 0 163 56.5t50 221.5v635h289v-635q0 -137 -30 -238t-75 -158.5t-114.5 -91.5t-134 -44t-148.5 -10q-94 0 -161.5 9t-138.5 41t-114 89t-70.5 158.5t-27.5 244.5zM246 1411q0 51 35.5 86t85.5 35q51 0 84.5 -35 t33.5 -86q0 -49 -34.5 -85t-84 -36t-85 36t-35.5 85zM768 1411q0 51 36 86t85 35q51 0 85 -35t34 -86q0 -49 -35 -85t-84 -36t-85 36t-36 85z" />
<glyph horiz-adv-x="1228" d="M123 532v635h289v-635q0 -170 51 -224t172 -54q113 0 163 56.5t50 221.5v635h289v-635q0 -137 -30 -238t-75 -158.5t-114.5 -91.5t-134 -44t-148.5 -10q-94 0 -161.5 9t-138.5 41t-114 89t-70.5 158.5t-27.5 244.5zM276 1403q131 143 248 143q49 -2 116 -36.5t101 -34.5 q80 -4 189 77l49 -122q-129 -139 -231 -140q-51 2 -122 37t-108 35q-18 0 -33.5 -1t-30 -6t-24.5 -8.5t-26.5 -11.5t-23.5 -12t-26.5 -16.5t-27.5 -16.5z" />
<glyph horiz-adv-x="1228" d="M123 532v635h289v-635q0 -170 51 -224t172 -54q113 0 163 56.5t50 221.5v635h289v-635q0 -137 -30 -238t-75 -158.5t-114.5 -91.5t-134 -44t-148.5 -10q-94 0 -161.5 9t-138.5 41t-114 89t-70.5 158.5t-27.5 244.5zM330 1290v164h598v-164h-598z" />
<glyph horiz-adv-x="2105" d="M57 754q0 -154 71 -231t234 -77h261q45 0 63.5 -16t18.5 -57v-80q0 -72 -82 -72l-521 10v-202q94 -49 600 -49q289 0 289 307v98q0 315 -289 315h-272q-47 0 -66.5 14.5t-19.5 63.5v74q0 82 86 82l506 -14v206q-113 20 -291 34t-270 14q-317 0 -318 -316v-104zM1106 752 v106q0 315 315 316q92 0 271.5 -13.5t289.5 -34.5v-206q-285 14 -503 14q-86 0 -86 -82v-74q0 -49 19.5 -63.5t66.5 -14.5h270q289 0 289 -315v-98q0 -307 -289 -307q-504 0 -598 49v202q315 -10 520 -10q80 0 80 72v80q0 41 -17.5 57t-62.5 16h-260q-164 0 -234.5 76 t-70.5 230z" />
<glyph horiz-adv-x="1241" d="M55 0l410 1167h342l383 -1167h-301l-80 238h-367l-86 -238h-301zM279 1573h251l185 -283h-187zM512 469h233l-110 346z" />
<glyph horiz-adv-x="1052" d="M86 604q0 281 98.5 430.5t352.5 149.5q287 0 462 -62v-200q-35 6 -171 19t-224 13q-145 0 -188 -79.5t-43 -270.5v-74q0 -20 3 -67t8 -66.5t15.5 -54.5t27.5 -51.5t41 -34.5t58.5 -26.5t77.5 -8.5q161 2 395 31v-195q-170 -66 -462 -65q-117 0 -201 33.5t-132 86 t-75 137.5t-35 164.5t-8 190.5zM365 -238l90 31q41 16 51 45t10 92h193q0 -160 -49.5 -225t-180.5 -65h-114v122z" />
<glyph horiz-adv-x="1228" d="M31 528v131h123v512h542q438 -4 439 -591q0 -121 -17.5 -215.5t-41 -153.5t-65.5 -102t-75 -63.5t-84 -32t-77.5 -12.5t-73.5 -1h-9h-538v528h-123zM444 254h203q113 0 154 86t41 240q0 336 -189 335h-209v-256h166v-131h-166v-274z" />
<glyph horiz-adv-x="1048" d="M125 215v725q0 225 258 229q494 -10 598 -30v-221h-504q-43 0 -54 -13.5t-11 -52.5v-147l495 -17v-215l-495 -14v-144q0 -29 10 -44t24.5 -18t38.5 -3h496v-221q-127 -29 -639 -33q-100 2 -158.5 57.5t-58.5 161.5zM266 1577h250l186 -285h-186z" />
<glyph horiz-adv-x="1048" d="M125 215v725q0 225 258 229q494 -10 598 -30v-221h-504q-43 0 -54 -13.5t-11 -52.5v-147l495 -17v-215l-495 -14v-144q0 -29 10 -44t24.5 -18t38.5 -3h496v-221q-127 -29 -639 -33q-100 2 -158.5 57.5t-58.5 161.5zM260 1292l221 279h213l199 -279h-191l-120 123 l-129 -123h-193z" />
<glyph horiz-adv-x="501" d="M-84 1573h252l184 -283h-186zM125 0v1167h287v-1167h-287z" />
<glyph horiz-adv-x="501" d="M-123 1411q0 51 36 86t85 35t84 -35t35 -86q0 -49 -35 -85t-84 -36t-85 36t-36 85zM125 0v1167h287v-1167h-287zM399 1411q0 51 36 86t85 35t84 -35t35 -86q0 -49 -35 -85t-84 -36t-85 36t-36 85z" />
<glyph horiz-adv-x="1230" d="M125 0v1169h281l450 -647v647h285v-1169h-279l-450 657v-657h-287zM270 1405q131 143 248 143q51 -2 117.5 -36.5t99.5 -34.5q80 -4 191 77l49 -122q-129 -139 -234 -140q-51 2 -121.5 37t-107.5 35q-25 0 -44 -3t-40.5 -12.5t-32 -13.5t-38 -21.5t-35.5 -21.5z" />
<glyph horiz-adv-x="1224" d="M86 573q0 184 33 305t104.5 185.5t162.5 89.5t226 25q111 0 184.5 -11.5t144.5 -46.5t111 -98.5t64.5 -171t24.5 -262.5q0 -184 -33 -304t-104.5 -183.5t-161.5 -87t-230 -23.5q-137 0 -224 20.5t-160.5 80t-107.5 178t-34 304.5zM285 1585h250l186 -285h-186zM373 584 q0 -209 48 -269.5t191 -60.5q68 0 106 9t72.5 42t49 101.5t14.5 181.5q0 115 -11.5 181.5t-45 98t-71.5 38.5t-114 7q-68 0 -103.5 -7t-71.5 -37.5t-50 -99t-14 -185.5z" />
<glyph horiz-adv-x="1224" d="M86 573q0 184 33 305t104.5 185.5t162.5 89.5t226 25q111 0 184.5 -11.5t144.5 -46.5t111 -98.5t64.5 -171t24.5 -262.5q0 -184 -33 -304t-104.5 -183.5t-161.5 -87t-230 -23.5q-137 0 -224 20.5t-160.5 80t-107.5 178t-34 304.5zM373 584q0 -209 48 -269.5t191 -60.5 q68 0 106 9t72.5 42t49 101.5t14.5 181.5q0 115 -11.5 181.5t-45 98t-71.5 38.5t-114 7q-68 0 -103.5 -7t-71.5 -37.5t-50 -99t-14 -185.5zM532 1300l187 285h250l-250 -285h-187z" />
<glyph horiz-adv-x="1228" d="M123 532v635h289v-635q0 -170 51 -224t172 -54q113 0 163 56.5t50 221.5v635h289v-635q0 -137 -30 -238t-75 -158.5t-114.5 -91.5t-134 -44t-148.5 -10q-94 0 -161.5 9t-138.5 41t-114 89t-70.5 158.5t-27.5 244.5zM297 1573h250l186 -283h-186z" />
<glyph horiz-adv-x="1212" d="M55 1167h312l245 -460l236 460h313l-407 -766v-403h-287v403zM502 1290l184 283h252l-250 -283h-186z" />
<glyph horiz-adv-x="1095" d="M117 0v1165h284v-198h250q344 0 344 -361q0 -125 -27.5 -208t-75.5 -120.5t-93 -51t-103 -13.5q-176 0 -295 33v-246h-284zM401 463h205q61 0 82 26.5t21 110.5q0 68 -25 94.5t-78 30.5h-205v-262z" />
<glyph horiz-adv-x="522" d="M123 55v191q0 59 55 59h182q55 0 56 -59v-281q0 -72 -29 -119t-71 -61t-84 -19.5t-70 -1.5l-29 5v116q70 -2 70 70v45h-25q-55 0 -55 55z" />
<glyph horiz-adv-x="886" d="M111 707v280q0 183 180 200q55 5 102 -5v-115q-70 0 -69 -72v-43h24q55 0 55 -55v-190q0 -61 -55 -62h-182q-55 1 -55 62zM483 707v280q0 183 181 200q55 5 102 -5v-115q-70 0 -70 -72v-43h25q55 0 55 -55v-190q0 -61 -55 -62h-182q-56 1 -56 62z" />
<glyph horiz-adv-x="886" d="M111 938v190q0 59 57 60h182q53 0 53 -60v-280q0 -184 -181 -201q-54 -5 -99 4v117q70 -2 70 70v45h-25q-57 0 -57 55zM483 938v190q0 59 58 60h182q53 0 53 -60v-280q0 -184 -181 -201q-54 -5 -99 4v117q70 -2 69 70v45h-24q-58 0 -58 55z" />
<glyph horiz-adv-x="886" d="M111 55v191q0 59 57 59h182q53 0 53 -59v-281q0 -184 -181 -201q-54 -5 -99 5v116q70 -2 70 70v45h-25q-57 0 -57 55zM483 55v191q0 59 58 59h182q53 0 53 -59v-281q0 -184 -181 -201q-54 -5 -99 5v116q70 -2 69 70v45h-24q-58 0 -58 55z" />
<glyph horiz-adv-x="557" d="M133 0l29 791h231l29 -791h-289zM141 936v184q0 47 47 47h179q49 0 49 -47v-184q0 -51 -49 -51h-179q-47 0 -47 51z" />
<glyph horiz-adv-x="856" d="M70 811q0 219 76.5 300t281.5 81q203 0 279.5 -82t76.5 -299q0 -203 -76.5 -281.5t-279.5 -78.5q-201 0 -279.5 80.5t-78.5 279.5zM96 254v141h662v-141h-662zM291 813q0 -121 29.5 -152.5t107.5 -31.5q82 0 107.5 29.5t27.5 154.5q2 133 -25.5 167t-109.5 34 q-84 0 -110.5 -35t-26.5 -166z" />
<glyph horiz-adv-x="845" d="M96 256v141h705v-141h-705zM98 469l236 698h264l203 -698h-205l-41 143h-199l-43 -143h-215zM401 762h121l-55 213z" />
<glyph horiz-adv-x="1060" d="M25 401v131l116 11v75l-116 13v123l116 14q0 414 418 414q182 0 447 -47v-217q-258 23 -390 22q-109 0 -147.5 -43t-38.5 -129l356 -12v-127l-356 -11v-75l356 -11v-131q-23 0 -59.5 -1t-115.5 -3t-131 -4t-50 -4q0 -90 49 -120.5t137 -30.5l396 26v-217 q-147 -57 -453 -57q-418 0 -418 399z" />
<glyph horiz-adv-x="1011" d="M104 244v923h287v-802q0 -47 17.5 -71t38 -27t67.5 -3h440v-264h-606q-109 0 -176.5 61.5t-67.5 182.5zM506 1116v137h196v-137l-20 -274h-154z" />
<glyph horiz-adv-x="1112" d="M86 754v96q0 324 315 324q338 0 572 -48v-206q-295 14 -514 14q-86 0 -86 -88v-68q0 -49 19.5 -63.5t66.5 -14.5h280q289 0 289 -315v-98q0 -307 -289 -307q-514 0 -608 49v202q324 -10 528 -10q29 0 49.5 18.5t26.5 35.5l6 18v80q0 41 -18 57t-64 16h-268 q-164 0 -234.5 77t-70.5 231zM457 1303l186 282h250l-250 -282h-186z" />
<glyph horiz-adv-x="1112" d="M86 754v96q0 324 315 324q338 0 572 -48v-206q-295 14 -514 14q-86 0 -86 -88v-68q0 -49 19.5 -63.5t66.5 -14.5h280q289 0 289 -315v-98q0 -307 -289 -307q-514 0 -608 49v202q324 -10 528 -10q29 0 49.5 18.5t26.5 35.5l6 18v80q0 41 -18 57t-64 16h-268 q-164 0 -234.5 77t-70.5 231zM164 -246l90 31q41 16 51 45t10 92h195q0 -160 -50 -225.5t-179 -65.5h-117v123z" />
<glyph horiz-adv-x="1206" d="M170 903v264h958v-264h-335v-903h-287v903h-336zM338 1581h192l129 -123l119 123h193l-209 -278h-213z" />
<glyph horiz-adv-x="1024" d="M55 0v264l547 639h-547v264h918v-264l-529 -639h529v-264h-918zM422 1290l186 283h250l-250 -283h-186z" />
<glyph horiz-adv-x="1024" d="M55 0v264l547 639h-547v264h918v-264l-529 -639h529v-264h-918zM391 1337v156q0 51 49 51h148q47 0 47 -51v-156q0 -47 -47 -47h-148q-49 0 -49 47z" />
<glyph horiz-adv-x="1124" d="M94 0v1167h553q369 0 369 -364q0 -322 -172 -367l227 -436h-307l-191 412q-193 14 -192 18v-430h-287zM381 621h240q109 0 108 161q0 82 -32.5 113t-75.5 31h-240v-305zM467 1290l186 283h250l-250 -283h-186z" />
<glyph horiz-adv-x="1241" d="M55 0l410 1167h342l383 -1167h-301l-80 238h-367l-86 -238h-301zM401 1524h119q0 -51 32 -83t83 -32q57 0 88 30.5t31 84.5h118q0 -106 -68.5 -170t-168.5 -64t-167 65t-67 169zM512 469h233l-110 346z" />
<glyph horiz-adv-x="1026" d="M125 244v923h287v-802q0 -37 7 -58.5t26.5 -30t36 -10.5t53.5 -2h440v-264h-606q-111 0 -177.5 61.5t-66.5 182.5zM170 1290l186 283h250l-250 -283h-186z" />
<glyph horiz-adv-x="1052" d="M86 604q0 281 98.5 430.5t352.5 149.5q287 0 462 -62v-200q-35 6 -171 19t-224 13q-145 0 -188 -79.5t-43 -270.5v-74q0 -20 3 -67t8 -66.5t15.5 -54.5t27.5 -51.5t41 -34.5t58.5 -26.5t77.5 -8.5q161 2 395 31v-195q-170 -66 -462 -65q-117 0 -201 33.5t-132 86 t-75 137.5t-35 164.5t-8 190.5zM465 1317l186 285h250l-250 -285h-186z" />
<glyph horiz-adv-x="1048" d="M125 215v725q0 225 258 229q494 -10 598 -30v-221h-504q-43 0 -54 -13.5t-11 -52.5v-147l495 -17v-215l-495 -14v-144q0 -29 10 -44t24.5 -18t38.5 -3h496v-221q-127 -29 -639 -33q-100 2 -158.5 57.5t-58.5 161.5zM256 1569h190l129 -123l121 123h191l-209 -277h-213z " />
<glyph horiz-adv-x="1210" d="M188 0v1171h551q449 -4 449 -591q0 -96 -11.5 -175t-25.5 -136.5t-44 -101.5t-52.5 -71.5t-62.5 -47t-63.5 -29t-68.5 -14.5t-62 -5h-59h-551zM342 1571h190l130 -123l120 123h191l-207 -279h-213zM475 254h234q113 0 152.5 87t39.5 239q0 338 -192 338h-234v-664z" />
<glyph horiz-adv-x="1230" d="M125 0v1169h281l450 -647v647h285v-1169h-279l-450 657v-657h-287zM555 1292l184 285h252l-250 -285h-186z" />
<glyph horiz-adv-x="1230" d="M125 0v1169h281l450 -647v647h285v-1169h-279l-450 657v-657h-287zM319 1569h193l127 -123l121 123h192l-209 -277h-213z" />
<glyph horiz-adv-x="1224" d="M86 573q0 184 33 305t104.5 185.5t162.5 89.5t226 25q111 0 184.5 -11.5t144.5 -46.5t111 -98.5t64.5 -171t24.5 -262.5q0 -184 -33 -304t-104.5 -183.5t-161.5 -87t-230 -23.5q-137 0 -224 20.5t-160.5 80t-107.5 178t-34 304.5zM360 1300l187 285h250l-250 -285h-187z M373 584q0 -209 48 -269.5t191 -60.5q68 0 106 9t72.5 42t49 101.5t14.5 181.5q0 115 -11.5 181.5t-45 98t-71.5 38.5t-114 7q-68 0 -103.5 -7t-71.5 -37.5t-50 -99t-14 -185.5zM680 1300l184 285h252l-250 -285h-186z" />
<glyph horiz-adv-x="1124" d="M94 0v1167h553q369 0 369 -364q0 -322 -172 -367l227 -436h-307l-191 412q-193 14 -192 18v-430h-287zM229 1567h191l129 -123l121 123h190l-207 -277h-213zM381 621h240q109 0 108 161q0 82 -32.5 113t-75.5 31h-240v-305z" />
<glyph horiz-adv-x="1228" d="M123 532v635h289v-635q0 -170 51 -224t172 -54q113 0 163 56.5t50 221.5v635h289v-635q0 -137 -30 -238t-75 -158.5t-114.5 -91.5t-134 -44t-148.5 -10q-94 0 -161.5 9t-138.5 41t-114 89t-70.5 158.5t-27.5 244.5zM422 1470q0 88 61.5 150.5t147.5 62.5t146.5 -62 t60.5 -151q0 -86 -60.5 -147t-146.5 -61t-147.5 61t-61.5 147zM543 1470q0 -35 25.5 -60.5t62.5 -25.5t62.5 26t25.5 60q0 37 -25.5 64t-62.5 27t-62.5 -27t-25.5 -64z" />
<glyph horiz-adv-x="1228" d="M123 532v635h289v-635q0 -170 51 -224t172 -54q113 0 163 56.5t50 221.5v635h289v-635q0 -137 -30 -238t-75 -158.5t-114.5 -91.5t-134 -44t-148.5 -10q-94 0 -161.5 9t-138.5 41t-114 89t-70.5 158.5t-27.5 244.5zM373 1290l186 283h250l-250 -283h-186zM692 1290 l187 283h249l-249 -283h-187z" />
<glyph horiz-adv-x="1064" d="M55 903v264h959v-264h-336v-903h-287v903h-336zM145 -252l91 31q41 16 51 43.5t10 91.5h195q0 -160 -49.5 -224.5t-180.5 -64.5h-117v123z" />
<glyph horiz-adv-x="1034" d="M31 451v151l125 51v514h286v-397l197 80v-152l-197 -80v-253q0 -37 7.5 -58.5t27 -30t35.5 -10.5t53 -2h441v-264h-607q-109 0 -176 61.5t-67 182.5v258z" />
<glyph horiz-adv-x="1007" d="M88 346v68q0 164 107.5 245.5t275.5 51.5v86h223v-289q-119 2 -207 0q-113 -4 -112 -90v-49q0 -55 32.5 -79t104.5 -24h440v-229q-266 -49 -485 -39q-379 0 -379 348zM444 942v184q0 47 54 48h174q49 0 49 -48v-184q0 -51 -49 -51h-174q-54 0 -54 51z" />
<glyph horiz-adv-x="1742" d="M61 573q0 184 33 305t104.5 185.5t163 89.5t226.5 25q229 0 330 -68q55 59 172 59q494 -10 598 -30v-221h-504q-43 0 -54.5 -13.5t-11.5 -52.5v-147l496 -17v-215l-496 -14v-144q0 -29 10.5 -44t24.5 -18t39 -3h496v-221q-129 -29 -639 -33q-96 4 -146 61 q-102 -68 -315 -67q-137 0 -224.5 20.5t-161 80t-107.5 178t-34 304.5zM348 584q0 -209 48 -269.5t192 -60.5q68 0 106.5 9t73.5 42t49 101.5t14 181.5q0 115 -11 181.5t-45 98t-71.5 38.5t-115.5 7q-68 0 -103.5 -7t-71.5 -37.5t-50.5 -99t-14.5 -185.5z" />
<glyph horiz-adv-x="1212" d="M55 1167h312l245 -460l236 460h313l-407 -766v-403h-287v403zM225 1411q0 51 36 86t87 35q49 0 84 -35t35 -86q0 -49 -35 -85t-84 -36q-51 0 -87 36t-36 85zM750 1411q0 51 34.5 86t85.5 35q49 0 84 -35t35 -86q0 -49 -34.5 -85t-84.5 -36q-51 0 -85.5 36t-34.5 85z" />
<glyph horiz-adv-x="1050" d="M78 0v201l115 41v237h-115v152l117 33v102q0 401 411 403l371 -26v-234h-334q-98 0 -131 -32.5t-33 -114.5v-90l371 -31v-166h-371v-225h496v-250h-897z" />
<glyph horiz-adv-x="1107" d="M31 1169h309l211 -450l215 450h311l-334 -641h207v-131h-252v-51h252v-129h-252v-217h-286v217h-236v129h236v51h-236v131h186z" />
<glyph horiz-adv-x="2721" d="M45 715v186q0 135 62.5 200.5t211.5 65.5h156q145 0 209 -66.5t64 -199.5v-186q0 -135 -63.5 -200.5t-213.5 -65.5h-156q-145 0 -207.5 65.5t-62.5 200.5zM246 750q0 -55 20.5 -78t77.5 -23h98q66 0 85.5 22.5t19.5 78.5v116q0 59 -22.5 80t-78.5 21h-98 q-59 0 -80.5 -20.5t-21.5 -80.5v-116zM537 0l608 1167h207l-602 -1167h-213zM1145 270v185q0 135 63.5 200.5t212.5 65.5h156q145 0 207.5 -65.5t62.5 -200.5v-185q0 -137 -62.5 -202.5t-211.5 -65.5h-156q-145 0 -208.5 66.5t-63.5 201.5zM1346 303q0 -55 20 -77.5 t80 -22.5h98q63 0 83 22.5t20 77.5v117q0 59 -21.5 79.5t-77.5 20.5h-98q-61 0 -82.5 -20.5t-21.5 -79.5v-117zM1960 270v185q0 135 62.5 200.5t211.5 65.5h156q145 0 207.5 -65.5t62.5 -200.5v-185q0 -137 -62.5 -202.5t-211.5 -65.5h-156q-145 0 -207.5 66.5t-62.5 201.5z M2161 303q0 -55 20.5 -77.5t77.5 -22.5h98q66 0 85.5 22.5t19.5 77.5v117q0 59 -22.5 79.5t-78.5 20.5h-98q-59 0 -80.5 -20.5t-21.5 -79.5v-117z" />
<glyph horiz-adv-x="786" d="M78 1087l221 277h213l197 -277h-191l-121 123l-127 -123h-192z" />
<glyph horiz-adv-x="858" d="M78 1200q131 143 248 143q49 -2 115.5 -36.5t101.5 -34.5q80 -4 188 78l49 -123q-129 -139 -231 -140q-51 2 -122 37t-108 35q-25 0 -44 -3t-40.5 -12t-33 -14.5t-38 -20.5t-36.5 -22z" />
<glyph horiz-adv-x="569" d="M78 1294q0 88 60.5 149.5t146.5 61.5t146.5 -61.5t60.5 -149.5t-60.5 -148.5t-146.5 -60.5t-146.5 60.5t-60.5 148.5zM197 1294q0 -37 25.5 -61.5t62.5 -24.5t62.5 24.5t25.5 61.5t-25.5 62.5t-62.5 25.5q-35 0 -61.5 -25.5t-26.5 -62.5z" />
<glyph horiz-adv-x="1292" d="M61 827v127h107v213h287v-213h411v213h287v-213h96v-127h-96v-829h-287v434h-411v-434h-287v829h-107zM455 696h411v131h-411v-131z" />
<glyph horiz-adv-x="1200" d="M125 -2v1169h287v-471h411v471h287v-1169h-287v432h-411v-432h-287zM297 1290l219 279h213l199 -279h-191l-121 123l-127 -123h-192z" />
<glyph horiz-adv-x="1161" d="M86 586q0 301 90 446.5t324 153.5q123 4 289.5 -10.5t259.5 -40.5v-205q-213 25 -437 24q-100 0 -146 -22.5t-69.5 -100t-23.5 -241.5q0 -66 4 -111t21.5 -105.5t60.5 -93t108 -32.5q80 0 143.5 28.5t80.5 67.5v135h-207v158q141 39 356 39q63 0 137 -6v-670h-215l-65 90 q-104 -104 -310 -104q-401 0 -401 600zM397 1544h119q0 -51 33 -82.5t82 -31.5q57 0 88 30.5t31 83.5h118q0 -106 -68.5 -169.5t-169 -63.5t-167 64.5t-66.5 168.5z" />
<glyph horiz-adv-x="688" d="M55 43l4 223q145 -12 196.5 20.5t53.5 141.5v739h287v-829q0 -240 -123 -303q-111 -51 -224.5 -45t-193.5 53zM123 1290l221 279h213l199 -279h-191l-121 123l-129 -123h-192z" />
<glyph horiz-adv-x="1052" d="M86 604q0 281 98.5 430.5t352.5 149.5q287 0 462 -62v-200q-35 6 -171 19t-224 13q-145 0 -188 -79.5t-43 -270.5v-74q0 -20 3 -67t8 -66.5t15.5 -54.5t27.5 -51.5t41 -34.5t58.5 -26.5t77.5 -8.5q161 2 395 31v-195q-170 -66 -462 -65q-117 0 -201 33.5t-132 86 t-75 137.5t-35 164.5t-8 190.5zM492 1364v156q0 51 49 51h147q47 0 47 -51v-156q0 -47 -47 -47h-147q-49 0 -49 47z" />
<glyph horiz-adv-x="1052" d="M86 604q0 281 98.5 430.5t352.5 149.5q287 0 462 -62v-200q-35 6 -171 19t-224 13q-145 0 -188 -79.5t-43 -270.5v-74q0 -20 3 -67t8 -66.5t15.5 -54.5t27.5 -51.5t41 -34.5t58.5 -26.5t77.5 -8.5q161 2 395 31v-195q-170 -66 -462 -65q-117 0 -201 33.5t-132 86 t-75 137.5t-35 164.5t-8 190.5zM285 1317l221 276h213l199 -276h-191l-121 123l-129 -123h-192z" />
<glyph horiz-adv-x="1161" d="M86 586q0 301 90 446.5t324 153.5q123 4 289.5 -10.5t259.5 -40.5v-205q-213 25 -437 24q-100 0 -146 -22.5t-69.5 -100t-23.5 -241.5q0 -66 4 -111t21.5 -105.5t60.5 -93t108 -32.5q80 0 143.5 28.5t80.5 67.5v135h-207v158q141 39 356 39q63 0 137 -6v-670h-215l-65 90 q-104 -104 -310 -104q-401 0 -401 600zM496 1358v155q0 51 49 52h147q47 0 47 -52v-155q0 -47 -47 -47h-147q-49 0 -49 47z" />
<glyph horiz-adv-x="1161" d="M86 586q0 301 90 446.5t324 153.5q123 4 289.5 -10.5t259.5 -40.5v-205q-213 25 -437 24q-100 0 -146 -22.5t-69.5 -100t-23.5 -241.5q0 -66 4 -111t21.5 -105.5t60.5 -93t108 -32.5q80 0 143.5 28.5t80.5 67.5v135h-207v158q141 39 356 39q63 0 137 -6v-670h-215l-65 90 q-104 -104 -310 -104q-401 0 -401 600zM307 1311l221 276h213l197 -276h-190l-121 123l-127 -123h-193z" />
<glyph horiz-adv-x="1228" d="M123 532v635h289v-635q0 -170 51 -224t172 -54q113 0 163 56.5t50 221.5v635h289v-635q0 -137 -30 -238t-75 -158.5t-114.5 -91.5t-134 -44t-148.5 -10q-94 0 -161.5 9t-138.5 41t-114 89t-70.5 158.5t-27.5 244.5zM395 1524h119q0 -51 32 -83t83 -32q57 0 88 30.5 t31 84.5h118q0 -106 -67.5 -170t-169.5 -64q-100 0 -167 65t-67 169z" />
<glyph horiz-adv-x="1112" d="M86 754v96q0 324 315 324q338 0 572 -48v-206q-295 14 -514 14q-86 0 -86 -88v-68q0 -49 19.5 -63.5t66.5 -14.5h280q289 0 289 -315v-98q0 -307 -289 -307q-514 0 -608 49v202q324 -10 528 -10q29 0 49.5 18.5t26.5 35.5l6 18v80q0 41 -18 57t-64 16h-268 q-164 0 -234.5 77t-70.5 231zM227 1303l219 276h213l199 -276h-190l-121 122l-127 -122h-193z" />
<glyph horiz-adv-x="466" d="M88 0v1167h287v-1167h-287zM113 1348v155q0 51 49 51h147q47 0 47 -51v-155q0 -47 -47 -48h-147q-49 1 -49 48z" />
<glyph horiz-adv-x="538" d="M139 506v184q0 51 49 51h177q51 0 51 -51v-184q0 -47 -51 -47h-177q-49 0 -49 47z" />
<glyph horiz-adv-x="632" d="M133 539v243q0 72 68 72h229q72 0 72 -72v-243q0 -66 -72 -66h-229q-68 0 -68 66z" />
<glyph horiz-adv-x="538" d="M123 707v280q0 183 181 200q55 5 102 -5v-115q-72 0 -72 -72v-45h26q55 0 56 -53v-190q0 -61 -56 -62h-184q-53 1 -53 62z" />
<glyph horiz-adv-x="538" d="M123 938v190q0 59 55 60h182q55 0 56 -60v-280q0 -72 -29 -119t-71 -62.5t-84 -19.5t-70 0l-29 4v117q70 -2 70 70v45h-25q-55 0 -55 55z" />
<glyph horiz-adv-x="1122" d="M125 0v1169h551q373 0 373 -313q0 -223 -162 -260q72 -16 120 -84t48 -180q0 -174 -92.5 -253t-286.5 -79h-551zM412 244h241q49 0 80 24.5t31 100.5q0 131 -111 131q-209 -2 -241 0v-256zM412 709h241q63 0 86 25.5t23 88.5q0 104 -109 105h-241v-219zM451 1339v156 q0 51 49 51h147q49 0 49 -51v-156q0 -47 -49 -47h-147q-49 0 -49 47z" />
<glyph horiz-adv-x="1208" d="M125 0v1171h551q449 -4 448 -591q0 -123 -18.5 -218.5t-42 -156t-67.5 -102.5t-75.5 -61t-88 -29.5t-80 -11.5t-76.5 -1h-551zM412 254h231q113 0 154 87t41 239q0 338 -195 338h-231v-664zM453 1341v156q0 51 49 51h147q47 0 47 -51v-156q0 -47 -47 -47h-147 q-49 0 -49 47z" />
<glyph horiz-adv-x="1048" d="M125 0v940q0 225 258 229q494 -10 598 -30v-221h-504q-43 0 -53 -13.5t-12 -52.5v-172l495 -16v-215l-495 -15v-434h-287zM438 1339v156q0 51 49 51h148q47 0 47 -51v-156q0 -47 -47 -47h-148q-49 0 -49 47z" />
<glyph horiz-adv-x="1566" d="M86 0l111 1169h370l219 -763l220 763h368l109 -1169h-281l-72 737l-196 -737h-289l-201 735l-71 -735h-287zM664 1339v156q0 51 49 51h147q47 0 47 -51v-156q0 -47 -47 -47h-147q-49 0 -49 47z" />
<glyph horiz-adv-x="1738" d="M55 1167h301l230 -813l213 813h299l-97 -327l175 -486l217 813h295l-340 -1167h-344l-127 367l-115 -367h-346zM526 1575h250l187 -285h-187z" />
<glyph horiz-adv-x="1083" d="M94 0v1165h565q356 0 357 -366q0 -131 -32 -217t-89 -122t-103.5 -47.5t-109.5 -11.5q-29 -2 -164 9.5t-137 15.5v-426h-287zM381 618h242q51 0 78.5 31t27.5 123q2 74 -26.5 113t-79.5 39h-242v-306zM430 1335v156q0 51 49 51h148q47 0 47 -51v-156q0 -47 -47 -47h-148 q-49 0 -49 47z" />
<glyph horiz-adv-x="1738" d="M55 1167h301l230 -813l213 813h299l-97 -327l175 -486l217 813h295l-340 -1167h-344l-127 367l-115 -367h-346zM776 1290l185 285h251l-249 -285h-187z" />
<glyph horiz-adv-x="1212" d="M55 1167h312l245 -460l236 460h313l-407 -766v-403h-287v403zM258 1573h252l186 -283h-188z" />
<glyph horiz-adv-x="1738" d="M55 1167h301l230 -813l213 813h299l-97 -327l175 -486l217 813h295l-340 -1167h-344l-127 367l-115 -367h-346zM489 1413q0 49 36 84t85 35t84 -35t35 -84q0 -51 -35 -87t-84 -36t-85 36t-36 87zM1012 1413q0 49 35.5 84t85 35t84 -35t34.5 -84q0 -51 -34.5 -87t-84 -36 t-85 36t-35.5 87z" />
<glyph horiz-adv-x="1112" d="M86 754v96q0 324 315 324q338 0 572 -48v-206q-295 14 -514 14q-86 0 -86 -88v-68q0 -49 19.5 -63.5t66.5 -14.5h280q289 0 289 -315v-98q0 -307 -289 -307q-514 0 -608 49v202q324 -10 528 -10q29 0 49.5 18.5t26.5 35.5l6 18v80q0 41 -18 57t-64 16h-268 q-164 0 -234.5 77t-70.5 231zM440 1343v156q0 51 49 51h148q47 0 47 -51v-156q0 -47 -47 -47h-148q-49 0 -49 47z" />
<glyph horiz-adv-x="1738" d="M55 1167h301l230 -813l213 813h299l-97 -327l175 -486l217 813h295l-340 -1167h-344l-127 367l-115 -367h-346zM571 1290l222 279h213l198 -279h-190l-121 123l-129 -123h-193z" />
<glyph horiz-adv-x="1064" d="M55 903v264h959v-264h-336v-903h-287v903h-336zM412 1337v156q0 51 49 51h147q47 0 47 -51v-156q0 -47 -47 -47h-147q-49 0 -49 47z" />
<glyph horiz-adv-x="1212" d="M55 1167h312l245 -460l236 460h313l-407 -766v-403h-287v403zM301 1290l221 279h213l197 -279h-191l-118 123l-129 -123h-193z" />
<glyph horiz-adv-x="2197" d="M61 549q0 313 93.5 434t267.5 121q297 0 500 -68v-178q-197 14 -379 14q-59 0 -88 -7t-57.5 -37.5t-39 -99.5t-10.5 -185q0 -186 50.5 -256t191.5 -70q195 0 551 289v1096h286v-852l363 340l377 -3q-37 -39 -234.5 -226t-228.5 -220l463 -641h-338l-332 457 q-6 -6 -34.5 -28.5t-35.5 -29.5v-399h-286v201q-305 -215 -551 -215q-123 0 -210 21.5t-164 78.5t-116 173t-39 290z" />
<glyph horiz-adv-x="1462" d="M125 0v1241q0 100 57.5 169t141.5 89.5t171 9t155.5 -69t84.5 -145.5l301 -1013q6 -29 27.5 -24t21.5 30v1212h287v-1241q0 -92 -56 -159.5t-139 -90t-169 -15.5t-154 67.5t-86 156.5l-303 1024q-8 25 -29.5 18.5t-21.5 -32.5v-1227h-289z" />
<glyph horiz-adv-x="1757" d="M86 0l70 1276q4 106 91 168.5t190.5 64.5t193.5 -59t98 -172l115 -647q4 -29 28.5 -27t28.5 27l103 653q6 88 68.5 146.5t146.5 70.5t166.5 -2t142 -70.5t61.5 -138.5l86 -1290h-291l-67 1157q-2 27 -26.5 25t-26.5 -27l-107 -627q-10 -70 -67.5 -116.5t-134 -59 t-154.5 -1.5t-135.5 59.5t-67.5 121.5l-121 635q-3 29 -30 18q-22 -8 -23 -32l-53 -1153h-285z" />
<glyph horiz-adv-x="1757" d="M86 0l70 1276q4 106 91 168.5t190.5 64.5t193.5 -59t98 -172l115 -647q4 -29 28.5 -27t28.5 27l103 653q6 88 68.5 146.5t146.5 70.5t166.5 -2t142 -70.5t61.5 -138.5l86 -1290h-291l-67 1157q-2 27 -26.5 25t-26.5 -27l-107 -627q-10 -70 -67.5 -116.5t-134 -59 t-154.5 -1.5t-135.5 59.5t-67.5 121.5l-121 635q-3 29 -30 18q-22 -8 -23 -32l-53 -1153h-285zM750 1681v156q0 51 49 51h147q45 0 45 -51v-156q0 -47 -45 -47h-147q-49 0 -49 47z" />
<glyph horiz-adv-x="1462" d="M125 0v1241q0 100 57.5 169t141.5 89.5t171 9t155.5 -69t84.5 -145.5l301 -1013q6 -29 27.5 -24t21.5 30v1212h287v-1241q0 -92 -56 -159.5t-139 -90t-169 -15.5t-154 67.5t-86 156.5l-303 1024q-8 25 -29.5 18.5t-21.5 -32.5v-1227h-289zM418 1749q127 143 246 143 q51 -2 118.5 -36.5t100.5 -34.5q78 -4 188 77l49 -120q-127 -141 -231 -140q-53 2 -123 36t-107 34q-20 0 -39.5 -3t-32 -6t-31.5 -12.5t-26.5 -13.5t-31 -18.5t-31.5 -18.5z" />
<glyph horiz-adv-x="1462" d="M125 0v1241q0 100 57.5 169t141.5 89.5t171 9t155.5 -69t84.5 -145.5l301 -1013q6 -29 27.5 -24t21.5 30v1212h287v-1241q0 -92 -56 -159.5t-139 -90t-169 -15.5t-154 67.5t-86 156.5l-303 1024q-8 25 -29.5 18.5t-21.5 -32.5v-1227h-289zM649 1636l185 285h251 l-249 -285h-187z" />
<glyph horiz-adv-x="1462" d="M125 0v1241q0 100 57.5 169t141.5 89.5t171 9t155.5 -69t84.5 -145.5l301 -1013q6 -29 27.5 -24t21.5 30v1212h287v-1241q0 -92 -56 -159.5t-139 -90t-169 -15.5t-154 67.5t-86 156.5l-303 1024q-8 25 -29.5 18.5t-21.5 -32.5v-1227h-289zM459 1915h190l129 -123l121 123 h191l-209 -279h-213z" />
<glyph horiz-adv-x="1462" d="M125 0v1241q0 100 57.5 169t141.5 89.5t171 9t155.5 -69t84.5 -145.5l301 -1013q6 -29 27.5 -24t21.5 30v1212h287v-1241q0 -92 -56 -159.5t-139 -90t-169 -15.5t-154 67.5t-86 156.5l-303 1024q-8 25 -29.5 18.5t-21.5 -32.5v-1227h-289zM606 -209q0 49 45 49h156 q45 0 45 -49v-227q0 -57 -24.5 -93t-59.5 -46.5t-69.5 -11.5t-59.5 4l-25 5v91q20 0 32.5 4t18 12t6.5 14t1 17v24h-21q-45 0 -45 47v160z" />
<glyph horiz-adv-x="950" d="M94 768v487q0 254 266 254h242q256 0 256 -245v-496q0 -246 -256 -246h-244q-264 0 -264 246zM315 815q0 -53 23.5 -70.5t73.5 -17.5h133q53 0 72.5 17.5t19.5 68.5v406q0 47 -19.5 66.5t-66.5 19.5h-143q-43 0 -64.5 -15.5t-25 -30t-3.5 -40.5v-404z" />
<glyph horiz-adv-x="552" d="M25 1262v135l208 114h220v-989h-222v787z" />
<glyph horiz-adv-x="825" d="M49 1319v166q215 39 410 39q156 0 229.5 -80t73.5 -217q0 -213 -359 -500h359v-205h-707v197q481 332 482 487q0 63 -35 88t-123 25h-330z" />
<glyph horiz-adv-x="843" d="M47 1311v162q123 45 442 40q123 -2 193 -69.5t70 -177.5v-62q0 -150 -117 -190q117 -47 117 -203v-47q0 -250 -273 -250h-47h-47h-43q-33 0 -46 1t-42 2t-43 3t-39 6t-42 7.5t-36.5 9.5t-38.5 12l2 162l330 2q84 0 113.5 15.5t29.5 64.5v26q0 49 -33.5 68.5t-101.5 21.5 l-256 11v176l256 16q74 2 105.5 20.5t31.5 63.5v27q0 82 -137 82h-348z" />
<glyph horiz-adv-x="888" d="M25 819l350 690h233l-284 -575h221v211l49 102h172v-313h100v-174l-100 -17v-217h-221v197h-473z" />
<glyph horiz-adv-x="856" d="M86 549v176h395q57 0 74.5 20.5t17.5 59.5v69q0 25 -3 41.5t-22.5 31t-55.5 14.5h-142q-74 0 -74 -82h-190l31 630h639v-204h-443l-10 -183q57 45 254 35q121 -6 179.5 -75.5t58.5 -184.5v-131q0 -127 -74 -188.5t-186 -61.5q-263 0 -449 33z" />
<glyph horiz-adv-x="897" d="M84 1042q2 260 69.5 362.5t184.5 115.5q190 23 463 -31v-170h-363q-45 0 -73.5 -18.5t-40 -56.5t-14.5 -66.5t-5 -75.5q121 31 281 31q141 0 195.5 -63.5t54.5 -174.5v-137q0 -236 -254 -236h-213q-68 0 -116 21.5t-89 76t-60.5 159.5t-19.5 263zM305 938 q0 -211 123 -211h109q41 0 59 16.5t18 55.5v67q0 43 -15 57.5t-56 14.5h-238z" />
<glyph horiz-adv-x="815" d="M23 1307v204h710l58 -94l-375 -895h-244l330 785h-479z" />
<glyph horiz-adv-x="948" d="M102 752v92q0 131 115 153q-115 45 -115 197v86q0 238 269 238h229q125 0 186.5 -54.5t61.5 -181.5v-70q2 -23 -4 -52.5t-33 -62t-70 -40.5q59 -10 83 -67.5t24 -121.5v-110q0 -137 -65.5 -186.5t-180.5 -49.5h-237q-86 0 -142.5 20.5t-80 58.5t-32 72t-8.5 79zM324 786 q0 -37 17 -52t65 -15h143q43 0 60.5 15.5t17.5 51.5v70q0 76 -76 76h-148q-43 0 -61 -17.5t-18 -58.5v-70zM324 1194q0 -76 79 -76h144q51 0 65.5 19.5t14.5 56.5v47q0 49 -20.5 65.5t-65.5 16.5h-129q-49 0 -68.5 -16.5t-19.5 -65.5v-47z" />
<glyph horiz-adv-x="897" d="M70 1147v139q0 238 254 238h211q68 0 115.5 -21.5t88.5 -77t61.5 -163t20.5 -267.5q0 -182 -39 -291.5t-89 -144.5t-126 -45q-201 -27 -463 27v172h361q45 0 74.5 19.5t41 57t14.5 68.5t3 78q-117 -31 -276 -31q-143 0 -197.5 63.5t-54.5 178.5zM291 1176 q0 -45 15.5 -59.5t58.5 -14.5h233q0 217 -119 217h-112q-41 0 -58.5 -17.5t-17.5 -58.5v-67z" />
<glyph horiz-adv-x="950" d="M94 246v487q0 254 266 254h242q256 0 256 -246v-495q0 -246 -256 -246h-244q-264 0 -264 246zM315 293q0 -53 23.5 -70.5t73.5 -17.5h133q53 0 72.5 17.5t19.5 68.5v405q0 47 -19.5 66.5t-66.5 19.5h-143q-43 0 -64.5 -15t-25 -29.5t-3.5 -41.5v-403z" />
<glyph horiz-adv-x="552" d="M25 741v136l208 110h220v-987h-222v788z" />
<glyph horiz-adv-x="825" d="M49 797v166q215 39 410 38q156 0 229.5 -79.5t73.5 -216.5q0 -213 -359 -500h359v-205h-707v197q481 340 482 497q0 57 -35 80t-123 23h-330z" />
<glyph horiz-adv-x="843" d="M47 788v162q123 45 442 41q123 0 193 -68.5t70 -179.5v-61q0 -150 -117 -190q117 -45 117 -203v-47q0 -250 -273 -250h-47h-47h-43q-33 0 -46 1t-42 2t-43 3t-39 6t-42 7t-36.5 9.5t-38.5 12.5l2 162l330 2q84 0 113.5 16t29.5 63v27q0 49 -33.5 68.5t-101.5 21.5 l-256 10v177l256 16q74 2 105.5 20.5t31.5 63.5v25q0 84 -137 83h-348z" />
<glyph horiz-adv-x="888" d="M25 299l350 688h233l-284 -575h221v211l49 100h172v-311h100v-174l-100 -37v-197h-221v197h-473z" />
<glyph horiz-adv-x="856" d="M86 27v176h395q57 0 74.5 20.5t17.5 57.5v67q0 25 -3 41.5t-22.5 30.5t-55.5 14h-142q-74 0 -74 -63h-190l31 616h639v-205h-443l-10 -188q57 47 254 35q121 -4 179.5 -74t58.5 -184v-129q0 -127 -74 -187.5t-186 -60.5q-263 0 -449 33z" />
<glyph horiz-adv-x="897" d="M84 520q2 260 69.5 361.5t184.5 111.5q190 25 463 -26v-170h-363q-45 0 -73.5 -18.5t-40 -56.5t-14.5 -66.5t-5 -75.5q121 31 281 30q141 0 195.5 -63.5t54.5 -173.5v-137q0 -236 -254 -236h-213q-68 0 -116 21.5t-89 76t-60.5 159.5t-19.5 263zM305 416q0 -211 123 -211 h109q41 0 59 16.5t18 54.5v68q0 43 -15 57.5t-56 14.5h-238z" />
<glyph horiz-adv-x="815" d="M23 784v203h710l58 -94l-375 -893h-244l330 784h-479z" />
<glyph horiz-adv-x="948" d="M102 229v93q0 61 30 103t85 50q-115 45 -115 197v86q0 238 269 237h229q125 0 186.5 -54t61.5 -181v-70q2 -41 -20.5 -92t-86.5 -61q59 -10 83 -68.5t24 -120.5v-112q0 -137 -65.5 -186.5t-180.5 -49.5h-237q-86 0 -142.5 20.5t-80 58.5t-32 71.5t-8.5 78.5zM324 264 q0 -37 17 -52t65 -15h143q43 0 60.5 15t17.5 52v70q0 76 -76 76h-148q-43 0 -61 -17.5t-18 -58.5v-70zM324 672q0 -76 79 -76h144q51 0 65.5 19.5t14.5 56.5v47q0 49 -20.5 64.5t-65.5 15.5h-129q-49 0 -68.5 -15.5t-19.5 -64.5v-47z" />
<glyph horiz-adv-x="897" d="M70 618v138q0 238 254 237h211q68 0 115.5 -20.5t88.5 -74.5t61.5 -159.5t20.5 -263.5q-2 -260 -68.5 -360.5t-185.5 -114.5q-182 -20 -463 18v172h361q37 0 63.5 14.5t40 34t20.5 53.5t8 57.5t1 60.5q-106 -31 -276 -31q-143 0 -197.5 63t-54.5 176zM291 647 q0 -43 15.5 -58.5t58.5 -15.5h233q0 215 -119 215h-112q-41 0 -58.5 -16t-17.5 -57v-68z" />
<glyph horiz-adv-x="2164" d="M61 545q0 164 26 275.5t77 171t112.5 84t145.5 24.5q297 0 500 -68v-176q-197 12 -379 12q-47 0 -72 -3t-52.5 -20.5t-40.5 -52t-21.5 -97t-8.5 -158.5q0 -195 46 -257.5t163 -62.5q311 0 397 19q140 31 170 148q11 41 11 97v1123h284v-633q53 43 90 65.5t108 46 t148 23.5q326 0 326 -381v-725h-287v729q0 147 -121 148q-147 0 -262 -95v-323q0 -104 -26.5 -184t-68.5 -130.5t-109.5 -85t-130 -50t-152.5 -21.5t-154.5 -6t-159 2t-143.5 2q-86 0 -152.5 21.5t-130 77.5t-98.5 173t-35 287z" />
<glyph horiz-adv-x="1785" d="M94 0v967q150 86 265.5 112.5t332.5 26.5q76 0 148.5 -23.5t111.5 -62.5q197 86 437 86q156 0 239.5 -99.5t83.5 -248.5v-758h-287v713q0 152 -122 151q-150 0 -261 -65q8 -23 9 -78v-721h-287v713q0 152 -123 151q-150 0 -260 -65v-799h-287z" />
<glyph d="M94 0v967q150 86 269.5 112.5t338.5 26.5q158 0 253.5 -100.5t95.5 -247.5v-758h-287v713q0 152 -123 151q-150 0 -260 -65v-799h-287z" />
<glyph d="M94 0v967q150 86 269.5 112.5t338.5 26.5q158 0 253.5 -100.5t95.5 -247.5v-758h-287v713q0 152 -123 151q-150 0 -260 -65v-799h-287zM219 1341q131 143 248 144q51 -2 118.5 -37t100.5 -35q78 -4 188 78l50 -123q-129 -139 -232 -139q-53 2 -122.5 36.5t-106.5 34.5 q-18 0 -33.5 -1t-31 -6t-24.5 -8t-26.5 -12t-24 -12.5t-27 -15.5t-26.5 -16z" />
<glyph d="M94 0v967q150 86 269.5 112.5t338.5 26.5q158 0 253.5 -100.5t95.5 -247.5v-758h-287v713q0 152 -123 151q-150 0 -260 -65v-799h-287zM461 -197q0 49 47 50h154q45 0 45 -50v-227q0 -154 -165 -150l-71 9v90q57 -2 57 45v27h-20q-47 0 -47 47v159z" />
<glyph d="M94 0v967q150 86 269.5 112.5t338.5 26.5q158 0 253.5 -100.5t95.5 -247.5v-758h-287v713q0 152 -123 151q-150 0 -260 -65v-799h-287zM281 1507h190l129 -123l121 123h190l-206 -278h-213z" />
<glyph d="M94 0v967q150 86 269.5 112.5t338.5 26.5q158 0 253.5 -100.5t95.5 -247.5v-758h-287v713q0 152 -123 151q-150 0 -260 -65v-799h-287zM496 1229l184 282h252l-250 -282h-186z" />
<glyph horiz-adv-x="1785" d="M94 0v967q150 86 265.5 112.5t332.5 26.5q76 0 148.5 -23.5t111.5 -62.5q197 86 437 86q156 0 239.5 -99.5t83.5 -248.5v-758h-287v713q0 152 -122 151q-150 0 -261 -65q8 -23 9 -78v-721h-287v713q0 152 -123 151q-150 0 -260 -65v-799h-287zM821 1276v156q0 51 49 51 h148q47 0 47 -51v-156q0 -47 -47 -47h-148q-49 0 -49 47z" />
<glyph horiz-adv-x="849" d="M94 0v979q137 90 304 117.5t421 5.5v-254q-258 37 -438 -37v-811h-287z" />
<glyph horiz-adv-x="849" d="M94 0v979q137 90 304 117.5t421 5.5v-254q-258 37 -438 -37v-811h-287zM389 1235l186 283h250l-250 -283h-186z" />
<glyph horiz-adv-x="849" d="M94 0v979q137 90 304 117.5t421 5.5v-254q-258 37 -438 -37v-811h-287zM184 1511h193l129 -122l119 122h192l-209 -276h-213z" />
<glyph horiz-adv-x="849" d="M84 0v979q137 90 304 117.5t421 5.5v-254q-256 37 -438 -37v-811h-287zM121 -197q0 49 47 50h156q43 0 43 -50v-227q0 -154 -165 -150l-71 9v90q57 -2 57 45v27h-20q-47 0 -47 47v159z" />
<glyph horiz-adv-x="1193" d="M31 0l243 451q41 76 38 112.5t-48 116.5l-233 407h311l190 -339q35 -49 42.5 -183.5t-23.5 -181.5l-209 -383h-311zM622.5 566q8.5 136 39.5 182l190 339h311l-233 -407q-45 -80 -48 -117t38 -112l243 -451h-311l-209 383q-29 47 -20.5 183z" />
<glyph horiz-adv-x="1343" d="M31 0l309 625q43 102 38 153t-59 158l-288 563h303l272 -502q29 -49 37 -221t-18 -221l-281 -555h-313zM700.5 777q8.5 173 36.5 220l275 502h303l-289 -563q-53 -106 -59 -157.5t39 -153.5l309 -625h-316l-280 555q-27 49 -18.5 222z" />
<glyph horiz-adv-x="1091" d="M78 291v86q0 137 66.5 209.5t258.5 72.5h326q0 141 -41 179.5t-174 38.5q-137 0 -414 -25v176q141 43 249 57.5t284 14.5q229 0 306 -131t77 -432v-195q0 -178 -77 -260t-241 -82h-295q-325 0 -325 291zM365 313q0 -51 18 -72.5t78 -21.5h155q66 0 89.5 25.5t23.5 89.5 v151l-270 -18q-53 -4 -73.5 -24.5t-20.5 -65.5v-64z" />
<glyph horiz-adv-x="1091" d="M78 291v86q0 137 66.5 209.5t258.5 72.5h326q0 141 -41 179.5t-174 38.5q-137 0 -414 -25v176q141 43 249 57.5t284 14.5q229 0 306 -131t77 -432v-195q0 -178 -77 -260t-241 -82h-295q-325 0 -325 291zM240 1507h252l184 -284h-187zM365 313q0 -51 18 -72.5t78 -21.5 h155q66 0 89.5 25.5t23.5 89.5v151l-270 -18q-53 -4 -73.5 -24.5t-20.5 -65.5v-64z" />
<glyph horiz-adv-x="1091" d="M78 291v86q0 137 66.5 209.5t258.5 72.5h326q0 141 -41 179.5t-174 38.5q-137 0 -414 -25v176q141 43 249 57.5t284 14.5q229 0 306 -131t77 -432v-195q0 -178 -77 -260t-241 -82h-295q-325 0 -325 291zM365 313q0 -51 18 -72.5t78 -21.5h155q66 0 89.5 25.5t23.5 89.5 v151l-270 -18q-53 -4 -73.5 -24.5t-20.5 -65.5v-64zM469 1223l186 284h250l-250 -284h-186z" />
<glyph horiz-adv-x="1091" d="M78 291v86q0 137 66.5 209.5t258.5 72.5h326q0 141 -41 179.5t-174 38.5q-137 0 -414 -25v176q141 43 249 57.5t284 14.5q229 0 306 -131t77 -432v-195q0 -178 -77 -260t-241 -82h-295q-325 0 -325 291zM217 1335q131 143 248 144q51 -2 118.5 -37t100.5 -35 q78 -4 188 78l50 -123q-129 -139 -232 -137q-53 2 -122.5 35.5t-106.5 33.5q-18 0 -33.5 -1t-31 -6t-25 -8t-26.5 -12.5t-23.5 -12.5t-27 -15t-26.5 -16zM365 313q0 -51 18 -72.5t78 -21.5h155q66 0 89.5 25.5t23.5 89.5v151l-270 -18q-53 -4 -73.5 -24.5t-20.5 -65.5v-64z " />
<glyph horiz-adv-x="1091" d="M78 291v86q0 137 66.5 209.5t258.5 72.5h326q0 141 -41 179.5t-174 38.5q-137 0 -414 -25v176q141 43 249 57.5t284 14.5q229 0 306 -131t77 -432v-195q0 -178 -77 -260t-241 -82h-295q-325 0 -325 291zM356 1431.5q0 88.5 61.5 149.5t147.5 61t146.5 -61t60.5 -149.5 t-60.5 -148.5t-146.5 -60t-147.5 60t-61.5 148.5zM365 313q0 -51 18 -72.5t78 -21.5h155q66 0 89.5 25.5t23.5 89.5v151l-270 -18q-53 -4 -73.5 -24.5t-20.5 -65.5v-64zM475 1431.5q0 -36.5 26.5 -61t63.5 -24.5t61.5 24.5t24.5 61t-24.5 63.5t-61.5 27t-63.5 -27 t-26.5 -63.5z" />
<glyph horiz-adv-x="1091" d="M78 291v86q0 137 66.5 209.5t258.5 72.5h326q0 141 -41 179.5t-174 38.5q-137 0 -414 -25v176q141 43 249 57.5t284 14.5q229 0 306 -131t77 -432v-195q0 -178 -77 -260t-241 -82h-295q-325 0 -325 291zM248 1223l219 278h213l199 -278h-191l-121 123l-127 -123h-192z M365 313q0 -51 18 -72.5t78 -21.5h155q66 0 89.5 25.5t23.5 89.5v151l-270 -18q-53 -4 -73.5 -24.5t-20.5 -65.5v-64z" />
<glyph horiz-adv-x="1091" d="M78 291v86q0 137 66.5 209.5t258.5 72.5h326q0 141 -41 179.5t-174 38.5q-137 0 -414 -25v176q141 43 249 57.5t284 14.5q229 0 306 -131t77 -432v-195q0 -178 -77 -260t-241 -82h-295q-325 0 -325 291zM190 1343q0 51 36 86t85 35q51 0 86 -34.5t35 -86.5 q0 -49 -35 -84.5t-86 -35.5q-49 0 -85 35.5t-36 84.5zM365 313q0 -51 18 -72.5t78 -21.5h155q66 0 89.5 25.5t23.5 89.5v151l-270 -18q-53 -4 -73.5 -24.5t-20.5 -65.5v-64zM713 1343q0 51 35.5 86t85.5 35q51 0 85.5 -34.5t34.5 -86.5q0 -49 -34.5 -84.5t-85.5 -35.5 q-49 0 -85 35.5t-36 84.5z" />
<glyph horiz-adv-x="1110" d="M78 291v86q0 137 66.5 209.5t258.5 72.5h326q0 141 -41 179.5t-174 38.5q-137 0 -414 -25v176q141 43 249 57.5t284 14.5q229 0 306 -131t77 -432v-195q0 -240 -148 -309q-53 -43 -74.5 -85t-11 -72t41 -47t71.5 -15v-158q-72 -16 -140.5 13.5t-105.5 82.5t-26.5 123 t79.5 125h-4h-295q-325 0 -325 291zM365 313q0 -51 18 -72.5t78 -21.5h155q66 0 89.5 25.5t23.5 89.5v151l-270 -18q-53 -4 -73.5 -24.5t-20.5 -65.5v-64z" />
<glyph horiz-adv-x="1091" d="M78 291v86q0 137 66.5 209.5t258.5 72.5h326q0 141 -41 179.5t-174 38.5q-137 0 -414 -25v176q141 43 249 57.5t284 14.5q229 0 306 -131t77 -432v-195q0 -178 -77 -260t-241 -82h-295q-325 0 -325 291zM330 1456h119q0 -51 32.5 -83t81.5 -32q57 0 88 31t31 84h119 q0 -106 -67.5 -169.5t-170.5 -63.5q-98 0 -165.5 64.5t-67.5 168.5zM365 313q0 -51 18 -72.5t78 -21.5h155q66 0 89.5 25.5t23.5 89.5v151l-270 -18q-53 -4 -73.5 -24.5t-20.5 -65.5v-64z" />
<glyph horiz-adv-x="1091" d="M78 291v86q0 137 66.5 209.5t258.5 72.5h326q0 141 -41 179.5t-174 38.5q-137 0 -414 -25v176q141 43 249 57.5t284 14.5q229 0 306 -131t77 -432v-195q0 -178 -77 -260t-241 -82h-295q-325 0 -325 291zM268 1223v163h598v-163h-598zM365 313q0 -51 18 -72.5t78 -21.5 h155q66 0 89.5 25.5t23.5 89.5v151l-270 -18q-53 -4 -73.5 -24.5t-20.5 -65.5v-64z" />
<glyph d="M78 334v758h287v-713q0 -152 122 -152q188 0 261 41v824h286v-996q-113 -68 -237.5 -89t-350.5 -21q-182 0 -275 97t-93 251z" />
<glyph d="M78 334v758h287v-713q0 -152 122 -152q188 0 261 41v824h286v-996q-113 -68 -237.5 -89t-350.5 -21q-182 0 -275 97t-93 251zM303 1221l184 282h252l-250 -282h-186zM623 1221l184 282h252l-250 -282h-186z" />
<glyph d="M78 334v758h287v-713q0 -152 122 -152q188 0 261 41v824h286v-996q-113 -68 -237.5 -89t-350.5 -21q-182 0 -275 97t-93 251zM213 1503h250l186 -282h-186z" />
<glyph d="M78 334v758h287v-713q0 -152 122 -152q188 0 261 41v824h286v-996q-113 -68 -237.5 -89t-350.5 -21q-182 0 -275 97t-93 251zM463 1221l184 282h252l-250 -282h-186z" />
<glyph d="M78 334v758h287v-713q0 -152 122 -152q188 0 261 41v824h286v-996q-113 -68 -237.5 -89t-350.5 -21q-182 0 -275 97t-93 251zM205 1333q127 143 246 144q51 -2 118.5 -37t100.5 -35q78 -4 188 78l49 -123q-129 -139 -231 -139q-51 2 -122 36.5t-108 34.5q-18 0 -33.5 -1 t-29.5 -6t-24.5 -8t-27 -11.5t-23.5 -12.5t-26.5 -16t-27.5 -16z" />
<glyph d="M78 334v758h287v-713q0 -152 122 -152q188 0 261 41v824h286v-996q-113 -68 -237.5 -89t-350.5 -21q-182 0 -275 97t-93 251zM348 1429.5q0 88.5 61.5 149.5t147.5 61t146.5 -61t60.5 -149.5t-60.5 -148.5t-146.5 -60t-147.5 60t-61.5 148.5zM467 1429.5 q0 -36.5 26.5 -61.5t63.5 -25t61.5 25t24.5 61.5t-24.5 62.5t-61.5 26t-63.5 -26t-26.5 -62.5z" />
<glyph d="M78 334v758h287v-713q0 -152 122 -152q188 0 261 41v824h286v-996q-113 -68 -237.5 -89t-350.5 -21q-182 0 -275 97t-93 251zM240 1221l221 278h213l198 -278h-190l-121 122l-129 -122h-192z" />
<glyph d="M78 334v758h287v-713q0 -152 122 -152q188 0 261 41v824h286v-996q-113 -68 -237.5 -89t-350.5 -21q-182 0 -275 97t-93 251zM174 1341q0 51 36 86t85 35q51 0 86 -34.5t35 -86.5q0 -49 -35 -84.5t-86 -35.5q-49 0 -85 35.5t-36 84.5zM696 1341q0 51 36 86t85 35 q51 0 86 -34.5t35 -86.5q0 -49 -35 -84.5t-86 -35.5q-49 0 -85 35.5t-36 84.5z" />
<glyph horiz-adv-x="1153" d="M78 334v758h287v-713q0 -152 122 -152q188 0 261 41v824h286v-996q-63 -37 -116 -55h22q-47 -35 -71.5 -71t-25.5 -63.5t12 -49t41 -32.5t62 -9v-158q-72 -18 -141 11.5t-105 83.5t-26 124t80 125q-98 -16 -320 -16q-182 0 -275 97t-93 251z" />
<glyph d="M78 334v758h287v-713q0 -152 122 -152q188 0 261 41v824h286v-996q-113 -68 -237.5 -89t-350.5 -21q-182 0 -275 97t-93 251zM319 1454h119q0 -51 33 -83t82 -32q57 0 88 31t31 84h119q0 -106 -68 -169.5t-170 -63.5q-98 0 -166 64.5t-68 168.5z" />
<glyph d="M78 334v758h287v-713q0 -152 122 -152q188 0 261 41v824h286v-996q-113 -68 -237.5 -89t-350.5 -21q-182 0 -275 97t-93 251zM256 1221v163h598v-163h-598z" />
<glyph horiz-adv-x="1136" d="M94 41v1561h287v-582q121 80 281 80q223 0 311 -140.5t88 -429.5q0 -551 -399 -550q-435 0 -568 61zM381 199h225q57 0 94 29.5t51.5 88t18.5 100.5t4 105q0 78 -1 118t-10 93t-25.5 78t-49.5 43t-80 18q-117 0 -227 -43v-630z" />
<glyph horiz-adv-x="1136" d="M78 530q0 289 87 429.5t310 140.5q162 0 283 -80v584h286v-1563q-133 -61 -569 -61q-397 -1 -397 550zM365 522q0 -63 4 -105t18 -100.5t51 -88t94 -29.5h226v630q-111 43 -228 43q-47 0 -79.5 -18t-49 -43t-25.5 -78t-10 -93t-1 -118z" />
<glyph horiz-adv-x="770" d="M94 0v1268q0 41 4 78.5t22.5 89t50.5 87.5t91.5 61.5t140.5 25.5q205 0 338 -49v-168l-245 2q-78 0 -96.5 -34t-18.5 -138v-136h254v-219h-254v-868h-287z" />
<glyph horiz-adv-x="1136" d="M94 -553v1593q86 23 250 42.5t318 19.5q399 0 399 -551q0 -289 -88 -429t-311 -140q-164 0 -281 79v-614h-287zM381 252q111 -45 227 -45q47 0 80 18.5t49.5 44t25.5 78.5t10 93t1 118q0 63 -4 105.5t-18.5 100.5t-51 88t-94.5 30h-225v-631z" />
<glyph horiz-adv-x="649" d="M94 389v1004h287v-303h237v-220h-237v-436q0 -111 22.5 -153.5t69.5 -61.5q123 -43 137 -43v-176h-250q-266 0 -266 389z" />
<glyph horiz-adv-x="1136" d="M94 41v1561h287v-582q121 80 281 80q223 0 311 -140.5t88 -429.5q0 -551 -399 -550q-435 0 -568 61zM121 1792v156q0 51 49 51h147q47 0 48 -51v-156q0 -47 -48 -47h-147q-49 0 -49 47zM381 199h225q57 0 94 29.5t51.5 88t18.5 100.5t4 105q0 78 -1 118t-10 93t-25.5 78 t-49.5 43t-80 18q-117 0 -227 -43v-630z" />
<glyph horiz-adv-x="1136" d="M78 530q0 289 87 429.5t310 140.5q162 0 283 -80v584h286v-1563q-133 -61 -569 -61q-397 -1 -397 550zM365 522q0 -63 4 -105t18 -100.5t51 -88t94 -29.5h226v630q-111 43 -228 43q-47 0 -79.5 -18t-49 -43t-25.5 -78t-10 -93t-1 -118zM788 1792v156q0 51 50 51h147 q47 0 47 -51v-156q0 -47 -47 -47h-147q-50 0 -50 47z" />
<glyph horiz-adv-x="770" d="M94 0v1268q0 41 4 78.5t22.5 89t50.5 87.5t91.5 61.5t140.5 25.5q205 0 338 -49v-168l-245 2q-78 0 -96.5 -34t-18.5 -138v-136h254v-219h-254v-868h-287zM326 1780v155q0 51 49 52h147q47 0 47 -52v-155q0 -47 -47 -47h-147q-49 0 -49 47z" />
<glyph horiz-adv-x="1136" d="M94 -553v1593q86 23 250 42.5t318 19.5q399 0 399 -551q0 -289 -88 -429t-311 -140q-164 0 -281 79v-614h-287zM381 252q111 -45 227 -45q47 0 80 18.5t49.5 44t25.5 78.5t10 93t1 118q0 63 -4 105.5t-18.5 100.5t-51 88t-94.5 30h-225v-631zM461 1272v155q0 51 49 52 h147q47 0 48 -52v-155q0 -47 -48 -47h-147q-49 0 -49 47z" />
<glyph horiz-adv-x="1167" d="M78 530q0 289 87 429.5t310 140.5q162 0 283 -80v229h-203v135h203v220h286v-220h125v-135h-125v-1208q-133 -61 -569 -61q-397 -1 -397 550zM365 522q0 -63 4 -105t18 -100.5t51 -88t94 -29.5h226v630q-111 43 -228 43q-47 0 -79.5 -18t-49 -43t-25.5 -78t-10 -93 t-1 -118z" />
<glyph horiz-adv-x="649" d="M94 389v1004h287v-303h237v-220h-237v-198h168v-135h-168v-103q0 -111 22.5 -153.5t69.5 -61.5q123 -43 137 -43v-176h-250q-266 0 -266 389z" />
<glyph horiz-adv-x="649" d="M94 389v1004h287v-303h237v-220h-237v-436q0 -111 22.5 -153.5t69.5 -61.5q123 -43 137 -43v-176h-250q-266 0 -266 389zM109 -258l90 31q41 16 51 43.5t10 91.5h195q0 -160 -49.5 -224.5t-180.5 -64.5h-116v123z" />
<glyph horiz-adv-x="727" d="M94 389v1004h287v-303h237v-220h-237v-436q0 -111 22.5 -153.5t69.5 -61.5q123 -43 137 -43v-176h-250q-266 0 -266 389zM477 1483v137h197v-137l-21 -275h-153z" />
<glyph horiz-adv-x="1300" d="M78 530q0 289 87 429.5t310 140.5q162 0 283 -80v584h286v-1563q-133 -61 -569 -61q-397 -1 -397 550zM365 522q0 -63 4 -105t18 -100.5t51 -88t94 -29.5h226v630q-111 43 -228 43q-47 0 -79.5 -18t-49 -43t-25.5 -78t-10 -93t-1 -118zM1137 1466v138h196v-138l-20 -274 h-154z" />
<glyph horiz-adv-x="724" d="M41 616v242h643v-242h-643z" />
<glyph horiz-adv-x="724" d="M41 616v242h643v-242h-643z" />
<glyph horiz-adv-x="1050" d="M41 610v244h969v-244h-969z" />
<glyph horiz-adv-x="1507" d="M41 614v244h1425v-244h-1425z" />
<glyph horiz-adv-x="724" d="M41 442v242h643v-242h-643z" />
<glyph horiz-adv-x="724" d="M41 442v242h643v-242h-643z" />
<glyph horiz-adv-x="1050" d="M41 436v244h969v-244h-969z" />
<glyph horiz-adv-x="1507" d="M41 444v244h1425v-244h-1425z" />
<glyph horiz-adv-x="772" d="M117 688q0 518 265 958q53 87 93 136h268q-14 -20 -36.5 -59.5t-81 -159t-103.5 -241.5t-82 -297t-37 -337q0 -501 260 -967q46 -83 80 -131h-268q-14 14 -38.5 43t-86 130.5t-108.5 218t-86 308t-39 398.5z" />
<glyph horiz-adv-x="772" d="M31 -410q14 18 36.5 54.5t81 150t103.5 234.5t82 301t37 358q0 462 -265 962q-76 131 -75 132h268q14 -18 38.5 -51t86 -142.5t109 -228.5t86 -302.5t38.5 -369.5q0 -207 -36.5 -396.5t-90 -311t-105.5 -215t-89 -134.5l-37 -41h-268z" />
<glyph horiz-adv-x="679" d="M117 545q-2 211 77.5 420t186.5 329h266q-109 -152 -176.5 -363.5t-67.5 -385.5q0 -197 64.5 -394.5t155.5 -318.5h-271q-98 117 -166.5 309.5t-68.5 403.5z" />
<glyph horiz-adv-x="679" d="M31 1294h266q106 -121 186 -329.5t78 -419.5q0 -211 -68.5 -403.5t-166.5 -309.5h-271q90 121 154.5 318.5t64.5 394.5q0 174 -67 385.5t-176 363.5z" />
</font>
</defs>
</svg>
