<?xml version="1.0" standalone="no"?>
<!DOCTYPE svg PUBLIC "-//W3C//DTD SVG 1.1//EN" "http://www.w3.org/Graphics/SVG/1.1/DTD/svg11.dtd" >
<svg xmlns="http://www.w3.org/2000/svg">
<metadata>
This is a custom SVG webfont generated by Font Squirrel.
Copyright   : Copyright c 2011 Natanael Gama exondiscoveredcom with Reserved Font Name Exo
Designer    : Natanael Gama
</metadata>
<defs>
<font id="ExoBoldItalic" horiz-adv-x="1251" >
<font-face units-per-em="2048" ascent="1638" descent="-410" />
<missing-glyph horiz-adv-x="512" />
<glyph unicode="&#xfb01;" horiz-adv-x="1224" d="M94 868l29 185l178 34l23 115q29 190 160.5 298t342.5 110q90 2 251 -15.5t218 -42.5l-28 -172l-373 13q-104 4 -189 -47.5t-108 -188.5l-10 -70l706 -20l-168 -1067h-288l137 868h-424l-137 -868h-287l137 868h-170z" />
<glyph unicode="&#xfb02;" horiz-adv-x="1413" d="M168 868l29 183l180 36l16 89q39 246 164 339t330 93l596 -4l-187 -1172q-14 -129 -0.5 -161.5t64.5 -51.5q113 -41 121 -41l-29 -178h-184q-324 0 -264 387l159 1002l-274 2q-94 0 -145.5 -49.5t-71.5 -176.5l-8 -78h262l-35 -219h-264l-142 -868h-286l141 868h-172z " />
<glyph horiz-adv-x="1552" d="M205 0v1087h1143v-1087h-1143zM233 45l525 500l-525 493v-993zM254 1061l526 -496l520 496h-1046zM260 27h1038l-518 497zM803 545l516 -494v985z" />
<glyph horiz-adv-x="1552" d="M205 0v1087h1143v-1087h-1143zM233 45l525 500l-525 493v-993zM254 1061l526 -496l520 496h-1046zM260 27h1038l-518 497zM803 545l516 -494v985z" />
<glyph unicode="&#xd;" horiz-adv-x="2048" />
<glyph unicode=" "  horiz-adv-x="512" />
<glyph unicode="&#x09;" horiz-adv-x="512" />
<glyph unicode="&#xa0;" horiz-adv-x="512" />
<glyph unicode="!" horiz-adv-x="555" d="M143 47l29 184q6 51 57 52h181q47 0 39 -52l-29 -184q-6 -47 -53 -47h-181q-49 0 -43 47zM219 406l146 1091h288l-200 -1091h-234z" />
<glyph unicode="&#x22;" horiz-adv-x="909" d="M328 1087l20 275l23 137h276l-22 -137l-64 -275h-233zM696 1087l21 275l22 137h277l-23 -137l-63 -275h-234z" />
<glyph unicode="#" horiz-adv-x="1476" d="M98 430l62 197h311l80 247h-313l63 197h320l143 428h197l-144 -428h252l141 428h197l-141 -428h350l-62 -197h-352l-80 -249h353l-60 -197h-364l-146 -428h-196l145 428l-254 2l-143 -430h-197l143 430h-305zM668 627l258 -2l80 249h-258z" />
<glyph unicode="$" horiz-adv-x="1165" d="M139 45l37 219q360 -18 475 -18q184 0 205 131l12 80q6 43 5 74.5t-29.5 49t-89.5 17.5h-189q-96 0 -165.5 33t-100.5 82t-49.5 107.5t-13 111.5t7.5 92l18 129q16 106 58 178t108 110t135.5 53t161.5 17l29 177h174l-27 -179q182 -10 356 -57l-34 -223q-268 18 -457 18 q-102 4 -153.5 -25.5t-67.5 -119.5l-10 -74q-12 -78 15.5 -110.5t125.5 -32.5h190q86 0 148.5 -29t92.5 -74t47 -102t13 -113.5t-8 -107.5l-16 -101q-16 -96 -52 -165.5t-81 -109.5t-106.5 -63.5t-118 -30.5t-126.5 -5l-26 -168h-174l26 172q-192 10 -346 57z" />
<glyph unicode="%" horiz-adv-x="1974" d="M219 999l39 250q20 133 90 191.5t227 58.5h207q274 0 230 -280l-39 -250q-23 -139 -92.5 -196.5t-225.5 -57.5h-206q-131 0 -190.5 75.5t-39.5 208.5zM422 0l1153 1499h205l-1145 -1499h-213zM426 1016q-10 -55 7.5 -78t74.5 -23h149q63 0 87 23t34 78l27 182 q10 61 -6.5 80.5t-75.5 19.5h-152q-59 0 -84.5 -20.5t-33.5 -79.5zM1202 283l39 249q20 135 90 195.5t225 60.5h209q272 0 230 -284l-39 -250q-20 -137 -91 -193.5t-229 -56.5h-206q-133 0 -190.5 73t-37.5 206zM1407 305q-8 -55 8.5 -77.5t75.5 -22.5h147q63 0 88 22.5 t33 77.5l29 182q8 61 -8.5 81t-75.5 20h-150q-59 0 -84.5 -20.5t-33.5 -80.5z" />
<glyph unicode="&#x26;" horiz-adv-x="1376" d="M123 475.5q39 151.5 201 272.5l186 141l-82 143q-61 115 -39.5 213t94 167t162.5 81q260 35 582 -39l-33 -207h-338q-129 0 -157.5 -40t32.5 -160l277 -478l276 240l86 -119l-145 -248l-95 -90l203 -352h-313l-111 193l-153 -123q-74 -61 -183.5 -79t-222.5 27.5 t-176 151.5q-90 154 -51 305.5zM408 326q43 -63 110.5 -74.5t138.5 43.5l125 108l-159 269l-134 -99q-165 -126 -81 -247z" />
<glyph unicode="'" horiz-adv-x="458" d="M281 1087l20 275l23 137h288l-22 -137l-64 -275h-245z" />
<glyph unicode="(" horiz-adv-x="772" d="M194.5 342q1.5 143 26.5 293q89 534 413 933q67 83 116 126h272q-16 -20 -45 -56t-104.5 -153t-139 -239t-129 -299t-96.5 -347q-31 -197 -26 -363.5t36 -303t65.5 -231.5t62.5 -147l28 -53h-266q-6 8 -17.5 24.5t-40 73t-53.5 119t-51.5 164t-39.5 209t-11.5 250.5z" />
<glyph unicode=")" horiz-adv-x="774" d="M-37 -498q16 18 44 53t103.5 149t139 234.5t130 301t97.5 358.5q31 188 25 352t-36 301.5t-64.5 235.5t-62.5 152l-28 55h267q6 -8 16 -25.5t40 -76t54.5 -123t50 -167t39 -209t11 -246.5t-24.5 -282q-33 -205 -97.5 -389t-132 -302t-131 -206t-103.5 -127l-40 -39h-297z " />
<glyph unicode="*" horiz-adv-x="874" d="M260 1159l19 115l292 49l-18 -174zM328 852l94 281l164 -43l-154 -273zM541 956l118 146l199 -184l-80 -93zM571 1475l117 38l98 -249l-172 -68zM674 1169l270 162l49 -96l-229 -199z" />
<glyph unicode="+" horiz-adv-x="989" d="M164 608l39 242h303l47 305h242l-47 -305h307l-39 -242h-307l-50 -305h-241l49 305h-303z" />
<glyph unicode="," horiz-adv-x="532" d="M115 -180l14 98q61 0 72 53l6 29h-23q-51 0 -43 51l27 178q8 55 61 56h172q47 0 39 -56l-39 -252q-10 -63 -43.5 -103t-73.5 -51t-79 -13.5t-65 4.5z" />
<glyph unicode="-" horiz-adv-x="722" d="M125 473l37 242h643l-37 -242h-643z" />
<glyph unicode="." horiz-adv-x="536" d="M139 47l29 184q6 51 57 52h176q53 0 43 -52l-28 -184q-8 -47 -58 -47h-176q-49 0 -43 47z" />
<glyph unicode="/" horiz-adv-x="933" d="M8 -147l848 1724h297l-848 -1724h-297z" />
<glyph unicode="0" horiz-adv-x="1288" d="M164 365l121 757q61 377 413 377h336q193 0 272.5 -105.5t55.5 -258.5l-123 -770q-29 -182 -127 -273.5t-272 -91.5h-336q-180 0 -274.5 93.5t-65.5 271.5zM459 327q8 -32 32.5 -44.5t44 -15.5t54.5 -3h198q76 0 116 33t54 113l109 680q12 76 -15.5 110.5t-101.5 34.5 h-215q-143 0 -170 -145l-106 -678q-8 -53 0 -85z" />
<glyph unicode="1" horiz-adv-x="757" d="M242 1143l28 186q63 0 168 59.5t150 110.5h282l-235 -1499h-287l193 1204q-88 -61 -299 -61z" />
<glyph unicode="2" horiz-adv-x="1200" d="M78 0l39 252q104 63 233 153.5t280.5 208t258 237.5t121.5 204q16 106 -35 152t-184 46h-531l35 213q313 53 620 54q145 0 238.5 -70t126.5 -178.5t14 -241.5q-10 -90 -68.5 -189.5t-126 -174t-169 -161.5t-158.5 -129t-136 -98q-14 -10 -20 -14h551l-43 -264h-1046z" />
<glyph unicode="3" horiz-adv-x="1193" d="M66 43l34 209h521q106 0 162.5 29.5t68.5 109.5l10 66q8 53 1 84.5t-36.5 46t-55.5 18.5t-83 6l-405 17l39 231l409 19q111 4 162 35.5t63 111.5l13 72q14 86 -35 113.5t-146 27.5h-546l32 207q88 29 205 43t228.5 15t238.5 -1q162 -4 252 -111.5t64 -271.5l-19 -108 q-41 -233 -203 -267q152 -55 109 -327l-14 -88q-53 -344 -443 -344h-74h-80q-16 0 -72 1t-76.5 2t-68 4t-72 7t-61 10t-65 14.5t-57.5 18.5z" />
<glyph unicode="4" horiz-adv-x="1269" d="M102 459l699 1040h319l-590 -901h363l55 342l92 158h222l-80 -500h151l-35 -221l-157 -49l-51 -324h-289l49 324h-698z" />
<glyph unicode="5" horiz-adv-x="1220" d="M125 41l37 225h577q150 0 170 146l21 131q25 152 -113 151h-188q-125 0 -146 -121h-272l192 926h912l-43 -264h-633l-70 -338q61 43 160 51q66 6 211 -2q158 -8 230.5 -115.5t50.5 -273.5l-33 -229q-16 -100 -58.5 -170t-105.5 -105t-128 -48t-146 -13q-203 -2 -319 6 t-306 43z" />
<glyph unicode="6" horiz-adv-x="1245" d="M193.5 410.5q-1.5 156.5 31.5 398.5q106 668 467 696q297 27 645 -41l-34 -217h-512q-201 0 -265 -379q178 41 420 41q104 0 173 -32.5t95.5 -87t36 -121t-7.5 -131.5l-35 -234q-29 -176 -132 -240.5t-283 -64.5h-291q-90 0 -152.5 36t-108.5 128t-47.5 248.5z M483.5 373.5q26.5 -113.5 139.5 -113.5h163q129 0 150 129l22 137q14 78 -7 104.5t-95 26.5h-364q-35 -170 -8.5 -283.5z" />
<glyph unicode="7" horiz-adv-x="1134" d="M242 1235l43 264h964l56 -131l-717 -1368h-314l656 1235h-688z" />
<glyph unicode="8" horiz-adv-x="1275" d="M170 367l23 149q14 92 69 147.5t139 65.5q-164 74 -125 315l23 134q16 102 54 169.5t99.5 102.5t127 47t157.5 12h310q170 0 248.5 -98t50.5 -281l-17 -108q-10 -61 -57 -131t-139 -86q57 -14 87.5 -72.5t30.5 -119t-6 -109.5l-26 -176q-18 -113 -58.5 -183.5t-104 -99.5 t-115.5 -37t-136 -8h-307q-385 0 -328 367zM461 375q-10 -68 18.5 -94.5t108.5 -26.5h192q139 0 156 121l22 143q18 127 -108 127h-209q-137 0 -158 -127zM561 1012q-20 -127 119 -127h205q80 0 110.5 32.5t40.5 94.5l15 96q14 90 -12.5 119.5t-98.5 29.5h-192 q-84 0 -121 -31.5t-49 -117.5z" />
<glyph unicode="9" horiz-adv-x="1243" d="M147 41l35 217h512q203 0 267 379q-162 -39 -422 -43q-102 0 -171 35t-94.5 91t-35 124.5t5.5 134.5l35 211q27 176 131 245.5t282 69.5h291q92 0 155.5 -39t107.5 -134t45 -256t-31 -402q-31 -195 -82.5 -331t-117 -205.5t-129 -101.5t-136.5 -38q-324 -25 -648 43z M528 979q-14 -78 6.5 -104.5t96.5 -26.5h362q37 168 9.5 282.5t-142.5 114.5h-160q-131 0 -151 -129z" />
<glyph unicode=":" horiz-adv-x="538" d="M139 47l29 184q6 51 57 52h176q53 0 43 -52l-28 -184q-8 -47 -58 -47h-176q-49 0 -43 47zM266 852l31 184q6 51 57 51h176q51 0 41 -51l-28 -184q-8 -47 -58 -47h-176q-49 0 -43 47z" />
<glyph unicode=";" horiz-adv-x="538" d="M115 -180l14 98q61 0 72 53l6 29h-23q-23 0 -35 14.5t-8 36.5l27 178q10 55 61 56h172q47 0 39 -56l-39 -252q-10 -63 -43.5 -103t-73.5 -51t-79 -13.5t-65 4.5zM270 854l29 184q6 51 57 52h176q53 0 43 -52l-28 -184q-8 -47 -60 -47h-176q-47 0 -41 47z" />
<glyph unicode="&#x3c;" horiz-adv-x="921" d="M170 590l43 264l815 297l-43 -266l-502 -170l447 -178l-43 -263z" />
<glyph unicode="=" horiz-adv-x="956" d="M100 377l39 241h875l-39 -241h-875zM168 817l39 242h874l-39 -242h-874z" />
<glyph unicode="&#x3e;" horiz-adv-x="921" d="M121 274l43 269l508 190l-455 160l41 258l721 -297l-41 -264z" />
<glyph unicode="?" horiz-adv-x="1110" d="M227 1251l35 211q332 61 586 51q209 0 307 -123.5t72 -287.5l-25 -174q-29 -211 -155.5 -288t-368.5 -56l-14 -90q-14 -90 -15 -95h-231l61 400h236q178 8 203 168l18 108q14 94 -32 135t-167 41h-510zM338 47l31 184q6 51 57 52h176q53 0 43 -52l-31 -184 q-8 -47 -57 -47h-176q-49 0 -43 47z" />
<glyph unicode="@" horiz-adv-x="1835" d="M104 74l156 993q37 217 164 313.5t358 96.5h746q211 0 287.5 -128t44.5 -350l-101 -667q-10 -70 -31.5 -123t-63.5 -102.5t-116.5 -75t-181.5 -25.5h-190l-48 113q-106 -129 -274 -127q-188 2 -272 147.5t-39 442.5q25 162 76 273.5t119.5 165.5t134 74.5t145.5 20.5 q322 0 463 -135l-107 -743q80 0 113 32.5t51 151.5l90 600q20 141 -17.5 182t-137.5 41h-738q-70 0 -118 -20.5t-72.5 -58.5t-35.5 -68.5t-20 -75.5l-153 -969q-16 -102 19.5 -157.5t158.5 -55.5h791l-29 -174q-276 -55 -598 -55h-191q-233 0 -323.5 132t-59.5 331z M770 309.5q27 -90.5 131 -88.5q168 2 254 135l80 512q-98 20 -225 21q-92 0 -152.5 -74.5t-87.5 -271.5q-27 -143 0 -233.5z" />
<glyph unicode="A" horiz-adv-x="1409" d="M70 0l743 1499h326l250 -1499h-293l-60 332h-485l-164 -332h-317zM666 586h342l-84 544z" />
<glyph unicode="B" horiz-adv-x="1226" d="M125 0l237 1499h609q147 0 236 -63.5t115 -155.5q15 -53 15 -114q0 -44 -8 -93q-16 -121 -84.5 -199.5t-171.5 -95.5q87 -14 141 -118q40 -77 40 -179q0 -36 -5 -75q-31 -231 -148.5 -318.5t-363.5 -87.5h-612zM453 254h313q166 0 197 199q4 29 4 54q0 55 -21 97 q-31 60 -115 60h-315zM557 905h303q156 0 182 170q5 29 5 53q1 54 -25 80q-36 37 -109 37h-303z" />
<glyph unicode="C" horiz-adv-x="1169" d="M184 481q-2 34 -3 69q0 114 24 238q61 379 198.5 553.5t430.5 174.5q281 0 512 -74l-35 -223q-2 0 -35 4t-76 9t-97 9t-118.5 7t-122.5 3h-49q-14 0 -47 -4t-48.5 -12t-43 -24.5t-44 -41t-39 -62.5t-37.5 -88t-32.5 -117.5t-29.5 -151.5q-22 -125 -22.5 -217.5 t22.5 -153.5q45 -121 206 -127q18 0 36 -1q185 0 429 19l-35 -225q-173 -58 -474 -58q-29 0 -58 1q-139 2 -231.5 66.5t-131.5 173t-49 253.5z" />
<glyph unicode="D" horiz-adv-x="1341" d="M125 0l237 1499h607q125 0 213 -48t134 -124q46 -77 66 -183q18 -93 19 -185q0 -13 -1 -27q-3 -106 -22 -223q-61 -381 -207.5 -545t-418.5 -164h-627zM451 256h301q262 0 340 489q22 135 22 231q0 104 -26 160q-48 110 -191 109h-289z" />
<glyph unicode="E" horiz-adv-x="1146" d="M162 307l141 893q48 299 359 299h16q504 -14 633 -33l-37 -237h-572q-37 0 -61.5 -9.5t-35.5 -29t-16 -34.5t-9 -42l-37 -229l579 -21l-39 -235l-583 -21l-39 -237q-6 -39 0 -62.5t27.5 -32t37 -10.5t45.5 -2h551l-39 -235q-119 -16 -624 -35h-16q-51 0 -97 11 q-54 13 -104 46t-72 99q-14 40 -13 90q0 32 5 67z" />
<glyph unicode="F" horiz-adv-x="1148" d="M119 0l186 1176q27 176 129 252q97 72 234 71h14q502 -14 633 -33l-37 -237h-571q-37 0 -61.5 -9.5t-37 -27.5t-17.5 -34.5t-9 -43.5l-37 -233l579 -21l-34 -237l-588 -19l-96 -604h-287z" />
<glyph unicode="G" horiz-adv-x="1255" d="M185 505v9q0 134 28 287q29 152 59.5 258t78.5 198.5t112.5 145.5t156 83t211.5 30q162 0 275 -15.5t274 -56.5l-34 -219q-276 37 -486 37q-68 0 -114 -15.5t-96 -64.5t-86 -155.5t-62 -274.5q-25 -137 -25 -236q0 -83 17 -138q38 -122 188 -122q63 0 131 25.5t102 51.5 l35 25l45 263h-211l29 182q125 49 367 49q90 0 139 -4l-135 -848h-207l-64 109q-109 -113 -325 -121h-23q-130 0 -217 64q-94 69 -128 192t-35 261z" />
<glyph unicode="H" horiz-adv-x="1304" d="M129 0l238 1499h286l-102 -643h514l102 643h287l-237 -1499h-287l94 594h-514l-94 -594h-287z" />
<glyph unicode="I" horiz-adv-x="524" d="M133 0l238 1499h286l-237 -1499h-287z" />
<glyph unicode="J" horiz-adv-x="729" d="M61 47l39 223q67 -6 120 -6q20 0 38 1q66 3 108 50t58 148l164 1036h286l-184 -1161q-35 -231 -155 -301q-83 -47 -223 -47h-22q-155 4 -229 57z" />
<glyph unicode="K" horiz-adv-x="1269" d="M125 0l237 1499h275l-98 -627h112l473 627h349l-572 -772l334 -727h-328l-268 618h-139l-99 -618h-276z" />
<glyph unicode="L" horiz-adv-x="1083" d="M168 291l194 1208h285l-178 -1128q-6 -39 0 -62.5t27.5 -32t37 -10.5t46.5 -2h514l-41 -264h-619q-135 0 -212 70q-59 54 -59 156q0 31 5 65z" />
<glyph unicode="M" horiz-adv-x="1693" d="M100 0l371 1499h391l90 -1024l408 1024h403l-96 -1499h-285l72 1001l-405 -1001h-326l-92 1001l-242 -1001h-289z" />
<glyph unicode="N" horiz-adv-x="1370" d="M125 0l237 1499h287l426 -975l154 975h287l-238 -1499h-283l-430 963l-151 -963h-289z" />
<glyph unicode="O" horiz-adv-x="1363" d="M186 511q2 114 25 257q23 147 56.5 262t71.5 192.5t91 132t101.5 84t120 46t129 20.5t145.5 4q82 0 145.5 -8t126 -29.5t105.5 -58.5t77 -97q32 -62 48 -144q13 -69 13 -162v-37q-3 -117 -26 -262q-31 -195 -81 -329t-107.5 -210t-146.5 -117t-170 -52t-205 -11 q-82 0 -144.5 7t-126 27.5t-106.5 55.5t-78 94q-34 60 -50 140q-14 71 -14 169v26zM472 490v-6q0 -87 28 -139q30 -54 84.5 -71.5t152.5 -17.5q178 0 262 95t129 388q23 139 24 233v13q0 85 -12 135q-12 54 -49.5 81.5t-79.5 35.5t-116 8q-78 0 -122 -7t-92 -33.5t-77 -81 t-56 -148t-50 -236.5q-25 -158 -26 -249z" />
<glyph unicode="P" horiz-adv-x="1222" d="M119 0l237 1499h627q78 0 142.5 -23.5t120.5 -76.5t78 -155q11 -51 11 -112q0 -60 -10 -128q-20 -135 -61 -229.5t-92.5 -136.5t-111.5 -66q-54 -21 -104 -20h-13q-34 2 -66 2q-22 0 -43 -1q-59 2 -192.5 18.5t-141.5 20.5l-94 -592h-287zM532 807h318q74 0 120 50 t66 177q6 38 6 70q0 141 -122 141h-318z" />
<glyph unicode="Q" horiz-adv-x="1368" d="M190 516q2 115 25 258q23 147 56.5 261t70.5 192t91 131t102.5 82.5t120 45t129 19.5t145.5 4q82 0 145.5 -8t126 -30.5t105.5 -60.5t76.5 -98.5t48.5 -144.5q12 -74 12 -173v-28q-2 -116 -25 -261q-31 -193 -81 -327t-107 -209t-147.5 -115t-170 -51t-204.5 -11 q-82 0 -144.5 7t-126 28.5t-106.5 57.5t-78 94.5t-50 140.5q-14 72 -14 170v26zM476 490v-6q0 -87 29 -139q30 -54 84 -71.5t152 -17.5q178 0 262 95t130 388q23 139 23 233q1 3 1 7q0 88 -12 141q-12 54 -51 81.5t-81 35.5t-116 8q-76 0 -120 -7t-92 -33.5t-76.5 -81 t-56 -148t-50.5 -236.5q-25 -158 -26 -249zM600 -68h164q34 -82 159 -82q68 0 164 25l-36 -231q-53 -13 -108 -13q-28 0 -56 3q-84 10 -151.5 39.5t-106.5 96.5q-31 54 -31 125q0 18 2 37z" />
<glyph unicode="R" horiz-adv-x="1234" d="M119 0l237 1499h633q181 0 275 -121q68 -88 69 -246q0 -59 -10 -128q-14 -106 -45 -185.5t-62.5 -119.5t-75.5 -66.5t-67.5 -32.5t-56.5 -10l213 -590h-324l-176 573l-229 19l-94 -592h-287zM537 815h311q84 0 129 51.5t57 165.5q5 43 5 76q1 63 -17 92q-26 45 -100 45 h-318z" />
<glyph unicode="S" horiz-adv-x="1185" d="M145 45l35 225q176 -22 479 -22h27q186 0 207 129l12 80q3 23 3 43q0 42 -14 64q-22 34 -103 34h-207q-102 0 -175 29.5t-105 77t-52 101.5q-15 42 -15 82q-1 10 1 22q6 50 8 89l20 156q16 111 59.5 184.5t110 109.5t136 49t163.5 13h41q321 0 518 -59l-37 -225 q-291 20 -485 20q-14 1 -27 1q-88 0 -130 -24q-48 -28 -64 -122l-10 -74q-5 -31 -6 -54q-1 -46 21 -64q32 -26 124 -25h213q100 0 170 -39t95.5 -97.5t36.5 -128.5q5 -31 5 -61q0 -37 -8 -72l-12 -135q-8 -100 -46 -171.5t-84 -109.5t-117 -58.5t-122 -24.5t-121 -4 q-355 0 -545 61z" />
<glyph unicode="T" horiz-adv-x="1204" d="M250 1235l43 264h1108l-43 -264h-418l-195 -1235h-286l194 1235h-403z" />
<glyph unicode="U" horiz-adv-x="1337" d="M207 452.5q0 98.5 18 219.5l133 827h287l-135 -860q-16 -95 -16 -165q0 -88 25 -135q44 -85 204 -85t231.5 89t104.5 296l137 860h289l-131 -895q-29 -182 -85.5 -304t-144.5 -189.5t-191.5 -94t-246.5 -26.5q-70 0 -127 7t-113.5 26.5t-98.5 52.5t-74.5 85t-49 122.5 t-16.5 169z" />
<glyph unicode="V" horiz-adv-x="1402" d="M285 1499h301l151 -1122l525 1122h319l-733 -1499h-332z" />
<glyph unicode="W" horiz-adv-x="2068" d="M285 1499h299l153 -1108l492 1108h307l-193 -414l105 -700l496 1114h303l-686 -1499h-324l-94 616l-287 -616h-340z" />
<glyph unicode="X" horiz-adv-x="1316" d="M66 0l555 766l-322 733h313l205 -508l367 508h323l-569 -786l315 -713h-315l-197 487l-350 -487h-325z" />
<glyph unicode="Y" horiz-adv-x="1343" d="M285 1499h309l172 -717l428 717h328l-658 -1034l-73 -465h-287l74 465z" />
<glyph unicode="Z" horiz-adv-x="1140" d="M55 0l43 264l834 971h-682l43 264h1032l-43 -264l-813 -971h661l-43 -264h-1032z" />
<glyph unicode="[" horiz-adv-x="684" d="M120 -199.5q-7 76.5 9 142.5l221 1374q29 180 120 260t294 80h164l-39 -242h-107q-63 0 -100 -34.5t-53 -127.5l-213 -1331q-18 -106 4 -142t92 -36h113l-39 -242h-183q-102 0 -168.5 45t-87 111t-27.5 142.5z" />
<glyph unicode="\" horiz-adv-x="919" d="M279 1577h286l303 -1724h-286z" />
<glyph unicode="]" horiz-adv-x="677" d="M-37 -498l39 242h107q63 0 101 35t52 127l211 1331q16 104 -7.5 141t-92.5 37h-107l39 242h168q96 0 162.5 -38t93.5 -98.5t37 -135t-4 -150.5l-209 -1391q-23 -164 -109 -253t-294 -89h-187z" />
<glyph unicode="^" horiz-adv-x="786" d="M250 1087l264 279h213l154 -279h-189l-82 132l-135 -132h-225z" />
<glyph unicode="_" horiz-adv-x="1378" d="M49 -2l39 242h1298l-38 -242h-1299z" />
<glyph unicode="`" horiz-adv-x="505" d="M248 1372h244l157 -285h-186z" />
<glyph unicode="a" horiz-adv-x="1110" d="M158 608q25 129 69.5 223.5t92 144.5t115 80.5t117.5 39t120 12.5q21 1 43 1q113 -1 241 -27q152 -32 224 -101l-144 -979h-221l-43 113q-41 -51 -137 -89t-193 -38q-174 0 -260 152q-50 89 -49 234q0 103 25 234zM432 316q25 -85 115 -85q143 0 250 103l77 524 q-76 28 -144 28q-38 0 -73 -9q-57 -12 -91 -31t-72 -90.5t-58 -200.5q-16 -83 -15 -146q-1 -54 11 -93z" />
<glyph unicode="b" horiz-adv-x="1138" d="M94 0l254 1608h285l-90 -576q162 72 334 72q111 0 179 -48t93 -138q24 -85 24 -181q-1 -6 -1 -11q-2 -101 -23 -232q-43 -264 -141 -388q-94 -118 -283 -118h-18q-90 2 -175.5 38.5t-134.5 84.5l-67 -111h-236zM428 299q92 -66 244 -66q78 0 122 70t70 246q18 110 18 181 q0 45 -8 74q-18 75 -102 75q-143 0 -258 -41z" />
<glyph unicode="c" horiz-adv-x="1007" d="M162 578q27 170 70.5 279.5t106 161.5t122 69.5t145.5 17.5q96 0 242.5 -17.5t249.5 -50.5l-29 -178q-195 14 -377 14q-59 0 -88 -7t-61.5 -38.5t-54 -100.5t-42.5 -189q-17 -100 -17 -165q0 -64 16 -94q32 -62 145 -61q84 0 182 5t156 9l57 5l-29 -181 q-187 -68 -463 -68q-26 0 -53 1q-168 2 -248 146q-49 89 -49 238q0 91 19 204z" />
<glyph unicode="d" horiz-adv-x="1126" d="M150 290q-4 46 -5 97q0 92 15 197q16 98 36.5 170.5t55.5 141.5t81 113t114.5 69.5t156.5 25.5q180 0 320 -72l92 576h284l-256 -1608h-235l-35 111q-168 -123 -336 -123q-125 0 -200.5 85t-87.5 217zM446 303q24 -70 97 -70q150 0 264 66l84 539q-100 41 -248 41 q-72 0 -117.5 -67.5t-76.5 -262.5q-14 -94 -15 -158q1 -55 12 -88z" />
<glyph unicode="e" horiz-adv-x="1079" d="M162 614q27 137 58.5 220.5t92 150t157.5 95t245 28.5q94 0 168.5 -14.5t137 -48t94.5 -97.5q27 -53 27 -125q0 -14 -1 -28q-10 -139 -80 -230.5t-162 -124.5q-93 -32 -195 -40q-43 -3 -79 -3q-53 1 -93 7q-70 10 -100 22q-7 -46 -8 -81q0 -58 22 -85q34 -43 144 -45 q24 -1 49 -1q172 0 395 36l-35 -205q-211 -63 -449 -63q-58 0 -118 4q-296 14 -296 381q0 108 26 247zM455 614q15 -2 39 -5q18 -2 58 -3q14 0 30 1q64 1 113.5 11.5t95 46t55.5 91.5q3 18 3 33q0 45 -27 65q-33 24 -115 23h-13q-55 0 -97 -17.5t-63.5 -35t-39 -62.5 t-22.5 -67t-17 -81z" />
<glyph unicode="f" horiz-adv-x="827" d="M168 868l29 183l180 36l22 146q33 209 123 293t273 84q147 0 249 -49l-26 -172l-184 2h-8q-79 0 -103 -40q-25 -42 -47 -186l-12 -78h262l-35 -219h-264l-142 -868h-286l141 868h-172z" />
<glyph unicode="g" horiz-adv-x="1138" d="M39 -508l31 191h460q80 0 135.5 49t69.5 145l31 199q-127 -78 -283 -78q-154 0 -236.5 77t-94.5 212q-4 43 -4 90q0 103 18 229q78 500 477 500q154 0 319.5 -19.5t247.5 -42.5l-190 -1200q-35 -215 -159 -320q-102 -85 -262 -85q-35 0 -73 4zM432 400q-1 -18 -1 -33 q0 -26 4 -41q7 -25 19.5 -52.5t40 -39t66.5 -11.5q121 0 236 45l98 619h-219q-170 -1 -223 -312q-10 -63 -13.5 -93.5t-7.5 -81.5z" />
<glyph unicode="h" horiz-adv-x="1126" d="M94 0l254 1604h285l-101 -633q70 45 107 66.5t110.5 45t151.5 23.5q273 0 274 -271q0 -50 -10 -110l-114 -725h-287l115 729q4 24 4 44q0 104 -101 104q-139 0 -278 -95l-123 -782h-287z" />
<glyph unicode="i" horiz-adv-x="462" d="M88 0l172 1087h287l-172 -1087h-287zM274 1247l27 183q6 51 57 51h215q40 0 40 -37q0 -6 -1 -14l-28 -183q-6 -47 -54 -47h-215q-42 0 -42 37q0 5 1 10z" />
<glyph unicode="j" horiz-adv-x="497" d="M18 -553l261 1640h286l-174 -1095q-53 -356 -162 -545h-211zM291 1247l31 183q6 51 57 51h215q40 0 40 -37q0 -7 -1 -14l-31 -183q-6 -47 -53 -47h-215q-44 0 -44 37q0 5 1 10z" />
<glyph unicode="k" horiz-adv-x="1085" d="M94 0l254 1602h287l-146 -910q129 45 249 158t157 237h305q-51 -182 -165.5 -309t-233.5 -188l334 -590h-320l-276 500l-78 -2l-80 -498h-287z" />
<glyph unicode="l" horiz-adv-x="628" d="M152 387l192 1217h287l-187 -1172q-7 -66 -7 -106q1 -40 7 -56q14 -32 64 -51q111 -41 119 -41l-27 -178h-184q-274 0 -274 272q0 52 10 115z" />
<glyph unicode="m" horiz-adv-x="1792" d="M94 0l172 1087h230l39 -116q6 4 31.5 20.5t31.5 20.5t29.5 18t33 18.5t32 14.5t35.5 14t34.5 11.5t41 9.5t43 4t48.5 2q98 0 163.5 -41t90.5 -109q227 150 418 150q165 0 229 -104q44 -71 44 -176q0 -48 -9 -103l-115 -721h-286l114 725q4 23 4 42q0 43 -18 69 q-26 36 -82 36q-166 0 -279 -86q-10 -41 -10 -67l-115 -719h-286l114 725q4 22 4 42q0 45 -20 69q-28 36 -82 36q-82 0 -138 -20.5t-132 -71.5l-123 -780h-287z" />
<glyph unicode="n" horiz-adv-x="1126" d="M94 0l172 1087h230l39 -116q76 49 109.5 68.5t106 43t150.5 23.5q273 0 274 -271q0 -50 -10 -110l-114 -725h-287l115 729q4 24 4 44q0 104 -101 104q-139 0 -278 -95l-123 -782h-287z" />
<glyph unicode="o" horiz-adv-x="1140" d="M158 557q27 168 68.5 272.5t113.5 166t165 84t236 22.5q271 0 365 -146q62 -96 62 -263q0 -87 -17 -193q-49 -301 -169 -405.5t-402 -104.5q-274 0 -372 135q-66 91 -65 256q0 79 15 176zM429 390v-11q0 -47 8 -78q9 -35 34 -52.5t54.5 -22.5t80.5 -5q88 0 129 16.5 t74 82t55 208.5q19 117 19 189q1 61 -13 89q-30 64 -161 64t-179.5 -61.5t-85.5 -280.5q-14 -84 -15 -138z" />
<glyph unicode="p" horiz-adv-x="1138" d="M6 -553l260 1597q219 53 568 54q141 0 224 -81t100 -213q7 -58 7 -124q0 -83 -12 -178q-39 -266 -149.5 -393t-327.5 -127q-184 0 -285 77l-98 -612h-287zM422 250q77 -45 170 -45q29 0 59 4q86 6 134.5 75.5t80.5 268.5q14 80 14 140q0 186 -128 186h-226z" />
<glyph unicode="q" horiz-adv-x="1132" d="M150 266q-4 47 -4 100q0 98 16 216q45 276 164.5 399t320.5 123q154 0 316.5 -19.5t242.5 -42.5l-252 -1595h-286l96 612q-127 -79 -281 -79h-4q-152 0 -233.5 75.5t-95.5 210.5zM434 295q19 -90 127 -90q119 0 234 45l100 635h-225q-55 0 -96.5 -31t-66 -88 t-35.5 -102.5t-21 -106.5q-23 -113 -23 -190q0 -41 6 -72z" />
<glyph unicode="r" horiz-adv-x="854" d="M94 0l172 1087h242l22 -137q176 147 336 148q92 0 119 -13l-43 -276q-86 6 -156 6q-98 0 -166.5 -24.5t-130.5 -96.5l-108 -694h-287z" />
<glyph unicode="s" horiz-adv-x="1042" d="M115 45l28 178h512q72 0 84 70l11 55q4 37 -8.5 53.5t-55.5 16.5h-244q-148 0 -220 81q-54 61 -54 162q0 34 6 72l16 98q20 135 98.5 203t231.5 68q483 0 570 -55l-29 -181h-492q-84 0 -96 -75l-8 -54q-6 -14 -2 -25.5t2 -19.5t6 -12t10 -7t13.5 -4t14.5 -1h15h15h249 q147 0 211 -87q47 -64 47 -151q0 -31 -6 -65l-18 -125q-39 -254 -311 -254q-518 0 -596 59z" />
<glyph unicode="t" horiz-adv-x="770" d="M158 870l24 160l185 60l96 303h239l-49 -303h244l-35 -220h-244l-67 -436q-8 -71 -8 -113q0 -35 6 -51q12 -34 63 -53q111 -39 121 -39l-28 -180h-197q-143 0 -213 96q-49 67 -49 183q0 51 10 112l76 481h-174z" />
<glyph unicode="u" horiz-adv-x="1124" d="M135 365l115 722h287l-115 -729q-5 -29 -5 -52q1 -42 17 -62q26 -32 84 -31q143 0 279 94l123 780h286l-174 -1087h-229l-37 115q-98 -68 -176 -100.5t-191 -32.5q-274 0 -274 272q0 50 10 111z" />
<glyph unicode="v" horiz-adv-x="1093" d="M172 1087h303l117 -768l260 541q51 106 66 230h264q8 -36 8 -75q0 -112 -66 -245l-397 -770h-348z" />
<glyph unicode="w" horiz-adv-x="1695" d="M172 1087h299l117 -763l260 534q51 106 65 229h258q10 -41 10 -84q0 -81 -36 -167l-33 -78l80 -428l268 530q51 106 66 230h260q8 -39 8 -80q0 -115 -65 -240l-414 -770h-318l-77 418l-203 -418h-338z" />
<glyph unicode="x" horiz-adv-x="1171" d="M37 0l463 563l-291 524h340l153 -325l256 325h349l-465 -575l282 -512h-331l-154 313l-248 -313h-354z" />
<glyph unicode="y" horiz-adv-x="1153" d="M172 1087h297l68 -761q2 -16 8 -29.5t14 -22t17.5 -13.5t20.5 -8t17.5 -4t16.5 -2l10 -1l277 616q39 94 51 228h266q9 -41 9 -84q0 -112 -58 -238l-350 -768q-61 -135 -134 -239.5t-137.5 -164t-138.5 -101.5t-126 -58.5t-112 -26.5v201q125 68 206 163t147 226 q-119 0 -194 68.5t-89 207.5z" />
<glyph unicode="z" horiz-adv-x="968" d="M78 2l35 240l579 604h-510l37 241h879l-37 -241l-557 -602h459l-37 -242h-848z" />
<glyph unicode="{" horiz-adv-x="655" d="M121 516l35 217q47 2 72.5 6t56 28t37.5 64l75 480q29 180 150 263t350 83l-37 -242q-86 0 -131 -49t-65 -180l-58 -371q-29 -172 -227 -197q86 -16 131 -67t33 -127l-74 -453q-20 -133 8.5 -186t116.5 -51l-37 -232q-233 0 -322.5 117t-58.5 307l76 473q8 55 -30 88 t-101 29z" />
<glyph unicode="|" horiz-adv-x="505" d="M109 -147l272 1724h242l-273 -1724h-241z" />
<glyph unicode="}" horiz-adv-x="651" d="M-37 -498l37 232q86 -2 130 47t63 166l71 440q25 158 225 195q-90 10 -134 59t-29 137l59 383q25 150 -3 204t-116 50l39 242q223 0 311.5 -125t55.5 -313l-58 -420q-8 -55 32 -86t102 -31l-35 -215q-150 4 -166 -100l-84 -510q-33 -193 -147.5 -274t-352.5 -81z" />
<glyph unicode="~" horiz-adv-x="856" d="M266 1200q49 47 81 72.5t84 50.5t106 25q45 0 104 -36t100 -36q90 -2 205 82l29 -123q-143 -147 -254 -148q-47 0 -114.5 36t-106.5 36q-18 0 -38 -3t-33 -6t-32.5 -12.5t-29 -14.5t-34 -18t-34.5 -18z" />
<glyph unicode="&#xa1;" horiz-adv-x="565" d="M45 -553l207 1094h235l-143 -1094h-299zM260 719l27 178q6 43 57 47h174q18 -2 30.5 -17.5t10.5 -35.5l-29 -172q-8 -47 -51 -53h-182q-43 0 -37 53z" />
<glyph unicode="&#xa2;" horiz-adv-x="993" d="M145 578q29 172 73 280.5t107.5 159.5t125 67.5t153.5 14.5l33 198h178l-35 -204q178 -18 303 -62l-28 -176q-195 12 -377 12q-49 0 -71.5 -3t-54.5 -19.5t-49.5 -51t-37 -97t-35.5 -158.5q-33 -197 -1 -258.5t144 -61.5l398 19l-29 -181q-139 -61 -340 -69l-29 -183 h-176l29 185q-168 2 -249 146.5t-32 441.5z" />
<glyph unicode="&#xa3;" horiz-adv-x="1191" d="M78 0l35 221l143 43l59 379h-135l23 148l143 45l31 188q14 96 39.5 170t54.5 125t74 85t85 52.5t103.5 28.5t112.5 12t129 2l373 -33l-35 -229h-381q-143 0 -195.5 -41t-74.5 -182l-29 -178l448 -33l-24 -160h-455l-59 -379h614l-43 -264h-1036z" />
<glyph unicode="&#xa4;" horiz-adv-x="919" d="M141 369l113 98q-39 86 -25 172q12 92 66 164l-82 94l115 100l78 -92q96 59 192 60q109 0 182 -58l111 99l92 -105l-117 -100q33 -80 21 -170q-18 -111 -86 -193l84 -96l-115 -104l-90 106q-74 -41 -170 -41q-98 0 -170 55l-109 -98zM393 637q-12 -70 29 -120t108 -50 q78 -2 129.5 45t65.5 121q14 68 -27 119t-114 51q-76 -2 -128.5 -49t-62.5 -117z" />
<glyph unicode="&#xa5;" horiz-adv-x="1298" d="M244 285l26 166h283l10 73h-280l26 168h207l-250 807h312l167 -672l416 672h342l-553 -807h234l-27 -168h-307l-10 -73h305l-27 -166h-303l-41 -285h-287l41 285h-284z" />
<glyph unicode="&#xa6;" horiz-adv-x="507" d="M109 -147l106 671h242l-107 -671h-241zM270 879l111 698h242l-111 -698h-242z" />
<glyph unicode="&#xa7;" horiz-adv-x="1105" d="M164 23l31 202h487q45 0 68.5 13.5t31.5 50.5l13 82q6 39 -11.5 53t-62.5 14h-250q-143 0 -221 70t-55 205l12 69q6 39 12 63.5t22.5 57.5t48.5 55.5t77 36.5q-115 68 -91 236l15 98q37 276 336 277q129 0 310 -11.5t255 -27.5l-31 -203h-493q-80 0 -93 -74l-12 -69 q-10 -72 72 -72h252q154 0 225.5 -70.5t50.5 -199.5l-10 -70q-31 -178 -156 -211q66 -14 81.5 -81.5t4.5 -141.5l-16 -117q-27 -166 -107.5 -220t-224.5 -54q-145 0 -324 11.5t-247 27.5zM489 750q-8 -51 11.5 -66.5t68.5 -15.5h176q61 0 82 18.5t27 65.5q12 78 12 77 q4 29 3 48.5t-20.5 30t-64.5 10.5h-176q-57 0 -77.5 -19.5t-28.5 -73.5z" />
<glyph unicode="&#xa8;" horiz-adv-x="915" d="M266 1192q8 49 49 84t91 35q51 0 79.5 -35t20.5 -84t-48 -85t-89 -36q-51 0 -81 36t-22 85zM788.5 1192q8.5 49 49.5 84t90 35q51 0 79.5 -35t20.5 -84t-48 -85t-91 -36q-49 0 -79 36t-21.5 85z" />
<glyph unicode="&#xa9;" horiz-adv-x="1632" d="M185.5 562.5q3.5 107.5 15.5 213.5q25 158 64.5 278t111.5 225t188.5 162.5t272.5 57.5h465q98 0 171.5 -31.5t116.5 -91t69 -132.5t31 -164t0 -177t-22 -182q-55 -352 -205.5 -536.5t-382.5 -184.5h-465q-115 0 -200.5 47t-131.5 126t-74 180.5t-24.5 209zM387 754 q-39 -250 20.5 -414t225.5 -164h459q137 0 240.5 139.5t150.5 438.5q12 74 17 129t8 126.5t-8 122t-34.5 97.5t-68.5 70.5t-111 23.5h-473q-74 0 -134.5 -24.5t-118.5 -85t-102 -176t-71 -283.5zM571 766q41 244 130.5 336t234.5 92q209 0 369 -49l-23 -152q-170 25 -328 25 q-84 0 -128 -61.5t-68 -215.5q-20 -133 6.5 -198.5t112.5 -65.5q158 0 340 33l-23 -152q-152 -57 -389 -57q-133 0 -202 112.5t-32 352.5z" />
<glyph unicode="&#xaa;" horiz-adv-x="745" d="M131 537l21 143h657l-21 -143h-657zM201 1174q16 86 47 148t63.5 95t78.5 52.5t79 24.5t80 7q90 4 199.5 -18.5t156.5 -69.5l-94 -645h-145l-33 98q-29 -47 -97.5 -77.5t-136.5 -30.5q-106 0 -171.5 107.5t-26.5 308.5zM399 1143q-33 -195 74 -195t178 82l41 289 q-86 31 -160 12q-33 -8 -54 -20.5t-45 -55t-34 -112.5z" />
<glyph unicode="&#xab;" horiz-adv-x="1183" d="M193 725l487 416l135 -158l-323 -276l237 -277l-172 -131zM633 725l487 416l135 -158l-323 -276l237 -277l-172 -131z" />
<glyph unicode="&#xac;" horiz-adv-x="1009" d="M145 492l37 229h875q-8 -57 -30.5 -196.5t-33.5 -198.5h-231l26 166h-643z" />
<glyph unicode="&#xad;" horiz-adv-x="722" d="M115 473l39 242h643l-39 -242h-643z" />
<glyph unicode="&#xae;" horiz-adv-x="1632" d="M185.5 562.5q3.5 107.5 15.5 213.5q25 158 64.5 278t111.5 225t188.5 162.5t272.5 57.5h465q98 0 171.5 -31.5t116.5 -91t69 -132.5t31 -164t0 -177t-22 -182q-55 -352 -205.5 -536.5t-382.5 -184.5h-465q-115 0 -200.5 47t-131.5 126t-74 180.5t-24.5 209zM387 754 q-39 -250 20.5 -414t225.5 -164h459q137 0 240.5 139.5t150.5 438.5q12 74 17 129t8 126.5t-8 122t-34.5 97.5t-68.5 70.5t-111 23.5h-473q-74 0 -134.5 -24.5t-118.5 -85t-102 -176t-71 -283.5zM551 313l139 875h375q51 0 93 -12.5t79 -42t53.5 -87t3.5 -137.5 q-18 -137 -68 -189t-134 -73l127 -334h-203l-119 326l-102 25l-56 -351h-188zM815 799h156q78 0 101.5 19.5t35.5 94.5q10 63 -15.5 81t-88.5 18h-154z" />
<glyph unicode="&#xaf;" horiz-adv-x="751" d="M250 1087l26 162h598l-26 -162h-598z" />
<glyph unicode="&#xb0;" horiz-adv-x="563" d="M279 1294q4 88 67.5 147.5t149.5 59.5t144 -60.5t54 -146.5t-66.5 -144t-148.5 -58q-88 0 -146 58t-54 144zM395 1294q-2 -37 24.5 -63.5t63.5 -26.5t63.5 26.5t28.5 63.5q4 37 -20.5 64.5t-62.5 27.5q-37 0 -66 -27.5t-31 -64.5z" />
<glyph unicode="&#xb1;" horiz-adv-x="1024" d="M111 143l36 242h852l-36 -242h-852zM213 782l37 242h303l49 303h242l-49 -303h307l-37 -242h-307l-49 -307h-242l49 307h-303z" />
<glyph unicode="&#xb2;" horiz-adv-x="815" d="M137 727l31 197q528 332 551 483q10 68 -19.5 92.5t-117.5 24.5h-326l6 42q6 42 13.5 84t7.5 40q223 39 405 39q143 0 211 -99.5t49 -216.5q-8 -55 -36.5 -112.5t-60.5 -100.5t-80 -91t-78.5 -73.5t-77 -61.5t-54.5 -42h307l-32 -205h-699z" />
<glyph unicode="&#xb3;" horiz-adv-x="833" d="M141 760l27 162l328 2q74 0 109.5 17t43.5 67l4 26q8 51 -21.5 69.5t-94.5 20.5l-252 11l26 178l258 10q72 4 106 21.5t40 62.5l4 25q8 47 -21.5 65.5t-99.5 18.5h-346l27 161q145 49 444 41q117 -2 177.5 -76.5t43.5 -183.5l-10 -61q-27 -158 -143 -183 q53 -20 73.5 -78.5t7.5 -131.5l-8 -50q-37 -238 -309 -235h-47h-47h-43q-33 0 -45.5 1t-41 2t-43 3t-38 5t-39.5 7t-35 10.5t-35 12.5z" />
<glyph unicode="&#xb4;" horiz-adv-x="497" d="M203 1087l231 285h250l-295 -285h-186z" />
<glyph unicode="&#xb5;" horiz-adv-x="1202" d="M53 -553l144 918l116 722h287l-117 -729q-25 -145 97 -145q84 0 144 21.5t134 72.5l125 780h287l-172 -1087h-232l-39 115q-8 -4 -52 -29t-58.5 -32t-48 -22.5t-61 -22.5t-58.5 -11q-63 -8 -121 10l-88 -561h-287z" />
<glyph unicode="&#xb6;" horiz-adv-x="1179" d="M223 1047l29 190q23 147 119 204.5t247 57.5h771l-35 -213h-107l-205 -1286h-206l204 1290h-137l-291 -1843h-209l209 1315q-2 0 -15 -7t-26.5 -12.5t-35 -10.5t-43.5 -5q-158 0 -222.5 97.5t-46.5 222.5zM434 1047q-8 -51 8.5 -78t37 -31t57.5 -4h102l57 360h-100 q-76 0 -103.5 -27.5t-37.5 -95.5z" />
<glyph unicode="&#xb7;" horiz-adv-x="536" d="M240 696l30 185q6 51 58 51h176q53 0 43 -51l-31 -185q-8 -47 -57 -47h-176q-49 0 -43 47z" />
<glyph unicode="&#xb8;" horiz-adv-x="497" d="M20 -365l21 123l94 31q43 16 57.5 43t24.5 92h195q-25 -160 -85.5 -224.5t-191.5 -64.5h-115z" />
<glyph unicode="&#xb9;" horiz-adv-x="571" d="M225 1442l23 151q51 0 133 44t113 79h217l-158 -989h-221l123 762q-60 -47 -230 -47z" />
<glyph unicode="&#xba;" horiz-adv-x="788" d="M158 541l22 141h660l-23 -141h-659zM231 1143q35 213 120 287.5t280 74.5q184 2 254.5 -91t36.5 -308q-31 -199 -115 -270.5t-285 -71.5q-182 0 -252 92t-39 287zM440 1124q-18 -121 5.5 -151.5t103.5 -30.5q80 -2 111.5 27.5t52.5 154.5q18 141 0.5 172t-105.5 31 t-118 -34t-50 -169z" />
<glyph unicode="&#xbb;" horiz-adv-x="1179" d="M150 459l325 284l-227 258l166 140l358 -420l-483 -422zM594 459l326 284l-228 258l164 140l361 -420l-484 -422z" />
<glyph unicode="&#xbc;" horiz-adv-x="1980" d="M225 1237l23 152q51 0 133 44t113 78h217l-158 -989h-221l123 762q-60 -47 -230 -47zM393 0l1092 1577h215l-1092 -1577h-215zM1149 295l461 690h241l-374 -575h223l33 211l67 100h164l-49 -311h100l-28 -174l-109 -35l-27 -199h-215l31 197h-473z" />
<glyph unicode="&#xbd;" horiz-adv-x="2076" d="M225 1237l23 152q51 0 133 44t113 78h217l-158 -989h-221l123 762q-60 -47 -230 -47zM381 0l1092 1577h215l-1092 -1577h-215zM1319 -2l31 197q526 330 551 483q10 68 -20 92.5t-118 24.5h-325q0 4 2 12t5 30.5t6 42.5l6 38q3 20 5 31l2 12q223 39 406 38 q143 0 209.5 -99t48.5 -216q-8 -55 -36 -113.5t-58.5 -99.5t-80.5 -90t-79 -73.5t-78 -62.5t-55 -42h309l-33 -205h-698z" />
<glyph unicode="&#xbe;" horiz-adv-x="2209" d="M141 555l27 162l328 2q74 0 109.5 17.5t43.5 66.5l4 26q8 51 -21.5 70t-94.5 21l-252 10l26 178l258 10q72 4 106 21.5t40 62.5l4 25q8 47 -21.5 65.5t-99.5 18.5h-346l27 162q145 49 444 40q117 -2 177.5 -76.5t43.5 -183.5l-10 -61q-27 -158 -143 -182q53 -20 73.5 -79 t7.5 -132l-8 -49q-37 -238 -309 -236h-47h-47h-43q-33 0 -45.5 1t-41 2t-43 3t-38 5t-39.5 7.5t-35 10.5t-35 12zM598 0l1092 1577h215l-1092 -1577h-215zM1331 295l463 690h240l-377 -575h225l33 211l65 100h166l-49 -311h98l-26 -174l-109 -35l-26 -199h-217l32 197h-475z " />
<glyph unicode="&#xbf;" horiz-adv-x="1105" d="M37 -123l22 150q35 213 161 292.5t364 61.5l15 90q15 90 15 94h232l-64 -399h-233q-178 -8 -205 -168l-16 -111q-14 -94 32 -134t164 -40h510l-33 -211q-336 -61 -587 -51q-207 0 -305.5 130t-71.5 296zM623 733l28 185q8 47 58 47h178q47 0 41 -47l-29 -185 q-6 -51 -57 -51h-178q-47 0 -41 51z" />
<glyph unicode="&#xc0;" horiz-adv-x="1409" d="M70 0l743 1499h326l250 -1499h-293l-60 332h-485l-164 -332h-317zM666 586h342l-84 544zM688 1917h244l158 -285h-187z" />
<glyph unicode="&#xc1;" horiz-adv-x="1409" d="M70 0l743 1499h326l250 -1499h-293l-60 332h-485l-164 -332h-317zM666 586h342l-84 544zM903 1632l232 285h249l-294 -285h-187z" />
<glyph unicode="&#xc2;" horiz-adv-x="1409" d="M70 0l743 1499h326l250 -1499h-293l-60 332h-485l-164 -332h-317zM666 586h342l-84 544zM682 1632l264 277h213l154 -277h-185l-88 133l-147 -133h-211z" />
<glyph unicode="&#xc3;" horiz-adv-x="1409" d="M70 0l743 1499h326l250 -1499h-293l-60 332h-485l-164 -332h-317zM664 1745q152 143 270 143q51 -2 111.5 -36.5t93.5 -34.5q47 -2 110.5 24.5t93.5 52.5l29 -122q-49 -43 -77.5 -67t-81 -48.5t-97.5 -24.5q-51 2 -115.5 37t-101.5 35q-39 0 -78 -12.5t-57.5 -21.5 t-67.5 -38zM666 586h342l-84 544z" />
<glyph unicode="&#xc4;" horiz-adv-x="1409" d="M70 0l743 1499h326l250 -1499h-293l-60 332h-485l-164 -332h-317zM637 1753q8 51 48 85t91 34q49 0 79 -34t22 -85q-8 -49 -48.5 -85t-91.5 -36q-49 0 -78.5 36t-21.5 85zM666 586h342l-84 544zM1159 1753q8 51 48 85t91 34q49 0 79 -34t22 -85q-8 -49 -48 -85t-91 -36 q-49 0 -79 36t-22 85z" />
<glyph unicode="&#xc5;" horiz-adv-x="1409" d="M70 0l743 1499h133q-72 14 -115.5 70.5t-37.5 132.5q8 88 73.5 147.5t151.5 59.5t142.5 -60.5t47.5 -146.5q-6 -76 -56 -132.5t-124 -70.5h111l250 -1499h-293l-60 332h-485l-164 -332h-317zM666 586h342l-84 544zM913 1702q-2 -37 21.5 -61.5t60.5 -24.5t64.5 24.5 t30.5 61.5q4 37 -19.5 62.5t-60.5 25.5t-66 -25.5t-31 -62.5z" />
<glyph unicode="&#xc6;" horiz-adv-x="2080" d="M47 0l766 1178q76 115 157 185.5t173 99t161.5 34.5t176.5 2q506 -14 635 -33l-37 -237h-574q-37 0 -60.5 -8.5t-34.5 -29t-15 -33.5t-11 -42l-38 -239l579 -23l-35 -236l-590 -18l-36 -231q-6 -39 1 -62.5t28.5 -32t37 -10.5t45.5 -2h549l-37 -235q-53 -8 -207.5 -16.5 t-283.5 -13.5l-129 -5q-57 -4 -112.5 7t-107 39t-77 83t-13.5 131l23 147h-350l-264 -399h-320zM791 653h231l80 480z" />
<glyph unicode="&#xc7;" horiz-adv-x="1169" d="M183.5 481q-9.5 145 21.5 307q61 379 198.5 553.5t430.5 174.5q281 0 512 -74l-35 -223q-2 0 -35 4t-76 9t-97 9t-118.5 7t-122.5 3q-39 0 -55 -1t-52 -6t-53.5 -17.5t-47 -35t-48 -59t-41 -89t-40 -126t-31.5 -167.5q-47 -250 -2 -371t206 -127q197 -2 465 18l-35 -225 q-190 -63 -532 -57q-139 2 -231.5 66.5t-132 173t-49 253.5zM360 -365l21 123l94 31q43 14 58.5 43t25.5 94h193q-25 -160 -85.5 -225.5t-191.5 -65.5h-115z" />
<glyph unicode="&#xc8;" horiz-adv-x="1146" d="M162 307l141 893q49 307 375 299q504 -14 633 -33l-37 -237h-572q-37 0 -61.5 -9.5t-35.5 -29t-16 -34.5t-9 -42l-37 -229l579 -21l-39 -235l-583 -21l-39 -237q-6 -39 0 -62.5t27.5 -32t37 -10.5t45.5 -2h551l-39 -235q-119 -16 -624 -35q-59 -2 -113.5 11t-103.5 46 t-71.5 98.5t-8.5 157.5zM563 1905h244l158 -283h-187z" />
<glyph unicode="&#xc9;" horiz-adv-x="1146" d="M162 307l141 893q49 307 375 299q504 -14 633 -33l-37 -237h-572q-37 0 -61.5 -9.5t-35.5 -29t-16 -34.5t-9 -42l-37 -229l579 -21l-39 -235l-583 -21l-39 -237q-6 -39 0 -62.5t27.5 -32t37 -10.5t45.5 -2h551l-39 -235q-119 -16 -624 -35q-59 -2 -113.5 11t-103.5 46 t-71.5 98.5t-8.5 157.5zM782 1622l230 283h252l-297 -283h-185z" />
<glyph unicode="&#xca;" horiz-adv-x="1146" d="M162 307l141 893q49 307 375 299q504 -14 633 -33l-37 -237h-572q-37 0 -61.5 -9.5t-35.5 -29t-16 -34.5t-9 -42l-37 -229l579 -21l-39 -235l-583 -21l-39 -237q-6 -39 0 -62.5t27.5 -32t37 -10.5t45.5 -2h551l-39 -235q-119 -16 -624 -35q-59 -2 -113.5 11t-103.5 46 t-71.5 98.5t-8.5 157.5zM563 1622l264 279h213l156 -279h-188l-84 131l-133 -131h-228z" />
<glyph unicode="&#xcb;" horiz-adv-x="1146" d="M162 307l141 893q49 307 375 299q504 -14 633 -33l-37 -237h-572q-37 0 -61.5 -9.5t-35.5 -29t-16 -34.5t-9 -42l-37 -229l579 -21l-39 -235l-583 -21l-39 -237q-6 -39 0 -62.5t27.5 -32t37 -10.5t45.5 -2h551l-39 -235q-119 -16 -624 -35q-59 -2 -113.5 11t-103.5 46 t-71.5 98.5t-8.5 157.5zM493.5 1726.5q8.5 49.5 49.5 84t92 34.5q49 0 78.5 -34.5t21.5 -84t-49 -85t-90 -35.5t-80 35.5t-22.5 85zM1016 1726.5q8 49.5 49 84t92 34.5q49 0 79 -34.5t21.5 -84t-49.5 -85t-90 -35.5t-79.5 35.5t-22.5 85z" />
<glyph unicode="&#xcc;" horiz-adv-x="524" d="M133 0l238 1499h286l-237 -1499h-287zM227 1917h244l158 -285h-187z" />
<glyph unicode="&#xcd;" horiz-adv-x="524" d="M133 0l238 1499h286l-237 -1499h-287zM442 1632l232 285h250l-295 -285h-187z" />
<glyph unicode="&#xce;" horiz-adv-x="524" d="M133 0l238 1499h286l-237 -1499h-287zM219 1632l264 277h213l156 -277h-186l-86 133l-150 -133h-211z" />
<glyph unicode="&#xcf;" horiz-adv-x="524" d="M133 0l238 1499h286l-237 -1499h-287zM174 1753q8 49 49 84t90 35q51 0 80 -34t21 -85q-8 -49 -48 -85t-92 -36q-49 0 -78.5 36t-21.5 85zM696.5 1753q8.5 49 49 84t90.5 35q51 0 79.5 -34t20.5 -85q-8 -49 -48 -85t-91 -36q-49 0 -79 36t-21.5 85z" />
<glyph unicode="&#xd0;" horiz-adv-x="1335" d="M100 696l23 135h133l104 668h617q125 0 213 -50t132 -128t63.5 -185.5t15.5 -211t-23 -215.5q-63 -369 -205.5 -539t-410.5 -170h-639l110 696h-133zM451 256h307q254 0 332 489q35 190 20.5 302t-62 155t-135.5 43h-305l-65 -414h227l-20 -135h-230z" />
<glyph unicode="&#xd1;" horiz-adv-x="1370" d="M125 0l237 1499h287l426 -975l154 975h287l-238 -1499h-283l-430 963l-151 -963h-289zM618 1741q152 143 271 143q51 -2 111.5 -37t93.5 -35q45 -2 109.5 24t94.5 52l29 -121q-154 -139 -254 -139q-53 2 -117.5 37t-101.5 35q-82 -2 -203 -72z" />
<glyph unicode="&#xd2;" horiz-adv-x="1363" d="M186 511q2 114 25 257q23 147 56.5 262t71.5 192.5t91 132t101.5 84t120 46t129 20.5t145.5 4q82 0 145.5 -8t126 -29.5t105.5 -58.5t76.5 -97.5t49 -143t12.5 -199.5t-26 -262q-31 -195 -81 -329t-107.5 -210t-146.5 -117t-170 -52t-205 -11q-82 0 -144.5 7t-126 27.5 t-106.5 55.5t-78 94.5t-50.5 140t-13.5 194.5zM472 490q-1 -91 28.5 -145t84 -71.5t152.5 -17.5q178 0 262 95t129 388q23 139 24 232.5t-11.5 148t-50 82t-79.5 35.5t-116 8q-78 0 -122 -7t-92 -33.5t-77 -81t-56 -148t-50 -236.5q-25 -158 -26 -249zM637 1917h244 l157 -285h-186z" />
<glyph unicode="&#xd3;" horiz-adv-x="1363" d="M186 511q2 114 25 257q23 147 56.5 262t71.5 192.5t91 132t101.5 84t120 46t129 20.5t145.5 4q82 0 145.5 -8t126 -29.5t105.5 -58.5t76.5 -97.5t49 -143t12.5 -199.5t-26 -262q-31 -195 -81 -329t-107.5 -210t-146.5 -117t-170 -52t-205 -11q-82 0 -144.5 7t-126 27.5 t-106.5 55.5t-78 94.5t-50.5 140t-13.5 194.5zM472 490q-1 -91 28.5 -145t84 -71.5t152.5 -17.5q178 0 262 95t129 388q23 139 24 232.5t-11.5 148t-50 82t-79.5 35.5t-116 8q-78 0 -122 -7t-92 -33.5t-77 -81t-56 -148t-50 -236.5q-25 -158 -26 -249zM852 1632l231 285h252 l-297 -285h-186z" />
<glyph unicode="&#xd4;" horiz-adv-x="1363" d="M186 511q2 114 25 257q23 147 56.5 262t71.5 192.5t91 132t101.5 84t120 46t129 20.5t145.5 4q82 0 145.5 -8t126 -29.5t105.5 -58.5t76.5 -97.5t49 -143t12.5 -199.5t-26 -262q-31 -195 -81 -329t-107.5 -210t-146.5 -117t-170 -52t-205 -11q-82 0 -144.5 7t-126 27.5 t-106.5 55.5t-78 94.5t-50.5 140t-13.5 194.5zM472 490q-1 -91 28.5 -145t84 -71.5t152.5 -17.5q178 0 262 95t129 388q23 139 24 232.5t-11.5 148t-50 82t-79.5 35.5t-116 8q-78 0 -122 -7t-92 -33.5t-77 -81t-56 -148t-50 -236.5q-25 -158 -26 -249zM631 1632l264 277h213 l154 -277h-185l-86 133l-149 -133h-211z" />
<glyph unicode="&#xd5;" horiz-adv-x="1363" d="M186 511q2 114 25 257q23 147 56.5 262t71.5 192.5t91 132t101.5 84t120 46t129 20.5t145.5 4q82 0 145.5 -8t126 -29.5t105.5 -58.5t76.5 -97.5t49 -143t12.5 -199.5t-26 -262q-31 -195 -81 -329t-107.5 -210t-146.5 -117t-170 -52t-205 -11q-82 0 -144.5 7t-126 27.5 t-106.5 55.5t-78 94.5t-50.5 140t-13.5 194.5zM472 490q-1 -91 28.5 -145t84 -71.5t152.5 -17.5q178 0 262 95t129 388q23 139 24 232.5t-11.5 148t-50 82t-79.5 35.5t-116 8q-78 0 -122 -7t-92 -33.5t-77 -81t-56 -148t-50 -236.5q-25 -158 -26 -249zM612 1745 q152 143 269 143q51 -2 111.5 -36.5t92.5 -34.5q47 -2 111 24.5t94 52.5l31 -122q-49 -43 -78 -67t-81 -48.5t-97 -24.5q-53 2 -117.5 37t-99.5 35q-16 0 -31.5 -2t-27 -3t-26.5 -7t-22.5 -8.5t-25 -11.5t-22.5 -11t-25.5 -14.5t-24.5 -14.5z" />
<glyph unicode="&#xd6;" horiz-adv-x="1363" d="M186 511q2 114 25 257q23 147 56.5 262t71.5 192.5t91 132t101.5 84t120 46t129 20.5t145.5 4q82 0 145.5 -8t126 -29.5t105.5 -58.5t76.5 -97.5t49 -143t12.5 -199.5t-26 -262q-31 -195 -81 -329t-107.5 -210t-146.5 -117t-170 -52t-205 -11q-82 0 -144.5 7t-126 27.5 t-106.5 55.5t-78 94.5t-50.5 140t-13.5 194.5zM472 490q-1 -91 28.5 -145t84 -71.5t152.5 -17.5q178 0 262 95t129 388q23 139 24 232.5t-11.5 148t-50 82t-79.5 35.5t-116 8q-78 0 -122 -7t-92 -33.5t-77 -81t-56 -148t-50 -236.5q-25 -158 -26 -249zM586 1753q8 49 49 84 t90 35t79 -34t21 -85q-8 -49 -48 -85t-91 -36q-49 0 -78.5 36t-21.5 85zM1108 1753q8 49 49 84t90 35t79 -34t22 -85q-8 -49 -48 -85t-92 -36q-49 0 -78.5 36t-21.5 85z" />
<glyph unicode="&#xd7;" horiz-adv-x="944" d="M168 514l248 215l-178 215l184 162l180 -213l264 225l144 -172l-265 -229l181 -215l-185 -154l-176 209l-250 -221z" />
<glyph unicode="&#xd8;" horiz-adv-x="1363" d="M88 0l150 176q-96 184 -29 598q23 147 56.5 261t70.5 192t91 131t102.5 82.5t120 45t129 19.5t145.5 4q256 0 366 -79l60 69h153l-131 -156q111 -184 41 -638q-23 -139 -54.5 -247t-68.5 -182.5t-88 -128t-100 -83t-120 -46t-132.5 -21.5t-149.5 -5q-283 0 -391 90 l-69 -82h-152zM481 463l613 737q-51 45 -203 45q-78 0 -122 -7t-91 -33.5t-77 -81t-56 -148t-49 -236.5q-31 -184 -15 -276zM514 322q53 -66 219 -66q121 0 191.5 37t120 141.5t81.5 304.5q35 229 15 336z" />
<glyph unicode="&#xd9;" horiz-adv-x="1337" d="M207 452.5q0 98.5 18 219.5l133 827h287l-135 -860q-35 -215 9 -300t204 -85t231.5 89t104.5 296l137 860h289l-131 -895q-29 -182 -85.5 -304t-144.5 -189.5t-191.5 -94t-246.5 -26.5q-70 0 -127 7t-113.5 26.5t-98.5 52.5t-74.5 85t-49 122.5t-16.5 169zM633 1917h244 l157 -285h-186z" />
<glyph unicode="&#xda;" horiz-adv-x="1337" d="M207 452.5q0 98.5 18 219.5l133 827h287l-135 -860q-35 -215 9 -300t204 -85t231.5 89t104.5 296l137 860h289l-131 -895q-29 -182 -85.5 -304t-144.5 -189.5t-191.5 -94t-246.5 -26.5q-70 0 -127 7t-113.5 26.5t-98.5 52.5t-74.5 85t-49 122.5t-16.5 169zM848 1632 l231 285h250l-295 -285h-186z" />
<glyph unicode="&#xdb;" horiz-adv-x="1337" d="M207 452.5q0 98.5 18 219.5l133 827h287l-135 -860q-35 -215 9 -300t204 -85t231.5 89t104.5 296l137 860h289l-131 -895q-29 -182 -85.5 -304t-144.5 -189.5t-191.5 -94t-246.5 -26.5q-70 0 -127 7t-113.5 26.5t-98.5 52.5t-74.5 85t-49 122.5t-16.5 169zM627 1632 l264 277h213l153 -277h-184l-88 133l-147 -133h-211z" />
<glyph unicode="&#xdc;" horiz-adv-x="1337" d="M207 452.5q0 98.5 18 219.5l133 827h287l-135 -860q-35 -215 9 -300t204 -85t231.5 89t104.5 296l137 860h289l-131 -895q-29 -182 -85.5 -304t-144.5 -189.5t-191.5 -94t-246.5 -26.5q-70 0 -127 7t-113.5 26.5t-98.5 52.5t-74.5 85t-49 122.5t-16.5 169zM581.5 1753 q8.5 49 49.5 84t90 35t78.5 -34t21.5 -85q-8 -49 -48 -85t-91 -36q-49 0 -79 36t-21.5 85zM1104 1753q8 49 49 84t90 35t79 -34t21 -85q-8 -49 -48 -85t-91 -36q-49 0 -78.5 36t-21.5 85z" />
<glyph unicode="&#xdd;" horiz-adv-x="1343" d="M285 1499h309l172 -717l428 717h328l-658 -1034l-73 -465h-287l74 465zM831 1632l232 285h250l-295 -285h-187z" />
<glyph unicode="&#xde;" horiz-adv-x="1116" d="M94 0q39 250 118 747.5t118 745.5h286l-45 -289h301q61 0 115.5 -20.5t104 -66.5t70 -139t1.5 -224q-16 -121 -53 -208t-75 -131t-97 -68.5t-99 -30t-104 -7.5q-190 -4 -299 41l-55 -350h-287zM469 563h213q92 0 131 36t61 167q10 39 5 66.5t-7 48t-16 33t-23.5 20.5 t-28 11t-30.5 4t-33 1h-211z" />
<glyph unicode="&#xdf;" horiz-adv-x="1171" d="M94 0l185 1159q31 197 166 318.5t393 121.5q141 0 240.5 -36.5t145.5 -97t60 -137.5t-6.5 -155.5t-63.5 -151.5t-102 -128q-25 -20 -74 -51t-74.5 -57.5t-31.5 -67.5q-8 -45 37 -80t102 -58.5t98 -83t27 -147.5l-10 -63q-45 -301 -391 -301q-129 0 -299 39l32 202 q215 -12 232 -12q51 0 92 29.5t51 87.5l8 41q4 33 -15 57.5t-51 38.5t-69 34.5t-67.5 44t-47 67.5t-8.5 104q16 102 61.5 158.5t164.5 130.5q100 72 112 174q14 94 -31 126.5t-145 32.5q-117 0 -180.5 -62.5t-87.5 -219.5l-166 -1057h-287z" />
<glyph unicode="&#xe0;" horiz-adv-x="1110" d="M158 608q25 129 69.5 223.5t92 144.5t115 80.5t117.5 39t120 12.5q133 6 284.5 -25.5t223.5 -101.5l-144 -979h-221l-43 113q-41 -51 -137 -89t-193 -38q-174 0 -259.5 152.5t-24.5 467.5zM414 1516h243l158 -283h-186zM432 316q25 -85 115 -85q143 0 250 103l77 524 q-119 43 -217 19q-57 -12 -91 -31t-72 -90.5t-58 -200.5q-29 -154 -4 -239z" />
<glyph unicode="&#xe1;" horiz-adv-x="1110" d="M158 608q25 129 69.5 223.5t92 144.5t115 80.5t117.5 39t120 12.5q133 6 284.5 -25.5t223.5 -101.5l-144 -979h-221l-43 113q-41 -51 -137 -89t-193 -38q-174 0 -259.5 152.5t-24.5 467.5zM432 316q25 -85 115 -85q143 0 250 103l77 524q-119 43 -217 19q-57 -12 -91 -31 t-72 -90.5t-58 -200.5q-29 -154 -4 -239zM639 1233l229 283h252l-295 -283h-186z" />
<glyph unicode="&#xe2;" horiz-adv-x="1110" d="M158 608q25 129 69.5 223.5t92 144.5t115 80.5t117.5 39t120 12.5q133 6 284.5 -25.5t223.5 -101.5l-144 -979h-221l-43 113q-41 -51 -137 -89t-193 -38q-174 0 -259.5 152.5t-24.5 467.5zM408 1233l264 276h213l153 -276h-184l-88 133l-148 -133h-210zM432 316 q25 -85 115 -85q143 0 250 103l77 524q-119 43 -217 19q-57 -12 -91 -31t-72 -90.5t-58 -200.5q-29 -154 -4 -239z" />
<glyph unicode="&#xe3;" horiz-adv-x="1110" d="M158 608q25 129 69.5 223.5t92 144.5t115 80.5t117.5 39t120 12.5q133 6 284.5 -25.5t223.5 -101.5l-144 -979h-221l-43 113q-41 -51 -137 -89t-193 -38q-174 0 -259.5 152.5t-24.5 467.5zM395 1346q152 143 271 143q49 -2 110.5 -37t93.5 -35q47 -2 110.5 24.5 t94.5 51.5l29 -121q-49 -43 -78 -66.5t-81 -48t-97 -24.5q-53 2 -116.5 37t-100.5 35q-39 0 -78 -12.5t-59.5 -22.5t-67.5 -37zM432 316q25 -85 115 -85q143 0 250 103l77 524q-119 43 -217 19q-57 -12 -91 -31t-72 -90.5t-58 -200.5q-29 -154 -4 -239z" />
<glyph unicode="&#xe4;" horiz-adv-x="1110" d="M158 608q25 129 69.5 223.5t92 144.5t115 80.5t117.5 39t120 12.5q133 6 284.5 -25.5t223.5 -101.5l-144 -979h-221l-43 113q-41 -51 -137 -89t-193 -38q-174 0 -259.5 152.5t-24.5 467.5zM360.5 1354q8.5 49 49.5 84t90 35q51 0 79.5 -34t20.5 -85q-8 -49 -48 -85 t-91 -36q-49 0 -79 36t-21.5 85zM432 316q25 -85 115 -85q143 0 250 103l77 524q-119 43 -217 19q-57 -12 -91 -31t-72 -90.5t-58 -200.5q-29 -154 -4 -239zM882.5 1354q8.5 49 49.5 84t90 35q51 0 79.5 -34t20.5 -85q-8 -49 -48 -85t-91 -36q-49 0 -79 36t-21.5 85z" />
<glyph unicode="&#xe5;" horiz-adv-x="1110" d="M158 608q25 129 69.5 223.5t92 144.5t115 80.5t117.5 39t120 12.5q133 6 284.5 -25.5t223.5 -101.5l-144 -979h-221l-43 113q-41 -51 -137 -89t-193 -38q-174 0 -259.5 152.5t-24.5 467.5zM432 316q25 -85 115 -85q143 0 250 103l77 524q-119 43 -217 19q-57 -12 -91 -31 t-72 -90.5t-58 -200.5q-29 -154 -4 -239zM557 1440q8 88 73.5 147.5t151.5 59.5t142.5 -60.5t48.5 -146.5q-8 -88 -71.5 -147.5t-149.5 -59.5t-144.5 60.5t-50.5 146.5zM676 1440q-2 -37 21.5 -62.5t60.5 -25.5t63.5 25.5t30.5 62.5t-18.5 62.5t-59.5 25.5t-65.5 -25.5 t-32.5 -62.5z" />
<glyph unicode="&#xe6;" horiz-adv-x="1738" d="M113 612q27 133 69.5 226.5t86.5 143.5t110.5 79t112 36t118.5 11q88 6 204 -11.5t192 -52.5q109 61 297 64q203 2 328.5 -69.5t113.5 -243.5q-8 -139 -78 -230.5t-162 -124t-194.5 -40t-172 3t-100.5 22.5q-20 -123 13.5 -166t144.5 -45q178 -6 432 35l-35 -205 q-260 -78 -555 -59q-178 9 -245 141q-61 -70 -177 -105.5t-219 -35.5q-174 0 -259.5 158.5t-24.5 467.5zM383 314q23 -85 119 -85q72 -2 142.5 19.5t98.5 56.5q-10 131 25 309q27 158 70 240q-133 43 -228 23q-43 -8 -68.5 -20.5t-57 -44.5t-54.5 -96.5t-39 -162.5 q-31 -154 -8 -239zM1061 614q14 -2 38.5 -5t88 -2t114 11.5t95.5 46t55 91.5q12 72 -24.5 97.5t-129.5 23.5q-55 0 -96 -16.5t-63.5 -36t-40 -62.5t-22.5 -67t-15 -81z" />
<glyph unicode="&#xe7;" horiz-adv-x="1009" d="M162 578q29 170 73 278.5t106 159.5t121.5 67.5t145.5 16.5q297 0 490 -68l-27 -176q-195 12 -377 12q-49 0 -71.5 -3t-54 -19.5t-49 -51t-37 -97t-36.5 -158.5q-33 -197 0 -258.5t144 -61.5l397 19l-29 -181q-35 -16 -71.5 -28.5t-77.5 -19.5t-70.5 -12t-78 -6t-70.5 -1 h-77h-71q-166 0 -246.5 145.5t-33.5 442.5zM262 -367l21 123l94 31q43 16 58.5 44t25.5 91h192q-25 -160 -84 -224.5t-190 -64.5h-117z" />
<glyph unicode="&#xe8;" horiz-adv-x="1079" d="M162 614q27 137 58.5 220.5t92 150t157.5 95t245 28.5q94 0 168.5 -14.5t137 -48t94.5 -97t26 -153.5q-10 -139 -80 -230.5t-162 -124t-194.5 -40t-172 3t-100.5 22.5q-20 -123 13.5 -166t144.5 -45q188 -6 444 35l-35 -205q-262 -78 -567 -59q-383 18 -270 628z M428 1516h244l157 -285h-186zM455 614q14 -2 38.5 -5t88 -2t113.5 11.5t95.5 46t55.5 91.5q12 72 -24 97.5t-128 23.5q-55 0 -97 -17.5t-63.5 -35t-39 -62.5t-22.5 -67t-17 -81z" />
<glyph unicode="&#xe9;" horiz-adv-x="1079" d="M162 614q27 137 58.5 220.5t92 150t157.5 95t245 28.5q94 0 168.5 -14.5t137 -48t94.5 -97t26 -153.5q-10 -139 -80 -230.5t-162 -124t-194.5 -40t-172 3t-100.5 22.5q-20 -123 13.5 -166t144.5 -45q188 -6 444 35l-35 -205q-262 -78 -567 -59q-383 18 -270 628zM455 614 q14 -2 38.5 -5t88 -2t113.5 11.5t95.5 46t55.5 91.5q12 72 -24 97.5t-128 23.5q-55 0 -97 -17.5t-63.5 -35t-39 -62.5t-22.5 -67t-17 -81zM643 1231l231 285h250l-295 -285h-186z" />
<glyph unicode="&#xea;" horiz-adv-x="1079" d="M162 614q27 137 58.5 220.5t92 150t157.5 95t245 28.5q94 0 168.5 -14.5t137 -48t94.5 -97t26 -153.5q-10 -139 -80 -230.5t-162 -124t-194.5 -40t-172 3t-100.5 22.5q-20 -123 13.5 -166t144.5 -45q188 -6 444 35l-35 -205q-262 -78 -567 -59q-383 18 -270 628z M422 1231l264 276h213l154 -276h-185l-88 133l-147 -133h-211zM455 614q14 -2 38.5 -5t88 -2t113.5 11.5t95.5 46t55.5 91.5q12 72 -24 97.5t-128 23.5q-55 0 -97 -17.5t-63.5 -35t-39 -62.5t-22.5 -67t-17 -81z" />
<glyph unicode="&#xeb;" horiz-adv-x="1079" d="M162 614q27 137 58.5 220.5t92 150t157.5 95t245 28.5q94 0 168.5 -14.5t137 -48t94.5 -97t26 -153.5q-10 -139 -80 -230.5t-162 -124t-194.5 -40t-172 3t-100.5 22.5q-20 -123 13.5 -166t144.5 -45q188 -6 444 35l-35 -205q-262 -78 -567 -59q-383 18 -270 628z M375 1352q8 49 49 83.5t90 34.5q51 0 80 -33.5t20 -84.5q-8 -49 -48 -85t-89 -36q-51 0 -80.5 36t-21.5 85zM455 614q14 -2 38.5 -5t88 -2t113.5 11.5t95.5 46t55.5 91.5q12 72 -24 97.5t-128 23.5q-55 0 -97 -17.5t-63.5 -35t-39 -62.5t-22.5 -67t-17 -81zM897 1352 q8 49 49 83.5t90 34.5q51 0 80 -33.5t21 -84.5q-8 -49 -48 -85t-90 -36q-51 0 -80.5 36t-21.5 85z" />
<glyph unicode="&#xec;" horiz-adv-x="462" d="M78 0l172 1087h287l-172 -1087h-287zM104 1507h242l160 -282h-187z" />
<glyph unicode="&#xed;" horiz-adv-x="462" d="M78 0l172 1087h287l-172 -1087h-287zM317 1225l232 282h250l-295 -282h-187z" />
<glyph unicode="&#xee;" horiz-adv-x="462" d="M78 0l172 1087h287l-172 -1087h-287zM94 1225l264 276h213l154 -276h-184l-88 133l-148 -133h-211z" />
<glyph unicode="&#xef;" horiz-adv-x="462" d="M43 1346q10 49 50 83.5t91 34.5q49 0 79 -34.5t22 -83.5q-8 -51 -49 -86t-90.5 -35t-80 35t-22.5 86zM78 0l172 1087h287l-172 -1087h-287zM565 1346q10 49 50 83.5t92 34.5q49 0 78.5 -34.5t21.5 -83.5q-8 -51 -49 -86t-90.5 -35t-80 35t-22.5 86z" />
<glyph unicode="&#xf0;" horiz-adv-x="1103" d="M143 561q45 276 154 401t313 125h117q121 0 154 -18q-20 125 -86 197l-252 -109l-39 117l158 69q-86 33 -252 25l36 236q336 0 506 -123l201 88l43 -119l-149 -64q178 -246 79 -884q-45 -276 -157.5 -389t-306.5 -113h-224q-201 0 -269.5 151.5t-25.5 409.5zM428 313.5 q21 -49.5 98 -47.5h131q78 0 117 50.5t66 218.5q31 178 12.5 233t-109.5 55h-122q-80 0 -121 -57t-70 -231q-23 -172 -2 -221.5z" />
<glyph unicode="&#xf1;" horiz-adv-x="1126" d="M94 0l172 1087h230l39 -116q76 49 109.5 68.5t106 43t150.5 23.5q324 0 264 -381l-114 -725h-287l115 729q23 147 -97 148q-139 0 -278 -95l-123 -782h-287zM430 1341q152 143 268 144q51 -2 111.5 -37t93.5 -35q47 -2 110.5 24.5t94.5 53.5l31 -123q-49 -43 -78 -66.5 t-81 -48t-97 -24.5q-53 2 -118 36.5t-99 34.5q-41 0 -79 -11t-58.5 -22.5t-67.5 -37.5z" />
<glyph unicode="&#xf2;" horiz-adv-x="1140" d="M158 557q27 168 68.5 272.5t113.5 166t165 84t236 22.5q270 0 364.5 -145.5t45.5 -456.5q-49 -301 -169 -405.5t-402 -104.5q-274 0 -371.5 135t-50.5 432zM429 390q-1 -54 8 -89t34 -52.5t54.5 -22.5t80.5 -5q88 0 129 16.5t74 82t55 208.5q35 215 5.5 278.5 t-160.5 63.5t-179.5 -61.5t-85.5 -280.5q-14 -84 -15 -138zM440 1507h244l158 -282h-187z" />
<glyph unicode="&#xf3;" horiz-adv-x="1140" d="M158 557q27 168 68.5 272.5t113.5 166t165 84t236 22.5q270 0 364.5 -145.5t45.5 -456.5q-49 -301 -169 -405.5t-402 -104.5q-274 0 -371.5 135t-50.5 432zM429 390q-1 -54 8 -89t34 -52.5t54.5 -22.5t80.5 -5q88 0 129 16.5t74 82t55 208.5q35 215 5.5 278.5 t-160.5 63.5t-179.5 -61.5t-85.5 -280.5q-14 -84 -15 -138zM664 1225l229 282h252l-295 -282h-186z" />
<glyph unicode="&#xf4;" horiz-adv-x="1140" d="M158 557q27 168 68.5 272.5t113.5 166t165 84t236 22.5q270 0 364.5 -145.5t45.5 -456.5q-49 -301 -169 -405.5t-402 -104.5q-274 0 -371.5 135t-50.5 432zM429 390q-1 -54 8 -89t34 -52.5t54.5 -22.5t80.5 -5q88 0 129 16.5t74 82t55 208.5q35 215 5.5 278.5 t-160.5 63.5t-179.5 -61.5t-85.5 -280.5q-14 -84 -15 -138zM430 1225l264 276h213l154 -276h-184l-89 133l-147 -133h-211z" />
<glyph unicode="&#xf5;" horiz-adv-x="1140" d="M158 557q27 168 68.5 272.5t113.5 166t165 84t236 22.5q270 0 364.5 -145.5t45.5 -456.5q-49 -301 -169 -405.5t-402 -104.5q-274 0 -371.5 135t-50.5 432zM416 1337q150 141 270 142q51 -2 111.5 -36t93.5 -34q45 -2 109.5 23.5t95.5 52.5l28 -121q-154 -139 -256 -139 q-51 2 -115.5 36.5t-101.5 34.5q-82 -2 -202 -71zM429 390q-1 -54 8 -89t34 -52.5t54.5 -22.5t80.5 -5q88 0 129 16.5t74 82t55 208.5q35 215 5.5 278.5t-160.5 63.5t-179.5 -61.5t-85.5 -280.5q-14 -84 -15 -138z" />
<glyph unicode="&#xf6;" horiz-adv-x="1140" d="M158 557q27 168 68.5 272.5t113.5 166t165 84t236 22.5q270 0 364.5 -145.5t45.5 -456.5q-49 -301 -169 -405.5t-402 -104.5q-274 0 -371.5 135t-50.5 432zM391 1346q8 49 49 83.5t92 34.5q49 0 79 -34.5t22 -83.5q-8 -51 -49 -86t-90 -35q-51 0 -81 35t-22 86zM429 390 q-1 -54 8 -89t34 -52.5t54.5 -22.5t80.5 -5q88 0 129 16.5t74 82t55 208.5q35 215 5.5 278.5t-160.5 63.5t-179.5 -61.5t-85.5 -280.5q-14 -84 -15 -138zM913 1346q8 49 49.5 83.5t92.5 34.5q49 0 78.5 -34.5t21.5 -83.5q-8 -51 -49 -86t-90 -35q-51 0 -81 35t-22 86z" />
<glyph unicode="&#xf7;" horiz-adv-x="1017" d="M172 602l39 242h864l-39 -242h-864zM430 317l23 138q6 49 57 49h152q47 0 40 -49l-22 -138q-8 -47 -57 -47h-150q-49 0 -43 47zM537 979l20 137q6 51 57 51h152q47 0 41 -51l-23 -137q-6 -47 -57 -47h-149q-47 0 -41 47z" />
<glyph unicode="&#xf8;" horiz-adv-x="1144" d="M55 0l135 141q-74 131 -28 414q51 326 175 434.5t408 108.5q195 0 297 -64l52 53h157l-131 -137q86 -135 33 -448q-47 -301 -168 -406.5t-403 -105.5q-209 0 -316 69l-57 -59h-154zM446 401l400 430q-31 37 -135 37q-129 0 -177.5 -59t-84.5 -281q-15 -86 -3 -127z M465 262q29 -41 143 -41q68 0 102.5 7.5t67.5 39t51.5 92t36.5 168.5q20 113 4 168z" />
<glyph unicode="&#xf9;" horiz-adv-x="1124" d="M135 365l115 722h287l-115 -729q-14 -82 11.5 -113.5t84.5 -31.5q143 0 279 94l123 780h286l-174 -1087h-229l-37 115q-98 -68 -176 -100.5t-191 -32.5q-325 0 -264 383zM440 1507h244l158 -282h-187z" />
<glyph unicode="&#xfa;" horiz-adv-x="1124" d="M135 365l115 722h287l-115 -729q-14 -82 11.5 -113.5t84.5 -31.5q143 0 279 94l123 780h286l-174 -1087h-229l-37 115q-98 -68 -176 -100.5t-191 -32.5q-325 0 -264 383zM655 1225l232 282h250l-295 -282h-187z" />
<glyph unicode="&#xfb;" horiz-adv-x="1124" d="M135 365l115 722h287l-115 -729q-14 -82 11.5 -113.5t84.5 -31.5q143 0 279 94l123 780h286l-174 -1087h-229l-37 115q-98 -68 -176 -100.5t-191 -32.5q-325 0 -264 383zM434 1225l264 276h213l154 -276h-184l-88 133l-148 -133h-211z" />
<glyph unicode="&#xfc;" horiz-adv-x="1124" d="M135 365l115 722h287l-115 -729q-14 -82 11.5 -113.5t84.5 -31.5q143 0 279 94l123 780h286l-174 -1087h-229l-37 115q-98 -68 -176 -100.5t-191 -32.5q-325 0 -264 383zM387 1346q8 49 49 83.5t90 34.5q51 0 81 -34.5t22 -83.5q-8 -51 -49 -86t-91 -35q-51 0 -80.5 35 t-21.5 86zM909 1346q8 49 49 83.5t91 34.5q51 0 80.5 -34.5t21.5 -83.5q-8 -51 -49 -86t-90 -35q-51 0 -81 35t-22 86z" />
<glyph unicode="&#xfd;" horiz-adv-x="1153" d="M172 1087h297l68 -761q2 -16 8 -29.5t14 -22t17.5 -13.5t20.5 -8t17.5 -4t16.5 -2l10 -1l277 616q39 94 51 228h266q31 -147 -49 -322l-350 -768q-61 -135 -134 -239.5t-137.5 -164t-138.5 -101.5t-126 -58.5t-112 -26.5v201q125 68 206 163t147 226q-119 0 -194 68.5 t-89 207.5zM643 1217l231 282h250l-295 -282h-186z" />
<glyph unicode="&#xfe;" horiz-adv-x="1134" d="M20 -553l345 2155h286l-102 -633q66 49 163 87t185 38q174 0 240.5 -163t25.5 -419q-20 -123 -43.5 -206t-72 -166t-130 -125t-198.5 -42q-182 0 -316 76l-96 -602h-287zM434 238q84 -35 240 -39q72 0 122 68.5t78 262.5q49 330 -94 320q-135 -2 -262 -72z" />
<glyph unicode="&#xff;" horiz-adv-x="1153" d="M172 1087h297l68 -761q2 -16 8 -29.5t14 -22t17.5 -13.5t20.5 -8t17.5 -4t16.5 -2l10 -1l277 616q39 94 51 228h266q31 -147 -49 -322l-350 -768q-61 -135 -134 -239.5t-137.5 -164t-138.5 -101.5t-126 -58.5t-112 -26.5v201q125 68 206 163t147 226q-119 0 -194 68.5 t-89 207.5zM377 1315q10 49 50 84t91 35q49 0 79 -35t21.5 -84t-49.5 -85t-90 -36t-79.5 36t-22.5 85zM901 1315q8 49 48 84t91 35q49 0 79 -35t22 -84t-48 -85t-92 -36q-49 0 -78.5 36t-21.5 85z" />
<glyph unicode="&#x100;" horiz-adv-x="1409" d="M70 0l743 1499h326l250 -1499h-293l-60 332h-485l-164 -332h-317zM666 586h342l-84 544zM698 1632l27 162h598l-27 -162h-598z" />
<glyph unicode="&#x101;" horiz-adv-x="1110" d="M158 608q25 129 69.5 223.5t92 144.5t115 80.5t117.5 39t120 12.5q133 6 284.5 -25.5t223.5 -101.5l-144 -979h-221l-43 113q-41 -51 -137 -89t-193 -38q-174 0 -259.5 152.5t-24.5 467.5zM424 1233l27 162h598l-27 -162h-598zM432 316q25 -85 115 -85q143 0 250 103 l77 524q-119 43 -217 19q-57 -12 -91 -31t-72 -90.5t-58 -200.5q-29 -154 -4 -239z" />
<glyph unicode="&#x102;" horiz-adv-x="1409" d="M70 0l743 1499h326l250 -1499h-293l-60 332h-485l-164 -332h-317zM666 586h342l-84 544zM801 1864h117q-6 -55 21.5 -86t76.5 -31q119 0 135 117h117q-12 -113 -78 -172.5t-174 -59.5q-98 0 -160.5 63t-54.5 169z" />
<glyph unicode="&#x103;" horiz-adv-x="1110" d="M158 608q25 129 69.5 223.5t92 144.5t115 80.5t117.5 39t120 12.5q133 6 284.5 -25.5t223.5 -101.5l-144 -979h-221l-43 113q-41 -51 -137 -89t-193 -38q-174 0 -259.5 152.5t-24.5 467.5zM432 316q25 -85 115 -85q143 0 250 103l77 524q-119 43 -217 19q-57 -12 -91 -31 t-72 -90.5t-58 -200.5q-29 -154 -4 -239zM471 1466h119q-8 -55 19.5 -85.5t78.5 -30.5q121 0 133 116h119q-12 -113 -78.5 -172t-175.5 -59q-98 0 -160.5 62.5t-54.5 168.5z" />
<glyph unicode="&#x104;" horiz-adv-x="1499" d="M164 0l743 1499h326l250 -1499h-84q-134 -92 -118 -170q12 -56 88 -54q6 0 13 1l-24 -158q-66 -16 -124 4.5t-88 64.5t-35 98t40 113.5t133 100.5h-94l-60 332h-485l-164 -332h-317zM760 586h342l-84 544z" />
<glyph unicode="&#x105;" horiz-adv-x="1050" d="M137 608q25 129 70 223.5t92 144.5t114.5 80.5t118 39t119.5 12.5q133 6 284.5 -25.5t223.5 -101.5l-143 -979h-221l-43 113q-41 -51 -137.5 -89t-192.5 -38q-174 0 -260 152.5t-25 467.5zM412.5 316q23.5 -85 113.5 -85q143 0 250 103l78 524q-119 43 -217 19 q-57 -12 -91 -31t-72 -90.5t-56 -200.5q-29 -154 -5.5 -239zM677 -172q26 104 171 174h115q-136 -91 -122 -170q10 -56 87 -56q8 0 16 1l-26 -158q-111 -27 -189 39t-52 170z" />
<glyph unicode="&#x106;" horiz-adv-x="1169" d="M183.5 481q-9.5 145 21.5 307q61 379 198.5 553.5t430.5 174.5q281 0 512 -74l-35 -223q-2 0 -35 4t-76 9t-97 9t-118.5 7t-122.5 3h-49q-14 0 -47 -4t-48.5 -12t-43 -24.5t-44 -41t-39 -62.5t-37.5 -88t-32.5 -117.5t-29.5 -151.5q-45 -250 0 -371t206 -127 q197 -2 465 18l-35 -225q-190 -63 -532 -57q-139 2 -231.5 66.5t-132 173t-49 253.5zM834 1638l229 283h252l-295 -283h-186z" />
<glyph unicode="&#x107;" horiz-adv-x="1007" d="M162 578q29 170 73 279.5t105 161.5t121.5 69.5t146.5 17.5q96 0 241.5 -17.5t248.5 -50.5l-27 -178q-195 14 -377 14q-59 0 -87.5 -7t-61.5 -38.5t-55.5 -100.5t-43.5 -189q-33 -197 0 -258.5t144 -61.5l397 19l-29 -181q-205 -74 -516 -67q-168 2 -247.5 146.5 t-32.5 441.5zM633 1227l229 282h252l-295 -282h-186z" />
<glyph unicode="&#x108;" horiz-adv-x="1169" d="M183.5 481q-9.5 145 21.5 307q61 379 198.5 553.5t430.5 174.5q281 0 512 -74l-35 -223q-2 0 -35 4t-76 9t-97 9t-118.5 7t-122.5 3h-49q-14 0 -47 -4t-48.5 -12t-43 -24.5t-44 -41t-39 -62.5t-37.5 -88t-32.5 -117.5t-29.5 -151.5q-45 -250 0 -371t206 -127 q197 -2 465 18l-35 -225q-190 -63 -532 -57q-139 2 -231.5 66.5t-132 173t-49 253.5zM590 1638l266 279h213l154 -279h-187l-86 134l-149 -134h-211z" />
<glyph unicode="&#x109;" horiz-adv-x="1007" d="M162 578q27 170 70.5 279.5t106 161.5t122 69.5t145.5 17.5q96 0 242.5 -17.5t249.5 -50.5l-29 -178q-195 14 -377 14q-59 0 -88 -7t-61.5 -38.5t-54 -100.5t-42.5 -189q-33 -197 -1 -258.5t145 -61.5q84 0 182 5t156 9l57 5l-29 -181q-205 -74 -516 -67 q-168 2 -247.5 146.5t-30.5 441.5zM408 1225l264 278h213l155 -278h-186l-86 133l-150 -133h-210z" />
<glyph unicode="&#x10a;" horiz-adv-x="1169" d="M183.5 481q-9.5 145 21.5 307q61 379 198.5 553.5t430.5 174.5q281 0 512 -74l-35 -223q-2 0 -35 4t-76 9t-97 9t-118.5 7t-122.5 3h-49q-14 0 -47 -4t-48.5 -12t-43 -24.5t-44 -41t-39 -62.5t-37.5 -88t-32.5 -117.5t-29.5 -151.5q-45 -250 0 -371t206 -127 q197 -2 465 18l-35 -225q-190 -63 -532 -57q-139 2 -231.5 66.5t-132 173t-49 253.5zM784 1686l25 155q6 51 57 51h148q47 0 39 -51l-25 -155q-6 -47 -53 -48h-148q-49 1 -43 48z" />
<glyph unicode="&#x10b;" horiz-adv-x="1007" d="M162 578q27 170 70.5 279.5t106 161.5t122 69.5t145.5 17.5q96 0 242.5 -17.5t249.5 -50.5l-29 -178q-195 14 -377 14q-59 0 -88 -7t-61.5 -38.5t-54 -100.5t-42.5 -189q-33 -197 -1 -258.5t145 -61.5q84 0 182 5t156 9l57 5l-29 -181q-205 -74 -516 -67 q-168 2 -247.5 146.5t-30.5 441.5zM610 1274l25 156q6 51 57 51h148q47 0 39 -51l-25 -156q-6 -47 -53 -47h-148q-49 0 -43 47z" />
<glyph unicode="&#x10c;" horiz-adv-x="1169" d="M183.5 481q-9.5 145 21.5 307q61 379 198.5 553.5t430.5 174.5q281 0 512 -74l-35 -223q-2 0 -35 4t-76 9t-97 9t-118.5 7t-122.5 3h-49q-14 0 -47 -4t-48.5 -12t-43 -24.5t-44 -41t-39 -62.5t-37.5 -88t-32.5 -117.5t-29.5 -151.5q-45 -250 0 -371t206 -127 q197 -2 465 18l-35 -225q-190 -63 -532 -57q-139 2 -231.5 66.5t-132 173t-49 253.5zM670 1917h184l92 -135l144 135h210l-264 -279h-207z" />
<glyph unicode="&#x10d;" horiz-adv-x="1007" d="M162 578q27 170 70.5 279.5t106 161.5t122 69.5t145.5 17.5q96 0 242.5 -17.5t249.5 -50.5l-29 -178q-195 14 -377 14q-59 0 -88 -7t-61.5 -38.5t-54 -100.5t-42.5 -189q-33 -197 -1 -258.5t145 -61.5q84 0 182 5t156 9l57 5l-29 -181q-205 -74 -516 -67 q-168 2 -247.5 146.5t-30.5 441.5zM471 1503h186l93 -133l143 133h211l-264 -276h-209z" />
<glyph unicode="&#x10e;" horiz-adv-x="1341" d="M139 0l238 1499h608q125 0 213 -48t133 -124t65.5 -182.5t17.5 -212t-21 -223.5q-59 -381 -206 -545t-421 -164h-627zM467 256h299q266 0 340 489q35 190 18.5 302t-66.5 155t-145 43h-290zM641 1905h184l93 -133l143 133h213l-266 -277h-207z" />
<glyph unicode="&#x10f;" horiz-adv-x="1474" d="M160 563q45 287 138 414t306 127q180 0 320 -72l92 576h284l-256 -1608h-235l-35 111q-168 -123 -336 -123q-188 0 -254.5 153.5t-23.5 421.5zM445.5 303q23.5 -70 97.5 -70q150 0 264 66l84 539q-100 41 -248 41q-72 0 -117.5 -67.5t-76.5 -262.5q-27 -176 -3.5 -246z M1384 1188l21 274l20 137h199l-22 -137l-64 -274h-154z" />
<glyph unicode="&#x110;" horiz-adv-x="1335" d="M135 696l23 135h133l104 668h617q123 0 211 -50t133 -128t64.5 -185.5t15.5 -211t-23 -215.5q-63 -369 -205.5 -539t-410.5 -170h-639l110 696h-133zM485 256h306q256 0 333 489q45 281 1 390.5t-177 109.5h-307l-63 -414h227l-21 -135h-229z" />
<glyph unicode="&#x111;" horiz-adv-x="1132" d="M160 565q45 285 138 412t306 127q180 0 320 -72l30 207h-217l23 133h217l39 236h284l-36 -236h133l-23 -133h-133l-197 -1239h-235l-35 111q-168 -123 -336 -123q-188 0 -254.5 154.5t-23.5 422.5zM445.5 303q23.5 -70 97.5 -70q150 0 264 66l84 539q-100 41 -248 41 q-72 0 -117.5 -67.5t-76.5 -262.5q-27 -176 -3.5 -246z" />
<glyph unicode="&#x112;" horiz-adv-x="1146" d="M162 307l141 893q49 307 375 299q504 -14 633 -33l-37 -237h-572q-37 0 -61.5 -9.5t-35.5 -29t-16 -34.5t-9 -42l-37 -229l579 -21l-39 -235l-583 -21l-39 -237q-6 -39 0 -62.5t27.5 -32t37 -10.5t45.5 -2h551l-39 -235q-119 -16 -624 -35q-59 -2 -113.5 11t-103.5 46 t-71.5 98.5t-8.5 157.5zM565 1622l27 164h598l-27 -164h-598z" />
<glyph unicode="&#x113;" horiz-adv-x="1079" d="M162 614q27 137 58.5 220.5t92 150t157.5 95t245 28.5q94 0 168.5 -14.5t137 -48t94.5 -97t26 -153.5q-10 -139 -80 -230.5t-162 -124t-194.5 -40t-172 3t-100.5 22.5q-20 -123 13.5 -166t144.5 -45q188 -6 444 35l-35 -205q-262 -78 -567 -59q-383 18 -270 628z M432 1221l27 161h598l-27 -161h-598zM455 614q14 -2 38.5 -5t88 -2t113.5 11.5t95.5 46t55.5 91.5q12 72 -24 97.5t-128 23.5q-55 0 -97 -17.5t-63.5 -35t-39 -62.5t-22.5 -67t-17 -81z" />
<glyph unicode="&#x116;" horiz-adv-x="1146" d="M162 307l141 893q49 307 375 299q504 -14 633 -33l-37 -237h-572q-37 0 -61.5 -9.5t-35.5 -29t-16 -34.5t-9 -42l-37 -229l579 -21l-39 -235l-583 -21l-39 -237q-6 -39 0 -62.5t27.5 -32t37 -10.5t45.5 -2h551l-39 -235q-119 -16 -624 -35q-59 -2 -113.5 11t-103.5 46 t-71.5 98.5t-8.5 157.5zM774 1679l25 156q6 51 57 51h148q47 0 38 -51l-24 -156q-6 -47 -53 -47h-148q-49 0 -43 47z" />
<glyph unicode="&#x117;" horiz-adv-x="1079" d="M162 614q27 137 58.5 220.5t92 150t157.5 95t245 28.5q94 0 168.5 -14.5t137 -48t94.5 -97t26 -153.5q-10 -139 -80 -230.5t-162 -124t-194.5 -40t-172 3t-100.5 22.5q-20 -123 13.5 -166t144.5 -45q188 -6 444 35l-35 -205q-262 -78 -567 -59q-383 18 -270 628zM455 614 q14 -2 38.5 -5t88 -2t113.5 11.5t95.5 46t55.5 91.5q12 72 -24 97.5t-128 23.5q-55 0 -97 -17.5t-63.5 -35t-39 -62.5t-22.5 -67t-17 -81zM623 1278l24 156q6 51 58 51h147q47 0 39 -51l-25 -156q-6 -47 -53 -47h-147q-49 0 -43 47z" />
<glyph unicode="&#x118;" horiz-adv-x="1142" d="M168 307l139 893q49 307 377 299q502 -14 631 -33l-37 -237h-571q-37 0 -61.5 -9.5t-36 -29t-16.5 -34.5t-9 -42l-37 -229l579 -21l-39 -235l-583 -21l-39 -237q-8 -51 10.5 -76t39 -28t63.5 -3h548l-39 -235q-135 -91 -121 -170q10 -56 87 -56h16l-25 -155 q-63 -16 -121.5 3t-88 61t-36.5 94.5t32.5 109.5t119.5 100l-485 -22q-59 -2 -113.5 11t-103.5 46t-71.5 98.5t-8.5 157.5z" />
<glyph unicode="&#x119;" horiz-adv-x="1079" d="M164 614q27 137 57.5 220.5t91 150t157.5 95t247 28.5q94 0 169 -14.5t137 -48t94 -97t26 -153.5q-10 -139 -80 -230.5t-162 -124t-195.5 -40t-173 3t-100.5 22.5q-20 -123 14.5 -166t145.5 -45q188 -6 444 35l-35 -205q-135 -91 -121 -169q10 -56 87 -57q8 0 16 1 l-25 -156q-59 -14 -113 1.5t-86 53t-44.5 83.5t13.5 101.5t85 98.5q-172 -29 -379 -16q-383 18 -270 628zM457 614q14 -2 38.5 -5t88 -2t114 11.5t95.5 46t55 91.5q12 72 -25 97.5t-129 23.5q-55 0 -96 -17.5t-62.5 -35t-39 -62.5t-22.5 -67t-17 -81z" />
<glyph unicode="&#x11a;" horiz-adv-x="1146" d="M162 307l141 893q49 307 375 299q504 -14 633 -33l-37 -237h-572q-37 0 -61.5 -9.5t-35.5 -29t-16 -34.5t-9 -42l-37 -229l579 -21l-39 -235l-583 -21l-39 -237q-6 -39 0 -62.5t27.5 -32t37 -10.5t45.5 -2h551l-39 -235q-119 -16 -624 -35q-59 -2 -113.5 11t-103.5 46 t-71.5 98.5t-8.5 157.5zM618 1909h185l92 -133l143 133h211l-264 -277h-207z" />
<glyph unicode="&#x11b;" horiz-adv-x="1079" d="M162 614q27 137 58.5 220.5t92 150t157.5 95t245 28.5q94 0 168.5 -14.5t137 -48t94.5 -97t26 -153.5q-10 -139 -80 -230.5t-162 -124t-194.5 -40t-172 3t-100.5 22.5q-20 -123 13.5 -166t144.5 -45q188 -6 444 35l-35 -205q-262 -78 -567 -59q-383 18 -270 628zM455 614 q14 -2 38.5 -5t88 -2t113.5 11.5t95.5 46t55.5 91.5q12 72 -24 97.5t-128 23.5q-55 0 -97 -17.5t-63.5 -35t-39 -62.5t-22.5 -67t-17 -81zM475 1507h184l93 -133l143 133h211l-264 -276h-207z" />
<glyph unicode="&#x11c;" horiz-adv-x="1255" d="M185 505q-1 138 28 296q29 152 59.5 258t78.5 198.5t112.5 145.5t156 83t211.5 30q162 0 275 -15.5t274 -56.5l-34 -219q-276 37 -486 37q-68 0 -114 -15.5t-96 -64.5t-86 -155.5t-62 -274.5q-45 -252 -7.5 -374t187.5 -122q63 0 131 25.5t102 51.5l35 25l45 263h-211 l29 182q125 49 367 49q90 0 139 -4l-135 -848h-207l-64 109q-109 -113 -325 -121q-145 -6 -239.5 63.5t-128.5 192.5t-35 261zM582 1638l264 277h213l153 -277h-184l-88 134l-147 -134h-211z" />
<glyph unicode="&#x11d;" horiz-adv-x="1138" d="M39 -508l31 191h460q80 0 135.5 49t69.5 145l31 199q-127 -78 -283 -78q-154 0 -236.5 77t-95 212t14.5 319q78 500 477 500q154 0 319.5 -19.5t247.5 -42.5l-190 -1200q-35 -215 -159 -319.5t-335 -81.5zM432 400.5q-4 -50.5 3 -75t19.5 -52t40 -39t66.5 -11.5 q121 0 236 45l98 619h-219q-170 -1 -223 -312q-10 -63 -13.5 -93.5t-7.5 -81zM446 1229l265 278h213l155 -278h-186l-86 135l-150 -135h-211z" />
<glyph unicode="&#x11e;" horiz-adv-x="1255" d="M185 505q-1 138 28 296q29 152 59.5 258t78.5 198.5t112.5 145.5t156 83t211.5 30q162 0 275 -15.5t274 -56.5l-34 -219q-276 37 -486 37q-68 0 -114 -15.5t-96 -64.5t-86 -155.5t-62 -274.5q-45 -252 -7.5 -374t187.5 -122q63 0 131 25.5t102 51.5l35 25l45 263h-211 l29 182q125 49 367 49q90 0 139 -4l-135 -848h-207l-64 109q-109 -113 -325 -121q-145 -6 -239.5 63.5t-128.5 192.5t-35 261zM698 1868h117q-6 -53 21.5 -84t76.5 -31q121 0 136 115h116q-12 -111 -77.5 -170.5t-174.5 -59.5q-98 0 -160.5 63t-54.5 167z" />
<glyph unicode="&#x11f;" horiz-adv-x="1138" d="M39 -508l31 191h460q80 0 135.5 49t69.5 145l31 199q-127 -78 -283 -78q-154 0 -236.5 77t-95 212t14.5 319q78 500 477 500q154 0 319.5 -19.5t247.5 -42.5l-190 -1200q-35 -215 -159 -319.5t-335 -81.5zM432 400.5q-4 -50.5 3 -75t19.5 -52t40 -39t66.5 -11.5 q121 0 236 45l98 619h-219q-170 -1 -223 -312q-10 -63 -13.5 -93.5t-7.5 -81zM567 1460h117q-6 -53 20.5 -83.5t77.5 -30.5q119 -2 136 114h116q-12 -113 -77.5 -172t-174.5 -59q-98 0 -160.5 62.5t-54.5 168.5z" />
<glyph unicode="&#x120;" horiz-adv-x="1255" d="M185 505q-1 138 28 296q29 152 59.5 258t78.5 198.5t112.5 145.5t156 83t211.5 30q162 0 275 -15.5t274 -56.5l-34 -219q-276 37 -486 37q-68 0 -114 -15.5t-96 -64.5t-86 -155.5t-62 -274.5q-45 -252 -7.5 -374t187.5 -122q63 0 131 25.5t102 51.5l35 25l45 263h-211 l29 182q125 49 367 49q90 0 139 -4l-135 -848h-207l-64 109q-109 -113 -325 -121q-145 -6 -239.5 63.5t-128.5 192.5t-35 261zM791 1686l24 155q6 51 57 51h148q47 0 39 -51l-25 -155q-6 -47 -53 -48h-147q-49 1 -43 48z" />
<glyph unicode="&#x121;" horiz-adv-x="1138" d="M39 -508l31 191h460q80 0 135.5 49t69.5 145l31 199q-127 -78 -283 -78q-154 0 -236.5 77t-95 212t14.5 319q78 500 477 500q154 0 319.5 -19.5t247.5 -42.5l-190 -1200q-35 -215 -159 -319.5t-335 -81.5zM432 400.5q-4 -50.5 3 -75t19.5 -52t40 -39t66.5 -11.5 q121 0 236 45l98 619h-219q-170 -1 -223 -312q-10 -63 -13.5 -93.5t-7.5 -81zM657 1276l25 156q6 51 57 51h148q47 0 39 -51l-25 -156q-6 -47 -53 -47h-148q-49 0 -43 47z" />
<glyph unicode="&#x122;" horiz-adv-x="1255" d="M185 505q-1 138 28 296q29 152 59.5 258t78.5 198.5t112.5 145.5t156 83t211.5 30q162 0 275 -15.5t274 -56.5l-34 -219q-276 37 -486 37q-68 0 -114 -15.5t-96 -64.5t-86 -155.5t-62 -274.5q-45 -252 -7.5 -374t187.5 -122q63 0 131 25.5t102 51.5l35 25l45 263h-211 l29 182q125 49 367 49q90 0 139 -4l-135 -848h-207l-64 109q-109 -113 -325 -121q-145 -6 -239.5 63.5t-128.5 192.5t-35 261zM506 -555l14 88q55 0 66 47l4 27h-21q-47 0 -39 45l25 162q9 49 55 49h154q45 0 37 -49l-37 -228q-8 -57 -39 -93t-66.5 -45t-70.5 -11t-59 3z " />
<glyph unicode="&#x123;" horiz-adv-x="1234" d="M66 -508l30 191h461q80 0 135.5 49t69.5 145l33 199q-129 -78 -283 -78q-227 0 -297 157.5t-22 450.5q78 500 477 500q154 0 319.5 -19.5t247.5 -42.5l-190 -1200q-35 -215 -159 -319.5t-335 -81.5zM459 400.5q-4 -50.5 3 -75t20.5 -52t41 -39t66.5 -11.5q119 0 233 45 l101 619h-222q-170 -1 -223 -312q-10 -63 -13 -93.5t-7 -81zM682 1280l35 225q8 57 38.5 94t67.5 46.5t72 11.5t58 -3l24 -5l-16 -90q-57 2 -64 -48l-4 -26h20q45 0 39 -45l-24 -160q-10 -49 -56 -49h-155q-41 0 -35 49z" />
<glyph unicode="&#x124;" horiz-adv-x="1304" d="M129 0l238 1499h286l-102 -643h514l102 643h287l-237 -1499h-287l94 594h-514l-94 -594h-287zM614 1632l267 277h213l153 -277h-184l-88 133l-148 -133h-213z" />
<glyph unicode="&#x125;" horiz-adv-x="1126" d="M45 0l254 1604h285l-101 -633q70 45 107 66.5t110.5 45t151.5 23.5q324 0 264 -381l-115 -725h-286l114 729q23 147 -96 148q-139 0 -278 -95l-123 -782h-287zM131 1726l264 277h213l154 -277h-184l-89 134l-147 -134h-211z" />
<glyph unicode="&#x126;" horiz-adv-x="1353" d="M131 0l168 1057h-131l20 135h129l52 307h286l-51 -307h514l51 307h287l-51 -307h127l-19 -135h-127l-167 -1057h-287l94 594h-514l-94 -594h-287zM553 858h514l33 199h-514z" />
<glyph unicode="&#x127;" horiz-adv-x="1148" d="M123 0l196 1237h-139l21 135h139l37 232h289l-37 -232h229l-20 -135h-230l-43 -266q18 10 65.5 37.5t71 39t62.5 29t78 23.5t82 6q324 0 264 -381l-115 -725h-287l115 729q23 147 -96 148q-133 -2 -268 -95l-125 -782h-289z" />
<glyph unicode="&#x128;" horiz-adv-x="524" d="M133 0l238 1499h286l-237 -1499h-287zM201 1745q156 143 270 143q51 -2 111.5 -36.5t93.5 -34.5q47 -2 110.5 24.5t94.5 52.5l30 -122q-53 -47 -79.5 -68t-79 -46.5t-97.5 -25.5q-53 2 -117.5 37t-101.5 35q-16 0 -30.5 -2t-25.5 -3t-26.5 -7t-22.5 -8.5t-24.5 -11.5 t-22.5 -12t-25.5 -14.5t-25.5 -13.5z" />
<glyph unicode="&#x129;" horiz-adv-x="462" d="M57 1337q150 141 271 142q51 -2 111.5 -36t92.5 -34q45 -2 110 23.5t95 52.5l29 -121q-154 -139 -254 -139q-53 2 -117.5 36.5t-101.5 34.5q-82 -2 -203 -71zM78 0l172 1087h287l-172 -1087h-287z" />
<glyph unicode="&#x12a;" horiz-adv-x="524" d="M90 0l238 1499h286l-237 -1499h-287zM182 1628l25 162h598l-25 -162h-598z" />
<glyph unicode="&#x12b;" horiz-adv-x="462" d="M78 0l172 1087h287l-172 -1087h-287zM109 1225l26 161h598l-26 -161h-598z" />
<glyph unicode="&#x12e;" horiz-adv-x="524" d="M56 -214q-5 54 40 113.5t133 100.5h-96l238 1499h286l-237 -1499h-78q-134 -92 -118 -169q12 -57 92 -55q5 0 10 1l-25 -158q-66 -16 -124 4.5t-87 64.5t-34 98z" />
<glyph unicode="&#x12f;" horiz-adv-x="462" d="M-16.5 -211q-6.5 53 34.5 110.5t123 100.5h-53l172 1087h287l-172 -1087h-113q-128 -90 -107 -166q15 -56 95 -52q3 0 6 1l-25 -156q-63 -14 -121.5 4.5t-89 61.5t-37 96zM274 1247l27 183q6 51 57 51h215q47 0 39 -51l-28 -183q-6 -47 -54 -47h-215q-47 0 -41 47z" />
<glyph unicode="&#x130;" horiz-adv-x="524" d="M133 0l238 1499h286l-237 -1499h-287zM420 1679l26 156q6 51 58 51h147q47 0 39 -51l-26 -156q-6 -47 -54 -47h-147q-49 0 -43 47z" />
<glyph unicode="&#x131;" horiz-adv-x="462" d="M78 0l172 1087h287l-172 -1087h-287z" />
<glyph unicode="&#x134;" horiz-adv-x="729" d="M61 47l39 223q92 -8 158 -5t108 50t58 148l164 1036h286l-184 -1161q-35 -231 -155 -301q-90 -51 -245 -47t-229 57zM436 1632l264 277h213l156 -277h-186l-86 133l-150 -133h-211z" />
<glyph unicode="&#x135;" horiz-adv-x="489" d="M25 -553l260 1640h290l-174 -1095q-53 -356 -161 -545h-215zM117 1219l262 282h213l156 -282h-189l-94 131l-146 -131h-202z" />
<glyph unicode="&#x136;" horiz-adv-x="1269" d="M125 0l237 1499h275l-98 -627h112l473 627h349l-572 -772l334 -727h-328l-268 618h-139l-99 -618h-276zM459 -545l14 88q55 0 66 47l4 27h-21q-47 0 -39 47l25 160q9 49 55 49h154q45 0 37 -49l-37 -227q-8 -57 -39 -93t-67 -46.5t-70.5 -11.5t-58.5 4z" />
<glyph unicode="&#x137;" horiz-adv-x="1085" d="M94 -4l254 1601h287l-146 -909q129 45 249 157.5t157 237.5h305q-51 -182 -165.5 -309t-233.5 -188l334 -590h-320l-276 500l-78 -2l-80 -498h-287zM410 -545l14 88q37 0 48 12.5t15 34.5l5 27h-21q-45 0 -39 47l27 160q6 49 53 49h156q43 0 34 -49l-34 -227 q-8 -57 -39 -93t-67 -46.5t-70.5 -11.5t-58.5 4z" />
<glyph unicode="&#x138;" horiz-adv-x="1163" d="M94 0l172 1087h287l-70 -440h113l371 440h338l-455 -567l266 -520h-319l-215 430h-131l-70 -430h-287z" />
<glyph unicode="&#x139;" horiz-adv-x="1083" d="M66 291l192 1208h287l-180 -1128q-6 -39 1 -62.5t28.5 -32t36.5 -10.5t46 -2h514l-43 -264h-616q-135 0 -213 70.5t-53 220.5zM319 1622l232 283h250l-295 -283h-187z" />
<glyph unicode="&#x13a;" horiz-adv-x="628" d="M125 387l192 1217h287l-184 -1172q-14 -129 -1 -161.5t64 -51.5q111 -41 119 -41l-29 -178h-184q-323 0 -264 387zM387 1726l231 285h252l-297 -285h-186z" />
<glyph unicode="&#x13b;" horiz-adv-x="1083" d="M168 291l194 1208h285l-178 -1128q-6 -39 0 -62.5t27.5 -32t37 -10.5t46.5 -2h514l-41 -264h-619q-135 0 -212 70.5t-54 220.5zM420 -545l14 88q55 0 66 47l4 27h-21q-47 0 -39 47l25 160q10 49 53 49h156q41 0 37 -49l-37 -227q-8 -57 -39 -93t-66.5 -46.5t-70.5 -11.5 t-59 4z" />
<glyph unicode="&#x13c;" horiz-adv-x="628" d="M152 387l192 1217h287l-187 -1172q-14 -129 -0.5 -161.5t64.5 -51.5q111 -41 119 -41l-27 -178h-184q-327 0 -264 387zM154 -545l14 88q37 0 48 12.5t15 34.5l5 27h-21q-45 0 -37 47l25 160q6 49 53 49h156q43 0 34 -49l-34 -227q-8 -57 -39 -93t-67 -46.5t-70.5 -11.5 t-58.5 4z" />
<glyph unicode="&#x13d;" horiz-adv-x="1083" d="M168 291l194 1208h285l-178 -1128q-6 -39 0 -62.5t27.5 -32t37 -10.5t46.5 -2h514l-41 -264h-619q-135 0 -212 70.5t-54 220.5zM741 1169l21 275l20 137h197l-21 -137l-63 -275h-154z" />
<glyph unicode="&#x13e;" horiz-adv-x="747" d="M152 387l192 1217h287l-187 -1172q-14 -129 -0.5 -161.5t64.5 -51.5q113 -41 121 -41l-29 -178h-194q-313 0 -254 387zM721 1190l20 274l23 138h197l-23 -138l-64 -274h-153z" />
<glyph unicode="&#x141;" horiz-adv-x="1085" d="M61 625l23 147l172 68l104 659h285l-84 -536l246 98l-25 -146l-243 -98l-72 -446q-6 -39 0 -62.5t27.5 -32t37 -10.5t46.5 -2h516l-43 -264h-617q-135 0 -212 70.5t-54 220.5l65 403z" />
<glyph unicode="&#x142;" horiz-adv-x="704" d="M113 717l24 147l160 66l109 674h288l-86 -551l252 102l-24 -147l-252 -103l-78 -473q-14 -131 -2 -161.5t63 -51.5q113 -41 121 -41l-26 -178h-185q-326 0 -266 387l63 395z" />
<glyph unicode="&#x143;" horiz-adv-x="1370" d="M125 0l237 1499h287l426 -975l154 975h287l-238 -1499h-283l-430 963l-151 -963h-289zM866 1632l232 285h250l-295 -285h-187z" />
<glyph unicode="&#x144;" horiz-adv-x="1126" d="M94 0l172 1087h230l39 -116q76 49 109.5 68.5t106 43t150.5 23.5q324 0 264 -381l-114 -725h-287l115 729q23 147 -97 148q-139 0 -278 -95l-123 -782h-287zM674 1229l231 282h250l-295 -282h-186z" />
<glyph unicode="&#x145;" horiz-adv-x="1370" d="M125 0l237 1499h287l426 -975l154 975h287l-238 -1499h-283l-430 963l-151 -963h-289zM530 -545l15 88q37 0 48 12.5t15 34.5l4 27h-20q-45 0 -39 47l27 160q6 49 53 49h155q43 0 35 -49l-35 -227q-8 -57 -38.5 -93t-66.5 -46.5t-70.5 -11.5t-58.5 4z" />
<glyph unicode="&#x146;" horiz-adv-x="1126" d="M94 0l172 1087h230l39 -116q76 49 109.5 68.5t106 43t150.5 23.5q324 0 264 -381l-114 -725h-287l115 729q23 147 -97 148q-139 0 -278 -95l-123 -782h-287zM385 -545l14 88q37 0 48.5 12.5t15.5 34.5l4 27h-21q-45 0 -36 47l24 160q6 49 53 49h156q43 0 35 -49l-35 -227 q-8 -57 -39 -93t-66.5 -46.5t-70.5 -11.5t-58 4z" />
<glyph unicode="&#x147;" horiz-adv-x="1370" d="M125 0l237 1499h287l426 -975l154 975h287l-238 -1499h-283l-430 963l-151 -963h-289zM688 1909h184l93 -133l143 133h211l-264 -277h-207z" />
<glyph unicode="&#x148;" horiz-adv-x="1126" d="M94 0l172 1087h230l39 -116q76 49 109.5 68.5t106 43t150.5 23.5q324 0 264 -381l-114 -725h-287l115 729q23 147 -97 148q-139 0 -278 -95l-123 -782h-287zM500 1507h184l92 -135l144 135h210l-264 -278h-207z" />
<glyph unicode="&#x14a;" horiz-adv-x="1370" d="M125 0l237 1499h287l426 -969l154 969h287l-238 -1495l-25 -154q-20 -127 -77.5 -210.5t-144.5 -118.5t-169 -44t-186 -3l33 207q8 2 41.5 6t44 6t38 8t40 13t32 21.5t29.5 32t20.5 43t14.5 58.5l22 137l-426 952l-151 -958h-289z" />
<glyph unicode="&#x14b;" horiz-adv-x="1140" d="M94 0l172 1087h230l39 -116q16 10 64 37.5t69.5 39t62.5 29t82 23.5t88 6q324 0 264 -381l-114 -725l-25 -139q-16 -92 -58 -165t-91.5 -115t-112 -71.5t-108.5 -41t-95 -17.5l-49 156q51 18 77.5 31.5t62.5 40t56.5 69.5t30.5 105l25 147l115 729q23 147 -97 148 q-139 0 -278 -95l-123 -782h-287z" />
<glyph unicode="&#x14c;" horiz-adv-x="1363" d="M186 511q2 114 25 257q23 147 56.5 262t71.5 192.5t91 132t101.5 84t120 46t129 20.5t145.5 4q82 0 145.5 -8t126 -29.5t105.5 -58.5t76.5 -97.5t49 -143t12.5 -199.5t-26 -262q-31 -195 -81 -329t-107.5 -210t-146.5 -117t-170 -52t-205 -11q-82 0 -144.5 7t-126 27.5 t-106.5 55.5t-78 94.5t-50.5 140t-13.5 194.5zM472 490q-1 -91 28.5 -145t84 -71.5t152.5 -17.5q178 0 262 95t129 388q23 139 24 232.5t-11.5 148t-50 82t-79.5 35.5t-116 8q-78 0 -122 -7t-92 -33.5t-77 -81t-56 -148t-50 -236.5q-25 -158 -26 -249zM655 1628l25 162h598 l-25 -162h-598z" />
<glyph unicode="&#x14d;" horiz-adv-x="1140" d="M158 557q27 168 68.5 272.5t113.5 166t165 84t236 22.5q270 0 364.5 -145.5t45.5 -456.5q-49 -301 -169 -405.5t-402 -104.5q-274 0 -371.5 135t-50.5 432zM429 390q-1 -54 8 -89t34 -52.5t54.5 -22.5t80.5 -5q88 0 129 16.5t74 82t55 208.5q35 215 5.5 278.5 t-160.5 63.5t-179.5 -61.5t-85.5 -280.5q-14 -84 -15 -138zM463 1225l26 161h598l-26 -161h-598z" />
<glyph unicode="&#x150;" horiz-adv-x="1363" d="M186 511q2 114 25 257q23 147 56.5 262t71.5 192.5t91 132t101.5 84t120 46t129 20.5t145.5 4q82 0 145.5 -8t126 -29.5t105.5 -58.5t76.5 -97.5t49 -143t12.5 -199.5t-26 -262q-31 -195 -81 -329t-107.5 -210t-146.5 -117t-170 -52t-205 -11q-82 0 -144.5 7t-126 27.5 t-106.5 55.5t-78 94.5t-50.5 140t-13.5 194.5zM472 490q-1 -91 28.5 -145t84 -71.5t152.5 -17.5q178 0 262 95t129 388q23 139 24 232.5t-11.5 148t-50 82t-79.5 35.5t-116 8q-78 0 -122 -7t-92 -33.5t-77 -81t-56 -148t-50 -236.5q-25 -158 -26 -249zM694 1632l230 285h252 l-295 -285h-187zM1014 1632l229 285h252l-295 -285h-186z" />
<glyph unicode="&#x151;" horiz-adv-x="1140" d="M158 557q27 168 68.5 272.5t113.5 166t165 84t236 22.5q270 0 364.5 -145.5t45.5 -456.5q-49 -301 -169 -405.5t-402 -104.5q-274 0 -371.5 135t-50.5 432zM429 390q-1 -54 8 -89t34 -52.5t54.5 -22.5t80.5 -5q88 0 129 16.5t74 82t55 208.5q35 215 5.5 278.5 t-160.5 63.5t-179.5 -61.5t-85.5 -280.5q-14 -84 -15 -138zM510 1225l229 282h252l-295 -282h-186zM829 1225l230 282h252l-295 -282h-187z" />
<glyph unicode="&#x152;" horiz-adv-x="2125" d="M153.5 511q1.5 114 24.5 257q23 147 56.5 262t71.5 192.5t91.5 132t101.5 84t119.5 46t129 20.5t145.5 4q274 0 381 -114q88 115 280 104q504 -14 633 -33l-37 -237h-571q-37 0 -61.5 -9.5t-37 -27.5t-17.5 -34.5t-9 -43.5l-35 -229l578 -21l-35 -235l-586 -21l-39 -237 q-6 -39 0 -62.5t27.5 -32t37 -10.5t46.5 -2h549l-37 -235q-53 -8 -209 -16.5t-285 -13.5l-129 -5q-166 -8 -239 96q-135 -98 -428 -98q-82 0 -144.5 7t-125 27.5t-105.5 55.5t-79 94.5t-50 140t-12.5 194.5zM441.5 530.5q-3.5 -81.5 7 -138t45 -85t83 -40t125.5 -11.5 q121 0 192 37t121 141.5t81 304.5q23 139 23.5 232.5t-11.5 148t-51 82t-81 35.5t-116 8q-76 0 -120 -7t-92 -33.5t-76.5 -81t-56 -148t-50.5 -236.5q-20 -127 -23.5 -208.5z" />
<glyph unicode="&#x153;" horiz-adv-x="1787" d="M145 559q51 326 175 434.5t409 108.5q223 0 320 -109q115 113 378 115q94 0 169 -14.5t138.5 -48t94.5 -97t24 -153.5q-8 -117 -58 -201t-123 -123t-155.5 -58.5t-161.5 -15.5t-133.5 11.5t-76.5 17.5q-20 -123 13.5 -167t144.5 -44q229 0 444 35l-33 -205 q-264 -78 -567 -59q-141 6 -205 98q-117 -94 -377 -94q-272 0 -369.5 136t-50.5 433zM417 390q-1 -54 7 -89t33.5 -52.5t55.5 -22.5t79 -5q88 0 130 17.5t73.5 82t56.5 207.5q33 215 3 278.5t-159 63.5q-131 0 -179 -61.5t-85 -280.5q-14 -84 -15 -138zM1167 614 q14 -2 39 -5t88.5 -2t113.5 11.5t96 46t57 91.5q12 72 -25 97.5t-129 23.5q-55 0 -97 -17.5t-63.5 -35t-39 -62.5t-23 -67t-17.5 -81z" />
<glyph unicode="&#x154;" horiz-adv-x="1234" d="M104 0l238 1499h635q180 0 273 -121t61 -374q-14 -106 -45 -185.5t-63 -119.5t-76 -66.5t-67.5 -32.5t-55.5 -10l210 -590h-323l-174 573l-232 19l-94 -592h-287zM522 815h312q84 0 129 50t59 167q14 125 -12.5 169t-102.5 44h-315zM750 1626l231 285h250l-295 -285h-186 z" />
<glyph unicode="&#x155;" horiz-adv-x="854" d="M166 0l172 1087h242l22 -137q176 147 338 148q92 0 119 -13l-45 -276q-86 6 -156 6q-96 0 -164.5 -24.5t-130.5 -96.5l-110 -694h-287zM627 1225l231 284h250l-295 -284h-186z" />
<glyph unicode="&#x156;" horiz-adv-x="1234" d="M119 0l237 1499h633q182 0 275.5 -121t58.5 -374q-14 -106 -45 -185.5t-62.5 -119.5t-75.5 -66.5t-67.5 -32.5t-56.5 -10l213 -590h-324l-176 573l-229 19l-94 -592h-287zM467 -545l14 88q55 0 66 47l4 27h-21q-47 0 -38 47l24 160q9 49 55 49h154q45 0 37 -49l-37 -227 q-8 -57 -39 -93t-66.5 -46.5t-70.5 -11.5t-59 4zM537 815h311q84 0 129 51.5t57 165.5q14 123 -12.5 168t-99.5 45h-318z" />
<glyph unicode="&#x157;" horiz-adv-x="854" d="M96 -545l15 88q57 0 63 47l6 27h-20q-47 0 -39 47l24 160q10 49 54 49h155q41 0 37 -49l-37 -227q-8 -57 -38.5 -93t-66.5 -46.5t-71 -11.5t-58 4zM150 0l172 1087h241l23 -137q176 147 338 148q92 0 118 -13l-45 -276q-86 6 -155 6q-96 0 -165 -24.5t-130 -96.5 l-111 -694h-286z" />
<glyph unicode="&#x158;" horiz-adv-x="1234" d="M119 0l237 1499h633q182 0 275.5 -121t58.5 -374q-14 -106 -45 -185.5t-62.5 -119.5t-75.5 -66.5t-67.5 -32.5t-56.5 -10l213 -590h-324l-176 573l-229 19l-94 -592h-287zM537 815h311q84 0 129 51.5t57 165.5q14 123 -12.5 168t-99.5 45h-318zM598 1909h184l92 -133 l144 133h211l-264 -277h-207z" />
<glyph unicode="&#x159;" horiz-adv-x="854" d="M94 0l172 1087h242l22 -137q176 147 336 148q92 0 119 -13l-43 -276q-86 6 -156 6q-98 0 -166.5 -24.5t-130.5 -96.5l-108 -694h-287zM375 1503h186l92 -135l144 135h211l-265 -278h-206z" />
<glyph unicode="&#x15a;" horiz-adv-x="1185" d="M133 45l37 225q180 -23 506 -22q186 0 205 129l12 80q12 74 -9.5 107.5t-105.5 33.5h-207q-86 0 -150.5 20.5t-100 57.5t-58 77t-29 89t-5.5 85t5 72l23 156q16 111 59 184.5t110 109.5t136.5 49t163.5 13q352 4 557 -59l-35 -225q-293 20 -485 20q-109 4 -157 -23.5 t-64 -121.5l-13 -74q-14 -92 18 -117.5t124 -25.5h211q100 0 169.5 -39t96.5 -97.5t38 -129t-3 -132.5l-13 -135q-8 -100 -46 -171.5t-84 -109.5t-116.5 -58.5t-121.5 -24.5t-123 -4q-355 0 -545 61zM741 1636l230 283h252l-295 -283h-187z" />
<glyph unicode="&#x15b;" horiz-adv-x="1042" d="M131 45l29 178h512q72 0 84 70l10 55q4 37 -8.5 53.5t-55.5 16.5h-243q-147 0 -220 81t-49 234l17 98q20 135 98 203t232 68q483 0 569 -55l-29 -181h-491q-84 0 -97 -75l-8 -54q-6 -14 -2 -25.5t3 -19.5t7.5 -12t9.5 -7t12 -4t14 -1h15h15h250q147 0 210.5 -87 t41.5 -216l-19 -125q-39 -254 -311 -254q-518 0 -596 59zM621 1229l231 282h250l-295 -282h-186z" />
<glyph unicode="&#x15c;" horiz-adv-x="1185" d="M145 45l35 225q184 -23 506 -22q186 0 207 129l12 80q10 74 -11.5 107.5t-102.5 33.5h-207q-102 0 -175 29.5t-105 77t-51.5 101.5t-14 104.5t7.5 88.5l20 156q16 111 59.5 184.5t110 109.5t136 49t163.5 13q350 4 559 -59l-37 -225q-291 20 -485 20q-109 4 -157 -23.5 t-64 -121.5l-10 -74q-16 -92 15.5 -117.5t123.5 -25.5h213q100 0 170 -39t95.5 -97.5t36.5 -129t-3 -132.5l-12 -135q-8 -100 -46 -171.5t-84 -109.5t-117 -58.5t-122 -24.5t-121 -4q-355 0 -545 61zM522 1636l266 277h213l154 -277h-184l-88 133l-148 -133h-213z" />
<glyph unicode="&#x15d;" horiz-adv-x="1042" d="M115 45l28 178h512q72 0 84 70l11 55q4 37 -8.5 53.5t-55.5 16.5h-244q-147 0 -219.5 81t-48.5 234l16 98q20 135 98.5 203t231.5 68q483 0 570 -55l-29 -181h-492q-84 0 -96 -75l-8 -54q-6 -14 -2 -25.5t2 -19.5t6 -12t10 -7t13.5 -4t14.5 -1h15h15h249q147 0 211 -87 t41 -216l-18 -125q-39 -254 -311 -254q-518 0 -596 59zM389 1229l266 276h213l154 -276h-184l-88 133l-148 -133h-213z" />
<glyph unicode="&#x15e;" horiz-adv-x="1185" d="M145 45l35 225q184 -23 506 -22q186 0 207 129l12 80q10 74 -11.5 107.5t-102.5 33.5h-207q-102 0 -175 29.5t-105 77t-51.5 101.5t-14 104.5t7.5 88.5l20 156q16 111 59.5 184.5t110 109.5t136 49t163.5 13q350 4 559 -59l-37 -225q-291 20 -485 20q-109 4 -157 -23.5 t-64 -121.5l-10 -74q-16 -92 15.5 -117.5t123.5 -25.5h213q100 0 170 -39t95.5 -97.5t36.5 -129t-3 -132.5l-12 -135q-8 -100 -46 -171.5t-84 -109.5t-117 -58.5t-122 -24.5t-121 -4q-355 0 -545 61zM369 -381l20 123l94 31q43 16 58.5 43.5t25.5 91.5h193 q-25 -160 -84.5 -224.5t-190.5 -64.5h-116z" />
<glyph unicode="&#x15f;" horiz-adv-x="1042" d="M115 45l28 178h512q72 0 84 70l11 55q4 37 -8.5 53.5t-55.5 16.5h-244q-147 0 -219.5 81t-48.5 234l16 98q20 135 98.5 203t231.5 68q483 0 570 -55l-29 -181h-492q-84 0 -96 -75l-8 -54q-6 -14 -2 -25.5t2 -19.5t6 -12t10 -7t13.5 -4t14.5 -1h15h15h249q147 0 211 -87 t41 -216l-18 -125q-39 -254 -311 -254q-518 0 -596 59zM279 -369l20 123l94 31q43 16 57.5 43t24.5 92h195q-25 -160 -85.5 -224.5t-191.5 -64.5h-114z" />
<glyph unicode="&#x160;" horiz-adv-x="1185" d="M145 45l35 225q184 -23 506 -22q186 0 207 129l12 80q10 74 -11.5 107.5t-102.5 33.5h-207q-102 0 -175 29.5t-105 77t-51.5 101.5t-14 104.5t7.5 88.5l20 156q16 111 59.5 184.5t110 109.5t136 49t163.5 13q350 4 559 -59l-37 -225q-291 20 -485 20q-109 4 -157 -23.5 t-64 -121.5l-10 -74q-16 -92 15.5 -117.5t123.5 -25.5h213q100 0 170 -39t95.5 -97.5t36.5 -129t-3 -132.5l-12 -135q-8 -100 -46 -171.5t-84 -109.5t-117 -58.5t-122 -24.5t-121 -4q-355 0 -545 61zM582 1913h184l92 -133l143 133h211l-264 -277h-207z" />
<glyph unicode="&#x161;" horiz-adv-x="1042" d="M115 45l28 178h512q72 0 84 70l11 55q4 37 -8.5 53.5t-55.5 16.5h-244q-147 0 -219.5 81t-48.5 234l16 98q20 135 98.5 203t231.5 68q483 0 570 -55l-29 -181h-492q-84 0 -96 -75l-8 -54q-6 -14 -2 -25.5t2 -19.5t6 -12t10 -7t13.5 -4t14.5 -1h15h15h249q147 0 211 -87 t41 -216l-18 -125q-39 -254 -311 -254q-518 0 -596 59zM428 1505h186l91 -133l145 133h211l-266 -276h-207z" />
<glyph unicode="&#x162;" horiz-adv-x="1204" d="M205 1235l43 264h1108l-43 -264h-416l-195 -1235h-286l194 1235h-405zM252 -375l20 123l95 31q43 16 57 43.5t25 93.5h194q-25 -160 -85 -225.5t-191 -65.5h-115z" />
<glyph unicode="&#x163;" horiz-adv-x="770" d="M129 870l27 160l184 60l96 303h240l-49 -303h243l-34 -220h-244l-70 -436q-16 -119 -1.5 -158.5t63.5 -58.5q113 -39 121 -39l-27 -180h-199q-141 0 -210.5 96t-39.5 295l76 481h-176zM139 -377l21 123l94 31q43 16 57.5 42.5t24.5 92.5h194q-25 -160 -85 -224.5 t-191 -64.5h-115z" />
<glyph unicode="&#x164;" horiz-adv-x="1204" d="M250 1235l43 264h1108l-43 -264h-418l-195 -1235h-286l194 1235h-403zM596 1909h184l92 -133l144 133h211l-264 -277h-207z" />
<glyph unicode="&#x165;" horiz-adv-x="808" d="M143 870l25 160l184 60l97 303h239l-49 -303h244l-35 -220h-244l-67 -436q-14 -131 -2 -163.5t61 -51.5q113 -41 121 -41l-27 -178h-198q-137 0 -209 93t-41 296l75 481h-174zM788 1229l23 274l20 137h199l-22 -137l-66 -274h-154z" />
<glyph unicode="&#x166;" horiz-adv-x="1226" d="M250 1235l43 264h1108l-43 -264h-418l-53 -348h200l-22 -133h-201l-119 -754h-286l119 754h-201l22 133h201l53 348h-403z" />
<glyph unicode="&#x167;" horiz-adv-x="759" d="M133 526l23 133h143l33 211h-174l24 160l185 60l96 303h237l-47 -303h244l-35 -220h-244l-32 -211h170l-23 -133h-168l-14 -92q-18 -82 -10 -128t21 -60.5t48 -26.5q113 -41 123 -41l-28 -178h-199q-137 0 -209 93t-41 296l23 137h-146z" />
<glyph unicode="&#x168;" horiz-adv-x="1337" d="M207 452.5q0 98.5 18 219.5l133 827h287l-135 -860q-35 -215 9 -300t204 -85t231.5 89t104.5 296l137 860h289l-131 -895q-29 -182 -85.5 -304t-144.5 -189.5t-191.5 -94t-246.5 -26.5q-70 0 -127 7t-113.5 26.5t-98.5 52.5t-74.5 85t-49 122.5t-16.5 169zM606 1745 q156 143 271 143q51 -2 111.5 -36.5t92.5 -34.5q47 -2 110.5 24.5t94.5 52.5l31 -122q-49 -43 -78 -67t-81 -48.5t-97 -24.5q-53 2 -117.5 37t-101.5 35q-16 0 -30.5 -2t-26 -3t-27 -7t-22.5 -8.5t-24.5 -11.5t-22.5 -12t-25.5 -14.5t-24.5 -13.5z" />
<glyph unicode="&#x169;" horiz-adv-x="1124" d="M135 365l115 722h287l-115 -729q-14 -82 11.5 -113.5t84.5 -31.5q143 0 279 94l123 780h286l-174 -1087h-229l-37 115q-98 -68 -176 -100.5t-191 -32.5q-325 0 -264 383zM414 1337q154 141 270 142q51 -2 111.5 -36t93.5 -34q45 -2 109.5 23.5t95.5 52.5l30 -121 q-154 -139 -256 -139q-53 2 -117.5 36.5t-101.5 34.5q-39 0 -78 -12t-56 -21.5t-69 -37.5z" />
<glyph unicode="&#x16a;" horiz-adv-x="1337" d="M207 452.5q0 98.5 18 219.5l133 827h287l-135 -860q-35 -215 9 -300t204 -85t231.5 89t104.5 296l137 860h289l-131 -895q-29 -182 -85.5 -304t-144.5 -189.5t-191.5 -94t-246.5 -26.5q-70 0 -127 7t-113.5 26.5t-98.5 52.5t-74.5 85t-49 122.5t-16.5 169zM643 1632 l27 162h598l-27 -162h-598z" />
<glyph unicode="&#x16b;" horiz-adv-x="1124" d="M135 365l115 722h287l-115 -729q-14 -82 11.5 -113.5t84.5 -31.5q143 0 279 94l123 780h286l-174 -1087h-229l-37 115q-98 -68 -176 -100.5t-191 -32.5q-325 0 -264 383zM451 1225l26 161h598l-26 -161h-598z" />
<glyph unicode="&#x16c;" horiz-adv-x="1337" d="M207 452.5q0 98.5 18 219.5l133 827h287l-135 -860q-35 -215 9 -300t204 -85t231.5 89t104.5 296l137 860h289l-131 -895q-29 -182 -85.5 -304t-144.5 -189.5t-191.5 -94t-246.5 -26.5q-70 0 -127 7t-113.5 26.5t-98.5 52.5t-74.5 85t-49 122.5t-16.5 169zM745 1864h117 q-6 -55 21.5 -86t77.5 -31q121 0 135 117h116q-12 -113 -77.5 -172.5t-173.5 -59.5q-98 0 -161 63t-55 169z" />
<glyph unicode="&#x16d;" horiz-adv-x="1124" d="M135 365l115 722h287l-115 -729q-14 -82 11.5 -113.5t84.5 -31.5q143 0 279 94l123 780h286l-174 -1087h-229l-37 115q-98 -68 -176 -100.5t-191 -32.5q-325 0 -264 383zM553 1456h117q-6 -55 21.5 -86t76.5 -31q121 0 135 117h119q-14 -113 -79.5 -172t-174.5 -59 q-98 0 -160.5 62.5t-54.5 168.5z" />
<glyph unicode="&#x16e;" horiz-adv-x="1337" d="M207 452.5q0 98.5 18 219.5l133 827h287l-135 -860q-35 -215 9 -300t204 -85t231.5 89t104.5 296l137 860h289l-131 -895q-29 -182 -85.5 -304t-144.5 -189.5t-191.5 -94t-246.5 -26.5q-70 0 -127 7t-113.5 26.5t-98.5 52.5t-74.5 85t-49 122.5t-16.5 169zM766 1839 q8 88 73.5 147.5t151.5 59.5t142.5 -60.5t48.5 -146.5q-8 -88 -71.5 -147.5t-150 -59.5t-144.5 60.5t-50 146.5zM887 1839q-2 -37 21.5 -62.5t60.5 -25.5t63.5 25.5t30.5 62.5t-19.5 62.5t-60.5 25.5t-65.5 -25.5t-30.5 -62.5z" />
<glyph unicode="&#x16f;" horiz-adv-x="1124" d="M135 365l115 722h287l-115 -729q-14 -82 11.5 -113.5t84.5 -31.5q143 0 279 94l123 780h286l-174 -1087h-229l-37 115q-98 -68 -176 -100.5t-191 -32.5q-325 0 -264 383zM573 1432q8 88 74 147t152 59t142 -60t48 -146q-8 -88 -71.5 -147.5t-149.5 -59.5t-144.5 60.5 t-50.5 146.5zM692 1432q-2 -37 21.5 -63t60.5 -26t63.5 26t30.5 63q4 35 -18.5 61.5t-59 26.5t-65.5 -26.5t-33 -61.5z" />
<glyph unicode="&#x170;" horiz-adv-x="1337" d="M207 452.5q0 98.5 18 219.5l133 827h287l-135 -860q-35 -215 9 -300t204 -85t231.5 89t104.5 296l137 860h289l-131 -895q-29 -182 -85.5 -304t-144.5 -189.5t-191.5 -94t-246.5 -26.5q-70 0 -127 7t-113.5 26.5t-98.5 52.5t-74.5 85t-49 122.5t-16.5 169zM690 1632 l230 285h251l-294 -285h-187zM1010 1632l229 285h252l-295 -285h-186z" />
<glyph unicode="&#x171;" horiz-adv-x="1124" d="M135 365l115 722h287l-115 -729q-14 -82 11.5 -113.5t84.5 -31.5q143 0 279 94l123 780h286l-174 -1087h-229l-37 115q-98 -68 -176 -100.5t-191 -32.5q-325 0 -264 383zM498 1225l229 282h252l-295 -282h-186zM817 1225l230 282h251l-294 -282h-187z" />
<glyph unicode="&#x172;" horiz-adv-x="1337" d="M206.5 396.5q-12.5 115.5 18.5 275.5l133 827h287l-135 -860q-35 -215 9 -300t204 -85t231.5 89t104.5 296l137 860h289l-131 -895q-53 -336 -201.5 -470t-413.5 -144q-124 -89 -103 -163q19 -56 101 -50l-24 -158q-63 -14 -122 4.5t-88.5 61.5t-35.5 96t33 110.5 t121 100.5q-88 6 -155 25.5t-127 65.5t-90 122t-42.5 191.5z" />
<glyph unicode="&#x173;" horiz-adv-x="1161" d="M135 365l115 722h287l-115 -729q-14 -82 11.5 -113.5t84.5 -31.5q143 0 279 94l123 780h286l-174 -1087h-229l-37 115q-98 -68 -176 -100.5t-191 -32.5q-325 0 -264 383zM684 -216q-4 54 41 113.5t135 100.5h115q-135 -91 -121 -169q10 -56 86 -57q8 0 16 1l-24 -158 q-66 -16 -125 4.5t-89 65.5t-34 99z" />
<glyph unicode="&#x174;" horiz-adv-x="2068" d="M285 1499h299l153 -1108l492 1108h307l-193 -414l105 -700l496 1114h303l-686 -1499h-324l-94 616l-287 -616h-340zM924 1632l264 277h213l155 -277h-186l-86 133l-149 -133h-211z" />
<glyph unicode="&#x175;" horiz-adv-x="1695" d="M172 1087h299l117 -763l260 534q51 106 65 229h258q29 -119 -26 -251l-33 -78l80 -428l268 530q51 106 66 230h260q31 -150 -57 -320l-414 -770h-318l-77 418l-203 -418h-338zM688 1221l264 278h213l154 -278h-184l-88 133l-148 -133h-211z" />
<glyph unicode="&#x176;" horiz-adv-x="1343" d="M285 1499h309l172 -717l428 717h328l-658 -1034l-73 -465h-287l74 465zM608 1632l264 277h213l154 -277h-184l-88 133l-148 -133h-211z" />
<glyph unicode="&#x177;" horiz-adv-x="1153" d="M172 1087h297l68 -761q2 -16 8 -29.5t14 -22t17.5 -13.5t20.5 -8t17.5 -4t16.5 -2l10 -1l277 616q39 94 51 228h266q31 -147 -49 -322l-350 -768q-61 -135 -134 -239.5t-137.5 -164t-138.5 -101.5t-126 -58.5t-112 -26.5v201q125 68 206 163t147 226q-119 0 -194 68.5 t-89 207.5zM408 1221l264 278h213l153 -278h-184l-88 133l-148 -133h-210z" />
<glyph unicode="&#x178;" horiz-adv-x="1343" d="M246 1499h309l172 -717l428 717h328l-658 -1034l-73 -465h-287l74 465zM522 1749q8 49 49 84t91 35q51 0 80.5 -35t21.5 -84q-10 -49 -50 -85t-89 -36q-51 0 -81 36t-22 85zM1044.5 1749q8.5 49 49.5 84t90 35q51 0 80.5 -35t21.5 -84q-10 -49 -50 -85t-89 -36 q-51 0 -81 36t-21.5 85z" />
<glyph unicode="&#x179;" horiz-adv-x="1140" d="M152 0l41 264l835 971h-682l43 264h1032l-43 -264l-813 -971h660l-41 -264h-1032zM831 1628l230 283h252l-295 -283h-187z" />
<glyph unicode="&#x17a;" horiz-adv-x="968" d="M121 2l35 240l581 604h-512l37 241h879l-37 -241l-557 -602h459l-37 -242h-848zM629 1219l231 284h250l-295 -284h-186z" />
<glyph unicode="&#x17b;" horiz-adv-x="1140" d="M55 0l43 264l834 971h-682l43 264h1032l-43 -264l-813 -971h661l-43 -264h-1032zM715 1679l24 156q6 51 58 51h147q47 0 39 -51l-25 -156q-6 -47 -53 -47h-147q-49 0 -43 47z" />
<glyph unicode="&#x17c;" horiz-adv-x="968" d="M78 2l35 240l579 604h-510l37 241h879l-37 -241l-557 -602h459l-37 -242h-848zM565 1272l25 155q6 51 57 52h148q47 0 39 -52l-25 -155q-6 -47 -53 -47h-148q-49 0 -43 47z" />
<glyph unicode="&#x17d;" horiz-adv-x="1140" d="M55 0l43 264l834 971h-682l43 264h1032l-43 -264l-813 -971h661l-43 -264h-1032zM557 1909h186l93 -133l143 133h211l-264 -277h-209z" />
<glyph unicode="&#x17e;" horiz-adv-x="968" d="M78 2l35 240l579 604h-510l37 241h879l-37 -241l-557 -602h459l-37 -242h-848zM408 1501h186l90 -133l145 133h211l-264 -276h-209z" />
<glyph unicode="&#x192;" horiz-adv-x="1077" d="M-27 -367l50 179h129q51 0 90 30.5t66.5 93t43 112.5t33.5 132l141 588h-178l60 219h178l8 49q143 586 444 602q129 8 258 -51l-47 -178h-125q-51 0 -89 -28.5t-66.5 -90t-45 -114t-38.5 -140.5l-11 -49h238l-59 -219h-238l-139 -588q-68 -272 -172.5 -430t-280.5 -168 q-80 -6 -152.5 13.5t-97.5 37.5z" />
<glyph unicode="&#x2c6;" horiz-adv-x="649" d="M102 1087l265 277h213l155 -277h-186l-86 134l-150 -134h-211z" />
<glyph unicode="&#x2c7;" horiz-adv-x="765" d="M41 1364h186l92 -133l144 133h211l-264 -277h-209z" />
<glyph unicode="&#x2d8;" horiz-adv-x="509" d="M115 1319h118q-8 -53 20 -84t79 -31q121 -2 133 115h119q-12 -113 -79 -172.5t-175 -59.5q-98 0 -160.5 63t-54.5 169z" />
<glyph unicode="&#x2d9;" horiz-adv-x="290" d="M203 1116l24 156q6 51 58 51h147q47 0 39 -51l-25 -156q-6 -47 -53 -47h-147q-49 0 -43 47z" />
<glyph unicode="&#x2da;" horiz-adv-x="565" d="M266 1294q8 88 74 147.5t152 59.5t142 -60.5t48 -146.5q-8 -88 -71.5 -147.5t-149.5 -59.5t-144.5 60.5t-50.5 146.5zM387 1294q-2 -37 21.5 -61.5t58.5 -24.5q37 0 64.5 24.5t31.5 61.5t-19.5 62.5t-60.5 25.5t-65.5 -25.5t-30.5 -62.5z" />
<glyph unicode="&#x2db;" horiz-adv-x="438" d="M283 -214q-4 54 41 113.5t135 100.5h114q-135 -91 -121 -169q10 -56 87 -57q8 0 16 1l-25 -156q-66 -16 -125 4.5t-88.5 64.5t-33.5 98z" />
<glyph unicode="&#x2dc;" horiz-adv-x="862" d="M250 1200q152 143 270 143q49 -2 110.5 -36.5t94.5 -34.5q47 -2 110.5 24.5t94.5 53.5l28 -123q-49 -43 -77.5 -66.5t-80.5 -48.5t-98 -25q-53 2 -116.5 37t-100.5 35q-12 0 -24 -1t-21.5 -2t-21.5 -5t-19.5 -6t-20.5 -7t-18.5 -7.5t-19.5 -10.5t-18.5 -10t-20.5 -11 t-20 -12z" />
<glyph unicode="&#x2dd;" horiz-adv-x="954" d="M293 1087l231 285h250l-295 -285h-186zM612 1087l232 285h250l-295 -285h-187z" />
<glyph unicode="&#x338;" horiz-adv-x="1286" d="M164 389l117 756q57 354 440 354h336q98 0 166.5 -33.5t98.5 -89t41 -125t-5 -141.5l-119 -766q-51 -344 -420 -344h-336q-174 0 -260 103.5t-59 285.5zM471 457l530 770q-29 8 -51 8h-215q-143 0 -170 -145l-86 -543q-10 -80 -8 -90zM508 276q27 -12 82 -12h198 q76 0 117 33t56 113l90 563q8 84 2 94z" />
<glyph unicode="&#x3a9;" horiz-adv-x="1560" d="M113 0l39 242l231 20q-225 174 -152 590q23 129 71 237.5t136 209t234.5 157.5t339.5 57q176 0 302 -60t186.5 -159.5t84 -229.5t-5.5 -269q-31 -188 -94.5 -311.5t-198.5 -225.5l215 -20l-37 -238h-512l41 262q152 102 209.5 218t89.5 308q68 461 -313 461 q-115 0 -203 -42t-140 -114.5t-82 -149.5t-44 -165q-35 -156 -9.5 -274.5t150.5 -241.5l-43 -262h-495z" />
<glyph unicode="&#x3c0;" horiz-adv-x="1318" d="M160 823l43 264h1161l-43 -264h-186l-70 -438q-14 -96 12.5 -130t104.5 -34h143l-27 -168q-104 -63 -254 -63q-152 0 -225.5 94t-42.5 289l72 450h-248l-129 -823h-287l129 823h-153z" />
<glyph unicode="&#x1e02;" horiz-adv-x="1226" d="M125 0l237 1499h609q147 0 236 -63.5t115 -155.5t7 -207q-16 -121 -84.5 -199.5t-171.5 -95.5q86 -14 140.5 -117.5t35.5 -254.5q-31 -231 -148.5 -318.5t-363.5 -87.5h-612zM453 254h313q166 0 197 199q14 92 -17 151.5t-115 59.5h-315zM557 905h303q156 0 182 170 q16 96 -20.5 133t-108.5 37h-303zM739 1679l27 156q6 51 57 51h148q47 0 39 -51l-27 -156q-6 -47 -53 -47h-148q-49 0 -43 47z" />
<glyph unicode="&#x1e03;" horiz-adv-x="1138" d="M82 0l254 1608h285l-91 -576q162 72 336 72q145 0 218 -87t75 -222.5t-20 -300.5q-45 -264 -142.5 -388t-300.5 -118q-90 2 -174 38.5t-135 84.5l-70 -111h-235zM381 1786l25 156q6 51 57 51h147q47 0 39 -51l-24 -156q-6 -47 -54 -47h-147q-49 0 -43 47zM416 299 q92 -66 243 -66q78 0 122 71t71 245q18 119 17 192.5t-25.5 105.5t-81.5 32q-145 0 -260 -41z" />
<glyph unicode="&#x1e0a;" horiz-adv-x="1341" d="M125 0l237 1499h607q125 0 213 -48t134 -124t66.5 -182.5t17.5 -212t-22 -223.5q-61 -381 -207.5 -545t-418.5 -164h-627zM451 256h301q262 0 340 489q45 281 -3.5 390.5t-191.5 109.5h-289zM745 1663l25 156q6 51 57 51h148q47 0 39 -51l-25 -156q-6 -47 -53 -47h-148 q-49 0 -43 47z" />
<glyph unicode="&#x1e0b;" horiz-adv-x="1126" d="M149.5 290q-12.5 132 10.5 294q16 98 36.5 170.5t55.5 141.5t81 113t114.5 69.5t156.5 25.5q180 0 320 -72l92 576h284l-256 -1608h-235l-35 111q-168 -123 -336 -123q-125 0 -200.5 85t-88 217zM445.5 303q23.5 -70 97.5 -70q150 0 264 66l84 539q-100 41 -248 41 q-72 0 -117.5 -67.5t-76.5 -262.5q-27 -176 -3.5 -246zM1061 1778l24 155q6 51 58 52h147q47 0 39 -52l-24 -155q-6 -47 -54 -47h-147q-49 0 -43 47z" />
<glyph unicode="&#x1e1e;" horiz-adv-x="1148" d="M119 0l186 1176q27 176 129.5 251.5t247.5 71.5q502 -14 633 -33l-37 -237h-571q-37 0 -61.5 -9.5t-37 -27.5t-17.5 -34.5t-9 -43.5l-37 -233l579 -21l-34 -237l-588 -19l-96 -604h-287zM760 1679l24 156q6 51 58 51h147q47 0 39 -51l-24 -156q-6 -47 -54 -47h-147 q-49 0 -43 47z" />
<glyph unicode="&#x1e1f;" horiz-adv-x="827" d="M168 868l29 183l180 36l22 146q33 209 123 293t273 84q147 0 249 -49l-26 -172l-184 2q-86 2 -111 -40t-47 -186l-12 -78h262l-35 -219h-264l-142 -868h-286l141 868h-172zM678 1780l24 155q6 51 58 52h147q47 0 39 -52l-24 -155q-6 -47 -54 -47h-147q-49 0 -43 47z" />
<glyph unicode="&#x1e40;" horiz-adv-x="1693" d="M100 0l371 1499h391l90 -1024l408 1024h403l-96 -1499h-285l72 1001l-405 -1001h-326l-92 1001l-242 -1001h-289zM1022 1679l27 156q6 51 57 51h147q47 0 39 -51l-26 -156q-6 -47 -54 -47h-147q-49 0 -43 47z" />
<glyph unicode="&#x1e41;" horiz-adv-x="1792" d="M94 0l172 1087h230l39 -116q6 4 31.5 20.5t31.5 20.5t29.5 18t33 18.5t32 14.5t35.5 14t34.5 11.5t41 9.5t43 4t48.5 2q98 0 163.5 -41t90.5 -109q227 150 418 150q166 0 229.5 -103.5t34.5 -279.5l-115 -721h-286l114 725q12 74 -14.5 110.5t-81.5 36.5q-166 0 -279 -86 q-10 -41 -10 -67l-115 -719h-286l114 725q12 74 -15.5 110.5t-82.5 36.5q-82 0 -138 -20.5t-132 -71.5l-123 -780h-287zM971 1274l24 156q6 51 58 51h147q47 0 39 -51l-25 -156q-6 -47 -53 -47h-147q-49 0 -43 47z" />
<glyph unicode="&#x1e56;" horiz-adv-x="1222" d="M119 0l237 1499h627q78 0 142.5 -23.5t121 -76.5t78 -154.5t0.5 -240.5q-20 -135 -61 -229.5t-92.5 -136.5t-112 -65.5t-116.5 -20.5t-109 1q-59 2 -192.5 18.5t-141.5 20.5l-94 -592h-287zM532 807h318q74 0 120 50t66 177q33 211 -116 211h-318zM737 1679l25 156 q6 51 57 51h148q47 0 39 -51l-25 -156q-6 -47 -53 -47h-148q-49 0 -43 47z" />
<glyph unicode="&#x1e57;" horiz-adv-x="1138" d="M6 -553l260 1597q219 53 568 54q141 0 224 -81t99.5 -213t-4.5 -302q-39 -266 -149.5 -393t-327.5 -127q-184 0 -285 77l-98 -612h-287zM422 250q100 -59 229 -41q86 6 134.5 75.5t80.5 268.5q55 326 -114 326h-226zM614 1280l25 156q6 51 57 51h148q47 0 39 -51 l-27 -156q-6 -47 -53 -47h-148q-47 0 -41 47z" />
<glyph unicode="&#x1e60;" horiz-adv-x="1185" d="M145 45l35 225q184 -23 506 -22q186 0 207 129l12 80q10 74 -11.5 107.5t-102.5 33.5h-207q-102 0 -175 29.5t-105 77t-51.5 101.5t-14 104.5t7.5 88.5l20 156q16 111 59.5 184.5t110 109.5t136 49t163.5 13q350 4 559 -59l-37 -225q-291 20 -485 20q-109 4 -157 -23.5 t-64 -121.5l-10 -74q-16 -92 15.5 -117.5t123.5 -25.5h213q100 0 170 -39t95.5 -97.5t36.5 -129t-3 -132.5l-12 -135q-8 -100 -46 -171.5t-84 -109.5t-117 -58.5t-122 -24.5t-121 -4q-355 0 -545 61zM729 1692l25 155q6 51 57 51h147q47 0 39 -51l-24 -155q-6 -47 -53 -47 h-148q-49 0 -43 47z" />
<glyph unicode="&#x1e61;" horiz-adv-x="1042" d="M115 45l28 178h512q72 0 84 70l11 55q4 37 -8.5 53.5t-55.5 16.5h-244q-147 0 -219.5 81t-48.5 234l16 98q20 135 98.5 203t231.5 68q483 0 570 -55l-29 -181h-492q-84 0 -96 -75l-8 -54q-6 -14 -2 -25.5t2 -19.5t6 -12t10 -7t13.5 -4t14.5 -1h15h15h249q147 0 211 -87 t41 -216l-18 -125q-39 -254 -311 -254q-518 0 -596 59zM561 1272l25 155q6 51 57 52h148q47 0 38 -52l-24 -155q-6 -47 -53 -47h-148q-49 0 -43 47z" />
<glyph unicode="&#x1e6a;" horiz-adv-x="1204" d="M250 1235l43 264h1108l-43 -264h-418l-195 -1235h-286l194 1235h-403zM752 1679l26 156q6 51 58 51h147q47 0 39 -51l-27 -156q-6 -47 -53 -47h-147q-49 0 -43 47z" />
<glyph unicode="&#x1e6b;" horiz-adv-x="770" d="M158 870l24 160l185 60l96 303h239l-49 -303h244l-35 -220h-244l-67 -436q-14 -131 -2 -164.5t63 -52.5q111 -39 121 -39l-28 -180h-197q-143 0 -213 96t-39 295l76 481h-174zM500 1563l24 155q6 51 58 51h147q47 0 39 -51l-25 -155q-6 -47 -53 -47h-147q-49 0 -43 47z " />
<glyph unicode="&#x1e80;" horiz-adv-x="2068" d="M285 1499h299l153 -1108l492 1108h307l-193 -414l105 -700l496 1114h303l-686 -1499h-324l-94 616l-287 -616h-340zM979 1917h244l157 -285h-186z" />
<glyph unicode="&#x1e81;" horiz-adv-x="1695" d="M172 1087h299l117 -763l260 534q51 106 65 229h258q29 -119 -26 -251l-33 -78l80 -428l268 530q51 106 66 230h260q31 -150 -57 -320l-414 -770h-318l-77 418l-203 -418h-338zM713 1503h243l158 -282h-186z" />
<glyph unicode="&#x1e82;" horiz-adv-x="2068" d="M285 1499h299l153 -1108l492 1108h307l-193 -414l105 -700l496 1114h303l-686 -1499h-324l-94 616l-287 -616h-340zM1194 1632l231 285h250l-295 -285h-186z" />
<glyph unicode="&#x1e83;" horiz-adv-x="1695" d="M172 1087h299l117 -763l260 534q51 106 65 229h258q29 -119 -26 -251l-33 -78l80 -428l268 530q51 106 66 230h260q31 -150 -57 -320l-414 -770h-318l-77 418l-203 -418h-338zM940 1214l229 285h252l-295 -285h-186z" />
<glyph unicode="&#x1e84;" horiz-adv-x="2068" d="M285 1499h299l153 -1108l492 1108h307l-193 -414l105 -700l496 1114h303l-686 -1499h-324l-94 616l-287 -616h-340zM936 1753q8 51 49 85t92 34q49 0 79 -34t22 -85q-8 -49 -49.5 -85t-90.5 -36t-79.5 36t-22.5 85zM1458 1753q8 51 49 85t92 34q49 0 79 -34t22 -85 q-8 -49 -49 -85t-90.5 -36t-80 36t-22.5 85z" />
<glyph unicode="&#x1e85;" horiz-adv-x="1695" d="M172 1087h299l117 -763l260 534q51 106 65 229h258q29 -119 -26 -251l-33 -78l80 -428l268 530q51 106 66 230h260q31 -150 -57 -320l-414 -770h-318l-77 418l-203 -418h-338zM664 1341q10 51 50 86t91 35q49 0 78.5 -34.5t21.5 -86.5q-8 -49 -49 -84.5t-90 -35.5 t-79.5 35.5t-22.5 84.5zM1186 1341q10 51 50 86t91 35q49 0 79 -34.5t21 -86.5q-8 -49 -49 -84.5t-90 -35.5t-79.5 35.5t-22.5 84.5z" />
<glyph unicode="&#x1ef2;" horiz-adv-x="1343" d="M285 1499h309l172 -717l428 717h328l-658 -1034l-73 -465h-287l74 465zM616 1917h244l158 -285h-187z" />
<glyph unicode="&#x1ef3;" horiz-adv-x="1153" d="M172 1087h297l68 -761q2 -16 8 -29.5t14 -22t17.5 -13.5t20.5 -8t17.5 -4t16.5 -2l10 -1l277 616q39 94 51 228h266q31 -147 -49 -322l-350 -768q-61 -135 -134 -239.5t-137.5 -164t-138.5 -101.5t-126 -58.5t-112 -26.5v201q125 68 206 163t147 226q-119 0 -194 68.5 t-89 207.5zM438 1503h242l160 -282h-187z" />
<glyph unicode="&#x2000;" horiz-adv-x="1023" />
<glyph unicode="&#x2001;" horiz-adv-x="2046" />
<glyph unicode="&#x2002;" horiz-adv-x="1023" />
<glyph unicode="&#x2003;" horiz-adv-x="2046" />
<glyph unicode="&#x2004;" horiz-adv-x="682" />
<glyph unicode="&#x2005;" horiz-adv-x="511" />
<glyph unicode="&#x2006;" horiz-adv-x="341" />
<glyph unicode="&#x2007;" horiz-adv-x="341" />
<glyph unicode="&#x2008;" horiz-adv-x="255" />
<glyph unicode="&#x2009;" horiz-adv-x="409" />
<glyph unicode="&#x200a;" horiz-adv-x="113" />
<glyph unicode="&#x2010;" horiz-adv-x="722" d="M125 473l37 242h643l-37 -242h-643z" />
<glyph unicode="&#x2011;" horiz-adv-x="722" d="M125 473l37 242h643l-37 -242h-643z" />
<glyph unicode="&#x2012;" horiz-adv-x="722" d="M125 473l37 242h643l-37 -242h-643z" />
<glyph unicode="&#x2013;" horiz-adv-x="927" d="M121 467l41 244h968l-40 -244h-969z" />
<glyph unicode="&#x2014;" horiz-adv-x="1507" d="M125 471l39 244h1425l-39 -244h-1425z" />
<glyph unicode="&#x2018;" horiz-adv-x="528" d="M291 1049l43 270q10 70 46 114t78 59t82 19.5t67 -0.5l28 -4l-19 -114q-66 2 -77 -66l-7 -43h25q53 0 45 -53l-29 -182q-10 -59 -65 -60h-176q-49 1 -41 60z" />
<glyph unicode="&#x2019;" horiz-adv-x="528" d="M293 995l18 115q63 -2 76 66l8 43h-24q-53 0 -45 53l30 182q10 59 62 59h176q53 0 43 -59l-43 -270q-10 -70 -46 -114t-78 -59.5t-82 -19.5t-67 0z" />
<glyph unicode="&#x201a;" horiz-adv-x="528" d="M100 -223l17 112q66 0 78 68l6 43h-23q-53 0 -45 53l29 183q10 59 63 59h176q51 0 43 -59l-45 -271q-10 -70 -45 -114t-76.5 -59t-82.5 -19t-68 0z" />
<glyph unicode="&#x201c;" horiz-adv-x="866" d="M281 1047l41 270q10 70 45.5 114t77.5 58t82 19t68 0l28 -5l-17 -112q-66 2 -78 -66l-6 -43h23q53 0 45 -53l-29 -182q-10 -59 -63 -60h-176q-51 1 -41 60zM643 1047l41 270q12 70 47 114t77 58t83 19t67 0l27 -5l-16 -112q-66 2 -78 -66l-6 -43h22q53 0 45 -53l-28 -182 q-10 -59 -64 -60h-176q-51 1 -41 60z" />
<glyph unicode="&#x201d;" horiz-adv-x="868" d="M281 993l18 115q63 -2 76 66l8 43h-25q-51 0 -43 53l29 182q10 59 62 59h178q51 0 41 -59l-43 -270q-10 -70 -46 -114t-78 -59.5t-82 -19.5t-68 0zM643 993l19 115q63 -2 75 66l8 43h-24q-51 0 -43 53l29 182q10 59 61 59h178q51 0 41 -59l-43 -270q-10 -70 -46 -114 t-78 -59.5t-82 -19.5t-67 0z" />
<glyph unicode="&#x201e;" horiz-adv-x="866" d="M88 -223l18 114q63 -2 76 68l6 41h-22q-53 0 -45 53l29 185q10 57 63 57h176q51 0 43 -57l-45 -273q-10 -68 -45 -113t-77 -59t-83 -19t-67 -1zM451 -223l18 114q63 -2 76 68l6 41h-23q-53 0 -45 53l29 185q10 57 63 57h177q51 0 43 -57l-45 -273q-10 -68 -45 -113 t-77 -59t-83 -19t-68 -1z" />
<glyph unicode="&#x2020;" horiz-adv-x="1062" d="M213 928l35 223l276 25l86 401h254l-43 -401l266 -25l-34 -223l-275 -27l-190 -1048h-254l147 1048z" />
<glyph unicode="&#x2021;" horiz-adv-x="1001" d="M178 299l35 223l281 31l51 348l-269 27l35 223l279 25l84 401h252l-39 -401l264 -25l-35 -223l-274 -27l-62 -350l273 -29l-35 -223l-291 -27l-76 -419h-252l58 417z" />
<glyph unicode="&#x2022;" horiz-adv-x="628" d="M236 659l36 242q10 72 80 72h232q70 0 59 -72l-37 -242q-10 -66 -84 -65h-231q-65 -1 -55 65z" />
<glyph unicode="&#x2026;" horiz-adv-x="1603" d="M272 47l31 184q6 51 57 52h177q49 0 43 -52l-31 -184q-8 -47 -57 -47h-177q-49 0 -43 47zM829 47l31 184q6 51 58 52h176q49 0 43 -52l-31 -184q-8 -47 -57 -47h-177q-49 0 -43 47zM1386 47l31 184q6 51 58 52h176q49 0 43 -52l-31 -184q-8 -47 -57 -47h-176 q-50 0 -44 47z" />
<glyph unicode="&#x202f;" horiz-adv-x="409" />
<glyph unicode="&#x2030;" horiz-adv-x="2740" d="M154 999l41 250q20 133 89.5 191.5t227.5 58.5h207q272 0 229 -285l-41 -249q-23 -137 -91 -193.5t-224 -56.5h-207q-133 0 -192 75.5t-39 208.5zM358 0l1153 1499h205l-1145 -1499h-213zM360 1016q-8 -55 8.5 -78t73.5 -23h152q63 0 87 23t32 78l28 182q8 61 -8 80.5 t-76 19.5h-149q-59 0 -85 -20.5t-34 -79.5zM1137 287l39 250q20 133 89.5 192t227.5 59h207q274 0 229 -284l-39 -250q-23 -137 -92 -193.5t-225 -56.5h-209q-131 0 -189 76t-38 207zM1343 305q-10 -55 7.5 -77.5t74.5 -22.5h150q63 0 87 22.5t34 77.5l26 182q10 61 -6 81 t-76 20h-149q-61 0 -87 -20.5t-34 -80.5zM1989 287l39 250q23 135 92 193t227 58h207q272 0 227 -284l-39 -250q-23 -137 -92.5 -193.5t-224.5 -56.5h-207q-133 0 -191 76t-38 207zM2195 305q-8 -55 8.5 -77.5t73.5 -22.5h152q63 0 87 22.5t32 77.5l28 182q8 61 -8 81 t-76 20h-149q-59 0 -85 -20.5t-34 -80.5z" />
<glyph unicode="&#x2039;" horiz-adv-x="589" d="M41 725l487 416l136 -158l-314 -264l228 -266l-172 -154z" />
<glyph unicode="&#x203a;" horiz-adv-x="733" d="M193 459l313 268l-225 264l176 150l358 -420l-491 -422z" />
<glyph unicode="&#x2044;" horiz-adv-x="659" d="M-141 0l979 1542h206l-976 -1542h-209z" />
<glyph unicode="&#x205f;" horiz-adv-x="511" />
<glyph unicode="&#x2070;" horiz-adv-x="897" d="M139 973l76 487q41 254 293 254h242q133 0 191 -68.5t40 -177.5l-78 -495q-20 -131 -87.5 -188.5t-190.5 -57.5h-242q-119 0 -191.5 60.5t-52.5 185.5zM369 1020q-8 -55 10 -71.5t72 -16.5h131q51 0 74.5 18.5t31.5 67.5l72 405q8 47 -8.5 66.5t-65.5 19.5h-143 q-55 0 -77 -21.5t-28 -64.5z" />
<glyph unicode="&#x2074;" horiz-adv-x="960" d="M209 1024l461 690h239l-374 -575h225l33 211l65 100h166l-49 -311h98l-26 -174l-109 -35l-29 -199h-215l33 197h-475z" />
<glyph unicode="&#x2075;" horiz-adv-x="845" d="M154 754l28 174h391q53 0 77 19.5t30 62.5l8 69q2 20 3 40t-17.5 33t-55.5 13h-133q-72 0 -84 -69h-192l129 618h635l-33 -205h-426l-39 -182q63 45 240 35q117 -6 164 -85t32 -183l-22 -146q-27 -231 -295 -227q-260 0 -440 33z" />
<glyph unicode="&#x2076;" horiz-adv-x="833" d="M188 1262q23 137 55.5 230t75.5 139t84 65.5t95 23.5q213 20 477 -26l-29 -170h-362q-45 0 -77 -18.5t-48.5 -58.5t-23.5 -64.5t-15 -75.5q123 31 285 30q127 2 178 -73.5t32 -180.5l-22 -143q-18 -119 -89 -166t-200 -47h-192q-135 0 -203 123t-21 412zM395 1153 q-37 -221 84 -221h117q78 0 88 72l12 79q8 43 -5 56.5t-56 13.5h-240z" />
<glyph unicode="&#x2077;" horiz-adv-x="882" d="M227 1511l33 205h717l43 -96l-516 -893h-244l455 784h-488z" />
<glyph unicode="&#x2078;" horiz-adv-x="868" d="M230.5 892q-7.5 42 2.5 79l15 92q16 115 141 139q-109 53 -86 211l14 86q20 131 98.5 177t207.5 46h231q113 0 171 -65.5t38 -183.5l-10 -70q-4 -25 -15.5 -49.5t-44 -54t-78.5 -37.5q59 -16 76 -80t6 -123l-16 -113q-12 -74 -37.5 -121t-69 -66.5t-81 -25.5t-99.5 -6 h-231q-80 0 -134.5 24.5t-72.5 61.5t-25.5 79zM461 991q-6 -37 9 -52t67 -15h137q82 0 90 67l10 70q12 76 -63 76h-148q-43 0 -64.5 -17.5t-27.5 -58.5zM524 1399q-10 -76 70 -76h141q27 0 45.5 6t27.5 18.5t13 22.5t6 29l9 47q8 49 -8.5 65.5t-61.5 16.5h-133 q-47 0 -69.5 -16.5t-31.5 -65.5z" />
<glyph unicode="&#x2079;" horiz-adv-x="915" d="M215 745l29 173h362q37 0 65.5 15t43 32.5t28 56.5t17.5 55.5t12 63.5q-111 -27 -285 -31q-129 0 -178 79t-30 187l18 129q18 123 90 174.5t199 49.5l200 -3q135 0 200 -130t18 -427q-43 -262 -119 -351t-193 -99q-231 -23 -477 26zM498 1380q-8 -43 4 -58t55 -15h242 q33 217 -86 217h-117q-41 0 -60.5 -17.5t-27.5 -58.5z" />
<glyph unicode="&#x2080;" horiz-adv-x="935" d="M195 -166l75 488q39 254 291 253h242q135 0 192.5 -68.5t38.5 -176.5l-78 -496q-20 -131 -86.5 -188.5t-191.5 -57.5h-242q-119 0 -190 60.5t-51 185.5zM422 -119q-8 -55 11.5 -71.5t70.5 -16.5h131q53 0 76.5 18.5t31.5 67.5l70 406q8 47 -7 66.5t-67 19.5h-143 q-53 0 -75.5 -21.5t-28.5 -64.5z" />
<glyph unicode="&#x2081;" horiz-adv-x="581" d="M61 303l25 152q51 0 133 44t111 79h219l-158 -990h-221l123 762q-60 -47 -232 -47z" />
<glyph unicode="&#x2082;" horiz-adv-x="897" d="M78 -412l31 197q63 41 88.5 57.5t105.5 70.5t125 91t104.5 88t90 95t36.5 81q10 66 -20.5 91.5t-118.5 25.5h-325q0 4 2 12.5t5 31t6 41.5t6 38.5t5 31.5l2 11q223 39 406 39q143 0 210.5 -99.5t49.5 -216.5q-8 -55 -37 -112.5t-60.5 -100.5t-79.5 -91t-79 -73.5 t-77 -61.5t-54 -42h307l-33 -205h-696z" />
<glyph unicode="&#x2083;" horiz-adv-x="806" d="M-8 -379l26 162l328 2q74 0 110 17.5t44 66.5l4 27q8 51 -21.5 69.5t-97.5 20.5l-250 10l27 178l258 10q72 4 105.5 21.5t39.5 62.5l4 25q8 47 -21.5 65.5t-98.5 18.5h-347l27 162q145 49 444 41q117 -2 177.5 -77t44.5 -184l-11 -61q-27 -158 -143 -182 q53 -20 73.5 -78.5t8.5 -132.5l-8 -49q-41 -238 -309 -236h-47h-47h-44q-32 0 -44.5 1t-41 2t-43 3t-38 5t-39 7.5t-35 10.5t-35.5 12z" />
<glyph unicode="&#x2084;" horiz-adv-x="890" d="M-6 -115l461 690h239l-375 -575h226l33 211l65 100h166l-49 -311h98l-27 -174l-108 -35l-29 -199h-215l33 197h-475z" />
<glyph unicode="&#x2085;" horiz-adv-x="843" d="M6 -385l29 174h391q53 0 76.5 19.5t29.5 62.5l9 70q2 20 3 39.5t-17.5 33t-55.5 13.5h-133q-72 0 -84 -70h-193l129 618h635l-32 -204h-426l-39 -183q63 45 239 35q117 -6 164 -85t33 -183l-23 -145q-27 -231 -295 -228q-260 0 -440 33z" />
<glyph unicode="&#x2086;" horiz-adv-x="833" d="M41 123q23 137 55.5 230t75.5 139.5t84 66t94 23.5q225 23 477 -27l-28 -170h-363q-45 0 -76.5 -18.5t-48 -58.5t-23.5 -64.5t-16 -75.5q123 31 285 31q127 2 178 -74t33 -180l-23 -144q-18 -119 -88.5 -166t-199.5 -47h-193q-135 0 -202.5 123t-20.5 412zM248 14 q-37 -221 84 -221h117q78 0 88 72l12 80q8 43 -5.5 56t-56.5 13h-239z" />
<glyph unicode="&#x2087;" horiz-adv-x="882" d="M80 373l33 205h716l43 -97l-516 -893h-243l454 785h-487z" />
<glyph unicode="&#x2088;" horiz-adv-x="868" d="M83 -247q-7 42 3 79l14 92q16 115 142 139q-109 53 -86 211l14 86q20 131 98 177.5t207 46.5h232q113 0 171 -65.5t37 -184.5l-10 -70q-4 -25 -15 -49.5t-44 -54t-78 -37.5q59 -16 75.5 -79.5t6.5 -123.5l-16 -113q-12 -74 -38 -120.5t-69 -66t-81 -26t-99 -6.5h-232 q-80 0 -134 25t-72.5 61.5t-25.5 78.5zM313 -147q-6 -37 9.5 -52.5t66.5 -15.5h137q82 0 90 68l11 69q12 76 -64 76h-147q-43 0 -64.5 -17.5t-27.5 -58.5zM377 260q-10 -76 69 -76h142q27 0 45 6.5t27.5 18.5t13.5 22.5t6 28.5l8 47q8 49 -8 65.5t-62 16.5h-133 q-47 0 -69.5 -16.5t-30.5 -65.5z" />
<glyph unicode="&#x2089;" horiz-adv-x="913" d="M68 -393l28 172h363q37 0 65.5 15.5t43 32.5t27.5 56t17 55.5t13 63.5q-111 -27 -285 -31q-129 0 -178 79t-31 188l19 129q18 123 89.5 174t198.5 49l201 -2q135 0 199.5 -130t17.5 -427q-43 -262 -118.5 -351.5t-192.5 -99.5q-237 -22 -477 27zM350 242 q-8 -43 4.5 -58.5t55.5 -15.5h241q33 217 -86 217h-116q-41 0 -60.5 -17.5t-28.5 -58.5z" />
<glyph unicode="&#x20ac;" horiz-adv-x="1441" d="M115 512l22 139l162 17l20 139l-153 16l20 131l160 21q6 45 13.5 77.5t27 93t44 104.5t69.5 97.5t102 87t143 57.5t189 24q96 0 258 -20.5t266 -53.5l-33 -209q-297 29 -464 29q-80 0 -136.5 -15.5t-88 -36t-54.5 -63.5t-31 -77t-18 -95l477 -17l-23 -139l-481 -12 l-20 -139l475 -17l-23 -139q-31 0 -81 -2t-156.5 -5t-176 -5t-67.5 -4q-6 -59 -6 -101.5t17.5 -72t37 -48t54 -28.5t65.5 -13.5t74 -3.5q82 0 202.5 11.5t200.5 22.5l80 11l-35 -204q-209 -82 -555 -82q-59 0 -112.5 8t-124 39t-115.5 82t-67.5 149.5t-2.5 229.5z" />
<glyph unicode="&#x2113;" horiz-adv-x="944" d="M127 520q45 33 135 115l92 569q23 152 129.5 232t284.5 77q135 -4 213 -97t51 -259q-25 -168 -169 -324.5t-326 -275.5l-13 -100q-20 -123 5.5 -175.5t140.5 -72.5q125 -29 135 -29l-29 -178h-264q-158 0 -236.5 89t-52.5 282l6 53q-18 -12 -73 -41zM584 856 q203 213 204 352q9 51 -41 70q-54 20 -86 -28q-12 -18 -16 -44z" />
<glyph unicode="&#x2116;" horiz-adv-x="2265" d="M111 0l198 1264q14 96 83 160.5t156 82t172 5t144.5 -71t61.5 -146.5l131 -1011q0 -18 13 -22.5t26.5 4.5t15.5 24q113 709 137 870q55 340 398 344h512q152 0 204 -85t19 -285q-14 -98 -32.5 -156.5t-54.5 -106t-95.5 -68t-151.5 -22.5h-90q-174 4 -238.5 92.5 t-23.5 341.5h217q-18 -164 -6 -195.5t69 -31.5h66q57 0 82.5 24.5t40.5 121.5q16 104 -1.5 130.5t-88.5 26.5q-164 4 -295 4q-123 0 -178.5 -33.5t-71.5 -136.5l-141 -891q-14 -90 -81 -151.5t-152 -77.5t-169 -1t-143.5 79.5t-61.5 163.5l-129 995q-2 28 -34 17 q-25 -8 -29 -31l-195 -1227h-284z" />
<glyph unicode="&#x2122;" horiz-adv-x="1286" d="M78 1335l24 164h576l-25 -164h-194l-86 -551h-187l86 551h-194zM600 784l191 715h190l53 -412l170 412h203l-27 -715h-186l23 377l-138 -377h-166l-34 377l-91 -377h-188z" />
<glyph unicode="&#x212e;" horiz-adv-x="1413" d="M129 545q0 231 172 393q172 154 444 154q252 0 426 -136q178 -137 191 -428h-981q-2 0 -5 1q-7 0 -10.5 -0.5t-6.5 -6.5t-3 -16v-273q0 -51 116 -120.5t273 -69.5q113 0 218.5 48t173.5 124h114q-119 -125 -231 -170q-119 -45 -275 -45q-283 0 -446 152 q-170 157 -170 393zM356 582q0 -18 19 -19h731q25 0 25 2q1 3 2 13v272q0 66 -129.5 134.5t-260.5 68.5q-102 0 -196 -39t-142.5 -82t-48.5 -70v-280z" />
<glyph unicode="&#x2202;" horiz-adv-x="1292" d="M160 487q37 227 186.5 346t382.5 119q205 0 285 -116q29 225 -25.5 320t-195.5 95q-211 0 -398 -104l-14 209q137 82 238.5 121t222.5 39q270 0 388 -214.5t64 -553.5q-117 -758 -682 -758q-213 0 -348 141t-104 356zM444 471q-16 -102 44.5 -161.5t158.5 -59.5 q94 0 168 79t105.5 159.5t42.5 148.5q-90 55 -230 55q-131 0 -202 -60.5t-87 -160.5z" />
<glyph unicode="&#x2206;" horiz-adv-x="1464" d="M31 0l874 1499h156l375 -1499h-1405zM471 254h674l-207 817z" />
<glyph unicode="&#x220f;" horiz-adv-x="1333" d="M184 0l195 1235h-154l43 264h1272l-43 -264h-156l-194 -1235h-287l195 1235h-389l-195 -1235h-287z" />
<glyph unicode="&#x2211;" horiz-adv-x="1171" d="M-2 -410l41 271l549 692l-330 682l43 264h1077l-43 -264h-733l336 -696l-518 -678h696l-41 -271h-1077z" />
<glyph unicode="&#x2212;" horiz-adv-x="921" d="M147 608l27 242h852l-27 -242h-852z" />
<glyph unicode="&#x221a;" horiz-adv-x="1349" d="M106 492l44 264h331l113 -365l676 1247h307l-877 -1638h-278l-174 492h-142z" />
<glyph unicode="&#x221e;" horiz-adv-x="1368" d="M94 721q41 332 406 332q205 0 317 -195q147 195 389 195q98 0 165 -34t93.5 -88t37.5 -121t-3 -134q-41 -330 -405 -330q-227 0 -330 197q-76 -106 -164 -151.5t-213 -45.5q-121 0 -192.5 58.5t-92 139.5t-8.5 177zM313 698q-18 -145 121 -145q47 0 93 23.5t73 50 t66 71.5q-74 147 -185 148q-88 0 -124 -38t-44 -110zM924 696q35 -68 75.5 -105.5t110.5 -37.5q150 0 172 145q10 72 -13.5 110t-111.5 38q-116 0 -233 -150z" />
<glyph unicode="&#x222b;" horiz-adv-x="907" d="M-27 -367l29 179h129q41 0 74 23.5t52 55t36.5 89t25 95.5t19.5 105l135 856q96 602 414 602q45 0 82 -4t62.5 -10t40.5 -12t32.5 -14.5t21.5 -10.5l-28 -178h-123q-51 0 -89 -29.5t-61.5 -89t-37 -115t-27.5 -139.5l-135 -856q-47 -291 -140.5 -444.5t-267.5 -153.5 t-244 51z" />
<glyph unicode="&#x2248;" horiz-adv-x="1042" d="M162 532q186 145 323 146q61 0 146.5 -38t146.5 -38q20 0 38 1t37 6t30.5 8.5t34.5 13.5l31 14q9 4 37 18.5t38 18.5l29 -127q-61 -49 -94 -73.5t-95.5 -51.5t-120.5 -27q-51 0 -140 39t-152 39q-47 0 -88 -12t-92.5 -33.5t-86.5 -32.5zM219 903q186 145 324 146 q61 0 147 -38t148 -38q23 0 46 3t37.5 6t40 13.5t34 14.5t42 21.5t43.5 21.5l31 -129q-61 -49 -94 -73t-96.5 -50.5t-120.5 -26.5q-49 0 -139.5 39t-153.5 39q-47 0 -88 -12.5t-91 -34t-87 -31.5z" />
<glyph unicode="&#x2260;" horiz-adv-x="1095" d="M242 377l39 248h307l143 188h-420l39 246h561l103 135h147l-102 -135h166l-41 -246h-305l-144 -188h420l-39 -248h-563l-117 -156h-147l117 156h-164z" />
<glyph unicode="&#x2264;" horiz-adv-x="1085" d="M180 166l35 219h768l-35 -219h-768zM274 764l41 264l813 275l-43 -267l-497 -151l450 -156l-43 -256z" />
<glyph unicode="&#x2265;" horiz-adv-x="876" d="M102 166l35 219h768l-33 -219h-770zM150 469l43 268l505 166l-458 144l41 251l725 -272l-43 -266z" />
<glyph unicode="&#x25ca;" horiz-adv-x="1048" d="M152 764l540 735h152l295 -735l-533 -764h-151zM428 754l145 -389l299 415l-151 363z" />
<glyph unicode="&#xe000;" horiz-adv-x="1085" d="M0 1085h1085v-1085h-1085v1085z" />
<glyph unicode="&#xfb00;" horiz-adv-x="1636" d="M168 868l29 185l209 34l28 183q8 55 29.5 106t59.5 101.5t104.5 81t154.5 30.5q158 0 277 -49l-29 -170h-180q-76 2 -100.5 -35t-38.5 -125l-19 -123h492l33 203q49 319 370 320q154 0 266 -49l-28 -170l-193 2q-43 0 -67.5 -8.5t-39 -35t-20.5 -50t-14 -76.5l-21 -136 h246l-35 -219h-247l-138 -868h-286l137 868h-494l-137 -868h-287l138 868h-199z" />
<glyph unicode="&#xfb03;" horiz-adv-x="2062" d="M168 868l29 185l209 34l28 183q8 55 29.5 106t59.5 101.5t104.5 81t154.5 30.5q158 0 277 -49l-29 -170h-180q-41 0 -65.5 -8t-39 -37t-19.5 -46t-15 -69l-23 -123h459l12 82q29 193 169 316t345 125q111 2 260.5 -11.5t206.5 -37.5l-26 -170l-373 2q-258 0 -297 -236 l-10 -70l704 -20l-168 -1067h-287l138 868h-424l-137 -868h-287l137 868h-457l-137 -868h-287l138 868h-199z" />
<glyph unicode="&#xfb04;" horiz-adv-x="2250" d="M168 868l29 185l209 34l28 183q8 55 29.5 106t59.5 101.5t104.5 81t154.5 30.5q158 0 277 -49l-29 -170h-180q-76 2 -99.5 -34t-39.5 -126l-23 -123h463l14 93q35 223 155 324.5t316 105.5l611 -4l-187 -1174q-14 -121 -0.5 -156.5t62.5 -56.5q115 -43 129 -43l-27 -176 h-203q-154 0 -220 90t-34 297l158 1004l-266 2q-90 0 -139.5 -45t-67.5 -168l-14 -93h245l-34 -219h-248l-137 -868h-287l137 868h-461l-137 -868h-287l138 868h-199z" />
<glyph unicode="&#xfb06;" horiz-adv-x="1816" d="M115 43l28 180h512q72 0 84 68l11 53q4 37 -8.5 53.5t-55.5 16.5h-244q-147 0 -217.5 80.5t-46.5 234.5l12 94q35 264 338 264h895l95 304h239l-47 -304h242l-35 -217h-244l-67 -438q-14 -129 -3 -162.5t64 -52.5q111 -39 119 -39l-29 -180h-207q-301 0 -239 389l75 471 h-817q-84 0 -96 -76l-8 -49q-6 -14 -2 -25.5t2 -19.5t6 -12t10 -7t13.5 -4t14.5 -1h15h15h249q147 0 209 -88.5t41 -217.5l-16 -120q-33 -254 -311 -254q-514 0 -596 59z" />
<glyph horiz-adv-x="1263" d="M170 365l88 553q61 377 414 376h336q141 0 222 -54t101.5 -132t3.5 -178l-90 -565q-29 -182 -127 -273.5t-272 -91.5h-336q-180 0 -274.5 93.5t-65.5 271.5zM463 327q8 -32 32.5 -44.5t44 -15.5t54.5 -3h199q76 0 116.5 33t55.5 113l75 475q12 78 -14.5 111.5t-99.5 33.5 h-215q-145 0 -172 -145l-76 -473q-8 -53 0 -85z" />
<glyph horiz-adv-x="741" d="M158 940l28 188q66 0 169.5 58.5t148.5 109.5l284 -2l-192 -1294h-285l152 1004q-86 -64 -305 -64z" />
<glyph horiz-adv-x="1212" d="M78 0l41 252q416 198 583 305q265 171 285 299q16 102 -29 141t-180 37h-532l37 213q307 53 618 53q227 0 317.5 -124.5t63.5 -321.5q-12 -111 -80.5 -214t-167 -178t-174.5 -120t-149 -78h456l-43 -264h-1046z" />
<glyph horiz-adv-x="1202" d="M78 -156l33 209h520q109 0 165 29t68 111l10 65q8 51 1 83t-35.5 46t-56 19.5t-83.5 7.5l-405 16l39 232l409 18q111 4 162 36t64 109l12 74q14 86 -35 113.5t-145 27.5h-547l33 207q88 29 204.5 43.5t228 15.5t238.5 -1q162 -4 251 -112t63 -271l-17 -109 q-41 -233 -202 -266q152 -55 108 -330l-14 -86q-53 -344 -442 -344h-75h-80q-15 0 -71.5 1t-77 2t-67.5 4t-71.5 7t-61.5 10.5t-65.5 14.5t-57.5 18z" />
<glyph horiz-adv-x="1255" d="M66 254l696 1040h321l-591 -901h364l55 342l93 158h221l-80 -500h151l-34 -221l-160 -49l-49 -324h-289l49 324h-698z" />
<glyph horiz-adv-x="1226" d="M70 -164l36 225h578q150 0 170 146l20 131q25 152 -110 151h-189q-125 0 -145 -120h-274l192 925h912l-43 -264h-631l-70 -338q61 43 160 51q66 6 211 -2q156 -8 229.5 -116.5t48.5 -272.5l-32 -227q-16 -100 -58.5 -169t-106 -103.5t-127 -49t-145.5 -16.5 q-193 -4 -309 5t-317 44z" />
<glyph horiz-adv-x="1204" d="M93 410.5q-1 156.5 32 398.5q106 668 469 696q231 20 643 -41l-33 -217h-514q-66 0 -114 -34.5t-76.5 -98t-44 -118t-29.5 -128.5q178 41 422 41q102 0 170.5 -32.5t95.5 -87t36 -121t-7 -131.5l-35 -234q-27 -174 -131.5 -239.5t-284.5 -65.5h-291q-90 0 -152.5 36 t-108.5 128t-47 248.5zM383 373.5q27 -113.5 141 -113.5h162q129 0 152 129l20 137q14 78 -7.5 104.5t-94.5 26.5h-363q-37 -170 -10 -283.5z" />
<glyph horiz-adv-x="1163" d="M193 1030l40 264h967l55 -131l-718 -1368h-314l658 1235h-688z" />
<glyph horiz-adv-x="1261" d="M170 367l23 149q14 92 69 147.5t139 65.5q-166 74 -122 315l20 134q16 102 55 169.5t99.5 102.5t126 47t157.5 12h310q170 0 248.5 -98t50.5 -281l-17 -108q-6 -59 -55 -130t-141 -87q82 -20 105.5 -115.5t8.5 -185.5l-28 -176q-14 -92 -46 -155.5t-68 -96.5t-92.5 -51.5 t-98.5 -21.5t-109 -3h-307q-385 0 -328 367zM461 375q-10 -68 18.5 -94.5t108.5 -26.5h192q139 0 156 121l22 143q18 127 -108 127h-209q-137 0 -158 -127zM561 1012q-20 -127 119 -127h205q80 0 111.5 32.5t39.5 94.5l15 96q14 90 -12.5 119.5t-98.5 29.5h-192 q-84 0 -121 -31.5t-49 -117.5z" />
<glyph horiz-adv-x="1228" d="M162 -170l35 217h512q66 0 113.5 35t77.5 98.5t45.5 117.5t29.5 128q-178 -41 -422 -41q-102 0 -171 35t-94.5 90t-34.5 123.5t5 134.5l33 211q27 176 131 246.5t283 70.5h290q412 0 279 -833q-31 -195 -82 -331t-117.5 -205.5t-129 -100.5t-138.5 -37q-231 -20 -645 41z M541 768q-12 -78 8 -104.5t96 -26.5h363q35 170 8 283.5t-142 113.5h-159q-131 0 -152 -129z" />
<glyph horiz-adv-x="1662" d="M132 40q-15 83 3 173l158 993q35 217 163 313.5t359 96.5h746q209 0 285.5 -128t43.5 -349l-98 -668q-23 -150 -109 -238t-286 -88h-191l-47 113q-102 -129 -274 -127q-188 2 -272.5 147.5t-39.5 442.5q25 162 76 273.5t120 165.5t134.5 74.5t145.5 20.5q322 0 462 -135 l-106 -743q80 0 112.5 32.5t51.5 151.5l90 600q20 141 -17.5 182t-138.5 41h-737q-70 0 -118 -20.5t-72.5 -58t-36 -69.5t-17.5 -75l-153 -968q-16 -102 19.5 -157.5t156.5 -55.5h790l-28 -175q-276 -55 -598 -55h-189q-121 0 -207 39t-126 103.5t-55 147.5zM800.5 448.5 q26.5 -90.5 131.5 -88.5q168 2 256 136l78 512q-96 20 -226 20q-94 0 -152 -75.5t-85 -270.5q-29 -143 -2.5 -233.5z" />
<glyph horiz-adv-x="1105" d="M121 420l22 149q33 209 161 291t364 62l15 90q15 90 15 94h232l-64 -399q-117 4 -233 0q-178 -8 -205 -168l-18 -109q-14 -90 34 -133t164 -43h510l-33 -209q-330 -66 -587 -53q-207 0 -305.5 131t-71.5 297zM707 1274l28 184q8 47 58 47h178q47 0 41 -47l-29 -184 q-6 -51 -57 -51h-178q-47 0 -41 51z" />
<glyph horiz-adv-x="1058" d="M29 -215l88 448q10 68 49 122.5t108 54.5q-131 80 -92 327q55 362 430 355l203 -5q59 0 112.5 -19t103.5 -62t71.5 -129t3.5 -205q-20 -145 -123.5 -257t-300.5 -112h-188h-18h-19q-6 0 -17.5 -1t-17.5 -5t-12.5 -12.5t-8.5 -20.5q-6 -29 14.5 -41t61.5 -18l289 -49 q121 -23 195.5 -102t54.5 -214l-17 -90q-10 -70 -29.5 -118t-60.5 -94t-115.5 -68.5t-183.5 -22.5h-252q-197 0 -278.5 92t-50.5 246zM319 -205q-14 -68 12.5 -90t88.5 -22h182q57 0 83 25.5t34 76.5l4 39q8 53 -15.5 76.5t-82.5 33.5l-271 41zM469 705q-14 -88 4.5 -134.5 t93.5 -46.5h107q121 0 145 181q14 92 -3 129.5t-89 37.5h-104q-78 0 -108 -38.5t-46 -128.5z" />
<glyph horiz-adv-x="657" d="M168 -303l201 1091h233l-143 -1091h-291zM379 967l29 180q6 43 57 47h174q18 -2 30.5 -17.5t10.5 -35.5l-29 -174q-8 -47 -51 -54h-182q-45 5 -39 54z" />
<glyph horiz-adv-x="2002" d="M172 678l25 174q14 102 48 172t78 111t117.5 62.5t145 28.5t186.5 7h881l78 256h249l-41 -258h228l-31 -193l-233 -41l-88 -583q-20 -131 -78 -218t-146 -128t-176 -55.5t-205 -14.5h-331q-80 0 -148.5 17.5t-125 54t-83 103.5t-14.5 159q-174 0 -268.5 85t-67.5 261z M459 664q-10 -61 8 -84t76 -25q29 180 140.5 259t303.5 79h152q156 0 246 -65.5t65 -235.5q-12 -72 -38 -121t-55.5 -74.5t-86 -39t-98.5 -15.5t-123 -2h-252q-6 -45 10 -68.5t38.5 -28.5t72.5 -7h329q248 0 281 215l86 546h-869q-145 -2 -195 -33.5t-67 -134.5zM829 553 h248q49 0 65.5 10t24.5 53q6 39 -7 50.5t-62 11.5h-133q-63 0 -92.5 -21.5t-43.5 -103.5z" />
<glyph horiz-adv-x="821" d="M217 1163q20 109 61 180.5t97.5 102.5t100.5 41t106 12q98 4 213.5 -19.5t165.5 -70.5l-97 -659h-162l-38 98q-68 -109 -242 -109q-125 0 -184.5 107.5t-20.5 316.5zM420 979.5q14 -53.5 72 -53.5q109 0 188 75l47 310q-94 25 -166 14q-112 -14 -137 -192 q-18 -100 -4 -153.5z" />
<glyph horiz-adv-x="847" d="M201 758l170 1073h219l-60 -379q119 53 236 53q80 0 129 -35.5t65.5 -94t18.5 -132.5t-12 -151q-23 -176 -99.5 -259t-222.5 -83q-109 0 -211 92l-57 -84h-176zM457 981q74 -41 157 -41q106 0 134 190q16 123 -1.5 162t-70.5 39q-76 0 -168 -28z" />
<glyph horiz-adv-x="729" d="M238 1143q35 213 110.5 280.5t208.5 67.5q193 0 346 -49l-22 -139q-125 10 -252 10q-41 0 -61.5 -4t-44 -21.5t-38 -58.5t-26.5 -111q-18 -121 4 -154.5t104 -33.5l267 10l-23 -137q-147 -53 -362 -53q-123 2 -183.5 99t-27.5 294z" />
<glyph horiz-adv-x="847" d="M236 964.5q-8 90.5 4 190.5q27 170 96.5 261t224.5 91q119 0 219 -55l60 381h219l-170 -1075h-176l-33 84q-121 -92 -229 -92q-94 0 -150.5 62t-64.5 152.5zM461 1133q-14 -109 3 -151t68 -42q92 0 173 51l49 316q-76 25 -158 24q-55 0 -86 -38.5t-49 -159.5z" />
<glyph horiz-adv-x="802" d="M244 1159q31 184 108.5 260t274.5 76q145 2 236 -49t81 -170q-8 -111 -80.5 -173.5t-163 -72.5t-161 -6t-97.5 14q-12 -70 14.5 -94t94.5 -24q147 -8 315 20l-26 -156q-193 -59 -408 -43q-133 8 -178 111.5t-10 306.5zM455 1163q10 -2 27.5 -5t62.5 -6t81 2t68.5 27.5 t38.5 59.5q8 45 -22.5 60.5t-94.5 15.5q-47 0 -76.5 -10.5t-46 -34t-23.5 -46t-15 -63.5z" />
<glyph horiz-adv-x="634" d="M242 1317l22 143l125 31l19 96q51 246 282 246q111 0 199 -37l-25 -131h-139q-31 0 -51.5 -7t-30.5 -30.5t-12 -36t-8 -49.5l-11 -55h181l-27 -170h-182l-88 -559h-222l88 559h-120z" />
<glyph horiz-adv-x="827" d="M168 410l25 149h333q129 0 148 125l18 121q-94 -57 -205 -57q-158 0 -215 112.5t-24 304.5q33 184 121 262t233 78q246 0 416 -47l-127 -811q-23 -147 -116 -217t-247 -53zM463.5 989.5q15.5 -67.5 91.5 -67.5t160 24l61 387h-155q-41 0 -70 -17.5t-44 -54t-21.5 -57 t-14.5 -65.5q-23 -82 -7.5 -149.5z" />
<glyph horiz-adv-x="864" d="M207 758l170 1069h221l-68 -426q111 74 171 90q45 12 96 12q238 0 196 -258l-75 -487h-224l74 469q16 96 -70 96q-88 0 -188 -59l-82 -506h-221z" />
<glyph horiz-adv-x="395" d="M205 758l114 729h222l-115 -729h-221zM334 1595l22 138q6 39 43 39h164q35 0 29 -39l-23 -138q-6 -35 -41 -34h-163q-37 -1 -31 34z" />
<glyph horiz-adv-x="395" d="M147 385l175 1100h223l-117 -733q-33 -233 -113 -367h-168zM336 1593l22 140q6 39 43 39h164q35 0 29 -39l-23 -140q-6 -35 -41 -34h-163q-37 -1 -31 34z" />
<glyph horiz-adv-x="813" d="M207 758l170 1067h221l-98 -602q94 31 177 104.5t111 159.5h234q-33 -119 -115 -207t-164 -129l232 -393h-252l-188 336l-54 -2l-53 -334h-221z" />
<glyph horiz-adv-x="495" d="M248 1022l127 805h223l-121 -764q-10 -78 -2 -102.5t43 -36.5q84 -29 94 -29l-20 -137h-152q-235 0 -192 264z" />
<glyph horiz-adv-x="1353" d="M201 758l114 725h177l24 -90q110 73 166 88q44 12 96 12q156 0 195 -104q158 104 305 104q119 0 169 -70.5t32 -183.5l-76 -481h-221l73 463q12 94 -71 94q-111 0 -193 -55q-8 -16 -8 -48l-72 -454h-221l72 463q14 94 -72 94q-90 0 -190 -60l-78 -497h-221z" />
<glyph horiz-adv-x="864" d="M207 758l115 725h174l28 -86q4 2 32 20.5t35 21.5t31.5 17t38 18.5t36 11.5t45 9t49.5 2q244 0 202 -256l-75 -483h-224l76 465q14 96 -72 96q-90 0 -190 -59l-80 -502h-221z" />
<glyph horiz-adv-x="813" d="M240 1130q31 215 113.5 289t287.5 74q197 0 258.5 -93t30.5 -308q-31 -203 -110 -272.5t-285 -69.5q-195 0 -260.5 88.5t-34.5 291.5zM449 1112q-20 -123 3 -153.5t103 -30.5q88 0 115.5 27.5t50.5 156.5q20 135 2 168t-106.5 33t-118 -33t-49.5 -168z" />
<glyph horiz-adv-x="839" d="M147 389l170 1067q156 43 424 43q139 0 195.5 -104.5t32.5 -286.5q-25 -186 -97.5 -279.5t-230.5 -93.5q-137 0 -209 62l-65 -408h-220zM455 940q70 -29 151 -29q61 0 92 44t52 171q8 61 7 105.5t-22.5 70t-64.5 25.5h-154z" />
<glyph horiz-adv-x="845" d="M246 1153q33 190 121 268t235 78q254 0 406 -45l-170 -1075h-222l66 416q-94 -59 -199 -60q-156 0 -212 112.5t-25 305.5zM459.5 976.5q15.5 -67.5 93.5 -67.5q63 0 152 29l61 389h-145q-41 0 -71 -18.5t-46.5 -55t-22.5 -61.5t-14 -66q-23 -82 -7.5 -149.5z" />
<glyph horiz-adv-x="638" d="M201 758l114 725h187l10 -105q129 113 242 113q63 0 86 -10l-33 -213q-41 4 -111 4q-129 0 -204 -76l-70 -438h-221z" />
<glyph horiz-adv-x="741" d="M211 791l22 139h353q51 0 57 43l4 24q2 25 -6 34t-37 9h-170q-96 0 -146 59.5t-36 153.5l8 64q29 178 223 178q342 0 400 -41l-23 -143h-338q-59 0 -65 -43l-2 -27q-4 -29 8 -37t41 -8h174q100 0 144 -56.5t34 -131.5l-14 -80q-31 -182 -211 -183q-365 1 -420 46z" />
<glyph horiz-adv-x="577" d="M242 1317l18 137l137 37l66 201h184l-33 -203h170l-26 -172h-170l-43 -260q-10 -80 -2 -100.5t47 -32.5q78 -27 84 -27l-23 -137h-151q-100 0 -152.5 60.5t-30.5 191.5l48 305h-123z" />
<glyph horiz-adv-x="858" d="M229 1004l78 479h221l-73 -465q-14 -94 69 -94q92 0 185 57l77 502h224l-115 -725h-174l-29 92q-55 -41 -79.5 -57.5t-74 -33t-106.5 -16.5q-242 1 -203 261z" />
<glyph horiz-adv-x="788" d="M264 1483h217l86 -477l172 325q33 55 43 154h207q27 -98 -39 -215l-299 -512h-227z" />
<glyph horiz-adv-x="1214" d="M264 1483h215l84 -473l174 321q33 57 43 154h207q20 -74 -14 -166q-2 -2 -21.5 -37t-21.5 -39l59 -233l172 321q33 55 43 154h209q23 -98 -41 -215l-297 -512h-221l-68 256l-135 -256h-229z" />
<glyph horiz-adv-x="823" d="M152 752l313 378l-203 351h240l108 -215l172 215h246l-317 -385l198 -344h-233l-107 211l-168 -211h-249z" />
<glyph horiz-adv-x="849" d="M268 1485h224l65 -500q6 -57 59 -57l185 379q29 76 39 178h209q23 -100 -31 -219l-244 -508q-186 -381 -489 -428v141q92 59 160.5 144t97.5 145q-84 2 -133.5 50t-57.5 122z" />
<glyph horiz-adv-x="739" d="M199 760l28 186l381 348h-346l29 189h629l-27 -168l-383 -367h324l-29 -188h-606z" />
<glyph d="M145 365l121 757q61 377 414 377h336q195 0 273.5 -105.5t53.5 -258.5l-122 -770q-59 -365 -398 -365h-336q-180 0 -275.5 93.5t-66.5 271.5zM440 412q-8 -53 0.5 -85t33 -44.5t44 -15.5t53.5 -3h199q76 0 117 33t55 113l109 680q12 76 -15.5 110.5t-101.5 34.5h-217 q-145 0 -168 -145z" />
<glyph d="M246 0l39 246h301l155 958q-90 -61 -301 -61l29 186q63 0 167.5 59.5t149.5 110.5h285l-199 -1253h297l-39 -246h-884z" />
<glyph d="M100 0l41 252q104 63 233.5 153.5t281 208t258 237.5t118.5 204q16 106 -34 152t-183 46h-530l34 213q309 53 621 54q213 0 309.5 -141.5t69.5 -348.5q-10 -90 -68.5 -189.5t-126 -174t-169 -161.5t-159 -129t-135.5 -98q-14 -10 -20 -14h551l-43 -264h-1049z" />
<glyph d="M121 43l33 209h520q109 0 165 28.5t68 110.5l11 66q8 53 0.5 84.5t-37 46t-55 18.5t-83.5 6l-405 17l39 231l409 19q111 4 162 35.5t64 111.5l12 72q14 86 -35 113.5t-145 27.5h-547l33 207q88 29 204.5 43t228 15t238.5 -1q162 -4 251 -111.5t63 -271.5l-17 -108 q-41 -233 -202 -267q152 -55 108 -327l-14 -88q-53 -344 -442 -344h-75h-80q-15 0 -71.5 1t-77 2t-67.5 4t-71.5 7t-61.5 10t-65.5 14.5t-57.5 18.5z" />
<glyph d="M115 459l698 1040h320l-590 -901h362l56 342l92 158h223l-80 -500h150l-33 -221l-160 -49l-51 -324h-289l51 324h-700z" />
<glyph d="M125 43l37 225h577q150 0 170 146l21 131q25 152 -113 151h-186q-125 0 -146 -121h-274l192 926h912l-43 -264h-633l-70 -338q61 43 160 51q66 6 211 -2q158 -8 231.5 -116.5t49.5 -272.5l-33 -227q-16 -100 -58.5 -169t-107 -103.5t-128 -49t-144.5 -16.5 q-190 -4 -308 5t-317 44z" />
<glyph d="M185 410.5q-1 156.5 32 398.5q106 668 469 696q305 27 645 -41l-35 -217h-512q-201 0 -264 -379q178 41 420 41q102 0 172 -32.5t95.5 -87t34.5 -121t-5 -131.5l-37 -234q-27 -174 -131 -239.5t-285 -65.5h-290q-90 0 -152.5 36t-109 128t-47.5 248.5zM475 373.5 q27 -113.5 141 -113.5h162q131 0 152 129l22 137q12 78 -8 104.5t-96 26.5h-363q-37 -170 -10 -283.5z" />
<glyph d="M299 1235l43 264h965l55 -131l-717 -1368h-313l655 1235h-688z" />
<glyph d="M160 367l22 149q14 92 69.5 147.5t137.5 65.5q-162 74 -123 315l21 134q31 195 140.5 263t297.5 68h311q170 0 249 -98t50 -281l-18 -108q-8 -59 -55.5 -130t-141.5 -87q84 -20 107.5 -115.5t7.5 -185.5l-27 -176q-18 -113 -58 -183.5t-103.5 -99.5t-115.5 -37t-136 -8 h-308q-384 0 -327 367zM451 375q-10 -68 18.5 -94.5t108.5 -26.5h192q135 0 156 121l20 143q23 127 -108 127h-207q-137 0 -158 -127zM551 1012q-20 -127 117 -127h204q80 0 112 32.5t42 94.5l14 96q14 90 -12.5 119.5t-97.5 29.5h-193q-84 0 -120.5 -31.5t-51.5 -117.5z " />
<glyph d="M150 41l32 217h514q201 0 265 379q-162 -39 -422 -43q-102 0 -171 35t-94.5 91t-35 124.5t7.5 134.5l33 211q27 176 131 245.5t282 69.5h291q92 0 155.5 -39t108.5 -134t46 -256t-31 -402q-25 -158 -65 -276.5t-85 -191.5t-101.5 -119t-106.5 -64.5t-109 -24.5 q-338 -27 -645 43zM528 979q-12 -78 8.5 -104.5t94.5 -26.5h364q16 115 18.5 203t-34.5 141t-117 53h-162q-129 0 -151 -129z" />
<glyph d="M145 365l91 553q61 377 413 376h336q141 0 222 -54t101.5 -132t4.5 -178l-92 -565q-59 -365 -398 -365h-336q-180 0 -275.5 93.5t-66.5 271.5zM440 412q-8 -53 0.5 -85t33 -44.5t44 -15.5t53.5 -3h199q76 0 117 33t55 113l76 475q12 78 -14.5 111.5t-100.5 33.5h-215 q-150 0 -172 -145z" />
<glyph d="M270 0l37 246h291l115 753q-88 -61 -301 -61l28 186q63 0 168 59.5t150 110.5h282l-151 -1048h285l-37 -246h-867z" />
<glyph d="M100 0l41 252q416 198 583 305q265 171 286 299q16 102 -29 141t-180 37h-533l35 213q309 53 621 53q227 0 317 -124.5t64 -321.5q-12 -111 -81 -214t-167.5 -178t-174 -120t-149.5 -78h457l-43 -264h-1047z" />
<glyph d="M90 -156l33 209h520q109 0 165 29t69 111l10 65q8 51 1 83t-36 46t-56.5 19.5t-82.5 7.5l-406 16l39 232l410 18q111 4 162 36t63 109l12 74q14 86 -35 113.5t-145 27.5h-547l33 207q88 29 205 43.5t228.5 15.5t238.5 -1q162 -4 251 -112t62 -271l-16 -109 q-41 -233 -203 -266q152 -55 109 -330l-15 -86q-53 -344 -442 -344h-75h-80q-15 0 -71.5 1t-77 2t-67.5 4t-71.5 7t-61.5 10.5t-65.5 14.5t-57.5 18z" />
<glyph d="M82 254l698 1040h320l-590 -901h362l56 342l92 158h223l-80 -500h150l-33 -221l-160 -49l-51 -324h-289l51 324h-700z" />
<glyph d="M92 -164l37 225h578q150 0 170 146l20 131q25 152 -113 151h-186q-125 0 -145 -120h-275l193 925h911l-43 -264h-633l-69 -338q61 43 159 51q66 6 211 -2q158 -8 231.5 -116.5t49.5 -272.5l-33 -227q-16 -100 -58 -169t-106.5 -103.5t-128 -49t-145.5 -16.5 q-190 -4 -308 5t-317 44z" />
<glyph d="M185 410.5q-1 156.5 32 398.5q106 668 469 696q283 25 645 -41l-35 -217h-512q-201 0 -264 -379q178 41 420 41q102 0 172 -32.5t95.5 -87t34.5 -121t-5 -131.5l-37 -234q-27 -174 -131 -239.5t-285 -65.5h-290q-90 0 -152.5 36t-109 128t-47.5 248.5zM475 373.5 q27 -113.5 141 -113.5h162q131 0 152 129l22 137q12 78 -8 104.5t-96 26.5h-363q-37 -170 -10 -283.5z" />
<glyph d="M266 1030l43 264h965l55 -131l-717 -1368h-313l655 1235h-688z" />
<glyph d="M160 367l22 149q14 92 69.5 147.5t137.5 65.5q-162 74 -123 315l21 134q31 195 140.5 263t297.5 68h311q170 0 249 -98t50 -281l-18 -108q-8 -59 -55.5 -130t-141.5 -87q84 -20 107.5 -115.5t7.5 -185.5l-27 -176q-18 -113 -58 -183.5t-103.5 -99.5t-115.5 -37t-136 -8 h-308q-384 0 -327 367zM451 375q-10 -68 18.5 -94.5t108.5 -26.5h192q135 0 156 121l20 143q23 127 -108 127h-207q-137 0 -158 -127zM551 1012q-20 -127 117 -127h204q80 0 112 32.5t42 94.5l14 96q14 90 -12.5 119.5t-97.5 29.5h-193q-84 0 -120.5 -31.5t-51.5 -117.5z " />
<glyph d="M117 -170l33 217h514q201 0 264 379q-178 -41 -422 -41q-102 0 -171 35t-94.5 90t-34.5 123.5t7 134.5l33 211q27 176 131 246.5t282 70.5h291q412 0 279 -833q-31 -195 -82 -331t-117.5 -205.5t-129 -100.5t-138.5 -37q-336 -31 -645 41zM496 768q-12 -78 8 -104.5 t94 -26.5h365q35 170 8 283.5t-142 113.5h-161q-129 0 -152 -129z" />
<glyph horiz-adv-x="1058" d="M29 -215l88 448q10 68 49 122.5t108 54.5q-131 80 -92 327q55 362 430 355l203 -5q59 0 112.5 -19t103.5 -62t71.5 -129t3.5 -205q-20 -145 -123.5 -257t-300.5 -112h-188h-18h-19q-6 0 -17.5 -1t-17.5 -5t-12.5 -12.5t-8.5 -20.5q-6 -29 14.5 -41t61.5 -18l289 -49 q121 -23 195.5 -102t54.5 -214l-17 -90q-10 -70 -29.5 -118t-60.5 -94t-115.5 -68.5t-183.5 -22.5h-252q-197 0 -278.5 92t-50.5 246zM319 -205q-14 -68 12.5 -90t88.5 -22h182q57 0 83 25.5t34 76.5l4 39q8 53 -15.5 76.5t-82.5 33.5l-271 41zM469 705q-14 -88 4.5 -134.5 t93.5 -46.5h107q121 0 145 181q14 92 -3 129.5t-89 37.5h-104q-78 0 -108 -38.5t-46 -128.5zM498 1456h116q-6 -55 22 -86t77 -31q121 0 135 117h117q-12 -113 -78 -172t-174 -59q-98 0 -160.5 62.5t-54.5 168.5z" />
<glyph horiz-adv-x="1058" d="M29 -215l88 448q10 68 49 122.5t108 54.5q-131 80 -92 327q55 362 430 355l203 -5q59 0 112.5 -19t103.5 -62t71.5 -129t3.5 -205q-20 -145 -123.5 -257t-300.5 -112h-188h-18h-19q-6 0 -17.5 -1t-17.5 -5t-12.5 -12.5t-8.5 -20.5q-6 -29 14.5 -41t61.5 -18l289 -49 q121 -23 195.5 -102t54.5 -214l-17 -90q-10 -70 -29.5 -118t-60.5 -94t-115.5 -68.5t-183.5 -22.5h-252q-197 0 -278.5 92t-50.5 246zM319 -205q-14 -68 12.5 -90t88.5 -22h182q57 0 83 25.5t34 76.5l4 39q8 53 -15.5 76.5t-82.5 33.5l-271 41zM469 705q-14 -88 4.5 -134.5 t93.5 -46.5h107q121 0 145 181q14 92 -3 129.5t-89 37.5h-104q-78 0 -108 -38.5t-46 -128.5zM602 1272l27 155q6 51 57 52h148q47 0 38 -52l-26 -155q-6 -47 -53 -47h-148q-49 0 -43 47z" />
<glyph horiz-adv-x="1058" d="M29 -215l88 448q10 68 49 122.5t108 54.5q-131 80 -92 327q55 362 430 355l203 -5q59 0 112.5 -19t103.5 -62t71.5 -129t3.5 -205q-20 -145 -123.5 -257t-300.5 -112h-188h-18h-19q-6 0 -17.5 -1t-17.5 -5t-12.5 -12.5t-8.5 -20.5q-6 -29 14.5 -41t61.5 -18l289 -49 q121 -23 195.5 -102t54.5 -214l-17 -90q-10 -70 -29.5 -118t-60.5 -94t-115.5 -68.5t-183.5 -22.5h-252q-197 0 -278.5 92t-50.5 246zM319 -205q-14 -68 12.5 -90t88.5 -22h182q57 0 83 25.5t34 76.5l4 39q8 53 -15.5 76.5t-82.5 33.5l-271 41zM383 1225l264 276h213 l154 -276h-185l-88 133l-147 -133h-211zM469 705q-14 -88 4.5 -134.5t93.5 -46.5h107q121 0 145 181q14 92 -3 129.5t-89 37.5h-104q-78 0 -108 -38.5t-46 -128.5z" />
<glyph horiz-adv-x="1746" d="M145 573q25 143 62 242.5t76 153t97 81t103 34t119 6.5h762l96 301h238l-47 -304h241l-34 -219h-242l-70 -436q-14 -129 -3 -162.5t65 -52.5q113 -39 121 -39l-29 -180h-207q-301 0 -240 389l76 481l-639 -2q-97 0 -130 -19q-84 -50 -130 -317q-12 -104 -17 -166.5 t19.5 -95t55 -42t90.5 -9.5q84 0 182 4t155 9l58 6l-29 -181q-215 -70 -518 -69q-377 3 -281 587z" />
<glyph horiz-adv-x="1546" d="M168 870l25 160l186 60l96 303h238l-47 -303h493l96 303h238l-47 -303h244l-35 -220h-244l-68 -436q-16 -131 -3.5 -163.5t63.5 -51.5q111 -41 121 -41l-29 -178h-197q-139 0 -209.5 93t-39.5 296l75 481h-493l-70 -436q-18 -82 -10 -128t21.5 -60.5t48.5 -26.5 q113 -41 120 -41l-26 -178h-199q-137 0 -208.5 93t-39.5 296l76 481h-176z" />
<glyph horiz-adv-x="1554" d="M168 868l29 185l178 34l31 203q25 152 111.5 236t260.5 84q152 0 264 -49l-26 -170l-195 2q-43 0 -67.5 -8.5t-39 -36t-19.5 -49t-13 -76.5l-20 -133h507l95 303h239l-47 -303h242l-35 -220h-242l-67 -436q-14 -131 -2 -163.5t61 -51.5q113 -41 121 -41l-27 -178h-198 q-137 0 -208 93t-40 296l74 481h-510l-138 -870h-286l137 868h-170z" />
<glyph horiz-adv-x="1927" d="M168 870l25 160l186 60l96 303h238l-47 -303h299q164 0 244.5 -67t93.5 -202l53 -493q2 -12 5 -23.5t9 -18.5t12.5 -13.5t15.5 -10.5t14 -6t15.5 -4t14.5 -2t13 -1l9 -1l279 614q37 86 53 230h266q31 -145 -51 -322l-350 -768q-61 -135 -134 -239.5t-137.5 -164 t-138 -101.5t-126 -58.5t-111.5 -26.5v201q125 68 205.5 163t146.5 226q-258 0 -287 277l-61 458q-8 82 -44 107.5t-128 25.5h-215l-70 -436q-14 -131 -2 -164.5t64 -52.5q111 -39 120 -39l-28 -180h-197q-137 0 -208.5 94t-41.5 297l76 481h-176z" />
<glyph horiz-adv-x="1949" d="M168 868l29 185l178 34l31 203q25 152 111.5 236t260.5 84q152 0 264 -49l-26 -170l-195 2q-43 0 -67.5 -8.5t-39 -36t-19.5 -49t-13 -76.5l-20 -136h325q168 2 250 -66.5t94 -201.5l55 -493q10 -80 109 -80l270 614q41 90 54 230h266q31 -143 -49 -324l-353 -766 q-238 -522 -645 -592v203q125 68 206 163t147 224q-250 0 -283 276l-61 459q-8 82 -45 109.5t-130 25.5h-247l-138 -868h-286l137 868h-170z" />
<glyph horiz-adv-x="1058" d="M29 -215l88 448q10 68 49 122.5t108 54.5q-131 80 -92 327q55 362 430 355l203 -5q59 0 112.5 -19t103.5 -62t71.5 -129t3.5 -205q-20 -145 -123.5 -257t-300.5 -112h-188h-18h-19q-6 0 -17.5 -1t-17.5 -5t-12.5 -12.5t-8.5 -20.5q-6 -29 14.5 -41t61.5 -18l289 -49 q121 -23 195.5 -102t54.5 -214l-17 -90q-10 -70 -29.5 -118t-60.5 -94t-115.5 -68.5t-183.5 -22.5h-252q-197 0 -278.5 92t-50.5 246zM319 -205q-14 -68 11.5 -89t87.5 -21h184q57 0 83 24.5t34 75.5l4 39q8 53 -15.5 76.5t-82.5 33.5l-271 41zM469 705q-14 -88 4.5 -134.5 t93.5 -46.5h107q121 0 145 181q14 92 -3 129.5t-89 37.5h-104q-78 0 -108 -38.5t-46 -128.5zM610 1268l35 227q8 57 39 93t66.5 45t70.5 11.5t59 -3.5l23 -5l-12 -88q-61 0 -66 -49l-4 -24h21q45 0 39 -45l-25 -162q-12 -49 -55 -49h-156q-41 0 -35 49z" />
<glyph horiz-adv-x="552" d="M141 47l31 184q6 51 57 52h181q47 0 39 -52l-31 -184q-6 -47 -53 -47h-181q-49 0 -43 47zM213 377l100 790h289l-158 -790h-231z" />
<glyph horiz-adv-x="907" d="M285 819l20 275l23 137h274l-22 -137l-64 -275h-231zM653 819l21 275l22 137h277l-23 -137l-63 -275h-234z" />
<glyph horiz-adv-x="1247" d="M78 309l61 195h246l64 192h-248l61 197h248l98 301h197l-98 -301h196l96 301h197l-96 -301h262l-62 -197h-262l-61 -192h260l-59 -197h-265l-100 -307h-197l101 307l-197 2l-100 -309h-197l101 309h-246zM584 504h196l62 192h-197z" />
<glyph horiz-adv-x="1064" d="M123 29l31 202q8 0 88 -1t189.5 -3t189.5 -2q47 0 81.5 22.5t42.5 65.5l9 52q8 47 -15.5 67.5t-74.5 20.5h-183q-94 0 -158.5 30.5t-91 79.5t-37 110.5t4.5 123.5l10 69q47 303 395 310l25 153h180l-25 -160q184 -14 328 -39l-31 -206q-324 10 -452 10q-117 0 -133 -103 l-9 -40q-8 -47 15.5 -68t81.5 -21h198q162 0 222.5 -106.5t37.5 -249.5l-12 -67q-12 -84 -42 -141.5t-61.5 -88.5t-92 -46t-106.5 -18t-132 -3l-23 -148h-180l23 156q-246 19 -293 39z" />
<glyph horiz-adv-x="1957" d="M156 731l30 205q20 135 87 195.5t223 60.5h166q279 0 237 -279l-31 -204q-23 -139 -89 -197.5t-218 -58.5h-166q-133 0 -196 74.5t-43 203.5zM362 754q-8 -55 8.5 -78t75.5 -23h109q63 0 87 22.5t30 78.5l22 137q8 61 -8 80.5t-76 19.5h-108q-59 0 -85 -20.5t-34 -79.5z M565 0l793 1167h207l-787 -1167h-213zM1245 279l31 204q20 135 87 195.5t222 60.5h166q279 0 238 -278l-31 -205q-20 -139 -87 -197.5t-220 -58.5h-166q-133 0 -196.5 75t-43.5 204zM1452 301q-8 -55 7.5 -77.5t74.5 -22.5h108q63 0 88 23.5t31 76.5l21 137q10 61 -6.5 81 t-75.5 20h-109q-61 0 -86.5 -20.5t-34.5 -80.5z" />
<glyph horiz-adv-x="1183" d="M143 164q-129 258 150 473l123 92l-43 72q-68 137 -4.5 244.5t180.5 121.5q215 27 450 -39l-30 -198h-236q-68 0 -90 -29t8 -84l187 -321l231 161l94 -122l-137 -191l-68 -53l179 -291h-295l-84 139l-94 -76q-66 -49 -162 -68.5t-201 20.5t-158 149zM377 289 q61 -98 160 -25l98 78l-107 182l-106 -75q-100 -74 -45 -160z" />
<glyph horiz-adv-x="538" d="M285 819l20 275l23 137h274l-22 -137l-64 -275h-231z" />
<glyph horiz-adv-x="872" d="M207 819l18 115l291 49l-18 -174zM274 512l95 281l163 -43l-155 -273zM487 614l119 148l199 -184l-80 -93zM518 1135l117 39l98 -252l-172 -66zM621 829l270 162l49 -98l-229 -199z" />
<glyph horiz-adv-x="1157" d="M160 354l76 504q47 309 405 309h258q100 0 167 -37.5t89.5 -92t31.5 -116t-5 -108.5l-74 -504q-27 -172 -125 -240.5t-270 -68.5h-258q-152 0 -237 90t-58 264zM448.5 338.5q-4.5 -21.5 7 -35.5t16.5 -22.5t24.5 -11.5t30 -4t32.5 -1h131q66 0 97.5 33t43.5 96l60 371 q10 74 -7.5 106.5t-95.5 32.5h-129q-78 0 -108.5 -36t-38.5 -101l-59 -373q0 -33 -4.5 -54.5z" />
<glyph horiz-adv-x="729" d="M188 811l29 186q53 0 148.5 59.5t142.5 110.5h283l-179 -1167h-286l133 872q-81 -61 -271 -61z" />
<glyph horiz-adv-x="1054" d="M76 0l41 252q92 37 186 83t214 114.5t201 150.5t93 158q12 86 -28 120.5t-169 34.5l-407 -2l35 211q143 33 231 44.5t262 11.5q219 0 307 -118t60 -317q-14 -92 -66.5 -177t-122 -144.5t-133 -98t-118.5 -59.5h358l-43 -264h-901z" />
<glyph horiz-adv-x="1034" d="M61 33l33 215h461q117 0 129 86l4 28q10 55 -14.5 74t-81.5 21l-363 10l35 229l367 9q66 2 94.5 19t36.5 73l6 34q10 51 -13.5 67.5t-88.5 16.5h-476l35 213q164 53 588 46q129 -2 198.5 -89.5t49.5 -216.5l-8 -59q-16 -98 -50 -155.5t-110 -78.5q111 -61 82 -256l-6 -40 q-25 -150 -105 -218.5t-248 -70.5q-414 -8 -555 43z" />
<glyph horiz-adv-x="1138" d="M92 393l506 774h307l-422 -657h279l41 248l104 176h211l-69 -424h139l-33 -223l-147 -37l-37 -246h-287l37 246h-567z" />
<glyph horiz-adv-x="1083" d="M125 47l35 215h479q61 0 89 21.5t36 72.5l10 64q4 29 3 50.5t-22.5 32.5t-70.5 11h-131q-106 0 -123 -96h-246l156 749h786l-43 -264h-538l-49 -219q51 49 151 57q16 2 129 2q172 0 239.5 -92t43.5 -245l-17 -107q-27 -168 -123 -233.5t-262 -67.5q-352 -4 -532 49z" />
<glyph horiz-adv-x="1099" d="M173 372.5q-7 110.5 20 264.5q25 162 71.5 274.5t109 168t124 78t135.5 22.5q373 0 522 -31l-39 -238h-459q-127 0 -163 -206q135 20 342 24q139 2 201.5 -89t41.5 -218l-22 -137q-25 -156 -107 -221.5t-219 -65.5h-237q-70 0 -123.5 17.5t-100.5 59.5t-68.5 114.5 t-28.5 183zM455 424q-2 -33 1 -74t24.5 -62.5t58.5 -21.5h145q43 0 64.5 15.5t29.5 62.5l13 90q6 43 -9.5 56.5t-60.5 13.5h-258q-6 -47 -8 -80z" />
<glyph horiz-adv-x="976" d="M190 903l41 264h801l64 -131l-551 -1036h-309l483 903h-529z" />
<glyph horiz-adv-x="1144" d="M154 195.5q-8 50.5 4 93.5l18 121q8 55 38 91t59.5 48t72.5 20q-66 25 -91.5 90.5t-16.5 139.5l12 88q27 172 106.5 231.5t237.5 59.5h340q131 0 197.5 -79t42.5 -235l-15 -78q-29 -154 -151 -178q55 -14 77.5 -80.5t12.5 -130.5l-23 -143q-12 -82 -45 -135t-81 -78 t-93 -33t-102 -8h-357q-86 0 -142 28.5t-74.5 72.5t-26.5 94.5zM449 326q-8 -49 10 -65.5t78 -16.5h159q49 0 70.5 16t30.5 62l12 77q8 45 -9.5 63.5t-62.5 18.5h-176q-43 0 -67.5 -16t-30.5 -64zM522 782q-14 -82 72 -82h182q37 0 57.5 13.5t26.5 27t10 37.5l11 70 q8 51 -7.5 68.5t-62.5 17.5h-172q-53 0 -75.5 -14.5t-31.5 -71.5z" />
<glyph horiz-adv-x="1097" d="M135 29l37 237h459q131 0 164 207q-147 -20 -355 -24q-137 -2 -193.5 90t-35.5 223l20 135q27 156 107 219.5t217 63.5h240q88 0 150.5 -29t111.5 -100.5t55 -196.5t-16 -317q-25 -162 -72 -273.5t-108.5 -167t-123 -77t-135.5 -21.5q-375 0 -522 31zM498 743 q-8 -43 7 -56t60 -13h262q35 238 -79 237h-146q-43 0 -63.5 -16t-26.5 -64z" />
<glyph horiz-adv-x="929" d="M174 901l35 232q295 47 475 38q180 0 261 -95t54 -277l-8 -62q-27 -162 -138.5 -233.5t-274.5 -40.5l-7 -43q-6 -43 -6 -45h-223l45 289h205q51 2 77.5 22.5t35.5 67.5l6 45q8 55 -16.5 78.5t-96.5 23.5h-424zM258 47l31 184q6 51 57 52h176q53 0 43 -52l-28 -184 q-10 -47 -60 -47h-176q-49 0 -43 47z" />
<glyph horiz-adv-x="1835" d="M114 -50q-15 83 3 173l157 993q35 215 162 306t361 91h745q399 0 330 -464l-98 -670q-10 -70 -32 -122t-64 -101.5t-117.5 -75t-182.5 -25.5h-188l-49 111q-104 -127 -273 -125q-190 2 -274 147.5t-37 442.5q25 162 76 273.5t119.5 165.5t134 74.5t143.5 20.5 q324 0 465 -135l-109 -745q80 0 114 32.5t52 151.5l88 602q20 139 -17.5 180t-137.5 41h-737q-70 0 -118 -20.5t-73 -57t-36 -68.5t-17 -75l-154 -971q-16 -100 20 -155.5t158 -55.5h791l-31 -174q-276 -55 -598 -55h-188q-121 0 -207 39t-126 103.5t-55 147.5zM782 358.5 q27 -90.5 131 -88.5q168 2 256 136l80 512q-98 20 -227 20q-94 0 -152.5 -75.5t-85.5 -270.5q-29 -143 -2 -233.5z" />
<glyph horiz-adv-x="1241" d="M55 0l594 1167h342l199 -1167h-281l-47 238h-383l-119 -238h-305zM590 469h246l-64 350z" />
<glyph horiz-adv-x="1122" d="M125 0l184 1169h545q186 0 270 -87t60 -238q-37 -231 -203 -248q70 -12 107.5 -91t19.5 -196q-29 -174 -130 -241.5t-302 -67.5h-551zM451 244h241q115 0 131 125q6 66 -13 98.5t-77 32.5q-209 -2 -241 0zM524 709h242q63 0 89 25.5t36 88.5q10 59 -12.5 82t-77.5 23 h-242z" />
<glyph horiz-adv-x="1052" d="M161 459.5q5 84.5 21 195.5q43 270 163 399.5t380 129.5q285 0 453 -62l-31 -200q-35 6 -169 19t-222 13q-145 0 -201.5 -79.5t-85.5 -270.5q-10 -59 -13 -83.5t-7.5 -76t1 -74t16.5 -57t32.5 -50t57.5 -29t85 -13.5q161 2 399 31l-30 -195q-184 -66 -473 -65 q-117 0 -196 39t-118 99t-53 152.5t-9 177z" />
<glyph horiz-adv-x="1202" d="M125 0l186 1171h547q438 -4 359 -632q-14 -113 -44 -201t-62 -143.5t-80 -95.5t-83 -58t-91 -28.5t-82.5 -11.5t-77.5 -1h-21h-551zM451 254h233q113 0 168 87t78 239q53 338 -139 338h-234z" />
<glyph horiz-adv-x="1048" d="M158 215l112 725q37 225 295 229q494 -10 596 -30l-35 -221h-505q-43 0 -56.5 -12.5t-19.5 -53.5l-25 -147l494 -17l-35 -215l-498 -14l-22 -144v-36q0 -13 11 -19t22.5 -8t29.5 -2h498l-35 -221q-59 -12 -220 -20.5t-293 -10.5l-132 -2q-100 2 -150 57.5t-32 161.5z" />
<glyph horiz-adv-x="1050" d="M125 0l147 940q37 225 295 229q494 -10 596 -30l-35 -221h-505q-43 0 -56.5 -13.5t-21.5 -52.5l-27 -172l494 -16l-33 -215l-500 -15l-67 -434h-287z" />
<glyph horiz-adv-x="1161" d="M160 468q4 73 8 103.5t10 69.5q45 291 155.5 414t352.5 131q125 4 290 -10.5t253 -40.5l-33 -205q-211 25 -434 24q-100 0 -150.5 -23.5t-85 -99t-61.5 -241.5q-8 -53 -12 -87t-2 -87.5t16 -86t49 -57t90 -24.5q80 0 148.5 28.5t91.5 67.5l20 135h-207l25 158 q150 39 365 39q61 0 135 -6l-107 -670h-217l-49 90q-123 -104 -326 -104q-84 0 -147.5 31.5t-98 78.5t-54 117t-24.5 126t-1 129z" />
<glyph horiz-adv-x="1198" d="M123 -2l184 1169h287l-74 -471h412l74 471h286l-184 -1169h-287l68 432h-412l-67 -432h-287z" />
<glyph horiz-adv-x="501" d="M125 0l184 1167h287l-184 -1167h-287z" />
<glyph horiz-adv-x="686" d="M61 43l39 223q145 -12 200.5 20.5t76.5 141.5l117 739h286l-131 -829q-37 -240 -180 -305q-113 -47 -224.5 -42t-183.5 52z" />
<glyph horiz-adv-x="1171" d="M123 -2l184 1169h275l-74 -475h110l367 475h320l-441 -612l266 -557h-313l-219 453h-129l-72 -453h-274z" />
<glyph horiz-adv-x="1026" d="M164 244l145 923h287l-127 -802q-8 -20 -3 -37t4 -27t10.5 -17.5t16.5 -11.5t21.5 -6t26.5 -2h30h441l-41 -264h-606q-111 0 -167 61.5t-38 182.5z" />
<glyph horiz-adv-x="1564" d="M86 0l295 1169h371l94 -766l336 766h377l-76 -1169h-281l43 737l-309 -737h-287l-94 735l-182 -735h-287z" />
<glyph horiz-adv-x="1230" d="M125 0l184 1169h281l346 -682l104 682h285l-184 -1169h-279l-342 680l-108 -680h-287z" />
<glyph horiz-adv-x="1222" d="M157 407.5q1 85.5 17 194.5q29 184 79 300t131 175.5t171 80t229 20.5q76 0 134.5 -7.5t115 -25t95 -47t68.5 -76.5t43 -111.5t12 -152.5t-19 -199q-25 -150 -64 -252t-87 -164.5t-121.5 -96.5t-150.5 -45t-189 -11q-74 0 -133.5 7t-114 25.5t-93 48t-68.5 77t-43 111 t-12 149zM463 584q-33 -209 5 -269.5t181 -60.5q68 0 108 9t80 42t65.5 101.5t43.5 181.5q14 92 14.5 152.5t-9 95t-40 52t-62.5 21.5t-93 4q-68 0 -105 -7t-78 -37.5t-66.5 -99t-43.5 -185.5z" />
<glyph horiz-adv-x="1081" d="M94 0l185 1165h565q158 0 240.5 -92t58.5 -295q-12 -106 -47 -181t-72 -111.5t-97.5 -57t-93 -24t-88.5 -3.5q-29 -2 -161.5 9.5t-134.5 15.5l-68 -426h-287zM479 618h242q51 0 83 31t48 123q14 74 -9.5 113t-74.5 39h-240z" />
<glyph horiz-adv-x="1222" d="M157 374q3 95 17 222q25 147 62.5 251.5t87 169t123 100.5t150.5 48.5t187 12.5q76 0 134.5 -6.5t115 -24t94 -46t68.5 -75.5t44 -110.5t12 -151.5t-19 -199q-29 -184 -79 -301t-131 -176t-171 -78.5t-231 -19.5q-88 0 -154 9t-127 34.5t-96 68.5t-62.5 110t-24.5 162z M463 584q-33 -209 5 -269.5t181 -60.5q68 0 108 9t80 42t65.5 101.5t43.5 181.5q14 92 14.5 152.5t-9 95t-40 52t-62.5 21.5t-93 4q-68 0 -105 -7t-78 -37.5t-66.5 -99t-43.5 -185.5zM524 -68h162q55 -127 326 -57l-39 -231q-80 -20 -164 -10t-150.5 39.5t-105.5 97 t-29 161.5z" />
<glyph horiz-adv-x="1114" d="M94 0l185 1167h544q154 0 246 -98t68 -305q-18 -158 -77 -232.5t-155 -95.5l160 -436h-303l-127 412q-186 14 -186 18l-68 -430h-287zM479 621h234q49 0 82.5 32.5t50.5 122.5q14 78 -15.5 114t-70.5 36h-232z" />
<glyph horiz-adv-x="1101" d="M133 29l33 202q313 -10 518 -10q82 0 92 72l15 80q8 45 -7.5 59t-62.5 14h-260q-305 0 -258 326l14 96q49 305 369 306q328 0 555 -48l-33 -206q-285 14 -504 14q-86 0 -100 -88l-10 -68q-8 -49 9 -63.5t64 -14.5h273q106 0 165.5 -49t73 -119.5t-1.5 -162.5l-14 -99 q-27 -168 -115 -229t-223 -61q-506 0 -592 49z" />
<glyph horiz-adv-x="1064" d="M197 903l43 264h958l-43 -264h-336l-143 -903h-287l143 903h-335z" />
<glyph horiz-adv-x="1226" d="M190.5 354q0.5 90 14.5 211l100 602h289l-100 -635q-27 -170 15 -224t165 -54q111 0 170 56.5t86 221.5l100 635h289l-100 -667q-18 -117 -50 -204t-77 -141.5t-91.5 -89t-111 -50t-115.5 -20.5t-125 -5q-76 0 -135 9t-120.5 31.5t-100.5 63.5t-71 105.5t-31.5 154.5z " />
<glyph horiz-adv-x="1247" d="M240 1167h299l137 -809l391 809h311l-575 -1167h-342z" />
<glyph horiz-adv-x="1738" d="M240 1167h297l100 -813l346 813h299l-147 -327l92 -486l346 813h299l-524 -1167h-344l-68 381l-176 -381h-344z" />
<glyph horiz-adv-x="1208" d="M55 0l465 596l-274 571h342l149 -352l250 352h354l-479 -600l283 -567h-332l-162 340l-245 -340h-351z" />
<glyph horiz-adv-x="1202" d="M240 1167h301l168 -454l305 454h319l-518 -766l-61 -403h-287l61 403z" />
<glyph horiz-adv-x="1024" d="M55 0l43 264l647 639h-546l41 264h917l-41 -264l-629 -639h529l-43 -264h-918z" />
<glyph horiz-adv-x="505" d="M248 1372h244l157 -285h-186z" />
<glyph horiz-adv-x="1335" d="M55 0l594 1167h342l199 -1167h-70q-134 -92 -117 -170q12 -56 88 -54q6 0 13 1l-25 -158q-66 -16 -124 4.5t-87.5 64.5t-34 98t41 113.5t133.5 100.5h-99l-47 238h-383l-119 -238h-305zM590 469h246l-64 350z" />
<glyph horiz-adv-x="1114" d="M94 0l185 1167h544q154 0 246 -98t68 -305q-18 -158 -77 -232.5t-155 -95.5l160 -436h-303l-127 412q-186 14 -186 18l-68 -430h-287zM399 -530l15 88q55 -2 65 47l4 26h-20q-47 0 -39 45l25 162q9 49 55 49h153q45 0 37 -49l-37 -227q-8 -57 -38.5 -93t-66.5 -45.5 t-71 -11.5t-58 3zM479 621h234q49 0 82.5 32.5t50.5 122.5q14 78 -15.5 114t-70.5 36h-232z" />
<glyph horiz-adv-x="501" d="M127 0l184 1167h287l-184 -1167h-287zM133 1403q152 143 270 143q51 -2 111.5 -36.5t93.5 -34.5q47 -2 110.5 24.5t94.5 52.5l29 -122q-49 -43 -78 -67t-81 -48.5t-97 -24.5q-51 2 -115.5 37t-101.5 35q-84 0 -203 -72z" />
<glyph horiz-adv-x="1026" d="M164 244l145 923h287l-127 -802q-8 -20 -3 -37t4 -27t10.5 -17.5t16.5 -11.5t21.5 -6t26.5 -2h30h441l-41 -264h-606q-111 0 -167 61.5t-38 182.5zM367 -557l14 90q37 -2 48 11.5t15 35.5l5 27h-21q-45 0 -39 45l25 160q10 51 55 51h156q43 0 34 -51l-34 -226 q-14 -90 -79 -125.5t-122 -26.5z" />
<glyph horiz-adv-x="915" d="M266 1192q8 49 49 84t91 35q51 0 79.5 -35t20.5 -84q-8 -51 -48 -87t-89 -36q-51 0 -81 36t-22 87zM788 1192q8 49 49.5 84t90.5 35q51 0 79.5 -35t20.5 -84q-8 -51 -48 -87t-91 -36q-49 0 -79 36t-22 87z" />
<glyph horiz-adv-x="1101" d="M133 29l33 202q313 -10 518 -10q82 0 92 72l15 80q8 45 -7.5 59t-62.5 14h-260q-305 0 -258 326l14 96q49 305 369 306q328 0 555 -48l-33 -206q-285 14 -504 14q-86 0 -100 -88l-10 -68q-8 -49 9 -63.5t64 -14.5h273q106 0 165.5 -49t73 -119.5t-1.5 -162.5l-14 -99 q-27 -168 -115 -229t-223 -61q-506 0 -592 49zM475 1573h187l90 -133l145 133h211l-264 -277h-209z" />
<glyph horiz-adv-x="1048" d="M158 215l112 725q37 225 295 229q494 -10 596 -30l-35 -221h-505q-43 0 -56.5 -12.5t-19.5 -53.5l-25 -147l494 -17l-35 -215l-498 -14l-22 -144v-36q0 -13 11 -19t22.5 -8t29.5 -2h498l-35 -221q-59 -12 -220 -20.5t-293 -10.5l-132 -2q-100 2 -150 57.5t-32 161.5z M457 1294l26 164h598l-26 -164h-598z" />
<glyph horiz-adv-x="1161" d="M160 468q4 73 8 103.5t10 69.5q45 291 155.5 414t352.5 131q125 4 290 -10.5t253 -40.5l-33 -205q-211 25 -434 24q-100 0 -150.5 -23.5t-85 -99t-61.5 -241.5q-8 -53 -12 -87t-2 -87.5t16 -86t49 -57t90 -24.5q80 0 148.5 28.5t91.5 67.5l20 135h-207l25 158 q150 39 365 39q61 0 135 -6l-107 -670h-217l-49 90q-123 -104 -326 -104q-84 0 -147.5 31.5t-98 78.5t-54 117t-24.5 126t-1 129zM455 -557l14 90q37 -2 48 11.5t15 35.5l5 27h-21q-45 0 -39 45l27 160q6 51 53 51h156q43 0 35 -51l-35 -226q-14 -90 -79 -125.5t-122 -26.5z " />
<glyph horiz-adv-x="1030" d="M102 905l43 264h940l-43 -264h-329l-35 -229h186l-20 -133h-187l-88 -543h-286l88 543h-195l21 133h194l35 229h-324z" />
<glyph horiz-adv-x="1024" d="M55 0l43 264l647 639h-546l41 264h917l-41 -264l-629 -639h529l-43 -264h-918zM438 1569h187l92 -133l143 133h211l-264 -277h-209z" />
<glyph horiz-adv-x="751" d="M240 1030l26 164h598l-26 -164h-598z" />
<glyph horiz-adv-x="565" d="M225 958q10 86 79 145.5t155 59.5t139 -60.5t43 -148.5q-10 -86 -77.5 -144t-153.5 -58t-139.5 59t-45.5 147zM346 956.5q-4 -36.5 18.5 -61.5t59.5 -25t64.5 25t31.5 61q6 37 -15.5 62.5t-58 25.5t-66.5 -25.5t-34 -62z" />
<glyph horiz-adv-x="497" d="M203 1087l231 285h250l-295 -285h-186z" />
<glyph horiz-adv-x="780" d="M297 1393h180l94 -142l162 142h189l-263 -306h-213z" />
<glyph horiz-adv-x="1228" d="M109 -4l184 1173h280l345 -661l104 661h285l-185 -1163l-18 -110q-31 -184 -160 -263t-354 -67l35 201q84 0 131 31.5t69 129.5l13 76l-336 660l-109 -668h-284z" />
<glyph horiz-adv-x="1241" d="M55 0l594 1167h342l199 -1167h-281l-47 238h-383l-119 -238h-305zM537 1290l26 164h598l-26 -164h-598zM590 469h246l-64 350z" />
<glyph horiz-adv-x="1241" d="M55 0l594 1167h342l199 -1167h-281l-47 238h-383l-119 -238h-305zM590 469h246l-64 350zM748 1290l229 283h252l-295 -283h-186z" />
<glyph horiz-adv-x="1241" d="M55 0l594 1167h342l199 -1167h-281l-47 238h-383l-119 -238h-305zM524 1290l264 279h213l156 -279h-186l-86 133l-150 -133h-211zM590 469h246l-64 350z" />
<glyph horiz-adv-x="1241" d="M55 0l594 1167h342l199 -1167h-281l-47 238h-383l-119 -238h-305zM506 1403q156 143 270 143q51 -2 111.5 -36.5t93.5 -34.5q47 -2 110.5 24.5t94.5 52.5l31 -122q-51 -45 -80 -67t-80 -47.5t-96 -25.5q-53 2 -118 37t-102 35q-84 0 -202 -72zM590 469h246l-64 350z" />
<glyph horiz-adv-x="1241" d="M55 0l594 1167h342l199 -1167h-281l-47 238h-383l-119 -238h-305zM479 1411q8 51 49 86t90 35q51 0 80 -35t21 -86q-8 -49 -48 -85t-91 -36q-49 0 -79 36t-22 85zM590 469h246l-64 350zM1001 1411q8 51 49.5 86t90.5 35q51 0 79.5 -35t20.5 -86q-8 -49 -48 -85t-91 -36 q-49 0 -79 36t-22 85z" />
<glyph horiz-adv-x="1241" d="M55 0l594 1167h119q-66 18 -104.5 72.5t-32.5 126.5q8 88 73.5 148.5t151.5 60.5t142.5 -60.5t48.5 -148.5q-6 -72 -52.5 -126t-113.5 -73h110l199 -1167h-281l-47 238h-383l-119 -238h-305zM590 469h246l-64 350zM750 1366q-2 -37 21.5 -61.5t60 -24.5t64.5 24.5 t30 61.5q4 37 -18.5 63.5t-59.5 26.5t-65.5 -26.5t-32.5 -63.5z" />
<glyph horiz-adv-x="1609" d="M37 0l555 946q37 63 94 108.5t105.5 66t132.5 31.5t120.5 13t124.5 2q457 -10 557 -30l-34 -219h-469q-43 0 -56.5 -14.5t-19.5 -53.5l-25 -150l459 -16l-35 -215l-465 -14l-20 -144q-6 -41 9 -52t54 -11l461 -2l-35 -219q-59 -12 -206.5 -20.5t-266.5 -10.5l-119 -2 q-98 -2 -158.5 49t-43.5 158l12 82h-246l-170 -283h-315zM639 487h160l61 373z" />
<glyph horiz-adv-x="501" d="M42 -214q-5 54 40 113.5t133 100.5h-90l184 1167h287l-184 -1167h-82q-134 -92 -118 -169q12 -57 92 -55q5 0 9 1l-24 -158q-66 -16 -124.5 4.5t-88 64.5t-34.5 98z" />
<glyph horiz-adv-x="1052" d="M161 459.5q5 84.5 21 195.5q43 270 163 399.5t380 129.5q285 0 453 -62l-31 -200q-35 6 -169 19t-222 13q-145 0 -201.5 -79.5t-85.5 -270.5q-10 -59 -13 -83.5t-7.5 -76t1 -74t16.5 -57t32.5 -50t57.5 -29t85 -13.5q161 2 399 31l-30 -195q-184 -66 -473 -65 q-117 0 -196 39t-118 99t-53 152.5t-9 177zM500 1589h184l92 -133l146 133h211l-265 -276h-209z" />
<glyph horiz-adv-x="1048" d="M158 215l112 725q37 225 295 229q494 -10 596 -30l-35 -221h-505q-43 0 -56.5 -12.5t-19.5 -53.5l-25 -147l494 -17l-35 -215l-498 -14l-22 -144v-36q0 -13 11 -19t22.5 -8t29.5 -2h498l-35 -221q-59 -12 -220 -20.5t-293 -10.5l-132 -2q-100 2 -150 57.5t-32 161.5z M682 1292l229 285h252l-295 -285h-186z" />
<glyph horiz-adv-x="1048" d="M158 215l112 725q37 225 295 229q494 -10 596 -30l-35 -221h-505q-43 0 -56.5 -12.5t-19.5 -53.5l-25 -147l494 -17l-35 -215l-498 -14l-22 -144v-36q0 -13 11 -19t22.5 -8t29.5 -2h498l-35 -221h-4q-134 -92 -118 -170q12 -57 92 -54h10l-25 -157q-78 -18 -143.5 14.5 t-91 91t5 132t125.5 126.5q-90 -6 -214 -10t-203 -5l-79 -1q-100 2 -150 57.5t-32 161.5z" />
<glyph horiz-adv-x="1048" d="M158 215l112 725q37 225 295 229q494 -10 596 -30l-35 -221h-505q-43 0 -56.5 -12.5t-19.5 -53.5l-25 -147l494 -17l-35 -215l-498 -14l-22 -144v-36q0 -13 11 -19t22.5 -8t29.5 -2h498l-35 -221q-59 -12 -220 -20.5t-293 -10.5l-132 -2q-100 2 -150 57.5t-32 161.5z M395 1399q8 49 49 84t91 35q51 0 80.5 -35t21.5 -84q-10 -51 -50 -87t-89 -36q-51 0 -81 36t-22 87zM918 1399q8 49 49 84t90 35q51 0 80.5 -35t21.5 -84q-10 -51 -50 -87t-89 -36q-51 0 -80.5 36t-21.5 87z" />
<glyph horiz-adv-x="1048" d="M158 215l112 725q37 225 295 229q494 -10 596 -30l-35 -221h-505q-43 0 -56.5 -12.5t-19.5 -53.5l-25 -147l494 -17l-35 -215l-498 -14l-22 -144v-36q0 -13 11 -19t22.5 -8t29.5 -2h498l-35 -221q-59 -12 -220 -20.5t-293 -10.5l-132 -2q-100 2 -150 57.5t-32 161.5z M647 1339l27 156q6 51 57 51h148q47 0 39 -51l-27 -156q-6 -47 -53 -47h-148q-49 0 -43 47z" />
<glyph horiz-adv-x="501" d="M125 0l184 1167h287l-184 -1167h-287zM332 1290l231 283h250l-295 -283h-186z" />
<glyph horiz-adv-x="501" d="M125 0l184 1167h287l-184 -1167h-287zM145 1290l267 279h213l153 -279h-184l-88 133l-148 -133h-213z" />
<glyph horiz-adv-x="501" d="M125 0l184 1167h287l-184 -1167h-287zM168 1290l27 164h598l-27 -164h-598z" />
<glyph horiz-adv-x="1236" d="M115 528l20 131h135l82 512h520q106 -2 183.5 -39.5t119.5 -99t61 -145.5t18 -168t-15 -176q-18 -115 -47 -204t-63.5 -145.5t-74.5 -97.5t-82 -57t-85 -28.5t-82 -10.5t-75 0h-34h-530l84 528h-135zM494 254h213q113 0 168 87t77 239q53 338 -139 338h-213l-43 -259h156 l-21 -131h-155z" />
<glyph horiz-adv-x="1230" d="M125 0l184 1169h281l346 -682l104 682h285l-184 -1169h-279l-342 680l-108 -680h-287zM440 -530l15 88q55 -2 65 47l4 26h-20q-47 0 -39 45l24 162q9 49 56 49h153q45 0 37 -49l-37 -227q-8 -57 -38.5 -93t-66.5 -45.5t-71 -11.5t-58 3z" />
<glyph horiz-adv-x="1222" d="M157 407.5q1 85.5 17 194.5q29 184 79 300t131 175.5t171 80t229 20.5q76 0 134.5 -7.5t115 -25t95 -47t68.5 -76.5t43 -111.5t12 -152.5t-19 -199q-25 -150 -64 -252t-87 -164.5t-121.5 -96.5t-150.5 -45t-189 -11q-74 0 -133.5 7t-114 25.5t-93 48t-68.5 77t-43 111 t-12 149zM463 584q-33 -209 5 -269.5t181 -60.5q68 0 108 9t80 42t65.5 101.5t43.5 181.5q14 92 14.5 152.5t-9 95t-40 52t-62.5 21.5t-93 4q-68 0 -105 -7t-78 -37.5t-66.5 -99t-43.5 -185.5zM506 1300l26 162h598l-26 -162h-598z" />
<glyph horiz-adv-x="1171" d="M123 -2l184 1169h275l-74 -475h110l367 475h320l-441 -612l266 -557h-313l-219 453h-129l-72 -453h-274zM420 -530l14 88q37 -2 48.5 11t15.5 36l4 26h-21q-45 0 -37 45l25 162q6 49 53 49h156q43 0 35 -49l-35 -227q-8 -57 -39 -93t-66.5 -45.5t-70.5 -11.5t-59 3z" />
<glyph horiz-adv-x="1222" d="M157 407.5q1 85.5 17 194.5q29 184 79 300t131 175.5t171 80t229 20.5q76 0 134.5 -7.5t115 -25t95 -47t68.5 -76.5t43 -111.5t12 -152.5t-19 -199q-25 -150 -64 -252t-87 -164.5t-121.5 -96.5t-150.5 -45t-189 -11q-74 0 -133.5 7t-114 25.5t-93 48t-68.5 77t-43 111 t-12 149zM463 584q-33 -209 5 -269.5t181 -60.5q68 0 108 9t80 42t65.5 101.5t43.5 181.5q14 92 14.5 152.5t-9 95t-40 52t-62.5 21.5t-93 4q-68 0 -105 -7t-78 -37.5t-66.5 -99t-43.5 -185.5zM489 1300l265 277h213l153 -277h-184l-88 134l-148 -134h-211z" />
<glyph horiz-adv-x="1222" d="M157 407.5q1 85.5 17 194.5q29 184 79 300t131 175.5t171 80t229 20.5q76 0 134.5 -7.5t115 -25t95 -47t68.5 -76.5t43 -111.5t12 -152.5t-19 -199q-25 -150 -64 -252t-87 -164.5t-121.5 -96.5t-150.5 -45t-189 -11q-74 0 -133.5 7t-114 25.5t-93 48t-68.5 77t-43 111 t-12 149zM463 584q-33 -209 5 -269.5t181 -60.5q68 0 108 9t80 42t65.5 101.5t43.5 181.5q14 92 14.5 152.5t-9 95t-40 52t-62.5 21.5t-93 4q-68 0 -105 -7t-78 -37.5t-66.5 -99t-43.5 -185.5zM471 1413q152 143 270 143q49 -2 110.5 -36.5t94.5 -34.5q47 -2 110.5 24.5 t94.5 53.5l29 -123q-49 -43 -78 -66.5t-81 -48.5t-97 -25q-53 2 -117 37t-100 35q-12 0 -24.5 -1t-22 -2t-21.5 -5t-19.5 -6t-20.5 -7t-18.5 -7.5t-19.5 -10.5t-18 -10t-20.5 -11t-20.5 -12z" />
<glyph horiz-adv-x="1222" d="M157 407.5q1 85.5 17 194.5q29 184 79 300t131 175.5t171 80t229 20.5q76 0 134.5 -7.5t115 -25t95 -47t68.5 -76.5t43 -111.5t12 -152.5t-19 -199q-25 -150 -64 -252t-87 -164.5t-121.5 -96.5t-150.5 -45t-189 -11q-74 0 -133.5 7t-114 25.5t-93 48t-68.5 77t-43 111 t-12 149zM442 1421q8 51 49 85t93 34q49 0 78.5 -33.5t21.5 -85.5q-8 -49 -49 -85t-90 -36t-80 36t-23 85zM463 584q-33 -209 5 -269.5t181 -60.5q68 0 108 9t80 42t65.5 101.5t43.5 181.5q14 92 14.5 152.5t-9 95t-40 52t-62.5 21.5t-93 4q-68 0 -105 -7t-78 -37.5 t-66.5 -99t-43.5 -185.5zM965 1421q8 51 49 85t92 34q49 0 78.5 -33.5t21.5 -85.5q-8 -49 -49 -85t-90 -36t-79.5 36t-22.5 85z" />
<glyph horiz-adv-x="1222" d="M96 0l129 145q-82 143 -30 451q29 184 79 301t130.5 177.5t172 82t230.5 21.5q203 0 293 -50l33 41l153 -2l-98 -112q98 -137 43 -490q-29 -184 -79 -301t-131 -176t-171 -78.5t-232 -19.5q-221 0 -315 71l-53 -61h-154zM475 424l420 477q-31 12 -119 12q-68 0 -103.5 -7 t-77.5 -36.5t-68 -99t-44 -186.5q-18 -100 -8 -160zM508 289q35 -35 139 -35q70 0 111 9t80 43t63.5 101.5t42.5 180.5q23 141 8 205z" />
<glyph horiz-adv-x="1183" d="M191.5 335q-13.5 97 13.5 230l100 602h289l-100 -635q-27 -170 15 -224t165 -54q111 0 170 56.5t86 221.5l100 635h289l-100 -667q-25 -160 -76 -265.5t-127 -155.5t-146.5 -68.5t-171.5 -20.5q-129 -90 -110 -166q14 -56 94 -52q3 0 6 1l-24 -158q-66 -16 -124.5 3.5 t-88 63.5t-34.5 97t37 111.5t128 101.5q-80 4 -141.5 21.5t-120 57.5t-87 103.5t-42 160.5z" />
<glyph horiz-adv-x="1226" d="M190.5 354q0.5 90 14.5 211l100 602h289l-100 -635q-27 -170 15 -224t165 -54q111 0 170 56.5t86 221.5l100 635h289l-100 -667q-18 -117 -50 -204t-77 -141.5t-91.5 -89t-111 -50t-115.5 -20.5t-125 -5q-76 0 -135 9t-120.5 31.5t-100.5 63.5t-71 105.5t-31.5 154.5z M739 1290l232 283h250l-295 -283h-187z" />
<glyph horiz-adv-x="1226" d="M190.5 354q0.5 90 14.5 211l100 602h289l-100 -635q-27 -170 15 -224t165 -54q111 0 170 56.5t86 221.5l100 635h289l-100 -667q-18 -117 -50 -204t-77 -141.5t-91.5 -89t-111 -50t-115.5 -20.5t-125 -5q-76 0 -135 9t-120.5 31.5t-100.5 63.5t-71 105.5t-31.5 154.5z M516 1290l264 279h213l156 -279h-186l-86 133l-150 -133h-211z" />
<glyph horiz-adv-x="1226" d="M190.5 354q0.5 90 14.5 211l100 602h289l-100 -635q-27 -170 15 -224t165 -54q111 0 170 56.5t86 221.5l100 635h289l-100 -667q-18 -117 -50 -204t-77 -141.5t-91.5 -89t-111 -50t-115.5 -20.5t-125 -5q-76 0 -135 9t-120.5 31.5t-100.5 63.5t-71 105.5t-31.5 154.5z M471 1411q8 51 49 86t90 35t79 -35t22 -86q-8 -49 -48 -85t-92 -36q-49 0 -78.5 36t-21.5 85zM993 1411q8 51 49 86t90.5 35t79 -35t21.5 -86q-8 -49 -48 -85t-91 -36q-49 0 -79 36t-22 85z" />
<glyph horiz-adv-x="1226" d="M190.5 354q0.5 90 14.5 211l100 602h289l-100 -635q-27 -170 15 -224t165 -54q111 0 170 56.5t86 221.5l100 635h289l-100 -667q-18 -117 -50 -204t-77 -141.5t-91.5 -89t-111 -50t-115.5 -20.5t-125 -5q-76 0 -135 9t-120.5 31.5t-100.5 63.5t-71 105.5t-31.5 154.5z M498 1403q152 143 270 143q51 -2 111.5 -36.5t93.5 -34.5q47 -2 110.5 24.5t94.5 52.5l28 -122q-49 -43 -77.5 -67t-80 -48.5t-96.5 -24.5q-53 2 -117.5 37t-101.5 35q-84 0 -203 -72z" />
<glyph horiz-adv-x="1226" d="M190.5 354q0.5 90 14.5 211l100 602h289l-100 -635q-27 -170 15 -224t165 -54q111 0 170 56.5t86 221.5l100 635h289l-100 -667q-18 -117 -50 -204t-77 -141.5t-91.5 -89t-111 -50t-115.5 -20.5t-125 -5q-76 0 -135 9t-120.5 31.5t-100.5 63.5t-71 105.5t-31.5 154.5z M532 1290l27 164h598l-27 -164h-598z" />
<glyph horiz-adv-x="2091" d="M106 29l31 202q313 -10 518 -10q78 0 95 72l12 80q8 45 -7.5 59t-62.5 14h-260q-303 0 -256 326l14 96q47 305 369 306q330 0 553 -48l-31 -206q-287 14 -503 14q-88 0 -101 -88l-12 -68q-6 -49 10.5 -63.5t65.5 -14.5h270q156 0 209 -93t31 -238l-17 -99 q-27 -168 -113.5 -229t-222.5 -61q-508 0 -592 49zM1139 31l32 202q311 -10 519 -10q82 0 92 72l12 80q8 45 -6 59.5t-62 14.5h-260q-303 0 -258 325l15 96q47 305 368 306q330 0 553 -48l-30 -206q-285 14 -504 14q-84 0 -101 -90l-10 -68q-8 -49 9.5 -63.5t64.5 -14.5h270 q156 0 209 -93t31 -238l-17 -99q-12 -88 -44.5 -147.5t-81 -89t-97.5 -40.5t-112 -11q-506 0 -592 49z" />
<glyph horiz-adv-x="1241" d="M55 0l594 1167h342l199 -1167h-281l-47 238h-383l-119 -238h-305zM530 1573h244l160 -283h-186zM590 469h246l-64 350z" />
<glyph horiz-adv-x="1052" d="M161 459.5q5 84.5 21 195.5q43 270 163 399.5t380 129.5q285 0 453 -62l-31 -200q-35 6 -169 19t-222 13q-145 0 -201.5 -79.5t-85.5 -270.5q-10 -59 -13 -83.5t-7.5 -76t1 -74t16.5 -57t32.5 -50t57.5 -29t85 -13.5q161 2 399 31l-30 -195q-184 -66 -473 -65 q-117 0 -196 39t-118 99t-53 152.5t-9 177zM330 -369l20 123l94 31q43 16 58.5 44t25.5 91h193q-25 -160 -84 -224.5t-191 -64.5h-116z" />
<glyph horiz-adv-x="1247" d="M76 528l22 131h135l80 512h523q106 -2 183 -39.5t118 -99t60.5 -145.5t18 -168t-15.5 -176q-18 -115 -47 -204t-62.5 -145.5t-74.5 -97.5t-82 -57t-84 -28.5t-82 -10.5t-75 0h-34h-530l82 528h-135zM455 254h215q113 0 167 87t76 239q53 338 -137 338h-215l-41 -259h154 l-19 -131h-157z" />
<glyph horiz-adv-x="1048" d="M158 215l112 725q37 225 295 229q494 -10 596 -30l-35 -221h-505q-43 0 -56.5 -12.5t-19.5 -53.5l-25 -147l494 -17l-35 -215l-498 -14l-22 -144v-36q0 -13 11 -19t22.5 -8t29.5 -2h498l-35 -221q-59 -12 -220 -20.5t-293 -10.5l-132 -2q-100 2 -150 57.5t-32 161.5z M461 1577h244l157 -285h-186z" />
<glyph horiz-adv-x="1048" d="M158 215l112 725q37 225 295 229q494 -10 596 -30l-35 -221h-505q-43 0 -56.5 -12.5t-19.5 -53.5l-25 -147l494 -17l-35 -215l-498 -14l-22 -144v-36q0 -13 11 -19t22.5 -8t29.5 -2h498l-35 -221q-59 -12 -220 -20.5t-293 -10.5l-132 -2q-100 2 -150 57.5t-32 161.5z M451 1292l264 277h213l155 -277h-186l-86 133l-149 -133h-211z" />
<glyph horiz-adv-x="501" d="M106 1573h244l158 -283h-186zM125 0l184 1167h287l-184 -1167h-287z" />
<glyph horiz-adv-x="501" d="M29 1411q8 51 49 86t90 35t78.5 -35t21.5 -86q-8 -49 -48 -85t-91 -36q-49 0 -78.5 36t-21.5 85zM100 0l185 1167h286l-184 -1167h-287zM551 1411q8 51 49 86t90 35t79 -35t22 -86q-8 -49 -48.5 -85t-91.5 -36q-49 0 -78.5 36t-21.5 85z" />
<glyph horiz-adv-x="1230" d="M125 0l184 1169h281l346 -682l104 682h285l-184 -1169h-279l-342 680l-108 -680h-287zM467 1405q152 143 270 143q49 -2 110.5 -36.5t94.5 -34.5q45 -2 110.5 24.5t94.5 52.5l29 -122q-49 -43 -78 -67t-81 -48.5t-97 -24.5q-53 2 -118 37t-100 35q-16 0 -31.5 -2 t-26.5 -3t-26.5 -7t-22.5 -8.5t-24.5 -11.5t-22.5 -11t-25.5 -14.5t-24.5 -14.5z" />
<glyph horiz-adv-x="1222" d="M157 407.5q1 85.5 17 194.5q29 184 79 300t131 175.5t171 80t229 20.5q76 0 134.5 -7.5t115 -25t95 -47t68.5 -76.5t43 -111.5t12 -152.5t-19 -199q-25 -150 -64 -252t-87 -164.5t-121.5 -96.5t-150.5 -45t-189 -11q-74 0 -133.5 7t-114 25.5t-93 48t-68.5 77t-43 111 t-12 149zM463 584q-33 -209 5 -269.5t181 -60.5q68 0 108 9t80 42t65.5 101.5t43.5 181.5q14 92 14.5 152.5t-9 95t-40 52t-62.5 21.5t-93 4q-68 0 -105 -7t-78 -37.5t-66.5 -99t-43.5 -185.5zM489 1585h244l160 -285h-186z" />
<glyph horiz-adv-x="1222" d="M157 407.5q1 85.5 17 194.5q29 184 79 300t131 175.5t171 80t229 20.5q76 0 134.5 -7.5t115 -25t95 -47t68.5 -76.5t43 -111.5t12 -152.5t-19 -199q-25 -150 -64 -252t-87 -164.5t-121.5 -96.5t-150.5 -45t-189 -11q-74 0 -133.5 7t-114 25.5t-93 48t-68.5 77t-43 111 t-12 149zM463 584q-33 -209 5 -269.5t181 -60.5q68 0 108 9t80 42t65.5 101.5t43.5 181.5q14 92 14.5 152.5t-9 95t-40 52t-62.5 21.5t-93 4q-68 0 -105 -7t-78 -37.5t-66.5 -99t-43.5 -185.5zM707 1300l231 285h250l-295 -285h-186z" />
<glyph horiz-adv-x="1226" d="M190.5 354q0.5 90 14.5 211l100 602h289l-100 -635q-27 -170 15 -224t165 -54q111 0 170 56.5t86 221.5l100 635h289l-100 -667q-18 -117 -50 -204t-77 -141.5t-91.5 -89t-111 -50t-115.5 -20.5t-125 -5q-76 0 -135 9t-120.5 31.5t-100.5 63.5t-71 105.5t-31.5 154.5z M510 1573h244l157 -283h-186z" />
<glyph horiz-adv-x="1202" d="M240 1167h301l168 -454l305 454h319l-518 -766l-61 -403h-287l61 403zM702 1290l232 283h250l-295 -283h-187z" />
<glyph horiz-adv-x="1075" d="M117 0l184 1165h285l-33 -198h233q59 0 110.5 -16.5t101 -55.5t69.5 -119t6 -192q-12 -100 -44 -173t-67.5 -110t-87 -58.5t-86 -25.5t-83.5 -4q-150 0 -265 33l-39 -246h-284zM475 463h187q59 0 84.5 26.5t39.5 110.5q10 70 -9 97.5t-75 27.5h-186z" />
<glyph horiz-adv-x="503" d="M96 -221l17 112q66 -2 77 68l7 41h-23q-25 0 -37 14.5t-8 38.5l29 185q8 57 63 57h176q51 0 43 -57l-45 -273q-10 -68 -45 -113t-77 -59t-82.5 -18t-67.5 0z" />
<glyph horiz-adv-x="858" d="M221 713l43 272q10 70 46 114t78 58t82 19.5t68 0.5l27 -6l-18 -112q-63 2 -76 -66l-6 -43h22q53 0 45 -53l-28 -184q-8 -57 -64 -58h-178q-49 1 -41 58zM580 713l43 272q10 70 46 114t77.5 58t81.5 19.5t68 0.5l28 -6l-19 -112q-63 2 -76 -66l-8 -43h25q53 0 45 -53 l-29 -184q-8 -57 -63 -58h-176q-49 1 -43 58z" />
<glyph horiz-adv-x="858" d="M225 662l17 112q66 0 77 68l9 43h-25q-53 0 -45 51l29 184q10 59 61 60h178q51 0 43 -60l-43 -270q-12 -70 -47 -114t-77 -59t-82.5 -19.5t-67.5 -0.5zM582 662l18 112q63 0 76 68l8 43h-22q-53 0 -46 51l29 184q10 59 62 60h178q51 0 41 -60l-43 -270q-10 -70 -46 -114 t-78 -59t-82 -19.5t-68 -0.5z" />
<glyph horiz-adv-x="856" d="M86 -221l18 112q63 0 76 68l8 43h-24q-53 0 -45 51l28 185q8 57 64 57h176q51 0 43 -57l-43 -271q-10 -70 -46 -113.5t-78 -59t-82 -19.5t-67 0zM444 -221l17 112q66 0 78 68l8 43h-25q-53 0 -45 51l29 185q8 57 63 57h176q49 0 43 -57l-43 -271q-12 -70 -46.5 -113.5 t-76.5 -59t-83 -19.5t-68 0z" />
<glyph horiz-adv-x="555" d="M133 0l150 791h231l-92 -791h-289zM287 936l28 184q6 47 54 47h178q49 0 43 -47l-29 -184q-6 -51 -57 -51h-180q-45 0 -37 51z" />
<glyph horiz-adv-x="845" d="M135 252l23 141h659l-22 -141h-660zM190 821q33 215 120 292t292 77q193 2 265.5 -87t37.5 -304q-31 -201 -118 -275.5t-295 -74.5q-193 0 -263 88.5t-39 283.5zM412 811q-20 -121 3 -152.5t103 -31.5q41 0 60.5 4t43 20.5t38 55t24.5 104.5q20 135 0 168t-106 33 q-80 2 -113 -34t-53 -167z" />
<glyph horiz-adv-x="841" d="M137 256l21 141h704l-22 -141h-703zM168 463l332 706h270l100 -706h-200l-21 147h-190l-72 -147h-219zM520 764h115l-25 207z" />
<glyph horiz-adv-x="1060" d="M88 401l18 131l121 11l11 75l-115 13l20 123l119 14q8 59 19.5 102t44 106.5t80 103.5t135.5 71t204 31q180 0 439 -47l-33 -217q-258 23 -389 22q-102 0 -149.5 -46t-61.5 -126l356 -12l-22 -127l-357 -11l-12 -75l354 -11l-20 -131q-23 0 -60.5 -1t-116.5 -3t-131.5 -4 t-49.5 -4q-8 -51 1 -84t35.5 -47t53 -18t65.5 -4l404 28l-33 -217q-158 -57 -461 -57q-74 0 -135.5 16.5t-121.5 56t-87 123.5t-10 203z" />
<glyph horiz-adv-x="1011" d="M143 244l146 923h286l-124 -802q-8 -20 -4 -37t3 -27t11 -17.5t17 -11.5t21.5 -6t26.5 -2h31h440l-43 -264h-606q-109 0 -166 61.5t-39 182.5zM664 842l20 274l21 137h196l-20 -137l-64 -274h-153z" />
<glyph horiz-adv-x="1101" d="M133 29l33 202q313 -10 518 -10q82 0 92 72l15 80q8 45 -7.5 59t-62.5 14h-260q-305 0 -258 326l14 96q49 305 369 306q328 0 555 -48l-33 -206q-285 14 -504 14q-86 0 -100 -88l-10 -68q-8 -49 9 -63.5t64 -14.5h273q106 0 165.5 -49t73 -119.5t-1.5 -162.5l-14 -99 q-27 -168 -115 -229t-223 -61q-506 0 -592 49zM637 1296l231 285h252l-297 -285h-186z" />
<glyph horiz-adv-x="1101" d="M133 29l33 202q313 -10 518 -10q82 0 92 72l15 80q8 45 -7.5 59t-62.5 14h-260q-305 0 -258 326l14 96q49 305 369 306q328 0 555 -48l-33 -206q-285 14 -504 14q-86 0 -100 -88l-10 -68q-8 -49 9 -63.5t64 -14.5h273q106 0 165.5 -49t73 -119.5t-1.5 -162.5l-14 -99 q-27 -168 -115 -229t-223 -61q-506 0 -592 49zM311 -360l21 122l94 31q43 16 58.5 44t25.5 91h192q-25 -160 -84 -224t-190 -64h-117z" />
<glyph horiz-adv-x="1208" d="M315 903l41 264h959l-41 -264h-336l-145 -903h-287l145 903h-336zM586 1583h184l92 -133l144 133h211l-265 -276h-207z" />
<glyph horiz-adv-x="1024" d="M55 0l43 264l647 639h-546l41 264h917l-41 -264l-629 -639h529l-43 -264h-918zM614 1290l232 283h250l-295 -283h-187z" />
<glyph horiz-adv-x="1024" d="M55 0l43 264l647 639h-546l41 264h917l-41 -264l-629 -639h529l-43 -264h-918zM604 1337l25 156q6 51 57 51h148q47 0 38 -51l-24 -156q-6 -47 -53 -47h-148q-49 0 -43 47z" />
<glyph horiz-adv-x="1114" d="M94 0l185 1167h544q154 0 246 -98t68 -305q-18 -158 -77 -232.5t-155 -95.5l160 -436h-303l-127 412q-186 14 -186 18l-68 -430h-287zM479 621h234q49 0 82.5 32.5t50.5 122.5q14 78 -15.5 114t-70.5 36h-232zM653 1290l232 283h250l-295 -283h-187z" />
<glyph horiz-adv-x="1241" d="M55 0l594 1167h342l199 -1167h-281l-47 238h-383l-119 -238h-305zM590 469h246l-64 350zM635 1522h117q-6 -55 21.5 -86t76.5 -31q121 0 135 117h117q-12 -113 -78 -172.5t-176 -59.5q-98 0 -159.5 64t-53.5 168z" />
<glyph horiz-adv-x="1026" d="M164 244l145 923h287l-127 -802q-8 -20 -3 -37t4 -27t10.5 -17.5t16.5 -11.5t21.5 -6t26.5 -2h30h441l-41 -264h-606q-111 0 -167 61.5t-38 182.5zM379 1290l229 283h252l-295 -283h-186z" />
<glyph horiz-adv-x="1052" d="M161 459.5q5 84.5 21 195.5q43 270 163 399.5t380 129.5q285 0 453 -62l-31 -200q-35 6 -169 19t-222 13q-145 0 -201.5 -79.5t-85.5 -270.5q-10 -59 -13 -83.5t-7.5 -76t1 -74t16.5 -57t32.5 -50t57.5 -29t85 -13.5q161 2 399 31l-30 -195q-184 -66 -473 -65 q-117 0 -196 39t-118 99t-53 152.5t-9 177zM651 1317l232 285h250l-295 -285h-187z" />
<glyph horiz-adv-x="1048" d="M158 215l112 725q37 225 295 229q494 -10 596 -30l-35 -221h-505q-43 0 -56.5 -12.5t-19.5 -53.5l-25 -147l494 -17l-35 -215l-498 -14l-22 -144v-36q0 -13 11 -19t22.5 -8t29.5 -2h498l-35 -221q-59 -12 -220 -20.5t-293 -10.5l-132 -2q-100 2 -150 57.5t-32 161.5z M500 1569h184l92 -133l144 133h210l-264 -277h-207z" />
<glyph horiz-adv-x="1206" d="M188 0l187 1171h547q442 -4 358 -632q-14 -113 -43 -201t-60.5 -143.5t-79.5 -95.5t-83 -58t-91.5 -28.5t-84 -11.5t-78.5 -1h-21h-551zM516 254h234q113 0 167 87t76 239q53 338 -139 338h-231zM575 1573h185l92 -135l143 135h211l-264 -279h-207z" />
<glyph horiz-adv-x="1230" d="M125 0l184 1169h281l346 -682l104 682h285l-184 -1169h-279l-342 680l-108 -680h-287zM743 1292l232 285h250l-295 -285h-187z" />
<glyph horiz-adv-x="1230" d="M125 0l184 1169h281l346 -682l104 682h285l-184 -1169h-279l-342 680l-108 -680h-287zM565 1569h185l92 -133l145 133h211l-266 -277h-207z" />
<glyph horiz-adv-x="1222" d="M157 407.5q1 85.5 17 194.5q29 184 79 300t131 175.5t171 80t229 20.5q76 0 134.5 -7.5t115 -25t95 -47t68.5 -76.5t43 -111.5t12 -152.5t-19 -199q-25 -150 -64 -252t-87 -164.5t-121.5 -96.5t-150.5 -45t-189 -11q-74 0 -133.5 7t-114 25.5t-93 48t-68.5 77t-43 111 t-12 149zM463 584q-33 -209 5 -269.5t181 -60.5q68 0 108 9t80 42t65.5 101.5t43.5 181.5q14 92 14.5 152.5t-9 95t-40 52t-62.5 21.5t-93 4q-68 0 -105 -7t-78 -37.5t-66.5 -99t-43.5 -185.5zM553 1300l229 285h252l-295 -285h-186zM872 1300l230 285h252l-297 -285h-185z " />
<glyph horiz-adv-x="1114" d="M94 0l185 1167h544q154 0 246 -98t68 -305q-18 -158 -77 -232.5t-155 -95.5l160 -436h-303l-127 412q-186 14 -186 18l-68 -430h-287zM453 1567h184l92 -133l143 133h211l-264 -277h-207zM479 621h234q49 0 82.5 32.5t50.5 122.5q14 78 -15.5 114t-70.5 36h-232z" />
<glyph horiz-adv-x="1226" d="M190.5 354q0.5 90 14.5 211l100 602h289l-100 -635q-27 -170 15 -224t165 -54q111 0 170 56.5t86 221.5l100 635h289l-100 -667q-18 -117 -50 -204t-77 -141.5t-91.5 -89t-111 -50t-115.5 -20.5t-125 -5q-76 0 -135 9t-120.5 31.5t-100.5 63.5t-71 105.5t-31.5 154.5z M657 1497q8 88 73 147.5t151 59.5t143 -60.5t49 -146.5q-8 -88 -72.5 -147.5t-150.5 -59.5t-143.5 60.5t-49.5 146.5zM776 1497q-2 -37 21.5 -62.5t60.5 -25.5t63.5 25.5t30.5 62.5t-19.5 62.5t-60 25.5t-65.5 -25.5t-31 -62.5z" />
<glyph horiz-adv-x="1226" d="M190.5 354q0.5 90 14.5 211l100 602h289l-100 -635q-27 -170 15 -224t165 -54q111 0 170 56.5t86 221.5l100 635h289l-100 -667q-18 -117 -50 -204t-77 -141.5t-91.5 -89t-111 -50t-115.5 -20.5t-125 -5q-76 0 -135 9t-120.5 31.5t-100.5 63.5t-71 105.5t-31.5 154.5z M580 1290l229 283h252l-295 -283h-186zM899 1290l229 283h252l-295 -283h-186z" />
<glyph horiz-adv-x="1064" d="M207 903l43 264h958l-43 -264h-336l-143 -903h-287l144 903h-336zM233 -385l19 123l96 31q43 16 57.5 42.5t24.5 92.5h195q-25 -160 -85.5 -224.5t-191.5 -64.5h-115z" />
<glyph horiz-adv-x="1042" d="M92 473l25 150l139 51l78 493h287l-58 -376l201 77l-25 -147l-200 -78l-43 -278q-8 -20 -4 -37t3 -27t11 -17.5t17 -11.5t21.5 -6t27.5 -2h30h440l-43 -264h-606q-109 0 -166 61.5t-39 182.5l45 282z" />
<glyph horiz-adv-x="976" d="M141 356l9 62q27 164 138 242.5t275 50.5l3 21q3 22 6 42.5t3 22.5h224l-45 -289q-121 2 -205 0q-51 -2 -78 -21.5t-35 -68.5l-4 -45q-8 -57 15.5 -80t95.5 -23h424l-37 -231q-281 -45 -473 -37q-367 0 -316 354zM575 940l29 184q8 47 60 47h176q47 0 41 -47l-29 -184 q-6 -51 -57 -51h-177q-53 0 -43 51z" />
<glyph horiz-adv-x="1753" d="M134.5 376q3.5 95 17.5 222q29 184 79 301t130.5 177.5t171 81t229.5 20.5q233 0 328 -76q72 72 194 67q494 -10 594 -30l-35 -221h-504q-43 0 -56 -12.5t-19 -53.5l-23 -147l492 -17l-35 -215l-498 -14l-22 -144v-36q0 -13 11 -19t22.5 -8t29.5 -2h496l-35 -221 q-59 -12 -220 -20.5t-293 -10.5l-132 -2q-92 0 -129 55q-111 -61 -330 -61q-88 0 -153.5 9t-127 34.5t-96.5 68.5t-62.5 111t-24 163zM440 584q-35 -209 3 -269.5t184 -60.5q68 0 107.5 9t79.5 42t65.5 101.5t42.5 181.5q14 92 14 152.5t-9 95t-40 52t-62.5 21.5t-93.5 4 q-68 0 -104.5 -7t-77.5 -37.5t-66 -99t-43 -185.5z" />
<glyph horiz-adv-x="1202" d="M240 1167h301l168 -454l305 454h319l-518 -766l-61 -403h-287l61 403zM444 1411q8 51 49.5 86t90.5 35t78.5 -35t21.5 -86q-8 -49 -48 -85t-91 -36q-49 0 -79 36t-22 85zM967 1411q8 51 49 86t90 35t78.5 -35t21.5 -86q-8 -49 -48 -85t-91 -36q-49 0 -78.5 36t-21.5 85z " />
<glyph horiz-adv-x="1050" d="M78 0l33 201l120 41l37 237h-114l24 152l121 33l16 102q29 182 135.5 291.5t340.5 111.5l366 -26l-37 -234h-329q-98 0 -138.5 -35.5t-52.5 -111.5l-14 -90l366 -31l-26 -166h-371l-35 -225h496l-41 -250h-897z" />
<glyph horiz-adv-x="1107" d="M209 217l20 129h234l10 51h-235l20 131h186l-229 641h305l131 -442l281 442h330l-437 -641h207l-20 -131h-252l-10 -51h254l-21 -129h-252l-35 -217h-286l34 217h-235z" />
<glyph horiz-adv-x="2766" d="M156 719l32 203q20 137 91 202.5t227 65.5h166q139 0 194.5 -65.5t34.5 -202.5l-33 -203q-20 -141 -91.5 -204.5t-225.5 -63.5h-166q-266 0 -229 268zM362 752q-8 -55 8.5 -78t75.5 -23h109q63 0 87 22.5t32 78.5l20 137q8 61 -8 80.5t-76 19.5h-108q-59 0 -85 -20.5 t-34 -79.5zM549 0l794 1167h205l-786 -1167h-213zM1208 272l31 203q20 137 92 202.5t228 65.5h163q141 0 195.5 -65.5t34.5 -202.5l-31 -203q-20 -139 -93 -203.5t-226 -64.5h-164q-271 0 -230 268zM1415 305q-8 -55 7.5 -77.5t72.5 -22.5h111q66 0 89 22.5t29 77.5l21 137 q10 61 -6.5 81t-75.5 20h-111q-59 0 -84.5 -20.5t-33.5 -80.5zM2040 272l31 203q20 137 90.5 202.5t226.5 65.5h166q139 0 194.5 -65.5t32.5 -202.5l-31 -203q-20 -141 -91.5 -204.5t-225.5 -63.5h-166q-268 0 -227 268zM2245 305q-8 -55 8 -77.5t74 -22.5h108q63 0 88 22.5 t33 77.5l20 137q8 61 -8 81t-76 20h-108q-59 0 -85 -20.5t-34 -80.5z" />
<glyph horiz-adv-x="786" d="M250 1087l264 277h213l154 -277h-189l-94 132l-145 -132h-203z" />
<glyph horiz-adv-x="858" d="M266 1200q49 47 81 72.5t84 50.5t106 25q45 0 104 -36t100 -36q90 -2 205 82l29 -123q-143 -147 -254 -148q-47 0 -114.5 36t-106.5 36q-18 0 -38 -3t-33 -6t-32.5 -12.5t-29 -14.5t-34 -18t-34.5 -18z" />
<glyph horiz-adv-x="565" d="M279 1294q10 88 78.5 149.5t154.5 61.5t139.5 -61.5t43 -149.5t-78 -148.5t-153.5 -60.5t-139 60.5t-45 148.5zM399 1294q-4 -37 18.5 -61.5t59.5 -24.5t64.5 24.5t31.5 61.5q6 37 -15 62.5t-58 25.5t-67 -25.5t-34 -62.5z" />
<glyph horiz-adv-x="1290" d="M158 -2l131 829h-107l19 127h106l35 213h287l-35 -213h395l35 213h287l-35 -213h96l-18 -127h-97l-131 -829h-286l69 434h-395l-70 -434h-286zM553 696h395l23 131h-396z" />
<glyph horiz-adv-x="1198" d="M123 -2l184 1169h287l-74 -471h412l74 471h286l-184 -1169h-287l68 432h-412l-67 -432h-287zM504 1290l264 279h213l156 -279h-187l-86 133l-149 -133h-211z" />
<glyph horiz-adv-x="1161" d="M160 468q4 73 8 103.5t10 69.5q45 291 155.5 414t352.5 131q125 4 290 -10.5t253 -40.5l-33 -205q-211 25 -434 24q-100 0 -150.5 -23.5t-85 -99t-61.5 -241.5q-8 -53 -12 -87t-2 -87.5t16 -86t49 -57t90 -24.5q80 0 148.5 28.5t91.5 67.5l20 135h-207l25 158 q150 39 365 39q61 0 135 -6l-107 -670h-217l-49 90q-123 -104 -326 -104q-84 0 -147.5 31.5t-98 78.5t-54 117t-24.5 126t-1 129zM604 1542h119q-8 -53 19.5 -84t78.5 -31q121 -2 133 115h119q-12 -113 -78.5 -172t-175.5 -59q-98 0 -160.5 62.5t-54.5 168.5z" />
<glyph horiz-adv-x="686" d="M61 43l39 223q145 -12 200.5 20.5t76.5 141.5l117 739h286l-131 -829q-37 -240 -180 -305q-113 -47 -224.5 -42t-183.5 52zM332 1290l264 279h213l154 -279h-185l-88 133l-147 -133h-211z" />
<glyph horiz-adv-x="1052" d="M161 459.5q5 84.5 21 195.5q43 270 163 399.5t380 129.5q285 0 453 -62l-31 -200q-35 6 -169 19t-222 13q-145 0 -201.5 -79.5t-85.5 -270.5q-10 -59 -13 -83.5t-7.5 -76t1 -74t16.5 -57t32.5 -50t57.5 -29t85 -13.5q161 2 399 31l-30 -195q-184 -66 -473 -65 q-117 0 -196 39t-118 99t-53 152.5t-9 177zM653 1364l25 156q6 51 57 51h148q47 0 39 -51l-25 -156q-6 -47 -53 -47h-148q-49 0 -43 47z" />
<glyph horiz-adv-x="1052" d="M161 459.5q5 84.5 21 195.5q43 270 163 399.5t380 129.5q285 0 453 -62l-31 -200q-35 6 -169 19t-222 13q-145 0 -201.5 -79.5t-85.5 -270.5q-10 -59 -13 -83.5t-7.5 -76t1 -74t16.5 -57t32.5 -50t57.5 -29t85 -13.5q161 2 399 31l-30 -195q-184 -66 -473 -65 q-117 0 -196 39t-118 99t-53 152.5t-9 177zM457 1317l264 276h213l156 -276h-185l-88 133l-149 -133h-211z" />
<glyph horiz-adv-x="1161" d="M160 468q4 73 8 103.5t10 69.5q45 291 155.5 414t352.5 131q125 4 290 -10.5t253 -40.5l-33 -205q-211 25 -434 24q-100 0 -150.5 -23.5t-85 -99t-61.5 -241.5q-8 -53 -12 -87t-2 -87.5t16 -86t49 -57t90 -24.5q80 0 148.5 28.5t91.5 67.5l20 135h-207l25 158 q150 39 365 39q61 0 135 -6l-107 -670h-217l-49 90q-123 -104 -326 -104q-84 0 -147.5 31.5t-98 78.5t-54 117t-24.5 126t-1 129zM692 1358l27 155q6 51 57 52h148q47 0 39 -52l-27 -155q-6 -47 -53 -47h-148q-49 0 -43 47z" />
<glyph horiz-adv-x="1161" d="M160 468q4 73 8 103.5t10 69.5q45 291 155.5 414t352.5 131q125 4 290 -10.5t253 -40.5l-33 -205q-211 25 -434 24q-100 0 -150.5 -23.5t-85 -99t-61.5 -241.5q-8 -53 -12 -87t-2 -87.5t16 -86t49 -57t90 -24.5q80 0 148.5 28.5t91.5 67.5l20 135h-207l25 158 q150 39 365 39q61 0 135 -6l-107 -670h-217l-49 90q-123 -104 -326 -104q-84 0 -147.5 31.5t-98 78.5t-54 117t-24.5 126t-1 129zM477 1311l264 278h213l154 -278h-184l-88 135l-148 -135h-211z" />
<glyph horiz-adv-x="1226" d="M190.5 354q0.5 90 14.5 211l100 602h289l-100 -635q-27 -170 15 -224t165 -54q111 0 170 56.5t86 221.5l100 635h289l-100 -667q-18 -117 -50 -204t-77 -141.5t-91.5 -89t-111 -50t-115.5 -20.5t-125 -5q-76 0 -135 9t-120.5 31.5t-100.5 63.5t-71 105.5t-31.5 154.5z M625 1522h118q-8 -55 20 -86t77 -31q119 0 135 117h119q-14 -113 -80 -172.5t-174 -59.5q-98 0 -160.5 63t-54.5 169z" />
<glyph horiz-adv-x="1101" d="M133 29l33 202q313 -10 518 -10q82 0 92 72l15 80q8 45 -7.5 59t-62.5 14h-260q-305 0 -258 326l14 96q49 305 369 306q328 0 555 -48l-33 -206q-285 14 -504 14q-86 0 -100 -88l-10 -68q-8 -49 9 -63.5t64 -14.5h273q106 0 165.5 -49t73 -119.5t-1.5 -162.5l-14 -99 q-27 -168 -115 -229t-223 -61q-506 0 -592 49zM420 1296l264 277h213l156 -277h-187l-86 134l-149 -134h-211z" />
<glyph horiz-adv-x="497" d="M88 0l184 1167h287l-184 -1167h-287zM317 1319l27 156q6 51 57 51h148q47 0 39 -51l-27 -156q-6 -47 -53 -47h-148q-49 0 -43 47z" />
<glyph horiz-adv-x="536" d="M217 506l29 184q6 51 57 51h176q53 0 43 -51l-28 -184q-8 -47 -58 -47h-176q-49 0 -43 47z" />
<glyph horiz-adv-x="630" d="M217 539l37 243q10 72 80 72h231q70 0 60 -72l-37 -243q-10 -66 -84 -66h-232q-65 0 -55 66z" />
<glyph horiz-adv-x="522" d="M233 719l43 270q10 70 45 114t77 58.5t83 19.5t68 0l26 -5l-16 -113q-66 2 -78 -66l-6 -43h25q53 0 45 -53l-29 -182q-10 -59 -65 -60h-177q-49 1 -41 60z" />
<glyph horiz-adv-x="522" d="M236 666l18 114q63 -2 76 66l6 43h-23q-53 0 -45 53l29 182q10 59 63 60h177q51 0 43 -60l-45 -270q-10 -70 -45 -114t-77 -59t-83 -19.5t-68 0.5z" />
<glyph horiz-adv-x="1122" d="M125 0l184 1169h545q186 0 270 -87t60 -238q-37 -231 -203 -248q70 -12 107.5 -91t19.5 -196q-29 -174 -130 -241.5t-302 -67.5h-551zM451 244h241q115 0 131 125q6 66 -13 98.5t-77 32.5q-209 -2 -241 0zM524 709h242q63 0 89 25.5t36 88.5q10 59 -12.5 82t-77.5 23 h-242zM629 1339l24 156q6 51 58 51h147q47 0 39 -51l-25 -156q-6 -47 -53 -47h-147q-49 0 -43 47z" />
<glyph horiz-adv-x="1202" d="M125 0l186 1171h547q438 -4 359 -632q-14 -113 -44 -201t-62 -143.5t-80 -95.5t-83 -58t-91 -28.5t-82.5 -11.5t-77.5 -1h-21h-551zM451 254h233q113 0 168 87t78 239q53 338 -139 338h-234zM645 1341l25 156q6 51 57 51h147q47 0 39 -51l-24 -156q-6 -47 -53 -47h-148 q-49 0 -43 47z" />
<glyph horiz-adv-x="1050" d="M125 0l147 940q37 225 295 229q494 -10 596 -30l-35 -221h-505q-43 0 -56.5 -13.5t-21.5 -52.5l-27 -172l494 -16l-33 -215l-500 -15l-67 -434h-287zM639 1339l27 156q6 51 57 51h147q47 0 39 -51l-26 -156q-6 -47 -54 -47h-147q-49 0 -43 47z" />
<glyph horiz-adv-x="1564" d="M86 0l295 1169h371l94 -766l336 766h377l-76 -1169h-281l43 737l-309 -737h-287l-94 735l-182 -735h-287zM874 1339l25 156q6 51 57 51h148q47 0 39 -51l-25 -156q-6 -47 -53 -47h-147q-50 0 -44 47z" />
<glyph horiz-adv-x="1738" d="M240 1167h297l100 -813l346 813h299l-147 -327l92 -486l346 813h299l-524 -1167h-344l-68 381l-176 -381h-344zM770 1573h244l157 -283h-186z" />
<glyph horiz-adv-x="1081" d="M94 0l185 1165h565q158 0 240.5 -92t58.5 -295q-12 -106 -47 -181t-72 -111.5t-97.5 -57t-93 -24t-88.5 -3.5q-29 -2 -161.5 9.5t-134.5 15.5l-68 -426h-287zM479 618h242q51 0 83 31t48 123q14 74 -9.5 113t-74.5 39h-240zM606 1335l25 156q6 51 57 51h148q47 0 38 -51 l-24 -156q-6 -47 -53 -47h-148q-49 0 -43 47z" />
<glyph horiz-adv-x="1738" d="M240 1167h297l100 -813l346 813h299l-147 -327l92 -486l346 813h299l-524 -1167h-344l-68 381l-176 -381h-344zM997 1290l232 283h250l-295 -283h-187z" />
<glyph horiz-adv-x="1202" d="M240 1167h301l168 -454l305 454h319l-518 -766l-61 -403h-287l61 403zM485 1573h244l160 -283h-187z" />
<glyph horiz-adv-x="1738" d="M240 1167h297l100 -813l346 813h299l-147 -327l92 -486l346 813h299l-524 -1167h-344l-68 381l-176 -381h-344zM715 1411q8 51 48 86t91 35q49 0 79 -35t21 -86q-8 -49 -48 -85t-91 -36q-49 0 -78.5 36t-21.5 85zM1237 1411q8 51 48 86t91 35q49 0 79 -35t22 -86 q-8 -49 -48 -85t-92 -36q-49 0 -78.5 36t-21.5 85z" />
<glyph horiz-adv-x="1101" d="M133 29l33 202q313 -10 518 -10q82 0 92 72l15 80q8 45 -7.5 59t-62.5 14h-260q-305 0 -258 326l14 96q49 305 369 306q328 0 555 -48l-33 -206q-285 14 -504 14q-86 0 -100 -88l-10 -68q-8 -49 9 -63.5t64 -14.5h273q106 0 165.5 -49t73 -119.5t-1.5 -162.5l-14 -99 q-27 -168 -115 -229t-223 -61q-506 0 -592 49zM616 1343l25 156q6 51 57 51h148q47 0 39 -51l-25 -156q-6 -47 -53 -47h-148q-49 0 -43 47z" />
<glyph horiz-adv-x="1738" d="M240 1167h297l100 -813l346 813h299l-147 -327l92 -486l346 813h299l-524 -1167h-344l-68 381l-176 -381h-344zM760 1290l264 279h213l154 -279h-185l-88 133l-147 -133h-211z" />
<glyph horiz-adv-x="1064" d="M197 903l43 264h958l-43 -264h-336l-143 -903h-287l143 903h-335zM616 1337l27 156q6 51 57 51h148q47 0 39 -51l-27 -156q-6 -47 -53 -47h-148q-49 0 -43 47z" />
<glyph horiz-adv-x="1202" d="M240 1167h301l168 -454l305 454h319l-518 -766l-61 -403h-287l61 403zM492 1290l264 279h213l153 -279h-184l-88 133l-148 -133h-210z" />
<glyph horiz-adv-x="2039" d="M147 578q27 162 70 269t103.5 160.5t124 73t149.5 19.5q96 0 241.5 -17.5t247.5 -50.5l-26 -176q-195 12 -377 12q-59 0 -88 -6t-62.5 -36.5t-55 -99.5t-40.5 -187q-18 -82 -11 -139.5t18.5 -92.5t44 -54.5t65.5 -25.5t82 -8q174 -6 514 180l190 1203h287l-162 -1012 q168 119 286 256t130 241h305q-33 -135 -144.5 -286.5t-242.5 -257.5l322 -543h-320l-229 371q-145 -94 -156 -99l-43 -272h-287l21 127q-289 -133 -481 -133q-283 0 -405 131t-71 453z" />
<glyph horiz-adv-x="1458" d="M125 0l194 1253q14 100 82 167t156 83.5t173 2t145.5 -75t62.5 -146.5l137 -999q0 -18 11.5 -24.5t23.5 2.5t14 28l193 1208h287l-195 -1251q-12 -82 -62.5 -141.5t-117 -88t-142 -29.5t-139 25.5t-107.5 88t-48 145.5l-134 993q-2 27 -27 17q-21 -8 -26 -31l-194 -1227 h-287z" />
<glyph horiz-adv-x="1757" d="M86 0l270 1276q16 86 83 145.5t151 73.5t165 -1t133 -77.5t46 -156.5l10 -629q0 -18 12.5 -24.5t26.5 1.5t18 23l201 653q35 145 187.5 200.5t284.5 -4t120 -194.5l-119 -1286h-291l117 1157q4 25 -20 24q-27 0 -35 -26l-201 -627q-20 -72 -85.5 -121t-145.5 -61t-157 1 t-127 66.5t-50 135.5l-16 614q0 27 -26 23q-24 -4 -30 -33l-237 -1153h-285z" />
<glyph horiz-adv-x="1757" d="M86 0l270 1276q16 86 83 145.5t151 73.5t165 -1t133 -77.5t46 -156.5l10 -629q0 -18 12.5 -24.5t26.5 1.5t18 23l201 653q35 145 187.5 200.5t284.5 -4t120 -194.5l-119 -1286h-291l117 1157q4 25 -20 24q-27 0 -35 -26l-201 -627q-20 -72 -85.5 -121t-145.5 -61t-157 1 t-127 66.5t-50 135.5l-16 614q0 27 -26 23q-24 -4 -30 -33l-237 -1153h-285zM979 1686l25 155q6 51 57 51h147q47 0 39 -51l-24 -155q-6 -47 -54 -48h-147q-49 1 -43 48z" />
<glyph horiz-adv-x="1458" d="M125 0l194 1253q14 100 82 167t156 83.5t173 2t145.5 -75t62.5 -146.5l137 -999q0 -18 11.5 -24.5t23.5 2.5t14 28l193 1208h287l-195 -1251q-12 -82 -62.5 -141.5t-117 -88t-142 -29.5t-139 25.5t-107.5 88t-48 145.5l-134 993q-2 27 -27 17q-21 -8 -26 -31l-194 -1227 h-287zM623 1745q152 143 270 143q49 -2 110.5 -36.5t94.5 -34.5q47 -2 110.5 24.5t94.5 52.5l28 -122q-49 -43 -77.5 -67t-81 -48.5t-97.5 -24.5q-53 2 -116.5 37t-100.5 35q-12 0 -24.5 -1t-21.5 -2t-21.5 -5t-19.5 -6t-20.5 -7.5t-18.5 -7.5t-19.5 -10t-18.5 -10 t-20.5 -11.5t-20.5 -11.5z" />
<glyph horiz-adv-x="1458" d="M125 0l194 1253q14 100 82 167t156 83.5t173 2t145.5 -75t62.5 -146.5l137 -999q0 -18 11.5 -24.5t23.5 2.5t14 28l193 1208h287l-195 -1251q-12 -82 -62.5 -141.5t-117 -88t-142 -29.5t-139 25.5t-107.5 88t-48 145.5l-134 993q-2 27 -27 17q-21 -8 -26 -31l-194 -1227 h-287zM958 1636l230 285h252l-295 -285h-187z" />
<glyph horiz-adv-x="1458" d="M125 0l194 1253q14 100 82 167t156 83.5t173 2t145.5 -75t62.5 -146.5l137 -999q0 -18 11.5 -24.5t23.5 2.5t14 28l193 1208h287l-195 -1251q-12 -82 -62.5 -141.5t-117 -88t-142 -29.5t-139 25.5t-107.5 88t-48 145.5l-134 993q-2 27 -27 17q-21 -8 -26 -31l-194 -1227 h-287zM752 1915h184l92 -135l143 135h211l-264 -279h-207z" />
<glyph horiz-adv-x="1458" d="M125 0l194 1253q14 100 82 167t156 83.5t173 2t145.5 -75t62.5 -146.5l137 -999q0 -18 11.5 -24.5t23.5 2.5t14 28l193 1208h287l-195 -1251q-12 -82 -62.5 -141.5t-117 -88t-142 -29.5t-139 25.5t-107.5 88t-48 145.5l-134 993q-2 27 -27 17q-21 -8 -26 -31l-194 -1227 h-287zM565 -590l15 94q59 -2 69 50l4 28h-20q-49 0 -41 47l24 172q8 51 60 52h164q45 0 37 -52l-37 -241q-10 -61 -42 -99.5t-70 -48.5t-76 -12t-62 4z" />
<glyph horiz-adv-x="948" d="M213 768l78 487q39 254 291 254h241q133 0 191.5 -68.5t40.5 -176.5l-78 -496q-20 -131 -87 -188.5t-192 -57.5h-241q-119 0 -191.5 60.5t-52.5 185.5zM442 815q-8 -55 11.5 -71.5t70.5 -16.5h131q51 0 76 18.5t33 67.5l70 406q8 47 -7.5 66.5t-66.5 19.5h-144 q-53 0 -75.5 -21.5t-28.5 -64.5z" />
<glyph horiz-adv-x="571" d="M225 1237l23 152q51 0 133 44t113 78h217l-158 -989h-221l123 762q-60 -47 -230 -47z" />
<glyph horiz-adv-x="815" d="M137 522l31 197q528 332 551 483q10 68 -19.5 92.5t-117.5 24.5h-326l6 42q6 42 13.5 84t7.5 40q223 39 405 39q143 0 211 -99.5t49 -216.5q-8 -55 -36.5 -112.5t-60.5 -100.5t-80 -91t-78.5 -73.5t-77 -61.5t-54.5 -42h307l-32 -205h-699z" />
<glyph horiz-adv-x="833" d="M141 555l27 162l328 2q74 0 109.5 17.5t43.5 66.5l4 26q8 51 -21.5 70t-94.5 21l-252 10l26 178l258 10q72 4 106 21.5t40 62.5l4 25q8 47 -21.5 65.5t-99.5 18.5h-346l27 162q145 49 444 40q117 -2 177.5 -76.5t43.5 -183.5l-10 -61q-27 -158 -143 -182q53 -20 73.5 -79 t7.5 -132l-8 -49q-37 -238 -309 -236h-47h-47h-43q-33 0 -45.5 1t-41 2t-43 3t-38 5t-39.5 7.5t-35 10.5t-35 12z" />
<glyph horiz-adv-x="890" d="M154 819l460 690h240l-375 -575h226l32 211l66 100h166l-49 -311h98l-29 -174l-106 -35l-29 -199h-215l33 197h-475z" />
<glyph horiz-adv-x="849" d="M170 549l29 174h393q53 0 76.5 19.5t27.5 62.5l9 69q2 20 3 40t-16.5 33.5t-54.5 13.5h-135q-72 0 -84 -70h-193l129 618h635l-33 -204h-426l-38 -183q63 45 241 35q117 -6 163 -85t32 -183l-21 -146q-27 -231 -295 -227q-260 0 -442 33z" />
<glyph horiz-adv-x="890" d="M244 1057q23 137 55.5 230t75.5 139.5t84 65.5t94 24q225 23 477 -27l-26 -170h-365q-45 0 -76 -18.5t-47 -58.5t-23.5 -64.5t-15.5 -75.5q123 31 283 31q129 2 180 -74t33 -180l-23 -144q-18 -119 -90 -166t-201 -47h-190q-135 0 -202.5 123t-22.5 412zM451 948 q-31 -221 84 -221h118q78 0 88 72l13 80q6 43 -6.5 56t-55.5 13h-241z" />
<glyph horiz-adv-x="821" d="M229 1307l33 204h717l43 -96l-516 -893h-244l455 785h-488z" />
<glyph horiz-adv-x="948" d="M217 687q-8 42 2 79l14 92q20 115 144 139q-113 55 -86 211l14 86q20 131 98 177.5t205 46.5h234q113 0 171 -66t38 -184l-11 -70q-4 -25 -15 -49.5t-44 -54t-78 -37.5q59 -16 75.5 -80t6.5 -123l-18 -113q-10 -74 -36 -121t-69 -66t-81 -25.5t-99 -6.5h-231 q-80 0 -134.5 24.5t-73 61.5t-26.5 79zM446 786q-6 -37 10.5 -52t67.5 -15h135q82 0 91 67l12 70q12 76 -66 76h-147q-43 0 -63.5 -17.5t-26.5 -58.5zM512 1194q-12 -76 68 -76h141q37 0 57.5 12.5t26.5 25.5t10 38l8 47q8 51 -9 66.5t-62 15.5h-134q-47 0 -68.5 -16.5 t-29.5 -65.5z" />
<glyph horiz-adv-x="892" d="M190 541l27 172h365q45 0 75.5 18.5t48 58t24.5 67.5t15 79q-111 -27 -282 -31q-129 0 -179.5 80t-31.5 186l18 129q18 123 91 174.5t198 49.5l203 -2q135 0 198.5 -130t16.5 -427q-23 -139 -55.5 -231.5t-76.5 -136.5t-83 -60.5t-94 -22.5q-167 -16 -478 27zM473 1176 q-8 -45 4 -59.5t55 -14.5h240q33 217 -86 217h-117q-41 0 -60.5 -17.5t-25.5 -58.5z" />
<glyph horiz-adv-x="944" d="M129 244l78 487q39 254 291 254h241q133 0 191.5 -68.5t40.5 -177.5l-78 -495q-20 -131 -87 -188.5t-192 -57.5h-241q-119 0 -191.5 60.5t-52.5 185.5zM358 291q-8 -55 11.5 -71.5t70.5 -16.5h131q51 0 76 18.5t33 67.5l70 405q8 47 -7.5 66.5t-66.5 19.5h-144 q-53 0 -75.5 -21.5t-28.5 -64.5z" />
<glyph horiz-adv-x="571" d="M141 713l23 151q51 0 133 44t113 79h217l-156 -989h-221l123 762q-64 -47 -232 -47z" />
<glyph horiz-adv-x="815" d="M55 -2l31 197q528 332 551 483q10 68 -19.5 92.5t-117.5 24.5h-326l6 42q6 42 13.5 84t7.5 40q223 39 405 38q143 0 211 -99t49 -216q-8 -55 -36.5 -112.5t-60.5 -100.5t-80 -91t-78.5 -73.5t-77 -61.5t-54.5 -42h307l-32 -205h-699z" />
</font>
</defs>
</svg>
