<?xml version="1.0" standalone="no"?>
<!DOCTYPE svg PUBLIC "-//W3C//DTD SVG 1.1//EN" "http://www.w3.org/Graphics/SVG/1.1/DTD/svg11.dtd" >
<svg xmlns="http://www.w3.org/2000/svg">
<metadata>
This is a custom SVG webfont generated by Font Squirrel.
Copyright   : Copyright c 2011 Natanael Gama exondiscoveredcom with Reserved Font Name Exo
Designer    : Natanael Gama
</metadata>
<defs>
<font id="ExoBlackItalic" horiz-adv-x="1136" >
<font-face units-per-em="2048" ascent="1638" descent="-410" />
<missing-glyph horiz-adv-x="512" />
<glyph unicode="&#xfb01;" horiz-adv-x="1259" d="M70 813l39 240l151 34l27 121q29 186 170 291t366 111q115 2 304.5 -10.5t238.5 -38.5l-37 -228l-395 2q-45 0 -82 -7t-79 -26.5t-70.5 -63.5t-38.5 -112l-7 -39l686 -20l-169 -1067h-398l129 813h-291l-129 -813h-397l129 813h-147z" />
<glyph unicode="&#xfb02;" horiz-adv-x="1413" d="M150 813l38 240l152 34l20 101q20 135 72.5 224t132.5 130t156 54.5t182 13.5l637 -6l-180 -1135q-12 -109 -2 -140.5t47 -54.5q80 -43 94 -43l-37 -231h-221q-160 0 -241.5 92t-49.5 295l150 946l-189 2q-78 0 -114.5 -36.5t-51.5 -131.5l-8 -80h201l-43 -274h-201 l-129 -813h-397l129 813h-147z" />
<glyph horiz-adv-x="1552" d="M205 0v1087h1143v-1087h-1143zM233 45l525 500l-525 493v-993zM254 1061l526 -496l520 496h-1046zM260 27h1038l-518 497zM803 545l516 -494v985z" />
<glyph horiz-adv-x="1552" d="M205 0v1087h1143v-1087h-1143zM233 45l525 500l-525 493v-993zM254 1061l526 -496l520 496h-1046zM260 27h1038l-518 497zM803 545l516 -494v985z" />
<glyph unicode="&#xd;" horiz-adv-x="2048" />
<glyph unicode=" "  horiz-adv-x="512" />
<glyph unicode="&#x09;" horiz-adv-x="512" />
<glyph unicode="&#xa0;" horiz-adv-x="512" />
<glyph unicode="!" horiz-adv-x="567" d="M117 47l39 240q6 51 57 51h236q47 0 38 -51l-38 -240q-6 -47 -54 -47h-235q-49 0 -43 47zM193 401l137 1096h377l-215 -1096h-299z" />
<glyph unicode="&#x22;" horiz-adv-x="1017" d="M295 1087l18 275l23 137h377l-23 -137l-63 -275h-332zM737 1087l23 275l22 137h377l-22 -137l-64 -275h-336z" />
<glyph unicode="#" horiz-adv-x="1533" d="M84 393l84 271h301l59 174h-305l86 270h316l139 391h270l-139 -391h180l137 391h271l-137 -391h342l-82 -270h-344l-60 -176h344l-80 -271h-368l-137 -391h-271l137 391l-182 2l-137 -393h-270l137 393h-291zM739 664l193 -2l59 176h-192z" />
<glyph unicode="$" horiz-adv-x="1159" d="M119 53l49 309q219 -23 465 -22q66 0 96.5 19.5t38.5 64.5l4 33q8 47 -11.5 68.5t-82.5 21.5h-123q-92 0 -160.5 28.5t-103.5 77.5t-55.5 100.5t-21.5 113t0 97t7 70.5l17 125q16 106 59 177t112.5 107t140.5 50t167 18l26 177h222l-27 -177q174 -8 334 -67l-49 -309 q-184 20 -428 20q-90 0 -123 -14.5t-43 -75.5l-4 -23q-8 -53 11 -75.5t97 -22.5h131q111 0 184.5 -53t99.5 -128t36 -159t-6 -145l-11 -68q-16 -106 -53 -183t-80 -119t-105.5 -66.5t-112.5 -30.5t-120 -8l-26 -168h-221l26 168q-27 0 -50.5 1t-40.5 2t-36.5 3t-31 3t-31 6 t-26.5 7t-30.5 9.5t-31 10.5t-38 13t-40.5 14z" />
<glyph unicode="%" horiz-adv-x="1980" d="M205 1022l37 231q20 131 96 188.5t231 57.5h207q143 0 200.5 -82t37.5 -219l-37 -231q-20 -131 -97 -191.5t-231 -60.5h-207q-143 0 -200 84t-37 223zM391 0l1168 1499h253l-1153 -1499h-268zM469 1011.5q0 -18.5 15.5 -29.5t47.5 -11h105q84 0 94 82l17 108 q8 49 -7.5 65.5t-56.5 16.5h-104q-80 0 -93 -82l-16 -108q-2 -23 -2 -41.5zM1208 303l35 232q20 133 96 194.5t230 61.5h209q143 0 200.5 -84t36.5 -224l-33 -231q-20 -131 -98 -188.5t-233 -57.5h-209q-279 0 -234 297zM1473 344q-6 -41 5 -61.5t58 -20.5h102q84 0 95 82 l16 109q8 49 -7.5 65.5t-55.5 16.5h-103q-82 0 -94 -82z" />
<glyph unicode="&#x26;" horiz-adv-x="1456" d="M160 178q-184 326 145 570l178 133l-65 116q-59 115 -40 220.5t93 183.5t166 94q262 47 616 -41l-47 -295h-272q-113 0 -124 -30.5t48 -129.5l186 -327l283 235l115 -180l-144 -254l-92 -88l219 -385h-442l-94 166l-156 -115q-72 -53 -178 -65.5t-220 35.5t-175 157z M481 397q57 -94 150 -22l88 69l-90 150l-99 -68q-86 -70 -49 -129z" />
<glyph unicode="'" horiz-adv-x="524" d="M258 1087l21 275l22 137h399l-22 -137l-64 -275h-356z" />
<glyph unicode="(" horiz-adv-x="843" d="M161.5 285.5q1.5 154.5 28.5 320.5q88 558 417 905q83 88 145 127h350q-16 -20 -46 -57t-107 -155.5t-141.5 -240.5t-129 -298t-90.5 -342q-29 -195 -23 -363t37 -303t64.5 -231.5t60.5 -148.5l27 -52h-351q-6 8 -18 21.5t-45 65.5t-61.5 112.5t-58.5 162t-45 212 t-13.5 265z" />
<glyph unicode=")" horiz-adv-x="845" d="M-45 -553q16 18 45 52t105.5 146.5t140 233.5t129 303.5t94.5 362.5q75 474 -111 962l-57 131h350q6 -8 18.5 -24.5t44 -73.5t59.5 -120.5t57.5 -167t45 -213t15.5 -256t-25 -300.5q-37 -227 -103.5 -417.5t-136 -300t-134 -186.5t-105.5 -104l-41 -28h-391z" />
<glyph unicode="*" horiz-adv-x="854" d="M240 1159l22 144l291 38l-21 -192zM291 856l94 283l180 -49l-145 -277zM508 940l131 162l203 -182l-103 -115zM555 1479l143 45l84 -258l-190 -70zM655 1169l271 166l65 -116l-239 -199z" />
<glyph unicode="+" horiz-adv-x="933" d="M131 571l49 316h266l43 268h316l-43 -268h270l-49 -316h-270l-43 -268h-316l43 268h-266z" />
<glyph unicode="," horiz-adv-x="520" d="M80 -180l20 127q29 0 44.5 7t19.5 14t6 22l2 10h-22q-51 0 -44 51l37 234q8 55 60 55h227q49 0 41 -55l-49 -308q-12 -72 -51 -113.5t-87 -52t-94.5 -9.5t-77.5 10z" />
<glyph unicode="-" horiz-adv-x="722" d="M125 436l49 316h643l-49 -316h-643z" />
<glyph unicode="." horiz-adv-x="524" d="M104 47l39 240q6 51 58 51h231q53 0 43 -51l-39 -240q-8 -47 -57 -47h-232q-49 0 -43 47z" />
<glyph unicode="/" horiz-adv-x="1030" d="M0 -147l848 1724h407l-847 -1724h-408z" />
<glyph unicode="0" horiz-adv-x="1267" d="M139 393l111 692q33 207 134 310.5t288 103.5h336q209 0 296 -112.5t60 -280.5l-113 -713q-63 -393 -401 -393h-336q-201 0 -302.5 105.5t-72.5 287.5zM551 477q-8 -53 8 -81.5t36.5 -34t51.5 -5.5h86q59 0 90 21.5t43 97.5l88 549q18 119 -80 119h-116 q-37 0 -62.5 -13.5t-37 -38t-15.5 -36t-6 -31.5z" />
<glyph unicode="1" horiz-adv-x="776" d="M215 1081l39 252q174 53 272 166h394l-238 -1499h-397l178 1122q-87 -58 -248 -41z" />
<glyph unicode="2" horiz-adv-x="1187" d="M61 0l56 344q201 121 484.5 349.5t299.5 328.5q14 88 -32 113.5t-181 25.5h-457l48 297q291 61 612 62q229 0 334.5 -156t70.5 -383q-10 -68 -48 -138.5t-74.5 -121.5t-108.5 -117.5t-105.5 -95.5t-111.5 -87.5t-84 -64.5h430l-57 -356h-1076z" />
<glyph unicode="3" horiz-adv-x="1175" d="M53 43l49 301h447q129 0 168 15.5t49 82.5l2 21q4 29 -2 47t-14.5 28.5t-37 16.5t-48 7t-70.5 5l-332 19l53 323l336 17q57 2 77 4t52.5 7t43 15.5t21.5 27.5t15 46l2 16q6 37 -3 59.5t-39.5 32t-56.5 11.5t-77 2h-473l47 299q197 66 682 57q170 -4 263 -120.5t65 -299.5 l-15 -79q-39 -231 -219 -259q90 -25 117 -124t6 -232l-10 -59q-53 -344 -461 -344h-76h-80q-16 0 -73.5 1t-79 2t-68.5 4t-72.5 7t-63.5 10t-66.5 14.5t-57.5 18.5z" />
<glyph unicode="4" horiz-adv-x="1300" d="M94 459l596 1040h426l-457 -854h199l45 275l80 159h342l-70 -434h123l-47 -305l-133 -59l-43 -277h-397l43 277h-666z" />
<glyph unicode="5" horiz-adv-x="1212" d="M94 41l51 317h541q45 0 73.5 9.5t41 31t15.5 32.5t7 36l11 63q8 55 -9.5 82t-72.5 27h-90q-90 0 -105 -92h-381l197 952h948l-57 -356h-562l-40 -209q63 35 141 41t153 0q168 -14 236 -131t45 -291l-31 -234q-53 -328 -477 -327q-211 0 -330 8t-305 41z" />
<glyph unicode="6" horiz-adv-x="1226" d="M168 425.5q0 159.5 33 401.5q25 158 64.5 276t82.5 188.5t101.5 116.5t107.5 64.5t113 28.5q281 43 671 -43l-47 -303h-448q-55 0 -93 -14.5t-59.5 -31.5t-38 -59t-21.5 -69t-16 -86q59 29 121 36t199 7q377 0 309 -428l-30 -207q-31 -184 -137.5 -244.5t-309.5 -60.5 h-283q-98 0 -164.5 39t-110.5 134t-44 254.5zM570 396q24 -42 126 -42h45q51 0 73 19.5t30 75.5l8 40q14 66 3 89.5t-64 23.5h-220q-25 -164 -1 -206z" />
<glyph unicode="7" horiz-adv-x="1148" d="M215 1143l57 356h985l70 -160l-680 -1339h-422l586 1143h-596z" />
<glyph unicode="8" horiz-adv-x="1261" d="M143 408l17 108q29 172 190 199q-66 35 -92.5 99.5t-24 116.5t14.5 132l20 133q16 102 58.5 169t111 96.5t132 38.5t155.5 9h319q182 0 265.5 -101t52.5 -296l-14 -90q-8 -59 -55.5 -121.5t-137.5 -75.5q63 -12 93 -78.5t25 -134t-9 -118.5l-25 -156q-16 -96 -49 -162.5 t-68 -100.5t-97 -51.5t-104 -20.5t-118 -3h-318q-405 0 -342 408zM551 430q-8 -53 9.5 -73.5t70.5 -20.5h106q61 0 84 22.5t29 71.5l12 82q8 47 -6 71.5t-70 24.5h-110q-59 0 -83 -24.5t-30 -71.5zM643 1012q-8 -57 9.5 -73.5t72.5 -16.5h106q63 0 83 19.5t28 70.5l8 61 q0 37 1 57.5t-16 29.5t-28.5 11.5t-36.5 2.5h-106q-53 0 -77.5 -17.5t-35.5 -83.5z" />
<glyph unicode="9" horiz-adv-x="1224" d="M125 41l47 303h449q68 0 110.5 17.5t65 59.5t32 76.5t21.5 106.5q-59 -29 -121.5 -36t-200.5 -7q-106 0 -177.5 39t-99.5 101.5t-37 143.5t9 165l27 166q29 186 137.5 255.5t304.5 69.5h283q137 0 215 -82t103.5 -275.5t-29.5 -512.5q-25 -158 -65 -271.5t-81 -178 t-101.5 -104.5t-105.5 -54.5t-112 -24.5q-283 -43 -674 43zM612.5 920.5q10.5 -23.5 63.5 -23.5h219q25 160 0 204t-127 44h-43q-51 0 -72.5 -19.5t-29.5 -74.5l-7 -41q-14 -66 -3.5 -89.5z" />
<glyph unicode=":" horiz-adv-x="526" d="M104 47l39 240q6 51 58 51h231q53 0 43 -51l-39 -240q-8 -47 -57 -47h-232q-49 0 -43 47zM223 797l39 239q6 51 57 51h232q51 0 41 -51l-37 -239q-8 -47 -57 -47h-232q-49 0 -43 47z" />
<glyph unicode=";" horiz-adv-x="526" d="M80 -180l20 127q29 0 44.5 7t19.5 14t6 22l2 10h-22q-51 0 -44 51l37 234q8 55 60 55h227q49 0 41 -55l-49 -308q-12 -72 -51 -113.5t-87 -52t-94.5 -9.5t-77.5 10zM225 797l37 239q6 51 57 51h232q53 0 43 -51l-37 -239q-8 -47 -59 -47h-232q-47 0 -41 47z" />
<glyph unicode="&#x3c;" horiz-adv-x="882" d="M143 545l56 348l811 266l-56 -348l-393 -98l361 -99l-56 -348z" />
<glyph unicode="=" horiz-adv-x="956" d="M92 332l49 315h875l-49 -315h-875zM164 780l49 316h874l-49 -316h-874z" />
<glyph unicode="&#x3e;" horiz-adv-x="880" d="M98 266l56 348l395 127l-365 70l56 348l725 -266l-54 -348z" />
<glyph unicode="?" horiz-adv-x="1116" d="M205 1155l47 297q291 74 588 61q219 0 324.5 -137t78.5 -303l-18 -145q-27 -209 -138.5 -290t-365.5 -73l-25 -166h-297l72 455h188q80 4 120 35t52 108l5 31q10 66 -29 96.5t-129 30.5h-473zM322 47l38 240q6 51 58 51h231q53 0 43 -51l-39 -240q-8 -47 -57 -47h-231 q-49 0 -43 47z" />
<glyph unicode="@" horiz-adv-x="1884" d="M82 121l149 946q23 139 74 230.5t135 137.5t175.5 62t222.5 16h727q451 0 366 -569l-92 -622q-25 -172 -121 -244t-313 -72h-254l-49 103q-80 -121 -236 -117q-190 6 -271 169t-40 437q25 164 76 272.5t123.5 159.5t142.5 69.5t160 18.5q178 0 280.5 -31.5t182.5 -109.5 l-97 -676q74 0 96.5 29.5t41.5 154.5l73 500q20 137 -15.5 184.5t-148.5 47.5h-700q-70 0 -117 -18.5t-72.5 -55.5t-37 -71t-19.5 -87l-143 -905q-14 -96 21.5 -144.5t158.5 -48.5h791l-39 -239q-276 -55 -598 -56h-180q-533 1 -453 529zM839 471q-3 -35 1 -85t31.5 -75.5 t78.5 -23.5q180 6 193 143l59 385q-74 10 -162 10q-86 0 -126.5 -57t-63.5 -207q-8 -55 -11 -90z" />
<glyph unicode="A" horiz-adv-x="1456" d="M51 0l707 1499h469l217 -1499h-408l-43 262h-385l-116 -262h-441zM752 600h215l-47 401z" />
<glyph unicode="B" horiz-adv-x="1230" d="M92 0l238 1499h631q229 0 323 -124q70 -93 70 -228q0 -46 -8 -98q-16 -102 -89 -182.5t-180 -88.5q111 -18 169 -124q42 -77 42 -177q0 -37 -6 -76q-14 -96 -36.5 -164.5t-61.5 -112.5t-77 -69.5t-105.5 -37t-121 -14.5t-147.5 -3h-641zM543 336h223q55 0 83 36t40 107 q5 29 5 52q0 95 -83 96h-223zM639 942h203q45 0 73.5 29.5t34.5 75.5q3 19 3 35q0 81 -74 81h-2h-203z" />
<glyph unicode="C" horiz-adv-x="1159" d="M180 817q57 371 199.5 535t439.5 164q213 0 305.5 -15.5t223.5 -66.5l-50 -310l-12 2q-12 2 -33.5 5.5t-50 7.5t-65.5 7t-76 6t-85 5t-89 2h-61q-16 0 -50.5 -5t-46.5 -14.5t-35.5 -28.5t-35 -48t-28 -73t-28.5 -103.5t-24 -136.5q-23 -139 -23 -224q-1 -70 15 -105 q34 -77 188 -77q96 0 200.5 4t161.5 9l58 5l-50 -309q-104 -41 -216 -55q-88 -11 -241 -11q-44 0 -93 1q-423 6 -423 540q0 129 25 289z" />
<glyph unicode="D" horiz-adv-x="1323" d="M92 0l238 1499h647q426 0 425 -539q0 -125 -22 -278q-31 -213 -80 -348t-127.5 -208t-170 -99.5t-228.5 -26.5h-682zM543 336h213q96 0 145 93t84 316q25 130 25 215q0 32 -4 58q-14 94 -44 119.5t-96 25.5h-192z" />
<glyph unicode="E" d="M131 354l129 817q16 104 60.5 174t110 102t125.5 42t140 10q387 0 623 -33l-53 -333h-506q-39 0 -62.5 -9.5t-36 -29t-16.5 -33.5t-8 -43l-12 -82l503 -23l-53 -329l-510 -19l-16 -98q-6 -39 0 -62.5t27.5 -31.5t37 -10.5t45.5 -2.5h486l-53 -331q-96 -12 -250 -21.5 t-259 -11.5l-106 -2h-23q-39 0 -76 5q-48 7 -101.5 30.5t-88.5 61.5q-36 37 -54 105q-10 37 -9 82q0 36 6 76z" />
<glyph unicode="F" horiz-adv-x="1140" d="M82 0l178 1130q16 106 61.5 181t109 114t129 56.5t140.5 17.5q387 0 623 -33l-51 -333h-506q-39 0 -63.5 -9.5t-37 -29t-16.5 -35t-8 -41.5l-14 -90l506 -23l-52 -330l-514 -18l-88 -557h-397z" />
<glyph unicode="G" horiz-adv-x="1265" d="M152 522q3 146 38 318q37 190 79 309t113 206t173 124t254 37q242 0 326 -11.5t284 -68.5l-49 -301q-2 0 -29.5 5t-74.5 11t-104.5 12t-133.5 11.5t-149 5.5q-139 0 -194.5 -85t-96.5 -341q-18 -113 -24 -172q-6 -52 -6 -98v-14q1 -52 20.5 -72.5t50 -32t88 -11.5 t97.5 23.5t52 47.5l13 24l24 153h-100l39 246q104 51 366 51q66 0 140 -6l-144 -893h-280l-97 100q-55 -59 -104 -80.5t-166 -29.5q-19 -1 -38 -1q-128 0 -211 61q-95 69 -126 198q-30 120 -30 253v21z" />
<glyph unicode="H" horiz-adv-x="1302" d="M92 0l238 1499h397l-94 -596h348l94 596h398l-238 -1499h-397l86 547h-349l-86 -547h-397z" />
<glyph unicode="I" horiz-adv-x="577" d="M92 0l238 1499h397l-238 -1499h-397z" />
<glyph unicode="J" horiz-adv-x="724" d="M47 51l49 316q109 0 158 19.5t65.5 54t30.5 124.5l148 934h397l-184 -1161q-35 -229 -158 -301q-81 -46 -226 -46q-17 0 -35 1q-171 6 -245 59z" />
<glyph unicode="K" horiz-adv-x="1351" d="M92 0l238 1499h377l-95 -590h62l399 590h477l-530 -784l293 -715h-447l-204 573h-101l-90 -573h-379z" />
<glyph unicode="L" horiz-adv-x="1075" d="M141 319l187 1180h397l-164 -1036q-6 -39 0 -62.5t27.5 -32t37 -10.5t46.5 -2h422l-58 -356h-606q-152 0 -234 78q-62 58 -62 165q0 35 7 76z" />
<glyph unicode="M" horiz-adv-x="1738" d="M63 0l398 1499h553l-6 -842l258 842h563l-76 -1499h-391l41 817l-258 -817h-465l-2 817l-213 -817h-402z" />
<glyph unicode="N" horiz-adv-x="1386" d="M92 0l238 1499h401l307 -776l121 776h397l-237 -1499h-397l-312 756l-118 -756h-400z" />
<glyph unicode="O" horiz-adv-x="1363" d="M167 532q3 116 26 259q23 147 59.5 260.5t74.5 189.5t97 128t107.5 79t126 41t131 17t145.5 3q82 0 145.5 -8t127 -31.5t108.5 -62.5t80 -101.5t50 -147.5q13 -75 14 -176q0 -14 -1 -28q-2 -118 -24 -266q-23 -139 -57 -246.5t-70.5 -181.5t-92 -124t-105.5 -78.5 t-126 -43t-136.5 -18.5t-152.5 -4q-84 0 -149.5 8t-129 30.5t-107.5 60.5t-78 99q-34 62 -50 144q-13 69 -13 161v37zM576 426q28 -78 174 -78q133 0 190 78t96 313q27 137 27 223q0 22 -2 40q-8 92 -47 121.5t-135.5 29.5t-144.5 -27.5t-81.5 -114t-62.5 -272.5 q-25 -141 -24 -226q-1 -56 10 -87z" />
<glyph unicode="P" horiz-adv-x="1228" d="M90 0l238 1499h626q86 0 159 -25.5t137 -83.5q66 -58 90 -170q12 -55 12 -122t-13 -146q-16 -100 -45.5 -177t-61.5 -125t-81 -79.5t-85 -46t-94 -18.5q-47 -3 -76 -3h-14q-30 1 -85.5 5t-134 19.5t-89.5 21.5l-86 -549h-397zM621 844h188q104 0 131 164q5 30 5 53 q0 100 -84 100h-1h-188z" />
<glyph unicode="Q" horiz-adv-x="1363" d="M167 542q3 116 26 259q18 115 43.5 209t53 163.5t68.5 123t75 89t88 59t91 37t102.5 19.5t105.5 7t114 1q80 0 145.5 -9t128 -32.5t107.5 -63.5t80 -104.5t50 -149.5q13 -75 13 -177v-28q-2 -120 -24 -267q-23 -139 -57 -245.5t-70.5 -179.5t-93 -122t-104.5 -75.5 t-127 -41t-135 -17.5t-153 -5q-84 0 -150.5 9t-129 32.5t-107.5 62.5t-78.5 100.5t-48.5 145.5q-13 70 -13 163v37zM573 -68h209v-6q0 -41 26 -62q28 -22 82 -24q15 -1 30 -1q37 0 69 4q45 5 107 18l-45 -287q-53 -10 -105 -10q-43 0 -86 7q-92 15 -162.5 52t-105.5 117 q-24 56 -24 125q0 32 5 67zM576 426q28 -78 174 -78q133 0 190 78t96 313q27 137 27 223q0 21 -2 40q-8 92 -47 121.5t-135.5 29.5t-144.5 -27.5t-81.5 -114t-62.5 -272.5q-25 -141 -25 -226q0 -56 11 -87z" />
<glyph unicode="R" horiz-adv-x="1226" d="M90 0l238 1499h628q210 0 318 -132q77 -94 78 -258q0 -65 -13 -142q-16 -102 -44.5 -177t-57.5 -114t-69 -64.5t-63.5 -33t-57.5 -11.5l208 -567h-452l-154 551l-74 8l-88 -559h-397zM625 858h178q74 0 98.5 35t38.5 125q5 29 5 52q1 34 -11 56q-18 34 -82 35h-178z" />
<glyph unicode="S" horiz-adv-x="1200" d="M131 53l49 309q210 -22 482 -22h24q66 0 96.5 19.5t38.5 64.5l4 33q2 14 2 26q0 29 -13 43q-19 22 -83 21h-143q-92 0 -163 25.5t-108.5 69.5t-61.5 90t-29 101.5t-5 90t4 67.5l23 172q12 86 44 149.5t74 100.5t102 58.5t117.5 29.5t135.5 10q46 1 90 1q335 0 514 -68 l-49 -309q-184 20 -469 20q-90 0 -123 -14.5t-43 -75.5l-4 -23q-2 -15 -2 -28q-1 -32 13 -48q20 -22 97 -22h152q111 0 185.5 -45t102 -110.5t41.5 -141.5q7 -37 6 -71q0 -35 -7 -66l-4 -129q-4 -111 -41 -188.5t-84 -117.5t-123 -61.5t-128 -25.5t-132 -4q-246 0 -345.5 10 t-236.5 59z" />
<glyph unicode="T" horiz-adv-x="1222" d="M221 1143l58 356h1163l-58 -356h-389l-180 -1143h-397l180 1143h-377z" />
<glyph unicode="U" horiz-adv-x="1335" d="M174 490q2 102 23 227l127 782h397l-133 -844q-14 -97 -18 -165q0 -7 -1 -13q0 -59 36 -93q40 -38 132 -38q66 0 109 19.5t67.5 68.5t36 93t23.5 128l133 844h399l-123 -905q-20 -127 -54 -226.5t-75 -163t-90 -108.5t-102 -64.5t-109 -31.5q-48 -10 -94 -10h-16 q-22 1 -43 1q-32 0 -64 -2q-37 1 -55 1q-61 0 -106.5 3t-101.5 14t-96 33.5t-82 56.5t-66 89q-24 56 -40 128q-13 62 -14 148v28z" />
<glyph unicode="V" horiz-adv-x="1431" d="M266 1499h418l80 -1012l416 1012h438l-686 -1499h-479z" />
<glyph unicode="W" horiz-adv-x="2082" d="M266 1499h418l84 -991l350 991h418l-131 -332l90 -659l360 991h418l-604 -1499h-463l-71 494l-189 -494h-493z" />
<glyph unicode="X" horiz-adv-x="1390" d="M57 0l545 784l-313 715h440l150 -416l280 416h440l-557 -797l310 -702h-441l-143 401l-270 -401h-441z" />
<glyph unicode="Y" horiz-adv-x="1390" d="M266 1499h432l99 -663l331 663h449l-645 -1089l-66 -410h-397l66 410z" />
<glyph unicode="Z" horiz-adv-x="1130" d="M41 0l57 356l699 787h-576l58 356h1050l-57 -356l-660 -787h537l-57 -356h-1051z" />
<glyph unicode="[" horiz-adv-x="706" d="M91 -176.5q3 69.5 11 137.5l211 1280q33 201 141.5 281t340.5 80h163l-49 -316h-61q-61 0 -99 -36t-53 -124l-196 -1204q-14 -88 10.5 -124t85.5 -36h72l-50 -315h-196q-92 0 -159.5 33t-101.5 86t-53.5 120.5t-16.5 137z" />
<glyph unicode="\" horiz-adv-x="1017" d="M270 1577h402l303 -1724h-402z" />
<glyph unicode="]" horiz-adv-x="694" d="M-45 -553l49 315h62q61 0 100 36t53 124l191 1204q27 160 -103 160h-61l51 316h172q203 0 286 -132.5t54 -347.5l-184 -1312q-23 -170 -124.5 -266.5t-340.5 -96.5h-205z" />
<glyph unicode="^" horiz-adv-x="774" d="M229 1087l250 287h269l141 -287h-227l-64 105l-98 -105h-271z" />
<glyph unicode="_" horiz-adv-x="1378" d="M59 -2l50 315h1298l-49 -315h-1299z" />
<glyph unicode="`" horiz-adv-x="497" d="M240 1380h297l110 -293h-223z" />
<glyph unicode="a" horiz-adv-x="1118" d="M141 639q20 94 51 169t63 123t77 83t83 53t92 27.5t91 11.5t94 2q383 0 516 -127l-143 -977h-313l-62 102q-62 -116 -283 -116h-4q-157 0 -241 178q-48 101 -48 240q0 105 27 231zM516 397q2 -47 21.5 -68.5t56.5 -21.5q123 0 133 107l55 389q-18 16 -52 16q-24 0 -56 -8 q-37 -8 -59.5 -23.5t-47.5 -64.5t-37 -133q-10 -70 -13 -108q-2 -23 -2 -49q0 -17 1 -36z" />
<glyph unicode="b" horiz-adv-x="1144" d="M70 0l254 1608h397l-88 -566q127 61 278 62q141 0 213 -82t76 -226v-36q0 -131 -24 -303q-23 -145 -60 -239.5t-94 -143.5t-122.5 -67.5t-164.5 -18.5q-84 0 -137 26.5t-113 85.5l-75 -100h-340zM524 354q18 -45 127 -45q49 0 77 47t52 203q17 96 17 152q-1 10 -1 18 q-4 57 -18 73.5t-47 16.5q-104 0 -137 -31z" />
<glyph unicode="c" horiz-adv-x="1001" d="M143 606q25 154 68 257.5t103.5 154.5t124 70.5t149.5 19.5q332 0 518 -74l-37 -233q-121 12 -303 12q-61 0 -90 -5t-58.5 -31.5t-46 -81t-32.5 -154.5q-11 -63 -15 -105q-2 -18 -2 -35q0 -21 4 -37q6 -30 13.5 -45.5t32 -23.5t46 -9t64.5 -1q84 0 165 4t120 8l39 4 l-37 -233q-109 -50 -227 -66q-95 -13 -250 -13q-37 0 -78 1q-162 2 -241 156q-49 95 -49 249q0 94 19 211z" />
<glyph unicode="d" horiz-adv-x="1124" d="M141 621q45 252 139.5 367.5t303.5 115.5q154 0 260 -62l90 566h397l-254 -1608h-340l-45 100q-78 -57 -139 -84.5t-145 -27.5q-178 0 -248 175q-40 101 -40 239q0 100 21 219zM528 395q4 -55 18.5 -70.5t47.5 -15.5q104 0 139 45l70 434q-23 31 -129 31q-47 0 -75.5 -49 t-55.5 -211q-16 -89 -16 -142q0 -12 1 -22z" />
<glyph unicode="e" horiz-adv-x="1083" d="M145 651q49 260 160 357.5t402 99.5q90 0 164.5 -12.5t144 -45t108.5 -98.5q37 -62 37 -148v-9q-2 -127 -45 -217.5t-108 -132.5q-66 -41 -140 -63q-61 -18 -121 -18h-26q-74 4 -123 11.5t-74 17.5q-2 -15 -2 -28q0 -45 27 -60q35 -20 147 -20q201 0 391 39l-49 -279 q-205 -67 -444 -67q-82 0 -168 8q-192 16 -264 190q-40 98 -41 237q0 107 24 238zM555 647q6 -2 18.5 -5t42.5 -5q9 -1 18 0q20 0 38 3q26 5 49.5 25.5t30.5 57.5q2 14 2 25q0 28 -14 44q-18 21 -57 21h-7q-59 -2 -84 -43t-37 -123z" />
<glyph unicode="f" horiz-adv-x="831" d="M150 813l38 240l152 34l33 203q29 178 131 249t297 71q168 0 256 -49l-37 -228l-150 2h-9q-58 0 -75 -25q-18 -28 -32 -114q-2 -18 -4 -29l-13 -80h201l-43 -274h-201l-129 -813h-397l129 813h-147z" />
<glyph unicode="g" horiz-adv-x="1146" d="M10 -508l41 264h406q174 0 205 195l22 139q-72 -78 -211 -78q-225 0 -300 160q-45 97 -45 248q0 99 19 221q43 272 166 371.5t334 99.5q170 0 342 -20.5t248 -53.5l-182 -1149q-18 -117 -58.5 -202.5t-108 -147t-172.5 -85.5q-68 -16 -149 -16q-47 0 -98 5zM528 362 q13 -63 88 -63q70 0 107 39l80 500h-96q-43 0 -72 -18.5t-46.5 -59.5t-24.5 -72t-17 -92q-22 -123 -22 -190q0 -27 3 -44z" />
<glyph unicode="h" d="M70 0l254 1602h395l-98 -621q45 37 78.5 60.5t99 44t143.5 20.5q133 0 197.5 -55.5t66.5 -146.5v-21q0 -83 -14 -187l-111 -696h-397l111 705q4 27 4 47q-1 24 -7 36q-12 22 -47 23q-117 0 -161 -76l-117 -735h-397z" />
<glyph unicode="i" horiz-adv-x="516" d="M59 0l172 1087h398l-172 -1087h-398zM254 1237l37 240q6 51 57 51h307q38 0 38 -37q0 -7 -1 -14l-37 -240q-6 -47 -53 -47h-307q-42 0 -42 37q0 5 1 10z" />
<glyph unicode="j" horiz-adv-x="542" d="M-12 -553l260 1640h397l-174 -1095q-16 -113 -32.5 -188.5t-54.5 -179t-93 -177.5h-303zM266 1237l39 240q6 51 57 51h308q40 0 40 -37q0 -7 -1 -14l-39 -240q-6 -47 -54 -47h-307q-44 0 -44 37q0 5 1 10z" />
<glyph unicode="k" horiz-adv-x="1155" d="M70 0l254 1602h397l-139 -873q219 94 307 358h416q-57 -209 -142.5 -320.5t-191.5 -176.5l268 -590h-430l-191 459l-77 -2l-74 -457h-397z" />
<glyph unicode="l" horiz-adv-x="659" d="M125 387l192 1217h398l-178 -1135q-7 -59 -6 -96q0 -31 4 -45q10 -32 47 -54q78 -43 92 -43l-37 -231h-221q-160 0 -242 92q-58 66 -58 188q0 49 9 107z" />
<glyph unicode="m" horiz-adv-x="1755" d="M70 0l172 1087h331l50 -106q59 45 87.5 64.5t91 40t140.5 20.5q197 0 246 -125q68 39 108.5 60.5t115.5 43t149 21.5q133 0 197.5 -55.5t66.5 -146.5q0 -10 1 -19q0 -84 -16 -189l-110 -696h-397l112 705q5 28 5 47q0 24 -7 36q-12 22 -49 23q-117 0 -164 -61 q0 -8 -3 -25.5t-5 -28.5l-111 -696h-397l111 705q4 27 4 47q-1 24 -7 36q-12 22 -47 23q-117 0 -161 -76l-117 -735h-397z" />
<glyph unicode="n" d="M70 0l172 1087h331l50 -106q51 41 82.5 62.5t95 42t141.5 20.5q133 0 197.5 -55.5t66.5 -146.5v-21q0 -83 -14 -187l-111 -696h-397l111 705q4 27 4 47q-1 24 -7 36q-12 22 -47 23q-117 0 -161 -76l-117 -735h-397z" />
<glyph unicode="o" horiz-adv-x="1132" d="M139 580q27 168 69 270t117.5 158.5t169 76t244.5 19.5q281 0 376 -148q62 -97 62 -271q0 -93 -18 -208q-25 -154 -63.5 -247t-112.5 -147t-170 -73.5t-250 -19.5q-279 0 -375 144q-64 97 -64 265q0 82 15 181zM521 326q11 -40 89 -41q82 0 102.5 34.5t49.5 208.5 q25 134 25 196q-1 20 -3 32q-10 52 -92 53q-80 0 -101.5 -38t-46.5 -195q-5 -32 -7 -48q-19 -115 -19 -169q0 -21 3 -33z" />
<glyph unicode="p" d="M-16 -553l249 1579q84 33 261.5 53.5t347.5 20.5q197 0 286 -157q58 -102 58 -264q0 -87 -17 -192q-45 -291 -156.5 -399t-348.5 -108q-139 0 -187 79l-96 -612h-397zM516 305q27 -39 94 -39q76 0 105.5 57.5t58.5 239.5q17 63 17 123q0 27 -3 54q-12 85 -92 85h-96z" />
<glyph unicode="q" horiz-adv-x="1134" d="M143 610q45 289 168 393.5t334 104.5q170 0 340 -20.5t246 -53.5l-250 -1587h-397l96 612q-73 -79 -208 -79h-3q-225 0 -300 160q-45 98 -45 249q0 99 19 221zM524 328q13 -62 88 -62q70 0 107 39l82 529h-96q-35 0 -62 -18.5t-41 -40t-27.5 -65.5t-18.5 -69t-13 -78 q-22 -123 -22 -190q0 -27 3 -45z" />
<glyph unicode="r" horiz-adv-x="839" d="M70 0l172 1087h352l22 -137q39 59 111 103.5t150 44.5q63 0 94 -11l-60 -380h-161q-41 0 -63.5 -2.5t-53.5 -12.5t-48.5 -37.5t-25.5 -70.5l-92 -584h-397z" />
<glyph unicode="s" horiz-adv-x="1044" d="M100 66l37 234h473q39 0 45 34l2 10q6 37 -34 37h-195q-145 0 -222 97q-58 73 -58 181q0 35 6 74l16 94q43 270 332 271q385 0 484 -19q94 -17 120 -55l-37 -233h-457q-16 0 -24 -1.5t-16.5 -9.5t-10.5 -26l-2 -13q-2 -12 0 -19t9 -9t13.5 -3t18.5 -1h205q160 1 221 -99 q45 -73 45 -167q0 -34 -6 -70l-18 -121q-41 -262 -316 -262h-72q-131 0 -196.5 1t-155.5 7t-138.5 23.5t-68.5 44.5z" />
<glyph unicode="t" horiz-adv-x="768" d="M131 815l31 197l166 78l106 303h340l-49 -303h182l-43 -275h-182l-55 -344q-7 -62 -7 -99q0 -30 5 -46q10 -32 45 -54q80 -43 94 -43l-37 -231h-246q-137 0 -216 95q-57 68 -57 191q0 48 9 105l68 426h-154z" />
<glyph unicode="u" horiz-adv-x="1134" d="M104 183v16q0 85 15 192l110 696h398l-113 -704q-5 -28 -5 -48q0 -24 7 -36q12 -23 49 -23q117 0 162 76l117 735h397l-174 -1087h-332l-47 106q-72 -68 -138.5 -96t-180.5 -28q-133 0 -198 55t-67 146z" />
<glyph unicode="v" horiz-adv-x="1128" d="M154 1087h421l41 -659l160 381q66 133 76 283h381q6 -36 6 -74q0 -156 -102 -352l-336 -666h-479z" />
<glyph unicode="w" horiz-adv-x="1746" d="M154 1087h421l41 -659l160 381q66 133 76 283h381q5 -32 5 -67q0 -106 -46 -234l-12 -33l57 -330l160 381q66 133 76 283h380q6 -36 6 -74q0 -156 -102 -352l-336 -666h-454l-47 291l-119 -291h-479z" />
<glyph unicode="x" horiz-adv-x="1255" d="M29 0l446 573l-274 514h475l82 -249l166 249h475l-453 -589l264 -498h-458l-86 236l-162 -236h-475z" />
<glyph unicode="y" horiz-adv-x="1177" d="M156 1087h411l17 -688q2 -76 75 -80l177 488q41 113 53 283h381q7 -41 7 -85q0 -150 -81 -341l-266 -664q-240 -561 -727 -619q-16 -1 -25 -4v279q141 66 222 144.5t141 199.5q-315 0 -336 319z" />
<glyph unicode="z" horiz-adv-x="999" d="M66 2l49 311l477 459h-434l49 315h934l-49 -315l-445 -455h371l-49 -315h-903z" />
<glyph unicode="{" horiz-adv-x="657" d="M106 420l46 280q123 12 139 109l76 473q29 180 154.5 250t385.5 70l-49 -316q-63 0 -85.5 -43t-45.5 -186l-43 -279q-18 -109 -80.5 -159t-169.5 -58q207 -43 180 -211l-65 -407q-20 -100 -10 -150.5t75 -50.5l-47 -295q-260 0 -360.5 106.5t-67.5 307.5l72 450 q8 53 -19 83t-86 26z" />
<glyph unicode="|" horiz-adv-x="512" d="M74 -147l272 1724h316l-273 -1724h-315z" />
<glyph unicode="}" horiz-adv-x="659" d="M-45 -553l47 295q66 0 87.5 43t39.5 158l66 407q27 168 245 211q-104 8 -151 58.5t-29 158.5l43 279q25 139 14.5 184t-71.5 45l51 316q240 0 337 -122t66 -319l-38 -352q-10 -98 106 -109l-45 -280q-117 8 -137 -109l-90 -532q-35 -199 -150 -265.5t-391 -66.5z" />
<glyph unicode="~" horiz-adv-x="825" d="M250 1225q131 152 276 151q47 0 106.5 -35.5t98.5 -35.5q106 -6 205 81l29 -151q-121 -147 -254 -148q-45 0 -116 36t-110 36q-98 0 -202 -72z" />
<glyph unicode="&#xa1;" horiz-adv-x="575" d="M8 -553l215 1096h301l-135 -1096h-381zM225 662l37 235q6 43 57 47h234q18 -2 30.5 -17.5t10.5 -35.5l-37 -229q-8 -55 -53 -56h-238q-49 1 -41 56z" />
<glyph unicode="&#xa2;" horiz-adv-x="989" d="M131 606q25 154 67 255.5t103 151.5t123.5 67.5t150.5 17.5l33 200h221l-32 -204q170 -14 297 -70l-37 -233q-121 12 -303 12q-45 0 -62.5 -1t-47.5 -8.5t-41 -22.5t-28.5 -44t-27.5 -74t-21 -112q-10 -63 -14 -105.5t2 -72t13.5 -45t32 -23.5t46 -9t64.5 -1 q84 0 164.5 4t119.5 8l39 4l-37 -233q-127 -80 -344 -80l-28 -183h-222l31 185q-158 4 -233.5 159.5t-28.5 456.5z" />
<glyph unicode="&#xa3;" horiz-adv-x="1171" d="M57 0l49 305l136 51l41 258h-127l30 195l136 55l24 150q18 115 46 197.5t74 135t91 84t123 46t140.5 18.5t170.5 4q51 0 140.5 -8t151.5 -16l63 -9l-50 -321h-376q-94 0 -130 -25.5t-51 -122.5l-20 -133l364 -35l-32 -215h-371l-41 -258h530l-57 -356h-1055z" />
<glyph unicode="&#xa4;" horiz-adv-x="892" d="M125 373l119 104q-27 78 -17 156q12 76 60 147l-90 99l131 120l86 -96q90 55 188 55q88 0 160 -49l108 99l109 -109l-121 -106q29 -74 16 -160q-18 -106 -92 -191l80 -88l-127 -125l-98 109q-68 -29 -137 -29q-90 0 -162 49l-111 -100zM422 633q-8 -53 23.5 -91t85 -38 t96.5 38t53 91t-22.5 92t-86 39t-96.5 -39t-53 -92z" />
<glyph unicode="&#xa5;" horiz-adv-x="1355" d="M258 1499h432l92 -663l314 663h473l-465 -780h110l-32 -203h-242l-8 -51h242l-33 -203h-242l-41 -262h-397l41 262h-236l33 203h236l8 51h-236l33 203h109z" />
<glyph unicode="&#xa6;" horiz-adv-x="512" d="M74 -147l106 671h316l-107 -671h-315zM236 879l110 698h316l-111 -698h-315z" />
<glyph unicode="&#xa7;" horiz-adv-x="1087" d="M141 23l43 276h439q33 0 46 9t17 34l4 25q4 23 -8 33t-43 10h-164q-160 0 -245 74.5t-62 217.5l4 25q6 41 11 59.5t23.5 58.5t58.5 67.5t102 45.5q-145 76 -111 291l6 62q37 295 361 295q432 0 575 -39l-43 -277h-438q-55 0 -62 -49l-2 -12q-6 -51 49 -51h158 q176 0 256 -69t60 -208l-5 -24q-29 -180 -188 -232q80 -14 100.5 -102t8.5 -168l-13 -88q-14 -96 -50 -160t-87 -93.5t-97 -39.5t-104 -10q-479 0 -600 39zM582 772q-6 -41 9 -54t54 -13h21q47 0 64.5 13t23.5 56l6 37q6 37 -5.5 53.5t-62.5 16.5h-20q-35 0 -53.5 -11.5 t-22.5 -23.5t-8 -39z" />
<glyph unicode="&#xa8;" horiz-adv-x="903" d="M246 1192q8 55 54 94t101.5 39t88 -39t24.5 -94q-10 -55 -55 -95t-100.5 -40t-88 40t-24.5 95zM768 1192q8 55 54 94t101.5 39t88 -39t24.5 -94q-10 -55 -55 -95t-100.5 -40t-89 40t-23.5 95z" />
<glyph unicode="&#xa9;" horiz-adv-x="1619" d="M180 795q27 162 69 280.5t118.5 219t200.5 152.5t294 52h410q532 0 405 -807q-59 -377 -221 -534.5t-412 -157.5h-409q-285 0 -398.5 219.5t-56.5 575.5zM414 754q-41 -254 18.5 -397.5t229.5 -143.5h389q150 0 248 122t145 419q14 88 20 151.5t2 140t-25.5 125t-71.5 82 t-128 33.5h-410q-74 0 -133 -22.5t-116.5 -78t-100 -163.5t-67.5 -268zM561 782q37 233 126 322.5t239 89.5q254 0 377 -49l-29 -189q-170 25 -299 25q-84 0 -122 -48t-60 -192q-18 -125 12.5 -176t109.5 -51q137 0 306 33l-29 -189q-53 -27 -126 -40t-122 -15t-141 -2 q-137 0 -209 114.5t-33 366.5z" />
<glyph unicode="&#xaa;" horiz-adv-x="737" d="M117 528l24 160h686l-24 -160h-686zM176 1194q18 88 52 149.5t68 92t86 47t85 18.5t90 2q266 0 352 -84l-96 -661h-209l-41 86q-23 -49 -84 -72.5t-127 -23.5q-106 0 -164.5 124.5t-11.5 321.5zM423 1039q5 -54 54 -54q45 0 77 17.5t34 46.5l37 245q-29 20 -95 6 q-35 -8 -59.5 -35.5t-34.5 -103.5q-18 -68 -13 -122z" />
<glyph unicode="&#xab;" horiz-adv-x="1220" d="M172 725l487 416l168 -195l-280 -241l213 -246l-223 -160zM655 725l488 416l168 -195l-281 -241l213 -246l-223 -160z" />
<glyph unicode="&#xac;" horiz-adv-x="954" d="M113 463l47 295h874q-10 -57 -34.5 -215t-34.5 -217h-295l22 137h-579z" />
<glyph unicode="&#xad;" horiz-adv-x="722" d="M109 436l49 316h643l-49 -316h-643z" />
<glyph unicode="&#xae;" horiz-adv-x="1619" d="M180 795q27 162 69 280.5t118.5 219t200.5 152.5t294 52h410q532 0 405 -807q-59 -377 -221 -534.5t-412 -157.5h-409q-285 0 -398.5 219.5t-56.5 575.5zM414 754q-41 -254 18.5 -397.5t229.5 -143.5h389q150 0 248 122t145 419q14 88 20 151.5t2 140t-25.5 125t-71.5 82 t-128 33.5h-410q-74 0 -133 -22.5t-116.5 -78t-100 -163.5t-67.5 -268zM530 313l140 875h383q274 0 229 -283q-18 -119 -59 -181t-115 -87l121 -324h-248l-109 308l-55 24l-53 -332h-234zM844 817h80q78 0 96 13.5t29 72.5q8 47 -10.5 59.5t-90.5 12.5h-80z" />
<glyph unicode="&#xaf;" horiz-adv-x="712" d="M229 1087l31 191h598l-31 -191h-598z" />
<glyph unicode="&#xb0;" horiz-adv-x="524" d="M258 1294q8 86 73.5 144.5t151.5 58.5t142.5 -58.5t48.5 -144.5t-71.5 -142t-152 -56t-144.5 56t-48 142zM393 1294.5q-2 -30.5 17.5 -51t50.5 -20.5t52.5 20.5t25.5 51t-14.5 52t-49.5 21.5t-55.5 -21.5t-26.5 -52z" />
<glyph unicode="&#xb1;" horiz-adv-x="983" d="M84 117l49 315h852l-49 -315h-852zM190 772l50 315h266l43 269h315l-43 -269h271l-50 -315h-270l-43 -268h-315l43 268h-267z" />
<glyph unicode="&#xb2;" horiz-adv-x="837" d="M125 727l41 258q129 70 317.5 207t198.5 197q8 51 -23.5 66t-121.5 15h-304l37 224q205 45 426 45q160 0 236 -99.5t53 -244.5q-33 -211 -305 -400h240l-43 -268h-752z" />
<glyph unicode="&#xb3;" horiz-adv-x="839" d="M129 760l37 225h299q86 0 111.5 8t29.5 41l2 10q4 31 -19.5 39.5t-99.5 12.5l-221 8l37 244l227 8q105 5 121 17q12 9 15 30v8q6 33 -23 41t-96 8h-318l35 223q150 53 477 46q119 -2 184.5 -80t45.5 -199l-8 -53q-25 -154 -160 -172q129 -33 96 -238l-8 -41 q-37 -229 -320 -229h-48h-50h-47q-37 0 -49 1t-44 3t-47.5 4t-41 5t-43 7t-38 10.5t-36.5 12.5z" />
<glyph unicode="&#xb4;" horiz-adv-x="499" d="M195 1087l204 293h297l-278 -293h-223z" />
<glyph unicode="&#xb5;" horiz-adv-x="1193" d="M16 -553l150 944l110 696h398l-113 -704q-10 -61 2 -84t49 -23q117 0 162 76l117 735h397l-172 -1087h-332l-49 106q-12 -8 -68.5 -43.5t-88.5 -50.5q-35 -16 -78 -24l-86 -541h-398z" />
<glyph unicode="&#xb6;" horiz-adv-x="1173" d="M207 1067l29 190q23 137 113.5 189.5t250.5 52.5h789l-41 -258h-80l-197 -1241h-254l199 1245h-90l-285 -1798h-254l207 1315l-16 -10q-16 -10 -41 -17.5t-58 -7.5q-162 0 -227 101.5t-45 238.5zM467 1063q-8 -55 7 -68.5t65 -13.5h90l43 264h-90q-59 0 -76 -17.5 t-27 -84.5z" />
<glyph unicode="&#xb7;" horiz-adv-x="524" d="M203 672l39 239q6 51 57 52h231q53 0 43 -52l-38 -239q-8 -47 -58 -47h-231q-49 0 -43 47z" />
<glyph unicode="&#xb8;" horiz-adv-x="487" d="M0 -375l27 162l79 31q45 18 54.5 32.5t19.5 73.5h240q-25 -160 -90.5 -229.5t-204.5 -69.5h-125z" />
<glyph unicode="&#xb9;" horiz-adv-x="577" d="M215 1407l31 205q137 37 203 112h294l-157 -997h-299l114 707q-25 -20 -71.5 -26.5t-80.5 -3.5z" />
<glyph unicode="&#xba;" horiz-adv-x="786" d="M147 528l25 160h686l-24 -160h-687zM227 1157q33 209 124 276.5t288 67.5q188 0 257 -98t34 -316q-31 -195 -118 -259t-290 -64q-188 0 -257 97t-38 296zM497 1008.5q9 -23.5 60 -23.5q55 0 67.5 14.5t23.5 88.5q4 22 5 36q20 100 15.5 128t-64.5 28q-18 0 -29.5 -2 t-20.5 -3t-15.5 -9.5t-10.5 -13.5t-7 -21.5t-5 -25.5t-6 -37t-6 -44q-16 -92 -7 -115.5z" />
<glyph unicode="&#xbb;" horiz-adv-x="1218" d="M135 500l287 254l-193 213l209 174l355 -416l-480 -426zM618 500l287 254l-194 213l209 174l356 -416l-479 -426z" />
<glyph unicode="&#xbc;" horiz-adv-x="2091" d="M215 1202l31 205q137 37 203 113h294l-157 -998h-299l114 707q-25 -20 -71.5 -26.5t-80.5 -3.5zM426 0l999 1577h289l-999 -1577h-289zM1223 295l399 700h313l-305 -559h137l29 178l59 105h244l-45 -283h82l-37 -229l-94 -43l-18 -162h-287l24 160h-454z" />
<glyph unicode="&#xbd;" horiz-adv-x="2129" d="M215 1202l31 205q137 37 203 113h294l-157 -998h-299l114 707q-25 -20 -71.5 -26.5t-80.5 -3.5zM424 0l999 1577h289l-999 -1577h-289zM1335 -2l41 258q129 70 317.5 207t198.5 196q8 51 -22.5 66.5t-120.5 15.5h-303l35 224q205 45 426 45q160 0 235.5 -99.5 t52.5 -244.5q-33 -211 -305 -400h240l-43 -268h-752z" />
<glyph unicode="&#xbe;" horiz-adv-x="2314" d="M129 555l37 225h299q86 0 111.5 8.5t29.5 40.5l2 11q4 31 -19.5 39t-99.5 12l-221 8l37 244l227 8q105 5 121 18q12 9 15 29v8q6 33 -23 41t-96 8h-318l35 224q150 53 477 45q119 -2 184.5 -80t45.5 -199l-8 -53q-25 -154 -160 -172q129 -33 96 -238l-8 -41 q-37 -229 -320 -229h-48h-50h-47q-37 0 -49 1t-44 3t-47.5 4t-41 5t-43 7.5t-38 10.5t-36.5 12zM635 0l999 1577h289l-999 -1577h-289zM1411 295l401 700h314l-307 -559h137l29 178l59 105h244l-45 -283h81l-34 -229l-97 -43l-18 -162h-287l25 160h-455z" />
<glyph unicode="&#xbf;" horiz-adv-x="1110" d="M23 -82l16 105q33 213 144.5 300t359.5 78l26 166h297l-71 -454h-189q-80 -4 -120 -35t-52 -109l-6 -30q-10 -66 30 -96.5t130 -30.5h473l-47 -297q-291 -74 -588 -62q-147 0 -247.5 76t-136 179.5t-19.5 209.5zM571 680l37 240q8 47 60 47h231q47 0 41 -47l-37 -240 q-6 -51 -57 -51h-232q-53 0 -43 51z" />
<glyph unicode="&#xc0;" horiz-adv-x="1456" d="M51 0l707 1499h469l217 -1499h-408l-43 262h-385l-116 -262h-441zM717 1925h297l110 -293h-223zM752 600h215l-47 401z" />
<glyph unicode="&#xc1;" horiz-adv-x="1456" d="M51 0l707 1499h469l217 -1499h-408l-43 262h-385l-116 -262h-441zM752 600h215l-47 401zM901 1632l205 293h297l-279 -293h-223z" />
<glyph unicode="&#xc2;" horiz-adv-x="1456" d="M51 0l707 1499h469l217 -1499h-408l-43 262h-385l-116 -262h-441zM684 1632l250 287h268l141 -287h-227l-63 105l-119 -105h-250zM752 600h215l-47 401z" />
<glyph unicode="&#xc3;" horiz-adv-x="1456" d="M51 0l707 1499h469l217 -1499h-408l-43 262h-385l-116 -262h-441zM680 1769q131 152 276 152q47 0 106.5 -36t98.5 -36q106 -6 205 82l29 -151q-121 -147 -254 -148q-45 0 -116 36t-110 36q-98 0 -202 -72zM752 600h215l-47 401z" />
<glyph unicode="&#xc4;" horiz-adv-x="1456" d="M51 0l707 1499h469l217 -1499h-408l-43 262h-385l-116 -262h-441zM641 1767q8 55 54 94.5t101.5 39.5t88.5 -39t24 -95q-10 -55 -55 -95t-100.5 -40t-89 40t-23.5 95zM752 600h215l-47 401zM1163 1767.5q8 55.5 54.5 94.5t101.5 39t88 -39t25 -95q-10 -55 -55.5 -95 t-100.5 -40t-88 40t-25 95.5z" />
<glyph unicode="&#xc5;" horiz-adv-x="1456" d="M51 0l707 1499h196q-72 14 -115.5 69.5t-37.5 131.5q8 88 72.5 146.5t150.5 58.5t143.5 -59.5t49.5 -145.5q-6 -76 -55.5 -131.5t-121.5 -69.5h187l217 -1499h-408l-43 262h-385l-116 -262h-441zM752 600h215l-47 401zM940 1700q-2 -29 16.5 -48.5t47 -19.5t49 19.5 t24.5 48.5t-14.5 49t-47 20t-50 -20t-25.5 -49z" />
<glyph unicode="&#xc6;" horiz-adv-x="2240" d="M35 0l733 1130q80 121 175 201t202.5 116t205 47t216.5 5q389 0 622 -33l-51 -333h-506q-39 0 -63.5 -9.5t-36.5 -29t-16.5 -35t-8.5 -41.5l-14 -90l506 -23l-51 -330l-514 -18l-15 -90q-6 -39 0 -62.5t27.5 -31.5t37 -10.5t46.5 -2.5h485l-53 -331q-96 -12 -247.5 -21.5 t-255.5 -11.5l-103 -2q-49 -2 -98.5 2t-104.5 20.5t-94 44t-60.5 77.5t-11.5 116l14 88h-301l-225 -342h-440zM913 678h142l49 309z" />
<glyph unicode="&#xc7;" horiz-adv-x="1159" d="M180 817q57 371 199.5 535t439.5 164q213 0 305.5 -15.5t223.5 -66.5l-50 -310l-12 2q-12 2 -33.5 5.5t-50 7.5t-65.5 7t-76 6t-85 5t-89 2h-61q-15 0 -50 -5t-47 -14.5t-35.5 -28.5t-35 -48t-28 -73t-28.5 -103.5t-24 -136.5q-41 -252 -7.5 -329t187.5 -77q96 0 200.5 4 t161.5 9l58 5l-50 -309q-104 -41 -216.5 -55t-333.5 -10q-525 8 -398 829zM338 -373l27 162l79 31q45 18 55.5 32.5t20.5 73.5h240q-25 -160 -91.5 -229.5t-205.5 -69.5h-125z" />
<glyph unicode="&#xc8;" d="M131 354l129 817q16 104 60.5 174t110 102t125.5 42t140 10q387 0 623 -33l-53 -333h-506q-39 0 -62.5 -9.5t-36 -29t-16.5 -33.5t-8 -43l-12 -82l503 -23l-53 -329l-510 -19l-16 -98q-6 -39 0 -62.5t27.5 -31.5t37 -10.5t45.5 -2.5h486l-53 -331q-96 -12 -250 -21.5 t-259 -11.5l-106 -2q-51 -2 -99 5t-101.5 30.5t-89 61.5t-53 105.5t-3.5 157.5zM555 1915h297l111 -293h-224z" />
<glyph unicode="&#xc9;" d="M131 354l129 817q16 104 60.5 174t110 102t125.5 42t140 10q387 0 623 -33l-53 -333h-506q-39 0 -62.5 -9.5t-36 -29t-16.5 -33.5t-8 -43l-12 -82l503 -23l-53 -329l-510 -19l-16 -98q-6 -39 0 -62.5t27.5 -31.5t37 -10.5t45.5 -2.5h486l-53 -331q-96 -12 -250 -21.5 t-259 -11.5l-106 -2q-51 -2 -99 5t-101.5 30.5t-89 61.5t-53 105.5t-3.5 157.5zM754 1622l204 293h297l-278 -293h-223z" />
<glyph unicode="&#xca;" d="M131 354l129 817q16 104 60.5 174t110 102t125.5 42t140 10q387 0 623 -33l-53 -333h-506q-39 0 -62.5 -9.5t-36 -29t-16.5 -33.5t-8 -43l-12 -82l503 -23l-53 -329l-510 -19l-16 -98q-6 -39 0 -62.5t27.5 -31.5t37 -10.5t45.5 -2.5h486l-53 -331q-96 -12 -250 -21.5 t-259 -11.5l-106 -2q-51 -2 -99 5t-101.5 30.5t-89 61.5t-53 105.5t-3.5 157.5zM547 1622l250 287h268l141 -287h-227l-64 104l-98 -104h-270z" />
<glyph unicode="&#xcb;" d="M131 354l129 817q16 104 60.5 174t110 102t125.5 42t140 10q387 0 623 -33l-53 -333h-506q-39 0 -62.5 -9.5t-36 -29t-16.5 -33.5t-8 -43l-12 -82l503 -23l-53 -329l-510 -19l-16 -98q-6 -39 0 -62.5t27.5 -31.5t37 -10.5t45.5 -2.5h486l-53 -331q-96 -12 -250 -21.5 t-259 -11.5l-106 -2q-51 -2 -99 5t-101.5 30.5t-89 61.5t-53 105.5t-3.5 157.5zM473 1726q8 55 54 94.5t101.5 39.5t88.5 -39t24 -95q-10 -55 -55 -95t-100.5 -40t-89 40t-23.5 95zM995.5 1726.5q8.5 55.5 54.5 94.5t101 39t88 -39t25 -95q-10 -55 -55.5 -95t-100.5 -40 t-88 40t-24.5 95.5z" />
<glyph unicode="&#xcc;" horiz-adv-x="577" d="M92 0l238 1499h397l-238 -1499h-397zM254 1925h297l111 -293h-224z" />
<glyph unicode="&#xcd;" horiz-adv-x="577" d="M92 0l238 1499h397l-238 -1499h-397zM438 1632l205 293h297l-278 -293h-224z" />
<glyph unicode="&#xce;" horiz-adv-x="577" d="M92 0l238 1499h397l-238 -1499h-397zM219 1632l250 287h268l142 -287h-228l-63 105l-119 -105h-250z" />
<glyph unicode="&#xcf;" horiz-adv-x="577" d="M92 0l238 1499h397l-238 -1499h-397zM176 1767.5q8 55.5 54 94.5t101.5 39t88.5 -39t24 -95q-10 -55 -55 -95t-100.5 -40t-88 40t-24.5 95.5zM698 1767q8 55 54.5 94.5t101.5 39.5t88 -39t25 -95q-10 -55 -55.5 -95t-100.5 -40t-89 40t-24 95z" />
<glyph unicode="&#xd0;" horiz-adv-x="1310" d="M68 688l24 152h133l105 659h661q147 0 242.5 -67.5t130.5 -181t41 -261t-25 -307.5q-61 -387 -192 -534.5t-393 -147.5h-703l109 688h-133zM543 336h223q86 0 134 94t83 315q35 180 25.5 273.5t-34 119t-77.5 25.5h-223l-51 -323h182l-25 -152h-182z" />
<glyph unicode="&#xd1;" horiz-adv-x="1386" d="M92 0l238 1499h401l307 -776l121 776h397l-237 -1499h-397l-312 756l-118 -756h-400zM631 1769q131 152 276 152q47 0 106.5 -36t98.5 -36q106 -6 205 82l29 -151q-121 -147 -254 -148q-45 0 -116 36t-110 36q-98 0 -202 -72z" />
<glyph unicode="&#xd2;" horiz-adv-x="1363" d="M167 532q3 116 26 259q23 147 59.5 260.5t74.5 189.5t97 128t107.5 79t126 41t131 17t145.5 3q82 0 145.5 -8t127 -31.5t108.5 -62.5t80 -101.5t50 -147.5t13 -203.5t-24 -266.5q-23 -139 -57 -246.5t-70.5 -181.5t-92 -124t-105.5 -78.5t-126 -43t-136.5 -18.5 t-152.5 -4q-84 0 -149.5 8t-129 30.5t-107.5 60.5t-78.5 99.5t-50 143.5t-12.5 198zM576.5 425.5q27.5 -77.5 173.5 -77.5q133 0 190 78t96 313q33 170 25 262.5t-47 122t-135.5 29.5t-144.5 -27.5t-81.5 -114t-62.5 -272.5q-41 -236 -13.5 -313.5zM657 1925h297l111 -293 h-223z" />
<glyph unicode="&#xd3;" horiz-adv-x="1363" d="M167 532q3 116 26 259q23 147 59.5 260.5t74.5 189.5t97 128t107.5 79t126 41t131 17t145.5 3q82 0 145.5 -8t127 -31.5t108.5 -62.5t80 -101.5t50 -147.5t13 -203.5t-24 -266.5q-23 -139 -57 -246.5t-70.5 -181.5t-92 -124t-105.5 -78.5t-126 -43t-136.5 -18.5 t-152.5 -4q-84 0 -149.5 8t-129 30.5t-107.5 60.5t-78.5 99.5t-50 143.5t-12.5 198zM576.5 425.5q27.5 -77.5 173.5 -77.5q133 0 190 78t96 313q33 170 25 262.5t-47 122t-135.5 29.5t-144.5 -27.5t-81.5 -114t-62.5 -272.5q-41 -236 -13.5 -313.5zM842 1632l205 293h296 l-278 -293h-223z" />
<glyph unicode="&#xd4;" horiz-adv-x="1363" d="M167 532q3 116 26 259q23 147 59.5 260.5t74.5 189.5t97 128t107.5 79t126 41t131 17t145.5 3q82 0 145.5 -8t127 -31.5t108.5 -62.5t80 -101.5t50 -147.5t13 -203.5t-24 -266.5q-23 -139 -57 -246.5t-70.5 -181.5t-92 -124t-105.5 -78.5t-126 -43t-136.5 -18.5 t-152.5 -4q-84 0 -149.5 8t-129 30.5t-107.5 60.5t-78.5 99.5t-50 143.5t-12.5 198zM576.5 425.5q27.5 -77.5 173.5 -77.5q133 0 190 78t96 313q33 170 25 262.5t-47 122t-135.5 29.5t-144.5 -27.5t-81.5 -114t-62.5 -272.5q-41 -236 -13.5 -313.5zM625 1632l249 287h269 l141 -287h-227l-64 105l-119 -105h-249z" />
<glyph unicode="&#xd5;" horiz-adv-x="1363" d="M167 532q3 116 26 259q23 147 59.5 260.5t74.5 189.5t97 128t107.5 79t126 41t131 17t145.5 3q82 0 145.5 -8t127 -31.5t108.5 -62.5t80 -101.5t50 -147.5t13 -203.5t-24 -266.5q-23 -139 -57 -246.5t-70.5 -181.5t-92 -124t-105.5 -78.5t-126 -43t-136.5 -18.5 t-152.5 -4q-84 0 -149.5 8t-129 30.5t-107.5 60.5t-78.5 99.5t-50 143.5t-12.5 198zM576.5 425.5q27.5 -77.5 173.5 -77.5q133 0 190 78t96 313q33 170 25 262.5t-47 122t-135.5 29.5t-144.5 -27.5t-81.5 -114t-62.5 -272.5q-41 -236 -13.5 -313.5zM618 1769 q131 152 277 152q47 0 106.5 -36t98.5 -36q106 -6 205 82l28 -151q-121 -147 -254 -148q-45 0 -115.5 36t-109.5 36q-98 0 -203 -72z" />
<glyph unicode="&#xd6;" horiz-adv-x="1363" d="M167 532q3 116 26 259q23 147 59.5 260.5t74.5 189.5t97 128t107.5 79t126 41t131 17t145.5 3q82 0 145.5 -8t127 -31.5t108.5 -62.5t80 -101.5t50 -147.5t13 -203.5t-24 -266.5q-23 -139 -57 -246.5t-70.5 -181.5t-92 -124t-105.5 -78.5t-126 -43t-136.5 -18.5 t-152.5 -4q-84 0 -149.5 8t-129 30.5t-107.5 60.5t-78.5 99.5t-50 143.5t-12.5 198zM576.5 425.5q27.5 -77.5 173.5 -77.5q133 0 190 78t96 313q33 170 25 262.5t-47 122t-135.5 29.5t-144.5 -27.5t-81.5 -114t-62.5 -272.5q-41 -236 -13.5 -313.5zM581.5 1767.5 q8.5 55.5 54.5 94.5t101.5 39t88 -39t24.5 -95q-10 -55 -55 -95t-100.5 -40t-88.5 40t-24.5 95.5zM1104 1767q8 55 54 94.5t101.5 39.5t88 -39t24.5 -95q-10 -55 -55 -95t-100.5 -40t-89 40t-23.5 95z" />
<glyph unicode="&#xd7;" horiz-adv-x="950" d="M150 539l217 188l-158 191l244 217l159 -191l236 199l186 -223l-239 -205l159 -189l-239 -198l-154 178l-219 -201z" />
<glyph unicode="&#xd8;" horiz-adv-x="1363" d="M43 0l168 190q-39 86 -45 247t24 364q33 205 90.5 343t117 209.5t162 107.5t172 42t202.5 6q256 0 366 -73l56 63h176l-139 -160q51 -86 62 -259t-23 -402q-23 -139 -57 -245.5t-70.5 -179.5t-93 -123t-105.5 -76.5t-126 -41t-135.5 -17.5t-152.5 -3q-293 0 -401 90 l-72 -82h-176zM567 600l453 516q-37 37 -143 37q-96 0 -144.5 -27.5t-82 -114t-62.5 -272.5q-18 -121 -21 -139zM582 414q33 -66 168 -66q133 0 189 77t95 314q25 158 25 222z" />
<glyph unicode="&#xd9;" horiz-adv-x="1335" d="M174.5 489.5q2.5 102.5 22.5 227.5l127 782h397l-133 -844q-14 -96 -18.5 -164.5t35.5 -106.5t132 -38q66 0 109 19.5t67.5 68.5t36 93t23.5 128l133 844h399l-123 -905q-20 -127 -54 -226.5t-75 -163t-90 -108.5t-102 -64.5t-108.5 -31.5t-110 -10t-107.5 -1 q-37 1 -55 1q-61 0 -106.5 3t-101.5 14t-96 33.5t-82 56.5t-66.5 89.5t-40 128t-13 175zM639 1925h297l111 -293h-224z" />
<glyph unicode="&#xda;" horiz-adv-x="1335" d="M174.5 489.5q2.5 102.5 22.5 227.5l127 782h397l-133 -844q-14 -96 -18.5 -164.5t35.5 -106.5t132 -38q66 0 109 19.5t67.5 68.5t36 93t23.5 128l133 844h399l-123 -905q-20 -127 -54 -226.5t-75 -163t-90 -108.5t-102 -64.5t-108.5 -31.5t-110 -10t-107.5 -1 q-37 1 -55 1q-61 0 -106.5 3t-101.5 14t-96 33.5t-82 56.5t-66.5 89.5t-40 128t-13 175zM823 1632l205 293h297l-278 -293h-224z" />
<glyph unicode="&#xdb;" horiz-adv-x="1335" d="M174.5 489.5q2.5 102.5 22.5 227.5l127 782h397l-133 -844q-14 -96 -18.5 -164.5t35.5 -106.5t132 -38q66 0 109 19.5t67.5 68.5t36 93t23.5 128l133 844h399l-123 -905q-20 -127 -54 -226.5t-75 -163t-90 -108.5t-102 -64.5t-108.5 -31.5t-110 -10t-107.5 -1 q-37 1 -55 1q-61 0 -106.5 3t-101.5 14t-96 33.5t-82 56.5t-66.5 89.5t-40 128t-13 175zM606 1632l250 287h268l142 -287h-228l-63 105l-119 -105h-250z" />
<glyph unicode="&#xdc;" horiz-adv-x="1335" d="M174.5 489.5q2.5 102.5 22.5 227.5l127 782h397l-133 -844q-14 -96 -18.5 -164.5t35.5 -106.5t132 -38q66 0 109 19.5t67.5 68.5t36 93t23.5 128l133 844h399l-123 -905q-20 -127 -54 -226.5t-75 -163t-90 -108.5t-102 -64.5t-108.5 -31.5t-110 -10t-107.5 -1 q-37 1 -55 1q-61 0 -106.5 3t-101.5 14t-96 33.5t-82 56.5t-66.5 89.5t-40 128t-13 175zM563 1767q8 55 54.5 94.5t101.5 39.5t88 -39t24 -95q-10 -55 -55 -95t-100 -40t-89 40t-24 95zM1085.5 1767.5q8.5 55.5 54.5 94.5t101 39t88 -39t25 -95q-10 -55 -55.5 -95 t-100.5 -40t-88 40t-24.5 95.5z" />
<glyph unicode="&#xdd;" horiz-adv-x="1390" d="M266 1499h432l99 -663l331 663h449l-645 -1089l-66 -410h-397l66 410zM831 1632l205 293h297l-278 -293h-224z" />
<glyph unicode="&#xde;" horiz-adv-x="1101" d="M70 0q39 250 117.5 747.5t117.5 745.5h397l-45 -289h220q66 0 121 -20.5t106 -72.5t65.5 -142t-2.5 -228q-18 -119 -57 -204.5t-78 -127.5t-100.5 -67t-98 -30t-98.5 -7q-78 -4 -116.5 2t-96.5 37l-55 -344h-397zM569 641h56q82 0 105.5 19.5t37.5 101.5q8 51 -4 74.5 t-33.5 27.5t-71.5 4h-55z" />
<glyph unicode="&#xdf;" horiz-adv-x="1175" d="M70 0l184 1159q31 197 174 322t414 125q205 0 325.5 -75t144 -188.5t-14 -240.5t-132.5 -238q-25 -29 -80 -71.5t-61 -79.5q-4 -29 27.5 -64t72.5 -67.5t70 -96t16 -139.5l-6 -35q-31 -184 -139.5 -255.5t-276.5 -71.5q-143 0 -256 39l41 268q94 -12 127 -12 q102 0 117 98l2 12q4 33 -14.5 60.5t-47 51t-56 50.5t-44 70t-8.5 98q10 61 38 110.5t52.5 75t77.5 70.5q80 68 90 143q12 82 -12.5 109.5t-87.5 27.5q-90 0 -125 -57t-61 -223l-154 -975h-397z" />
<glyph unicode="&#xe0;" horiz-adv-x="1118" d="M141 639q20 94 51 169t63 123t77 83t83 53t92 27.5t91 11.5t94 2q383 0 516 -127l-143 -977h-313l-62 102q-63 -117 -287 -116q-158 0 -241.5 178t-20.5 471zM414 1524h297l110 -293h-223zM516 397q2 -47 21.5 -68.5t56.5 -21.5q123 0 133 107l55 389q-31 27 -108 8 q-37 -8 -59.5 -23.5t-47.5 -64.5t-37 -133q-10 -70 -13 -108t-1 -85z" />
<glyph unicode="&#xe1;" horiz-adv-x="1118" d="M141 639q20 94 51 169t63 123t77 83t83 53t92 27.5t91 11.5t94 2q383 0 516 -127l-143 -977h-313l-62 102q-63 -117 -287 -116q-158 0 -241.5 178t-20.5 471zM516 397q2 -47 21.5 -68.5t56.5 -21.5q123 0 133 107l55 389q-31 27 -108 8q-37 -8 -59.5 -23.5t-47.5 -64.5 t-37 -133q-10 -70 -13 -108t-1 -85zM608 1231l205 293h297l-279 -293h-223z" />
<glyph unicode="&#xe2;" horiz-adv-x="1118" d="M141 639q20 94 51 169t63 123t77 83t83 53t92 27.5t91 11.5t94 2q383 0 516 -127l-143 -977h-313l-62 102q-63 -117 -287 -116q-158 0 -241.5 178t-20.5 471zM401 1231l250 287h269l141 -287h-227l-64 104l-119 -104h-250zM516 397q2 -47 21.5 -68.5t56.5 -21.5 q123 0 133 107l55 389q-31 27 -108 8q-37 -8 -59.5 -23.5t-47.5 -64.5t-37 -133q-10 -70 -13 -108t-1 -85z" />
<glyph unicode="&#xe3;" horiz-adv-x="1118" d="M141 639q20 94 51 169t63 123t77 83t83 53t92 27.5t91 11.5t94 2q383 0 516 -127l-143 -977h-313l-62 102q-63 -117 -287 -116q-158 0 -241.5 178t-20.5 471zM389 1368q131 152 277 152q47 0 106 -36t98 -36q106 -6 205 82l29 -152q-121 -147 -254 -147q-45 0 -115.5 36 t-109.5 36q-98 0 -203 -72zM516 397q2 -47 21.5 -68.5t56.5 -21.5q123 0 133 107l55 389q-31 27 -108 8q-37 -8 -59.5 -23.5t-47.5 -64.5t-37 -133q-10 -70 -13 -108t-1 -85z" />
<glyph unicode="&#xe4;" horiz-adv-x="1118" d="M141 639q20 94 51 169t63 123t77 83t83 53t92 27.5t91 11.5t94 2q383 0 516 -127l-143 -977h-313l-62 102q-63 -117 -287 -116q-158 0 -241.5 178t-20.5 471zM352 1366q8 55 54.5 94t101.5 39t88 -39t25 -94q-10 -55 -55.5 -95t-100.5 -40t-88 40t-25 95zM516 397 q2 -47 21.5 -68.5t56.5 -21.5q123 0 133 107l55 389q-31 27 -108 8q-37 -8 -59.5 -23.5t-47.5 -64.5t-37 -133q-10 -70 -13 -108t-1 -85zM874 1366q8 55 54.5 94t101.5 39t88 -39t25 -94q-10 -55 -55.5 -95t-100.5 -40t-89 40t-24 95z" />
<glyph unicode="&#xe5;" horiz-adv-x="1118" d="M141 639q20 94 51 169t63 123t77 83t83 53t92 27.5t91 11.5t94 2q383 0 516 -127l-143 -977h-313l-62 102q-63 -117 -287 -116q-158 0 -241.5 178t-20.5 471zM516 397q2 -47 21.5 -68.5t56.5 -21.5q123 0 133 107l55 389q-31 27 -108 8q-37 -8 -59.5 -23.5t-47.5 -64.5 t-37 -133q-10 -70 -13 -108t-1 -85zM551 1436q8 88 72.5 146t150.5 58t143.5 -59t49.5 -145q-8 -88 -70.5 -146.5t-148.5 -58.5q-88 0 -146.5 59.5t-50.5 145.5zM690 1436q-2 -29 16.5 -48.5t47 -19.5t49 19.5t24.5 48t-14 49t-47 20.5t-50.5 -20t-25.5 -49z" />
<glyph unicode="&#xe6;" horiz-adv-x="1673" d="M139 651q20 94 50 168t62 122t78 81t80.5 49t91 25.5t90.5 10.5t93 1q201 0 324 -39q109 37 260 39q90 0 169 -12.5t154.5 -45t118.5 -98t41 -157.5q-2 -150 -62.5 -248t-142.5 -134t-177 -44.5t-158.5 2t-94.5 22.5q-10 -68 25 -88t147 -20q178 0 369 39l-49 -279 q-270 -88 -592 -59q-162 14 -240 141q-102 -141 -373 -141q-158 0 -242.5 185t-21.5 480zM527 343q18 -40 65 -40q92 0 121 57q-6 137 22 291q14 76 39 156q-37 18 -102 4q-55 -12 -90.5 -58t-51.5 -167q-27 -192 -3 -243zM1145 647q6 -2 18.5 -5t44 -5t56 3t49 25.5 t30.5 57.5q8 47 -12 69.5t-65 20.5q-59 -2 -84 -43t-37 -123z" />
<glyph unicode="&#xe7;" horiz-adv-x="1001" d="M143 606q25 154 67 255.5t103.5 151.5t124 67.5t150.5 17.5h44h56q17 0 57.5 -1t67.5 -4t70 -8.5t75.5 -13.5t72.5 -20.5t75 -26.5l-37 -233q-121 12 -303 12q-45 0 -62.5 -1t-47 -8.5t-41 -22.5t-29 -44t-27.5 -74t-20 -112q-10 -63 -14.5 -105.5t1.5 -72t13.5 -45 t32 -23.5t46 -9t64.5 -1q84 0 165 4t120 8l39 4l-37 -233q-59 -39 -140 -57.5t-132.5 -21.5t-155 -1t-127.5 2q-162 0 -241 155.5t-30 460.5zM233 -377l25 162l82 31q45 18 54 32.5t20 73.5h239q-25 -160 -90 -229.5t-205 -69.5h-125z" />
<glyph unicode="&#xe8;" horiz-adv-x="1083" d="M145 651q49 260 160 357.5t402 99.5q90 0 164.5 -12.5t144 -45t108.5 -98t37 -157.5q-2 -127 -45 -217.5t-108.5 -132.5t-139 -63.5t-147.5 -17t-123 11.5t-74 17q-10 -68 25 -88t147 -20q201 0 391 39l-49 -279q-276 -90 -612 -59q-193 16 -264.5 190t-16.5 475z M436 1524h297l111 -293h-223zM555 647q6 -2 18.5 -5t43 -5t56 3t49 25.5t30.5 57.5q8 47 -11.5 69.5t-64.5 20.5q-59 -2 -84 -43t-37 -123z" />
<glyph unicode="&#xe9;" horiz-adv-x="1083" d="M145 651q49 260 160 357.5t402 99.5q90 0 164.5 -12.5t144 -45t108.5 -98t37 -157.5q-2 -127 -45 -217.5t-108.5 -132.5t-139 -63.5t-147.5 -17t-123 11.5t-74 17q-10 -68 25 -88t147 -20q201 0 391 39l-49 -279q-276 -90 -612 -59q-193 16 -264.5 190t-16.5 475z M555 647q6 -2 18.5 -5t43 -5t56 3t49 25.5t30.5 57.5q8 47 -11.5 69.5t-64.5 20.5q-59 -2 -84 -43t-37 -123zM621 1231l204 293h297l-278 -293h-223z" />
<glyph unicode="&#xea;" horiz-adv-x="1083" d="M145 651q49 260 160 357.5t402 99.5q90 0 164.5 -12.5t144 -45t108.5 -98t37 -157.5q-2 -127 -45 -217.5t-108.5 -132.5t-139 -63.5t-147.5 -17t-123 11.5t-74 17q-10 -68 25 -88t147 -20q201 0 391 39l-49 -279q-276 -90 -612 -59q-193 16 -264.5 190t-16.5 475z M403 1231l250 287h269l141 -287h-227l-64 104l-119 -104h-250zM555 647q6 -2 18.5 -5t43 -5t56 3t49 25.5t30.5 57.5q8 47 -11.5 69.5t-64.5 20.5q-59 -2 -84 -43t-37 -123z" />
<glyph unicode="&#xeb;" horiz-adv-x="1083" d="M145 651q49 260 160 357.5t402 99.5q90 0 164.5 -12.5t144 -45t108.5 -98t37 -157.5q-2 -127 -45 -217.5t-108.5 -132.5t-139 -63.5t-147.5 -17t-123 11.5t-74 17q-10 -68 25 -88t147 -20q201 0 391 39l-49 -279q-276 -90 -612 -59q-193 16 -264.5 190t-16.5 475z M358 1366q8 55 54.5 94t101.5 39t88 -39t25 -94q-10 -55 -55.5 -95t-100.5 -40t-89 40t-24 95zM555 647q6 -2 18.5 -5t43 -5t56 3t49 25.5t30.5 57.5q8 47 -11.5 69.5t-64.5 20.5q-59 -2 -84 -43t-37 -123zM880.5 1366q8.5 55 54.5 94t101.5 39t88 -39t24.5 -94 q-10 -55 -55 -95t-100.5 -40t-88.5 40t-24.5 95z" />
<glyph unicode="&#xec;" horiz-adv-x="516" d="M41 0l172 1087h397l-172 -1087h-397zM133 1520h297l111 -293h-224z" />
<glyph unicode="&#xed;" horiz-adv-x="516" d="M41 0l172 1087h397l-172 -1087h-397zM317 1227l205 293h297l-278 -293h-224z" />
<glyph unicode="&#xee;" horiz-adv-x="516" d="M41 0l172 1087h397l-172 -1087h-397zM100 1227l250 286h268l142 -286h-228l-63 104l-119 -104h-250z" />
<glyph unicode="&#xef;" horiz-adv-x="516" d="M41 0l172 1087h397l-172 -1087h-397zM57.5 1362q8.5 55 54.5 94t101 39t88 -39t25 -94q-10 -55 -55.5 -95t-100.5 -40t-88 40t-24.5 95zM580 1362q8 55 54 94t101.5 39t88 -39t24.5 -94q-10 -55 -55 -95t-100.5 -40t-89 40t-23.5 95z" />
<glyph unicode="&#xf0;" horiz-adv-x="1110" d="M129 588q41 260 157.5 379.5t325.5 119.5h41q123 0 162 -10q-10 86 -67 140l-197 -103l-47 115l92 49q-76 12 -248 8l51 318q393 0 584 -125l158 82l49 -115l-109 -55q176 -217 68 -912q-25 -147 -72 -245.5t-114.5 -147.5t-137 -67.5t-159.5 -18.5h-226q-403 0 -311 588 zM514 395q8 -35 70 -35h55q59 0 75.5 27t37.5 154q23 135 15.5 162.5t-69.5 27.5h-55q-53 0 -76 -35.5t-41 -154.5q-20 -111 -12 -146z" />
<glyph unicode="&#xf1;" d="M70 0l172 1087h331l50 -106q51 41 82.5 62.5t95 42t141.5 20.5q133 0 197.5 -55.5t66.5 -146.5t-14 -208l-111 -696h-397l111 705q10 61 -2.5 83.5t-47.5 22.5q-117 0 -161 -76l-117 -735h-397zM430 1366q131 152 277 152q47 0 106 -36t98 -36q106 -6 205 82l29 -152 q-121 -147 -254 -147q-45 0 -115.5 35.5t-109.5 35.5q-98 0 -203 -71z" />
<glyph unicode="&#xf2;" horiz-adv-x="1132" d="M139 580q27 168 69 270t117.5 158.5t169 76t244.5 19.5q281 0 376 -148.5t44 -478.5q-25 -154 -63.5 -247t-112.5 -147t-170 -73.5t-250 -19.5q-279 0 -375 144.5t-49 445.5zM440 1520h297l111 -293h-223zM521 325.5q11 -40.5 89 -40.5q82 0 102.5 34.5t49.5 208.5 q33 176 22.5 228.5t-92.5 52.5q-80 0 -101.5 -38t-46.5 -195q-5 -32 -7 -48q-27 -162 -16 -202.5z" />
<glyph unicode="&#xf3;" horiz-adv-x="1132" d="M139 580q27 168 69 270t117.5 158.5t169 76t244.5 19.5q281 0 376 -148.5t44 -478.5q-25 -154 -63.5 -247t-112.5 -147t-170 -73.5t-250 -19.5q-279 0 -375 144.5t-49 445.5zM521 325.5q11 -40.5 89 -40.5q82 0 102.5 34.5t49.5 208.5q33 176 22.5 228.5t-92.5 52.5 q-80 0 -101.5 -38t-46.5 -195q-5 -32 -7 -48q-27 -162 -16 -202.5zM637 1227l205 293h297l-279 -293h-223z" />
<glyph unicode="&#xf4;" horiz-adv-x="1132" d="M139 580q27 168 69 270t117.5 158.5t169 76t244.5 19.5q281 0 376 -148.5t44 -478.5q-25 -154 -63.5 -247t-112.5 -147t-170 -73.5t-250 -19.5q-279 0 -375 144.5t-49 445.5zM399 1227l250 286h269l141 -286h-228l-63 104l-119 -104h-250zM521 325.5q11 -40.5 89 -40.5 q82 0 102.5 34.5t49.5 208.5q33 176 22.5 228.5t-92.5 52.5q-80 0 -101.5 -38t-46.5 -195q-5 -32 -7 -48q-27 -162 -16 -202.5z" />
<glyph unicode="&#xf5;" horiz-adv-x="1132" d="M139 580q27 168 69 270t117.5 158.5t169 76t244.5 19.5q281 0 376 -148.5t44 -478.5q-25 -154 -63.5 -247t-112.5 -147t-170 -73.5t-250 -19.5q-279 0 -375 144.5t-49 445.5zM403 1364q131 152 277 152q45 0 104.5 -36t100.5 -36q106 -6 205 82l28 -152 q-121 -147 -254 -147q-45 0 -115.5 35.5t-109.5 35.5q-98 0 -203 -71zM521 325.5q11 -40.5 89 -40.5q82 0 102.5 34.5t49.5 208.5q33 176 22.5 228.5t-92.5 52.5q-80 0 -101.5 -38t-46.5 -195q-5 -32 -7 -48q-27 -162 -16 -202.5z" />
<glyph unicode="&#xf6;" horiz-adv-x="1132" d="M139 580q27 168 69 270t117.5 158.5t169 76t244.5 19.5q281 0 376 -148.5t44 -478.5q-25 -154 -63.5 -247t-112.5 -147t-170 -73.5t-250 -19.5q-279 0 -375 144.5t-49 445.5zM371 1362q8 55 54 94t101.5 39t88 -39t24.5 -94q-10 -55 -55 -95t-100.5 -40t-89 40t-23.5 95z M521 325.5q11 -40.5 89 -40.5q82 0 102.5 34.5t49.5 208.5q33 176 22.5 228.5t-92.5 52.5q-80 0 -101.5 -38t-46.5 -195q-5 -32 -7 -48q-27 -162 -16 -202.5zM893 1362q8 55 54 94t101.5 39t88 -39t24.5 -94q-10 -55 -55 -95t-100.5 -40t-88 40t-24.5 95z" />
<glyph unicode="&#xf7;" horiz-adv-x="987" d="M145 565l50 316h874l-49 -316h-875zM381 287l27 157q6 51 57 52h190q53 0 43 -52l-26 -157q-8 -47 -58 -47h-190q-49 0 -43 47zM494 989l24 158q6 51 57 51h191q53 0 43 -51l-25 -158q-8 -47 -59 -47h-190q-47 0 -41 47z" />
<glyph unicode="&#xf8;" horiz-adv-x="1132" d="M16 0l148 147q-70 131 -23 428q27 168 69 269.5t117.5 158t169 76t244.5 19.5q215 0 316 -64l53 53h176l-145 -145q72 -139 20 -463q-25 -154 -63.5 -247t-112.5 -148t-170 -74.5t-250 -19.5q-213 0 -317 65l-55 -55h-177zM522 328q6 -27 26.5 -35t63.5 -8 q82 0 101.5 33.5t50.5 209.5q2 10 5 29l3 18zM537 516l247 246q-10 41 -90 41q-82 0 -103.5 -39t-45.5 -192q-5 -29 -6 -44q0 -2 -1 -6t-1 -6z" />
<glyph unicode="&#xf9;" horiz-adv-x="1134" d="M104.5 183q-1.5 91 14.5 208l110 696h398l-113 -704q-10 -61 2 -84t49 -23q117 0 162 76l117 735h397l-174 -1087h-332l-47 106q-72 -68 -138.5 -96t-180.5 -28q-133 0 -198 55t-66.5 146zM461 1520h297l110 -293h-223z" />
<glyph unicode="&#xfa;" horiz-adv-x="1134" d="M104.5 183q-1.5 91 14.5 208l110 696h398l-113 -704q-10 -61 2 -84t49 -23q117 0 162 76l117 735h397l-174 -1087h-332l-47 106q-72 -68 -138.5 -96t-180.5 -28q-133 0 -198 55t-66.5 146zM645 1227l205 293h297l-279 -293h-223z" />
<glyph unicode="&#xfb;" horiz-adv-x="1134" d="M104.5 183q-1.5 91 14.5 208l110 696h398l-113 -704q-10 -61 2 -84t49 -23q117 0 162 76l117 735h397l-174 -1087h-332l-47 106q-72 -68 -138.5 -96t-180.5 -28q-133 0 -198 55t-66.5 146zM428 1227l250 286h268l141 -286h-227l-63 104l-119 -104h-250z" />
<glyph unicode="&#xfc;" horiz-adv-x="1134" d="M104.5 183q-1.5 91 14.5 208l110 696h398l-113 -704q-10 -61 2 -84t49 -23q117 0 162 76l117 735h397l-174 -1087h-332l-47 106q-72 -68 -138.5 -96t-180.5 -28q-133 0 -198 55t-66.5 146zM383 1362q8 55 54 94t101.5 39t88 -39t24.5 -94q-10 -55 -55 -95t-100.5 -40 t-89 40t-23.5 95zM905 1362q8 55 54.5 94t101.5 39t88 -39t25 -94q-10 -55 -55.5 -95t-100.5 -40t-88 40t-25 95z" />
<glyph unicode="&#xfd;" horiz-adv-x="1177" d="M156 1087h411l17 -688q2 -76 75 -80l177 488q41 113 53 283h381q31 -178 -74 -426l-266 -664q-240 -561 -727 -619q-16 -1 -25 -4v279q141 66 222 144.5t141 199.5q-315 0 -336 319zM643 1221l205 292h297l-279 -292h-223z" />
<glyph unicode="&#xfe;" horiz-adv-x="1144" d="M-6 -553l342 2155h397l-100 -629q78 57 140.5 84.5t146.5 27.5q358 0 264 -602q-45 -274 -138.5 -394t-304.5 -120q-162 0 -256 70l-94 -592h-397zM524 285q23 -31 127 -31q49 0 78 49t55 211q20 109 15.5 164t-19 70.5t-47.5 15.5q-106 0 -141 -45z" />
<glyph unicode="&#xff;" horiz-adv-x="1177" d="M156 1087h411l17 -688q2 -76 75 -80l177 488q41 113 53 283h381q31 -178 -74 -426l-266 -664q-240 -561 -727 -619q-16 -1 -25 -4v279q141 66 222 144.5t141 199.5q-315 0 -336 319zM387 1315q8 55 54 94t101.5 39t88.5 -39t24 -94q-10 -55 -55 -95t-100.5 -40t-89 40 t-23.5 95zM909.5 1315q8.5 55 54.5 94t101 39t88 -39t25 -94q-10 -55 -55.5 -95t-100.5 -40t-88 40t-24.5 95z" />
<glyph unicode="&#x100;" horiz-adv-x="1456" d="M51 0l707 1499h469l217 -1499h-408l-43 262h-385l-116 -262h-441zM715 1632l30 191h598l-30 -191h-598zM752 600h215l-47 401z" />
<glyph unicode="&#x101;" horiz-adv-x="1118" d="M141 639q20 94 51 169t63 123t77 83t83 53t92 27.5t91 11.5t94 2q383 0 516 -127l-143 -977h-313l-62 102q-63 -117 -287 -116q-158 0 -241.5 178t-20.5 471zM434 1231l31 190h598l-31 -190h-598zM516 397q2 -47 21.5 -68.5t56.5 -21.5q123 0 133 107l55 389 q-31 27 -108 8q-37 -8 -59.5 -23.5t-47.5 -64.5t-37 -133q-10 -70 -13 -108t-1 -85z" />
<glyph unicode="&#x102;" horiz-adv-x="1456" d="M51 0l707 1499h469l217 -1499h-408l-43 262h-385l-116 -262h-441zM752 600h215l-47 401zM815 1862h137q-10 -96 86 -97q104 0 111 97h137q-10 -106 -75.5 -168t-174.5 -62q-106 0 -167.5 63t-53.5 167z" />
<glyph unicode="&#x103;" horiz-adv-x="1118" d="M141 639q20 94 51 169t63 123t77 83t83 53t92 27.5t91 11.5t94 2q383 0 516 -127l-143 -977h-313l-62 102q-63 -117 -287 -116q-158 0 -241.5 178t-20.5 471zM500 1464h137q-10 -96 86 -96q104 0 111 96h137q-10 -106 -76 -167.5t-174 -61.5q-106 0 -167.5 62.5 t-53.5 166.5zM516 397q2 -47 21.5 -68.5t56.5 -21.5q123 0 133 107l55 389q-31 27 -108 8q-37 -8 -59.5 -23.5t-47.5 -64.5t-37 -133q-10 -70 -13 -108t-1 -85z" />
<glyph unicode="&#x104;" horiz-adv-x="1456" d="M51 0l707 1499h469l217 -1499h-127q-78 -49 -91.5 -102.5t17.5 -81t72 -21.5l-29 -184q-104 -35 -189 30.5t-72 175t151 183.5h-140l-43 262h-385l-116 -262h-441zM752 600h215l-47 401z" />
<glyph unicode="&#x105;" horiz-adv-x="1118" d="M141 639q20 94 51 169t63 123t77 83t83 53t92 27.5t91 11.5t94 2q383 0 516 -127l-143 -977h-313l-62 102q-63 -117 -287 -116q-158 0 -241.5 178t-20.5 471zM516 397q2 -47 21.5 -68.5t56.5 -21.5q123 0 133 107l55 389q-31 27 -108 8q-37 -8 -59.5 -23.5t-47.5 -64.5 t-37 -133q-10 -70 -13 -108t-1 -85zM687.5 -182.5q13.5 110.5 154.5 184.5h141q-123 -77 -95 -154q18 -49 71 -54q9 -1 18 1l-29 -184q-104 -35 -189 30.5t-71.5 176z" />
<glyph unicode="&#x106;" horiz-adv-x="1159" d="M180 817q57 371 199.5 535t439.5 164q213 0 305.5 -15.5t223.5 -66.5l-50 -310l-12 2q-12 2 -33.5 5.5t-50 7.5t-65.5 7t-76 6t-85 5t-89 2h-61q-15 0 -50 -5t-47 -14.5t-35.5 -28.5t-35 -48t-28 -73t-28.5 -103.5t-24 -136.5q-41 -252 -7.5 -329t187.5 -77q96 0 200.5 4 t161.5 9l58 5l-50 -309q-104 -41 -216.5 -55t-333.5 -10q-525 8 -398 829zM829 1638l205 293h297l-278 -293h-224z" />
<glyph unicode="&#x107;" horiz-adv-x="1001" d="M143 606q25 154 68 257.5t103.5 154.5t124 70.5t149.5 19.5q332 0 518 -74l-37 -233q-121 12 -303 12q-61 0 -90 -5t-58.5 -31.5t-46 -81t-32.5 -154.5q-10 -63 -14.5 -105.5t1.5 -72t13.5 -45t32 -23.5t46 -9t64.5 -1q84 0 165 4t120 8l39 4l-37 -233 q-109 -49 -227.5 -65.5t-327.5 -12.5q-162 2 -241 156.5t-30 459.5zM621 1227l204 293h297l-278 -293h-223z" />
<glyph unicode="&#x108;" horiz-adv-x="1159" d="M180 817q57 371 199.5 535t439.5 164q213 0 305.5 -15.5t223.5 -66.5l-50 -310l-12 2q-12 2 -33.5 5.5t-50 7.5t-65.5 7t-76 6t-85 5t-89 2h-61q-15 0 -50 -5t-47 -14.5t-35.5 -28.5t-35 -48t-28 -73t-28.5 -103.5t-24 -136.5q-41 -252 -7.5 -329t187.5 -77q96 0 200.5 4 t161.5 9l58 5l-50 -309q-104 -41 -216.5 -55t-333.5 -10q-525 8 -398 829zM571 1638l250 287h269l141 -287h-227l-64 105l-119 -105h-250z" />
<glyph unicode="&#x109;" horiz-adv-x="1001" d="M143 606q25 154 68 257.5t103.5 154.5t124 70.5t149.5 19.5q332 0 518 -74l-37 -233q-121 12 -303 12q-61 0 -90 -5t-58.5 -31.5t-46 -81t-32.5 -154.5q-10 -63 -14.5 -105.5t1.5 -72t13.5 -45t32 -23.5t46 -9t64.5 -1q84 0 165 4t120 8l39 4l-37 -233 q-109 -49 -227.5 -65.5t-327.5 -12.5q-162 2 -241 156.5t-30 459.5zM377 1225l250 286h268l141 -286h-227l-64 104l-118 -104h-250z" />
<glyph unicode="&#x10a;" horiz-adv-x="1159" d="M180 817q57 371 199.5 535t439.5 164q213 0 305.5 -15.5t223.5 -66.5l-50 -310l-12 2q-12 2 -33.5 5.5t-50 7.5t-65.5 7t-76 6t-85 5t-89 2h-61q-15 0 -50 -5t-47 -14.5t-35.5 -28.5t-35 -48t-28 -73t-28.5 -103.5t-24 -136.5q-41 -252 -7.5 -329t187.5 -77q96 0 200.5 4 t161.5 9l58 5l-50 -309q-104 -41 -216.5 -55t-333.5 -10q-525 8 -398 829zM788 1686l31 192q6 51 58 51h184q47 0 39 -51l-31 -192q-6 -47 -53 -48h-185q-49 1 -43 48z" />
<glyph unicode="&#x10b;" horiz-adv-x="1001" d="M143 606q25 154 68 257.5t103.5 154.5t124 70.5t149.5 19.5q332 0 518 -74l-37 -233q-121 12 -303 12q-61 0 -90 -5t-58.5 -31.5t-46 -81t-32.5 -154.5q-10 -63 -14.5 -105.5t1.5 -72t13.5 -45t32 -23.5t46 -9t64.5 -1q84 0 165 4t120 8l39 4l-37 -233 q-109 -49 -227.5 -65.5t-327.5 -12.5q-162 2 -241 156.5t-30 459.5zM569 1274l31 192q6 51 57 52h185q47 0 39 -52l-31 -192q-6 -47 -53 -47h-185q-49 0 -43 47z" />
<glyph unicode="&#x10c;" horiz-adv-x="1159" d="M180 817q57 371 199.5 535t439.5 164q213 0 305.5 -15.5t223.5 -66.5l-50 -310l-12 2q-12 2 -33.5 5.5t-50 7.5t-65.5 7t-76 6t-85 5t-89 2h-61q-15 0 -50 -5t-47 -14.5t-35.5 -28.5t-35 -48t-28 -73t-28.5 -103.5t-24 -136.5q-41 -252 -7.5 -329t187.5 -77q96 0 200.5 4 t161.5 9l58 5l-50 -309q-104 -41 -216.5 -55t-333.5 -10q-525 8 -398 829zM668 1925h227l72 -104l110 104h250l-250 -287h-258z" />
<glyph unicode="&#x10d;" horiz-adv-x="1001" d="M143 606q25 154 68 257.5t103.5 154.5t124 70.5t149.5 19.5q332 0 518 -74l-37 -233q-121 12 -303 12q-61 0 -90 -5t-58.5 -31.5t-46 -81t-32.5 -154.5q-10 -63 -14.5 -105.5t1.5 -72t13.5 -45t32 -23.5t46 -9t64.5 -1q84 0 165 4t120 8l39 4l-37 -233 q-109 -49 -227.5 -65.5t-327.5 -12.5q-162 2 -241 156.5t-30 459.5zM449 1513h227l72 -104l110 104h250l-250 -286h-258z" />
<glyph unicode="&#x10e;" horiz-adv-x="1323" d="M92 0l238 1499h647q524 0 403 -817q-31 -213 -80 -348t-127.5 -208t-170 -99.5t-228.5 -26.5h-682zM543 336h213q96 0 145 93t84 316q35 180 21.5 273.5t-44 119t-96.5 25.5h-192zM596 1919h227l72 -104l111 104h249l-249 -287h-258z" />
<glyph unicode="&#x10f;" horiz-adv-x="1595" d="M141 581.5q49 307.5 137.5 415t305.5 107.5q154 0 260 -62l90 566h397l-254 -1608h-340l-45 100q-78 -57 -139 -84.5t-145 -27.5q-184 0 -250 143t-17 450.5zM526.5 395q3.5 -55 18 -70.5t47.5 -15.5q106 0 141 45l70 434q-23 31 -129 31q-47 0 -75.5 -49t-55.5 -211 q-20 -109 -16.5 -164zM1397 1190l20 274l21 138h233l-20 -138l-64 -274h-190z" />
<glyph unicode="&#x110;" horiz-adv-x="1310" d="M90 688l25 152h133l104 659h662q147 0 242.5 -67.5t130 -181t41 -261t-24.5 -307.5q-61 -387 -192.5 -534.5t-393.5 -147.5h-702l108 688h-133zM565 336h223q86 0 134.5 94t83.5 315q35 180 25.5 273.5t-34 119t-77.5 25.5h-224l-51 -323h182l-24 -152h-182z" />
<glyph unicode="&#x111;" d="M141 586q49 307 136.5 412.5t306.5 105.5q154 0 260 -62l28 179h-192l25 151h192l37 236h397l-37 -236h121l-24 -151h-121l-193 -1221h-340l-45 100q-78 -57 -139 -84.5t-145 -27.5q-184 0 -250 145.5t-17 452.5zM526.5 395q3.5 -55 18 -70.5t47.5 -15.5q106 0 141 45 l70 434q-23 31 -129 31q-47 0 -75.5 -49t-55.5 -211q-20 -109 -16.5 -164z" />
<glyph unicode="&#x112;" d="M131 354l129 817q16 104 60.5 174t110 102t125.5 42t140 10q387 0 623 -33l-53 -333h-506q-39 0 -62.5 -9.5t-36 -29t-16.5 -33.5t-8 -43l-12 -82l503 -23l-53 -329l-510 -19l-16 -98q-6 -39 0 -62.5t27.5 -31.5t37 -10.5t45.5 -2.5h486l-53 -331q-96 -12 -250 -21.5 t-259 -11.5l-106 -2q-51 -2 -99 5t-101.5 30.5t-89 61.5t-53 105.5t-3.5 157.5zM563 1622l31 190h598l-31 -190h-598z" />
<glyph unicode="&#x113;" horiz-adv-x="1083" d="M145 651q49 260 160 357.5t402 99.5q90 0 164.5 -12.5t144 -45t108.5 -98t37 -157.5q-2 -127 -45 -217.5t-108.5 -132.5t-139 -63.5t-147.5 -17t-123 11.5t-74 17q-10 -68 25 -88t147 -20q201 0 391 39l-49 -279q-276 -90 -612 -59q-193 16 -264.5 190t-16.5 475z M424 1210l31 191h598l-31 -191h-598zM555 647q6 -2 18.5 -5t43 -5t56 3t49 25.5t30.5 57.5q8 47 -11.5 69.5t-64.5 20.5q-59 -2 -84 -43t-37 -123z" />
<glyph unicode="&#x116;" d="M131 354l129 817q16 104 60.5 174t110 102t125.5 42t140 10q387 0 623 -33l-53 -333h-506q-39 0 -62.5 -9.5t-36 -29t-16.5 -33.5t-8 -43l-12 -82l503 -23l-53 -329l-510 -19l-16 -98q-6 -39 0 -62.5t27.5 -31.5t37 -10.5t45.5 -2.5h486l-53 -331q-96 -12 -250 -21.5 t-259 -11.5l-106 -2q-51 -2 -99 5t-101.5 30.5t-89 61.5t-53 105.5t-3.5 157.5zM743 1679l31 193q6 51 57 51h185q47 0 39 -51l-31 -193q-6 -47 -53 -47h-185q-49 0 -43 47z" />
<glyph unicode="&#x117;" horiz-adv-x="1083" d="M145 651q49 260 160 357.5t402 99.5q90 0 164.5 -12.5t144 -45t108.5 -98t37 -157.5q-2 -127 -45 -217.5t-108.5 -132.5t-139 -63.5t-147.5 -17t-123 11.5t-74 17q-10 -68 25 -88t147 -20q201 0 391 39l-49 -279q-276 -90 -612 -59q-193 16 -264.5 190t-16.5 475z M555 647q6 -2 18.5 -5t43 -5t56 3t49 25.5t30.5 57.5q8 47 -11.5 69.5t-64.5 20.5q-59 -2 -84 -43t-37 -123zM598 1278l31 192q6 51 57 52h184q47 0 39 -52l-30 -192q-6 -47 -54 -47h-184q-49 0 -43 47z" />
<glyph unicode="&#x118;" d="M131 354l129 817q16 104 60.5 174t110 102t125.5 42t140 10q387 0 623 -33l-53 -333h-506q-39 0 -62.5 -9.5t-36 -29t-16.5 -33.5t-8 -43l-12 -82l503 -23l-53 -329l-510 -19l-16 -98q-6 -39 0 -62.5t27.5 -31.5t37 -10.5t45.5 -2.5h486l-53 -331h-2q-123 -77 -95 -155 q18 -49 71 -53q9 -1 17 1l-28 -184q-76 -25 -144.5 7.5t-100.5 92t-7.5 138.5t117.5 136l-443 -18q-51 -2 -99 5t-101.5 30.5t-89 61.5t-53 105.5t-3.5 157.5z" />
<glyph unicode="&#x119;" horiz-adv-x="1083" d="M145 651q49 260 160 357.5t402 99.5q90 0 164.5 -12.5t144 -45t108.5 -98t37 -157.5q-2 -127 -45 -217.5t-108.5 -132.5t-139 -63.5t-147.5 -17t-123 11.5t-74 17q-10 -68 25 -88t147 -20q201 0 391 39l-49 -279q-123 -77 -95 -154q18 -49 72 -54q9 -1 17 1l-28 -184 q-70 -23 -135.5 4t-99.5 79t-24.5 124.5t74.5 130.5q-174 -27 -393 -6q-193 16 -264.5 190t-16.5 475zM555 647q6 -2 18.5 -5t43 -5t56 3t49 25.5t30.5 57.5q8 47 -11.5 69.5t-64.5 20.5q-59 -2 -84 -43t-37 -123z" />
<glyph unicode="&#x11a;" d="M131 354l129 817q16 104 60.5 174t110 102t125.5 42t140 10q387 0 623 -33l-53 -333h-506q-39 0 -62.5 -9.5t-36 -29t-16.5 -33.5t-8 -43l-12 -82l503 -23l-53 -329l-510 -19l-16 -98q-6 -39 0 -62.5t27.5 -31.5t37 -10.5t45.5 -2.5h486l-53 -331q-96 -12 -250 -21.5 t-259 -11.5l-106 -2q-51 -2 -99 5t-101.5 30.5t-89 61.5t-53 105.5t-3.5 157.5zM573 1919h228l71 -104l111 104h250l-250 -287h-258z" />
<glyph unicode="&#x11b;" horiz-adv-x="1083" d="M145 651q49 260 160 357.5t402 99.5q90 0 164.5 -12.5t144 -45t108.5 -98t37 -157.5q-2 -127 -45 -217.5t-108.5 -132.5t-139 -63.5t-147.5 -17t-123 11.5t-74 17q-10 -68 25 -88t147 -20q201 0 391 39l-49 -279q-276 -90 -612 -59q-193 16 -264.5 190t-16.5 475z M449 1518h227l72 -105l110 105h250l-250 -287h-258zM555 647q6 -2 18.5 -5t43 -5t56 3t49 25.5t30.5 57.5q8 47 -11.5 69.5t-64.5 20.5q-59 -2 -84 -43t-37 -123z" />
<glyph unicode="&#x11c;" horiz-adv-x="1265" d="M152.5 522.5q2.5 145.5 37.5 317.5q37 190 79 309t113 206t173 124t254 37q242 0 326 -11.5t284 -68.5l-49 -301q-2 0 -29.5 5t-74.5 11t-104.5 12t-133.5 11.5t-149 5.5q-139 0 -194.5 -85t-96.5 -341q-18 -113 -24.5 -172.5t-5.5 -111.5t20.5 -72.5t50 -32t88 -11.5 t97.5 23.5t52 47.5l13 24l24 153h-100l39 246q104 51 366 51q66 0 140 -6l-144 -893h-280l-97 100q-55 -59 -104 -80.5t-166 -29.5q-154 -10 -249 59.5t-126.5 198.5t-29 274.5zM580 1638l249 287h269l141 -287h-227l-64 105l-119 -105h-249z" />
<glyph unicode="&#x11d;" horiz-adv-x="1146" d="M10 -508l41 264h406q174 0 205 195l22 139q-72 -78 -211 -78q-225 0 -300 160t-26 469q43 272 166 371.5t334 99.5q170 0 342 -20.5t248 -53.5l-182 -1149q-18 -117 -58.5 -202.5t-108 -147t-173 -86t-246.5 -10.5zM436 1235l250 287h268l142 -287h-228l-63 104 l-119 -104h-250zM528.5 361.5q12.5 -62.5 87.5 -62.5q70 0 107 39l80 500h-96q-43 0 -72 -18.5t-46.5 -59.5t-24.5 -72t-17 -92q-31 -172 -18.5 -234.5z" />
<glyph unicode="&#x11e;" horiz-adv-x="1265" d="M152.5 522.5q2.5 145.5 37.5 317.5q37 190 79 309t113 206t173 124t254 37q242 0 326 -11.5t284 -68.5l-49 -301q-2 0 -29.5 5t-74.5 11t-104.5 12t-133.5 11.5t-149 5.5q-139 0 -194.5 -85t-96.5 -341q-18 -113 -24.5 -172.5t-5.5 -111.5t20.5 -72.5t50 -32t88 -11.5 t97.5 23.5t52 47.5l13 24l24 153h-100l39 246q104 51 366 51q66 0 140 -6l-144 -893h-280l-97 100q-55 -59 -104 -80.5t-166 -29.5q-154 -10 -249 59.5t-126.5 198.5t-29 274.5zM707 1868h137q-10 -96 86 -96q104 0 110 96h138q-10 -106 -76 -168t-174 -62q-106 0 -167.5 63 t-53.5 167z" />
<glyph unicode="&#x11f;" horiz-adv-x="1146" d="M10 -508l41 264h406q174 0 205 195l22 139q-72 -78 -211 -78q-225 0 -300 160t-26 469q43 272 166 371.5t334 99.5q170 0 342 -20.5t248 -53.5l-182 -1149q-18 -117 -58.5 -202.5t-108 -147t-173 -86t-246.5 -10.5zM528.5 361.5q12.5 -62.5 87.5 -62.5q70 0 107 39 l80 500h-96q-43 0 -72 -18.5t-46.5 -59.5t-24.5 -72t-17 -92q-31 -172 -18.5 -234.5zM551 1464h137q-10 -96 86 -96q104 0 111 96h137q-10 -106 -75.5 -167.5t-174.5 -61.5q-106 0 -167.5 62.5t-53.5 166.5z" />
<glyph unicode="&#x120;" horiz-adv-x="1265" d="M152.5 522.5q2.5 145.5 37.5 317.5q37 190 79 309t113 206t173 124t254 37q242 0 326 -11.5t284 -68.5l-49 -301q-2 0 -29.5 5t-74.5 11t-104.5 12t-133.5 11.5t-149 5.5q-139 0 -194.5 -85t-96.5 -341q-18 -113 -24.5 -172.5t-5.5 -111.5t20.5 -72.5t50 -32t88 -11.5 t97.5 23.5t52 47.5l13 24l24 153h-100l39 246q104 51 366 51q66 0 140 -6l-144 -893h-280l-97 100q-55 -59 -104 -80.5t-166 -29.5q-154 -10 -249 59.5t-126.5 198.5t-29 274.5zM782 1686l31 192q6 51 57 51h185q47 0 39 -51l-31 -192q-6 -47 -53 -48h-185q-49 1 -43 48z " />
<glyph unicode="&#x121;" horiz-adv-x="1146" d="M10 -508l41 264h406q174 0 205 195l22 139q-72 -78 -211 -78q-225 0 -300 160t-26 469q43 272 166 371.5t334 99.5q170 0 342 -20.5t248 -53.5l-182 -1149q-18 -117 -58.5 -202.5t-108 -147t-173 -86t-246.5 -10.5zM528.5 361.5q12.5 -62.5 87.5 -62.5q70 0 107 39 l80 500h-96q-43 0 -72 -18.5t-46.5 -59.5t-24.5 -72t-17 -92q-31 -172 -18.5 -234.5zM616 1282l31 193q6 51 58 51h184q47 0 39 -51l-31 -193q-6 -47 -53 -47h-185q-49 0 -43 47z" />
<glyph unicode="&#x122;" horiz-adv-x="1265" d="M152.5 522.5q2.5 145.5 37.5 317.5q37 190 79 309t113 206t173 124t254 37q242 0 326 -11.5t284 -68.5l-49 -301q-2 0 -29.5 5t-74.5 11t-104.5 12t-133.5 11.5t-149 5.5q-139 0 -194.5 -85t-96.5 -341q-18 -113 -24.5 -172.5t-5.5 -111.5t20.5 -72.5t50 -32t88 -11.5 t97.5 23.5t52 47.5l13 24l24 153h-100l39 246q104 51 366 51q66 0 140 -6l-144 -893h-280l-97 100q-55 -59 -104 -80.5t-166 -29.5q-154 -10 -249 59.5t-126.5 198.5t-29 274.5zM469 -592l18 115q37 -2 48.5 8t15.5 31l2 8h-21q-47 0 -38 45l32 211q10 49 54 49h204 q43 0 37 -49l-45 -277q-10 -63 -46 -102t-79 -47t-85 -8t-69 8z" />
<glyph unicode="&#x123;" horiz-adv-x="1337" d="M57 -508l41 264h406q174 0 205 195l22 139q-72 -78 -211 -78q-225 0 -300 160t-25 469q43 272 165.5 371.5t333.5 99.5q170 0 342 -20.5t248 -53.5l-182 -1149q-18 -117 -58 -202.5t-108 -147t-173.5 -86t-246.5 -10.5zM575.5 361.5q12.5 -62.5 88.5 -62.5q70 0 106 39 l80 500h-96q-43 0 -72 -18.5t-46.5 -59.5t-24.5 -72t-17 -92q-31 -172 -18.5 -234.5zM682 1292l43 277q28 174 228 156q46 -4 81 -15l-18 -115q-59 2 -64 -39l-2 -8h21q45 0 39 -45l-33 -211q-10 -49 -55 -49h-205q-41 0 -35 49z" />
<glyph unicode="&#x124;" horiz-adv-x="1302" d="M92 0l238 1499h397l-94 -596h348l94 596h398l-238 -1499h-397l86 547h-349l-86 -547h-397zM592 1632l250 287h268l141 -287h-227l-63 105l-119 -105h-250z" />
<glyph unicode="&#x125;" d="M-63 0l253 1602h396l-99 -621q45 37 79 60.5t99.5 44t143.5 20.5q133 0 197.5 -55.5t66.5 -146.5t-14 -208l-111 -696h-397l111 705q10 61 -2.5 83.5t-47.5 22.5q-117 0 -161 -76l-117 -735h-397zM63 1724l250 287h269l141 -287h-227l-64 105l-119 -105h-250z" />
<glyph unicode="&#x126;" horiz-adv-x="1392" d="M94 0l168 1057h-133l23 151h133l47 291h397l-47 -291h348l47 291h398l-48 -291h134l-23 -151h-133l-168 -1057h-397l86 547h-348l-86 -547h-398zM635 903h348l25 154h-349z" />
<glyph unicode="&#x127;" horiz-adv-x="1189" d="M123 0l194 1229h-122l24 151h123l35 222h395l-35 -222h195l-25 -151h-194l-39 -248q20 12 67 43t72 43t74 25.5t108 13.5q133 0 197.5 -55.5t67 -146.5t-14.5 -208l-110 -696h-398l111 705q10 61 -2 83.5t-47 22.5q-117 0 -162 -76l-117 -735h-397z" />
<glyph unicode="&#x128;" horiz-adv-x="577" d="M92 0l238 1499h397l-238 -1499h-397zM215 1769q131 152 277 152q45 0 104 -36t100 -36q106 -6 205 82l29 -151q-121 -147 -254 -148q-45 0 -116 36t-109 36q-98 0 -203 -72z" />
<glyph unicode="&#x129;" horiz-adv-x="516" d="M41 0l172 1087h397l-172 -1087h-397zM78 1364q131 152 276 152q47 0 106.5 -36t98.5 -36q106 -6 205 82l29 -152q-121 -147 -254 -147q-45 0 -116 35.5t-110 35.5q-98 0 -202 -71z" />
<glyph unicode="&#x12a;" horiz-adv-x="577" d="M92 0l238 1499h397l-238 -1499h-397zM250 1632l31 191h598l-31 -191h-598z" />
<glyph unicode="&#x12b;" horiz-adv-x="516" d="M41 0l172 1087h397l-172 -1087h-397zM125 1227l31 190h598l-31 -190h-598z" />
<glyph unicode="&#x12e;" horiz-adv-x="577" d="M83 -183.5q13 109.5 150 183.5h-141l238 1499h397l-238 -1499h-114q-121 -77 -91 -155q19 -49 72 -51q8 0 15 1l-29 -184q-104 -35 -188 30.5t-71 175z" />
<glyph unicode="&#x12f;" horiz-adv-x="516" d="M54 -242q-7 41 1 82t44 84t96 76h-136l172 1087h398l-172 -1087h-119q-74 -49 -86 -100.5t19.5 -79t70.5 -21.5l-29 -184q-43 -12 -88 -9t-77.5 26.5t-59.5 54t-34 71.5zM254 1237l37 240q6 51 57 51h307q45 0 37 -51l-37 -240q-6 -47 -53 -47h-307q-47 0 -41 47z" />
<glyph unicode="&#x130;" horiz-adv-x="577" d="M92 0l238 1499h397l-238 -1499h-397zM416 1679l30 193q6 51 58 51h184q47 0 39 -51l-31 -193q-6 -47 -53 -47h-184q-49 0 -43 47z" />
<glyph unicode="&#x131;" horiz-adv-x="516" d="M41 0l172 1087h397l-172 -1087h-397z" />
<glyph unicode="&#x134;" horiz-adv-x="724" d="M47 51l49 316q109 0 158 19.5t65.5 54t30.5 124.5l148 934h397l-184 -1161q-35 -229 -158 -301q-90 -51 -261 -45t-245 59zM387 1632l250 287h268l142 -287h-228l-63 105l-119 -105h-250z" />
<glyph unicode="&#x135;" horiz-adv-x="542" d="M0 -553l260 1640h397l-174 -1095q-16 -113 -32.5 -188.5t-54.5 -179t-93 -177.5h-303zM137 1217l250 286h268l142 -286h-228l-86 104l-116 -104h-230z" />
<glyph unicode="&#x136;" horiz-adv-x="1351" d="M92 0l238 1499h377l-95 -590h62l399 590h477l-530 -784l293 -715h-447l-204 573h-101l-90 -573h-379zM442 -582l19 115q37 -2 48 8t15 29l2 10h-20q-47 0 -39 47l33 209q8 49 53 49h205q43 0 37 -49l-45 -276q-10 -63 -46 -101.5t-79 -47.5t-85 -8t-70 8z" />
<glyph unicode="&#x137;" horiz-adv-x="1155" d="M70 -4l254 1601h397l-139 -872q219 94 307 358h416q-57 -209 -142.5 -320.5t-191.5 -176.5l268 -590h-430l-191 459l-77 -2l-74 -457h-397zM410 -582l18 115q37 -2 48 8t16 29l2 10h-21q-47 0 -39 47l33 209q8 49 53 49h205q43 0 37 -49l-45 -276q-10 -63 -46 -101.5 t-79 -47.5t-85 -8t-70 8z" />
<glyph unicode="&#x138;" horiz-adv-x="1230" d="M70 0l172 1087h399l-66 -411h48l307 411h450l-417 -583l217 -504h-432l-154 401h-62l-63 -401h-399z" />
<glyph unicode="&#x139;" horiz-adv-x="1075" d="M57 319l187 1180h397l-164 -1036q-6 -39 0 -62.5t27.5 -32t37 -10.5t46.5 -2h422l-58 -356h-606q-152 0 -234 77.5t-55 241.5zM334 1622l205 293h297l-279 -293h-223z" />
<glyph unicode="&#x13a;" horiz-adv-x="659" d="M125 387l192 1217h398l-178 -1135q-12 -109 -2 -140.5t47 -54.5q78 -43 92 -43l-37 -231h-221q-160 0 -242 92t-49 295zM424 1726l205 293h297l-279 -293h-223z" />
<glyph unicode="&#x13b;" horiz-adv-x="1075" d="M141 319l187 1180h397l-164 -1036q-6 -39 0 -62.5t27.5 -32t37 -10.5t46.5 -2h422l-58 -356h-606q-152 0 -234 77.5t-55 241.5zM362 -582l19 115q37 -2 48 8t15 29l2 10h-20q-47 0 -39 47l33 209q10 49 53 49h205q43 0 37 -49l-45 -276q-10 -63 -46 -101.5t-79 -47.5 t-85 -8t-70 8z" />
<glyph unicode="&#x13c;" horiz-adv-x="659" d="M125 387l192 1217h398l-178 -1135q-12 -109 -2 -140.5t47 -54.5q78 -43 92 -43l-37 -231h-221q-160 0 -242 92t-49 295zM127 -582l18 115q37 -2 48.5 8t15.5 29l2 10h-21q-47 0 -38 47l32 209q8 49 54 49h204q43 0 37 -49l-45 -276q-10 -63 -46 -101.5t-79 -47.5t-85 -8 t-69 8z" />
<glyph unicode="&#x13d;" horiz-adv-x="1075" d="M141 319l187 1180h397l-164 -1036q-6 -39 0 -62.5t27.5 -32t37 -10.5t46.5 -2h422l-58 -356h-606q-152 0 -234 77.5t-55 241.5zM799 1169l20 275l21 137h233l-20 -137l-64 -275h-190z" />
<glyph unicode="&#x13e;" horiz-adv-x="862" d="M127 387l192 1217h398l-180 -1135q-12 -109 -2 -140.5t47 -54.5q80 -43 94 -43l-37 -231h-242q-329 0 -270 387zM788 1190l21 274l22 138h234l-23 -138l-63 -274h-191z" />
<glyph unicode="&#x141;" horiz-adv-x="1079" d="M37 600l26 166l162 63l105 670h397l-78 -500l197 78l-27 -166l-196 -77l-60 -371q-6 -39 0 -62.5t27.5 -32t37 -10.5t46.5 -2h422l-56 -356h-606q-152 0 -234.5 78t-56.5 241l56 345z" />
<glyph unicode="&#x142;" horiz-adv-x="675" d="M39 686l27 166l153 61l111 691h397l-82 -523l203 82l-27 -166l-203 -82l-71 -446q-12 -109 -2 -140.5t47 -54.5q80 -43 94 -43l-37 -231h-221q-160 0 -242 92t-49 295l58 361z" />
<glyph unicode="&#x143;" horiz-adv-x="1386" d="M92 0l238 1499h401l307 -776l121 776h397l-237 -1499h-397l-312 756l-118 -756h-400zM852 1632l205 293h297l-279 -293h-223z" />
<glyph unicode="&#x144;" d="M70 0l172 1087h331l50 -106q51 41 82.5 62.5t95 42t141.5 20.5q133 0 197.5 -55.5t66.5 -146.5t-14 -208l-111 -696h-397l111 705q10 61 -2.5 83.5t-47.5 22.5q-117 0 -161 -76l-117 -735h-397zM659 1229l205 293h297l-278 -293h-224z" />
<glyph unicode="&#x145;" horiz-adv-x="1386" d="M92 0l238 1499h401l307 -776l121 776h397l-237 -1499h-397l-312 756l-118 -756h-400zM494 -582l18 115q37 -2 48 8t15 29l3 10h-21q-47 0 -39 47l33 209q10 49 53 49h205q43 0 37 -49l-45 -276q-10 -63 -46 -101.5t-79 -47.5t-85 -8t-70 8z" />
<glyph unicode="&#x146;" d="M70 0l172 1087h331l50 -106q51 41 82.5 62.5t95 42t141.5 20.5q133 0 197.5 -55.5t66.5 -146.5t-14 -208l-111 -696h-397l111 705q10 61 -2.5 83.5t-47.5 22.5q-117 0 -161 -76l-117 -735h-397zM350 -582l19 115q37 -2 48 8t15 29l2 10h-20q-47 0 -39 47l33 209 q10 49 53 49h205q43 0 36 -49l-45 -276q-10 -63 -46 -101.5t-79 -47.5t-84.5 -8t-69.5 8z" />
<glyph unicode="&#x147;" horiz-adv-x="1386" d="M92 0l238 1499h401l307 -776l121 776h397l-237 -1499h-397l-312 756l-118 -756h-400zM680 1919h227l72 -104l111 104h249l-249 -287h-259z" />
<glyph unicode="&#x148;" d="M70 0l172 1087h331l50 -106q51 41 82.5 62.5t95 42t141.5 20.5q133 0 197.5 -55.5t66.5 -146.5t-14 -208l-111 -696h-397l111 705q10 61 -2.5 83.5t-47.5 22.5q-117 0 -161 -76l-117 -735h-397zM485 1516h228l71 -105l111 105h250l-250 -287h-258z" />
<glyph unicode="&#x14a;" horiz-adv-x="1386" d="M92 0l238 1499h401l307 -766l121 766h397l-237 -1499l-21 -131q-74 -459 -645 -395l45 280q51 0 76 3t56.5 14.5t48 37t22.5 68.5l21 123l-312 745l-118 -745h-400z" />
<glyph unicode="&#x14b;" horiz-adv-x="1148" d="M70 0l172 1087h331l50 -106q23 12 67.5 43t69 44t74 25.5t108.5 12.5q133 0 197.5 -55.5t66.5 -146.5t-14 -208l-111 -696l-18 -102q-20 -127 -87 -222.5t-151 -140.5t-157.5 -65.5t-130.5 -18.5l-48 221q92 25 123 60t54 157l18 111l111 705q10 61 -2.5 83.5t-47.5 22.5 q-117 0 -161 -76l-117 -735h-397z" />
<glyph unicode="&#x14c;" horiz-adv-x="1363" d="M167 532q3 116 26 259q23 147 59.5 260.5t74.5 189.5t97 128t107.5 79t126 41t131 17t145.5 3q82 0 145.5 -8t127 -31.5t108.5 -62.5t80 -101.5t50 -147.5t13 -203.5t-24 -266.5q-23 -139 -57 -246.5t-70.5 -181.5t-92 -124t-105.5 -78.5t-126 -43t-136.5 -18.5 t-152.5 -4q-84 0 -149.5 8t-129 30.5t-107.5 60.5t-78.5 99.5t-50 143.5t-12.5 198zM576.5 425.5q27.5 -77.5 173.5 -77.5q133 0 190 78t96 313q33 170 25 262.5t-47 122t-135.5 29.5t-144.5 -27.5t-81.5 -114t-62.5 -272.5q-41 -236 -13.5 -313.5zM655 1632l31 191h598 l-31 -191h-598z" />
<glyph unicode="&#x14d;" horiz-adv-x="1132" d="M139 580q27 168 69 270t117.5 158.5t169 76t244.5 19.5q281 0 376 -148.5t44 -478.5q-25 -154 -63.5 -247t-112.5 -147t-170 -73.5t-250 -19.5q-279 0 -375 144.5t-49 445.5zM461 1227l31 190h598l-31 -190h-598zM521 325.5q11 -40.5 89 -40.5q82 0 102.5 34.5 t49.5 208.5q33 176 22.5 228.5t-92.5 52.5q-80 0 -101.5 -38t-46.5 -195q-5 -32 -7 -48q-27 -162 -16 -202.5z" />
<glyph unicode="&#x150;" horiz-adv-x="1363" d="M167 532q3 116 26 259q23 147 59.5 260.5t74.5 189.5t97 128t107.5 79t126 41t131 17t145.5 3q82 0 145.5 -8t127 -31.5t108.5 -62.5t80 -101.5t50 -147.5t13 -203.5t-24 -266.5q-23 -139 -57 -246.5t-70.5 -181.5t-92 -124t-105.5 -78.5t-126 -43t-136.5 -18.5 t-152.5 -4q-84 0 -149.5 8t-129 30.5t-107.5 60.5t-78.5 99.5t-50 143.5t-12.5 198zM576.5 425.5q27.5 -77.5 173.5 -77.5q133 0 190 78t96 313q33 170 25 262.5t-47 122t-135.5 29.5t-144.5 -27.5t-81.5 -114t-62.5 -272.5q-41 -236 -13.5 -313.5zM666 1632l204 293h297 l-278 -293h-223zM1020 1632l205 293h297l-279 -293h-223z" />
<glyph unicode="&#x151;" horiz-adv-x="1132" d="M139 580q27 168 69 270t117.5 158.5t169 76t244.5 19.5q281 0 376 -148.5t44 -478.5q-25 -154 -63.5 -247t-112.5 -147t-170 -73.5t-250 -19.5q-279 0 -375 144.5t-49 445.5zM471 1227l205 293h297l-279 -293h-223zM521 325.5q11 -40.5 89 -40.5q82 0 102.5 34.5 t49.5 208.5q33 176 22.5 228.5t-92.5 52.5q-80 0 -101.5 -38t-46.5 -195q-5 -32 -7 -48q-27 -162 -16 -202.5zM825 1227l205 293h297l-278 -293h-224z" />
<glyph unicode="&#x152;" horiz-adv-x="2062" d="M124 532q3 116 26 259q23 147 59.5 260.5t74.5 189.5t97 128t107.5 79t126 41t131 17t145.5 3q221 0 338 -71q106 74 287 61q389 0 624 -33l-53 -333h-506q-39 0 -63.5 -9.5t-37 -29t-16.5 -35t-8 -41.5l-12 -82l504 -23l-52 -329l-510 -19l-16 -98q-6 -39 0 -62.5 t26.5 -31.5t36 -10.5t46.5 -2.5h485l-51 -331q-96 -12 -250 -21.5t-259 -11.5l-106 -2q-143 -8 -243 59q-127 -61 -404 -61q-84 0 -149.5 8t-129 30.5t-107.5 60.5t-78.5 99.5t-50 143.5t-12.5 198zM533.5 425.5q27.5 -77.5 173.5 -77.5q133 0 190 78t96 313 q33 170 25 262.5t-47 122t-135.5 29.5t-144.5 -27.5t-81.5 -114t-62.5 -272.5q-41 -236 -13.5 -313.5z" />
<glyph unicode="&#x153;" horiz-adv-x="1697" d="M129 580q27 168 69 270t117.5 158.5t169 76t244.5 19.5q175 0 277 -55q111 55 340 59q90 0 164.5 -12.5t144 -45t108.5 -98t37 -157.5q-2 -127 -45 -217.5t-108.5 -132.5t-139 -63.5t-147.5 -17t-123 11.5t-74 17q-10 -68 25 -88t147 -20q201 0 391 39l-49 -279 q-276 -90 -612 -59q-95 9 -160 55q-113 -51 -352 -51q-279 0 -375 144.5t-49 445.5zM510.5 325.5q11.5 -40.5 89.5 -40.5q82 0 102.5 34.5t49.5 208.5q33 176 22.5 228.5t-92.5 52.5q-80 0 -101.5 -38t-46.5 -195q-6 -32 -8 -48q-27 -162 -15.5 -202.5zM1192 647 q6 -2 18.5 -5t44 -5t56 3t49 25.5t31.5 57.5q8 47 -11.5 69.5t-64.5 20.5q-59 -2 -85 -44t-38 -122z" />
<glyph unicode="&#x154;" horiz-adv-x="1226" d="M66 0l237 1499h629q211 0 318.5 -132t64.5 -400q-16 -102 -45 -177t-57.5 -114t-68.5 -64.5t-63.5 -33t-58.5 -11.5l209 -567h-453l-153 551l-74 8l-88 -559h-397zM600 858h178q74 0 98.5 35t38.5 125q12 74 -6 108.5t-82 34.5h-178zM721 1622l205 293h297l-279 -293 h-223z" />
<glyph unicode="&#x155;" horiz-adv-x="839" d="M70 0l172 1087h352l22 -137q39 59 111 103.5t150 44.5q63 0 94 -11l-60 -380h-161q-41 0 -63.5 -2.5t-53.5 -12.5t-48.5 -37.5t-25.5 -70.5l-92 -584h-397zM516 1227l205 293h297l-279 -293h-223z" />
<glyph unicode="&#x156;" horiz-adv-x="1226" d="M90 0l238 1499h628q211 0 318.5 -132t64.5 -400q-16 -102 -44.5 -177t-57.5 -114t-69 -64.5t-63.5 -33t-57.5 -11.5l208 -567h-452l-154 551l-74 8l-88 -559h-397zM420 -582l18 115q37 -2 48.5 8t15.5 29l2 10h-21q-47 0 -39 47l33 209q10 49 53 49h205q43 0 37 -49 l-45 -276q-10 -63 -46 -101.5t-79 -47.5t-85 -8t-70 8zM625 858h178q74 0 98.5 35t38.5 125q12 74 -6.5 108.5t-81.5 34.5h-178z" />
<glyph unicode="&#x157;" horiz-adv-x="839" d="M74 -582l18 115q37 -2 48.5 8t15.5 29l2 10h-21q-47 0 -39 47l33 209q8 49 53 49h205q43 0 37 -49l-45 -276q-10 -63 -46 -101.5t-79 -47.5t-85 -8t-70 8zM100 0l172 1087h353l22 -137q39 59 110.5 103.5t149.5 44.5q63 0 94 -11l-59 -380h-162q-41 0 -63.5 -2.5 t-53 -12.5t-48 -37.5t-25.5 -70.5l-92 -584h-398z" />
<glyph unicode="&#x158;" horiz-adv-x="1226" d="M90 0l238 1499h628q211 0 318.5 -132t64.5 -400q-16 -102 -44.5 -177t-57.5 -114t-69 -64.5t-63.5 -33t-57.5 -11.5l208 -567h-452l-154 551l-74 8l-88 -559h-397zM588 1919h227l72 -104l110 104h250l-250 -287h-258zM625 858h178q74 0 98.5 35t38.5 125 q12 74 -6.5 108.5t-81.5 34.5h-178z" />
<glyph unicode="&#x159;" horiz-adv-x="839" d="M70 0l172 1087h352l22 -137q39 59 111 103.5t150 44.5q63 0 94 -11l-60 -380h-161q-41 0 -63.5 -2.5t-53.5 -12.5t-48.5 -37.5t-25.5 -70.5l-92 -584h-397zM344 1513h227l72 -104l111 104h250l-250 -286h-258z" />
<glyph unicode="&#x15a;" horiz-adv-x="1200" d="M131 53l49 309q219 -23 506 -22q66 0 96.5 19.5t38.5 64.5l4 33q8 47 -11 68.5t-83 21.5h-143q-92 0 -163 25.5t-108.5 69.5t-61.5 90t-29 101.5t-5 90t4 67.5l23 172q12 86 44 149.5t74 100.5t102 58.5t117.5 29.5t135.5 10q401 10 604 -67l-49 -309q-184 20 -469 20 q-90 0 -123 -14.5t-43 -75.5l-4 -23q-8 -53 11.5 -75.5t96.5 -22.5h152q111 0 185.5 -45t102 -110.5t41 -141.5t-0.5 -137l-4 -129q-4 -111 -41 -188.5t-84 -117.5t-123 -61.5t-128 -25.5t-132 -4q-246 0 -345.5 10t-236.5 59zM727 1636l205 293h297l-279 -293h-223z" />
<glyph unicode="&#x15b;" horiz-adv-x="1044" d="M100 66l37 233h473q39 0 45 35l2 10q6 37 -34 37h-195q-145 0 -222 97t-52 255l16 94q43 270 332 271q385 0 484 -19q94 -17 120 -55l-37 -233h-457q-16 0 -24 -1.5t-16.5 -9.5t-10.5 -26l-2 -13q-2 -12 0 -19t9 -9t13.5 -3t18.5 -1h205q160 0 221 -99.5t39 -236.5 l-18 -121q-41 -262 -316 -262h-72q-131 0 -196.5 1t-155.5 7t-138.5 23.5t-68.5 44.5zM592 1227l205 293h297l-279 -293h-223z" />
<glyph unicode="&#x15c;" horiz-adv-x="1200" d="M131 53l49 309q219 -23 506 -22q66 0 96.5 19.5t38.5 64.5l4 33q8 47 -11 68.5t-83 21.5h-143q-92 0 -163 25.5t-108.5 69.5t-61.5 90t-29 101.5t-5 90t4 67.5l23 172q12 86 44 149.5t74 100.5t102 58.5t117.5 29.5t135.5 10q401 10 604 -67l-49 -309q-184 20 -469 20 q-90 0 -123 -14.5t-43 -75.5l-4 -23q-8 -53 11.5 -75.5t96.5 -22.5h152q111 0 185.5 -45t102 -110.5t41 -141.5t-0.5 -137l-4 -129q-4 -111 -41 -188.5t-84 -117.5t-123 -61.5t-128 -25.5t-132 -4q-246 0 -345.5 10t-236.5 59zM510 1636l250 287h268l141 -287h-227l-63 105 l-119 -105h-250z" />
<glyph unicode="&#x15d;" horiz-adv-x="1044" d="M100 66l37 233h473q39 0 45 35l2 10q6 37 -34 37h-195q-145 0 -222 97t-52 255l16 94q43 270 332 271q385 0 484 -19q94 -17 120 -55l-37 -233h-457q-16 0 -24 -1.5t-16.5 -9.5t-10.5 -26l-2 -13q-2 -12 0 -19t9 -9t13.5 -3t18.5 -1h205q160 0 221 -99.5t39 -236.5 l-18 -121q-41 -262 -316 -262h-72q-131 0 -196.5 1t-155.5 7t-138.5 23.5t-68.5 44.5zM373 1227l250 286h268l141 -286h-227l-64 104l-118 -104h-250z" />
<glyph unicode="&#x15e;" horiz-adv-x="1200" d="M131 53l49 309q219 -23 506 -22q66 0 96.5 19.5t38.5 64.5l4 33q8 47 -11 68.5t-83 21.5h-143q-92 0 -163 25.5t-108.5 69.5t-61.5 90t-29 101.5t-5 90t4 67.5l23 172q12 86 44 149.5t74 100.5t102 58.5t117.5 29.5t135.5 10q401 10 604 -67l-49 -309q-184 20 -469 20 q-90 0 -123 -14.5t-43 -75.5l-4 -23q-8 -53 11.5 -75.5t96.5 -22.5h152q111 0 185.5 -45t102 -110.5t41 -141.5t-0.5 -137l-4 -129q-4 -111 -41 -188.5t-84 -117.5t-123 -61.5t-128 -25.5t-132 -4q-246 0 -345.5 10t-236.5 59zM385 -391l27 162l80 30q45 18 54 32.5t19 74.5 h240q-25 -160 -90.5 -229.5t-204.5 -69.5h-125z" />
<glyph unicode="&#x15f;" horiz-adv-x="1044" d="M100 66l37 233h473q39 0 45 35l2 10q6 37 -34 37h-195q-145 0 -222 97t-52 255l16 94q43 270 332 271q385 0 484 -19q94 -17 120 -55l-37 -233h-457q-16 0 -24 -1.5t-16.5 -9.5t-10.5 -26l-2 -13q-2 -12 0 -19t9 -9t13.5 -3t18.5 -1h205q160 0 221 -99.5t39 -236.5 l-18 -121q-41 -262 -316 -262h-72q-131 0 -196.5 1t-155.5 7t-138.5 23.5t-68.5 44.5zM295 -379l27 162l79 31q45 18 54.5 32.5t19.5 73.5h240q-25 -160 -90.5 -229.5t-204.5 -69.5h-125z" />
<glyph unicode="&#x160;" horiz-adv-x="1200" d="M131 53l49 309q219 -23 506 -22q66 0 96.5 19.5t38.5 64.5l4 33q8 47 -11 68.5t-83 21.5h-143q-92 0 -163 25.5t-108.5 69.5t-61.5 90t-29 101.5t-5 90t4 67.5l23 172q12 86 44 149.5t74 100.5t102 58.5t117.5 29.5t135.5 10q401 10 604 -67l-49 -309q-184 20 -469 20 q-90 0 -123 -14.5t-43 -75.5l-4 -23q-8 -53 11.5 -75.5t96.5 -22.5h152q111 0 185.5 -45t102 -110.5t41 -141.5t-0.5 -137l-4 -129q-4 -111 -41 -188.5t-84 -117.5t-123 -61.5t-128 -25.5t-132 -4q-246 0 -345.5 10t-236.5 59zM555 1923h227l72 -104l111 104h249l-249 -287 h-258z" />
<glyph unicode="&#x161;" horiz-adv-x="1044" d="M100 66l37 233h473q39 0 45 35l2 10q6 37 -34 37h-195q-145 0 -222 97t-52 255l16 94q43 270 332 271q385 0 484 -19q94 -17 120 -55l-37 -233h-457q-16 0 -24 -1.5t-16.5 -9.5t-10.5 -26l-2 -13q-2 -12 0 -19t9 -9t13.5 -3t18.5 -1h205q160 0 221 -99.5t39 -236.5 l-18 -121q-41 -262 -316 -262h-72q-131 0 -196.5 1t-155.5 7t-138.5 23.5t-68.5 44.5zM414 1513h227l72 -104l110 104h250l-250 -286h-258z" />
<glyph unicode="&#x162;" horiz-adv-x="1222" d="M174 1143l57 356h1164l-58 -356h-389l-180 -1143h-397l180 1143h-377zM258 -371l27 162l80 31q45 18 54 32.5t19 73.5h240q-25 -160 -90.5 -229.5t-204.5 -69.5h-125z" />
<glyph unicode="&#x163;" horiz-adv-x="768" d="M82 815l31 197l166 78l106 303h340l-49 -303h182l-43 -275h-182l-55 -344q-12 -113 -2 -145.5t45 -53.5q80 -43 94 -43l-37 -231h-246q-137 0 -216 95t-48 296l68 426h-154zM147 -373l27 162l80 31q45 18 54 32.5t20 73.5h239q-25 -160 -90 -229.5t-205 -69.5h-125z" />
<glyph unicode="&#x164;" horiz-adv-x="1222" d="M221 1143l58 356h1163l-58 -356h-389l-180 -1143h-397l180 1143h-377zM596 1919h227l72 -104l111 104h249l-249 -287h-258z" />
<glyph unicode="&#x165;" horiz-adv-x="788" d="M152 815l30 197l166 78l107 303h340l-50 -303h183l-43 -275h-183l-55 -344q-12 -113 -2 -145.5t45 -53.5q80 -43 94 -43l-36 -231h-246q-137 0 -216 95t-48 296l67 426h-153zM885 1229l20 274l23 137h233l-22 -137l-64 -274h-190z" />
<glyph unicode="&#x166;" horiz-adv-x="1263" d="M221 1143l58 356h1163l-58 -356h-389l-43 -275h164l-24 -151h-164l-113 -717h-397l112 717h-163l24 151h164l43 275h-377z" />
<glyph unicode="&#x167;" horiz-adv-x="768" d="M109 508l24 151h127l25 156h-154l31 197l166 78l104 303h340l-47 -303h182l-43 -275h-182l-25 -156h131l-24 -151h-131l-6 -37q-12 -113 -2 -145.5t45 -53.5q80 -43 94 -43l-37 -231h-246q-137 0 -216 95t-48 296l19 119h-127z" />
<glyph unicode="&#x168;" horiz-adv-x="1335" d="M174.5 489.5q2.5 102.5 22.5 227.5l127 782h397l-133 -844q-14 -96 -18.5 -164.5t35.5 -106.5t132 -38q66 0 109 19.5t67.5 68.5t36 93t23.5 128l133 844h399l-123 -905q-20 -127 -54 -226.5t-75 -163t-90 -108.5t-102 -64.5t-108.5 -31.5t-110 -10t-107.5 -1 q-37 1 -55 1q-61 0 -106.5 3t-101.5 14t-96 33.5t-82 56.5t-66.5 89.5t-40 128t-13 175zM600 1769q131 152 277 152q45 0 104 -36t100 -36q106 -6 205 82l29 -151q-121 -147 -254 -148q-45 0 -116 36t-109 36q-98 0 -203 -72z" />
<glyph unicode="&#x169;" horiz-adv-x="1134" d="M104.5 183q-1.5 91 14.5 208l110 696h398l-113 -704q-10 -61 2 -84t49 -23q117 0 162 76l117 735h397l-174 -1087h-332l-47 106q-72 -68 -138.5 -96t-180.5 -28q-133 0 -198 55t-66.5 146zM422 1364q131 152 276 152q47 0 106.5 -36t98.5 -36q106 -6 205 82l29 -152 q-121 -147 -254 -147q-45 0 -116 35.5t-110 35.5q-98 0 -202 -71z" />
<glyph unicode="&#x16a;" horiz-adv-x="1335" d="M174.5 489.5q2.5 102.5 22.5 227.5l127 782h397l-133 -844q-14 -96 -18.5 -164.5t35.5 -106.5t132 -38q66 0 109 19.5t67.5 68.5t36 93t23.5 128l133 844h399l-123 -905q-20 -127 -54 -226.5t-75 -163t-90 -108.5t-102 -64.5t-108.5 -31.5t-110 -10t-107.5 -1 q-37 1 -55 1q-61 0 -106.5 3t-101.5 14t-96 33.5t-82 56.5t-66.5 89.5t-40 128t-13 175zM637 1632l31 191h598l-31 -191h-598z" />
<glyph unicode="&#x16b;" horiz-adv-x="1134" d="M104.5 183q-1.5 91 14.5 208l110 696h398l-113 -704q-10 -61 2 -84t49 -23q117 0 162 76l117 735h397l-174 -1087h-332l-47 106q-72 -68 -138.5 -96t-180.5 -28q-133 0 -198 55t-66.5 146zM459 1227l30 190h598l-30 -190h-598z" />
<glyph unicode="&#x16c;" horiz-adv-x="1335" d="M174.5 489.5q2.5 102.5 22.5 227.5l127 782h397l-133 -844q-14 -96 -18.5 -164.5t35.5 -106.5t132 -38q66 0 109 19.5t67.5 68.5t36 93t23.5 128l133 844h399l-123 -905q-20 -127 -54 -226.5t-75 -163t-90 -108.5t-102 -64.5t-108.5 -31.5t-110 -10t-107.5 -1 q-37 1 -55 1q-61 0 -106.5 3t-101.5 14t-96 33.5t-82 56.5t-66.5 89.5t-40 128t-13 175zM737 1862h137q-10 -96 87 -97q104 0 110 97h137q-10 -106 -75.5 -168t-174.5 -62q-106 0 -167.5 63t-53.5 167z" />
<glyph unicode="&#x16d;" horiz-adv-x="1134" d="M104.5 183q-1.5 91 14.5 208l110 696h398l-113 -704q-10 -61 2 -84t49 -23q117 0 162 76l117 735h397l-174 -1087h-332l-47 106q-72 -68 -138.5 -96t-180.5 -28q-133 0 -198 55t-66.5 146zM559 1456h137q-10 -96 86 -96q104 0 111 96h137q-10 -106 -75.5 -167.5 t-174.5 -61.5q-106 0 -167.5 62.5t-53.5 166.5z" />
<glyph unicode="&#x16e;" horiz-adv-x="1335" d="M174.5 489.5q2.5 102.5 22.5 227.5l127 782h397l-133 -844q-14 -96 -18.5 -164.5t35.5 -106.5t132 -38q66 0 109 19.5t67.5 68.5t36 93t23.5 128l133 844h399l-123 -905q-20 -127 -54 -226.5t-75 -163t-90 -108.5t-102 -64.5t-108.5 -31.5t-110 -10t-107.5 -1 q-37 1 -55 1q-61 0 -106.5 3t-101.5 14t-96 33.5t-82 56.5t-66.5 89.5t-40 128t-13 175zM760 1837q8 88 72.5 146.5t150.5 58.5t143.5 -59.5t49.5 -145.5q-8 -88 -71 -146.5t-149 -58.5q-88 0 -146 59.5t-50 145.5zM899 1837q-2 -29 16.5 -48.5t47 -19.5t49 19.5t24.5 48.5 t-14 49.5t-47 20.5t-50.5 -20.5t-25.5 -49.5z" />
<glyph unicode="&#x16f;" horiz-adv-x="1134" d="M104.5 183q-1.5 91 14.5 208l110 696h398l-113 -704q-10 -61 2 -84t49 -23q117 0 162 76l117 735h397l-174 -1087h-332l-47 106q-72 -68 -138.5 -96t-180.5 -28q-133 0 -198 55t-66.5 146zM580 1432q8 88 72.5 146t150.5 58t143.5 -59t48.5 -145q-8 -88 -70.5 -146.5 t-148.5 -58.5q-88 0 -146 59.5t-50 145.5zM719 1432q-2 -29 16.5 -48.5t47 -19.5t49 19.5t24.5 48t-14.5 49t-47 20.5t-50 -20t-25.5 -49z" />
<glyph unicode="&#x170;" horiz-adv-x="1335" d="M174.5 489.5q2.5 102.5 22.5 227.5l127 782h397l-133 -844q-14 -96 -18.5 -164.5t35.5 -106.5t132 -38q66 0 109 19.5t67.5 68.5t36 93t23.5 128l133 844h399l-123 -905q-20 -127 -54 -226.5t-75 -163t-90 -108.5t-102 -64.5t-108.5 -31.5t-110 -10t-107.5 -1 q-37 1 -55 1q-61 0 -106.5 3t-101.5 14t-96 33.5t-82 56.5t-66.5 89.5t-40 128t-13 175zM647 1632l205 293h297l-279 -293h-223zM1001 1632l205 293h297l-278 -293h-224z" />
<glyph unicode="&#x171;" horiz-adv-x="1134" d="M104.5 183q-1.5 91 14.5 208l110 696h398l-113 -704q-10 -61 2 -84t49 -23q117 0 162 76l117 735h397l-174 -1087h-332l-47 106q-72 -68 -138.5 -96t-180.5 -28q-133 0 -198 55t-66.5 146zM469 1227l205 293h297l-279 -293h-223zM823 1227l205 293h297l-278 -293h-224z " />
<glyph unicode="&#x172;" horiz-adv-x="1335" d="M175.5 480.5q1.5 105.5 21.5 236.5l127 782h397l-133 -844q-14 -96 -18.5 -164.5t35.5 -106.5t132 -38q66 0 109 19.5t67.5 68.5t36 93t23.5 128l133 844h399l-123 -905q-20 -125 -53 -222.5t-69.5 -161t-90 -107.5t-96.5 -66.5t-107.5 -33.5t-105.5 -13t-106 0 q-68 -47 -77 -97.5t21.5 -77t69.5 -20.5l-29 -184q-43 -12 -87 -9t-77.5 25.5t-59.5 53t-34 71.5t-1 81t41 83t91 76q-61 2 -110 9t-102.5 28.5t-91.5 54.5t-70.5 88t-48 129t-14 179.5z" />
<glyph unicode="&#x173;" horiz-adv-x="1134" d="M104.5 183q-1.5 91 14.5 208l110 696h398l-113 -704q-10 -61 2 -84t49 -23q117 0 162 76l117 735h397l-174 -1087h-332l-47 106q-72 -68 -138.5 -96t-180.5 -28q-133 0 -198 55t-66.5 146zM672.5 -188.5q13.5 110.5 154.5 184.5h142q-123 -77 -95 -155q18 -49 71 -53 q9 -1 18 1l-29 -184q-104 -35 -189.5 30.5t-72 176z" />
<glyph unicode="&#x174;" horiz-adv-x="2082" d="M266 1499h418l84 -991l350 991h418l-131 -332l90 -659l360 991h418l-604 -1499h-463l-71 494l-189 -494h-493zM874 1632l250 287h269l141 -287h-227l-64 105l-119 -105h-250z" />
<glyph unicode="&#x175;" horiz-adv-x="1746" d="M154 1087h421l41 -659l160 381q66 133 76 283h381q20 -131 -41 -301l-12 -33l57 -330l160 381q66 133 76 283h380q31 -182 -96 -426l-336 -666h-454l-47 291l-119 -291h-479zM702 1221l250 286h269l141 -286h-227l-64 104l-119 -104h-250z" />
<glyph unicode="&#x176;" horiz-adv-x="1390" d="M266 1499h432l99 -663l331 663h449l-645 -1089l-66 -410h-397l66 410zM612 1632l250 287h268l142 -287h-228l-63 105l-119 -105h-250z" />
<glyph unicode="&#x177;" horiz-adv-x="1177" d="M156 1087h411l17 -688q2 -76 75 -80l177 488q41 113 53 283h381q31 -178 -74 -426l-266 -664q-240 -561 -727 -619q-16 -1 -25 -4v279q141 66 222 144.5t141 199.5q-315 0 -336 319zM395 1221l250 286h268l142 -286h-228l-63 104l-119 -104h-250z" />
<glyph unicode="&#x178;" horiz-adv-x="1390" d="M266 1499h432l99 -663l331 663h449l-645 -1089l-66 -410h-397l66 410zM569.5 1767.5q8.5 55.5 54.5 94.5t101 39t88 -39t25 -95q-10 -55 -55.5 -95t-100.5 -40t-88 40t-24.5 95.5zM1092 1767q8 55 54 94.5t101.5 39.5t88 -39t24.5 -95q-10 -55 -55 -95t-100.5 -40t-89 40 t-23.5 95z" />
<glyph unicode="&#x179;" horiz-adv-x="1130" d="M41 0l57 356l699 787h-576l58 356h1050l-57 -356l-660 -787h537l-57 -356h-1051zM713 1632l205 293h296l-278 -293h-223z" />
<glyph unicode="&#x17a;" horiz-adv-x="999" d="M66 2l49 311l477 459h-434l49 315h934l-49 -315l-445 -455h371l-49 -315h-903zM584 1227l204 293h297l-278 -293h-223z" />
<glyph unicode="&#x17b;" horiz-adv-x="1130" d="M41 0l57 356l699 787h-576l58 356h1050l-57 -356l-660 -787h537l-57 -356h-1051zM692 1679l31 193q6 51 57 51h185q47 0 39 -51l-31 -193q-6 -47 -53 -47h-185q-49 0 -43 47z" />
<glyph unicode="&#x17c;" horiz-adv-x="999" d="M66 2l49 311l477 459h-434l49 315h934l-49 -315l-445 -455h371l-49 -315h-903zM563 1274l31 192q6 51 57 52h185q47 0 38 -52l-30 -192q-6 -47 -53 -47h-185q-49 0 -43 47z" />
<glyph unicode="&#x17d;" horiz-adv-x="1130" d="M41 0l57 356l699 787h-576l58 356h1050l-57 -356l-660 -787h537l-57 -356h-1051zM541 1919h227l72 -104l110 104h250l-250 -287h-258z" />
<glyph unicode="&#x17e;" horiz-adv-x="999" d="M66 2l49 311l477 459h-434l49 315h934l-49 -315l-445 -455h371l-49 -315h-903zM412 1513h227l72 -104l110 104h250l-250 -286h-258z" />
<glyph unicode="&#x192;" horiz-adv-x="1218" d="M-35 -367l78 244h82q51 0 91 24.5t69.5 75t47 93.5t38.5 110l174 551h-152l86 275h152l10 30q80 254 204 421t292 181q47 0 74.5 3.5t62.5 -3t52 -8.5t43 -11t34 -12t25 -12l18 -8l-76 -244h-78q-96 0 -149 -74.5t-105 -232.5l-10 -30h195l-86 -275h-195l-174 -551 q-80 -254 -209 -417.5t-301 -180.5q-102 -10 -182 7t-111 44z" />
<glyph unicode="&#x2c6;" horiz-adv-x="624" d="M76 1087l250 287h268l141 -287h-227l-64 105l-118 -105h-250z" />
<glyph unicode="&#x2c7;" horiz-adv-x="763" d="M23 1374h227l72 -104l110 104h250l-250 -287h-258z" />
<glyph unicode="&#x2d8;" horiz-adv-x="501" d="M111 1319h137q-10 -96 86 -96q104 0 110 96h138q-10 -106 -76 -167.5t-174 -61.5q-106 0 -167.5 62.5t-53.5 166.5z" />
<glyph unicode="&#x2d9;" horiz-adv-x="315" d="M195 1098l30 192q6 51 58 51h184q47 0 39 -51l-31 -192q-6 -47 -53 -47h-184q-49 0 -43 47z" />
<glyph unicode="&#x2da;" horiz-adv-x="528" d="M250 1294q8 88 72.5 146.5t150.5 58.5t143.5 -59.5t49.5 -145.5q-8 -88 -71 -146t-149 -58q-88 0 -146 59t-50 145zM389 1294q-2 -29 16.5 -48t47 -19t49 19.5t24.5 48t-14 49t-47 20.5t-50.5 -20.5t-25.5 -49.5z" />
<glyph unicode="&#x2db;" horiz-adv-x="405" d="M263.5 -184.5q13.5 110.5 154.5 184.5h141q-123 -77 -95 -155q18 -49 71 -53q9 -1 18 1l-29 -184q-104 -35 -189 30.5t-71.5 176z" />
<glyph unicode="&#x2dc;" horiz-adv-x="827" d="M229 1225q131 152 277 151q47 0 106.5 -35.5t98.5 -35.5q106 -6 204 81l29 -151q-121 -147 -254 -148q-45 0 -115.5 36t-109.5 36q-98 0 -203 -72z" />
<glyph unicode="&#x2dd;" horiz-adv-x="968" d="M274 1087l205 293h297l-278 -293h-224zM629 1087l205 293h296l-278 -293h-223z" />
<glyph unicode="&#x338;" horiz-adv-x="1263" d="M139 434l103 692q59 373 471 373h336q106 0 177.5 -38t100.5 -99.5t38 -139t-7 -157.5l-107 -713q-53 -352 -442 -352h-336q-193 0 -278 120.5t-56 313.5zM571 377q25 -20 78 -21h86q59 0 90 21.5t43 97.5l54 338l12 78zM575 631l351 499q-18 12 -52 13h-116 q-37 0 -62.5 -13.5t-37 -38t-15.5 -36t-6 -31.5l-47 -301z" />
<glyph unicode="&#x3a9;" horiz-adv-x="1538" d="M86 0l51 324l195 20q-86 66 -120 221.5t-5 331.5q16 100 49 186t94.5 167t145.5 137.5t211 91t282 34.5q184 0 315.5 -58t194 -156.5t87 -226.5t-4.5 -267q-27 -164 -83 -259t-161 -204l179 -20l-52 -322h-549l56 344q94 80 140 186.5t71 257.5q12 49 7 114t-21.5 121 t-73 95t-142.5 39q-299 0 -358 -379q-27 -127 -11.5 -235.5t91.5 -198.5l-56 -344h-532z" />
<glyph unicode="&#x3c0;" horiz-adv-x="1329" d="M137 731l58 356h1187l-57 -356h-121l-49 -309q-12 -86 13.5 -110.5t107.5 -24.5h78l-37 -234q-104 -63 -272 -63t-246 106.5t-45 304.5l53 330h-137l-117 -731h-397l116 731h-135z" />
<glyph unicode="&#x1e02;" horiz-adv-x="1230" d="M92 0l238 1499h631q229 0 323 -124t62 -326q-16 -102 -89 -182.5t-180 -88.5q111 -18 168.5 -123.5t36.5 -253.5q-14 -96 -36.5 -164.5t-61.5 -112.5t-77 -69.5t-105.5 -37t-121 -14.5t-147.5 -3h-641zM543 336h223q55 0 83 36t40 107q25 147 -78 148h-223zM639 942h203 q45 0 73.5 29.5t34.5 75.5q18 117 -73 116h-203zM719 1679l31 193q6 51 57 51h184q47 0 39 -51l-31 -193q-6 -47 -53 -47h-184q-49 0 -43 47z" />
<glyph unicode="&#x1e03;" horiz-adv-x="1144" d="M49 0l254 1608h397l-88 -566q127 61 279 62q141 0 213 -82t76 -225.5t-25 -339.5q-23 -145 -59.5 -239.5t-94 -143.5t-123 -67.5t-163.5 -18.5q-84 0 -137.5 26.5t-112.5 85.5l-76 -100h-340zM381 1778l31 192q6 51 57 51h184q47 0 39 -51l-30 -192q-6 -47 -54 -47h-184 q-49 0 -43 47zM504 354q18 -45 127 -45q49 0 76.5 47t52.5 203q20 113 16 170t-18.5 73.5t-46.5 16.5q-104 0 -138 -31z" />
<glyph unicode="&#x1e0a;" horiz-adv-x="1323" d="M92 0l238 1499h647q524 0 403 -817q-31 -213 -80 -348t-127.5 -208t-170 -99.5t-228.5 -26.5h-682zM543 336h213q96 0 145 93t84 316q35 180 21.5 273.5t-44 119t-96.5 25.5h-192zM721 1649l31 192q6 51 57 51h184q47 0 39 -51l-31 -192q-6 -47 -53 -47h-184 q-49 0 -43 47z" />
<glyph unicode="&#x1e0b;" horiz-adv-x="1124" d="M141 621q45 252 139.5 367.5t303.5 115.5q154 0 260 -62l90 566h397l-254 -1608h-340l-45 100q-78 -57 -139 -84.5t-145 -27.5q-178 0 -248 175t-19 458zM527.5 395q4.5 -55 19 -70.5t47.5 -15.5q104 0 139 45l70 434q-23 31 -129 31q-47 0 -75.5 -49t-55.5 -211 q-20 -109 -15.5 -164zM1018 1778l31 192q6 51 57 51h184q47 0 39 -51l-31 -192q-6 -47 -53 -47h-184q-49 0 -43 47z" />
<glyph unicode="&#x1e1e;" horiz-adv-x="1140" d="M82 0l178 1130q16 106 61.5 181t109 114t129 56.5t140.5 17.5q387 0 623 -33l-51 -333h-506q-39 0 -63.5 -9.5t-37 -29t-16.5 -35t-8 -41.5l-14 -90l506 -23l-52 -330l-514 -18l-88 -557h-397zM729 1679l31 193q6 51 57 51h184q47 0 39 -51l-30 -193q-6 -47 -54 -47h-184 q-49 0 -43 47z" />
<glyph unicode="&#x1e1f;" horiz-adv-x="831" d="M150 813l38 240l152 34l33 203q29 178 131 249t297 71q168 0 256 -49l-37 -228l-150 2q-66 2 -84 -25.5t-32 -113.5q-2 -18 -4 -29l-13 -80h201l-43 -274h-201l-129 -813h-397l129 813h-147zM647 1780l31 192q6 51 57 51h185q47 0 38 -51l-30 -192q-6 -47 -54 -47h-184 q-49 0 -43 47z" />
<glyph unicode="&#x1e40;" horiz-adv-x="1738" d="M63 0l398 1499h553l-6 -842l258 842h563l-76 -1499h-391l41 817l-258 -817h-465l-2 817l-213 -817h-402zM1032 1679l31 193q6 51 57 51h185q47 0 38 -51l-30 -193q-6 -47 -53 -47h-185q-49 0 -43 47z" />
<glyph unicode="&#x1e41;" horiz-adv-x="1755" d="M70 0l172 1087h331l50 -106q59 45 87.5 64.5t91 40t140.5 20.5q197 0 246 -125q68 39 108.5 60.5t115.5 43t149 21.5q133 0 197.5 -55.5t66.5 -146.5t-15 -208l-110 -696h-397l112 705q10 61 -2 83.5t-49 22.5q-117 0 -164 -61q0 -8 -3 -25.5t-5 -28.5l-111 -696h-397 l111 705q10 61 -2.5 83.5t-47.5 22.5q-117 0 -161 -76l-117 -735h-397zM905 1276l31 192q6 51 57 52h185q47 0 39 -52l-31 -192q-6 -47 -53 -47h-185q-49 0 -43 47z" />
<glyph unicode="&#x1e56;" horiz-adv-x="1228" d="M90 0l238 1499h626q86 0 159 -25.5t137.5 -84t89 -170t-0.5 -267.5q-16 -100 -45.5 -177t-61.5 -125t-81 -79.5t-85 -46t-94.5 -18.5t-89 -3t-86 5t-134 19.5t-89.5 21.5l-86 -549h-397zM621 844h188q104 0 131 164q25 154 -80 153h-188zM719 1679l31 193q6 51 57 51h184 q47 0 39 -51l-31 -193q-6 -47 -53 -47h-184q-49 0 -43 47z" />
<glyph unicode="&#x1e57;" d="M-16 -553l249 1579q84 33 261.5 53.5t347.5 20.5q197 0 286 -157t41 -456q-45 -291 -156.5 -399t-348.5 -108q-139 0 -187 79l-96 -612h-397zM516 305q27 -39 94 -39q76 0 105.5 57.5t58.5 239.5q25 92 13.5 177t-91.5 85h-96zM586 1290l30 193q6 51 58 51h184 q47 0 39 -51l-31 -193q-6 -47 -53 -47h-184q-49 0 -43 47z" />
<glyph unicode="&#x1e60;" horiz-adv-x="1200" d="M131 53l49 309q219 -23 506 -22q66 0 96.5 19.5t38.5 64.5l4 33q8 47 -11 68.5t-83 21.5h-143q-92 0 -163 25.5t-108.5 69.5t-61.5 90t-29 101.5t-5 90t4 67.5l23 172q12 86 44 149.5t74 100.5t102 58.5t117.5 29.5t135.5 10q401 10 604 -67l-49 -309q-184 20 -469 20 q-90 0 -123 -14.5t-43 -75.5l-4 -23q-8 -53 11.5 -75.5t96.5 -22.5h152q111 0 185.5 -45t102 -110.5t41 -141.5t-0.5 -137l-4 -129q-4 -111 -41 -188.5t-84 -117.5t-123 -61.5t-128 -25.5t-132 -4q-246 0 -345.5 10t-236.5 59zM713 1683l30 193q6 51 58 51h184q47 0 39 -51 l-31 -193q-6 -47 -53 -47h-184q-49 0 -43 47z" />
<glyph unicode="&#x1e61;" horiz-adv-x="1044" d="M100 66l37 233h473q39 0 45 35l2 10q6 37 -34 37h-195q-145 0 -222 97t-52 255l16 94q43 270 332 271q385 0 484 -19q94 -17 120 -55l-37 -233h-457q-16 0 -24 -1.5t-16.5 -9.5t-10.5 -26l-2 -13q-2 -12 0 -19t9 -9t13.5 -3t18.5 -1h205q160 0 221 -99.5t39 -236.5 l-18 -121q-41 -262 -316 -262h-72q-131 0 -196.5 1t-155.5 7t-138.5 23.5t-68.5 44.5zM528 1268l31 192q6 51 57 51h185q47 0 39 -51l-31 -192q-6 -47 -53 -47h-185q-49 0 -43 47z" />
<glyph unicode="&#x1e6a;" horiz-adv-x="1222" d="M221 1143l58 356h1163l-58 -356h-389l-180 -1143h-397l180 1143h-377zM748 1679l30 193q6 51 58 51h184q47 0 39 -51l-31 -193q-6 -47 -53 -47h-184q-49 0 -43 47z" />
<glyph unicode="&#x1e6b;" horiz-adv-x="768" d="M131 815l31 197l166 78l106 303h340l-49 -303h182l-43 -275h-182l-55 -344q-12 -113 -2 -145.5t45 -53.5q80 -43 94 -43l-37 -231h-246q-137 0 -216 95t-48 296l68 426h-154zM512 1563l31 192q6 51 57 51h184q47 0 39 -51l-30 -192q-6 -47 -54 -47h-184q-49 0 -43 47z " />
<glyph unicode="&#x1e80;" horiz-adv-x="2082" d="M266 1499h418l84 -991l350 991h418l-131 -332l90 -659l360 991h418l-604 -1499h-463l-71 494l-189 -494h-493zM995 1925h297l111 -293h-223z" />
<glyph unicode="&#x1e81;" horiz-adv-x="1746" d="M154 1087h421l41 -659l160 381q66 133 76 283h381q20 -131 -41 -301l-12 -33l57 -330l160 381q66 133 76 283h380q31 -182 -96 -426l-336 -666h-454l-47 291l-119 -291h-479zM768 1513h297l111 -292h-224z" />
<glyph unicode="&#x1e82;" horiz-adv-x="2082" d="M266 1499h418l84 -991l350 991h418l-131 -332l90 -659l360 991h418l-604 -1499h-463l-71 494l-189 -494h-493zM1180 1632l204 293h297l-278 -293h-223z" />
<glyph unicode="&#x1e83;" horiz-adv-x="1746" d="M154 1087h421l41 -659l160 381q66 133 76 283h381q20 -131 -41 -301l-12 -33l57 -330l160 381q66 133 76 283h380q31 -182 -96 -426l-336 -666h-454l-47 291l-119 -291h-479zM973 1210l205 293h297l-279 -293h-223z" />
<glyph unicode="&#x1e84;" horiz-adv-x="2082" d="M266 1499h418l84 -991l350 991h418l-131 -332l90 -659l360 991h418l-604 -1499h-463l-71 494l-189 -494h-493zM938 1767.5q8 55.5 54 94.5t101.5 39t88 -39t24.5 -95q-10 -55 -55 -95t-100.5 -40t-88 40t-24.5 95.5zM1460 1767q8 55 54.5 94.5t101.5 39.5t88 -39t25 -95 q-10 -55 -55.5 -95t-100.5 -40t-89 40t-24 95z" />
<glyph unicode="&#x1e85;" horiz-adv-x="1746" d="M154 1087h421l41 -659l160 381q66 133 76 283h381q20 -131 -41 -301l-12 -33l57 -330l160 381q66 133 76 283h380q31 -182 -96 -426l-336 -666h-454l-47 291l-119 -291h-479zM700.5 1355.5q8.5 55.5 54.5 94.5t101 39t88 -39t25 -94q-10 -55 -55.5 -95t-100.5 -40 t-88 39.5t-24.5 95zM1223 1356q8 55 54 94t101.5 39t88 -39t24.5 -94q-10 -55 -55 -95t-100.5 -40t-89 40t-23.5 95z" />
<glyph unicode="&#x1ef2;" horiz-adv-x="1390" d="M266 1499h432l99 -663l331 663h449l-645 -1089l-66 -410h-397l66 410zM647 1925h297l111 -293h-224z" />
<glyph unicode="&#x1ef3;" horiz-adv-x="1177" d="M156 1087h411l17 -688q2 -76 75 -80l177 488q41 113 53 283h381q31 -178 -74 -426l-266 -664q-240 -561 -727 -619q-16 -1 -25 -4v279q141 66 222 144.5t141 199.5q-315 0 -336 319zM455 1513h297l110 -292h-223z" />
<glyph unicode="&#x2000;" horiz-adv-x="1021" />
<glyph unicode="&#x2001;" horiz-adv-x="2042" />
<glyph unicode="&#x2002;" horiz-adv-x="1021" />
<glyph unicode="&#x2003;" horiz-adv-x="2042" />
<glyph unicode="&#x2004;" horiz-adv-x="680" />
<glyph unicode="&#x2005;" horiz-adv-x="510" />
<glyph unicode="&#x2006;" horiz-adv-x="340" />
<glyph unicode="&#x2007;" horiz-adv-x="340" />
<glyph unicode="&#x2008;" horiz-adv-x="255" />
<glyph unicode="&#x2009;" horiz-adv-x="408" />
<glyph unicode="&#x200a;" horiz-adv-x="113" />
<glyph unicode="&#x2010;" horiz-adv-x="722" d="M125 436l49 316h643l-49 -316h-643z" />
<glyph unicode="&#x2011;" horiz-adv-x="722" d="M125 436l49 316h643l-49 -316h-643z" />
<glyph unicode="&#x2012;" horiz-adv-x="722" d="M125 436l49 316h643l-49 -316h-643z" />
<glyph unicode="&#x2013;" horiz-adv-x="923" d="M121 430l51 318h969l-51 -318h-969z" />
<glyph unicode="&#x2014;" horiz-adv-x="1507" d="M129 434l51 318h1426l-52 -318h-1425z" />
<glyph unicode="&#x2018;" horiz-adv-x="509" d="M248 989l51 328q12 76 52 124t89 63.5t97.5 19.5t79.5 -2l32 -6l-24 -148q-61 0 -74 -63l-4 -31h22q51 0 43 -51l-37 -234q-10 -55 -61 -55h-227q-47 0 -39 55z" />
<glyph unicode="&#x2019;" horiz-adv-x="509" d="M250 942l22 148q61 0 74 63l6 31h-22q-51 0 -43 51l37 233q8 55 59 56h227q49 0 41 -56l-53 -327q-32 -200 -249 -207q-55 -2 -99 8z" />
<glyph unicode="&#x201a;" horiz-adv-x="509" d="M63 -242l23 148q61 0 74 63l6 31h-23q-51 0 -43 51l37 234q10 55 60 55h227q49 0 41 -55l-53 -328q-32 -200 -249 -207q-56 -2 -100 8z" />
<glyph unicode="&#x201c;" horiz-adv-x="884" d="M240 985l51 328q32 200 248 207q56 2 100 -9l-23 -147q-61 0 -73 -64l-4 -30h22q51 0 43 -51l-37 -234q-10 -55 -61 -55h-227q-47 0 -39 55zM631 985l51 328q32 200 249 207q56 2 99 -9l-22 -147q-61 0 -74 -64l-4 -30h22q51 0 43 -51l-37 -234q-8 -55 -61 -55h-227 q-47 0 -39 55z" />
<glyph unicode="&#x201d;" horiz-adv-x="884" d="M242 938l22 147q61 0 74 64l6 31h-22q-51 0 -43 51l36 233q8 55 60 56h227q49 0 41 -56l-53 -327q-32 -200 -249 -207q-55 -2 -99 8zM633 938l22 147q61 0 74 64l6 31h-22q-51 0 -43 51l37 233q10 55 59 56h227q49 0 41 -56l-53 -327q-32 -200 -249 -207q-55 -2 -99 8z " />
<glyph unicode="&#x201e;" horiz-adv-x="882" d="M55 -242l23 148q61 0 74 63l6 31h-23q-51 0 -43 51l37 234q10 55 59 55h228q49 0 41 -55l-54 -328q-32 -200 -248 -207q-56 -2 -100 8zM446 -242l23 148q61 0 74 63l6 31h-23q-51 0 -43 51l37 234q8 55 60 55h227q49 0 41 -55l-53 -328q-32 -200 -249 -207q-56 -2 -100 8 z" />
<glyph unicode="&#x2020;" horiz-adv-x="1157" d="M199 868l49 306l276 30l86 373h355l-33 -373l266 -30l-49 -306l-275 -30l-186 -985h-354l133 985z" />
<glyph unicode="&#x2021;" horiz-adv-x="1093" d="M160 254l49 305l285 39l30 240l-266 30l47 306l279 30l84 373h354l-31 -373l264 -30l-47 -306l-276 -30l-45 -242l272 -37l-49 -305l-295 -35l-67 -366h-355l49 362z" />
<glyph unicode="&#x2022;" horiz-adv-x="626" d="M197 627l47 307q10 72 80 72h294q70 0 60 -72l-47 -307q-10 -66 -84 -66h-295q-65 0 -55 66z" />
<glyph unicode="&#x2026;" horiz-adv-x="1636" d="M252 47l39 240q6 51 57 51h232q53 0 43 -51l-39 -240q-8 -47 -58 -47h-231q-49 0 -43 47zM809 47l39 240q6 51 57 51h232q53 0 43 -51l-39 -240q-8 -47 -58 -47h-231q-49 0 -43 47zM1366 47l39 240q6 51 57 51h232q53 0 43 -51l-39 -240q-8 -47 -58 -47h-231 q-49 0 -43 47z" />
<glyph unicode="&#x202f;" horiz-adv-x="408" />
<glyph unicode="&#x2030;" horiz-adv-x="2732" d="M141 1022l37 231q20 131 96 188.5t232 57.5h207q143 0 200.5 -84t36.5 -223l-37 -231q-20 -131 -96 -188.5t-231 -57.5h-207q-143 0 -200.5 84t-37.5 223zM328 0l1167 1499h254l-1153 -1499h-268zM406 1011.5q0 -18.5 15 -29.5t48 -11h104q84 0 95 82l16 108 q8 49 -7 65.5t-56 16.5h-105q-80 0 -92 -82l-16 -108q-2 -23 -2 -41.5zM1143 313l37 232q20 131 96 188.5t229 57.5h209q143 0 200.5 -84t37.5 -224l-37 -231q-20 -131 -96 -188.5t-232 -57.5h-209q-143 0 -199 84t-36 223zM1409 344q-6 -41 5 -61.5t59 -20.5h102 q84 0 94 82l17 109q8 49 -7.5 65.5t-56.5 16.5h-102q-82 0 -95 -82zM1982 313l37 232q20 131 96 188.5t232 57.5h207q143 0 200.5 -84t36.5 -224l-36 -231q-20 -131 -96 -188.5t-232 -57.5h-207q-143 0 -200.5 84t-37.5 223zM2249 344q-6 -41 5 -61.5t58 -20.5h105 q82 0 92 82l16 109q8 49 -6 65.5t-55 16.5h-105q-82 0 -94 -82z" />
<glyph unicode="&#x2039;" horiz-adv-x="569" d="M10 725l488 416l168 -195l-260 -221l192 -225l-223 -201z" />
<glyph unicode="&#x203a;" horiz-adv-x="731" d="M172 500l262 225l-188 221l229 195l354 -416l-497 -426z" />
<glyph unicode="&#x2044;" horiz-adv-x="808" d="M-104 0l999 1577h268l-999 -1577h-268z" />
<glyph unicode="&#x205f;" horiz-adv-x="510" />
<glyph unicode="&#x2070;" horiz-adv-x="878" d="M104 989l72 461q23 137 95.5 205.5t207.5 68.5h244q152 0 216.5 -74.5t45.5 -187.5l-74 -473q-43 -262 -286 -262h-244q-145 0 -221 69.5t-56 192.5zM414 1067q-6 -45 13 -58.5t52 -13.5h58q41 0 61 12.5t27 57.5l61 321q12 70 -55 70h-78q-31 0 -47.5 -9t-21.5 -21.5 t-9 -39.5z" />
<glyph unicode="&#x2074;" horiz-adv-x="964" d="M188 1024l400 700h313l-305 -559h137l29 178l59 105h244l-45 -283h82l-37 -229l-94 -43l-21 -162h-286l26 160h-454z" />
<glyph unicode="&#x2075;" horiz-adv-x="856" d="M147 758l37 237h361q57 0 72.5 10.5t19.5 45.5l2 30q4 29 -8.5 42.5t-48.5 13.5h-60q-57 0 -65 -47h-254l131 634h659l-43 -268h-383l-20 -98q70 41 186 31q72 -6 120 -38t64.5 -74t22.5 -89t-2 -86l-20 -158q-18 -223 -326 -223q-248 0 -445 37z" />
<glyph unicode="&#x2076;" horiz-adv-x="839" d="M166 1280q20 131 53 219t76 135t85 66.5t99 28.5q201 33 510 -29l-37 -227h-319q-47 0 -77 -9.5t-45 -33t-19.5 -40t-10.5 -55.5q63 33 215 33q285 0 238 -293l-23 -139q-20 -127 -98 -168t-225 -41h-164q-344 0 -258 553zM446 1137q-12 -82 5.5 -112t83.5 -30h30 q35 0 50.5 9.5t17.5 35.5l6 41q4 20 3 32.5t-12.5 18t-35.5 5.5h-148z" />
<glyph unicode="&#x2077;" horiz-adv-x="923" d="M205 1456l43 268h772l55 -120l-514 -877h-325l428 729h-459z" />
<glyph unicode="&#x2078;" horiz-adv-x="901" d="M219 997l10 72q16 115 142 131q-49 25 -70.5 65t-18.5 82t7 87l14 90q10 70 41 113.5t80 63t95 26t114 6.5h231q133 0 194.5 -67t41.5 -193l-10 -60q-6 -41 -40 -81t-102 -48q68 -12 83.5 -84t2.5 -141l-16 -105q-12 -80 -41 -129t-79 -69.5t-87 -24.5t-109 -4h-229 q-299 0 -254 270zM526 1028q-4 -27 8.5 -38t47.5 -11h73q29 0 44.5 6t19.5 15.5t6 27.5l8 43q4 23 -7 36t-48 13h-74q-39 0 -52 -12t-17 -37zM586 1401q-4 -29 8 -37t49 -8h72q29 0 44 5t19 13t6 27l7 31q6 33 -9.5 41t-48.5 8h-71q-35 0 -49.5 -8.5t-20.5 -40.5z" />
<glyph unicode="&#x2079;" horiz-adv-x="899" d="M190 739l37 230h320q47 0 77.5 9t46 34.5t19.5 44t12 61.5q-63 -33 -215 -33q-283 0 -233 314l16 114q18 131 98.5 181.5t221.5 46.5l182 -4q334 0 242 -592q-20 -135 -52 -221t-77 -129t-84 -59.5t-101 -24.5q-201 -33 -510 28zM547 1352.5q6 -13.5 43 -13.5h147 q14 86 -4 110t-86 24h-29q-35 0 -48 -10.5t-17 -41.5l-4 -20q-8 -35 -2 -48.5z" />
<glyph unicode="&#x2080;" horiz-adv-x="937" d="M176 -150l72 461q23 137 95.5 206t207.5 69h244q152 0 216 -75t46 -187l-74 -474q-43 -262 -287 -262h-243q-145 0 -221 69.5t-56 192.5zM485 -72q-6 -45 13.5 -58t52.5 -13h57q41 0 61.5 12t26.5 57l62 322q12 70 -56 69h-77q-31 0 -47.5 -9t-21.5 -21.5t-9 -38.5z" />
<glyph unicode="&#x2081;" horiz-adv-x="579" d="M41 268l31 205q137 37 202 113h295l-157 -998h-299l114 707q-25 -20 -71.5 -26.5t-80.5 -3.5z" />
<glyph unicode="&#x2082;" horiz-adv-x="913" d="M68 -412l41 258q129 70 317 207t199 197q8 51 -24 66.5t-122 15.5h-303l37 223q205 45 426 45q160 0 235.5 -99.5t53.5 -244.5q-33 -211 -305 -399h239l-43 -269h-751z" />
<glyph unicode="&#x2083;" horiz-adv-x="823" d="M-20 -379l36 225h299q86 0 112 8.5t30 41.5l2 10q4 31 -19.5 39t-99.5 12l-221 8l37 244l227 8q105 5 121 18q12 9 14 29v8q6 33 -22.5 41.5t-96.5 8.5h-317l35 223q150 53 477 45q119 -2 184.5 -80t44.5 -199l-8 -53q-25 -154 -160 -172q129 -33 97 -238l-9 -41 q-37 -229 -319 -229h-48h-50h-48q-36 0 -48.5 1t-44 3t-47 4t-41 5t-43 7.5t-38 10.5t-36.5 12z" />
<glyph unicode="&#x2084;" horiz-adv-x="903" d="M-16 -115l399 701h313l-305 -559h137l29 178l59 104h244l-45 -282h82l-37 -230l-94 -43l-21 -162h-286l26 160h-454z" />
<glyph unicode="&#x2085;" horiz-adv-x="854" d="M0 -381l37 238h360q57 0 72.5 10t19.5 45l3 31q4 29 -8.5 42t-49.5 13h-59q-57 0 -66 -47h-254l131 635h660l-43 -269h-383l-21 -98q70 41 187 31q72 -6 120 -38t64 -74t22.5 -89t-1.5 -86l-21 -158q-18 -223 -326 -223q-247 0 -444 37z" />
<glyph unicode="&#x2086;" horiz-adv-x="839" d="M18 141q20 131 53 219.5t76 135.5t85 66.5t100 27.5q201 33 510 -29l-37 -227h-320q-47 0 -76.5 -9.5t-45 -33t-19.5 -39.5t-10 -55q63 33 215 32q285 0 237 -292l-22 -140q-20 -127 -98 -168t-226 -41h-164q-344 0 -258 553zM299 -2q-12 -82 5.5 -111.5t82.5 -29.5h31 q35 0 50 9t17 36l7 41q4 20 3 32.5t-12.5 17.5t-36.5 5h-147z" />
<glyph unicode="&#x2087;" horiz-adv-x="923" d="M57 317l43 269h772l56 -121l-514 -877h-326l428 729h-459z" />
<glyph unicode="&#x2088;" horiz-adv-x="901" d="M72 -141l10 71q16 115 141 131q-49 25 -70.5 65t-18.5 82t7 87l15 90q10 70 40.5 114t80 63.5t95.5 25.5t113 6h232q133 0 194.5 -66.5t40.5 -193.5l-10 -60q-6 -41 -40 -80.5t-101 -48.5q68 -12 83 -83.5t3 -141.5l-17 -104q-12 -80 -40.5 -129t-79 -69.5t-87 -25 t-108.5 -4.5h-229q-299 1 -254 271zM379 -111q-4 -27 8 -38t47 -11h74q29 0 44 6.5t19 15.5t7 27l8 43q4 23 -7.5 36.5t-48.5 13.5h-73q-39 0 -52.5 -12.5t-17.5 -37.5zM438 262q-4 -29 8.5 -37t49.5 -8h71q29 0 44.5 5t19.5 13.5t6 26.5l6 31q6 33 -9.5 41t-47.5 8h-72 q-35 0 -49 -8t-21 -41z" />
<glyph unicode="&#x2089;" horiz-adv-x="897" d="M43 -399l37 229h319q47 0 78 9t46.5 35t19.5 44.5t12 61.5q-63 -33 -215 -33q-283 0 -234 313l17 115q18 131 98 181t221 46l183 -4q334 0 241 -592q-20 -135 -52 -221t-77 -129t-84 -59.5t-100 -24.5q-201 -32 -510 29zM399.5 214q6.5 -13 42.5 -13h148 q14 86 -4.5 109.5t-85.5 23.5h-29q-35 0 -48 -10.5t-17 -40.5l-5 -21q-8 -35 -1.5 -48z" />
<glyph unicode="&#x20ac;" horiz-adv-x="1419" d="M92 502l29 178l141 14l12 84l-135 17l27 170l141 18q82 532 604 533q115 0 279 -19.5t272 -62.5l-45 -285q-268 31 -436 31q-92 0 -144.5 -9.5t-79 -40t-34.5 -56t-18 -91.5l477 -14l-29 -176l-481 -15l-13 -84l478 -14l-29 -178q-31 0 -81 -1t-156.5 -4t-176 -5.5 t-67.5 -4.5q-8 -53 2 -90t26.5 -55t54.5 -27.5t61.5 -10.5t72.5 -1q78 0 192.5 14.5t189.5 27.5l74 13l-45 -278q-106 -55 -240 -73.5t-345 -18.5q-61 0 -115.5 7t-128.5 36.5t-121 80t-71.5 147.5t-4.5 228z" />
<glyph unicode="&#x2113;" horiz-adv-x="1071" d="M117 528q47 37 133 115l80 487q59 383 536 383q150 0 248 -103t66 -308q-16 -102 -80 -199.5t-156 -172.5t-165.5 -123t-149.5 -87v-8q-6 -57 -7 -107.5t49 -91.5t154 -57q104 -23 119 -23l-37 -231h-364q-80 0 -143.5 18.5t-115 57.5t-73 111.5t-4.5 172.5l2 17 q-23 -14 -76 -41zM688 893q125 123 170 233q23 58 -25 84q-45 23 -77 -18q-14 -18 -19 -47z" />
<glyph unicode="&#x2116;" horiz-adv-x="2340" d="M82 0l190 1206q33 205 244 287t403.5 -1t182.5 -278l-45 -841q-1 -27 19 -25q24 6 30 31l125 778q29 180 136.5 261t260.5 85h613q160 0 213 -81t20 -289q-33 -203 -97.5 -274t-244.5 -79h-53q-59 2 -96 6.5t-80 14.5t-67 26.5t-46.5 45t-30.5 69.5t-8 100.5t12 135.5 h291q-14 -88 -9 -107.5t42 -19.5h29q39 0 49 11t18 71q12 61 2 77.5t-71 16.5q-109 2 -226 2q-109 0 -151.5 -5t-76.5 -36t-44 -101l-125 -790q-12 -84 -66.5 -149.5t-129 -99.5t-161.5 -49t-171 3t-152 56t-106.5 112t-32.5 170l45 825q2 25 -23.5 18.5t-29.5 -32.5 l-183 -1151h-399z" />
<glyph unicode="&#x2122;" horiz-adv-x="1273" d="M61 1307l31 192h613l-31 -192h-189l-82 -523h-233l82 523h-191zM590 784l209 715h248l2 -346l110 346h256l-8 -715h-233l14 349l-82 -349h-211l12 344l-84 -344h-233z" />
<glyph unicode="&#x212e;" horiz-adv-x="1370" d="M70 545q0 231 172 393q172 154 444 154q252 0 426 -136q178 -137 191 -428h-981q-2 0 -6 1q-7 0 -10 -0.5t-6 -6.5t-3 -16v-273q0 -51 115.5 -120.5t273.5 -69.5q113 0 218.5 48t172.5 124h115q-119 -125 -231 -170q-119 -45 -275 -45q-283 0 -446 152q-170 157 -170 393 zM297 582q0 -18 18 -19h732q25 0 25 2q1 3 1 13v272q0 66 -129 134.5t-260 68.5q-102 0 -196.5 -39t-142.5 -82t-48 -70v-280z" />
<glyph unicode="&#x2202;" horiz-adv-x="1280" d="M137 506q35 223 178.5 334.5t358.5 111.5q88 0 157.5 -28.5t86.5 -87.5q27 166 -6 244.5t-132 78.5q-111 0 -225.5 -31.5t-185.5 -72.5v301q268 160 475 160q193 0 312.5 -111t154.5 -289t0 -405q-59 -369 -223 -545t-486 -176q-215 0 -358.5 142.5t-106.5 373.5z M532 471q-10 -63 26 -97t95 -34q80 0 127 78t60 151q-53 33 -135 33q-153 0 -173 -131z" />
<glyph unicode="&#x2206;" horiz-adv-x="1445" d="M23 0l874 1499h152l374 -1499h-1400zM600 336h455l-146 547z" />
<glyph unicode="&#x220f;" horiz-adv-x="1343" d="M158 0l180 1143h-135l57 356h1299l-58 -356h-137l-180 -1143h-398l181 1143h-232l-180 -1143h-397z" />
<glyph unicode="&#x2211;" horiz-adv-x="1146" d="M-18 -410l57 363l532 600l-344 590l58 356h1077l-57 -356h-600l354 -590l-500 -600h557l-57 -363h-1077z" />
<glyph unicode="&#x2212;" horiz-adv-x="933" d="M152 571l49 316h852l-49 -316h-852z" />
<glyph unicode="&#x221a;" horiz-adv-x="1402" d="M88 418l57 356h390l57 -235l610 1099h436l-903 -1638h-395l-145 418h-107z" />
<glyph unicode="&#x221e;" horiz-adv-x="1343" d="M82 553q-16 84 0 186q25 150 112 232t283 82q115 0 191.5 -42t134.5 -137q129 178 399 179q100 0 168 -37t91.5 -94.5t32.5 -127t-7 -137.5q-25 -150 -118 -230.5t-279 -80.5q-115 0 -199 35t-148 141q-86 -109 -168.5 -142.5t-209.5 -33.5q-123 0 -195 61.5t-88 145.5z M354 698q-6 -49 9.5 -74.5t68.5 -25.5q82 0 166 100q-20 41 -56 72t-77 31q-43 0 -66.5 -15.5t-32 -34t-12.5 -53.5zM961 696q49 -98 139 -98q100 0 114 100q8 51 -7 77t-74 26q-88 -1 -172 -105z" />
<glyph unicode="&#x222b;" horiz-adv-x="909" d="M-35 -367l39 244h82q51 0 87 24.5t57.5 76t31.5 93.5t21 109l135 856q43 272 156.5 437t285.5 165q45 0 84 -3t63.5 -7t49 -10t35 -10t27 -11.5t18.5 -9.5l-39 -244h-78q-96 0 -138 -74.5t-67 -232.5l-135 -856q-45 -295 -150.5 -446.5t-283.5 -151.5q-211 0 -281 51z " />
<glyph unicode="&#x2248;" horiz-adv-x="1007" d="M143 549q172 145 324 145q61 0 146 -38t147 -38q115 0 246 80l28 -161q-162 -154 -315 -154q-43 0 -135 39t-158 39q-47 0 -88 -12.5t-92 -34t-86 -31.5zM203 926q172 145 323 145q61 0 147.5 -38t147.5 -38q70 0 121 17.5t123 62.5l29 -162q-162 -154 -316 -153 q-43 0 -135 39t-158 39q-47 0 -88 -12.5t-92 -34t-86 -31.5z" />
<glyph unicode="&#x2260;" horiz-adv-x="1110" d="M229 332l50 315h313l98 133h-389l49 316h568l88 118h165l-88 -118h142l-49 -316h-320l-98 -133h395l-49 -315h-576l-102 -142h-166l102 142h-133z" />
<glyph unicode="&#x2264;" horiz-adv-x="1048" d="M160 129l43 274h766l-43 -274h-766zM252 709l55 348l803 225l-55 -348l-385 -68l366 -55l-55 -340z" />
<glyph unicode="&#x2265;" horiz-adv-x="841" d="M76 129l43 274h768l-43 -274h-768zM129 471l55 348l391 82l-372 41l55 340l733 -225l-55 -348z" />
<glyph unicode="&#x25ca;" horiz-adv-x="1032" d="M143 764l541 735h152l294 -735l-532 -764h-152zM492 750l92 -256l209 284l-99 234z" />
<glyph unicode="&#xe000;" horiz-adv-x="1085" d="M0 1085h1085v-1085h-1085v1085z" />
<glyph unicode="&#xfb00;" horiz-adv-x="1650" d="M150 813l38 240l207 34l29 183q20 127 117.5 223t267.5 96q182 0 278 -49l-36 -229l-127 2q-63 2 -84 -32t-35 -120l-12 -74h366l33 203q29 178 131 249t297 71q168 0 256 -49l-37 -228l-149 2q-66 2 -84.5 -25.5t-32.5 -113.5q-2 -18 -4 -29l-13 -80h201l-43 -274h-201 l-129 -813h-397l129 813h-371l-129 -813h-397l129 813h-198z" />
<glyph unicode="&#xfb03;" horiz-adv-x="2121" d="M150 813l38 240l207 34l29 183q20 127 117.5 223t267.5 96q182 0 278 -49l-36 -229l-127 2q-33 0 -53.5 -6.5t-34 -35t-17.5 -41.5t-16 -69l-12 -74h350l8 60q31 193 182.5 325t370.5 138q115 2 304 -10.5t239 -38.5l-35 -228l-395 2q-45 0 -82 -7t-79 -26.5t-71 -63.5 t-39 -112l-6 -39l684 -20l-168 -1067h-397l129 813h-291l-129 -813h-397l129 813h-350l-130 -813h-399l129 813h-198z" />
<glyph unicode="&#xfb04;" horiz-adv-x="2291" d="M150 813l38 240l207 34l29 183q20 127 117.5 223t267.5 96q182 0 278 -49l-36 -229l-127 2q-45 0 -70 -19.5t-32 -45t-19 -87.5l-12 -74h360l12 80q20 137 70.5 228.5t126.5 136.5t152.5 61.5t179.5 16.5l657 -6l-178 -1135q-12 -109 -2 -140.5t47 -54.5q78 -43 92 -43 l-37 -231h-221q-160 0 -242 92t-49 295l152 946l-189 2q-76 0 -110.5 -35.5t-50.5 -132.5l-13 -80h201l-45 -274h-201l-129 -813h-397l129 813h-358l-130 -813h-399l129 813h-198z" />
<glyph unicode="&#xfb06;" horiz-adv-x="1820" d="M100 66l37 233h473q39 0 45 35l2 10q6 37 -34 37h-195q-145 0 -219 97t-49 255l10 94q12 127 102 193.5t248 66.5h869l104 304h340l-47 -304h182l-45 -274h-182l-53 -344q-12 -113 -2 -145.5t45 -53.5q78 -43 92 -43l-37 -231h-246q-137 0 -216 95t-48 296l65 404h-729 q-16 0 -24 -1.5t-16.5 -9.5t-10.5 -26l-2 -13q-2 -12 0 -19t9 -9t13.5 -3t18.5 -1h205q160 0 218 -98.5t36 -237.5l-12 -121q-29 -262 -316 -262h-47q-527 -2 -584 76z" />
<glyph horiz-adv-x="1239" d="M139 393l80 488q33 207 134.5 310t287.5 103h336q422 0 358 -393l-84 -508q-63 -393 -401 -393h-336q-201 0 -303.5 105.5t-71.5 287.5zM551 477q-8 -53 8 -81.5t36.5 -34t51.5 -5.5h86q59 0 91 21.5t44 97.5l56 344q18 119 -78 119h-117q-104 0 -123 -119z" />
<glyph horiz-adv-x="765" d="M133 877l39 251q174 53 272 166h394l-183 -1294h-393l129 918q-87 -58 -258 -41z" />
<glyph horiz-adv-x="1243" d="M70 0l55 344q750 299 774 453q14 90 -28 114.5t-175 24.5h-456l47 297q291 61 612 61q233 0 336.5 -137t69.5 -360q-16 -100 -54.5 -176t-98.5 -126.5t-109.5 -78t-127.5 -60.5h287l-57 -356h-1075z" />
<glyph horiz-adv-x="1189" d="M61 -162l50 301h446q129 0 168 15.5t49 83.5l2 20q4 29 -2 47.5t-14 28.5t-37 16t-48.5 7t-70.5 5l-332 19l54 324l336 16q57 2 76.5 4t52 7t43 15.5t21.5 28t15 45.5l2 17q6 37 -3 59.5t-39.5 31.5t-56 11t-77.5 2h-473l47 299q197 66 682 57q170 -4 263.5 -120.5 t64.5 -298.5l-14 -80q-39 -231 -219 -258q90 -25 116.5 -124.5t5.5 -232.5l-10 -59q-53 -344 -461 -344h-76h-80q-16 0 -73 1t-78.5 2t-69 4t-73 7t-63.5 10.5t-66.5 14.5t-57.5 18z" />
<glyph horiz-adv-x="1259" d="M45 254l596 1040h426l-457 -854h199l45 275l80 159h342l-70 -434h123l-47 -305l-133 -59l-43 -277h-397l43 277h-666z" />
<glyph horiz-adv-x="1239" d="M61 -164l52 318h540q45 0 74 9t41 30.5t15 33t8 35.5l10 64q8 55 -9.5 81.5t-72.5 26.5h-90q-90 0 -105 -92h-381l197 952h948l-57 -356h-561l-41 -209q63 35 141 41t154 0q168 -14 235.5 -131t44.5 -291l-30 -233q-53 -328 -478 -328q-211 0 -330 8t-305 41z" />
<glyph horiz-adv-x="1226" d="M168 425.5q0 159.5 33 401.5q25 158 64.5 276t82.5 188.5t101.5 116.5t107.5 64.5t113 28.5q281 43 671 -43l-47 -303h-448q-55 0 -93 -14.5t-59.5 -31.5t-38 -59t-21.5 -69t-16 -86q59 29 121 36t199 7q377 0 309 -428l-30 -207q-31 -184 -137.5 -244.5t-309.5 -60.5 h-283q-98 0 -164.5 39t-110.5 134t-44 254.5zM570 396q24 -42 126 -42h45q51 0 73 19.5t30 75.5l8 40q14 66 3 89.5t-64 23.5h-220q-25 -164 -1 -206z" />
<glyph horiz-adv-x="1163" d="M166 938l57 356h985l70 -159l-680 -1340h-422l586 1143h-596z" />
<glyph horiz-adv-x="1271" d="M143 408l17 108q29 172 190 199q-66 35 -92.5 99.5t-24 116.5t14.5 132l20 133q16 102 58.5 169t111 96.5t132 38.5t155.5 9h319q182 0 265.5 -101t52.5 -296l-14 -90q-8 -59 -55.5 -121.5t-137.5 -75.5q63 -12 93 -78.5t25 -134t-9 -118.5l-25 -156q-16 -96 -49 -162.5 t-68 -100.5t-97 -51.5t-104 -20.5t-118 -3h-318q-405 0 -342 408zM551 430q-8 -53 9.5 -73.5t70.5 -20.5h106q61 0 84 22.5t29 71.5l12 82q8 47 -6 71.5t-70 24.5h-110q-59 0 -83 -24.5t-30 -71.5zM643 1012q-8 -57 9.5 -73.5t72.5 -16.5h106q63 0 83 19.5t28 70.5l8 61 q0 37 1 57.5t-16 29.5t-28.5 11.5t-36.5 2.5h-106q-53 0 -77.5 -17.5t-35.5 -83.5z" />
<glyph horiz-adv-x="1200" d="M133 -164l47 303h449q68 0 110.5 17.5t65 59.5t32 77t21.5 106q-59 -29 -121.5 -36t-199.5 -7q-106 0 -178 39t-100 101.5t-37 143.5t9 165l27 166q29 186 137.5 255.5t304.5 69.5h283q137 0 215 -81.5t103.5 -275.5t-29.5 -513q-25 -158 -65 -271.5t-81 -178 t-101 -104.5t-105.5 -54.5t-112.5 -24.5q-283 -43 -674 43zM621 715.5q10 -23.5 63 -23.5h219q25 160 0.5 204t-127.5 44h-43q-51 0 -72.5 -19.5t-29.5 -74.5l-6 -41q-14 -66 -4 -89.5z" />
<glyph horiz-adv-x="1746" d="M119 223l149 946q23 139 74 230.5t135 137.5t175 62.5t222 16.5h728q451 0 366 -569l-92 -623q-25 -172 -121 -243.5t-313 -71.5h-254l-49 102q-80 -121 -236 -117q-190 6 -271 169t-40 437q25 164 76 272.5t123.5 160t142.5 70t160 18.5q178 0 280.5 -32t181.5 -110 l-96 -676q74 0 96.5 30t40.5 155l74 499q20 137 -15.5 184.5t-148.5 47.5h-700q-70 0 -117 -18.5t-72.5 -55.5t-37 -70.5t-19.5 -87.5l-143 -905q-14 -96 21.5 -144t158.5 -48h791l-39 -240q-276 -55 -598 -55h-181q-532 0 -452 528zM875.5 574q-3.5 -35 1 -85.5t32 -76 t78.5 -23.5q180 6 193 143l59 386q-74 10 -162 10q-86 0 -126.5 -57t-63.5 -207q-8 -55 -11.5 -90z" />
<glyph horiz-adv-x="1110" d="M106 451l17 104q33 213 144.5 299t359.5 78l26 166h297l-71 -455h-189q-80 -4 -120 -34.5t-52 -108.5l-6 -31q-10 -66 30 -96.5t130 -30.5h473l-47 -297q-291 -74 -588 -61q-147 0 -247.5 75.5t-136.5 180.5t-20 211zM655 1210l37 240q8 47 60 47h231q47 0 41 -47 l-37 -240q-6 -51 -57 -51h-232q-53 0 -43 51z" />
<glyph horiz-adv-x="1060" d="M20 -197l84 430q10 68 49.5 122.5t108.5 54.5q-135 78 -92 356q16 106 60 176t112 100.5t130.5 41t145.5 8.5l195 -5q47 0 91 -11t95.5 -38.5t81 -77t47 -128t-5.5 -189.5q-20 -137 -130.5 -238.5t-311.5 -101.5h-96q-6 0 -20.5 1t-24 1t-20.5 -2t-18 -8t-9 -16 q0 -8 -2.5 -13.5t5 -10.5t10.5 -8t13 -5t15.5 -3t17.5 -3.5t18 -4.5l217 -45q289 -70 248 -336l-18 -108q-23 -150 -114 -222.5t-304 -72.5h-223q-425 0 -355 356zM421 -232.5q9 -19.5 60 -19.5h82q35 0 47.5 12.5t16.5 42.5l2 23q6 41 -3.5 52t-47.5 20l-140 22l-16 -96 q-10 -37 -1 -56.5zM560 604.5q7 -24.5 61 -24.5h22q31 0 48.5 19t22.5 39.5t11 66.5q12 84 7 98t-52 14h-23q-47 0 -61.5 -17t-28.5 -95q-14 -76 -7 -100.5z" />
<glyph horiz-adv-x="677" d="M150 -553l215 1096h301l-136 -1096h-380zM367 662l36 235q6 43 58 47h233q18 -2 30.5 -17.5t10.5 -35.5l-37 -229q-8 -55 -53 -56h-237q-49 1 -41 56z" />
<glyph horiz-adv-x="2058" d="M164 752l22 170q14 115 51 193.5t86.5 124.5t133.5 71.5t166 33t213 9.5h862l71 215h361l-35 -219h154l-41 -265l-160 -38l-88 -609q-18 -119 -65.5 -202.5t-103.5 -130t-143 -72t-163 -31.5t-185 -6h-335q-180 2 -299 92t-93 258q-217 0 -330.5 95.5t-78.5 310.5z M559 729q-10 -55 2 -76.5t57 -21.5q29 182 151 259t329 77h59q197 0 299.5 -79t71.5 -265q-12 -76 -45 -128.5t-68 -78t-101.5 -38.5t-108.5 -15.5t-125 -2.5h-23h-82q-8 -55 49 -55h326q117 0 157.5 48t57.5 153l84 538h-842q-74 0 -116 -8t-63.5 -33.5t-28.5 -47 t-15 -74.5zM1016 627h78q35 0 43 41q4 33 -31 32h-29q-20 0 -28.5 -3t-17.5 -19t-15 -51z" />
<glyph horiz-adv-x="817" d="M201 1190q18 88 56 148.5t75 90t97 45t93 17.5t96 2q260 0 359 -90l-94 -658h-236l-45 86q-27 -53 -71 -74.5t-128 -21.5q-123 0 -184 128t-18 327zM470 1025.5q7 -52.5 52 -52.5q96 0 103 61l32 236q-53 14 -86 6q-25 -4 -40 -14.5t-31.5 -40t-22.5 -80.5 q-14 -63 -7 -115.5z" />
<glyph horiz-adv-x="829" d="M164 745l170 1072h297l-58 -365q88 47 201 47q102 0 154.5 -56.5t55.5 -154.5t-15 -231q-31 -193 -101.5 -256.5t-214.5 -63.5q-61 0 -98 20.5t-80 63.5l-57 -76h-254zM504 1006q12 -27 86 -27q33 0 51 28.5t33 120.5q12 68 9 103t-12 44t-32 9q-72 0 -94 -22z" />
<glyph horiz-adv-x="706" d="M213 1149q31 195 107.5 261.5t203.5 66.5q231 0 365 -56l-29 -174q-80 8 -201 8q-76 0 -102.5 -22.5t-44.5 -126.5q-18 -100 1 -122.5t99 -22.5l215 8l-28 -170q-78 -37 -161 -49.5t-230 -10.5q-115 2 -171.5 104.5t-23.5 305.5z" />
<glyph horiz-adv-x="829" d="M215 1169q31 172 97.5 251t217.5 79q113 0 189 -47l57 365h297l-170 -1072h-254l-33 76q-106 -84 -206 -84q-129 0 -179.5 119.5t-15.5 312.5zM511 1003.5q7 -24.5 40 -24.5q70 0 94 27l41 256q-16 23 -86 22q-33 0 -50.5 -29t-33.5 -127q-12 -100 -5 -124.5z" />
<glyph horiz-adv-x="765" d="M217 1167q33 176 111 245t278 71q84 2 153.5 -15.5t123 -68.5t49.5 -129q-6 -115 -68.5 -180.5t-143.5 -78t-143.5 -8t-89.5 16.5q-6 -37 27 -48t111 -11q111 0 245 20l-36 -201q-201 -70 -416 -45q-275 35 -201 432zM502 1163q6 -2 14 -5t31.5 -6t42 -1t37 15.5 t24.5 37.5q6 29 -9 40t-48 11q-51 0 -68.5 -21.5t-23.5 -70.5z" />
<glyph horiz-adv-x="630" d="M236 1268l28 180l98 35l23 106q29 129 102.5 179.5t214.5 50.5q123 0 189 -37l-29 -172l-104 2q-27 0 -42.5 -2t-24.5 -15.5t-11 -22.5t-6 -39q-2 -9 -2 -13l-6 -45h147l-33 -207h-147l-82 -523h-299l82 523h-98z" />
<glyph horiz-adv-x="821" d="M141 393l33 201h293q125 0 143 119l13 86q-53 -59 -152 -60q-164 0 -219 111t-21 324q31 186 119 254.5t244 68.5q125 0 251 -16.5t181 -40.5l-121 -778q-55 -342 -428 -302zM522 994.5q8 -38.5 60 -38.5q49 0 69 17l49 315h-65q-37 0 -59.5 -24.5t-29 -49t-14.5 -75.5 q-18 -106 -10 -144.5z" />
<glyph horiz-adv-x="827" d="M164 745l170 1067h297l-66 -413q106 94 234 94q139 0 172 -68.5t10 -207.5l-74 -472h-299l72 455q6 41 -1 55.5t-32 14.5q-78 0 -108 -47l-76 -478h-299z" />
<glyph horiz-adv-x="387" d="M162 745l114 730h299l-114 -730h-299zM293 1561l29 180q6 39 43 39h231q33 0 27 -39l-29 -180q-6 -35 -39 -35h-231q-37 0 -31 35z" />
<glyph horiz-adv-x="387" d="M106 371l175 1099h299l-117 -733q-35 -252 -127 -366h-230zM293 1556l29 183q6 39 43 39h231q35 0 29 -39l-29 -183q-6 -35 -41 -34h-231q-37 -1 -31 34z" />
<glyph horiz-adv-x="868" d="M164 745l170 1067h299l-96 -583q90 31 141 84t90 153h307q-61 -225 -231 -325l178 -396h-324l-125 312l-61 -2l-49 -310h-299z" />
<glyph horiz-adv-x="487" d="M205 1004l127 811h301l-119 -740q-8 -70 -2 -91t33 -36q57 -29 67 -28l-26 -175h-164q-258 1 -217 259z" />
<glyph horiz-adv-x="1273" d="M164 745l115 723h249l25 -79q43 35 64.5 49t67.5 29.5t103 15.5q143 0 185 -94q51 31 78.5 45t82 31.5t107.5 17.5q96 0 144.5 -37t50.5 -97.5t-9 -138.5l-73 -465h-299l71 449q6 39 -2 53.5t-32 14.5q-78 0 -109 -39q-4 -20 -6 -33l-70 -445h-299l72 449q6 39 -2 53.5 t-33 14.5q-78 0 -108 -48l-74 -469h-299z" />
<glyph horiz-adv-x="827" d="M164 745l115 723h249l27 -79q37 31 60.5 47t70.5 31.5t105 15.5q98 0 147 -37t51 -97.5t-8 -138.5l-74 -465h-299l72 449q6 39 -2 53.5t-33 14.5q-78 0 -108 -48l-74 -469h-299z" />
<glyph horiz-adv-x="786" d="M215 1133q35 215 117 279.5t295 64.5q203 0 264 -95.5t27 -318.5q-33 -199 -113 -261.5t-295 -62.5q-201 0 -264.5 95.5t-30.5 298.5zM485 984.5q9 -23.5 60 -23.5q55 0 67.5 14t22.5 88q4 22 6 37q20 100 15 127.5t-64 27.5q-18 0 -29.5 -2t-21 -3t-15.5 -9t-10 -13 t-7 -21.5t-5 -26t-6 -37t-6 -43.5q-16 -92 -7 -115.5z" />
<glyph horiz-adv-x="821" d="M104 362l170 1072q133 55 449 55q139 0 205.5 -101.5t36.5 -306.5q-27 -184 -99.5 -274t-232.5 -90q-127 0 -164 61l-66 -416h-299zM500 958q18 -25 63 -24q51 0 69.5 36t37.5 148q16 57 7 109.5t-63 52.5h-63z" />
<glyph horiz-adv-x="823" d="M215 1151q31 199 120 268.5t245 69.5q307 0 428 -55l-168 -1072h-299l65 416q-53 -61 -155 -61q-162 0 -216.5 110.5t-19.5 323.5zM503 973q9 -39 60 -39q47 0 72 24l51 322h-65q-53 0 -75 -43t-34 -119q-18 -106 -9 -145z" />
<glyph horiz-adv-x="602" d="M164 745l115 723h266l2 -102q27 45 79 78t107 33q45 0 66 -9l-45 -286h-107q-37 0 -56.5 -2t-42 -19.5t-28.5 -52.5l-57 -363h-299z" />
<glyph horiz-adv-x="714" d="M199 797l26 174h316q31 0 30 22v2q0 14 -3 18.5t-19 4.5h-129q-96 0 -147.5 63.5t-34.5 163.5l8 60q27 172 221 172h36q89 0 132 -1t102.5 -5.5t89 -16.5t39.5 -33l-26 -176h-303q-33 0 -35 -16v-10q-2 -12 5 -17.5t21 -5.5h136q106 0 150 -56.5t32 -131.5l-15 -82 q-31 -186 -210 -187h-48q-88 0 -132 1t-104.5 6.5t-93 18t-44.5 32.5z" />
<glyph horiz-adv-x="587" d="M236 1270l22 166l121 47l67 196h256l-32 -202h121l-33 -207h-121l-33 -205q-8 -68 -1 -87.5t32 -31.5q51 -27 61 -26l-28 -175h-179q-100 0 -157.5 61.5t-36.5 190.5l43 273h-102z" />
<glyph horiz-adv-x="829" d="M195 865.5q-2 60.5 8 138.5l73 464h299l-71 -448q-6 -39 2 -53.5t33 -14.5q78 0 108 47l74 469h299l-115 -723h-250l-24 89q-55 -55 -103.5 -79t-134.5 -24q-98 0 -147 37t-51 97.5z" />
<glyph horiz-adv-x="815" d="M264 1468h283l26 -438l107 254q43 84 49 189h287q27 -121 -66 -285l-243 -443h-330z" />
<glyph horiz-adv-x="1261" d="M264 1468h281l26 -438l109 254q43 84 49 189h287q18 -82 -25 -195q-2 -4 -6 -14.5t-6 -14.5l39 -219l108 254q43 84 50 189h286q27 -119 -67 -285l-244 -443h-322l-38 195l-86 -195h-330z" />
<glyph horiz-adv-x="856" d="M152 745l297 388l-183 335h316l55 -165l111 165h317l-303 -387l176 -336h-305l-55 168l-111 -168h-315z" />
<glyph horiz-adv-x="868" d="M264 1470h295l10 -462q2 -51 52 -56l116 287q29 84 43 234h287q25 -119 -51 -291l-185 -443q-47 -106 -110.5 -185t-113.5 -119t-117.5 -65.5t-97.5 -31.5t-76 -10q-13 -2 -17 -2v184q94 43 147.5 96t94.5 133q-115 0 -177.5 59.5t-66.5 155.5z" />
<glyph horiz-adv-x="700" d="M178 748l37 233l277 250h-259l39 237h623l-33 -198l-284 -285h239l-37 -237h-602z" />
<glyph horiz-adv-x="1241" d="M127 393l111 692q33 207 134 310.5t287 103.5h336q209 0 296 -112.5t61 -280.5l-113 -713q-63 -393 -401 -393h-336q-201 0 -302.5 105.5t-72.5 287.5zM539 477q-8 -53 8 -81.5t36.5 -34t51.5 -5.5h86q59 0 90 21.5t43 97.5l88 549q18 119 -80 119h-117 q-37 0 -62.5 -13.5t-36.5 -38t-15 -36t-6 -31.5z" />
<glyph horiz-adv-x="1241" d="M195 0l49 315h258l129 807q-87 -58 -248 -41l39 252q174 53 272 166h393l-188 -1184h266l-49 -315h-921z" />
<glyph horiz-adv-x="1241" d="M78 0l55 344q201 121 484.5 349.5t300.5 328.5q14 88 -32 113.5t-181 25.5h-457l47 297q291 61 612 62q229 0 335 -156t71 -383q-10 -68 -48 -138.5t-75 -121.5t-108.5 -117.5t-105.5 -95.5t-112 -87.5t-84 -64.5h430l-57 -356h-1075z" />
<glyph horiz-adv-x="1241" d="M94 43l49 301h447q129 0 168 15.5t49 82.5l2 21q4 29 -2 47t-14.5 28.5t-37 16.5t-48 7t-70.5 5l-332 19l53 323l336 17q57 2 77 4t52.5 7t43 15.5t21.5 27.5t15 46l2 16q6 37 -3 59.5t-40 32t-56.5 11.5t-76.5 2h-473l47 299q197 66 682 57q170 -4 263 -120.5t65 -299.5 l-15 -79q-39 -231 -219 -259q90 -25 117 -124t6 -232l-10 -59q-53 -344 -461 -344h-75h-82q-15 0 -72.5 1t-79 2t-68.5 4t-72.5 7t-63.5 10t-66.5 14.5t-57.5 18.5z" />
<glyph horiz-adv-x="1241" d="M41 459l596 1040h426l-457 -854h199l45 275l80 159h342l-70 -434h123l-47 -305l-133 -59l-43 -277h-397l43 277h-666z" />
<glyph horiz-adv-x="1241" d="M94 41l51 317h541q45 0 73.5 9.5t41 31t15.5 32.5t7 36l11 63q8 55 -9.5 82t-72.5 27h-90q-90 0 -105 -92h-381l197 952h948l-57 -356h-562l-40 -209q63 35 141 41t153 0q168 -14 236 -131t45 -291l-31 -234q-53 -328 -477 -327q-211 0 -330 8t-305 41z" />
<glyph horiz-adv-x="1241" d="M162 425.5q0 159.5 33 401.5q25 158 64.5 276t82.5 188.5t101.5 116.5t107.5 64.5t113 28.5q281 43 671 -43l-47 -303h-448q-55 0 -93 -14.5t-59.5 -31.5t-38 -59t-21.5 -69t-16 -86q59 29 121 36t199 7q377 0 309 -428l-31 -207q-31 -184 -137 -244.5t-309 -60.5h-283 q-98 0 -164.5 39t-110.5 134t-44 254.5zM564 396q24 -42 126 -42h45q51 0 72.5 19.5t30.5 75.5l8 40q14 66 3 89.5t-65 23.5h-219q-25 -164 -1 -206z" />
<glyph horiz-adv-x="1241" d="M258 1143l57 356h985l70 -160l-680 -1339h-422l586 1143h-596z" />
<glyph horiz-adv-x="1241" d="M135 408l17 108q29 172 190 199q-66 35 -92.5 99.5t-24.5 116.5t15 132l20 133q16 102 58 169t111 96.5t132.5 38.5t155.5 9h319q182 0 265 -101t53 -296l-15 -90q-8 -59 -55 -121.5t-137 -75.5q63 -12 93 -78.5t25 -134t-10 -118.5l-24 -156q-16 -96 -49 -162.5 t-68 -100.5t-97.5 -51.5t-104.5 -20.5t-117 -3h-318q-405 0 -342 408zM543 430q-8 -53 9 -73.5t71 -20.5h106q61 0 84 22.5t29 71.5l12 82q8 47 -6 71.5t-70 24.5h-110q-59 0 -83 -24.5t-30 -71.5zM635 1012q-8 -57 9.5 -73.5t72.5 -16.5h106q63 0 83 19.5t28 70.5l8 61 q0 37 1 57.5t-16.5 29.5t-28.5 11.5t-36 2.5h-106q-53 0 -78 -17.5t-35 -83.5z" />
<glyph horiz-adv-x="1241" d="M125 41l47 303h449q68 0 110.5 17.5t65 59.5t32 76.5t21.5 106.5q-59 -29 -121.5 -36t-200.5 -7q-106 0 -177.5 39t-99.5 101.5t-37 143.5t9 165l27 166q29 186 137.5 255.5t304.5 69.5h283q137 0 215 -82t103.5 -275.5t-29.5 -512.5q-25 -158 -65 -271.5t-81 -178 t-101.5 -104.5t-105.5 -54.5t-112 -24.5q-283 -43 -674 43zM612.5 920.5q10.5 -23.5 63.5 -23.5h219q25 160 0 204t-127 44h-43q-51 0 -72.5 -19.5t-29.5 -74.5l-7 -41q-14 -66 -3.5 -89.5z" />
<glyph horiz-adv-x="1241" d="M127 393l80 488q33 207 134 310t288 103h336q422 0 358 -393l-84 -508q-63 -393 -401 -393h-336q-201 0 -303.5 105.5t-71.5 287.5zM539 477q-8 -53 8 -81.5t36.5 -34t51.5 -5.5h86q59 0 91 21.5t44 97.5l55 344q18 119 -77 119h-117q-104 0 -123 -119z" />
<glyph horiz-adv-x="1241" d="M231 0l50 315h256l86 603q-87 -57 -258 -41l38 251q174 53 273 166h393l-127 -979h260l-49 -315h-922z" />
<glyph horiz-adv-x="1241" d="M78 0l55 344q750 299 774 453q14 90 -27.5 114.5t-174.5 24.5h-457l47 297q291 61 612 61q233 0 337 -137t69 -360q-16 -100 -54 -176t-98.5 -126.5t-110 -78t-126.5 -60.5h286l-57 -356h-1075z" />
<glyph horiz-adv-x="1241" d="M63 -162l50 301h446q129 0 168 15.5t49 83.5l2 20q4 29 -2 47.5t-14 28.5t-37 16t-48.5 7t-70.5 5l-332 19l54 324l336 16q57 2 76.5 4t52 7t43 15.5t21.5 28t15 45.5l2 17q6 37 -3 59.5t-39.5 31.5t-56 11t-77.5 2h-473l47 299q197 66 682 57q170 -4 263.5 -120.5 t64.5 -298.5l-14 -80q-39 -231 -219 -258q90 -25 116.5 -124.5t5.5 -232.5l-10 -59q-53 -344 -461 -344h-76h-80q-16 0 -73 1t-78.5 2t-69 4t-73 7t-63 10.5t-66.5 14.5t-58 18z" />
<glyph horiz-adv-x="1241" d="M45 254l596 1040h426l-457 -854h199l45 275l80 159h342l-70 -434h123l-47 -305l-133 -59l-43 -277h-397l43 277h-666z" />
<glyph horiz-adv-x="1241" d="M61 -164l52 318h540q45 0 74 9t41 30.5t15 33t8 35.5l10 64q8 55 -9.5 81.5t-72.5 26.5h-90q-90 0 -105 -92h-381l197 952h948l-57 -356h-561l-41 -209q63 35 141 41t154 0q168 -14 235.5 -131t44.5 -291l-30 -233q-53 -328 -478 -328q-211 0 -330 8t-305 41z" />
<glyph horiz-adv-x="1241" d="M162 425.5q0 159.5 33 401.5q25 158 64.5 276t82.5 188.5t101.5 116.5t107.5 64.5t113 28.5q281 43 671 -43l-47 -303h-448q-55 0 -93 -14.5t-59.5 -31.5t-38 -59t-21.5 -69t-16 -86q59 29 121 36t199 7q377 0 309 -428l-31 -207q-31 -184 -137 -244.5t-309 -60.5h-283 q-98 0 -164.5 39t-110.5 134t-44 254.5zM564 396q24 -42 126 -42h45q51 0 72.5 19.5t30.5 75.5l8 40q14 66 3 89.5t-65 23.5h-219q-25 -164 -1 -206z" />
<glyph horiz-adv-x="1241" d="M225 938l58 356h985l69 -159l-680 -1340h-421l585 1143h-596z" />
<glyph horiz-adv-x="1241" d="M135 408l17 108q29 172 190 199q-66 35 -92.5 99.5t-24.5 116.5t15 132l20 133q16 102 58 169t111 96.5t132.5 38.5t155.5 9h319q182 0 265 -101t53 -296l-15 -90q-8 -59 -55 -121.5t-137 -75.5q63 -12 93 -78.5t25 -134t-10 -118.5l-24 -156q-16 -96 -49 -162.5 t-68 -100.5t-97.5 -51.5t-104.5 -20.5t-117 -3h-318q-405 0 -342 408zM543 430q-8 -53 9 -73.5t71 -20.5h106q61 0 84 22.5t29 71.5l12 82q8 47 -6 71.5t-70 24.5h-110q-59 0 -83 -24.5t-30 -71.5zM635 1012q-8 -57 9.5 -73.5t72.5 -16.5h106q63 0 83 19.5t28 70.5l8 61 q0 37 1 57.5t-16.5 29.5t-28.5 11.5t-36 2.5h-106q-53 0 -78 -17.5t-35 -83.5z" />
<glyph horiz-adv-x="1241" d="M92 -164l47 303h449q68 0 110.5 17.5t65 59.5t32 77t21.5 106q-59 -29 -121.5 -36t-199.5 -7q-106 0 -178 39t-100 101.5t-37 143.5t9 165l27 166q29 186 137.5 255.5t304.5 69.5h283q137 0 215 -81.5t103.5 -275.5t-29.5 -513q-25 -158 -65 -271.5t-81 -178t-101 -104.5 t-105 -54.5t-113 -24.5q-283 -43 -674 43zM580 715.5q10 -23.5 63 -23.5h219q25 160 0.5 204t-127.5 44h-43q-51 0 -72.5 -19.5t-29.5 -74.5l-6 -41q-14 -66 -4 -89.5z" />
<glyph horiz-adv-x="1060" d="M20 -197l84 430q10 68 49.5 122.5t108.5 54.5q-135 78 -92 356q16 106 60 176t112 100.5t130.5 41t145.5 8.5l195 -5q47 0 91 -11t95.5 -38.5t81 -77t47 -128t-5.5 -189.5q-20 -137 -130.5 -238.5t-311.5 -101.5h-96q-6 0 -20.5 1t-24 1t-20.5 -2t-18 -8t-9 -16 q0 -8 -2.5 -13.5t5 -10.5t10.5 -8t13 -5t15.5 -3t17.5 -3.5t18 -4.5l217 -45q289 -70 248 -336l-18 -108q-23 -150 -114 -222.5t-304 -72.5h-223q-425 0 -355 356zM421 -232.5q9 -19.5 60 -19.5h82q35 0 47.5 12.5t16.5 42.5l2 23q6 41 -3.5 52t-47.5 20l-140 22l-16 -96 q-10 -37 -1 -56.5zM473 1456h137q-10 -96 86 -96q104 0 111 96h137q-10 -106 -75.5 -167.5t-174.5 -61.5q-106 0 -167.5 62.5t-53.5 166.5zM560 604.5q7 -24.5 61 -24.5h22q31 0 48.5 19t22.5 39.5t11 66.5q12 84 7 98t-52 14h-23q-47 0 -61.5 -17t-28.5 -95 q-14 -76 -7 -100.5z" />
<glyph horiz-adv-x="1060" d="M20 -197l84 430q10 68 49.5 122.5t108.5 54.5q-135 78 -92 356q16 106 60 176t112 100.5t130.5 41t145.5 8.5l195 -5q47 0 91 -11t95.5 -38.5t81 -77t47 -128t-5.5 -189.5q-20 -137 -130.5 -238.5t-311.5 -101.5h-96q-6 0 -20.5 1t-24 1t-20.5 -2t-18 -8t-9 -16 q0 -8 -2.5 -13.5t5 -10.5t10.5 -8t13 -5t15.5 -3t17.5 -3.5t18 -4.5l217 -45q289 -70 248 -336l-18 -108q-23 -150 -114 -222.5t-304 -72.5h-223q-425 0 -355 356zM421 -232.5q9 -19.5 60 -19.5h82q35 0 47.5 12.5t16.5 42.5l2 23q6 41 -3.5 52t-47.5 20l-140 22l-16 -96 q-10 -37 -1 -56.5zM560 604.5q7 -24.5 61 -24.5h22q31 0 48.5 19t22.5 39.5t11 66.5q12 84 7 98t-52 14h-23q-47 0 -61.5 -17t-28.5 -95q-14 -76 -7 -100.5zM580 1274l30 192q6 51 58 52h184q47 0 39 -52l-31 -192q-6 -47 -53 -47h-184q-49 0 -43 47z" />
<glyph horiz-adv-x="1060" d="M20 -197l84 430q10 68 49.5 122.5t108.5 54.5q-135 78 -92 356q16 106 60 176t112 100.5t130.5 41t145.5 8.5l195 -5q47 0 91 -11t95.5 -38.5t81 -77t47 -128t-5.5 -189.5q-20 -137 -130.5 -238.5t-311.5 -101.5h-96q-6 0 -20.5 1t-24 1t-20.5 -2t-18 -8t-9 -16 q0 -8 -2.5 -13.5t5 -10.5t10.5 -8t13 -5t15.5 -3t17.5 -3.5t18 -4.5l217 -45q289 -70 248 -336l-18 -108q-23 -150 -114 -222.5t-304 -72.5h-223q-425 0 -355 356zM362 1227l250 286h269l141 -286h-227l-64 104l-119 -104h-250zM421 -232.5q9 -19.5 60 -19.5h82 q35 0 47.5 12.5t16.5 42.5l2 23q6 41 -3.5 52t-47.5 20l-140 22l-16 -96q-10 -37 -1 -56.5zM560 604.5q7 -24.5 61 -24.5h22q31 0 48.5 19t22.5 39.5t11 66.5q12 84 7 98t-52 14h-23q-47 0 -61.5 -17t-28.5 -95q-14 -76 -7 -100.5z" />
<glyph horiz-adv-x="1744" d="M129 596q23 137 59.5 233.5t75.5 146.5t100.5 77.5t108.5 33t123 5.5l723 -5l104 304h340l-47 -304h182l-43 -274h-182l-55 -344q-12 -113 -2 -145.5t45 -53.5q80 -43 94 -43l-37 -231h-245q-137 0 -216 95t-49 296l68 426l-500 -2h-27q-51 2 -75.5 -3t-58 -29.5t-54 -86 t-37.5 -166.5q-12 -76 -13 -121t3 -71.5t27.5 -37.5t42 -13t67.5 -3q16 0 25 1q84 0 165 4t120 8l38 4l-36 -234q-123 -47 -238 -62t-319 -15q-174 0 -252 138t-25 472z" />
<glyph horiz-adv-x="1576" d="M152 815l30 197l166 78l107 303h340l-50 -303h402l106 303h340l-49 -303h182l-43 -275h-182l-53 -344q-12 -113 -3 -145.5t44 -53.5q80 -43 94 -43l-37 -231h-246q-137 0 -215.5 95t-48.5 296l68 426h-402l-55 -344q-12 -113 -2 -145.5t45 -53.5q80 -43 94 -43l-36 -231 h-246q-137 0 -216 95t-48 296l67 426h-153z" />
<glyph horiz-adv-x="1544" d="M150 813l38 240l152 34l33 203q29 178 131 249t297 71q168 0 256 -49l-37 -228l-150 2q-66 2 -84 -25.5t-32 -113.5q-2 -18 -4 -29l-13 -77h381l105 303h340l-47 -303h182l-43 -275h-182l-56 -344q-12 -113 -2 -145.5t45 -53.5q78 -43 92 -43l-34 -231h-246 q-137 0 -216 95t-48 296l67 426h-381l-129 -815h-397l129 813h-147z" />
<glyph horiz-adv-x="1953" d="M152 815l30 197l166 78l107 303h340l-50 -303h279q180 0 272.5 -76t96.5 -213l8 -402q2 -76 88 -80l176 488q41 113 53 283h381q31 -178 -74 -426l-266 -664q-240 -561 -727 -619q-16 -1 -24 -4v279q141 66 222 144.5t140 199.5q-326 0 -346 319l-20 326q-6 102 -44 136 t-133 34h-125l-55 -344q-12 -113 -2 -145.5t45 -53.5q80 -43 94 -43l-36 -231h-246q-137 0 -216 95t-48 296l67 426h-153z" />
<glyph horiz-adv-x="1972" d="M150 813l38 240l152 34l33 203q29 178 131 249t297 71q168 0 256 -49l-37 -228l-150 2q-66 2 -84 -25.5t-32 -113.5q-2 -18 -4 -29l-13 -80h305q186 2 280.5 -73.5t98.5 -212.5l11 -402q2 -76 75 -80l176 488q41 113 54 283h381q31 -178 -74 -426l-266 -664 q-240 -561 -727 -619q-16 -1 -25 -4v279q141 66 223 145.5t142 198.5q-317 0 -338 319l-21 326q-6 102 -44 136t-134 32h-160l-129 -813h-397l129 813h-147z" />
<glyph horiz-adv-x="1060" d="M20 -197l84 430q10 68 49.5 122.5t108.5 54.5q-135 78 -92 356q16 106 60 176t112 100.5t130.5 41t145.5 8.5l195 -5q47 0 91 -11t95.5 -38.5t81 -77t47 -128t-5.5 -189.5q-20 -137 -130.5 -238.5t-311.5 -101.5h-96q-6 0 -20.5 1t-24 1t-20.5 -2t-18 -8t-9 -16 q0 -8 -2.5 -13.5t5 -10.5t10.5 -8t13 -5t15.5 -3t17.5 -3.5t18 -4.5l217 -45q289 -70 248 -336l-18 -108q-23 -150 -114 -222.5t-304 -72.5h-223q-425 0 -355 356zM421 -232.5q9 -19.5 60 -19.5h82q35 0 47.5 12.5t16.5 42.5l2 23q6 41 -3.5 52t-47.5 20l-140 22l-16 -96 q-10 -37 -1 -56.5zM560 604.5q7 -24.5 61 -24.5h22q31 0 48.5 19t22.5 39.5t11 66.5q12 84 7 98t-52 14h-23q-47 0 -61.5 -17t-28.5 -95q-14 -76 -7 -100.5zM588 1272l43 276q10 63 46 102.5t79 47.5t85 8t69 -8l28 -8l-16 -115q-59 2 -64 -39l-2 -8h21q45 0 38 -45 l-32 -211q-10 -49 -56 -49h-204q-41 0 -35 49z" />
<glyph horiz-adv-x="563" d="M115 47l39 240q6 51 57 51h235q47 0 39 -51l-39 -240q-6 -47 -53 -47h-235q-49 0 -43 47zM190 403l89 764h374l-166 -764h-297z" />
<glyph horiz-adv-x="1015" d="M242 758l18 274l23 137h376l-22 -137l-64 -274h-331zM684 758l23 274l22 137h377l-23 -137l-63 -274h-336z" />
<glyph horiz-adv-x="1323" d="M63 270l84 271h242l49 151h-241l84 271h241l80 251h270l-79 -251h149l80 251h270l-80 -251h244l-84 -271h-244l-49 -151l240 -2l-80 -271h-246l-86 -268h-270l86 268l-150 2l-86 -270h-270l86 270h-240zM659 541h150l49 151h-149z" />
<glyph horiz-adv-x="1095" d="M106 33l44 276q268 -14 481 -14q49 1 59 41l6 29q4 25 -8 33t-39 8h-205q-176 0 -236.5 111.5t-33.5 279.5l12 75q23 145 110 222t279 80l27 169h221l-26 -178q221 -14 360 -43l-43 -280q-242 18 -475 18q-51 0 -57 -49l-4 -25q-6 -45 43 -45h225q313 0 250 -407l-11 -62 q-10 -63 -25.5 -110t-37 -78t-49 -52.5t-60 -31.5t-70.5 -15t-82 -5t-93 -1q-40 0 -60 1l-26 -164h-222l27 170q-232 10 -281 47z" />
<glyph horiz-adv-x="2142" d="M135 684l37 231q20 135 91 195.5t222 60.5h207q145 0 209 -80.5t43 -216.5l-37 -231q-20 -135 -88.5 -195.5t-218.5 -60.5h-207q-147 0 -212.5 81t-45.5 216zM401 725q-6 -41 5.5 -61.5t58.5 -20.5h104q82 0 93 82l18 109q8 49 -7.5 65t-56.5 16h-104q-80 0 -92 -81z M672 0l712 1167h256l-700 -1167h-268zM1382 297l37 231q20 135 90 195.5t222 60.5h206q145 0 210 -80.5t44 -216.5l-37 -231q-20 -135 -88.5 -195.5t-218.5 -60.5h-207q-147 0 -212.5 81t-45.5 216zM1647 297q0 -18 15 -29.5t48 -11.5h105q84 0 94 82l16 108q8 49 -7 65.5 t-56 16.5h-105q-80 0 -92 -82l-16 -108q-2 -23 -2 -41z" />
<glyph horiz-adv-x="1259" d="M88 328.5q-2 66.5 27.5 125t71.5 103.5t112 100l98 76l-32 58q-68 117 -0.5 237.5t186.5 140.5q106 18 260 -1t215 -46l-43 -272h-164q-109 0 -61 -78l104 -178l268 164l125 -172l-157 -201l-82 -59l198 -326h-393l-78 123l-73 -57q-43 -33 -115 -53.5t-154 -20.5 t-159.5 48t-118.5 144q-33 78 -35 144.5zM438 346q31 -45 78 -12l70 51l-47 84l-72 -51q-52 -35 -29 -72z" />
<glyph horiz-adv-x="569" d="M240 758l20 274l23 137h376l-22 -137l-64 -274h-333z" />
<glyph horiz-adv-x="854" d="M184 805l23 143l291 39l-21 -192zM236 502l94 282l180 -49l-145 -276zM453 586l131 162l202 -183l-102 -114zM500 1124l143 45l84 -258l-190 -69zM600 815l270 166l66 -117l-240 -198z" />
<glyph horiz-adv-x="1130" d="M131 373l72 504q41 291 405 290h295q90 0 151.5 -30.5t88 -71.5t38 -97.5t9.5 -95t-8 -77.5l-70 -504q-23 -170 -123 -230.5t-272 -60.5h-295q-147 0 -233.5 98.5t-57.5 274.5zM539 442q-8 -55 4 -70.5t51 -15.5h61q31 0 47.5 13.5t20.5 28t10 46.5l41 263q0 6 4 26.5 t4 26.5t-1 19.5t-7 18.5t-19.5 9t-31.5 4h-61q-27 0 -42.5 -5t-23.5 -26.5t-9 -28t-7 -42.5z" />
<glyph horiz-adv-x="774" d="M162 750l39 251q174 53 272 166h393l-180 -1167h-397l121 791q-87 -58 -248 -41z" />
<glyph horiz-adv-x="1071" d="M61 0l56 344q106 37 230 92.5t249 140.5t135 152q10 61 -22.5 79.5t-155.5 18.5h-375l47 297q31 6 89.5 19.5t84 18.5t77.5 12.5t112.5 9.5t146.5 2q236 0 335 -122t65 -343q-16 -106 -67.5 -183t-99.5 -112t-122 -70h225l-57 -356h-953z" />
<glyph horiz-adv-x="1030" d="M49 33l47 303h441q61 0 67 35l2 10q4 25 -7 31t-52 8l-336 10l47 307l340 8q47 2 59.5 7.5t16.5 33.5l2 7q4 23 -9.5 28.5t-52.5 5.5h-450l49 301q180 59 606 46q143 -4 215 -95.5t51 -220.5l-6 -49q-16 -100 -51 -155.5t-113 -71.5q70 -33 86.5 -113t-4.5 -168l-4 -33 q-23 -141 -105.5 -205.5t-264.5 -72.5q-408 -18 -574 43z" />
<glyph horiz-adv-x="1163" d="M88 420l434 747h412l-336 -602h131l29 174l106 195h322l-60 -369h103l-47 -305l-109 -39l-35 -217h-397l35 217h-522z" />
<glyph horiz-adv-x="1067" d="M94 47l47 297h459q25 0 35 2t19.5 12.5t13.5 32.5l2 15q6 39 -1 46t-40 7h-68q-72 0 -80 -51h-327l155 759h826l-58 -356h-495l-29 -109q55 49 158 50h65q346 0 289 -373l-14 -88q-14 -90 -52 -150.5t-95.5 -90.5t-115 -41t-131.5 -11q-381 -4 -563 49z" />
<glyph horiz-adv-x="1087" d="M150.5 335.5q-7.5 126.5 17.5 319.5q25 162 76 271.5t118.5 162t131 72t141.5 19.5q389 0 532 -31l-51 -326h-414q-70 0 -90 -20.5t-28 -75.5q113 25 258 25q152 0 211 -104.5t37 -250.5l-15 -90q-51 -309 -332 -309h-241q-100 0 -171 29.5t-122 105.5t-58.5 202.5z M539 370.5q8 -16.5 51 -16.5h45q29 0 40 11.5t15 44.5v10q4 31 -2 39t-35 8h-110q-12 -80 -4 -96.5z" />
<glyph horiz-adv-x="978" d="M160 0l422 811h-418l55 356h805l82 -159l-522 -1008h-424z" />
<glyph horiz-adv-x="1122" d="M129 307l16 103q6 43 21.5 71.5t44.5 46t45 24.5t53 17q-121 43 -102 230l8 88q14 94 46 154.5t83 89t103.5 38t130.5 9.5h340q315 0 262 -332l-15 -68q-25 -143 -149 -170q57 -10 77.5 -81.5t10.5 -137.5l-23 -143q-10 -68 -38.5 -116t-61.5 -72.5t-81 -38t-80 -16.5 t-75 -3h-374q-293 0 -242 307zM537 377q-6 -41 4 -50.5t49 -9.5h47q39 0 48 8.5t15 45.5l5 30q4 33 -2.5 42.5t-40.5 9.5h-62q-27 0 -40 -8.5t-17 -36.5zM599 741.5q7 -16.5 42 -16.5h70q29 0 38 11.5t12 28.5q1 3 1 5l8 51q2 23 -7 31t-34 8h-65q-49 0 -56 -39l-8 -45 q-8 -18 -1 -34.5z" />
<glyph horiz-adv-x="1085" d="M111 29l51 325h413q70 0 90.5 20.5t28.5 76.5q-156 -25 -282 -25q-102 0 -160.5 55.5t-66 136t2.5 170.5l15 91q49 301 327 301h246q100 0 171 -32t121 -107.5t58.5 -203.5t-18.5 -323q-20 -129 -59 -225t-83 -151.5t-102.5 -87.5t-108.5 -42t-112 -10q-389 0 -532 31z M586 758q-4 -33 1 -40t34 -7h114q10 80 1 96t-54 16h-45q-27 0 -36 -10t-13 -45z" />
<glyph horiz-adv-x="970" d="M150 809l51 324q264 55 512 43q193 0 282.5 -100.5t57.5 -309.5l-6 -43q-27 -168 -139.5 -236.5t-286.5 -33.5l-7 -50h-278l47 308h197q43 0 53 7t14 36l2 12q4 10 1 16t-2 11.5t-5 8.5t-8 5t-11 2h-15h-17h-19h-423zM250 47l39 240q6 51 57 51h232q53 0 43 -51l-39 -240 q-8 -47 -60 -47h-231q-47 0 -41 47z" />
<glyph horiz-adv-x="1882" d="M94 141l150 946q18 113 57 192t89 124t128 70.5t151.5 32.5t180.5 7h727q244 0 323.5 -146t43.5 -402l-93 -623q-25 -172 -121 -243.5t-313 -71.5h-254l-49 102q-80 -121 -235 -117q-190 6 -271.5 169t-40.5 437q25 164 76 272.5t124 160t142.5 70t159.5 18.5 q178 0 280.5 -32t182.5 -110l-96 -675q74 0 96 29.5t41 154.5l74 500q20 137 -16 184t-148 47h-701q-70 0 -117 -18.5t-72.5 -55.5t-36.5 -70.5t-19 -86.5l-144 -906q-14 -96 22 -144t158 -48h791l-39 -240q-276 -55 -598 -55h-180q-533 0 -453 528zM851 492q-3 -35 1 -85.5 t31.5 -76t79.5 -23.5q180 6 192 144l59 385q-74 10 -161 10q-86 0 -127 -57t-64 -207q-8 -55 -11 -90z" />
<glyph horiz-adv-x="1269" d="M41 0l539 1167h499l152 -1167h-381l-25 178h-295l-77 -178h-412zM659 473h140l-31 232z" />
<glyph horiz-adv-x="1126" d="M92 0l184 1169h562q203 0 300 -77.5t68 -255.5q-20 -125 -82.5 -182.5t-146.5 -57.5q78 -10 125 -96t28 -209q-12 -82 -43.5 -138.5t-67.5 -86t-101.5 -45t-117.5 -18.5t-147 -3h-561zM541 317h123q29 0 47 15.5t26 66.5q10 78 -49 78h-123zM606 731h123q61 0 70 64 q10 59 -51 59h-123z" />
<glyph horiz-adv-x="1044" d="M136.5 467q5.5 90 23.5 209q45 287 169 402.5t402 115.5q170 0 260 -12.5t191 -59.5l-41 -264q-205 41 -334 41q-39 0 -69.5 -3t-54.5 -14.5t-39 -19.5t-28.5 -31.5t-20.5 -37t-15.5 -51t-11.5 -56.5l-11 -72q-2 -18 -10 -61t-10 -59.5t-4.5 -51t3 -49t16.5 -37t31.5 -33 t52.5 -18.5t75 -8l346 39l-41 -260q-111 -53 -192 -63.5t-281 -10.5q-123 0 -208 37t-128 95.5t-59.5 150.5t-11 182z" />
<glyph horiz-adv-x="1181" d="M92 0l187 1171h579q92 0 160.5 -25.5t109.5 -72.5t66 -104.5t33 -134t6 -148.5t-12 -160q-12 -111 -38 -195.5t-54.5 -140t-75.5 -94.5t-80 -57.5t-91.5 -27.5t-87 -10t-87.5 -1h-27h-588zM543 336h133q37 0 62.5 18.5t42 57.5t24.5 74.5t18 93.5q20 145 5 200.5 t-72 55.5h-133z" />
<glyph horiz-adv-x="1042" d="M131 252l102 651q41 262 336 266q420 0 605 -34l-48 -299h-440q-43 0 -57.5 -14.5t-20.5 -53.5l-4 -27l420 -16l-45 -289l-424 -14l-4 -25q-6 -41 9 -53t54 -12h433l-48 -299q-106 -25 -270 -34t-274 -6l-111 3q-254 6 -213 256z" />
<glyph horiz-adv-x="1044" d="M92 0l144 903q41 262 335 266q420 0 605 -34l-48 -299h-440q-43 0 -57.5 -14.5t-20.5 -53.5l-10 -68l420 -16l-45 -289l-426 -14l-60 -381h-397z" />
<glyph horiz-adv-x="1144" d="M156 647q45 285 152.5 404.5t338.5 134.5q406 25 588 -51l-43 -271q-197 27 -387 27q-49 0 -71.5 -1t-53.5 -10.5t-44 -26.5t-30.5 -52t-28 -85t-22.5 -126q-2 -14 -9 -48t-9 -50.5t-4.5 -45t3 -43t15.5 -32t31.5 -24.5t52.5 -7q106 0 119 86l8 49h-78l31 203 q117 31 344 31q61 0 135 -7l-111 -702h-299l-77 90q-43 -59 -98.5 -81.5t-172.5 -22.5q-386 -1 -280 661z" />
<glyph horiz-adv-x="1179" d="M90 -2l184 1169h398l-68 -426h227l68 426h397l-184 -1169h-397l61 387h-227l-62 -387h-397z" />
<glyph horiz-adv-x="557" d="M92 0l184 1167h398l-185 -1167h-397z" />
<glyph horiz-adv-x="692" d="M47 43l49 315q70 0 112 8.5t62.5 33t24.5 41t12 61.5l107 665h397l-131 -829q-14 -90 -63.5 -181t-131.5 -126q-125 -47 -245.5 -41t-192.5 53z" />
<glyph horiz-adv-x="1200" d="M90 -2l184 1169h377l-67 -438h78l260 438h424l-347 -616l183 -553h-416l-129 416h-105l-65 -416h-377z" />
<glyph horiz-adv-x="1036" d="M139 299l137 868h398l-107 -673q-4 -27 -5 -46.5t4 -34t9.5 -24.5t16.5 -16t20.5 -9.5t27.5 -5.5t30 -2h35h348l-56 -356h-606q-131 0 -203 73.5t-49 225.5z" />
<glyph horiz-adv-x="1619" d="M63 0l293 1169h523l8 -639l213 639h536l-77 -1169h-392l33 600l-180 -600h-414l-2 596l-137 -596h-404z" />
<glyph horiz-adv-x="1230" d="M92 0l184 1169h392l213 -495l71 495h396l-185 -1169h-389l-209 485l-76 -485h-397z" />
<glyph horiz-adv-x="1208" d="M138.5 362.5q-13.5 110.5 15.5 262.5q23 147 65.5 249.5t92.5 161t130 91t156 42t190 9.5q88 0 156 -11.5t129.5 -39t97 -73.5t62.5 -118t24.5 -170t-18.5 -229q-23 -147 -66 -249t-93 -160t-130 -90t-155.5 -40t-192.5 -8q-104 0 -181 17.5t-142.5 59.5t-96 113.5 t-44 182zM541.5 394.5q17.5 -48.5 115.5 -48.5q94 0 127 46t58 196q27 152 8 192.5t-117 40.5q-90 0 -122.5 -42.5t-57.5 -194.5q-29 -141 -11.5 -189.5z" />
<glyph horiz-adv-x="1087" d="M70 0l184 1165h575q399 0 332 -434q-16 -104 -52 -179t-75 -112t-95 -57.5t-93 -23.5t-90 -4q-11 0 -15 -1q-53 -2 -132 7.5t-83 19.5l-59 -381h-397zM567 629h109q35 0 54.5 24.5t27.5 81.5q12 51 4 83t-51 32h-109z" />
<glyph horiz-adv-x="1208" d="M138.5 353q-13.5 109 15.5 261q23 147 64.5 251t94 164.5t130 94t155.5 44t190 10.5q88 0 155 -10.5t129.5 -37t98 -71.5t63.5 -116t24.5 -168t-19.5 -228q-23 -147 -64.5 -249.5t-93 -163t-131.5 -93.5t-156.5 -42t-191.5 -9q-104 0 -180 16.5t-142.5 57t-97 110.5 t-44 179zM496 -68h209q-2 -45 25.5 -67.5t81.5 -24.5t99 3t107 18l-47 -287q-98 -18 -190.5 -3t-162 52t-104 117.5t-18.5 191.5zM541.5 394.5q17.5 -48.5 115.5 -48.5q94 0 127 46t58 196q27 152 8 192.5t-117 40.5q-90 0 -122.5 -42.5t-57.5 -194.5q-29 -141 -11.5 -189.5 z" />
<glyph horiz-adv-x="1134" d="M70 0l184 1165h555q190 0 288.5 -113.5t63.5 -340.5q-16 -111 -51 -178.5t-62.5 -87t-76.5 -42.5l125 -403h-418l-74 373l-78 8l-59 -381h-397zM567 629h109q35 0 54.5 24.5t27.5 81.5q12 51 4 83t-51 32h-109z" />
<glyph horiz-adv-x="1103" d="M113 33l43 276q268 -14 481 -14q49 1 59 41l6 29q4 25 -8 33t-39 8h-204q-328 0 -271 372l13 76q25 152 114.5 236t284.5 84q373 0 571 -52l-43 -280q-242 18 -475 18q-51 0 -57 -49l-4 -25q-6 -45 43 -45h225q309 0 250 -387l-10 -61q-29 -182 -117 -247.5t-244 -65.5 q-546 0 -618 53z" />
<glyph horiz-adv-x="1073" d="M168 811l57 356h996l-58 -356h-299l-129 -811h-397l129 811h-299z" />
<glyph horiz-adv-x="1208" d="M172 594l100 573h400l-101 -635q-18 -113 9.5 -149.5t93 -36.5t98.5 38t51 148l101 635h399l-100 -696q-16 -100 -45 -177t-61 -127t-83 -85t-90 -53.5t-103.5 -27.5t-103.5 -10t-108 -1q-555 0 -457 604z" />
<glyph horiz-adv-x="1269" d="M225 1167h412l68 -704l288 704h422l-520 -1167h-500z" />
<glyph horiz-adv-x="1736" d="M225 1167h412l18 -704l226 704h411l-106 -270l61 -434l228 704h411l-459 -1167h-499l-13 227l-81 -227h-500z" />
<glyph horiz-adv-x="1255" d="M41 0l436 602l-244 565h476l71 -278l148 278h475l-455 -610l262 -557h-458l-99 252l-137 -252h-475z" />
<glyph horiz-adv-x="1239" d="M225 1167h416l104 -331l197 331h442l-489 -757l-64 -412h-397l64 412z" />
<glyph horiz-adv-x="1034" d="M41 0l57 356l518 455h-446l55 356h955l-56 -356l-489 -455h418l-58 -356h-954z" />
<glyph horiz-adv-x="497" d="M240 1380h297l110 -293h-223z" />
<glyph horiz-adv-x="1269" d="M41 0l539 1167h499l152 -1167h-107q-78 -49 -91 -102.5t17.5 -81t71.5 -21.5l-28 -184q-104 -35 -189.5 30.5t-72 175t150.5 183.5h-133l-25 178h-295l-77 -178h-412zM659 473h140l-31 232z" />
<glyph horiz-adv-x="1134" d="M70 0l184 1165h555q190 0 288.5 -113.5t63.5 -340.5q-16 -111 -51 -178.5t-62.5 -87t-76.5 -42.5l125 -403h-418l-74 373l-78 8l-59 -381h-397zM354 -582l19 115q37 -2 48 8t15 29l2 10h-20q-47 0 -39 47l33 209q10 49 53 49h205q43 0 37 -49l-45 -276 q-10 -63 -46 -101.5t-79 -47.5t-85 -8t-70 8zM567 629h109q35 0 54.5 24.5t27.5 81.5q12 51 4 83t-51 32h-109z" />
<glyph horiz-adv-x="557" d="M92 0l184 1167h398l-185 -1167h-397zM162 1427q131 152 276 152q45 0 104.5 -36t100.5 -36q106 -6 205 82l29 -151q-121 -147 -254 -148q-45 0 -116 36t-110 36q-98 0 -202 -72z" />
<glyph horiz-adv-x="1036" d="M139 299l137 868h398l-107 -673q-4 -27 -5 -46.5t4 -34t9.5 -24.5t16.5 -16t20.5 -9.5t27.5 -5.5t30 -2h35h348l-56 -356h-606q-131 0 -203 73.5t-49 225.5zM344 -602l18 115q37 -2 48.5 8t15.5 28l2 11h-20q-47 0 -39 47l32 209q8 49 54 49h204q43 0 37 -49l-45 -277 q-10 -63 -46 -101t-79 -47t-85 -8t-69 8z" />
<glyph horiz-adv-x="903" d="M246 1192q8 55 54 94t101.5 39t88 -39t24.5 -94q-10 -55 -55 -95t-100.5 -40t-88 40t-24.5 95zM768 1192q8 55 54 94t101.5 39t88 -39t24.5 -94q-10 -55 -55 -95t-100.5 -40t-89 40t-23.5 95z" />
<glyph horiz-adv-x="1103" d="M113 33l43 276q268 -14 481 -14q49 1 59 41l6 29q4 25 -8 33t-39 8h-204q-328 0 -271 372l13 76q25 152 114.5 236t284.5 84q373 0 571 -52l-43 -280q-242 18 -475 18q-51 0 -57 -49l-4 -25q-6 -45 43 -45h225q309 0 250 -387l-10 -61q-29 -182 -117 -247.5t-244 -65.5 q-546 0 -618 53zM451 1583h227l72 -104l110 104h250l-250 -287h-258z" />
<glyph horiz-adv-x="1042" d="M131 252l102 651q41 262 336 266q420 0 605 -34l-48 -299h-440q-43 0 -57.5 -14.5t-20.5 -53.5l-4 -27l420 -16l-45 -289l-424 -14l-4 -25q-6 -41 9 -53t54 -12h433l-48 -299q-106 -25 -270 -34t-274 -6l-111 3q-254 6 -213 256zM446 1294l31 191h598l-31 -191h-598z" />
<glyph horiz-adv-x="1144" d="M156 647q45 285 152.5 404.5t338.5 134.5q406 25 588 -51l-43 -271q-197 27 -387 27q-49 0 -71.5 -1t-53.5 -10.5t-44 -26.5t-30.5 -52t-28 -85t-22.5 -126q-2 -14 -9 -48t-9 -50.5t-4.5 -45t3 -43t15.5 -32t31.5 -24.5t52.5 -7q106 0 119 86l8 49h-78l31 203 q117 31 344 31q61 0 135 -7l-111 -702h-299l-77 90q-43 -59 -98.5 -81.5t-172.5 -22.5q-386 -1 -280 661zM426 -602l18 115q37 -2 48.5 8t15.5 28l2 11h-21q-46 0 -38 47l32 209q8 49 54 49h204q43 0 37 -49l-45 -277q-10 -63 -46 -101t-79 -47t-85 -8t-69 8z" />
<glyph horiz-adv-x="1095" d="M23 811l57 356h995l-57 -356h-299l-27 -172h178l-24 -152h-178l-78 -487h-397l77 487h-184l25 152h184l27 172h-299z" />
<glyph horiz-adv-x="1034" d="M41 0l57 356l518 455h-446l55 356h955l-56 -356l-489 -455h418l-58 -356h-954zM426 1579h227l72 -104l111 104h249l-249 -287h-258z" />
<glyph horiz-adv-x="712" d="M213 985l31 191h598l-31 -191h-598z" />
<glyph horiz-adv-x="524" d="M205 960.5q8 86.5 73.5 142.5t153.5 56q86 0 141.5 -59.5t47.5 -147.5q-8 -86 -73 -141t-153 -55q-86 0 -142 59t-48 145.5zM344 956q-2 -29 17.5 -48t48 -19t48 19.5t23.5 48t-14 49t-47 20.5t-50.5 -20.5t-25.5 -49.5z" />
<glyph horiz-adv-x="499" d="M195 1087l204 293h297l-278 -293h-223z" />
<glyph horiz-adv-x="761" d="M274 1374h228l67 -104l113 104h240l-238 -287h-268z" />
<glyph horiz-adv-x="1230" d="M80 0l184 1169h391l215 -450l70 450h395l-184 -1169l-14 -86q-33 -217 -167 -288.5t-415 -59.5l43 260q80 0 109.5 20.5t42.5 104.5l8 55l-207 455l-74 -461h-397z" />
<glyph horiz-adv-x="1269" d="M41 0l539 1167h499l152 -1167h-381l-25 178h-295l-77 -178h-412zM543 1290l30 191h598l-30 -191h-598zM659 473h140l-31 232z" />
<glyph horiz-adv-x="1269" d="M41 0l539 1167h499l152 -1167h-381l-25 178h-295l-77 -178h-412zM659 473h140l-31 232zM737 1290l205 293h297l-278 -293h-224z" />
<glyph horiz-adv-x="1269" d="M41 0l539 1167h499l152 -1167h-381l-25 178h-295l-77 -178h-412zM520 1290l250 287h268l142 -287h-228l-63 105l-119 -105h-250zM659 473h140l-31 232z" />
<glyph horiz-adv-x="1269" d="M41 0l539 1167h499l152 -1167h-381l-25 178h-295l-77 -178h-412zM516 1427q131 152 277 152q47 0 106 -36t98 -36q106 -6 205 82l29 -151q-121 -147 -254 -148q-45 0 -115.5 36t-109.5 36q-98 0 -203 -72zM659 473h140l-31 232z" />
<glyph horiz-adv-x="1269" d="M41 0l539 1167h499l152 -1167h-381l-25 178h-295l-77 -178h-412zM477 1425q8 55 54.5 94.5t101.5 39.5t88 -39t24 -95q-10 -55 -55 -95t-100 -40t-89 40t-24 95zM659 473h140l-31 232zM999.5 1425.5q8.5 55.5 54.5 94.5t101 39t88 -39t25 -95q-10 -55 -55.5 -95 t-100.5 -40t-88 40t-24.5 95.5z" />
<glyph horiz-adv-x="1269" d="M41 0l539 1167h260q-88 0 -146.5 59.5t-50.5 145.5q8 88 72.5 146.5t150.5 58.5t143.5 -59.5t49.5 -145.5q-8 -88 -70.5 -146.5t-148.5 -58.5h239l152 -1167h-381l-25 178h-295l-77 -178h-412zM659 473h140l-31 232zM782 1372q-2 -29 16.5 -48t47 -19t49 19t25 48 t-14 49.5t-47.5 20.5t-50.5 -20.5t-25.5 -49.5z" />
<glyph horiz-adv-x="1689" d="M27 0l491 911q27 51 68 91t76.5 67t95 46.5t92.5 28.5t104.5 15t93 7t94.5 1h77q420 0 604 -34l-49 -299h-441q-43 0 -56 -13.5t-20 -54.5l-4 -27l420 -16l-45 -289l-426 -14l-2 -25q-6 -41 9.5 -53t52.5 -12h434l-49 -299q-240 -53 -633 -37q-106 -2 -181 52t-57 181 l2 15h-194l-131 -242h-426zM721 496h96l41 254z" />
<glyph horiz-adv-x="557" d="M74.5 -183.5q13.5 109.5 150.5 183.5h-133l184 1167h398l-185 -1167h-122q-78 -49 -91.5 -102.5t17.5 -81t72 -21.5l-29 -184q-104 -35 -189.5 30.5t-72 175z" />
<glyph horiz-adv-x="1044" d="M136.5 467q5.5 90 23.5 209q45 287 169 402.5t402 115.5q170 0 260 -12.5t191 -59.5l-41 -264q-205 41 -334 41q-39 0 -69.5 -3t-54.5 -14.5t-39 -19.5t-28.5 -31.5t-20.5 -37t-15.5 -51t-11.5 -56.5l-11 -72q-2 -18 -10 -61t-10 -59.5t-4.5 -51t3 -49t16.5 -37t31.5 -33 t52.5 -18.5t75 -8l346 39l-41 -260q-111 -53 -192 -63.5t-281 -10.5q-123 0 -208 37t-128 95.5t-59.5 150.5t-11 182zM467 1604h227l72 -105l111 105h249l-249 -287h-259z" />
<glyph horiz-adv-x="1042" d="M131 252l102 651q41 262 336 266q420 0 605 -34l-48 -299h-440q-43 0 -57.5 -14.5t-20.5 -53.5l-4 -27l420 -16l-45 -289l-424 -14l-4 -25q-6 -41 9 -53t54 -12h433l-48 -299q-106 -25 -270 -34t-274 -6l-111 3q-254 6 -213 256zM645 1292l205 293h297l-279 -293h-223z " />
<glyph horiz-adv-x="1042" d="M131 252l102 651q41 262 336 266q420 0 605 -34l-48 -299h-440q-43 0 -57.5 -14.5t-20.5 -53.5l-4 -27l420 -16l-45 -289l-424 -14l-4 -25q-6 -41 9 -53t54 -12h433l-48 -299h-4q-122 -77 -93 -155q18 -49 72 -53q9 -1 17 1l-28 -184q-57 -16 -114.5 -3t-93.5 56 t-50.5 93t12 110.5t94.5 107.5q-223 -20 -467 -10q-254 6 -213 256z" />
<glyph horiz-adv-x="1042" d="M131 252l102 651q41 262 336 266q420 0 605 -34l-48 -299h-440q-43 0 -57.5 -14.5t-20.5 -53.5l-4 -27l420 -16l-45 -289l-424 -14l-4 -25q-6 -41 9 -53t54 -12h433l-48 -299q-106 -25 -270 -34t-274 -6l-111 3q-254 6 -213 256zM368.5 1398.5q8.5 55.5 54.5 94.5 t101.5 39t88 -39t24.5 -94q-10 -55 -55 -95t-100.5 -40t-88.5 39.5t-24.5 95zM891 1399q8 55 54 94t101.5 39t88 -39t24.5 -94q-10 -55 -55 -95t-100.5 -40t-89 40t-23.5 95z" />
<glyph horiz-adv-x="1042" d="M131 252l102 651q41 262 336 266q420 0 605 -34l-48 -299h-440q-43 0 -57.5 -14.5t-20.5 -53.5l-4 -27l420 -16l-45 -289l-424 -14l-4 -25q-6 -41 9 -53t54 -12h433l-48 -299q-106 -25 -270 -34t-274 -6l-111 3q-254 6 -213 256zM616 1339l31 193q6 51 58 51h184 q47 0 39 -51l-31 -193q-6 -47 -53 -47h-185q-49 0 -43 47z" />
<glyph horiz-adv-x="557" d="M92 0l184 1167h398l-185 -1167h-397zM385 1290l205 293h297l-279 -293h-223z" />
<glyph horiz-adv-x="557" d="M92 0l184 1167h398l-185 -1167h-397zM158 1290l250 287h268l141 -287h-227l-64 105l-118 -105h-250z" />
<glyph horiz-adv-x="557" d="M92 0l184 1167h398l-185 -1167h-397zM199 1290l30 191h598l-30 -191h-598z" />
<glyph horiz-adv-x="1239" d="M104 518l25 152h113l80 501h577q467 -4 365 -643q-14 -88 -34 -160.5t-39.5 -125t-48 -93t-52 -66.5t-58.5 -43t-58.5 -26.5t-62.5 -12.5t-61.5 -3t-62 1t-58.5 1h-594l82 518h-113zM586 336h133q37 0 62.5 18.5t42 57.5t24.5 74.5t18 93.5q20 145 5 200.5t-72 55.5h-133 l-27 -166h133l-24 -152h-134z" />
<glyph horiz-adv-x="1230" d="M92 0l184 1169h392l213 -495l71 495h396l-185 -1169h-389l-209 485l-76 -485h-397zM406 -582l18 115q37 -2 48 8t15 29l2 10h-20q-47 0 -39 47l33 209q8 49 53 49h205q43 0 37 -49l-45 -276q-10 -63 -46 -101.5t-79 -47.5t-85 -8t-70 8z" />
<glyph horiz-adv-x="1208" d="M138.5 362.5q-13.5 110.5 15.5 262.5q23 147 65.5 249.5t92.5 161t130 91t156 42t190 9.5q88 0 156 -11.5t129.5 -39t97 -73.5t62.5 -118t24.5 -170t-18.5 -229q-23 -147 -66 -249t-93 -160t-130 -90t-155.5 -40t-192.5 -8q-104 0 -181 17.5t-142.5 59.5t-96 113.5 t-44 182zM510 1300l31 191h598l-31 -191h-598zM541.5 394.5q17.5 -48.5 115.5 -48.5q94 0 127 46t58 196q27 152 8 192.5t-117 40.5q-90 0 -122.5 -42.5t-57.5 -194.5q-29 -141 -11.5 -189.5z" />
<glyph horiz-adv-x="1200" d="M90 -2l184 1169h377l-67 -438h78l260 438h424l-347 -616l183 -553h-416l-129 416h-105l-65 -416h-377zM393 -582l19 115q37 -2 48 8t15 29l2 10h-20q-47 0 -39 47l33 209q8 49 53 49h205q43 0 36 -49l-45 -276q-10 -63 -46 -101.5t-79 -47.5t-84.5 -8t-69.5 8z" />
<glyph horiz-adv-x="1208" d="M138.5 362.5q-13.5 110.5 15.5 262.5q23 147 65.5 249.5t92.5 161t130 91t156 42t190 9.5q88 0 156 -11.5t129.5 -39t97 -73.5t62.5 -118t24.5 -170t-18.5 -229q-23 -147 -66 -249t-93 -160t-130 -90t-155.5 -40t-192.5 -8q-104 0 -181 17.5t-142.5 59.5t-96 113.5 t-44 182zM479 1300l250 287h268l142 -287h-228l-63 105l-119 -105h-250zM541.5 394.5q17.5 -48.5 115.5 -48.5q94 0 127 46t58 196q27 152 8 192.5t-117 40.5q-90 0 -122.5 -42.5t-57.5 -194.5q-29 -141 -11.5 -189.5z" />
<glyph horiz-adv-x="1208" d="M138.5 362.5q-13.5 110.5 15.5 262.5q23 147 65.5 249.5t92.5 161t130 91t156 42t190 9.5q88 0 156 -11.5t129.5 -39t97 -73.5t62.5 -118t24.5 -170t-18.5 -229q-23 -147 -66 -249t-93 -160t-130 -90t-155.5 -40t-192.5 -8q-104 0 -181 17.5t-142.5 59.5t-96 113.5 t-44 182zM475 1438q131 152 277 151q47 0 106.5 -35.5t97.5 -35.5q106 -6 205 81l29 -151q-121 -147 -254 -148q-45 0 -115.5 36t-109.5 36q-98 0 -203 -72zM541.5 394.5q17.5 -48.5 115.5 -48.5q94 0 127 46t58 196q27 152 8 192.5t-117 40.5q-90 0 -122.5 -42.5 t-57.5 -194.5q-29 -141 -11.5 -189.5z" />
<glyph horiz-adv-x="1208" d="M138.5 362.5q-13.5 110.5 15.5 262.5q23 147 65.5 249.5t92.5 161t130 91t156 42t190 9.5q88 0 156 -11.5t129.5 -39t97 -73.5t62.5 -118t24.5 -170t-18.5 -229q-23 -147 -66 -249t-93 -160t-130 -90t-155.5 -40t-192.5 -8q-104 0 -181 17.5t-142.5 59.5t-96 113.5 t-44 182zM436 1436q8 55 54.5 94t101.5 39t88 -39t25 -94q-10 -55 -55.5 -95.5t-100.5 -40.5t-89 40.5t-24 95.5zM541.5 394.5q17.5 -48.5 115.5 -48.5q94 0 127 46t58 196q27 152 8 192.5t-117 40.5q-90 0 -122.5 -42.5t-57.5 -194.5q-29 -141 -11.5 -189.5zM958.5 1435.5 q8.5 55.5 54.5 94.5t101 39t88 -39t25 -94q-10 -55 -55.5 -95.5t-100.5 -40.5t-88 40t-24.5 95.5z" />
<glyph horiz-adv-x="1216" d="M78 0l117 133q-43 66 -52.5 192t15.5 289q29 182 83 298t141 172.5t179 75t234 18.5q203 0 297 -41l26 32h176l-98 -112q106 -141 47 -510q-23 -147 -64.5 -249.5t-93 -163t-131.5 -93.5t-156.5 -42t-191.5 -9q-217 0 -315 53l-37 -43h-176zM549 528l256 289q-18 4 -66 4 q-90 0 -123.5 -42.5t-58.5 -194.5q-4 -16 -8 -56zM575 360q27 -14 89 -14q94 0 125.5 46t56.5 196q12 74 14 92z" />
<glyph horiz-adv-x="1208" d="M172 594l100 573h400l-101 -635q-18 -113 9.5 -149.5t93 -36.5t98.5 38t51 148l101 635h399l-100 -696q-20 -125 -60.5 -215t-86.5 -139t-114.5 -79t-125 -38t-136.5 -10q-72 -49 -84 -100.5t20 -78t71 -20.5l-29 -184q-61 -16 -120.5 -2t-94.5 61t-46 101.5t25.5 117 t118.5 107.5q-481 35 -389 602z" />
<glyph horiz-adv-x="1208" d="M172 594l100 573h400l-101 -635q-18 -113 9.5 -149.5t93 -36.5t98.5 38t51 148l101 635h399l-100 -696q-16 -100 -45 -177t-61 -127t-83 -85t-90 -53.5t-103.5 -27.5t-103.5 -10t-108 -1q-555 0 -457 604zM707 1290l204 293h297l-278 -293h-223z" />
<glyph horiz-adv-x="1208" d="M172 594l100 573h400l-101 -635q-18 -113 9.5 -149.5t93 -36.5t98.5 38t51 148l101 635h399l-100 -696q-16 -100 -45 -177t-61 -127t-83 -85t-90 -53.5t-103.5 -27.5t-103.5 -10t-108 -1q-555 0 -457 604zM487 1290l250 287h269l141 -287h-227l-64 105l-119 -105h-250z " />
<glyph horiz-adv-x="1208" d="M172 594l100 573h400l-101 -635q-18 -113 9.5 -149.5t93 -36.5t98.5 38t51 148l101 635h399l-100 -696q-16 -100 -45 -177t-61 -127t-83 -85t-90 -53.5t-103.5 -27.5t-103.5 -10t-108 -1q-555 0 -457 604zM444 1425q8 55 54.5 94.5t101.5 39.5t88 -39t25 -95 q-10 -55 -55.5 -95t-100.5 -40t-89 40t-24 95zM966.5 1425.5q8.5 55.5 54.5 94.5t101.5 39t88 -39t24.5 -95q-10 -55 -55 -95t-100.5 -40t-88.5 40t-24.5 95.5z" />
<glyph horiz-adv-x="1208" d="M172 594l100 573h400l-101 -635q-18 -113 9.5 -149.5t93 -36.5t98.5 38t51 148l101 635h399l-100 -696q-16 -100 -45 -177t-61 -127t-83 -85t-90 -53.5t-103.5 -27.5t-103.5 -10t-108 -1q-555 0 -457 604zM483 1427q131 152 277 152q47 0 106.5 -36t98.5 -36 q106 -6 204 82l29 -151q-121 -147 -254 -148q-45 0 -115.5 36t-109.5 36q-98 0 -203 -72z" />
<glyph horiz-adv-x="1208" d="M172 594l100 573h400l-101 -635q-18 -113 9.5 -149.5t93 -36.5t98.5 38t51 148l101 635h399l-100 -696q-16 -100 -45 -177t-61 -127t-83 -85t-90 -53.5t-103.5 -27.5t-103.5 -10t-108 -1q-555 0 -457 604zM518 1290l31 191h598l-31 -191h-598z" />
<glyph horiz-adv-x="2146" d="M92 33l43 276q268 -14 481 -14q49 1 60 41l6 29q4 25 -8 33t-39 8h-205q-328 0 -270 372l12 76q25 152 115 236t284 84q373 0 572 -52l-43 -280q-242 18 -475 18q-51 0 -58 -49l-4 -25q-6 -45 43 -45h225q309 0 250 -387l-10 -61q-29 -182 -117 -247.5t-243 -65.5 q-547 0 -619 53zM1167 35l43 276q268 -14 482 -14q49 1 59 41l6 29q4 25 -8 33t-39 8h-205q-328 0 -270 372l12 76q25 152 115 236t285 84q373 0 571 -52l-43 -280q-242 18 -475 18q-51 0 -58 -49l-4 -25q-6 -45 43 -45h226q309 0 250 -387l-11 -61q-29 -182 -116.5 -247.5 t-243.5 -65.5q-547 0 -619 53z" />
<glyph horiz-adv-x="1269" d="M41 0l539 1167h499l152 -1167h-381l-25 178h-295l-77 -178h-412zM553 1583h297l111 -293h-224zM659 473h140l-31 232z" />
<glyph horiz-adv-x="1044" d="M136.5 467q5.5 90 23.5 209q45 287 169 402.5t402 115.5q170 0 260 -12.5t191 -59.5l-41 -264q-205 41 -334 41q-39 0 -69.5 -3t-54.5 -14.5t-39 -19.5t-28.5 -31.5t-20.5 -37t-15.5 -51t-11.5 -56.5l-11 -72q-2 -18 -10 -61t-10 -59.5t-4.5 -51t3 -49t16.5 -37t31.5 -33 t52.5 -18.5t75 -8l346 39l-41 -260q-111 -53 -192 -63.5t-281 -10.5q-123 0 -208 37t-128 95.5t-59.5 150.5t-11 182zM342 -379l27 162l80 31q45 18 54 32.5t19 73.5h240q-25 -160 -90.5 -229.5t-204.5 -69.5h-125z" />
<glyph horiz-adv-x="1239" d="M104 518l25 152h113l80 501h577q467 -4 365 -643q-14 -88 -34 -160.5t-39.5 -125t-48 -93t-52 -66.5t-58.5 -43t-58.5 -26.5t-62.5 -12.5t-61.5 -3t-62 1t-58.5 1h-594l82 518h-113zM586 336h133q37 0 62.5 18.5t42 57.5t24.5 74.5t18 93.5q20 145 5 200.5t-72 55.5h-133 l-27 -166h133l-24 -152h-134z" />
<glyph horiz-adv-x="1042" d="M131 252l102 651q41 262 336 266q420 0 605 -34l-48 -299h-440q-43 0 -57.5 -14.5t-20.5 -53.5l-4 -27l420 -16l-45 -289l-424 -14l-4 -25q-6 -41 9 -53t54 -12h433l-48 -299q-106 -25 -270 -34t-274 -6l-111 3q-254 6 -213 256zM459 1585h297l110 -293h-223z" />
<glyph horiz-adv-x="1042" d="M131 252l102 651q41 262 336 266q420 0 605 -34l-48 -299h-440q-43 0 -57.5 -14.5t-20.5 -53.5l-4 -27l420 -16l-45 -289l-424 -14l-4 -25q-6 -41 9 -53t54 -12h433l-48 -299q-106 -25 -270 -34t-274 -6l-111 3q-254 6 -213 256zM430 1292l250 287h268l142 -287h-228 l-63 105l-119 -105h-250z" />
<glyph horiz-adv-x="557" d="M92 0l184 1167h398l-185 -1167h-397zM182 1583h297l111 -293h-223z" />
<glyph horiz-adv-x="557" d="M49 0l184 1167h398l-185 -1167h-397zM59 1425q8 55 54.5 94.5t101.5 39.5t88 -39t25 -95q-10 -55 -55.5 -95t-100.5 -40t-89 40t-24 95zM581.5 1425.5q8.5 55.5 54.5 94.5t101.5 39t88 -39t24.5 -95q-10 -55 -55 -95t-100.5 -40t-88.5 40t-24.5 95.5z" />
<glyph horiz-adv-x="1230" d="M92 0l184 1169h392l213 -495l71 495h396l-185 -1169h-389l-209 485l-76 -485h-397zM432 1430q131 152 277 151q45 0 104 -36t100 -36q106 -6 205 82l29 -151q-121 -147 -254 -148q-45 0 -115.5 36t-109.5 36q-98 0 -203 -72z" />
<glyph horiz-adv-x="1208" d="M138.5 362.5q-13.5 110.5 15.5 262.5q23 147 65.5 249.5t92.5 161t130 91t156 42t190 9.5q88 0 156 -11.5t129.5 -39t97 -73.5t62.5 -118t24.5 -170t-18.5 -229q-23 -147 -66 -249t-93 -160t-130 -90t-155.5 -40t-192.5 -8q-104 0 -181 17.5t-142.5 59.5t-96 113.5 t-44 182zM502 1593h297l110 -293h-223zM541.5 394.5q17.5 -48.5 115.5 -48.5q94 0 127 46t58 196q27 152 8 192.5t-117 40.5q-90 0 -122.5 -42.5t-57.5 -194.5q-29 -141 -11.5 -189.5z" />
<glyph horiz-adv-x="1208" d="M138.5 362.5q-13.5 110.5 15.5 262.5q23 147 65.5 249.5t92.5 161t130 91t156 42t190 9.5q88 0 156 -11.5t129.5 -39t97 -73.5t62.5 -118t24.5 -170t-18.5 -229q-23 -147 -66 -249t-93 -160t-130 -90t-155.5 -40t-192.5 -8q-104 0 -181 17.5t-142.5 59.5t-96 113.5 t-44 182zM541.5 394.5q17.5 -48.5 115.5 -48.5q94 0 127 46t58 196q27 152 8 192.5t-117 40.5q-90 0 -122.5 -42.5t-57.5 -194.5q-29 -141 -11.5 -189.5zM688 1300l205 293h297l-279 -293h-223z" />
<glyph horiz-adv-x="1208" d="M172 594l100 573h400l-101 -635q-18 -113 9.5 -149.5t93 -36.5t98.5 38t51 148l101 635h399l-100 -696q-16 -100 -45 -177t-61 -127t-83 -85t-90 -53.5t-103.5 -27.5t-103.5 -10t-108 -1q-555 0 -457 604zM496 1583h297l110 -293h-223z" />
<glyph horiz-adv-x="1239" d="M225 1167h416l104 -331l197 331h442l-489 -757l-64 -412h-397l64 412zM694 1290l205 293h297l-278 -293h-224z" />
<glyph horiz-adv-x="1095" d="M86 0l184 1165h396l-31 -190h160q72 0 132 -18.5t113.5 -61.5t75 -128t2.5 -202q-16 -100 -50 -171.5t-70.5 -107.5t-90 -55.5t-88.5 -23.5t-84 -4q-102 0 -217 33l-37 -236h-395zM565 526h76q45 0 57.5 11.5t20.5 56.5q6 41 -5.5 53t-51.5 12h-76z" />
<glyph horiz-adv-x="495" d="M61 -240l23 148q61 0 74 63l6 31h-23q-51 0 -43 51l37 234q8 55 60 55h227q49 0 41 -55l-53 -328q-32 -200 -249 -207q-56 -2 -100 8z" />
<glyph horiz-adv-x="882" d="M184 653l52 328q32 200 248 207q56 2 100 -8l-23 -148q-61 0 -74 -63l-4 -31h23q51 0 43 -51l-37 -234q-8 -55 -61 -55h-228q-47 0 -39 55zM575 653l52 328q32 200 248 207q56 2 100 -8l-23 -148q-61 0 -73 -63l-5 -31h23q51 0 43 -51l-37 -234q-10 -55 -61 -55h-228 q-47 0 -39 55z" />
<glyph horiz-adv-x="882" d="M188 606l23 148q61 0 74 63l6 31h-23q-51 0 -43 51l37 234q8 55 60 55h227q49 0 41 -55l-53 -328q-32 -200 -249 -207q-56 -2 -100 8zM580 606l22 148q61 0 74 63l6 31h-23q-51 0 -43 51l37 234q10 55 60 55h227q49 0 41 -55l-53 -328q-32 -200 -249 -207q-55 -2 -99 8z " />
<glyph horiz-adv-x="882" d="M55 -240l23 148q61 0 74 63l6 31h-23q-51 0 -43 51l37 234q10 55 59 55h228q49 0 41 -55l-54 -328q-32 -200 -248 -207q-56 -2 -100 8zM446 -240l23 148q61 0 74 63l6 31h-23q-51 0 -43 51l37 234q8 55 60 55h227q49 0 41 -55l-53 -328q-32 -200 -249 -207q-56 -2 -100 8 z" />
<glyph horiz-adv-x="565" d="M94 0l160 764h297l-82 -764h-375zM258 881l39 239q6 47 53 47h234q49 0 43 -47l-39 -239q-6 -51 -58 -52h-233q-47 1 -39 52z" />
<glyph horiz-adv-x="849" d="M119 242l24 159h686l-24 -159h-686zM178 831q35 215 126 287t306 72q207 0 279 -91t37 -308q-33 -199 -124 -268.5t-308 -69.5q-205 0 -276 89.5t-40 288.5zM471 697.5q8 -23.5 57 -23.5q53 0 68.5 21.5t30.5 117.5q18 100 11 128t-63 28q-53 0 -67.5 -27t-30.5 -129 q-14 -92 -6 -115.5z" />
<glyph horiz-adv-x="843" d="M113 244l24 159h735l-24 -159h-735zM143 471l316 696h350l80 -696h-264l-9 111h-135l-51 -111h-287zM547 764h61l-6 145z" />
<glyph horiz-adv-x="1069" d="M80 397l24 158l101 10l6 39l-96 12l24 152l101 14q12 82 31.5 140.5t69.5 124t150.5 100.5t247.5 35q215 0 465 -47l-45 -291q-238 23 -368 22q-43 0 -58.5 -1t-41 -8t-36 -24.5t-16.5 -50.5l336 -12l-25 -156l-340 -10l-6 -39l336 -10l-25 -158q-23 0 -57.5 -1t-110 -3 t-125 -4t-47.5 -4q2 -14 -1 -24.5t5.5 -18.5t10.5 -13t14 -9.5t17.5 -5.5t19.5 -2t21 -1h20h20l381 27l-45 -291q-125 -57 -489 -57q-82 0 -148.5 18.5t-126 59.5t-86 122.5t-12.5 194.5z" />
<glyph horiz-adv-x="1009" d="M104 299l138 868h397l-107 -673q-4 -27 -5 -46.5t4.5 -34t9.5 -24.5t16 -16t20.5 -9.5t28 -5.5t29.5 -2h35h348l-55 -356h-607q-131 0 -203 73.5t-49 225.5zM698 844l21 274l22 137h234l-23 -137l-63 -274h-191z" />
<glyph horiz-adv-x="1103" d="M113 33l43 276q268 -14 481 -14q49 1 59 41l6 29q4 25 -8 33t-39 8h-204q-328 0 -271 372l13 76q25 152 114.5 236t284.5 84q373 0 571 -52l-43 -280q-242 18 -475 18q-51 0 -57 -49l-4 -25q-6 -45 43 -45h225q309 0 250 -387l-10 -61q-29 -182 -117 -247.5t-244 -65.5 q-546 0 -618 53zM627 1296l204 293h297l-278 -293h-223z" />
<glyph horiz-adv-x="1103" d="M113 33l43 276q268 -14 481 -14q49 1 59 41l6 29q4 25 -8 33t-39 8h-204q-328 0 -271 372l13 76q25 152 114.5 236t284.5 84q373 0 571 -52l-43 -280q-242 18 -475 18q-51 0 -57 -49l-4 -25q-6 -45 43 -45h225q309 0 250 -387l-10 -61q-29 -182 -117 -247.5t-244 -65.5 q-546 0 -618 53zM326 -371l26 162l80 31q45 18 54.5 32.5t19.5 73.5h239q-25 -160 -90 -229.5t-204 -69.5h-125z" />
<glyph horiz-adv-x="1177" d="M242 811l57 356h995l-57 -356h-299l-129 -811h-397l129 811h-299zM522 1583h228l71 -104l111 104h250l-250 -287h-258z" />
<glyph horiz-adv-x="1034" d="M41 0l57 356l518 455h-446l55 356h955l-56 -356l-489 -455h418l-58 -356h-954zM610 1290l205 293h297l-278 -293h-224z" />
<glyph horiz-adv-x="1034" d="M41 0l57 356l518 455h-446l55 356h955l-56 -356l-489 -455h418l-58 -356h-954zM590 1337l31 193q6 51 57 51h184q47 0 39 -51l-31 -193q-6 -47 -53 -47h-184q-49 0 -43 47z" />
<glyph horiz-adv-x="1134" d="M70 0l184 1165h555q190 0 288.5 -113.5t63.5 -340.5q-16 -111 -51 -178.5t-62.5 -87t-76.5 -42.5l125 -403h-418l-74 373l-78 8l-59 -381h-397zM567 629h109q35 0 54.5 24.5t27.5 81.5q12 51 4 83t-51 32h-109zM676 1288l205 293h297l-279 -293h-223z" />
<glyph horiz-adv-x="1269" d="M41 0l539 1167h499l152 -1167h-381l-25 178h-295l-77 -178h-412zM651 1520h137q-10 -96 86 -97q104 0 111 97h137q-10 -106 -75.5 -168t-174.5 -62q-106 0 -167.5 63t-53.5 167zM659 473h140l-31 232z" />
<glyph horiz-adv-x="1036" d="M139 299l137 868h398l-107 -673q-4 -27 -5 -46.5t4 -34t9.5 -24.5t16.5 -16t20.5 -9.5t27.5 -5.5t30 -2h35h348l-56 -356h-606q-131 0 -203 73.5t-49 225.5zM383 1290l205 293h297l-279 -293h-223z" />
<glyph horiz-adv-x="1044" d="M136.5 467q5.5 90 23.5 209q45 287 169 402.5t402 115.5q170 0 260 -12.5t191 -59.5l-41 -264q-205 41 -334 41q-39 0 -69.5 -3t-54.5 -14.5t-39 -19.5t-28.5 -31.5t-20.5 -37t-15.5 -51t-11.5 -56.5l-11 -72q-2 -18 -10 -61t-10 -59.5t-4.5 -51t3 -49t16.5 -37t31.5 -33 t52.5 -18.5t75 -8l346 39l-41 -260q-111 -53 -192 -63.5t-281 -10.5q-123 0 -208 37t-128 95.5t-59.5 150.5t-11 182zM639 1317l205 293h297l-279 -293h-223z" />
<glyph horiz-adv-x="1042" d="M131 252l102 651q41 262 336 266q420 0 605 -34l-48 -299h-440q-43 0 -57.5 -14.5t-20.5 -53.5l-4 -27l420 -16l-45 -289l-424 -14l-4 -25q-6 -41 9 -53t54 -12h433l-48 -299q-106 -25 -270 -34t-274 -6l-111 3q-254 6 -213 256zM469 1579h227l72 -104l111 104h249 l-249 -287h-258z" />
<glyph horiz-adv-x="1183" d="M113 0l186 1171h580q92 0 160.5 -25.5t109.5 -72.5t65.5 -104.5t32.5 -134t6 -148.5t-12 -160q-12 -111 -37.5 -195.5t-54.5 -140t-76 -94.5t-79.5 -57.5t-91 -27.5t-87.5 -10t-87 -1h-28h-587zM502 1581h227l72 -104l110 104h250l-250 -287h-258zM563 336h133 q37 0 62.5 18.5t42 57.5t25 74.5t18.5 93.5q20 145 5 200.5t-73 55.5h-133z" />
<glyph horiz-adv-x="1230" d="M92 0l184 1169h392l213 -495l71 495h396l-185 -1169h-389l-209 485l-76 -485h-397zM721 1292l205 293h297l-279 -293h-223z" />
<glyph horiz-adv-x="1230" d="M92 0l184 1169h392l213 -495l71 495h396l-185 -1169h-389l-209 485l-76 -485h-397zM549 1579h227l72 -104l110 104h250l-250 -287h-258z" />
<glyph horiz-adv-x="1208" d="M138.5 362.5q-13.5 110.5 15.5 262.5q23 147 65.5 249.5t92.5 161t130 91t156 42t190 9.5q88 0 156 -11.5t129.5 -39t97 -73.5t62.5 -118t24.5 -170t-18.5 -229q-23 -147 -66 -249t-93 -160t-130 -90t-155.5 -40t-192.5 -8q-104 0 -181 17.5t-142.5 59.5t-96 113.5 t-44 182zM520 1300l205 293h297l-279 -293h-223zM541.5 394.5q17.5 -48.5 115.5 -48.5q94 0 127 46t58 196q27 152 8 192.5t-117 40.5q-90 0 -122.5 -42.5t-57.5 -194.5q-29 -141 -11.5 -189.5zM874 1300l205 293h297l-278 -293h-224z" />
<glyph horiz-adv-x="1134" d="M70 0l184 1165h555q190 0 288.5 -113.5t63.5 -340.5q-16 -111 -51 -178.5t-62.5 -87t-76.5 -42.5l125 -403h-418l-74 373l-78 8l-59 -381h-397zM444 1575h228l71 -105l111 105h250l-250 -287h-258zM567 629h109q35 0 54.5 24.5t27.5 81.5q12 51 4 83t-51 32h-109z" />
<glyph horiz-adv-x="1208" d="M172 594l100 573h400l-101 -635q-18 -113 9.5 -149.5t93 -36.5t98.5 38t51 148l101 635h399l-100 -696q-16 -100 -45 -177t-61 -127t-83 -85t-90 -53.5t-103.5 -27.5t-103.5 -10t-108 -1q-555 0 -457 604zM641 1495q8 88 72.5 146.5t150.5 58.5t143.5 -59.5t49.5 -145.5 q-8 -88 -70.5 -146.5t-148.5 -58.5q-88 0 -146.5 59.5t-50.5 145.5zM780 1495q-2 -29 16.5 -48.5t47 -19.5t49 19.5t25 48.5t-14 49.5t-47.5 20.5t-50.5 -20.5t-25.5 -49.5z" />
<glyph horiz-adv-x="1208" d="M172 594l100 573h400l-101 -635q-18 -113 9.5 -149.5t93 -36.5t98.5 38t51 148l101 635h399l-100 -696q-16 -100 -45 -177t-61 -127t-83 -85t-90 -53.5t-103.5 -27.5t-103.5 -10t-108 -1q-555 0 -457 604zM528 1290l205 293h297l-278 -293h-224zM883 1290l204 293h297 l-278 -293h-223z" />
<glyph horiz-adv-x="1073" d="M168 811l57 356h996l-58 -356h-299l-129 -811h-397l129 811h-299zM223 -395l27 162l80 30q45 18 54 32.5t19 74.5h240q-25 -160 -90.5 -229.5t-204.5 -69.5h-125z" />
<glyph horiz-adv-x="1064" d="M92 442l27 166l123 47l82 512h397l-55 -350l168 66l-27 -166l-168 -66l-25 -157q-4 -27 -5 -46.5t4 -34t9.5 -24.5t16.5 -16t20.5 -9.5t28 -5.5t29.5 -2h35h348l-56 -356h-606q-131 0 -202.5 73.5t-49.5 225.5l31 190z" />
<glyph horiz-adv-x="1009" d="M123 381l8 43q29 172 141.5 253t282.5 48l6 49h279l-47 -307h-197q-43 0 -53.5 -7t-14.5 -36l-2 -12q-4 -10 -1 -16.5t2 -11.5t5.5 -8t8.5 -5t11 -2h14h18h18h424l-51 -324q-264 -55 -512 -43q-197 0 -285 86t-55 293zM555 891l39 239q8 47 59 48h232q47 0 41 -48 l-39 -239q-6 -51 -58 -51h-231q-53 0 -43 51z" />
<glyph horiz-adv-x="1689" d="M119.5 353q-13.5 109 15.5 261q23 147 65 251t94 164.5t130 94t155.5 44t190.5 10.5q180 0 277 -43q72 35 178 34q418 0 602 -34l-47 -299h-441q-43 0 -56 -13.5t-19 -54.5l-4 -27l417 -16l-45 -289l-424 -14l-4 -25q-6 -41 9.5 -53t54.5 -12h432l-47 -299 q-106 -25 -270 -34t-275 -6l-111 3q-78 4 -120 24q-104 -31 -293 -30q-104 0 -180 16.5t-142.5 57t-97.5 110.5t-44.5 179zM523.5 394.5q17.5 -48.5 115.5 -48.5q94 0 127 46t57 196q27 152 8.5 192.5t-116.5 40.5q-90 0 -122.5 -42.5t-57.5 -194.5q-29 -141 -11.5 -189.5z " />
<glyph horiz-adv-x="1239" d="M225 1167h416l104 -331l197 331h442l-489 -757l-64 -412h-397l64 412zM450.5 1425.5q8.5 55.5 54.5 94.5t101.5 39t88 -39t24.5 -95q-10 -55 -55.5 -95t-100.5 -40t-88 40t-24.5 95.5zM973 1425q8 55 54 94.5t101.5 39.5t88 -39t24.5 -95q-10 -55 -55 -95t-100.5 -40 t-89 40t-23.5 95z" />
<glyph horiz-adv-x="1048" d="M57 0l45 283l121 41l21 127h-115l33 206l121 33l8 49q14 90 39.5 159t78 134.5t146.5 101t225 35.5l394 -26l-52 -326h-334q-59 0 -76.5 -15.5t-25.5 -66.5l-6 -37l293 -30l-35 -222h-297l-18 -112h421l-53 -334h-934z" />
<glyph horiz-adv-x="1146" d="M207 1169h418l49 -395l190 395h445l-391 -641h133l-21 -139h-196l-9 -43h197l-21 -139h-196l-33 -207h-397l33 207h-181l21 139h180l8 43h-180l20 139h113z" />
<glyph horiz-adv-x="2961" d="M137 659l37 232q43 276 328 276h207q281 0 237 -276l-37 -232q-43 -276 -327 -276h-207q-281 0 -238 276zM401 680q0 -18 15.5 -29.5t48.5 -11.5h104q84 0 95 82l16 108q8 49 -7.5 65.5t-56.5 16.5h-104q-80 0 -92 -82l-17 -108q-2 -23 -2 -41zM643 0l713 1167h256 l-701 -1167h-268zM1315 283l37 231q43 276 329 277h205q281 0 238 -277l-37 -231q-43 -276 -330 -277h-205q-280 1 -237 277zM1579 303q0 -18 15.5 -29.5t47.5 -11.5h107q82 0 92 82l17 109q8 49 -6.5 65.5t-55.5 16.5h-106q-80 0 -93 -82l-16 -109q-2 -23 -2 -41zM2191 283 l37 231q20 135 98 206t228 71h209q279 0 235 -277l-37 -231q-43 -276 -327 -277h-209q-277 1 -234 277zM2456 344q-6 -41 5 -61.5t58 -20.5h102q86 0 97 82l16 109q8 47 -8 64.5t-57 17.5h-103q-82 0 -94 -82z" />
<glyph horiz-adv-x="774" d="M229 1087l250 287h269l141 -287h-227l-84 105l-119 -105h-230z" />
<glyph horiz-adv-x="825" d="M250 1225q131 152 276 151q47 0 106.5 -35.5t98.5 -35.5q106 -6 205 81l29 -151q-121 -147 -254 -148q-45 0 -116 36t-110 36q-98 0 -202 -72z" />
<glyph horiz-adv-x="524" d="M258 1294q8 88 74.5 149.5t152.5 61.5t141.5 -61.5t47.5 -149.5t-73.5 -148.5t-152 -60.5t-142.5 60.5t-48 148.5zM397 1294q-2 -29 17.5 -48t48.5 -19t48 19.5t23.5 48t-14 49t-47.5 20.5t-50.5 -20.5t-25.5 -49.5z" />
<glyph horiz-adv-x="1345" d="M168 -2l133 840h-113l23 145h113l28 184h398l-29 -184h227l29 184h397l-28 -184h98l-23 -145h-98l-133 -840h-397l61 387h-227l-62 -387h-397zM682 741h227l17 97h-228z" />
<glyph horiz-adv-x="1179" d="M90 -2l184 1169h398l-68 -426h227l68 426h397l-184 -1169h-397l61 387h-227l-62 -387h-397zM477 1290l250 287h268l142 -287h-228l-63 105l-119 -105h-250z" />
<glyph horiz-adv-x="1144" d="M156 647q45 285 152.5 404.5t338.5 134.5q406 25 588 -51l-43 -271q-197 27 -387 27q-49 0 -71.5 -1t-53.5 -10.5t-44 -26.5t-30.5 -52t-28 -85t-22.5 -126q-2 -14 -9 -48t-9 -50.5t-4.5 -45t3 -43t15.5 -32t31.5 -24.5t52.5 -7q106 0 119 86l8 49h-78l31 203 q117 31 344 31q61 0 135 -7l-111 -702h-299l-77 90q-43 -59 -98.5 -81.5t-172.5 -22.5q-386 -1 -280 661zM625 1542h137q-10 -96 86 -96q104 0 110 96h138q-10 -106 -76 -167.5t-174 -61.5q-106 0 -167.5 62.5t-53.5 166.5z" />
<glyph horiz-adv-x="692" d="M47 43l49 315q70 0 112 8.5t62.5 33t24.5 41t12 61.5l107 665h397l-131 -829q-14 -90 -63.5 -181t-131.5 -126q-125 -47 -245.5 -41t-192.5 53zM303 1290l250 287h268l142 -287h-228l-63 105l-119 -105h-250z" />
<glyph horiz-adv-x="1044" d="M136.5 467q5.5 90 23.5 209q45 287 169 402.5t402 115.5q170 0 260 -12.5t191 -59.5l-41 -264q-205 41 -334 41q-39 0 -69.5 -3t-54.5 -14.5t-39 -19.5t-28.5 -31.5t-20.5 -37t-15.5 -51t-11.5 -56.5l-11 -72q-2 -18 -10 -61t-10 -59.5t-4.5 -51t3 -49t16.5 -37t31.5 -33 t52.5 -18.5t75 -8l346 39l-41 -260q-111 -53 -192 -63.5t-281 -10.5q-123 0 -208 37t-128 95.5t-59.5 150.5t-11 182zM616 1364l31 192q6 51 58 52h184q47 0 39 -52l-31 -192q-6 -47 -53 -47h-185q-49 0 -43 47z" />
<glyph horiz-adv-x="1044" d="M136.5 467q5.5 90 23.5 209q45 287 169 402.5t402 115.5q170 0 260 -12.5t191 -59.5l-41 -264q-205 41 -334 41q-39 0 -69.5 -3t-54.5 -14.5t-39 -19.5t-28.5 -31.5t-20.5 -37t-15.5 -51t-11.5 -56.5l-11 -72q-2 -18 -10 -61t-10 -59.5t-4.5 -51t3 -49t16.5 -37t31.5 -33 t52.5 -18.5t75 -8l346 39l-41 -260q-111 -53 -192 -63.5t-281 -10.5q-123 0 -208 37t-128 95.5t-59.5 150.5t-11 182zM438 1317l250 287h268l142 -287h-228l-63 104l-119 -104h-250z" />
<glyph horiz-adv-x="1144" d="M156 647q45 285 152.5 404.5t338.5 134.5q406 25 588 -51l-43 -271q-197 27 -387 27q-49 0 -71.5 -1t-53.5 -10.5t-44 -26.5t-30.5 -52t-28 -85t-22.5 -126q-2 -14 -9 -48t-9 -50.5t-4.5 -45t3 -43t15.5 -32t31.5 -24.5t52.5 -7q106 0 119 86l8 49h-78l31 203 q117 31 344 31q61 0 135 -7l-111 -702h-299l-77 90q-43 -59 -98.5 -81.5t-172.5 -22.5q-386 -1 -280 661zM668 1360l30 192q6 51 58 52h184q47 0 39 -52l-31 -192q-6 -47 -53 -47h-184q-49 0 -43 47z" />
<glyph horiz-adv-x="1144" d="M156 647q45 285 152.5 404.5t338.5 134.5q406 25 588 -51l-43 -271q-197 27 -387 27q-49 0 -71.5 -1t-53.5 -10.5t-44 -26.5t-30.5 -52t-28 -85t-22.5 -126q-2 -14 -9 -48t-9 -50.5t-4.5 -45t3 -43t15.5 -32t31.5 -24.5t52.5 -7q106 0 119 86l8 49h-78l31 203 q117 31 344 31q61 0 135 -7l-111 -702h-299l-77 90q-43 -59 -98.5 -81.5t-172.5 -22.5q-386 -1 -280 661zM453 1313l249 286h269l141 -286h-227l-64 104l-119 -104h-249z" />
<glyph horiz-adv-x="1208" d="M172 594l100 573h400l-101 -635q-18 -113 9.5 -149.5t93 -36.5t98.5 38t51 148l101 635h399l-100 -696q-16 -100 -45 -177t-61 -127t-83 -85t-90 -53.5t-103.5 -27.5t-103.5 -10t-108 -1q-555 0 -457 604zM600 1520h137q-10 -96 86 -97q104 0 111 97h137 q-10 -106 -75.5 -168t-174.5 -62q-106 0 -167.5 63t-53.5 167z" />
<glyph horiz-adv-x="1103" d="M113 33l43 276q268 -14 481 -14q49 1 59 41l6 29q4 25 -8 33t-39 8h-204q-328 0 -271 372l13 76q25 152 114.5 236t284.5 84q373 0 571 -52l-43 -280q-242 18 -475 18q-51 0 -57 -49l-4 -25q-6 -45 43 -45h225q309 0 250 -387l-10 -61q-29 -182 -117 -247.5t-244 -65.5 q-546 0 -618 53zM406 1296l249 287h269l141 -287h-227l-64 105l-119 -105h-249z" />
<glyph horiz-adv-x="548" d="M59 0l185 1167h397l-184 -1167h-398zM326 1300l30 193q6 51 58 51h184q47 0 39 -51l-31 -193q-6 -47 -53 -47h-184q-49 0 -43 47z" />
<glyph horiz-adv-x="524" d="M176 477l39 240q6 51 57 51h232q53 0 43 -51l-39 -240q-8 -47 -57 -47h-232q-49 0 -43 47z" />
<glyph horiz-adv-x="628" d="M178 504l47 307q10 72 80 72h295q70 0 59 -72l-47 -307q-10 -66 -84 -66h-295q-65 0 -55 66z" />
<glyph horiz-adv-x="507" d="M193 657l51 328q32 200 248 207q56 2 100 -8l-23 -148q-61 0 -73 -63l-4 -31h22q51 0 43 -51l-37 -234q-8 -55 -61 -55h-228q-46 0 -38 55z" />
<glyph horiz-adv-x="507" d="M195 610l22 148q61 0 74 63l6 31h-23q-51 0 -43 51l37 234q10 55 60 55h227q49 0 41 -55l-53 -328q-32 -200 -249 -207q-55 -2 -99 8z" />
<glyph horiz-adv-x="1126" d="M92 0l184 1169h562q203 0 300 -77.5t68 -255.5q-20 -125 -82.5 -182.5t-146.5 -57.5q78 -10 125 -96t28 -209q-12 -82 -43.5 -138.5t-67.5 -86t-101.5 -45t-117.5 -18.5t-147 -3h-561zM541 317h123q29 0 47 15.5t26 66.5q10 78 -49 78h-123zM598 1339l31 193q6 51 57 51 h184q47 0 39 -51l-30 -193q-6 -47 -54 -47h-184q-49 0 -43 47zM606 731h123q61 0 70 64q10 59 -51 59h-123z" />
<glyph horiz-adv-x="1181" d="M92 0l187 1171h579q92 0 160.5 -25.5t109.5 -72.5t66 -104.5t33 -134t6 -148.5t-12 -160q-12 -111 -38 -195.5t-54.5 -140t-75.5 -94.5t-80 -57.5t-91.5 -27.5t-87 -10t-87.5 -1h-27h-588zM543 336h133q37 0 62.5 18.5t42 57.5t24.5 74.5t18 93.5q20 145 5 200.5 t-72 55.5h-133zM621 1341l30 193q6 51 58 51h184q47 0 39 -51l-31 -193q-6 -47 -53 -47h-184q-49 0 -43 47z" />
<glyph horiz-adv-x="1044" d="M92 0l144 903q41 262 335 266q420 0 605 -34l-48 -299h-440q-43 0 -57.5 -14.5t-20.5 -53.5l-10 -68l420 -16l-45 -289l-426 -14l-60 -381h-397zM598 1339l31 193q6 51 57 51h184q47 0 39 -51l-30 -193q-6 -47 -54 -47h-184q-49 0 -43 47z" />
<glyph horiz-adv-x="1619" d="M63 0l293 1169h523l8 -639l213 639h536l-77 -1169h-392l33 600l-180 -600h-414l-2 596l-137 -596h-404zM883 1339l30 193q6 51 58 51h184q47 0 39 -51l-31 -193q-6 -47 -53 -47h-184q-49 0 -43 47z" />
<glyph horiz-adv-x="1736" d="M225 1167h412l18 -704l226 704h411l-106 -270l61 -434l228 704h411l-459 -1167h-499l-13 227l-81 -227h-500zM784 1583h297l111 -293h-223z" />
<glyph horiz-adv-x="1087" d="M70 0l184 1165h575q399 0 332 -434q-16 -104 -52 -179t-75 -112t-95 -57.5t-93 -23.5t-90 -4q-11 0 -15 -1q-53 -2 -132 7.5t-83 19.5l-59 -381h-397zM567 629h109q35 0 54.5 24.5t27.5 81.5q12 51 4 83t-51 32h-109zM600 1335l31 193q6 51 57 51h184q47 0 39 -51 l-30 -193q-6 -47 -54 -47h-184q-49 0 -43 47z" />
<glyph horiz-adv-x="1736" d="M225 1167h412l18 -704l226 704h411l-106 -270l61 -434l228 704h411l-459 -1167h-499l-13 227l-81 -227h-500zM991 1290l205 293h297l-279 -293h-223z" />
<glyph horiz-adv-x="1239" d="M225 1167h416l104 -331l197 331h442l-489 -757l-64 -412h-397l64 412zM508 1583h297l110 -293h-223z" />
<glyph horiz-adv-x="1736" d="M225 1167h412l18 -704l226 704h411l-106 -270l61 -434l228 704h411l-459 -1167h-499l-13 227l-81 -227h-500zM702 1425q8 55 54.5 94.5t101.5 39.5t88 -39t25 -95q-10 -55 -55.5 -95t-100.5 -40t-89 40t-24 95zM1225 1425.5q8 55.5 54 94.5t101.5 39t88 -39t24.5 -95 q-10 -55 -55 -95t-100.5 -40t-88 40t-24.5 95.5z" />
<glyph horiz-adv-x="1103" d="M113 33l43 276q268 -14 481 -14q49 1 59 41l6 29q4 25 -8 33t-39 8h-204q-328 0 -271 372l13 76q25 152 114.5 236t284.5 84q373 0 571 -52l-43 -280q-242 18 -475 18q-51 0 -57 -49l-4 -25q-6 -45 43 -45h225q309 0 250 -387l-10 -61q-29 -182 -117 -247.5t-244 -65.5 q-546 0 -618 53zM588 1343l30 193q6 51 58 51h184q47 0 39 -51l-31 -193q-6 -47 -53 -47h-184q-49 0 -43 47z" />
<glyph horiz-adv-x="1736" d="M225 1167h412l18 -704l226 704h411l-106 -270l61 -434l228 704h411l-459 -1167h-499l-13 227l-81 -227h-500zM745 1290l250 287h269l141 -287h-227l-64 105l-119 -105h-250z" />
<glyph horiz-adv-x="1073" d="M168 811l57 356h996l-58 -356h-299l-129 -811h-397l129 811h-299zM608 1337l31 193q6 51 57 51h185q47 0 39 -51l-31 -193q-6 -47 -53 -47h-185q-49 0 -43 47z" />
<glyph horiz-adv-x="1239" d="M225 1167h416l104 -331l197 331h442l-489 -757l-64 -412h-397l64 412zM496 1290l249 287h269l141 -287h-227l-64 105l-119 -105h-249z" />
<glyph horiz-adv-x="2148" d="M133 606q25 154 68 255.5t104.5 151.5t124 67.5t150.5 17.5q330 0 516 -74l-37 -233q-121 12 -303 12q-66 0 -90.5 -3t-56 -27.5t-47 -78t-32.5 -153.5q-10 -61 -12 -105.5t7.5 -72t18.5 -44t33.5 -23.5t43 -9t53.5 -2q180 0 452 114l191 1203h397l-151 -955 q307 233 319 440h416q-35 -258 -324 -520l258 -567h-430l-141 338q-86 -53 -162 -92l-39 -246h-397l12 74q-240 -74 -430 -74q-350 0 -457.5 138t-54.5 468z" />
<glyph horiz-adv-x="1521" d="M92 0l184 1186q35 219 247 300t405.5 -7t183.5 -285l-45 -821q-1 -27 19 -25q24 6 30 31l178 1120h398l-185 -1182q-20 -125 -114.5 -209.5t-214 -105t-236.5 1t-192.5 110.5t-67.5 220l45 831q2 25 -23.5 18.5t-29.5 -32.5l-182 -1151h-400z" />
<glyph horiz-adv-x="1855" d="M63 0l254 1229q37 178 238 247.5t374 -13.5t142 -279l-78 -488q-4 -29 27 -27q34 1 37 27l78 496q30 184 226 269q176 76 356 30q167 -42 199 -166q9 -34 5 -72l-127 -1253h-401l123 1020q2 20 -17 20q-27 0 -37 -26l-2 -6l-78 -455q-35 -147 -225 -210.5t-362 -2.5 t-158 219l68 471q2 20 -17 20q-27 -1 -37 -28l-2 -6l-190 -1016h-396z" />
<glyph horiz-adv-x="1855" d="M63 0l254 1229q37 178 238 247.5t374 -13.5t142 -279l-78 -488q-4 -29 27 -27q34 1 37 27l78 496q30 184 226 269q176 76 356 30q167 -42 199 -166q9 -34 5 -72l-127 -1253h-401l123 1020q2 20 -17 20q-27 0 -37 -26l-2 -6l-78 -455q-35 -147 -225 -210.5t-362 -2.5 t-158 219l68 471q2 20 -17 20q-27 -1 -37 -28l-2 -6l-190 -1016h-396zM1034 1686l31 192q6 51 57 51h185q47 0 39 -51l-31 -192q-6 -47 -53 -48h-185q-49 1 -43 48z" />
<glyph horiz-adv-x="1521" d="M92 0l184 1186q35 219 247 300t405.5 -7t183.5 -285l-45 -821q-1 -27 19 -25q24 6 30 31l178 1120h398l-185 -1182q-20 -125 -114.5 -209.5t-214 -105t-236.5 1t-192.5 110.5t-67.5 220l45 831q2 25 -23.5 18.5t-29.5 -32.5l-182 -1151h-400zM657 1769q131 152 277 152 q45 0 104.5 -36t100.5 -36q106 -6 204 82l29 -151q-121 -147 -254 -148q-45 0 -115.5 36t-109.5 36q-98 0 -203 -72z" />
<glyph horiz-adv-x="1521" d="M92 0l184 1186q35 219 247 300t405.5 -7t183.5 -285l-45 -821q-1 -27 19 -25q24 6 30 31l178 1120h398l-185 -1182q-20 -125 -114.5 -209.5t-214 -105t-236.5 1t-192.5 110.5t-67.5 220l45 831q2 25 -23.5 18.5t-29.5 -32.5l-182 -1151h-400zM993 1640l205 293h297 l-278 -293h-224z" />
<glyph horiz-adv-x="1521" d="M92 0l184 1186q35 219 247 300t405.5 -7t183.5 -285l-45 -821q-1 -27 19 -25q24 6 30 31l178 1120h398l-185 -1182q-20 -125 -114.5 -209.5t-214 -105t-236.5 1t-192.5 110.5t-67.5 220l45 831q2 25 -23.5 18.5t-29.5 -32.5l-182 -1151h-400zM739 1927h228l71 -104 l111 104h250l-250 -287h-258z" />
<glyph horiz-adv-x="1521" d="M92 0l184 1186q35 219 247 300t405.5 -7t183.5 -285l-45 -821q-1 -27 19 -25q24 6 30 31l178 1120h398l-185 -1182q-20 -125 -114.5 -209.5t-214 -105t-236.5 1t-192.5 110.5t-67.5 220l45 831q2 25 -23.5 18.5t-29.5 -32.5l-182 -1151h-400zM582 -653l20 127 q29 0 44.5 7t19.5 14t6 22l2 10h-23q-51 0 -43 51l37 234q10 55 60 55h227q49 0 41 -55l-49 -308q-12 -72 -51 -113.5t-87.5 -52t-94.5 -9.5t-78 9z" />
<glyph horiz-adv-x="942" d="M193 784l71 461q23 137 95.5 206t207.5 69h244q152 0 216.5 -75t45.5 -188l-74 -473q-43 -262 -286 -262h-244q-145 0 -220.5 69.5t-55.5 192.5zM502 862q-6 -45 13.5 -58t51.5 -13h58q41 0 61.5 12t26.5 57l61 322q12 70 -55 69h-78q-31 0 -47 -9t-21.5 -21.5 t-9.5 -38.5z" />
<glyph horiz-adv-x="577" d="M215 1202l31 205q137 37 203 113h294l-157 -998h-299l114 707q-25 -20 -71.5 -26.5t-80.5 -3.5z" />
<glyph horiz-adv-x="837" d="M125 522l41 258q129 70 317.5 207t198.5 197q8 51 -23.5 66.5t-121.5 15.5h-304l37 223q205 45 426 45q160 0 236 -99.5t53 -244.5q-33 -211 -305 -399h240l-43 -269h-752z" />
<glyph horiz-adv-x="839" d="M129 555l37 225h299q86 0 111.5 8.5t29.5 40.5l2 11q4 31 -19.5 39t-99.5 12l-221 8l37 244l227 8q105 5 121 18q12 9 15 29v8q6 33 -23 41t-96 8h-318l35 224q150 53 477 45q119 -2 184.5 -80t45.5 -199l-8 -53q-25 -154 -160 -172q129 -33 96 -238l-8 -41 q-37 -229 -320 -229h-48h-50h-47q-37 0 -49 1t-44 3t-47.5 4t-41 5t-43 7.5t-38 10.5t-36.5 12z" />
<glyph horiz-adv-x="923" d="M147 819l400 701h313l-305 -559h137l29 178l59 104h244l-45 -282h82l-37 -230l-94 -43l-21 -162h-286l26 160h-454z" />
<glyph horiz-adv-x="845" d="M150 553l36 238h361q57 0 72.5 10t19.5 45l2 31q4 29 -8 42t-49 13h-60q-57 0 -65 -47h-254l131 635h659l-43 -269h-383l-20 -98q70 41 186 31q72 -6 120 -38t64.5 -74t22.5 -89t-2 -86l-20 -158q-18 -223 -326 -223q-247 0 -444 37z" />
<glyph horiz-adv-x="890" d="M221 1075q20 131 53 219t76 135.5t85 67t100 27.5q201 33 509 -29l-36 -227h-320q-47 0 -76.5 -9.5t-45 -33t-19.5 -40t-10 -55.5q63 33 215 33q285 0 237 -293l-22 -139q-20 -127 -98 -168t-226 -41h-164q-344 0 -258 553zM502 932q-12 -82 5 -111.5t83 -29.5h31 q35 0 50 9t17 36l6 41q4 20 3 32.5t-12 17.5t-36 5h-147z" />
<glyph horiz-adv-x="880" d="M213 1251l43 269h772l55 -121l-514 -877h-325l428 729h-459z" />
<glyph horiz-adv-x="946" d="M197 793l10 71q16 115 141 131q-49 25 -70.5 65t-18.5 82t7 87l15 90q10 70 40.5 114t80 63.5t95.5 25.5t113 6h232q133 0 194.5 -66.5t40.5 -193.5l-10 -60q-6 -41 -40 -81t-101 -48q68 -12 83 -83.5t3 -141.5l-17 -104q-12 -80 -40.5 -129.5t-79 -70t-87 -24.5 t-108.5 -4h-229q-299 1 -254 271zM504 823q-4 -27 9 -38t48 -11h70q41 0 54 11.5t17 37.5l9 43q4 23 -7.5 36t-48.5 13h-73q-39 0 -52.5 -12t-17.5 -37zM563 1196q-4 -29 8.5 -37t49.5 -8h71q29 0 44.5 5t19.5 13.5t6 26.5l6 31q6 33 -9.5 41t-47.5 8h-72q-35 0 -49.5 -8 t-20.5 -41z" />
<glyph horiz-adv-x="892" d="M172 535l37 229h319q47 0 78 9t46.5 35t19.5 44t12 61q-63 -33 -215 -32q-283 0 -233 313l16 115q18 131 98 181t221 46l183 -4q334 0 241 -592q-20 -135 -52 -221t-77 -129t-84 -59.5t-100 -24.5q-201 -32 -510 29zM528.5 1148q6.5 -13 42.5 -13h148q14 86 -4.5 109.5 t-85.5 23.5h-29q-35 0 -48 -10.5t-17 -40.5l-5 -21q-8 -35 -1.5 -48z" />
<glyph horiz-adv-x="940" d="M109 260l71 461q23 137 95.5 205.5t207.5 68.5h244q152 0 216.5 -74.5t45.5 -187.5l-74 -473q-43 -262 -286 -262h-244q-145 0 -220.5 69.5t-55.5 192.5zM418 338q-6 -45 13.5 -58.5t51.5 -13.5h58q41 0 61.5 12.5t26.5 57.5l61 321q12 70 -55 70h-78q-31 0 -47 -9 t-21.5 -21.5t-9.5 -39.5z" />
<glyph horiz-adv-x="575" d="M131 678l31 205q137 37 203 112h294l-157 -997h-299l114 707q-25 -20 -71.5 -26.5t-80.5 -3.5z" />
<glyph horiz-adv-x="839" d="M43 -2l41 258q129 70 317.5 207t198.5 196q8 51 -23.5 66.5t-121.5 15.5h-303l36 224q205 45 426 45q160 0 236 -99.5t53 -244.5q-33 -211 -305 -400h240l-43 -268h-752z" />
<glyph horiz-adv-x="841" d="M47 31l37 225h299q86 0 111.5 8t29.5 41l2 10q4 31 -19.5 39t-98.5 13l-222 8l37 243l228 9q105 5 120 17q12 9 15 30v8q6 33 -22.5 41t-96.5 8h-317l34 223q150 53 478 45q119 -2 184 -79.5t45 -198.5l-8 -53q-25 -154 -160 -172q129 -33 96 -238l-8 -41 q-37 -229 -319 -229h-48h-51h-47q-37 0 -49 1t-44 3t-47.5 4t-41 5t-43 7t-38 10.5t-36.5 12.5z" />
<glyph horiz-adv-x="925" d="M66 295l399 700h313l-305 -559h137l29 178l59 105h244l-45 -283h82l-37 -229l-94 -43l-21 -162h-286l26 160h-454z" />
<glyph horiz-adv-x="845" d="M68 29l36 237h361q57 0 72.5 10.5t19.5 45.5l2 30q4 29 -8 42.5t-49 13.5h-60q-57 0 -65 -48h-254l131 635h659l-43 -268h-383l-20 -98q70 41 186 30q72 -6 120 -37.5t64.5 -73.5t22.5 -89t-2 -86l-20 -158q-18 -223 -326 -223q-247 0 -444 37z" />
<glyph horiz-adv-x="890" d="M139 551q20 131 53 219t76 135t85 66.5t100 27.5q201 33 510 -28l-37 -228h-320q-47 0 -76.5 -9t-45 -32.5t-19.5 -40t-10 -55.5q63 33 215 33q285 0 237 -293l-22 -139q-20 -127 -98 -168t-226 -41h-164q-344 0 -258 553zM420 408q-12 -82 5 -112t83 -30h31q35 0 50 9.5 t17 35.5l6 41q4 20 3 32.5t-12 18t-36 5.5h-147z" />
<glyph horiz-adv-x="882" d="M131 727l43 268h772l55 -121l-514 -876h-325l428 729h-459z" />
</font>
</defs>
</svg>
