<?xml version="1.0" standalone="no"?>
<!DOCTYPE svg PUBLIC "-//W3C//DTD SVG 1.1//EN" "http://www.w3.org/Graphics/SVG/1.1/DTD/svg11.dtd" >
<svg xmlns="http://www.w3.org/2000/svg">
<metadata>
This is a custom SVG webfont generated by Font Squirrel.
Copyright   : Copyright c 2011 Natanael Gama exondiscoveredcom with Reserved Font Name Exo
Designer    : Natanael Gama
</metadata>
<defs>
<font id="ExoBlack" horiz-adv-x="1136" >
<font-face units-per-em="2048" ascent="1638" descent="-410" />
<missing-glyph horiz-adv-x="512" />
<glyph unicode="&#xfb01;" horiz-adv-x="1318" d="M23 813v240l147 34v60q0 193 130 325t349 138q115 2 306.5 -10.5t244.5 -38.5v-228l-395 2q-47 0 -82 -7t-74 -26.5t-60.5 -63.5t-21.5 -112v-39l688 -20v-1067h-397v813h-291v-813h-397v813h-147z" />
<glyph unicode="&#xfb02;" horiz-adv-x="1486" d="M23 813v240l147 34v80q0 137 36 228.5t103.5 136.5t142 61.5t177.5 16.5l659 -6v-1135q0 -68 10.5 -109t24.5 -56t41 -30q86 -43 100 -43v-231h-282q-150 0 -220.5 88t-70.5 299v946l-189 2q-76 0 -105.5 -35.5t-29.5 -132.5v-80h201v-274h-201v-813h-397v813h-147z" />
<glyph horiz-adv-x="1372" d="M115 0v1087h1142v-1087h-1142zM143 45l525 500l-525 493v-993zM164 1061l526 -496l520 496h-1046zM170 27h1038l-518 497zM713 545l516 -494v985z" />
<glyph horiz-adv-x="1372" d="M115 0v1087h1142v-1087h-1142zM143 45l525 500l-525 493v-993zM164 1061l526 -496l520 496h-1046zM170 27h1038l-518 497zM713 545l516 -494v985z" />
<glyph unicode="&#xd;" horiz-adv-x="1150" />
<glyph unicode=" "  horiz-adv-x="512" />
<glyph unicode="&#x09;" horiz-adv-x="512" />
<glyph unicode="&#xa0;" horiz-adv-x="512" />
<glyph unicode="!" horiz-adv-x="567" d="M94 1497h377l-43 -1096h-299zM111 47v240q0 51 49 51h235q47 0 47 -51v-240q0 -47 -47 -47h-235q-49 0 -49 47z" />
<glyph unicode="&#x22;" horiz-adv-x="1017" d="M98 1362v137h377v-137l-20 -275h-332zM545 1362v137h377v-137l-21 -275h-336z" />
<glyph unicode="#" horiz-adv-x="1533" d="M23 393l40 271h302l32 174h-305l43 270h316l75 391h271l-76 -391h180l74 391h270l-74 -391h342l-38 -270h-345l-32 -176h344l-37 -271h-369l-75 -391h-271l76 391l-182 2l-76 -393h-270l75 393h-290zM635 664l192 -2l33 176h-192z" />
<glyph unicode="$" horiz-adv-x="1159" d="M63 981v125q0 207 113 303t301 102v177h221v-177q176 -8 344 -67v-309q-186 20 -430 20q-90 0 -120.5 -14.5t-30.5 -75.5v-23q0 -53 22.5 -75.5t100.5 -22.5h131q90 0 159.5 -29.5t110.5 -75.5t67.5 -106.5t36 -114t9.5 -108.5v-68q0 -451 -400 -458v-168h-221v168 q-27 0 -50.5 1t-40.5 2t-37.5 3t-32 3t-31 6t-27.5 7t-32.5 9.5t-32 10.5t-39 13t-43.5 14v309q225 -23 469 -22q66 0 93 19.5t27 64.5v33q0 47 -22.5 68.5t-85.5 21.5h-123q-111 0 -191.5 37t-119.5 86t-62.5 117.5t-28 109.5t-4.5 84z" />
<glyph unicode="%" horiz-adv-x="1982" d="M49 991v232q0 135 67.5 205.5t217.5 70.5h207q281 0 280 -276v-232q0 -135 -67.5 -205.5t-216.5 -70.5h-207q-281 0 -281 276zM305 1053q0 -41 14.5 -61.5t61.5 -20.5h104q47 0 63.5 21.5t16.5 60.5v108q0 49 -17.5 65.5t-58.5 16.5h-104q-39 0 -59.5 -16.5t-20.5 -65.5 v-108zM393 0l930 1499h254l-915 -1499h-269zM1163 283v231q0 135 66.5 206t216.5 71h209q281 0 280 -277v-231q0 -135 -67.5 -206t-216.5 -71h-209q-279 1 -279 277zM1419 344q0 -41 14.5 -61.5t61.5 -20.5h102q82 0 82 82v109q0 49 -18.5 65.5t-58.5 16.5h-103 q-39 0 -59.5 -16.5t-20.5 -65.5v-109z" />
<glyph unicode="&#x26;" horiz-adv-x="1464" d="M47.5 485.5q32.5 153.5 169.5 276.5l115 102l-86 133q-78 115 -65.5 220.5t83 183.5t160.5 94q72 12 147.5 15t119.5 1t125 -16t96.5 -17t97.5 -24v-295h-273q-68 0 -87 -21.5t-6 -52t52 -86.5l234 -327l262 225l143 -180l-137 -221l-72 -88l314 -408h-467l-125 172 l-123 -104q-63 -53 -174 -74t-237.5 21t-200.5 153q-98 164 -65.5 317.5zM434 397q72 -86 148 -8l53 55l-115 150l-61 -59q-76 -72 -25 -138z" />
<glyph unicode="'" horiz-adv-x="524" d="M63 1362v137h400v-137l-21 -275h-356z" />
<glyph unicode="(" horiz-adv-x="845" d="M86 668q0 209 40 399t97.5 311t113.5 212t96 131l40 40h350q-14 -20 -36.5 -57t-81 -155.5t-103.5 -240.5t-82 -298t-37 -342q0 -510 258 -967q47 -84 82 -131h-350q-16 12 -41.5 35.5t-92.5 117t-118 207t-93 312.5t-42 426z" />
<glyph unicode=")" horiz-adv-x="845" d="M23 -430q14 18 36.5 52t81 146.5t103.5 233.5t81.5 303t36.5 363q0 474 -262 962l-77 131h350q16 -14 41.5 -41.5t92 -127t118 -215t93.5 -308t42 -401.5q0 -166 -21.5 -316.5t-55.5 -258t-76 -199t-83 -149.5t-74.5 -99t-55.5 -59l-21 -17h-350z" />
<glyph unicode="*" horiz-adv-x="856" d="M57 1159v144l285 38l10 -192zM156 856l51 283l186 -49l-100 -277zM322 1479l137 45l125 -258l-181 -70zM360 940l105 162l233 -182l-86 -115zM471 1169l244 166l84 -116l-207 -199z" />
<glyph unicode="+" horiz-adv-x="933" d="M41 571v316h266v268h316v-268h270v-316h-270v-268h-316v268h-266z" />
<glyph unicode="," horiz-adv-x="522" d="M98 51v234q0 55 52 55h227q49 0 49 -55v-308q0 -72 -33 -113.5t-80 -52t-93 -9.5t-79 10l-32 8v127q41 -2 52 10t11 33v10h-22q-52 0 -52 51z" />
<glyph unicode="-" horiz-adv-x="724" d="M41 436v316h643v-316h-643z" />
<glyph unicode="." horiz-adv-x="526" d="M98 47v240q0 51 49 51h232q51 0 51 -51v-240q0 -47 -51 -47h-232q-49 0 -49 47z" />
<glyph unicode="/" horiz-adv-x="1028" d="M23 -147l575 1724h408l-576 -1724h-407z" />
<glyph unicode="0" horiz-adv-x="1271" d="M80 393v692q0 201 102.5 307.5t294.5 106.5h336q379 0 379 -393v-713q0 -184 -99.5 -288.5t-281.5 -104.5h-336q-197 0 -296 102.5t-99 290.5zM477 477q0 -53 21.5 -81.5t43 -34t52.5 -5.5h86q59 0 87 21.5t28 97.5v549q0 119 -99 119h-116q-102 0 -103 -119v-547z" />
<glyph unicode="1" horiz-adv-x="776" d="M45 1081v252l246 166h393v-1499h-397v1122z" />
<glyph unicode="2" horiz-adv-x="1191" d="M45 1161v297q281 61 623 62q231 0 349 -133.5t118 -358.5q0 -98 -45.5 -202.5t-127 -202t-133 -148.5t-124.5 -119h430v-356h-1074v344q180 119 428 348.5t248 329.5q0 88 -49 113.5t-184 25.5h-459z" />
<glyph unicode="3" horiz-adv-x="1177" d="M35 1147v299q84 29 200.5 43t230.5 15t241 -1q174 -4 280.5 -102t106.5 -277v-80q0 -238 -172 -299q172 -55 172 -315v-59q0 -184 -106.5 -284.5t-295.5 -100.5h-76h-80q-16 0 -73 1t-79 2t-69 4t-73.5 7t-65.5 10t-69.5 14.5t-59.5 18.5l2 301h447q129 0 164.5 15.5 t35.5 82.5v19q0 66 -37.5 82t-150.5 22l-334 15v323l334 21q55 2 75.5 4t51.5 7t40 15.5t17 27.5t8 46v18q0 37 -13 59.5t-45 32t-57.5 11.5t-76.5 2h-473z" />
<glyph unicode="4" horiz-adv-x="1300" d="M23 459l432 1040h426l-322 -854h199v275l55 159h342v-434h123v-305l-123 -59v-277h-397v277h-666z" />
<glyph unicode="5" horiz-adv-x="1212" d="M88 41v317h541q45 0 71.5 9.5t37 31t11.5 32.5t1 36v63q0 55 -21.5 82t-77.5 27h-90q-49 0 -69.5 -21.5t-20.5 -70.5h-381l45 952h948v-356h-561l-8 -209q57 35 133 41q78 6 156 0q172 -14 258 -123t86 -279v-192q0 -195 -123 -292t-293 -97q-211 0 -330.5 8t-312.5 41z " />
<glyph unicode="6" horiz-adv-x="1222" d="M76 786q0 195 28.5 335.5t81 217t109.5 113.5t133 49q274 43 680 -43v-303h-449q-68 0 -107.5 -17.5t-56 -59.5t-19.5 -76.5t-3 -106.5q53 29 114.5 36t198.5 7q209 0 290 -100.5t81 -286.5v-186q0 -367 -391 -367h-283q-80 0 -139 19.5t-111.5 71.5t-86 140t-52 227.5 t-18.5 329.5zM473 602q0 -160 31 -204t133 -44h35q51 0 69.5 19.5t18.5 75.5v40q0 72 -12.5 92.5t-65.5 20.5h-209z" />
<glyph unicode="7" horiz-adv-x="1148" d="M35 1143v356h985l96 -160l-469 -1339h-422l406 1143h-596z" />
<glyph unicode="8" horiz-adv-x="1263" d="M86 367v108q0 88 36 157.5t116 82.5q-43 23 -74 51.5t-45.5 53t-22.5 64.5t-9 64.5t-1 73.5v133q0 354 401 354h320q188 0 280.5 -83t92.5 -273v-90q0 -39 -9.5 -83t-46.5 -95t-98 -60q154 -29 154 -290v-156q0 -121 -29 -200t-86 -115.5t-116.5 -50t-143.5 -13.5h-318 q-80 0 -144 14.5t-105 35t-71 54t-45.5 63.5t-23.5 71t-10 66.5t-2 62.5zM483 430q0 -53 21.5 -73.5t75.5 -20.5h106q33 0 53.5 6t29.5 20.5t11 29t2 38.5v82q0 47 -18.5 71.5t-73.5 24.5h-110q-59 0 -78 -23.5t-19 -72.5v-82zM483 1012q0 -57 20.5 -73.5t76.5 -16.5h106 q63 0 79.5 19.5t16.5 70.5v61q0 35 -7 56.5t-23.5 30.5t-28.5 11.5t-37 2.5h-106q-53 0 -75 -17.5t-22 -83.5v-61z" />
<glyph unicode="9" horiz-adv-x="1222" d="M70 948v187q0 367 391 366h282q80 0 139.5 -19.5t112 -71.5t86 -140t52 -227.5t18.5 -329.5q0 -195 -28.5 -335t-81 -217t-110 -114t-132.5 -49q-274 -43 -680 43v303h448q68 0 108 17.5t56.5 59.5t19.5 76.5t3 106.5q-53 -29 -114.5 -36t-199.5 -7q-209 0 -289.5 100.5 t-80.5 286.5zM467 1010q0 -72 12.5 -92.5t65.5 -20.5h209q0 160 -31 204t-133 44h-35q-51 0 -69.5 -19.5t-18.5 -74.5v-41z" />
<glyph unicode=":" horiz-adv-x="526" d="M98 47v240q0 51 49 51h232q51 0 51 -51v-240q0 -47 -51 -47h-232q-49 0 -49 47zM98 797v239q0 51 49 51h232q51 0 51 -51v-239q0 -47 -51 -47h-232q-49 0 -49 47z" />
<glyph unicode=";" horiz-adv-x="526" d="M98 51v234q0 55 52 55h227q49 0 49 -55v-308q0 -72 -33 -113.5t-80 -52t-93 -9.5t-79 10l-32 8v127q41 -2 52 10t11 33v10h-22q-52 0 -52 51zM98 797v239q0 51 49 51h232q51 0 51 -51v-239q0 -47 -51 -47h-232q-49 0 -49 47z" />
<glyph unicode="&#x3c;" horiz-adv-x="882" d="M57 545v348l768 266v-348l-379 -88l379 -109v-348z" />
<glyph unicode="=" horiz-adv-x="956" d="M41 332v315h874v-315h-874zM41 780v316h874v-316h-874z" />
<glyph unicode="&#x3e;" horiz-adv-x="882" d="M57 266v348l379 109l-379 88v348l768 -266v-348z" />
<glyph unicode="?" horiz-adv-x="1114" d="M23 1155v297q279 74 577 61q219 0 344 -126.5t125 -292.5v-105q0 -221 -96 -326.5t-340 -97.5v-166h-297v455h188q80 4 115 35t35 108v31q0 127 -178 127h-473zM317 47v240q0 51 50 51h231q51 0 51 -51v-240q0 -47 -51 -47h-231q-50 0 -50 47z" />
<glyph unicode="@" horiz-adv-x="1818" d="M76 41v549q0 209 115.5 334t371.5 125h355q70 0 117.5 -5.5t105 -25t91.5 -55t57.5 -102t23.5 -161.5v-700h-242l-49 111l-12 -14q-12 -13 -35 -32.5t-53.5 -38t-78.5 -31.5t-100 -13q-133 0 -197.5 90t-64.5 211v67q0 293 326 293h211q2 31 0 33q0 49 -19.5 63.5 t-70.5 14.5h-365q-90 0 -141 -37t-51 -148v-487q0 -125 58 -178.5t134 -53.5h654q119 0 164.5 58.5t45.5 173.5v844q0 117 -57 180t-153 63h-828v240q281 57 651 55h177q94 0 179 -26.5t160.5 -85t120.5 -168t45 -258.5v-844q0 -279 -124.5 -403.5t-360.5 -124.5h-674 q-211 0 -349 114.5t-138 372.5zM795 350q0 -10 2 -12q0 -33 15 -47.5t56 -14.5q119 0 150 70v88l-160 -12q-35 -4 -48 -14.5t-13 -45.5q-2 -2 -2 -12z" />
<glyph unicode="A" horiz-adv-x="1456" d="M51 0l469 1499h469l455 -1499h-408l-88 262h-403l-86 -262h-408zM635 600h233l-108 401z" />
<glyph unicode="B" horiz-adv-x="1251" d="M92 0v1499h651q451 0 451 -409q0 -109 -58.5 -206.5t-160.5 -105.5q113 -18 184.5 -109t71.5 -210q0 -246 -117 -352.5t-360 -106.5h-662zM489 336h244q55 0 78 36t23 107q0 147 -101 148h-244v-291zM489 942h224q45 0 68.5 29.5t23.5 75.5q0 116 -90 116h-2h-224v-221z " />
<glyph unicode="C" horiz-adv-x="1161" d="M63 754q0 385 114 573.5t405 188.5q213 0 308 -15.5t232 -66.5v-310l-12 2q-12 2 -34.5 5.5t-52.5 7.5t-66.5 7t-76.5 6t-86 5t-89 2q-121 0 -158 -22q-72 -44 -83 -259q-3 -56 -3 -128q0 -254 46 -330t200 -76q96 0 199.5 4t159.5 9l56 5v-309q-98 -41 -208 -55 q-86 -11 -239 -11q-44 0 -93 1q-279 4 -399 191.5t-120 574.5z" />
<glyph unicode="D" horiz-adv-x="1366" d="M92 0v1499h703q119 0 209 -39t146 -104.5t92 -163.5t49.5 -205.5t13.5 -243.5q0 -389 -125 -566t-385 -177h-703zM489 336h265q86 0 119.5 94t33.5 315q0 178 -19.5 272.5t-50 120t-83.5 25.5h-265v-827z" />
<glyph unicode="E" horiz-adv-x="1161" d="M82 330v821q0 348 381 348q430 0 670 -33v-333h-547q-49 0 -75 -19.5t-29 -39t-3 -56.5v-90l551 -23v-330l-551 -18v-90q0 -39 10.5 -62.5t33 -31.5t37.5 -10.5t46 -2.5h527v-331q-94 -12 -256 -21.5t-278 -11.5l-116 -2h-21q-52 0 -100 8q-58 10 -127 40t-111 103.5 t-42 184.5z" />
<glyph unicode="F" horiz-adv-x="1161" d="M82 0v1143q0 100 34 173t92 111.5t121.5 55t133.5 16.5q430 0 670 -33v-333h-547q-49 0 -75 -19.5t-29 -39t-3 -56.5v-90l551 -23v-330l-551 -18v-557h-397z" />
<glyph unicode="G" horiz-adv-x="1259" d="M63 758q0 184 21.5 313t75 234.5t153 158t248.5 52.5q250 0 335 -10.5t288 -65.5v-305q-2 0 -31 5t-77 11t-106.5 12t-135 11.5t-150.5 5.5q-139 0 -181 -85t-42 -341q0 -260 30.5 -330t161.5 -70q57 0 94 23.5t46 47.5l8 24v153h-101v246q96 51 359 51q66 0 139 -6v-893 h-280l-113 100q-45 -59 -91 -80.5t-163 -29.5q-21 -1 -41 -1q-97 0 -172 31q-90 39 -142.5 106t-83 173.5t-40 212t-9.5 246.5z" />
<glyph unicode="H" horiz-adv-x="1302" d="M92 0v1499h397v-596h349v596h397v-1499h-397v547h-349v-547h-397z" />
<glyph unicode="I" horiz-adv-x="557" d="M92 0v1499h397v-1499h-397z" />
<glyph unicode="J" horiz-adv-x="727" d="M41 51v316q82 0 126 7t65.5 34.5t25.5 57.5t4 99v934h397v-1161q0 -229 -110 -301q-75 -46 -220 -46q-17 0 -35 1q-171 6 -253 59z" />
<glyph unicode="K" horiz-adv-x="1351" d="M92 0v1499h377v-590h82l305 590h457l-412 -754l412 -745h-457l-305 573h-80v-573h-379z" />
<glyph unicode="L" horiz-adv-x="1077" d="M92 319v1180h397v-1036q0 -39 10.5 -62.5t33 -32t38 -10.5t45.5 -2h422v-356h-606q-152 0 -246 77.5t-94 241.5z" />
<glyph unicode="M" horiz-adv-x="1814" d="M63 0l160 1499h553l127 -842l135 842h553l162 -1499h-391l-102 817l-125 -817h-455l-131 817l-94 -817h-392z" />
<glyph unicode="N" horiz-adv-x="1386" d="M92 0v1499h402l428 -766v766h397v-1499h-397l-430 745v-745h-400z" />
<glyph unicode="O" horiz-adv-x="1366" d="M76 739q0 147 17.5 263t45 197t73.5 138.5t94 90t117 52t130 24.5t143 5q84 0 146.5 -6t131 -24.5t117 -51t93.5 -90t72.5 -138.5t44 -196.5t16.5 -263.5q0 -195 -31 -332t-80 -216.5t-133 -125t-169 -59.5t-208 -14q-104 0 -174.5 8t-148.5 33.5t-127 77t-90 132.5 t-60.5 204.5t-19.5 291.5zM473 739q0 -244 39 -317.5t184 -73.5q133 0 178.5 78t45.5 313q0 137 -8.5 213t-34 124t-66.5 62.5t-115 14.5q-96 0 -140 -27.5t-63.5 -114t-19.5 -272.5z" />
<glyph unicode="P" horiz-adv-x="1269" d="M90 0v1499h668q72 0 129 -8t122.5 -38t109.5 -80t73 -142t29 -217q0 -137 -31 -237.5t-77 -153t-112.5 -81t-122.5 -33.5q-31 -3 -64 -3q-27 0 -56 2q-57 4 -159.5 20.5t-111.5 20.5v-549h-397zM487 844h230q104 0 104 164q0 153 -103 153h-1h-230v-317z" />
<glyph unicode="Q" horiz-adv-x="1366" d="M76 739q0 147 17.5 263t45 197t73.5 138.5t94 90t117 52t130 24.5t143 5q84 0 146.5 -6t131 -24.5t117 -51t93.5 -90t72.5 -138.5t44 -196.5t16.5 -263.5q0 -162 -19.5 -284.5t-60.5 -202.5t-91 -132t-126 -80t-148.5 -37t-175.5 -11q-104 0 -174.5 8t-148.5 33.5 t-127 77t-90 132.5t-60.5 204.5t-19.5 291.5zM473 739q0 -244 39 -317.5t184 -73.5q133 0 178.5 78t45.5 313q0 137 -8.5 213t-34 124t-66.5 62.5t-115 14.5q-96 0 -140 -27.5t-63.5 -114t-19.5 -272.5zM586 -68h209q8 -91 155 -91q69 0 168 20v-287q-59 -9 -115 -9 q-71 0 -135 15q-116 25 -199 115t-83 237z" />
<glyph unicode="R" horiz-adv-x="1267" d="M90 0v1499h670q217 0 338 -109.5t121 -371.5q0 -127 -17.5 -213t-55.5 -132t-67.5 -65.5t-81.5 -40.5l258 -567h-452l-193 530l-123 29v-559h-397zM489 858h220q72 0 91 35t19 125q0 74 -23.5 108.5t-86.5 34.5h-220v-303z" />
<glyph unicode="S" horiz-adv-x="1220" d="M76 981v125q0 193 111.5 293t293.5 112q78 5 151 5q285 0 484 -72v-309q-186 20 -491 20q-90 0 -121 -14.5t-31 -75.5v-23q0 -53 22.5 -75.5t100.5 -22.5h192q90 0 160 -29.5t111 -75.5t67.5 -106.5t35.5 -114t9 -108.5v-68q0 -458 -413 -458h-2q-299 0 -391.5 9 t-241.5 60v309q216 -22 505 -22h25q66 0 93.5 19.5t27.5 64.5v33q0 47 -22.5 68.5t-85.5 21.5h-185q-111 0 -191.5 37t-119.5 86t-62.5 117.5t-27.5 109.5t-4 84z" />
<glyph unicode="T" horiz-adv-x="1243" d="M41 1143v356h1163v-356h-389v-1143h-397v1143h-377z" />
<glyph unicode="U" horiz-adv-x="1341" d="M92 655v844h397v-844q0 -72 2.5 -107.5t12.5 -81.5t30.5 -67.5t58.5 -37t95 -15.5q53 0 89 16.5t55.5 38t28.5 67.5t11 83t2 104v844h400v-844q0 -109 -12.5 -197.5t-32 -153t-53 -116t-64.5 -83t-79 -55t-81.5 -35t-90 -17.5t-87.5 -7t-86 -1h-19q-110 0 -168.5 4 t-149.5 38t-138 100.5t-84 198t-37 324.5z" />
<glyph unicode="V" horiz-adv-x="1431" d="M51 1499h418l248 -1012l268 1012h418l-449 -1499h-479z" />
<glyph unicode="W" horiz-adv-x="2084" d="M51 1499h418l248 -1012l186 1012h418l-76 -311l209 -701l186 1012h418l-366 -1499h-480l-137 489l-121 -489h-479z" />
<glyph unicode="X" horiz-adv-x="1390" d="M51 1499h441l215 -416l215 416h440l-457 -756l447 -743h-441l-204 401l-209 -401h-441l449 743z" />
<glyph unicode="Y" horiz-adv-x="1390" d="M51 1499h432l215 -663l232 663h432l-473 -1089v-410h-397v410z" />
<glyph unicode="Z" horiz-adv-x="1130" d="M41 0v356l586 787h-586v356h1051v-356l-525 -787h525v-356h-1051z" />
<glyph unicode="[" horiz-adv-x="704" d="M98 25v1286q0 207 96.5 310t305.5 103h184v-315h-61q-61 0 -94 -36t-33 -124v-1204q0 -88 32.5 -124t94.5 -36h61v-315h-184q-402 0 -402 455z" />
<glyph unicode="\" horiz-adv-x="1028" d="M23 1577h407l576 -1724h-408z" />
<glyph unicode="]" horiz-adv-x="704" d="M23 -115h61q61 0 94 36t33 124v1204q0 88 -33 124t-94 36h-61v315h184q209 0 305 -103t96 -310v-1286q0 -455 -401 -455h-184v315z" />
<glyph unicode="^" horiz-adv-x="774" d="M57 1087l205 287h268l187 -287h-228l-100 105l-102 -105h-230z" />
<glyph unicode="_" horiz-adv-x="1380" d="M41 -2v315h1298v-315h-1298z" />
<glyph unicode="`" horiz-adv-x="499" d="M23 1380h296l158 -293h-223z" />
<glyph unicode="a" horiz-adv-x="1062" d="M45 293v84q0 137 81 228t275 91q104 -1 156.5 -1t52.5 1q2 12 0 15q0 33 -6 53t-13 31.5t-27.5 15.5t-34 5t-46.5 1l-401 -22v231q102 49 203.5 65.5t263.5 16.5q233 0 346 -80t113 -297v-731h-320l-78 111q-20 -47 -76 -87q-50 -36 -136 -36h-17q-92 4 -160.5 35.5 t-104.5 79t-53.5 95.5t-17.5 95zM442 358q0 -14 1 -24t5.5 -18.5t7.5 -14.5t10 -9t10 -5t13.5 -3t12.5 -1h13h13q37 0 57.5 16t22.5 34l2 17v123l-106 -10q-31 -2 -45.5 -21.5t-15.5 -32t-1 -38.5v-13z" />
<glyph unicode="b" horiz-adv-x="1144" d="M70 0v1608h397v-566q117 61 270 62q211 0 282 -128t71 -437q0 -293 -84 -422t-269 -129q-84 0 -141 27.5t-127 84.5l-59 -100h-340zM469 354q27 -45 133 -45q49 0 69.5 47t20.5 203q0 162 -20.5 211t-69.5 49q-104 0 -133 -31v-434z" />
<glyph unicode="c" horiz-adv-x="1003" d="M57 545q0 301 94.5 427t264.5 126h44h55q17 0 59 -1t69 -4t70 -8.5t76.5 -13.5t75.5 -20.5t79 -26.5v-233q-123 12 -305 12q-66 0 -90.5 -3t-52 -27.5t-34.5 -78t-7 -153.5q0 -96 6 -146.5t31.5 -76t53 -29.5t93.5 -4l319 16v-233q-53 -39 -130.5 -57.5t-127.5 -21.5 q-30 -2 -81 -2q-33 0 -75 1q-104 2 -128 2q-359 0 -359 555z" />
<glyph unicode="d" horiz-adv-x="1144" d="M57 539q0 317 70 441t283 124q154 0 270 -62v566h397v-1608h-340l-59 100q-70 -57 -127 -84.5t-141 -27.5q-186 0 -269.5 124t-83.5 427zM455 559q0 -156 20.5 -203t69.5 -47q106 0 133 45v434q-29 31 -133 31q-49 0 -69.5 -49t-20.5 -211z" />
<glyph unicode="e" horiz-adv-x="1075" d="M57 549q0 227 48.5 345t144.5 160t282 42q150 0 234 -12.5t149.5 -55.5t90 -123t24.5 -215q0 -160 -82 -225.5t-239 -65.5h-254q0 -37 9 -60.5t19.5 -35.5t39 -17t47 -5t63.5 1t69 1q154 0 308 22v-258q-29 -14 -66 -24.5t-88 -16.5t-84 -9t-99.5 -5t-86.5 -2h-94h-76 q-201 0 -280 133t-79 426zM455 651h118q27 0 43.5 18.5t16.5 47.5q0 61 -11.5 82.5t-60.5 21.5q-68 -1 -88 -29q-18 -26 -18 -121v-20z" />
<glyph unicode="f" horiz-adv-x="833" d="M23 813v240l147 34v203q0 178 91 249t286 71q168 0 264 -49v-228l-149 2q-35 0 -54.5 -5t-29 -26.5t-10.5 -41t-1 -68.5v-27v-80h201v-274h-201v-813h-397v813h-147z" />
<glyph unicode="g" horiz-adv-x="1159" d="M51 188q0 160 131 213q-121 78 -121 304q0 387 396 387h680v-218l-84 -36q22 -63 22 -184v-11q0 -156 -89 -247t-310 -91h-197h-14h-17q-4 0 -14 -1t-15 -3t-11.5 -6t-8.5 -11.5t-2 -15.5q0 -20 12.5 -30.5t27 -11.5t42.5 -1h250q369 0 369 -354v-109q0 -315 -369 -315 h-307q-154 0 -251 80t-97 235v109l106 72q-51 23 -90 85t-39 160zM459 705q0 -70 19.5 -87.5t66.5 -17.5h45q53 0 70.5 17.5t17.5 87.5q0 59 -21.5 75.5t-68.5 16.5h-49q-51 0 -65.5 -21.5t-14.5 -70.5zM473 -72v-102q0 -53 17.5 -68.5t72.5 -15.5h58q31 0 49 5t24 19.5 t7 20.5t1 29v47q0 27 -21.5 45t-57.5 20h-68h-82z" />
<glyph unicode="h" d="M70 0v1602h395v-621q39 39 69.5 60.5t92 43t139.5 21.5q102 0 167.5 -29.5t96.5 -91t41 -126t10 -163.5v-696h-397v705q0 61 -16.5 83.5t-51.5 22.5q-117 0 -149 -76v-735h-397z" />
<glyph unicode="i" horiz-adv-x="516" d="M57 1237v240q0 51 49 51h308q45 0 45 -51v-240q0 -47 -45 -47h-308q-49 0 -49 47zM59 0v1087h398v-1087h-398z" />
<glyph unicode="j" horiz-adv-x="540" d="M70 1237v240q0 51 49 51h307q47 0 47 -51v-240q0 -47 -47 -47h-307q-49 0 -49 47zM74 -553v1640h397v-1095v-29q0 -353 -94 -516h-303z" />
<glyph unicode="k" horiz-adv-x="1239" d="M70 0v1602h397v-861h41l221 346h488l-347 -483l347 -604h-465l-244 467h-41v-467h-397z" />
<glyph unicode="l" horiz-adv-x="665" d="M70 387v1217h397v-1135q0 -68 10 -109t24.5 -56t41.5 -30q86 -43 100 -43v-231h-283q-150 0 -220 88t-70 299z" />
<glyph unicode="m" horiz-adv-x="1755" d="M70 0v1087h331l66 -106q49 45 75.5 64.5t86 40t137.5 20.5q197 0 266 -125q63 41 100 60.5t108 42t144 22.5q102 0 168 -29.5t96.5 -91t41 -126t10.5 -163.5v-696h-397v705q0 61 -16.5 83.5t-51.5 22.5q-117 0 -156 -61q0 -8 1 -25.5t1 -28.5v-696h-397v705 q0 61 -16.5 83.5t-51.5 22.5q-117 0 -149 -76v-735h-397z" />
<glyph unicode="n" d="M70 0v1087h331l66 -106q45 43 72.5 63.5t88 41t138.5 20.5q102 0 167.5 -29.5t96.5 -91t41 -126t10 -163.5v-696h-397v705q0 61 -16.5 83.5t-51.5 22.5q-117 0 -149 -76v-735h-397z" />
<glyph unicode="o" horiz-adv-x="1134" d="M57 528q0 328 112 449t398.5 121t398 -123t111.5 -447q0 -305 -109.5 -421.5t-400.5 -116.5q-285 0 -397.5 121.5t-112.5 416.5zM455 528q0 -164 17 -203.5t95 -39.5q82 0 97.5 34.5t15.5 208.5q0 188 -15.5 231.5t-97.5 43.5q-86 0 -99 -41t-13 -234z" />
<glyph unicode="p" horiz-adv-x="1144" d="M70 -553v1640h340l59 -100q70 57 127 85t141 28q184 0 268.5 -130t84.5 -421q0 -111 -8.5 -192t-31 -154.5t-61.5 -119.5t-102.5 -72.5t-149.5 -26.5q-154 0 -270 61v-598h-397zM469 299q29 -31 133 -31q49 0 69.5 49.5t20.5 210.5q0 156 -20.5 203t-69.5 47 q-106 0 -133 -45v-434z" />
<glyph unicode="q" d="M57 549q0 295 106.5 423t309.5 128q170 0 343 -20.5t253 -53.5v-1579h-397v612q-60 -79 -196 -79h-3q-229 0 -322.5 133t-93.5 436zM455 563q0 -182 20.5 -239.5t95.5 -57.5q70 0 101 39v520h-97q-43 0 -68.5 -21.5t-36.5 -66.5t-13 -79t-2 -95z" />
<glyph unicode="r" horiz-adv-x="839" d="M70 0v1087h352l45 -137q29 59 93.5 103.5t141.5 44.5q63 0 97 -11v-380h-162q-41 0 -62.5 -2.5t-51 -12.5t-43 -37.5t-13.5 -70.5v-584h-397z" />
<glyph unicode="s" horiz-adv-x="1046" d="M45 692v94q0 139 67.5 225.5t215.5 86.5q388 0 491 -19q96 -17 127 -55v-233h-459q-16 0 -24 -1.5t-14.5 -9.5t-6.5 -26v-13q0 -16 7.5 -23t14.5 -8t23 -1h205q162 0 234.5 -81t72.5 -214v-121q0 -156 -77.5 -229.5t-188.5 -73.5h-72q-174 0 -260 2t-183 19.5t-128 54.5 v234h475q25 0 31 7.5t6 26.5v10q0 20 -7 28.5t-30 8.5h-196q-150 0 -237 78.5t-87 232.5z" />
<glyph unicode="t" horiz-adv-x="788" d="M23 815v197l153 78l57 303h340v-303h183v-275h-183v-344q0 -100 17.5 -139t56.5 -60q86 -43 101 -43v-231h-308q-129 0 -196.5 91t-67.5 300v426h-153z" />
<glyph unicode="u" d="M57 391v696h398v-704q0 -61 16 -84t51 -23q117 0 150 76v735h397v-1087h-332l-65 106q-20 -12 -61.5 -42.5t-64 -44t-68.5 -25.5t-105 -12q-102 0 -168 29.5t-96.5 91t-41 126t-10.5 162.5z" />
<glyph unicode="v" horiz-adv-x="1204" d="M23 1087h421l154 -659l164 659h420l-361 -1087h-459z" />
<glyph unicode="w" horiz-adv-x="1734" d="M23 1087h421l134 -659l122 659h385l-47 -247l133 -412l119 659h424l-299 -1087h-459l-98 281l-78 -281h-458z" />
<glyph unicode="x" horiz-adv-x="1253" d="M29 0l360 545l-360 542h475l121 -249l125 249h475l-367 -548l350 -539h-458l-123 248l-123 -248h-475z" />
<glyph unicode="y" horiz-adv-x="1226" d="M25 1087h411l125 -688q14 -76 88 -80l142 768h403l-293 -1431l-145 -209h-295l121 553q-315 0 -387 319z" />
<glyph unicode="z" horiz-adv-x="1001" d="M35 772v315h934v-315l-371 -455h371v-315h-903v311l403 459h-434z" />
<glyph unicode="{" horiz-adv-x="659" d="M23 543v280q123 10 122 109v411q0 381 492 381v-315q-63 0 -78.5 -42t-15.5 -187v-279q0 -109 -54.5 -159t-160.5 -58q213 -43 213 -211v-407q0 -115 15 -158t81 -43v-295q-270 0 -382 81t-112 271v512q1 117 -120 109z" />
<glyph unicode="|" horiz-adv-x="512" d="M98 -147v1724h316v-1724h-316z" />
<glyph unicode="}" horiz-adv-x="659" d="M23 -135q66 0 81 43t15 158v407q0 168 213 211q-106 8 -160.5 58.5t-54.5 158.5v279q0 145 -15.5 187t-78.5 42v315q492 0 491 -381v-411q0 -98 123 -109v-280q-121 8 -121 -109v-512q0 -190 -111.5 -271t-381.5 -81v295z" />
<glyph unicode="~" horiz-adv-x="827" d="M57 1225q104 152 252 151q47 0 112.5 -35.5t104.5 -35.5q106 -6 191 81l53 -151q-98 -147 -229 -148q-45 0 -122 36t-116 36q-98 0 -190 -72z" />
<glyph unicode="&#xa1;" horiz-adv-x="577" d="M96 -553l41 1096h301l39 -1096h-381zM121 662v235q0 43 49 47h233q18 -2 34 -17.5t16 -35.5v-229q0 -55 -45 -56h-238q-49 1 -49 56z" />
<glyph unicode="&#xa2;" horiz-adv-x="993" d="M45 545q0 301 95.5 427t265.5 126v200h221v-204q172 -14 307 -70v-233q-125 12 -307 12q-66 0 -90.5 -3t-52 -27.5t-35 -78t-7.5 -153.5q0 -96 6.5 -146.5t32 -76t53 -29.5t93.5 -4l319 16v-233q-115 -80 -328 -80v-183h-221v185q-352 8 -352 555z" />
<glyph unicode="&#xa3;" horiz-adv-x="1171" d="M57 0v305l127 51v258h-127v195l127 55v88q0 170 36 280.5t114 168t175 78t245 20.5q51 0 141 -8t155 -16l64 -9v-321h-377q-94 0 -124.5 -25.5t-30.5 -122.5v-133l370 -35v-215h-370v-258h530v-356h-1055z" />
<glyph unicode="&#xa4;" horiz-adv-x="894" d="M59 879l113 120l100 -96q82 55 181 55q90 0 168 -49l92 99l125 -109l-103 -106q41 -72 41 -160q0 -106 -61 -191l92 -88l-107 -125l-114 109q-63 -29 -133 -29q-92 0 -170 49l-95 -100l-120 115l102 104q-41 78 -41 156q0 82 35 147zM324 633q0 -53 37.5 -91t91 -38 t91.5 38t38 91t-38 92t-91.5 39t-91 -39t-37.5 -92z" />
<glyph unicode="&#xa5;" horiz-adv-x="1355" d="M23 1499h432l215 -663l231 663h432l-340 -780h109v-203h-242v-51h242v-203h-242v-262h-397v262h-236v203h236v51h-236v203h111z" />
<glyph unicode="&#xa6;" horiz-adv-x="512" d="M98 -147v671h316v-671h-316zM98 879v698h316v-698h-316z" />
<glyph unicode="&#xa7;" horiz-adv-x="1089" d="M63 1208v62q0 158 77 247t231 89q430 0 581 -39v-277h-438q-53 0 -53 -49v-12q0 -51 57 -51h158q178 0 266 -59.5t88 -196.5v-25q0 -203 -147 -252q57 -10 93 -55t44 -87t8 -87v-88q0 -184 -83 -264t-200 -80q-479 0 -606 39v276h439q33 0 44 9t11 34v25q0 43 -58 43 h-163q-168 0 -257 56.5t-89 195.5v24v22v27q0 6 1 27.5t4 33t8 32t13 32.5t19.5 28.5t26 28t35 22.5t44.5 19q-154 74 -154 250zM461 772q0 -41 17.5 -54t56.5 -13h20q47 0 62.5 13t15.5 56v37q0 37 -13.5 53.5t-64.5 16.5h-20q-35 0 -52.5 -11.5t-19.5 -23.5t-2 -39v-35z " />
<glyph unicode="&#xa8;" horiz-adv-x="905" d="M57 1192q0 55 40 94t95.5 39t94.5 -39t39 -94t-39 -95t-94.5 -40t-95.5 40t-40 95zM580 1192q0 55 39.5 94t95 39t94.5 -39t39 -94t-39 -95t-94.5 -40t-95 40t-39.5 95z" />
<glyph unicode="&#xa9;" horiz-adv-x="1622" d="M63 754q0 164 24 287.5t83 232t175 167t286 58.5h409q152 0 256.5 -53t160.5 -156.5t80 -231.5t24 -304q0 -383 -138.5 -568.5t-382.5 -185.5h-409q-287 0 -427.5 200t-140.5 554zM297 754q0 -254 82 -397.5t252 -143.5h389q150 0 228.5 122t78.5 419q0 74 -3 126 t-11 119.5t-28.5 113.5t-50.5 88t-79 63.5t-115 21.5h-409q-158 0 -246 -113.5t-88 -418.5zM444 748q0 238 75 342t220 104q256 0 385 -49v-189q-172 25 -303 25q-84 0 -113.5 -48t-29.5 -192q0 -127 37 -177t121 -50q137 0 301 33v-189q-49 -27 -120 -40t-119 -15t-140 -2 q-314 1 -314 447z" />
<glyph unicode="&#xaa;" horiz-adv-x="753" d="M35 528v160h686v-160h-686zM35 961v53q0 203 246 203q141 -2 141 0q2 6 0 8q0 25 -4 39t-19.5 20t-26 7t-38.5 1q-74 0 -142.5 -5t-100.5 -9l-32 -4v176q115 61 320 61q174 0 258 -53t84 -196v-488h-238l-61 84q-37 -96 -156 -92q-121 4 -176 64.5t-55 130.5zM309 1008 q0 -20 9.5 -31.5t17.5 -12.5t25 -1h6q56 2 55 41v73l-74 -6q-8 0 -14 -2t-10.5 -5t-7.5 -7t-4 -7t-2 -8.5t-1 -8.5v-9v-8v-8z" />
<glyph unicode="&#xab;" horiz-adv-x="1243" d="M57 725l422 416l199 -195l-225 -221l227 -225l-191 -201zM563 725l422 416l199 -195l-226 -221l228 -225l-191 -201z" />
<glyph unicode="&#xac;" horiz-adv-x="956" d="M41 463v295h874v-432h-294v137h-580z" />
<glyph unicode="&#xad;" horiz-adv-x="724" d="M41 436v316h643v-316h-643z" />
<glyph unicode="&#xae;" horiz-adv-x="1622" d="M63 754q0 164 24 287.5t83 232t175 167t286 58.5h409q152 0 256.5 -53t160.5 -156.5t80 -231.5t24 -304q0 -383 -138.5 -568.5t-382.5 -185.5h-409q-287 0 -427.5 200t-140.5 554zM297 754q0 -254 82 -397.5t252 -143.5h389q150 0 228.5 122t78.5 419q0 74 -3 126 t-11 119.5t-28.5 113.5t-50.5 88t-79 63.5t-115 21.5h-409q-158 0 -246 -113.5t-88 -418.5zM485 313v875h383q274 0 275 -283q0 -119 -31 -181t-100 -87l172 -324h-248l-158 308l-59 24v-332h-234zM719 817h80q78 0 94 13.5t16 72.5q0 47 -19.5 59.5t-90.5 12.5h-80v-158z " />
<glyph unicode="&#xaf;" horiz-adv-x="712" d="M57 1087v191h598v-191h-598z" />
<glyph unicode="&#xb0;" horiz-adv-x="530" d="M57 1294q0 88 61.5 149.5t147.5 61.5t146.5 -61.5t60.5 -149.5t-60.5 -148.5t-146.5 -60.5t-147.5 60.5t-61.5 148.5zM193 1294.5q0 -30.5 21.5 -51t52 -20.5t51 20.5t20.5 51t-20.5 52t-51 21.5t-52 -21.5t-21.5 -52z" />
<glyph unicode="&#xb1;" horiz-adv-x="980" d="M66 117v315h852v-315h-852zM66 772v315h266v269h315v-269h271v-315h-271v-268h-315v268h-266z" />
<glyph unicode="&#xb2;" horiz-adv-x="841" d="M35 1470v224q197 45 434 45q162 0 244 -85t82 -229q0 -186 -312 -430h312v-268h-752v258q119 70 286 207t167 197q0 51 -34 66t-124 15h-303z" />
<glyph unicode="&#xb3;" horiz-adv-x="841" d="M35 1460v223q141 53 469 46q121 -2 195.5 -69t74.5 -185v-54q0 -156 -129 -198q129 -35 129 -211v-39q0 -123 -74.5 -189.5t-205.5 -66.5h-48h-50h-48q-37 0 -49 1t-44 3t-47 4t-42 5t-44.5 7t-39 10.5t-39.5 12.5l2 225h297q86 0 109.5 6t23.5 39v8q0 31 -26.5 39 t-98.5 10l-221 11v243l221 15q45 0 61.5 1t37 6t25.5 14t5 26v8q0 33 -30.5 41t-98.5 8h-315z" />
<glyph unicode="&#xb4;" horiz-adv-x="499" d="M23 1087l157 293h297l-231 -293h-223z" />
<glyph unicode="&#xb5;" horiz-adv-x="1196" d="M104 391v696h398v-704q0 -61 16.5 -84t50.5 -23q117 0 150 76v735h397v-1087h-332l-65 106q-18 -12 -47 -32.5t-51.5 -35.5t-45.5 -26q-31 -15 -73 -24v-541h-398v944z" />
<glyph unicode="&#xb6;" horiz-adv-x="1175" d="M45 1022v190q0 141 85 214t235 73h790v-258h-82v-1241h-254v1245h-90v-1798h-254v1315q-2 0 -16.5 -10.5t-38 -17.5t-55.5 -7q-164 0 -242 82t-78 213zM299 1063q0 -55 18.5 -68.5t67.5 -13.5h90v264h-90q-59 0 -72.5 -17.5t-13.5 -84.5v-80z" />
<glyph unicode="&#xb7;" horiz-adv-x="526" d="M98 672v239q0 51 49 52h232q51 0 51 -52v-239q0 -47 -51 -47h-232q-49 0 -49 47z" />
<glyph unicode="&#xb8;" horiz-adv-x="487" d="M57 -213l76 31q43 18 50 32.5t7 73.5h240q0 -160 -54 -229.5t-194 -69.5h-125v162z" />
<glyph unicode="&#xb9;" horiz-adv-x="552" d="M18 1448v164l166 112h295v-997h-299v748z" />
<glyph unicode="&#xba;" horiz-adv-x="815" d="M35 1126q0 219 81 299t291.5 80t292.5 -83t82 -296q0 -203 -80.5 -280.5t-293.5 -77.5q-209 0 -291 80.5t-82 277.5zM66 528v160h686v-160h-686zM334 1128q0 -92 12 -115.5t62 -23.5q53 0 64 21.5t11 117.5q0 104 -10 130t-65 26q-53 0 -63.5 -27t-10.5 -129z" />
<glyph unicode="&#xbb;" horiz-adv-x="1243" d="M57 500l228 225l-226 221l199 195l422 -416l-432 -426zM563 500l228 225l-226 221l199 195l422 -416l-432 -426z" />
<glyph unicode="&#xbc;" horiz-adv-x="1953" d="M18 1243v164l166 113h295v-998h-299v748zM285 0l954 1577h268l-954 -1577h-268zM1049 299l288 698h305l-215 -559h123v178l43 105h256v-283h82v-229l-82 -45v-160h-299v160h-454z" />
<glyph unicode="&#xbd;" horiz-adv-x="2058" d="M18 1243v164l166 113h295v-998h-299v748zM264 0l955 1577h268l-955 -1577h-268zM1241 743v224q201 45 440 45q164 0 248 -85t84 -229q0 -184 -321 -430h321v-268h-764v260q125 78 295 220.5t170 205.5q0 37 -34.5 47t-127.5 10h-311z" />
<glyph unicode="&#xbe;" horiz-adv-x="2183" d="M35 1257v224q137 51 477 43q123 -2 198.5 -68.5t75.5 -185.5v-53q0 -156 -129 -199q129 -35 129 -211v-39q0 -123 -74.5 -189.5t-209.5 -66.5h-49h-51h-48q-37 0 -50 1t-45 3t-47 4t-43 5t-46.5 7.5t-40 10.5t-39.5 12l2 225h305q88 0 112.5 6.5t24.5 38.5v9 q0 31 -27.5 39t-101.5 10l-229 10v242l229 16q47 0 64.5 1t38 6t26 14.5t5.5 25.5v10q0 33 -32 41t-102 8h-323zM500 0l954 1577h268l-954 -1577h-268zM1243 299l289 698h305l-215 -559h123v178l43 105h256v-283h82v-229l-82 -45v-160h-299v160h-455z" />
<glyph unicode="&#xbf;" horiz-adv-x="1114" d="M45 -23q0 221 96.5 327t339.5 97v166h297v-454h-188q-80 -4 -115 -35t-35 -109v-30q0 -127 178 -127h474v-297q-279 -74 -578 -62q-219 0 -344 127t-125 293v104zM465 680v240q0 47 51 47h232q49 0 49 -47v-240q0 -51 -49 -51h-232q-51 0 -51 51z" />
<glyph unicode="&#xc0;" horiz-adv-x="1456" d="M51 0l469 1499h469l455 -1499h-408l-88 262h-403l-86 -262h-408zM412 1925h297l157 -293h-223zM635 600h233l-108 401z" />
<glyph unicode="&#xc1;" horiz-adv-x="1456" d="M51 0l469 1499h469l455 -1499h-408l-88 262h-403l-86 -262h-408zM635 600h233l-108 401zM643 1632l158 293h297l-232 -293h-223z" />
<glyph unicode="&#xc2;" horiz-adv-x="1456" d="M51 0l469 1499h469l455 -1499h-408l-88 262h-403l-86 -262h-408zM426 1632l205 287h266l188 -287h-229l-98 105l-103 -105h-229zM635 600h233l-108 401z" />
<glyph unicode="&#xc3;" horiz-adv-x="1456" d="M51 0l469 1499h469l455 -1499h-408l-88 262h-403l-86 -262h-408zM397 1769q109 152 254 152q45 0 110.5 -36t106.5 -36q104 -6 189 82l53 -151q-98 -147 -229 -148q-43 0 -120 36t-118 36q-98 0 -188 -72zM635 600h233l-108 401z" />
<glyph unicode="&#xc4;" horiz-adv-x="1456" d="M51 0l469 1499h469l455 -1499h-408l-88 262h-403l-86 -262h-408zM360 1767.5q0 55.5 40 94.5t95.5 39t93.5 -39t38 -94.5t-38 -95.5t-93.5 -40t-95.5 40t-40 95.5zM635 600h233l-108 401zM881 1767.5q0 55.5 40 94.5t95 39t95 -39t40 -94.5t-40 -95.5t-95 -40t-95 40 t-40 95.5z" />
<glyph unicode="&#xc5;" horiz-adv-x="1456" d="M51 0l469 1499h197q-74 14 -122 71.5t-48 133.5q0 88 61.5 149.5t147.5 61.5t146.5 -61.5t60.5 -149.5q0 -76 -47.5 -133.5t-120.5 -71.5h194l455 -1499h-408l-88 262h-403l-86 -262h-408zM635 600h233l-108 401zM686 1704q0 -29 20.5 -48.5t49 -19.5t48 19.5t19.5 48.5 t-19.5 49.5t-48 20.5t-49 -20.5t-20.5 -49.5z" />
<glyph unicode="&#xc6;" horiz-adv-x="2009" d="M35 0l555 1130q59 121 143 201t184.5 116t196.5 47t215 5q389 0 629 -33v-333h-506q-49 0 -74.5 -19.5t-28.5 -39t-3 -56.5v-90l509 -23v-330l-509 -18v-90q0 -39 10 -62.5t32.5 -31.5t38 -10.5t46.5 -2.5h485v-331q-211 -29 -608 -35q-63 -4 -125 4t-128.5 31.5 t-107.5 80t-41 138.5v94h-301l-172 -342h-440zM807 678h141v309z" />
<glyph unicode="&#xc7;" horiz-adv-x="1161" d="M63 754q0 385 114 573.5t405 188.5q213 0 308 -15.5t232 -66.5v-310l-12 2q-12 2 -34.5 5.5t-52.5 7.5t-66.5 7t-76.5 6t-86 5t-89 2q-121 0 -158 -22q-72 -44 -83 -259q-3 -56 -3 -128q0 -254 46 -330t200 -76q96 0 199.5 4t159.5 9l56 5v-309q-98 -41 -208.5 -55 t-331.5 -10q-279 4 -399 191.5t-120 574.5zM383 -211l76 31q43 18 50 32.5t7 73.5h240q0 -160 -54.5 -229.5t-193.5 -69.5h-125v162z" />
<glyph unicode="&#xc8;" horiz-adv-x="1161" d="M82 330v821q0 348 381 348q430 0 670 -33v-333h-547q-49 0 -75 -19.5t-29 -39t-3 -56.5v-90l551 -23v-330l-551 -18v-90q0 -39 10.5 -62.5t33 -31.5t37.5 -10.5t46 -2.5h527v-331q-94 -12 -256 -21.5t-278 -11.5l-116 -2q-63 -2 -120.5 8t-127 40t-111.5 103.5t-42 184.5 zM317 1927h297l158 -293h-223z" />
<glyph unicode="&#xc9;" horiz-adv-x="1161" d="M82 330v821q0 348 381 348q430 0 670 -33v-333h-547q-49 0 -75 -19.5t-29 -39t-3 -56.5v-90l551 -23v-330l-551 -18v-90q0 -39 10.5 -62.5t33 -31.5t37.5 -10.5t46 -2.5h527v-331q-94 -12 -256 -21.5t-278 -11.5l-116 -2q-63 -2 -120.5 8t-127 40t-111.5 103.5t-42 184.5 zM545 1632l157 293h297l-231 -293h-223z" />
<glyph unicode="&#xca;" horiz-adv-x="1161" d="M82 330v821q0 348 381 348q430 0 670 -33v-333h-547q-49 0 -75 -19.5t-29 -39t-3 -56.5v-90l551 -23v-330l-551 -18v-90q0 -39 10.5 -62.5t33 -31.5t37.5 -10.5t46 -2.5h527v-331q-94 -12 -256 -21.5t-278 -11.5l-116 -2q-63 -2 -120.5 8t-127 40t-111.5 103.5t-42 184.5 zM324 1632l204 287h269l186 -287h-227l-101 105l-102 -105h-229z" />
<glyph unicode="&#xcb;" horiz-adv-x="1161" d="M82 330v821q0 348 381 348q430 0 670 -33v-333h-547q-49 0 -75 -19.5t-29 -39t-3 -56.5v-90l551 -23v-330l-551 -18v-90q0 -39 10.5 -62.5t33 -31.5t37.5 -10.5t46 -2.5h527v-331q-94 -12 -256 -21.5t-278 -11.5l-116 -2q-63 -2 -120.5 8t-127 40t-111.5 103.5t-42 184.5 zM238 1767.5q0 55.5 39.5 94.5t95 39t94.5 -39t39 -94.5t-39 -95.5t-94.5 -40t-95 40t-39.5 95.5zM760 1767.5q0 55.5 40 94.5t95 39t94 -39t39 -94.5t-39 -95.5t-94 -40t-95 40t-40 95.5z" />
<glyph unicode="&#xcc;" horiz-adv-x="557" d="M-53 1925h299l155 -293h-221zM92 0v1499h397v-1499h-397z" />
<glyph unicode="&#xcd;" horiz-adv-x="557" d="M92 0v1499h397v-1499h-397zM180 1632l156 293h299l-234 -293h-221z" />
<glyph unicode="&#xce;" horiz-adv-x="557" d="M-39 1632l205 287h268l187 -287h-228l-100 105l-103 -105h-229zM92 0v1499h397v-1499h-397z" />
<glyph unicode="&#xcf;" horiz-adv-x="557" d="M-104 1767.5q0 55.5 39.5 94.5t95 39t94.5 -39t39 -94.5t-39 -95.5t-94.5 -40t-95 40t-39.5 95.5zM92 0v1499h397v-1499h-397zM418 1767.5q0 55.5 40 94.5t95 39t94 -39t39 -94.5t-39 -95.5t-94 -40t-95 40t-40 95.5z" />
<glyph unicode="&#xd0;" horiz-adv-x="1366" d="M-41 688v152h133v659h703q119 0 209 -39t146 -104.5t92 -163.5t49.5 -205.5t13.5 -243.5q0 -389 -125 -566t-385 -177h-703v688h-133zM489 336h265q86 0 119.5 94t33.5 315q0 178 -19.5 272.5t-50 120t-83.5 25.5h-265v-323h183v-152h-183v-352z" />
<glyph unicode="&#xd1;" horiz-adv-x="1386" d="M92 0v1499h402l428 -766v766h397v-1499h-397l-430 745v-745h-400zM348 1769q109 152 254 152q45 0 110.5 -36t106.5 -36q104 -6 189 82l53 -151q-98 -147 -230 -148q-43 0 -119.5 36t-117.5 36q-98 0 -188 -72z" />
<glyph unicode="&#xd2;" horiz-adv-x="1366" d="M76 739q0 147 17.5 263t45 197t73.5 138.5t94 90t117 52t130 24.5t143 5q84 0 146.5 -6t131 -24.5t117 -51t93.5 -90t72.5 -138.5t44 -196.5t16.5 -263.5q0 -195 -31 -332t-80 -216.5t-133 -125t-169 -59.5t-208 -14q-104 0 -174.5 8t-148.5 33.5t-127 77t-90 132.5 t-60.5 204.5t-19.5 291.5zM352 1925h299l156 -293h-221zM473 739q0 -244 39 -317.5t184 -73.5q133 0 178.5 78t45.5 313q0 137 -8.5 213t-34 124t-66.5 62.5t-115 14.5q-96 0 -140 -27.5t-63.5 -114t-19.5 -272.5z" />
<glyph unicode="&#xd3;" horiz-adv-x="1366" d="M76 739q0 147 17.5 263t45 197t73.5 138.5t94 90t117 52t130 24.5t143 5q84 0 146.5 -6t131 -24.5t117 -51t93.5 -90t72.5 -138.5t44 -196.5t16.5 -263.5q0 -195 -31 -332t-80 -216.5t-133 -125t-169 -59.5t-208 -14q-104 0 -174.5 8t-148.5 33.5t-127 77t-90 132.5 t-60.5 204.5t-19.5 291.5zM473 739q0 -244 39 -317.5t184 -73.5q133 0 178.5 78t45.5 313q0 137 -8.5 213t-34 124t-66.5 62.5t-115 14.5q-96 0 -140 -27.5t-63.5 -114t-19.5 -272.5zM586 1632l155 293h299l-233 -293h-221z" />
<glyph unicode="&#xd4;" horiz-adv-x="1366" d="M76 739q0 147 17.5 263t45 197t73.5 138.5t94 90t117 52t130 24.5t143 5q84 0 146.5 -6t131 -24.5t117 -51t93.5 -90t72.5 -138.5t44 -196.5t16.5 -263.5q0 -195 -31 -332t-80 -216.5t-133 -125t-169 -59.5t-208 -14q-104 0 -174.5 8t-148.5 33.5t-127 77t-90 132.5 t-60.5 204.5t-19.5 291.5zM367 1632l204 287h269l186 -287h-227l-101 105l-102 -105h-229zM473 739q0 -244 39 -317.5t184 -73.5q133 0 178.5 78t45.5 313q0 137 -8.5 213t-34 124t-66.5 62.5t-115 14.5q-96 0 -140 -27.5t-63.5 -114t-19.5 -272.5z" />
<glyph unicode="&#xd5;" horiz-adv-x="1366" d="M76 739q0 147 17.5 263t45 197t73.5 138.5t94 90t117 52t130 24.5t143 5q84 0 146.5 -6t131 -24.5t117 -51t93.5 -90t72.5 -138.5t44 -196.5t16.5 -263.5q0 -195 -31 -332t-80 -216.5t-133 -125t-169 -59.5t-208 -14q-104 0 -174.5 8t-148.5 33.5t-127 77t-90 132.5 t-60.5 204.5t-19.5 291.5zM340 1769q104 152 252 152q47 0 112.5 -36t104.5 -36q106 -6 190 82l54 -151q-98 -147 -230 -148q-45 0 -121.5 36t-115.5 36q-98 0 -191 -72zM473 739q0 -244 39 -317.5t184 -73.5q133 0 178.5 78t45.5 313q0 137 -8.5 213t-34 124t-66.5 62.5 t-115 14.5q-96 0 -140 -27.5t-63.5 -114t-19.5 -272.5z" />
<glyph unicode="&#xd6;" horiz-adv-x="1366" d="M76 739q0 147 17.5 263t45 197t73.5 138.5t94 90t117 52t130 24.5t143 5q84 0 146.5 -6t131 -24.5t117 -51t93.5 -90t72.5 -138.5t44 -196.5t16.5 -263.5q0 -195 -31 -332t-80 -216.5t-133 -125t-169 -59.5t-208 -14q-104 0 -174.5 8t-148.5 33.5t-127 77t-90 132.5 t-60.5 204.5t-19.5 291.5zM301 1767.5q0 55.5 40 94.5t95.5 39t94 -39t38.5 -94.5t-38.5 -95.5t-94 -40t-95.5 40t-40 95.5zM473 739q0 -244 39 -317.5t184 -73.5q133 0 178.5 78t45.5 313q0 137 -8.5 213t-34 124t-66.5 62.5t-115 14.5q-96 0 -140 -27.5t-63.5 -114 t-19.5 -272.5zM823 1767.5q0 55.5 40 94.5t95.5 39t94.5 -39t39 -94.5t-39 -95.5t-94.5 -40t-95.5 40t-40 95.5z" />
<glyph unicode="&#xd7;" horiz-adv-x="952" d="M66 539l188 188l-188 191l221 223l190 -191l191 193l223 -223l-191 -193l191 -188l-223 -224l-191 189l-188 -189z" />
<glyph unicode="&#xd8;" horiz-adv-x="1396" d="M63 0l138 190q-107 174 -107 549q0 147 17.5 263t45 197t73.5 138.5t94.5 90t117 52t130 24.5t143.5 5q256 0 379 -73l45 63h176l-115 -160q135 -182 135 -600q0 -195 -30.5 -332t-79.5 -216.5t-133 -125t-169 -59.5t-208 -14q-293 0 -416 90l-59 -82h-177zM492 739 q0 -98 2 -139l370 516q-43 37 -149 37q-96 0 -140.5 -27.5t-63.5 -114t-19 -272.5zM537 414q43 -66 178 -66q133 0 178 78t45 313q0 150 -10 222z" />
<glyph unicode="&#xd9;" horiz-adv-x="1341" d="M92 655v844h397v-844q0 -72 2.5 -107.5t12.5 -81.5t30.5 -67.5t58.5 -37t95 -15.5q53 0 89 16.5t55.5 38t28.5 67.5t11 83t2 104v844h400v-844q0 -109 -12.5 -197.5t-32 -153t-53 -116t-64.5 -83t-79 -55t-81.5 -35t-90 -17.5t-87.5 -7t-86 -1h-19q-110 0 -168.5 4 t-149.5 38t-138 100.5t-84 198t-37 324.5zM340 1925h297l158 -293h-224z" />
<glyph unicode="&#xda;" horiz-adv-x="1341" d="M92 655v844h397v-844q0 -72 2.5 -107.5t12.5 -81.5t30.5 -67.5t58.5 -37t95 -15.5q53 0 89 16.5t55.5 38t28.5 67.5t11 83t2 104v844h400v-844q0 -109 -12.5 -197.5t-32 -153t-53 -116t-64.5 -83t-79 -55t-81.5 -35t-90 -17.5t-87.5 -7t-86 -1h-19q-110 0 -168.5 4 t-149.5 38t-138 100.5t-84 198t-37 324.5zM571 1632l158 293h297l-231 -293h-224z" />
<glyph unicode="&#xdb;" horiz-adv-x="1341" d="M92 655v844h397v-844q0 -72 2.5 -107.5t12.5 -81.5t30.5 -67.5t58.5 -37t95 -15.5q53 0 89 16.5t55.5 38t28.5 67.5t11 83t2 104v844h400v-844q0 -109 -12.5 -197.5t-32 -153t-53 -116t-64.5 -83t-79 -55t-81.5 -35t-90 -17.5t-87.5 -7t-86 -1h-19q-110 0 -168.5 4 t-149.5 38t-138 100.5t-84 198t-37 324.5zM352 1632l205 287h270l185 -287h-226l-102 105l-102 -105h-230z" />
<glyph unicode="&#xdc;" horiz-adv-x="1341" d="M92 655v844h397v-844q0 -72 2.5 -107.5t12.5 -81.5t30.5 -67.5t58.5 -37t95 -15.5q53 0 89 16.5t55.5 38t28.5 67.5t11 83t2 104v844h400v-844q0 -109 -12.5 -197.5t-32 -153t-53 -116t-64.5 -83t-79 -55t-81.5 -35t-90 -17.5t-87.5 -7t-86 -1h-19q-110 0 -168.5 4 t-149.5 38t-138 100.5t-84 198t-37 324.5zM287 1767.5q0 55.5 40 94.5t95 39t95 -39t40 -94.5t-40 -95.5t-95 -40t-95 40t-40 95.5zM811 1767.5q0 55.5 40 94.5t95 39t93 -39t38 -94.5t-38 -95.5t-93 -40t-95 40t-40 95.5z" />
<glyph unicode="&#xdd;" horiz-adv-x="1390" d="M51 1499h432l215 -663l232 663h432l-473 -1089v-410h-397v410zM594 1632l160 293h295l-230 -293h-225z" />
<glyph unicode="&#xde;" horiz-adv-x="1101" d="M70 0v1493h397v-289h219q360 0 361 -436q0 -121 -24 -208t-58.5 -134t-88 -74.5t-94.5 -36t-96 -10.5q-78 -4 -118 2t-101 37v-344h-397zM467 641h55q82 0 103.5 19.5t21.5 101.5q0 51 -16.5 74.5t-38 27.5t-70.5 4h-55v-227z" />
<glyph unicode="&#xdf;" horiz-adv-x="1175" d="M70 0v1159q0 190 132 318.5t386 128.5q205 0 337 -72t173 -181.5t22.5 -233.5t-94.5 -234q-18 -29 -51 -61.5t-48.5 -57.5t-15.5 -53.5t38 -63.5t84 -67.5t84 -96t38 -139.5v-35q0 -184 -98.5 -255.5t-265.5 -71.5q-145 0 -263 39v268q98 -12 127 -12q102 0 103 98v12 q0 39 -35 75t-77 60.5t-76.5 75.5t-34.5 119q0 61 20 111.5t40.5 75t66.5 69.5q70 70 69 143q0 82 -29.5 109.5t-93.5 27.5q-90 0 -115.5 -57t-25.5 -223v-975h-397z" />
<glyph unicode="&#xe0;" horiz-adv-x="1062" d="M45 293v84q0 137 81 228t275 91q209 -2 209 0q2 12 0 15q0 33 -6 53t-13 31.5t-27.5 15.5t-34 5t-46.5 1l-401 -22v231q102 49 203.5 65.5t263.5 16.5q233 0 346 -80t113 -297v-731h-320l-78 111q-20 -47 -75.5 -87t-153.5 -36q-92 4 -160.5 35.5t-104.5 79t-53.5 95.5 t-17.5 95zM205 1524h299l155 -293h-221zM442 358q0 -14 1 -24t5.5 -18.5t7.5 -14.5t10 -9t10 -5t13.5 -3t12.5 -1h13h13q37 0 57.5 16t22.5 34l2 17v123l-106 -10q-31 -2 -45.5 -21.5t-15.5 -32t-1 -38.5v-13z" />
<glyph unicode="&#xe1;" horiz-adv-x="1062" d="M45 293v84q0 137 81 228t275 91q209 -2 209 0q2 12 0 15q0 33 -6 53t-13 31.5t-27.5 15.5t-34 5t-46.5 1l-401 -22v231q102 49 203.5 65.5t263.5 16.5q233 0 346 -80t113 -297v-731h-320l-78 111q-20 -47 -75.5 -87t-153.5 -36q-92 4 -160.5 35.5t-104.5 79t-53.5 95.5 t-17.5 95zM438 1231l156 293h299l-234 -293h-221zM442 358q0 -14 1 -24t5.5 -18.5t7.5 -14.5t10 -9t10 -5t13.5 -3t12.5 -1h13h13q37 0 57.5 16t22.5 34l2 17v123l-106 -10q-31 -2 -45.5 -21.5t-15.5 -32t-1 -38.5v-13z" />
<glyph unicode="&#xe2;" horiz-adv-x="1062" d="M45 293v84q0 137 81 228t275 91q209 -2 209 0q2 12 0 15q0 33 -6 53t-13 31.5t-27.5 15.5t-34 5t-46.5 1l-401 -22v231q102 49 203.5 65.5t263.5 16.5q233 0 346 -80t113 -297v-731h-320l-78 111q-20 -47 -75.5 -87t-153.5 -36q-92 4 -160.5 35.5t-104.5 79t-53.5 95.5 t-17.5 95zM219 1231l205 287h268l187 -287h-228l-100 104l-102 -104h-230zM442 358q0 -14 1 -24t5.5 -18.5t7.5 -14.5t10 -9t10 -5t13.5 -3t12.5 -1h13h13q37 0 57.5 16t22.5 34l2 17v123l-106 -10q-31 -2 -45.5 -21.5t-15.5 -32t-1 -38.5v-13z" />
<glyph unicode="&#xe3;" horiz-adv-x="1062" d="M45 293v84q0 137 81 228t275 91q209 -2 209 0q2 12 0 15q0 33 -6 53t-13 31.5t-27.5 15.5t-34 5t-46.5 1l-401 -22v231q102 49 203.5 65.5t263.5 16.5q233 0 346 -80t113 -297v-731h-320l-78 111q-20 -47 -75.5 -87t-153.5 -36q-92 4 -160.5 35.5t-104.5 79t-53.5 95.5 t-17.5 95zM193 1368q104 152 251 152q47 0 113 -36t105 -36q106 -6 190 82l53 -152q-98 -147 -229 -147q-45 0 -122 36t-116 36q-98 0 -190 -72zM442 358q0 -14 1 -24t5.5 -18.5t7.5 -14.5t10 -9t10 -5t13.5 -3t12.5 -1h13h13q37 0 57.5 16t22.5 34l2 17v123l-106 -10 q-31 -2 -45.5 -21.5t-15.5 -32t-1 -38.5v-13z" />
<glyph unicode="&#xe4;" horiz-adv-x="1062" d="M45 293v84q0 137 81 228t275 91q209 -2 209 0q2 12 0 15q0 33 -6 53t-13 31.5t-27.5 15.5t-34 5t-46.5 1l-401 -22v231q102 49 203.5 65.5t263.5 16.5q233 0 346 -80t113 -297v-731h-320l-78 111q-20 -47 -75.5 -87t-153.5 -36q-92 4 -160.5 35.5t-104.5 79t-53.5 95.5 t-17.5 95zM154 1366q0 55 39.5 94t95 39t94.5 -39t39 -94t-39 -95t-94.5 -40t-95 40t-39.5 95zM442 358q0 -14 1 -24t5.5 -18.5t7.5 -14.5t10 -9t10 -5t13.5 -3t12.5 -1h13h13q37 0 57.5 16t22.5 34l2 17v123l-106 -10q-31 -2 -45.5 -21.5t-15.5 -32t-1 -38.5v-13zM676 1366 q0 55 40 94t95 39t94 -39t39 -94t-39 -95t-94 -40t-95 40t-40 95z" />
<glyph unicode="&#xe5;" horiz-adv-x="1062" d="M45 293v84q0 137 81 228t275 91q209 -2 209 0q2 12 0 15q0 33 -6 53t-13 31.5t-27.5 15.5t-34 5t-46.5 1l-401 -22v231q102 49 203.5 65.5t263.5 16.5q233 0 346 -80t113 -297v-731h-320l-78 111q-20 -47 -75.5 -87t-153.5 -36q-92 4 -160.5 35.5t-104.5 79t-53.5 95.5 t-17.5 95zM344 1440q0 88 61.5 149.5t147.5 61.5t147.5 -61.5t61.5 -149.5t-61.5 -148.5t-147.5 -60.5t-147.5 60.5t-61.5 148.5zM442 358q0 -14 1 -24t5.5 -18.5t7.5 -14.5t10 -9t10 -5t13.5 -3t12.5 -1h13h13q37 0 57.5 16t22.5 34l2 17v123l-106 -10q-31 -2 -45.5 -21.5 t-15.5 -32t-1 -38.5v-13zM483 1439.5q0 -28.5 20.5 -48t49.5 -19.5q31 0 50.5 19.5t19.5 48t-19.5 49t-50.5 20.5q-29 0 -49.5 -20.5t-20.5 -49z" />
<glyph unicode="&#xe6;" horiz-adv-x="1679" d="M45 293v63q0 137 81 228.5t275 91.5q209 -2 209 0q2 33 0 35q0 33 -6 53t-13 31.5t-27.5 15.5t-34 5t-46.5 1l-401 -24v233q102 49 203.5 65.5t263.5 16.5q225 -8 307 -61q109 49 279 49q285 0 392 -74t107 -307q0 -158 -80.5 -214.5t-242.5 -56.5h-252 q0 -102 58.5 -131.5t189.5 -29.5q154 0 307 22v-258q-29 -14 -66 -24.5t-88 -16.5t-84 -9t-99.5 -5t-86.5 -2h-94h-76q-199 0 -283 139q-27 -59 -139.5 -102t-216.5 -39q-92 4 -160.5 35.5t-104.5 79t-53.5 95.5t-17.5 95zM442 348q0 -25 4.5 -39t15.5 -20t18 -7t25.5 0 t22.5 1q37 0 57.5 16t22.5 34l2 17v103l-106 -11q-31 -2 -45.5 -21.5t-15.5 -31.5t-1 -39v-2zM1059 676h117q27 0 44 18.5t17 46.5q0 55 -11.5 67.5t-62.5 12.5h-15q-34 0 -46 -2t-25.5 -15t-16.5 -43t-1 -85z" />
<glyph unicode="&#xe7;" horiz-adv-x="1003" d="M57 545q0 301 94.5 427t264.5 126h44h55q17 0 59 -1t69 -4t70 -8.5t76.5 -13.5t75.5 -20.5t79 -26.5v-233q-123 12 -305 12q-66 0 -90.5 -3t-52 -27.5t-34.5 -78t-7 -153.5q0 -96 6 -146.5t31.5 -76t53 -29.5t93.5 -4l319 16v-233q-53 -39 -130.5 -57.5t-128 -21.5 t-155 -1t-128.5 2q-359 0 -359 555zM295 -215l76 31q43 18 50 32.5t7 73.5h240q0 -160 -54.5 -229.5t-193.5 -69.5h-125v162z" />
<glyph unicode="&#xe8;" horiz-adv-x="1075" d="M57 549q0 227 48.5 345t144.5 160t282 42q150 0 234 -12.5t149.5 -55.5t90 -123t24.5 -215q0 -160 -82 -225.5t-239 -65.5h-254q0 -37 9 -60.5t19.5 -35.5t39 -17t47 -5t63.5 1t69 1q154 0 308 22v-258q-29 -14 -66 -24.5t-88 -16.5t-84 -9t-99.5 -5t-86.5 -2h-94h-76 q-201 0 -280 133t-79 426zM205 1513h295l159 -292h-225zM455 651h118q27 0 43.5 18.5t16.5 47.5q0 61 -11.5 82.5t-60.5 21.5q-68 0 -88 -28.5t-18 -141.5z" />
<glyph unicode="&#xe9;" horiz-adv-x="1075" d="M57 549q0 227 48.5 345t144.5 160t282 42q150 0 234 -12.5t149.5 -55.5t90 -123t24.5 -215q0 -160 -82 -225.5t-239 -65.5h-254q0 -37 9 -60.5t19.5 -35.5t39 -17t47 -5t63.5 1t69 1q154 0 308 22v-258q-29 -14 -66 -24.5t-88 -16.5t-84 -9t-99.5 -5t-86.5 -2h-94h-76 q-201 0 -280 133t-79 426zM434 1221l160 292h295l-230 -292h-225zM455 651h118q27 0 43.5 18.5t16.5 47.5q0 61 -11.5 82.5t-60.5 21.5q-68 0 -88 -28.5t-18 -141.5z" />
<glyph unicode="&#xea;" horiz-adv-x="1075" d="M57 549q0 227 48.5 345t144.5 160t282 42q150 0 234 -12.5t149.5 -55.5t90 -123t24.5 -215q0 -160 -82 -225.5t-239 -65.5h-254q0 -37 9 -60.5t19.5 -35.5t39 -17t47 -5t63.5 1t69 1q154 0 308 22v-258q-29 -14 -66 -24.5t-88 -16.5t-84 -9t-99.5 -5t-86.5 -2h-94h-76 q-201 0 -280 133t-79 426zM203 1221l205 286h268l186 -286h-227l-100 104l-103 -104h-229zM455 651h118q27 0 43.5 18.5t16.5 47.5q0 61 -11.5 82.5t-60.5 21.5q-68 0 -88 -28.5t-18 -141.5z" />
<glyph unicode="&#xeb;" horiz-adv-x="1075" d="M57 549q0 227 48.5 345t144.5 160t282 42q150 0 234 -12.5t149.5 -55.5t90 -123t24.5 -215q0 -160 -82 -225.5t-239 -65.5h-254q0 -37 9 -60.5t19.5 -35.5t39 -17t47 -5t63.5 1t69 1q154 0 308 22v-258q-29 -14 -66 -24.5t-88 -16.5t-84 -9t-99.5 -5t-86.5 -2h-94h-76 q-201 0 -280 133t-79 426zM137 1355.5q0 55.5 40 94.5t95.5 39t94.5 -39t39 -94.5t-39 -95t-94.5 -39.5t-95.5 39.5t-40 95zM455 651h118q27 0 43.5 18.5t16.5 47.5q0 61 -11.5 82.5t-60.5 21.5q-68 0 -88 -28.5t-18 -141.5zM659 1355.5q0 55.5 40 94.5t95.5 39t94.5 -39 t39 -94.5t-39 -95t-94.5 -39.5t-95.5 39.5t-40 95z" />
<glyph unicode="&#xec;" horiz-adv-x="534" d="M-74 1513h295l160 -292h-225zM70 0v1087h397v-1087h-397z" />
<glyph unicode="&#xed;" horiz-adv-x="534" d="M70 0v1087h397v-1087h-397zM156 1221l159 292h295l-229 -292h-225z" />
<glyph unicode="&#xee;" horiz-adv-x="534" d="M-61 1221l204 286h269l186 -286h-227l-101 104l-102 -104h-229zM70 0v1087h397v-1087h-397z" />
<glyph unicode="&#xef;" horiz-adv-x="534" d="M-127 1355.5q0 55.5 40 94.5t95 39t94 -39t39 -94.5t-39 -95t-94 -39.5t-95 39.5t-40 95zM70 0v1087h397v-1087h-397zM395 1355.5q0 55.5 40 94.5t95.5 39t94.5 -39t39 -94.5t-39 -95t-94.5 -39.5t-95.5 39.5t-40 95z" />
<glyph unicode="&#xf0;" horiz-adv-x="1112" d="M45 541q0 547 397 546h41q123 0 164 -10q-25 88 -90 140l-180 -103l-66 115l86 49q-78 12 -250 8v318q393 0 603 -125l147 82l66 -115l-99 -55q117 -123 159 -324t42 -526q0 -287 -108.5 -414t-288.5 -127h-226q-209 0 -303 131t-94 410zM442 540.5q0 -118.5 12.5 -149.5 t73.5 -31h58q59 0 70.5 27t11.5 154q0 137 -11.5 163.5t-70.5 26.5h-58q-53 0 -69.5 -36t-16.5 -154.5z" />
<glyph unicode="&#xf1;" d="M70 0v1087h331l66 -106q45 43 72.5 63.5t88 41t138.5 20.5q102 0 167.5 -29.5t96.5 -91t41 -126t10 -163.5v-696h-397v705q0 61 -16.5 83.5t-51.5 22.5q-117 0 -149 -76v-735h-397zM219 1366q104 152 252 152q45 0 110.5 -36t106.5 -36q106 -6 191 82l53 -152 q-98 -147 -230 -147q-45 0 -121.5 35.5t-115.5 35.5q-98 0 -191 -71z" />
<glyph unicode="&#xf2;" horiz-adv-x="1134" d="M57 528q0 328 112 449t398.5 121t398 -123t111.5 -447q0 -305 -109.5 -421.5t-400.5 -116.5q-285 0 -397.5 121.5t-112.5 416.5zM225 1513h295l160 -292h-225zM455 528q0 -164 17 -203.5t95 -39.5q82 0 97.5 34.5t15.5 208.5q0 188 -15.5 231.5t-97.5 43.5q-86 0 -99 -41 t-13 -234z" />
<glyph unicode="&#xf3;" horiz-adv-x="1134" d="M57 528q0 328 112 449t398.5 121t398 -123t111.5 -447q0 -305 -109.5 -421.5t-400.5 -116.5q-285 0 -397.5 121.5t-112.5 416.5zM455 528q0 -164 17 -203.5t95 -39.5q82 0 97.5 34.5t15.5 208.5q0 188 -15.5 231.5t-97.5 43.5q-86 0 -99 -41t-13 -234zM455 1221l159 292 h295l-229 -292h-225z" />
<glyph unicode="&#xf4;" horiz-adv-x="1134" d="M57 528q0 328 112 449t398.5 121t398 -123t111.5 -447q0 -305 -109.5 -421.5t-400.5 -116.5q-285 0 -397.5 121.5t-112.5 416.5zM238 1221l204 286h269l186 -286h-227l-101 104l-102 -104h-229zM455 528q0 -164 17 -203.5t95 -39.5q82 0 97.5 34.5t15.5 208.5 q0 188 -15.5 231.5t-97.5 43.5q-86 0 -99 -41t-13 -234z" />
<glyph unicode="&#xf5;" horiz-adv-x="1134" d="M57 528q0 328 112 449t398.5 121t398 -123t111.5 -447q0 -305 -109.5 -421.5t-400.5 -116.5q-285 0 -397.5 121.5t-112.5 416.5zM211 1358q104 152 252 151q45 0 110.5 -35.5t106.5 -35.5q106 -6 190 82l54 -152q-98 -147 -230 -147q-45 0 -121.5 35.5t-115.5 35.5 q-98 0 -191 -71zM455 528q0 -164 17 -203.5t95 -39.5q82 0 97.5 34.5t15.5 208.5q0 188 -15.5 231.5t-97.5 43.5q-86 0 -99 -41t-13 -234z" />
<glyph unicode="&#xf6;" horiz-adv-x="1134" d="M57 528q0 328 112 449t398.5 121t398 -123t111.5 -447q0 -305 -109.5 -421.5t-400.5 -116.5q-285 0 -397.5 121.5t-112.5 416.5zM172 1355.5q0 55.5 40 94.5t95 39t94 -39t39 -94.5t-39 -95t-94 -39.5t-95 39.5t-40 95zM455 528q0 -164 17 -203.5t95 -39.5 q82 0 97.5 34.5t15.5 208.5q0 188 -15.5 231.5t-97.5 43.5q-86 0 -99 -41t-13 -234zM694 1355.5q0 55.5 40 94.5t95.5 39t94.5 -39t39 -94.5t-39 -95t-94.5 -39.5t-95.5 39.5t-40 95z" />
<glyph unicode="&#xf7;" horiz-adv-x="989" d="M57 565v316h875v-316h-875zM338 287v157q0 51 49 52h191q51 0 51 -52v-157q0 -47 -51 -47h-191q-49 0 -49 47zM338 989v158q0 51 49 51h191q51 0 51 -51v-158q0 -47 -51 -47h-191q-49 0 -49 47z" />
<glyph unicode="&#xf8;" horiz-adv-x="1212" d="M57 0l125 147q-84 121 -84 381q0 328 112 449t398 121q215 0 326 -64l45 53h176l-123 -145q86 -127 86 -414q0 -305 -109.5 -421.5t-400.5 -116.5q-215 0 -327 65l-48 -55h-176zM496 516l209 246q-18 41 -97 41q-86 0 -99 -41t-13 -234v-12zM512 328q16 -43 96 -43 q82 0 97.5 34.5t15.5 208.5v47z" />
<glyph unicode="&#xf9;" d="M57 391v696h398v-704q0 -61 16 -84t51 -23q117 0 150 76v735h397v-1087h-332l-65 106q-20 -12 -61.5 -42.5t-64 -44t-68.5 -25.5t-105 -12q-102 0 -168 29.5t-96.5 91t-41 126t-10.5 162.5zM221 1513h295l160 -292h-225z" />
<glyph unicode="&#xfa;" d="M57 391v696h398v-704q0 -61 16 -84t51 -23q117 0 150 76v735h397v-1087h-332l-65 106q-20 -12 -61.5 -42.5t-64 -44t-68.5 -25.5t-105 -12q-102 0 -168 29.5t-96.5 91t-41 126t-10.5 162.5zM451 1221l159 292h295l-229 -292h-225z" />
<glyph unicode="&#xfb;" d="M57 391v696h398v-704q0 -61 16 -84t51 -23q117 0 150 76v735h397v-1087h-332l-65 106q-20 -12 -61.5 -42.5t-64 -44t-68.5 -25.5t-105 -12q-102 0 -168 29.5t-96.5 91t-41 126t-10.5 162.5zM233 1221l205 286h269l186 -286h-227l-101 104l-102 -104h-230z" />
<glyph unicode="&#xfc;" d="M57 391v696h398v-704q0 -61 16 -84t51 -23q117 0 150 76v735h397v-1087h-332l-65 106q-20 -12 -61.5 -42.5t-64 -44t-68.5 -25.5t-105 -12q-102 0 -168 29.5t-96.5 91t-41 126t-10.5 162.5zM168 1355.5q0 55.5 40 94.5t95 39t94 -39t39 -94.5t-39 -95t-94 -39.5t-95 39.5 t-40 95zM690 1355.5q0 55.5 40 94.5t95.5 39t94 -39t38.5 -94.5t-38.5 -95t-94 -39.5t-95.5 39.5t-40 95z" />
<glyph unicode="&#xfd;" horiz-adv-x="1226" d="M25 1087h411l125 -688q14 -76 88 -80l142 768h403l-293 -1431l-145 -209h-295l121 553q-315 0 -387 319zM498 1221l157 292h297l-231 -292h-223z" />
<glyph unicode="&#xfe;" horiz-adv-x="1142" d="M80 -553v2155h397v-629q70 57 127.5 84.5t140.5 27.5q184 0 268.5 -130t84.5 -420q0 -111 -8.5 -192t-31 -154.5t-61.5 -119.5t-102.5 -73t-149.5 -27q-162 0 -268 70v-592h-397zM477 285q29 -31 133 -31q49 0 69.5 49t20.5 211q0 156 -20.5 203t-69.5 47 q-106 0 -133 -45v-434z" />
<glyph unicode="&#xff;" horiz-adv-x="1226" d="M25 1087h411l125 -688q14 -76 88 -80l142 768h403l-293 -1431l-145 -209h-295l121 553q-315 0 -387 319zM213 1355.5q0 55.5 40 94.5t95 39t95 -39t40 -94.5t-40 -95t-95 -39.5t-95 39.5t-40 95zM737 1355.5q0 55.5 40 94.5t95.5 39t93.5 -39t38 -94.5t-38 -95 t-93.5 -39.5t-95.5 39.5t-40 95z" />
<glyph unicode="&#x100;" horiz-adv-x="1456" d="M51 0l469 1499h469l455 -1499h-408l-88 262h-403l-86 -262h-408zM455 1632v191h598v-191h-598zM635 600h233l-108 401z" />
<glyph unicode="&#x101;" horiz-adv-x="1062" d="M45 293v84q0 137 81 228t275 91q209 -2 209 0q2 12 0 15q0 33 -6 53t-13 31.5t-27.5 15.5t-34 5t-46.5 1l-401 -22v231q102 49 203.5 65.5t263.5 16.5q233 0 346 -80t113 -297v-731h-320l-78 111q-20 -47 -75.5 -87t-153.5 -36q-92 4 -160.5 35.5t-104.5 79t-53.5 95.5 t-17.5 95zM250 1231v190h598v-190h-598zM442 358q0 -14 1 -24t5.5 -18.5t7.5 -14.5t10 -9t10 -5t13.5 -3t12.5 -1h13h13q37 0 57.5 16t22.5 34l2 17v123l-106 -10q-31 -2 -45.5 -21.5t-15.5 -32t-1 -38.5v-13z" />
<glyph unicode="&#x102;" horiz-adv-x="1456" d="M51 0l469 1499h469l455 -1499h-408l-88 262h-403l-86 -262h-408zM520 1866h135q0 -96 98.5 -96.5t98.5 96.5h139q0 -104 -65.5 -169t-172 -65t-170 65t-63.5 169zM635 600h233l-108 401z" />
<glyph unicode="&#x103;" horiz-adv-x="1062" d="M45 293v84q0 137 81 228t275 91q209 -2 209 0q2 12 0 15q0 33 -6 53t-13 31.5t-27.5 15.5t-34 5t-46.5 1l-401 -22v231q102 49 203.5 65.5t263.5 16.5q233 0 346 -80t113 -297v-731h-320l-78 111q-20 -47 -75.5 -87t-153.5 -36q-92 4 -160.5 35.5t-104.5 79t-53.5 95.5 t-17.5 95zM313 1464h138q0 -96 96 -96q100 0 100 96h137q0 -104 -64.5 -168.5t-172.5 -64.5q-106 0 -170 64.5t-64 168.5zM442 358q0 -14 1 -24t5.5 -18.5t7.5 -14.5t10 -9t10 -5t13.5 -3t12.5 -1h13h13q37 0 57.5 16t22.5 34l2 17v123l-106 -10q-31 -2 -45.5 -21.5 t-15.5 -32t-1 -38.5v-13z" />
<glyph unicode="&#x104;" horiz-adv-x="1456" d="M51 0l469 1499h469l455 -1499h-129q-70 -49 -75 -101.5t31 -80t75 -21.5v-184q-72 -25 -148 9t-117 97.5t-22.5 144.5t112.5 136h-135l-88 262h-403l-86 -262h-408zM635 600h233l-108 401z" />
<glyph unicode="&#x105;" horiz-adv-x="1062" d="M45 293v84q0 137 81 228t275 91q209 -2 209 0q2 12 0 15q0 33 -6 53t-13 31.5t-27.5 15.5t-34 5t-46.5 1l-401 -22v231q102 49 203.5 65.5t263.5 16.5q233 0 346 -80t113 -297v-731h-82q-45 -31 -64.5 -64.5t-14.5 -59.5t20.5 -46t40 -30.5t46.5 -6.5v-184 q-41 -12 -87 -8t-82.5 27.5t-68.5 55t-44.5 73.5t-9 83t34 84t87.5 76h-96l-78 111q-20 -47 -75.5 -87t-153.5 -36q-92 4 -160.5 35.5t-104.5 79t-53.5 95.5t-17.5 95zM442 358q0 -14 1 -24t5.5 -18.5t7.5 -14.5t10 -9t10 -5t13.5 -3t12.5 -1h13h13q37 0 57.5 16t22.5 34 l2 17v123l-106 -10q-31 -2 -45.5 -21.5t-15.5 -32t-1 -38.5v-13z" />
<glyph unicode="&#x106;" horiz-adv-x="1161" d="M63 754q0 385 114 573.5t405 188.5q213 0 308 -15.5t232 -66.5v-310l-12 2q-12 2 -34.5 5.5t-52.5 7.5t-66.5 7t-76.5 6t-86 5t-89 2q-121 0 -158 -22q-72 -44 -83 -259q-3 -56 -3 -128q0 -254 46 -330t200 -76q96 0 199.5 4t159.5 9l56 5v-309q-98 -41 -208.5 -55 t-331.5 -10q-279 4 -399 191.5t-120 574.5zM573 1638l156 293h299l-233 -293h-222z" />
<glyph unicode="&#x107;" horiz-adv-x="1003" d="M57 545q0 301 94.5 427t264.5 126h44h55q17 0 59 -1t69 -4t70 -8.5t76.5 -13.5t75.5 -20.5t79 -26.5v-233q-123 12 -305 12q-66 0 -90.5 -3t-52 -27.5t-34.5 -78t-7 -153.5q0 -96 6 -146.5t31.5 -76t53 -29.5t93.5 -4l319 16v-233q-53 -39 -130.5 -57.5t-128 -21.5 t-155 -1t-128.5 2q-359 0 -359 555zM461 1221l157 292h297l-231 -292h-223z" />
<glyph unicode="&#x108;" horiz-adv-x="1161" d="M63 754q0 385 114 573.5t405 188.5q213 0 308 -15.5t232 -66.5v-310l-12 2q-12 2 -34.5 5.5t-52.5 7.5t-66.5 7t-76.5 6t-86 5t-89 2q-121 0 -158 -22q-72 -44 -83 -259q-3 -56 -3 -128q0 -254 46 -330t200 -76q96 0 199.5 4t159.5 9l56 5v-309q-98 -41 -208.5 -55 t-331.5 -10q-279 4 -399 191.5t-120 574.5zM350 1638l205 287h268l187 -287h-228l-100 105l-102 -105h-230z" />
<glyph unicode="&#x109;" horiz-adv-x="1003" d="M57 545q0 301 94.5 427t264.5 126h44h55q17 0 59 -1t69 -4t70 -8.5t76.5 -13.5t75.5 -20.5t79 -26.5v-233q-123 12 -305 12q-66 0 -90.5 -3t-52 -27.5t-34.5 -78t-7 -153.5q0 -96 6 -146.5t31.5 -76t53 -29.5t93.5 -4l319 16v-233q-53 -39 -130.5 -57.5t-128 -21.5 t-155 -1t-128.5 2q-359 0 -359 555zM201 1221l205 286h268l186 -286h-227l-101 104l-102 -104h-229z" />
<glyph unicode="&#x10a;" horiz-adv-x="1161" d="M63 754q0 385 114 573.5t405 188.5q213 0 308 -15.5t232 -66.5v-310l-12 2q-12 2 -34.5 5.5t-52.5 7.5t-66.5 7t-76.5 6t-86 5t-89 2q-121 0 -158 -22q-72 -44 -83 -259q-3 -56 -3 -128q0 -254 46 -330t200 -76q96 0 199.5 4t159.5 9l56 5v-309q-98 -41 -208.5 -55 t-331.5 -10q-279 4 -399 191.5t-120 574.5zM524 1686v192q0 51 49 51h185q47 0 47 -51v-192q0 -47 -47 -48h-185q-49 1 -49 48z" />
<glyph unicode="&#x10b;" horiz-adv-x="1003" d="M57 545q0 301 94.5 427t264.5 126h44h55q17 0 59 -1t69 -4t70 -8.5t76.5 -13.5t75.5 -20.5t79 -26.5v-233q-123 12 -305 12q-66 0 -90.5 -3t-52 -27.5t-34.5 -78t-7 -153.5q0 -96 6 -146.5t31.5 -76t53 -29.5t93.5 -4l319 16v-233q-53 -39 -130.5 -57.5t-128 -21.5 t-155 -1t-128.5 2q-359 0 -359 555zM426 1268v192q0 51 49 51h184q47 0 48 -51v-192q0 -47 -48 -47h-184q-49 0 -49 47z" />
<glyph unicode="&#x10c;" horiz-adv-x="1161" d="M63 754q0 385 114 573.5t405 188.5q213 0 308 -15.5t232 -66.5v-310l-12 2q-12 2 -34.5 5.5t-52.5 7.5t-66.5 7t-76.5 6t-86 5t-89 2q-121 0 -158 -22q-72 -44 -83 -259q-3 -56 -3 -128q0 -254 46 -330t200 -76q96 0 199.5 4t159.5 9l56 5v-309q-98 -41 -208.5 -55 t-331.5 -10q-279 4 -399 191.5t-120 574.5zM371 1925h227l100 -104l103 104h229l-205 -287h-268z" />
<glyph unicode="&#x10d;" horiz-adv-x="1003" d="M57 545q0 301 94.5 427t264.5 126h44h55q17 0 59 -1t69 -4t70 -8.5t76.5 -13.5t75.5 -20.5t79 -26.5v-233q-123 12 -305 12q-66 0 -90.5 -3t-52 -27.5t-34.5 -78t-7 -153.5q0 -96 6 -146.5t31.5 -76t53 -29.5t93.5 -4l319 16v-233q-53 -39 -130.5 -57.5t-128 -21.5 t-155 -1t-128.5 2q-359 0 -359 555zM229 1507h228l100 -104l102 104h230l-205 -286h-268z" />
<glyph unicode="&#x10e;" horiz-adv-x="1366" d="M92 0v1499h703q119 0 209 -39t146 -104.5t92 -163.5t49.5 -205.5t13.5 -243.5q0 -389 -125 -566t-385 -177h-703zM322 1919h227l100 -104l103 104h229l-205 -287h-268zM489 336h265q86 0 119.5 94t33.5 315q0 178 -19.5 272.5t-50 120t-83.5 25.5h-265v-827z" />
<glyph unicode="&#x10f;" horiz-adv-x="1335" d="M57 539q0 317 70 441t283 124q154 0 270 -62v566h397v-1608h-340l-57 100q-68 -57 -127 -84.5t-143 -27.5q-186 0 -269.5 124t-83.5 427zM455 559q0 -156 20.5 -203t69.5 -47q109 0 135 45v434q-29 31 -135 31q-49 0 -69.5 -49t-20.5 -211zM1188 1464v138h233v-138 l-20 -274h-193z" />
<glyph unicode="&#x110;" horiz-adv-x="1366" d="M-41 688v152h133v659h703q119 0 209 -39t146 -104.5t92 -163.5t49.5 -205.5t13.5 -243.5q0 -389 -125 -566t-385 -177h-703v688h-133zM489 336h265q86 0 119.5 94t33.5 315q0 178 -19.5 272.5t-50 120t-83.5 25.5h-265v-323h183v-152h-183v-352z" />
<glyph unicode="&#x111;" horiz-adv-x="1171" d="M45 539q0 317 69.5 441t282.5 124q154 0 271 -62v179h-193v151h193v236h397v-236h123v-151h-123v-1221h-340l-57 100q-68 -57 -127.5 -84.5t-143.5 -27.5q-186 0 -269 124t-83 427zM442 559q0 -156 20.5 -203t69.5 -47q109 0 136 45v434q-29 31 -136 31q-49 0 -69.5 -49 t-20.5 -211z" />
<glyph unicode="&#x112;" horiz-adv-x="1161" d="M82 330v821q0 348 381 348q430 0 670 -33v-333h-547q-49 0 -75 -19.5t-29 -39t-3 -56.5v-90l551 -23v-330l-551 -18v-90q0 -39 10.5 -62.5t33 -31.5t37.5 -10.5t46 -2.5h527v-331q-94 -12 -256 -21.5t-278 -11.5l-116 -2q-63 -2 -120.5 8t-127 40t-111.5 103.5t-42 184.5 zM328 1632v191h598v-191h-598z" />
<glyph unicode="&#x113;" horiz-adv-x="1075" d="M57 549q0 227 48.5 345t144.5 160t282 42q150 0 234 -12.5t149.5 -55.5t90 -123t24.5 -215q0 -160 -82 -225.5t-239 -65.5h-254q0 -37 9 -60.5t19.5 -35.5t39 -17t47 -5t63.5 1t69 1q154 0 308 22v-258q-29 -14 -66 -24.5t-88 -16.5t-84 -9t-99.5 -5t-86.5 -2h-94h-76 q-201 0 -280 133t-79 426zM254 1221v190h598v-190h-598zM455 651h118q27 0 43.5 18.5t16.5 47.5q0 61 -11.5 82.5t-60.5 21.5q-68 0 -88 -28.5t-18 -141.5z" />
<glyph unicode="&#x116;" horiz-adv-x="1161" d="M82 330v821q0 348 381 348q430 0 670 -33v-333h-547q-49 0 -75 -19.5t-29 -39t-3 -56.5v-90l551 -23v-330l-551 -18v-90q0 -39 10.5 -62.5t33 -31.5t37.5 -10.5t46 -2.5h527v-331q-94 -12 -256 -21.5t-278 -11.5l-116 -2q-63 -2 -120.5 8t-127 40t-111.5 103.5t-42 184.5 zM532 1679v193q0 51 50 51h184q47 0 47 -51v-193q0 -47 -47 -47h-184q-50 0 -50 47z" />
<glyph unicode="&#x117;" horiz-adv-x="1075" d="M57 549q0 227 48.5 345t144.5 160t282 42q150 0 234 -12.5t149.5 -55.5t90 -123t24.5 -215q0 -160 -82 -225.5t-239 -65.5h-254q0 -37 9 -60.5t19.5 -35.5t39 -17t47 -5t63.5 1t69 1q154 0 308 22v-258q-29 -14 -66 -24.5t-88 -16.5t-84 -9t-99.5 -5t-86.5 -2h-94h-76 q-201 0 -280 133t-79 426zM414 1268v192q0 51 49 51h184q45 0 45 -51v-192q0 -47 -45 -47h-184q-49 0 -49 47zM455 651h118q27 0 43.5 18.5t16.5 47.5q0 61 -11.5 82.5t-60.5 21.5q-68 0 -88 -28.5t-18 -141.5z" />
<glyph unicode="&#x118;" horiz-adv-x="1161" d="M82 330v821q0 348 381 348q430 0 670 -33v-333h-547q-49 0 -75 -19.5t-29 -39t-3 -56.5v-90l551 -23v-330l-551 -18v-90q0 -39 10.5 -62.5t33 -31.5t37.5 -10.5t46 -2.5h527v-329v-2h-3q-70 -49 -75.5 -102.5t30 -81t74.5 -21.5v-184q-70 -25 -143.5 6.5t-115.5 91 t-30.5 138.5t93.5 136l-480 -18q-63 -2 -120.5 8t-127 40t-111.5 103.5t-42 184.5z" />
<glyph unicode="&#x119;" horiz-adv-x="1075" d="M57 549q0 227 48.5 345t144.5 160t282 42q150 0 234 -12.5t149.5 -55.5t90 -123t24.5 -215q0 -160 -82 -225.5t-239 -65.5h-254q0 -37 9 -60.5t19.5 -35.5t39 -17t47 -5t63.5 1t69 1q154 0 308 22v-258q-45 -31 -64.5 -64.5t-15.5 -59t20.5 -46t40 -31t45.5 -6.5v-184 q-68 -23 -137.5 5t-112.5 81t-42 127t61 131q-94 -10 -389 -10q-201 0 -280 133t-79 426zM455 651h118q27 0 43.5 18.5t16.5 47.5q0 61 -11.5 82.5t-60.5 21.5q-68 0 -88 -28.5t-18 -141.5z" />
<glyph unicode="&#x11a;" horiz-adv-x="1161" d="M82 330v821q0 348 381 348q430 0 670 -33v-333h-547q-49 0 -75 -19.5t-29 -39t-3 -56.5v-90l551 -23v-330l-551 -18v-90q0 -39 10.5 -62.5t33 -31.5t37.5 -10.5t46 -2.5h527v-331q-94 -12 -256 -21.5t-278 -11.5l-116 -2q-63 -2 -120.5 8t-127 40t-111.5 103.5t-42 184.5 zM332 1919h227l100 -104l103 104h229l-205 -287h-268z" />
<glyph unicode="&#x11b;" horiz-adv-x="1075" d="M57 549q0 227 48.5 345t144.5 160t282 42q150 0 234 -12.5t149.5 -55.5t90 -123t24.5 -215q0 -160 -82 -225.5t-239 -65.5h-254q0 -37 9 -60.5t19.5 -35.5t39 -17t47 -5t63.5 1t69 1q154 0 308 22v-258q-29 -14 -66 -24.5t-88 -16.5t-84 -9t-99.5 -5t-86.5 -2h-94h-76 q-201 0 -280 133t-79 426zM233 1507h228l100 -104l103 104h229l-205 -286h-268zM455 651h118q27 0 43.5 18.5t16.5 47.5q0 61 -11.5 82.5t-60.5 21.5q-68 0 -88 -28.5t-18 -141.5z" />
<glyph unicode="&#x11c;" horiz-adv-x="1259" d="M63 758q0 184 21.5 313t75 234.5t153 158t248.5 52.5q250 0 335 -10.5t288 -65.5v-305q-2 0 -31 5t-77 11t-106.5 12t-135 11.5t-150.5 5.5q-139 0 -181 -85t-42 -341q0 -260 30.5 -330t161.5 -70q57 0 94 23.5t46 47.5l8 24v153h-101v246q96 51 359 51q66 0 139 -6v-893 h-280l-113 100q-45 -59 -91 -80.5t-163 -29.5q-123 -8 -213 30.5t-142.5 105.5t-83 173.5t-40 212t-9.5 246.5zM350 1638l205 287h268l187 -287h-228l-100 105l-102 -105h-230z" />
<glyph unicode="&#x11d;" horiz-adv-x="1159" d="M51 188q0 160 131 213q-121 78 -121 304q0 387 396 387h680v-218l-84 -36q23 -66 22 -195q0 -156 -89 -247t-310 -91h-197h-14h-17q-4 0 -14 -1t-15 -3t-11.5 -6t-8.5 -11.5t-2 -15.5q0 -20 12.5 -30.5t27 -11.5t42.5 -1h250q369 0 369 -354v-109q0 -315 -369 -315h-307 q-154 0 -251 80t-97 235v109l106 72q-51 23 -90 85t-39 160zM244 1221l205 286h268l186 -286h-227l-101 104l-102 -104h-229zM459 705q0 -70 19.5 -87.5t66.5 -17.5h45q53 0 70.5 17.5t17.5 87.5q0 59 -21.5 75.5t-68.5 16.5h-49q-51 0 -65.5 -21.5t-14.5 -70.5zM473 -72 v-102q0 -53 17.5 -68.5t72.5 -15.5h58q31 0 49 5t24 19.5t7 20.5t1 29v47q0 27 -21.5 45t-57.5 20h-68h-82z" />
<glyph unicode="&#x11e;" horiz-adv-x="1259" d="M63 758q0 184 21.5 313t75 234.5t153 158t248.5 52.5q250 0 335 -10.5t288 -65.5v-305q-2 0 -31 5t-77 11t-106.5 12t-135 11.5t-150.5 5.5q-139 0 -181 -85t-42 -341q0 -260 30.5 -330t161.5 -70q57 0 94 23.5t46 47.5l8 24v153h-101v246q96 51 359 51q66 0 139 -6v-893 h-280l-113 100q-45 -59 -91 -80.5t-163 -29.5q-123 -8 -213 30.5t-142.5 105.5t-83 173.5t-40 212t-9.5 246.5zM418 1872h137q0 -96 96 -96q100 0 101 96h137q0 -104 -64.5 -169t-173.5 -65q-106 0 -169.5 65t-63.5 169z" />
<glyph unicode="&#x11f;" horiz-adv-x="1159" d="M51 188q0 160 131 213q-121 78 -121 304q0 387 396 387h680v-218l-84 -36q23 -66 22 -195q0 -156 -89 -247t-310 -91h-197h-14h-17q-4 0 -14 -1t-15 -3t-11.5 -6t-8.5 -11.5t-2 -15.5q0 -20 12.5 -30.5t27 -11.5t42.5 -1h250q369 0 369 -354v-109q0 -315 -369 -315h-307 q-154 0 -251 80t-97 235v109l106 72q-51 23 -90 85t-39 160zM342 1454h137q0 -96 96 -96q100 0 101 96h137q0 -104 -64.5 -168.5t-173.5 -64.5q-106 0 -169.5 64.5t-63.5 168.5zM459 705q0 -70 19.5 -87.5t66.5 -17.5h45q53 0 70.5 17.5t17.5 87.5q0 59 -21.5 75.5 t-68.5 16.5h-49q-51 0 -65.5 -21.5t-14.5 -70.5zM473 -72v-102q0 -53 17.5 -68.5t72.5 -15.5h58q31 0 49 5t24 19.5t7 20.5t1 29v47q0 27 -21.5 45t-57.5 20h-68h-82z" />
<glyph unicode="&#x120;" horiz-adv-x="1259" d="M63 758q0 184 21.5 313t75 234.5t153 158t248.5 52.5q250 0 335 -10.5t288 -65.5v-305q-2 0 -31 5t-77 11t-106.5 12t-135 11.5t-150.5 5.5q-139 0 -181 -85t-42 -341q0 -260 30.5 -330t161.5 -70q57 0 94 23.5t46 47.5l8 24v153h-101v246q96 51 359 51q66 0 139 -6v-893 h-280l-113 100q-45 -59 -91 -80.5t-163 -29.5q-123 -8 -213 30.5t-142.5 105.5t-83 173.5t-40 212t-9.5 246.5zM524 1686v192q0 51 49 51h185q47 0 47 -51v-192q0 -47 -47 -48h-185q-49 1 -49 48z" />
<glyph unicode="&#x121;" horiz-adv-x="1159" d="M51 188q0 160 131 213q-121 78 -121 304q0 387 396 387h680v-218l-84 -36q23 -66 22 -195q0 -156 -89 -247t-310 -91h-197h-14h-17q-4 0 -14 -1t-15 -3t-11.5 -6t-8.5 -11.5t-2 -15.5q0 -20 12.5 -30.5t27 -11.5t42.5 -1h250q369 0 369 -354v-109q0 -315 -369 -315h-307 q-154 0 -251 80t-97 235v109l106 72q-51 23 -90 85t-39 160zM440 1268v192q0 51 49 51h185q47 0 47 -51v-192q0 -47 -47 -47h-185q-49 0 -49 47zM459 705q0 -70 19.5 -87.5t66.5 -17.5h45q53 0 70.5 17.5t17.5 87.5q0 59 -21.5 75.5t-68.5 16.5h-49q-51 0 -65.5 -21.5 t-14.5 -70.5zM473 -72v-102q0 -53 17.5 -68.5t72.5 -15.5h58q31 0 49 5t24 19.5t7 20.5t1 29v47q0 27 -21.5 45t-57.5 20h-68h-82z" />
<glyph unicode="&#x122;" horiz-adv-x="1259" d="M63 758q0 184 21.5 313t75 234.5t153 158t248.5 52.5q250 0 335 -10.5t288 -65.5v-305q-2 0 -31 5t-77 11t-106.5 12t-135 11.5t-150.5 5.5q-139 0 -181 -85t-42 -341q0 -260 30.5 -330t161.5 -70q57 0 94 23.5t46 47.5l8 24v153h-101v246q96 51 359 51q66 0 139 -6v-893 h-280l-113 100q-45 -59 -91 -80.5t-163 -29.5q-123 -8 -213 30.5t-142.5 105.5t-83 173.5t-40 212t-9.5 246.5zM479 -211q0 49 47 49h205q43 0 43 -49v-276q0 -168 -189 -158q-52 3 -96 16v115q27 0 40.5 6t15.5 13.5t2 19.5v8h-21q-47 0 -47 45v211z" />
<glyph unicode="&#x123;" horiz-adv-x="1159" d="M51 188q0 178 131 213q-121 78 -121 304q0 387 396 387h680v-218l-84 -36q23 -66 22 -195q0 -156 -89 -247t-310 -91h-197h-17h-18q-6 0 -17 -2t-16 -5t-9.5 -11t-4.5 -19q0 -8 2 -15t7.5 -11t9.5 -7.5t13 -4.5t14.5 -2t17.5 -2t18 -1l266 -26q92 -8 147.5 -23.5 t108 -53.5t75 -109.5t22.5 -182.5v-68q0 -315 -369 -315h-307q-154 0 -251 80t-97 235v132l127 67q-150 63 -150 227zM422 1264v276q0 168 189 159q52 -2 96 -16v-114q-27 0 -40.5 -6.5t-15.5 -13.5t-2 -19v-10h21q47 0 47 -45v-211q0 -49 -47 -50h-205q-43 1 -43 50z M459 705q0 -72 20.5 -98.5t65.5 -26.5h45q49 0 68.5 26.5t19.5 98.5q0 39 -6 63.5t-20.5 33.5t-28 12t-35.5 3h-49q-35 0 -53.5 -18.5t-22.5 -38.5t-4 -55zM473 -92v-82q0 -53 17.5 -68.5t72.5 -15.5h58q31 0 49 5t24 19.5t7 20.5t1 29v26q0 47 -79 54l-68 6z" />
<glyph unicode="&#x124;" horiz-adv-x="1302" d="M92 0v1499h397v-596h349v596h397v-1499h-397v547h-349v-547h-397zM334 1632l205 287h268l186 -287h-227l-100 105l-103 -105h-229z" />
<glyph unicode="&#x125;" d="M-207 1724l205 287h268l187 -287h-228l-100 105l-102 -105h-230zM-88 0v1602h395v-621q39 39 70 60.5t92 43t139 21.5q102 0 168 -29.5t96.5 -91t41 -126t10.5 -163.5v-696h-398v705q0 61 -16 83.5t-51 22.5q-117 0 -150 -76v-735h-397z" />
<glyph unicode="&#x126;" horiz-adv-x="1454" d="M23 1057v151h133v291h397v-291h348v291h397v-291h134v-151h-134v-1057h-397v547h-348v-547h-397v1057h-133zM553 903h348v154h-348v-154z" />
<glyph unicode="&#x127;" horiz-adv-x="1189" d="M0 1229v151h123v222h395v-222h195v-151h-195v-248q20 12 61.5 43t64 44t69.5 25.5t106 12.5q102 0 168 -29.5t96.5 -91t41 -126t10.5 -163.5v-696h-398v705q0 61 -16 83.5t-51 22.5q-117 0 -150 -76v-735h-397v1229h-123z" />
<glyph unicode="&#x128;" horiz-adv-x="557" d="M-66 1769q104 152 252 152q47 0 113 -36t104 -36q106 -6 191 82l53 -151q-98 -147 -229 -148q-45 0 -122 36t-116 36q-98 0 -190 -72zM92 0v1499h397v-1499h-397z" />
<glyph unicode="&#x129;" horiz-adv-x="534" d="M-88 1358q104 152 252 151q45 0 110.5 -35.5t106.5 -35.5q106 -6 190 82l54 -152q-98 -147 -230 -147q-45 0 -121.5 35.5t-115.5 35.5q-98 0 -191 -71zM70 0v1087h397v-1087h-397z" />
<glyph unicode="&#x12a;" horiz-adv-x="557" d="M-8 1632v191h598v-191h-598zM92 0v1499h397v-1499h-397z" />
<glyph unicode="&#x12b;" horiz-adv-x="534" d="M-31 1221v190h598v-190h-598zM70 0v1087h397v-1087h-397z" />
<glyph unicode="&#x12e;" horiz-adv-x="557" d="M92 0v1499h397v-1499h-108q-45 -31 -64.5 -63.5t-14.5 -59.5t20.5 -46t40 -29.5t47.5 -6.5v-184q-53 -18 -102.5 -6t-94.5 40.5t-68.5 73.5t-28.5 93.5t26.5 98.5t97.5 89h-148z" />
<glyph unicode="&#x12f;" horiz-adv-x="516" d="M57 1237v240q0 51 49 51h308q45 0 45 -51v-240q0 -47 -45 -47h-308q-49 0 -49 47zM59 0v1087h398v-1087h-119q-45 -31 -64.5 -63.5t-14.5 -59.5t20.5 -46t39 -29.5t46.5 -6.5v-184q-74 -25 -149 10t-116 97.5t-20.5 144.5t117.5 137h-138z" />
<glyph unicode="&#x130;" horiz-adv-x="557" d="M92 0v1499h397v-1499h-397zM152 1679v193q0 51 49 51h184q45 0 45 -51v-193q0 -47 -45 -47h-184q-49 0 -49 47z" />
<glyph unicode="&#x131;" horiz-adv-x="534" d="M70 0v1087h397v-1087h-397z" />
<glyph unicode="&#x134;" horiz-adv-x="727" d="M41 51v316q82 0 126 7t65.5 34.5t25.5 57.5t4 99v934h397v-1161q0 -229 -110 -301q-84 -51 -255 -45t-253 59zM131 1632l205 287h268l187 -287h-228l-100 105l-103 -105h-229z" />
<glyph unicode="&#x135;" horiz-adv-x="540" d="M-45 1217l205 286h266l188 -286h-229l-102 104l-99 -104h-229zM86 -553v1640h397v-1095q4 -375 -94 -545h-303z" />
<glyph unicode="&#x136;" horiz-adv-x="1351" d="M92 0v1499h377v-590h82l305 590h457l-412 -754l412 -745h-457l-305 573h-80v-573h-379zM502 -201q0 49 47 49h205q43 0 43 -49v-276q0 -167 -192 -157q-51 3 -93 16v114q57 -2 57 37v10h-20q-47 0 -47 47v209z" />
<glyph unicode="&#x137;" horiz-adv-x="1239" d="M70 0v1602h397v-861h41l221 346h488l-347 -483l347 -604h-465l-244 467h-41v-467h-397zM442 -201q0 49 47 49h205q43 0 43 -49v-276q0 -167 -192 -157q-51 3 -92 16v114q57 -2 57 37v10h-21q-47 0 -47 47v209z" />
<glyph unicode="&#x138;" horiz-adv-x="1251" d="M70 0v1087h399v-411h47l242 411h471l-355 -546l306 -541h-453l-217 401h-41v-401h-399z" />
<glyph unicode="&#x139;" horiz-adv-x="1077" d="M92 319v1180h397v-1036q0 -39 10.5 -62.5t33 -32t38 -10.5t45.5 -2h422v-356h-606q-152 0 -246 77.5t-94 241.5zM180 1632l156 293h299l-234 -293h-221z" />
<glyph unicode="&#x13a;" horiz-adv-x="665" d="M70 387v1217h397v-1135q0 -68 10 -109t24.5 -56t41.5 -30q86 -43 100 -43v-231h-283q-150 0 -220 88t-70 299zM156 1726l159 293h295l-229 -293h-225z" />
<glyph unicode="&#x13b;" horiz-adv-x="1077" d="M92 319v1180h397v-1036q0 -39 10.5 -62.5t33 -32t38 -10.5t45.5 -2h422v-356h-606q-152 0 -246 77.5t-94 241.5zM428 -190q0 49 47 49h205q43 0 43 -49v-277q0 -168 -189 -157q-52 3 -96 16v114q27 0 40.5 6.5t15.5 13.5t2 19v9h-21q-47 0 -47 45v211z" />
<glyph unicode="&#x13c;" horiz-adv-x="665" d="M70 387v1217h397v-1135q0 -68 10 -109t24.5 -56t41.5 -30q86 -43 100 -43v-231h-283q-150 0 -220 88t-70 299zM209 -193q0 49 47 50h205q43 0 43 -50v-276q0 -167 -192 -157q-51 3 -93 16v114q57 -2 57 37v10h-20q-47 1 -47 48v208z" />
<glyph unicode="&#x13d;" horiz-adv-x="1077" d="M92 319v1180h397v-1036q0 -39 10.5 -62.5t33 -32t38 -10.5t45.5 -2h422v-356h-606q-152 0 -246 77.5t-94 241.5zM592 1444v137h233v-137l-20 -275h-191z" />
<glyph unicode="&#x13e;" horiz-adv-x="831" d="M70 387v1217h397v-1135q0 -68 10 -109t24.5 -56t41.5 -30q86 -43 100 -43v-231h-283q-150 0 -220 88t-70 299zM582 1464v138h233v-138l-20 -274h-191z" />
<glyph unicode="&#x141;" horiz-adv-x="1191" d="M57 600v166l152 63v670h397v-500l185 78v-166l-185 -77v-371q0 -39 10.5 -62.5t33 -32t37.5 -10.5t46 -2h422v-356h-606q-152 0 -246 78t-94 241v345z" />
<glyph unicode="&#x142;" horiz-adv-x="778" d="M23 686v166l145 61v691h397v-523l191 82v-166l-191 -82v-446q0 -68 10.5 -109t24.5 -56t41 -30q86 -43 100 -43v-231h-282q-150 0 -220.5 88t-70.5 299v361z" />
<glyph unicode="&#x143;" horiz-adv-x="1386" d="M92 0v1499h402l428 -766v766h397v-1499h-397l-430 745v-745h-400zM594 1632l158 293h297l-232 -293h-223z" />
<glyph unicode="&#x144;" d="M70 0v1087h331l66 -106q45 43 72.5 63.5t88 41t138.5 20.5q102 0 167.5 -29.5t96.5 -91t41 -126t10 -163.5v-696h-397v705q0 61 -16.5 83.5t-51.5 22.5q-117 0 -149 -76v-735h-397zM463 1229l160 293h295l-230 -293h-225z" />
<glyph unicode="&#x145;" horiz-adv-x="1386" d="M92 0v1499h402l428 -766v766h397v-1499h-397l-430 745v-745h-400zM545 -201q0 49 47 49h205q43 0 43 -49v-276q0 -167 -192 -157q-51 3 -93 16v114q57 -2 57 37v10h-20q-47 0 -47 47v209z" />
<glyph unicode="&#x146;" d="M70 0v1087h331l66 -106q45 43 72.5 63.5t88 41t138.5 20.5q102 0 167.5 -29.5t96.5 -91t41 -126t10 -163.5v-696h-397v705q0 61 -16.5 83.5t-51.5 22.5q-117 0 -149 -76v-735h-397zM414 -201q0 49 47 49h205q43 0 43 -49v-276q0 -167 -192 -157q-51 3 -93 16v114 q57 -2 57 37v10h-20q-47 0 -47 47v209z" />
<glyph unicode="&#x147;" horiz-adv-x="1386" d="M92 0v1499h402l428 -766v766h397v-1499h-397l-430 745v-745h-400zM377 1919h225l103 -104l102 104h229l-205 -287h-270z" />
<glyph unicode="&#x148;" d="M70 0v1087h331l66 -106q45 43 72.5 63.5t88 41t138.5 20.5q102 0 167.5 -29.5t96.5 -91t41 -126t10 -163.5v-696h-397v705q0 61 -16.5 83.5t-51.5 22.5q-117 0 -149 -76v-735h-397zM246 1516h227l100 -105l103 105h229l-205 -287h-268z" />
<glyph unicode="&#x14a;" horiz-adv-x="1386" d="M92 0v1499h402l428 -766v766h397v-1499v-131q0 -459 -582 -395v280q51 0 75 3t54.5 14.5t43 37t12.5 68.5v123l-430 745v-745h-400z" />
<glyph unicode="&#x14b;" horiz-adv-x="1148" d="M70 0v1087h331l66 -106q20 12 61 43t63.5 44t69 25.5t105.5 12.5q102 0 167.5 -29.5t96.5 -91t41 -126t10 -163.5v-696l-2 -102q0 -102 -34.5 -185.5t-87 -130.5t-117 -78.5t-118.5 -43t-99 -9.5l-82 221q90 25 115.5 60t27.5 157v111v705q0 61 -16.5 83.5t-51.5 22.5 q-117 0 -149 -76v-735h-397z" />
<glyph unicode="&#x14c;" horiz-adv-x="1366" d="M76 739q0 147 17.5 263t45 197t73.5 138.5t94 90t117 52t130 24.5t143 5q84 0 146.5 -6t131 -24.5t117 -51t93.5 -90t72.5 -138.5t44 -196.5t16.5 -263.5q0 -195 -31 -332t-80 -216.5t-133 -125t-169 -59.5t-208 -14q-104 0 -174.5 8t-148.5 33.5t-127 77t-90 132.5 t-60.5 204.5t-19.5 291.5zM397 1632v191h598v-191h-598zM473 739q0 -244 39 -317.5t184 -73.5q133 0 178.5 78t45.5 313q0 137 -8.5 213t-34 124t-66.5 62.5t-115 14.5q-96 0 -140 -27.5t-63.5 -114t-19.5 -272.5z" />
<glyph unicode="&#x14d;" horiz-adv-x="1134" d="M57 528q0 328 112 449t398.5 121t398 -123t111.5 -447q0 -305 -109.5 -421.5t-400.5 -116.5q-285 0 -397.5 121.5t-112.5 416.5zM268 1221v190h598v-190h-598zM455 528q0 -164 17 -203.5t95 -39.5q82 0 97.5 34.5t15.5 208.5q0 188 -15.5 231.5t-97.5 43.5q-86 0 -99 -41 t-13 -234z" />
<glyph unicode="&#x150;" horiz-adv-x="1366" d="M76 739q0 147 17.5 263t45 197t73.5 138.5t94 90t117 52t130 24.5t143 5q84 0 146.5 -6t131 -24.5t117 -51t93.5 -90t72.5 -138.5t44 -196.5t16.5 -263.5q0 -195 -31 -332t-80 -216.5t-133 -125t-169 -59.5t-208 -14q-104 0 -174.5 8t-148.5 33.5t-127 77t-90 132.5 t-60.5 204.5t-19.5 291.5zM408 1632l157 293h297l-231 -293h-223zM473 739q0 -244 39 -317.5t184 -73.5q133 0 178.5 78t45.5 313q0 137 -8.5 213t-34 124t-66.5 62.5t-115 14.5q-96 0 -140 -27.5t-63.5 -114t-19.5 -272.5zM762 1632l158 293h297l-232 -293h-223z" />
<glyph unicode="&#x151;" horiz-adv-x="1134" d="M57 528q0 328 112 449t398.5 121t398 -123t111.5 -447q0 -305 -109.5 -421.5t-400.5 -116.5q-285 0 -397.5 121.5t-112.5 416.5zM279 1221l157 292h297l-231 -292h-223zM455 528q0 -164 17 -203.5t95 -39.5q82 0 97.5 34.5t15.5 208.5q0 188 -15.5 231.5t-97.5 43.5 q-86 0 -99 -41t-13 -234zM633 1221l158 292h296l-231 -292h-223z" />
<glyph unicode="&#x152;" horiz-adv-x="1988" d="M76 739q0 147 17.5 263t45 197t73.5 138.5t94 90t117 52t130 24.5t143 5q236 0 357 -61q94 59 245 51q389 0 629 -33v-333h-506q-49 0 -74.5 -19.5t-28.5 -39t-3 -56.5v-90l510 -23v-330l-510 -18v-90q0 -39 10 -62.5t32.5 -31.5t38 -10.5t46.5 -2.5h485v-331 q-211 -29 -608 -35q-178 -10 -279 53q-119 -55 -344 -55q-104 0 -174.5 8t-148.5 33.5t-127 77t-90 132.5t-60.5 204.5t-19.5 291.5zM473 739q0 -244 39 -317.5t184 -73.5q133 0 177.5 77t44.5 314q0 262 -41 338t-181 76q-96 0 -140 -27.5t-63.5 -114t-19.5 -272.5z" />
<glyph unicode="&#x153;" horiz-adv-x="1697" d="M57 528q0 328 112 449t398 121q190 0 297 -49q96 47 291 47q150 0 234 -12.5t149.5 -55.5t90 -123t24.5 -215q0 -160 -82 -225.5t-240 -65.5h-254q0 -37 9.5 -60.5t19.5 -35.5t39 -17t47 -5t63 1t70 1q154 0 307 22v-258q-29 -14 -65.5 -24.5t-88 -16.5t-84 -9t-99 -5 t-87.5 -2h-94h-76q-109 0 -184 41q-104 -41 -287 -41q-285 0 -397.5 121.5t-112.5 416.5zM455 528q0 -164 17 -203.5t95 -39.5q82 0 97.5 36.5t15.5 195.5v32q0 172 -16.5 213t-96.5 41q-86 0 -99 -41t-13 -234zM1077 651h119q27 0 43 18.5t16 47.5q0 61 -11 82.5t-60 21.5 q-68 0 -88.5 -28.5t-18.5 -141.5z" />
<glyph unicode="&#x154;" horiz-adv-x="1267" d="M90 0v1499h670q217 0 338 -109.5t121 -371.5q0 -127 -17.5 -213t-55.5 -132t-67.5 -65.5t-81.5 -40.5l258 -567h-452l-193 530l-123 29v-559h-397zM489 858h220q72 0 91 35t19 125q0 74 -23.5 108.5t-86.5 34.5h-220v-303zM535 1632l157 293h297l-231 -293h-223z" />
<glyph unicode="&#x155;" horiz-adv-x="839" d="M70 0v1087h352l45 -137q29 59 93.5 103.5t141.5 44.5q63 0 97 -11v-380h-162q-41 0 -62.5 -2.5t-51 -12.5t-43 -37.5t-13.5 -70.5v-584h-397zM324 1221l155 292h299l-233 -292h-221z" />
<glyph unicode="&#x156;" horiz-adv-x="1267" d="M90 0v1499h670q217 0 338 -109.5t121 -371.5q0 -127 -17.5 -213t-55.5 -132t-67.5 -65.5t-81.5 -40.5l258 -567h-452l-193 530l-123 29v-559h-397zM463 -186q0 49 47 49h205q43 0 43 -49v-277q0 -168 -189 -157q-52 3 -96 16v115q27 0 40 6t15 13t2 19v9h-20 q-47 0 -47 45v211zM489 858h220q72 0 91 35t19 125q0 74 -23.5 108.5t-86.5 34.5h-220v-303z" />
<glyph unicode="&#x157;" horiz-adv-x="839" d="M53 0v1087h353l45 -137q29 59 93 103.5t142 44.5q63 0 96 -11v-380h-161q-41 0 -62.5 -2.5t-51.5 -12.5t-43 -37.5t-13 -70.5v-584h-398zM90 -201q0 49 47 49h205q43 0 43 -49v-276q0 -167 -192 -157q-51 3 -93 16v114q57 -2 58 37v10h-21q-47 0 -47 47v209z" />
<glyph unicode="&#x158;" horiz-adv-x="1267" d="M90 0v1499h670q217 0 338 -109.5t121 -371.5q0 -127 -17.5 -213t-55.5 -132t-67.5 -65.5t-81.5 -40.5l258 -567h-452l-193 530l-123 29v-559h-397zM326 1919h227l100 -104l103 104h229l-205 -287h-268zM489 858h220q72 0 91 35t19 125q0 74 -23.5 108.5t-86.5 34.5h-220 v-303z" />
<glyph unicode="&#x159;" horiz-adv-x="839" d="M70 0v1087h352l45 -137q29 59 93.5 103.5t141.5 44.5q63 0 97 -11v-380h-162q-41 0 -62.5 -2.5t-51 -12.5t-43 -37.5t-13.5 -70.5v-584h-397zM104 1507h228l100 -104l103 104h229l-205 -286h-268z" />
<glyph unicode="&#x15a;" horiz-adv-x="1220" d="M76 981v125q0 193 111.5 293t293.5 112q385 23 635 -67v-309q-186 20 -491 20q-90 0 -121 -14.5t-31 -75.5v-23q0 -53 22.5 -75.5t100.5 -22.5h192q90 0 160 -29.5t111 -75.5t67.5 -106.5t35.5 -114t9 -108.5v-68q0 -459 -415 -458q-299 0 -391.5 9t-241.5 60v309 q225 -23 530 -22q66 0 93.5 19.5t27.5 64.5v33q0 47 -22.5 68.5t-85.5 21.5h-185q-111 0 -191.5 37t-119.5 86t-62.5 117.5t-27.5 109.5t-4 84zM516 1636l158 293h297l-232 -293h-223z" />
<glyph unicode="&#x15b;" horiz-adv-x="1046" d="M45 692v94q0 139 67.5 225.5t215.5 86.5q388 0 491 -19q96 -17 127 -55v-233h-459q-16 0 -24 -1.5t-14.5 -9.5t-6.5 -26v-13q0 -16 7.5 -23t14.5 -8t23 -1h205q162 0 234.5 -81t72.5 -214v-121q0 -156 -77.5 -229.5t-188.5 -73.5h-72q-174 0 -260 2t-183 19.5t-128 54.5 v233h475q25 0 31 8t6 27v10q0 20 -7 28.5t-30 8.5h-196q-150 0 -237 78.5t-87 232.5zM424 1221l158 292h297l-232 -292h-223z" />
<glyph unicode="&#x15c;" horiz-adv-x="1220" d="M76 981v125q0 193 111.5 293t293.5 112q385 23 635 -67v-309q-186 20 -491 20q-90 0 -121 -14.5t-31 -75.5v-23q0 -53 22.5 -75.5t100.5 -22.5h192q90 0 160 -29.5t111 -75.5t67.5 -106.5t35.5 -114t9 -108.5v-68q0 -459 -415 -458q-299 0 -391.5 9t-241.5 60v309 q225 -23 530 -22q66 0 93.5 19.5t27.5 64.5v33q0 47 -22.5 68.5t-85.5 21.5h-185q-111 0 -191.5 37t-119.5 86t-62.5 117.5t-27.5 109.5t-4 84zM299 1636l205 287h268l186 -287h-227l-100 105l-103 -105h-229z" />
<glyph unicode="&#x15d;" horiz-adv-x="1046" d="M45 692v94q0 139 67.5 225.5t215.5 86.5q388 0 491 -19q96 -17 127 -55v-233h-459q-16 0 -24 -1.5t-14.5 -9.5t-6.5 -26v-13q0 -16 7.5 -23t14.5 -8t23 -1h205q162 0 234.5 -81t72.5 -214v-121q0 -156 -77.5 -229.5t-188.5 -73.5h-72q-174 0 -260 2t-183 19.5t-128 54.5 v233h475q25 0 31 8t6 27v10q0 20 -7 28.5t-30 8.5h-196q-150 0 -237 78.5t-87 232.5zM197 1221l204 286h269l186 -286h-227l-101 104l-102 -104h-229z" />
<glyph unicode="&#x15e;" horiz-adv-x="1220" d="M76 981v125q0 193 111.5 293t293.5 112q385 23 635 -67v-309q-186 20 -491 20q-90 0 -121 -14.5t-31 -75.5v-23q0 -53 22.5 -75.5t100.5 -22.5h192q90 0 160 -29.5t111 -75.5t67.5 -106.5t35.5 -114t9 -108.5v-68q0 -459 -415 -458q-299 0 -391.5 9t-241.5 60v309 q225 -23 530 -22q66 0 93.5 19.5t27.5 64.5v33q0 47 -22.5 68.5t-85.5 21.5h-185q-111 0 -191.5 37t-119.5 86t-62.5 117.5t-27.5 109.5t-4 84zM401 -225l76 30q43 18 50.5 33t7.5 74h239q0 -160 -54 -229.5t-194 -69.5h-125v162z" />
<glyph unicode="&#x15f;" horiz-adv-x="1046" d="M45 692v94q0 139 67.5 225.5t215.5 86.5q388 0 491 -19q96 -17 127 -55v-233h-459q-16 0 -24 -1.5t-14.5 -9.5t-6.5 -26v-13q0 -16 7.5 -23t14.5 -8t23 -1h205q162 0 234.5 -81t72.5 -214v-121q0 -156 -77.5 -229.5t-188.5 -73.5h-72q-174 0 -260 2t-183 19.5t-128 54.5 v233h475q25 0 31 8t6 27v10q0 20 -7 28.5t-30 8.5h-196q-150 0 -237 78.5t-87 232.5zM287 -217l75 31q43 18 50.5 32.5t7.5 73.5h239q0 -160 -54 -229.5t-193 -69.5h-125v162z" />
<glyph unicode="&#x160;" horiz-adv-x="1220" d="M76 981v125q0 193 111.5 293t293.5 112q385 23 635 -67v-309q-186 20 -491 20q-90 0 -121 -14.5t-31 -75.5v-23q0 -53 22.5 -75.5t100.5 -22.5h192q90 0 160 -29.5t111 -75.5t67.5 -106.5t35.5 -114t9 -108.5v-68q0 -459 -415 -458q-299 0 -391.5 9t-241.5 60v309 q225 -23 530 -22q66 0 93.5 19.5t27.5 64.5v33q0 47 -22.5 68.5t-85.5 21.5h-185q-111 0 -191.5 37t-119.5 86t-62.5 117.5t-27.5 109.5t-4 84zM313 1923h228l100 -104l102 104h230l-205 -287h-268z" />
<glyph unicode="&#x161;" horiz-adv-x="1046" d="M45 692v94q0 139 67.5 225.5t215.5 86.5q388 0 491 -19q96 -17 127 -55v-233h-459q-16 0 -24 -1.5t-14.5 -9.5t-6.5 -26v-13q0 -16 7.5 -23t14.5 -8t23 -1h205q162 0 234.5 -81t72.5 -214v-121q0 -156 -77.5 -229.5t-188.5 -73.5h-72q-174 0 -260 2t-183 19.5t-128 54.5 v233h475q25 0 31 8t6 27v10q0 20 -7 28.5t-30 8.5h-196q-150 0 -237 78.5t-87 232.5zM209 1507h227l101 -104l102 104h229l-204 -286h-269z" />
<glyph unicode="&#x162;" horiz-adv-x="1243" d="M41 1143v356h1163v-356h-389v-1143h-397v1143h-377zM371 -238l75 31q43 18 50.5 32.5t7.5 74.5h239q0 -160 -54 -229.5t-193 -69.5h-125v161z" />
<glyph unicode="&#x163;" horiz-adv-x="788" d="M23 815v197l153 78l57 303h340v-303h183v-275h-183v-344q0 -100 17.5 -139t56.5 -60q86 -43 101 -43v-231h-308q-129 0 -196.5 91t-67.5 300v426h-153zM199 -242l75 31q43 18 50.5 32.5t7.5 74.5h239q0 -160 -54 -229.5t-193 -69.5h-125v161z" />
<glyph unicode="&#x164;" horiz-adv-x="1243" d="M41 1143v356h1163v-356h-389v-1143h-397v1143h-377zM293 1919h227l101 -104l102 104h229l-204 -287h-269z" />
<glyph unicode="&#x165;" horiz-adv-x="923" d="M23 815v197l153 78l57 303h340v-303h183v-275h-183v-344q0 -100 17.5 -139t56.5 -60q86 -43 101 -43v-231h-308q-129 0 -196.5 91t-67.5 300v426h-153zM668 1503v137h233v-137l-20 -274h-191z" />
<glyph unicode="&#x166;" horiz-adv-x="1208" d="M23 1143v356h1163v-356h-389v-275h164v-151h-164v-717h-398v717h-163v151h163v275h-376z" />
<glyph unicode="&#x167;" horiz-adv-x="778" d="M23 815v197l153 78l57 303h340v-303h183v-275h-183v-156h132v-151h-132v-37q0 -100 17.5 -139t56.5 -60q86 -43 101 -43v-231h-308q-129 0 -196.5 91t-67.5 300v119h-127v151h127v156h-153z" />
<glyph unicode="&#x168;" horiz-adv-x="1341" d="M92 655v844h397v-844q0 -72 2.5 -107.5t12.5 -81.5t30.5 -67.5t58.5 -37t95 -15.5q53 0 89 16.5t55.5 38t28.5 67.5t11 83t2 104v844h400v-844q0 -109 -12.5 -197.5t-32 -153t-53 -116t-64.5 -83t-79 -55t-81.5 -35t-90 -17.5t-87.5 -7t-86 -1h-19q-110 0 -168.5 4 t-149.5 38t-138 100.5t-84 198t-37 324.5zM328 1769q100 152 250 152q45 0 110.5 -36t106.5 -36q109 -6 192 82l53 -151q-98 -147 -229 -148q-47 0 -124 36t-114 36q-96 0 -192 -72z" />
<glyph unicode="&#x169;" d="M57 391v696h398v-704q0 -61 16 -84t51 -23q117 0 150 76v735h397v-1087h-332l-65 106q-20 -12 -61.5 -42.5t-64 -44t-68.5 -25.5t-105 -12q-102 0 -168 29.5t-96.5 91t-41 126t-10.5 162.5zM207 1358q104 152 252 151q45 0 110.5 -35.5t106.5 -35.5q106 -6 190 82 l54 -152q-98 -147 -230 -147q-45 0 -121.5 35.5t-115.5 35.5q-98 0 -191 -71z" />
<glyph unicode="&#x16a;" horiz-adv-x="1341" d="M92 655v844h397v-844q0 -72 2.5 -107.5t12.5 -81.5t30.5 -67.5t58.5 -37t95 -15.5q53 0 89 16.5t55.5 38t28.5 67.5t11 83t2 104v844h400v-844q0 -109 -12.5 -197.5t-32 -153t-53 -116t-64.5 -83t-79 -55t-81.5 -35t-90 -17.5t-87.5 -7t-86 -1h-19q-110 0 -168.5 4 t-149.5 38t-138 100.5t-84 198t-37 324.5zM385 1632v191h598v-191h-598z" />
<glyph unicode="&#x16b;" d="M57 391v696h398v-704q0 -61 16 -84t51 -23q117 0 150 76v735h397v-1087h-332l-65 106q-20 -12 -61.5 -42.5t-64 -44t-68.5 -25.5t-105 -12q-102 0 -168 29.5t-96.5 91t-41 126t-10.5 162.5zM264 1221v190h598v-190h-598z" />
<glyph unicode="&#x16c;" horiz-adv-x="1341" d="M92 655v844h397v-844q0 -72 2.5 -107.5t12.5 -81.5t30.5 -67.5t58.5 -37t95 -15.5q53 0 89 16.5t55.5 38t28.5 67.5t11 83t2 104v844h400v-844q0 -109 -12.5 -197.5t-32 -153t-53 -116t-64.5 -83t-79 -55t-81.5 -35t-90 -17.5t-87.5 -7t-86 -1h-19q-110 0 -168.5 4 t-149.5 38t-138 100.5t-84 198t-37 324.5zM446 1866h140q0 -96 94 -97q102 0 102 97h136q0 -104 -63.5 -169t-174.5 -65q-104 0 -169 65t-65 169z" />
<glyph unicode="&#x16d;" d="M57 391v696h398v-704q0 -61 16 -84t51 -23q117 0 150 76v735h397v-1087h-332l-65 106q-20 -12 -61.5 -42.5t-64 -44t-68.5 -25.5t-105 -12q-102 0 -168 29.5t-96.5 91t-41 126t-10.5 162.5zM328 1454h137q0 -96 96 -96q100 0 101 96h137q0 -104 -64.5 -168.5 t-173.5 -64.5q-106 0 -169.5 64.5t-63.5 168.5z" />
<glyph unicode="&#x16e;" horiz-adv-x="1341" d="M92 655v844h397v-844q0 -72 2.5 -107.5t12.5 -81.5t30.5 -67.5t58.5 -37t95 -15.5q53 0 89 16.5t55.5 38t28.5 67.5t11 83t2 104v844h400v-844q0 -109 -12.5 -197.5t-32 -153t-53 -116t-64.5 -83t-79 -55t-81.5 -35t-90 -17.5t-87.5 -7t-86 -1h-19q-110 0 -168.5 4 t-149.5 38t-138 100.5t-84 198t-37 324.5zM475 1841q0 88 61.5 149.5t147.5 61.5t146.5 -61.5t60.5 -149.5t-60.5 -148.5t-146.5 -60.5t-147.5 60.5t-61.5 148.5zM614 1841q0 -29 20.5 -48t49.5 -19t48.5 19t19.5 48t-19.5 49.5t-48.5 20.5t-49.5 -20.5t-20.5 -49.5z" />
<glyph unicode="&#x16f;" d="M57 391v696h398v-704q0 -61 16 -84t51 -23q117 0 150 76v735h397v-1087h-332l-65 106q-20 -12 -61.5 -42.5t-64 -44t-68.5 -25.5t-105 -12q-102 0 -168 29.5t-96.5 91t-41 126t-10.5 162.5zM356 1429.5q0 88.5 61.5 149.5t147.5 61t145.5 -61t59.5 -149.5t-59.5 -148.5 t-145.5 -60t-147.5 60t-61.5 148.5zM496 1429.5q0 -28.5 19.5 -48t49.5 -19.5q29 0 47.5 19.5t18.5 48t-19.5 49t-46.5 20.5q-31 0 -50 -20.5t-19 -49z" />
<glyph unicode="&#x170;" horiz-adv-x="1341" d="M92 655v844h397v-844q0 -72 2.5 -107.5t12.5 -81.5t30.5 -67.5t58.5 -37t95 -15.5q53 0 89 16.5t55.5 38t28.5 67.5t11 83t2 104v844h400v-844q0 -109 -12.5 -197.5t-32 -153t-53 -116t-64.5 -83t-79 -55t-81.5 -35t-90 -17.5t-87.5 -7t-86 -1h-19q-110 0 -168.5 4 t-149.5 38t-138 100.5t-84 198t-37 324.5zM393 1632l160 293h295l-230 -293h-225zM750 1632l155 293h299l-233 -293h-221z" />
<glyph unicode="&#x171;" d="M57 391v696h398v-704q0 -61 16 -84t51 -23q117 0 150 76v735h397v-1087h-332l-65 106q-20 -12 -61.5 -42.5t-64 -44t-68.5 -25.5t-105 -12q-102 0 -168 29.5t-96.5 91t-41 126t-10.5 162.5zM274 1221l158 292h297l-231 -292h-224zM629 1221l157 292h297l-231 -292h-223z " />
<glyph unicode="&#x172;" horiz-adv-x="1341" d="M92 655v844h397v-844q0 -72 2.5 -107.5t12.5 -81.5t30.5 -67.5t58.5 -37t95 -15.5q53 0 89 16.5t55.5 38t28.5 67.5t11 83t2 104v844h400v-844q0 -127 -17.5 -228t-44 -169t-69.5 -118t-85 -77.5t-99.5 -45t-103.5 -22.5t-105 -5q-63 -47 -65.5 -98.5t32.5 -78t74 -20.5 v-184q-72 -25 -147 9t-116 95.5t-25.5 140t103.5 136.5q-92 2 -153.5 11t-136 48t-118.5 106.5t-75 194.5t-31 305z" />
<glyph unicode="&#x173;" d="M57 391v696h398v-704q0 -61 16 -84t51 -23q117 0 150 76v735h397v-1087h-332l-65 106q-20 -12 -61.5 -42.5t-64 -44t-68.5 -25.5t-105 -12q-102 0 -168 29.5t-96.5 91t-41 126t-10.5 162.5zM714 -192.5q-5 47.5 27.5 98.5t98.5 90h141q-45 -31 -64.5 -64.5t-15.5 -59.5 t20.5 -46.5t40 -30.5t46.5 -6v-184q-53 -18 -101.5 -6t-93.5 40.5t-69.5 74.5t-29.5 93.5z" />
<glyph unicode="&#x174;" horiz-adv-x="2084" d="M51 1499h418l248 -1012l186 1012h418l-76 -311l209 -701l186 1012h418l-366 -1499h-480l-137 489l-121 -489h-479zM741 1632l205 287h268l187 -287h-227l-101 105l-102 -105h-230z" />
<glyph unicode="&#x175;" horiz-adv-x="1734" d="M23 1087h421l134 -659l122 659h385l-47 -247l133 -412l119 659h424l-299 -1087h-459l-98 281l-78 -281h-458zM559 1221l205 286h268l187 -286h-228l-100 104l-103 -104h-229z" />
<glyph unicode="&#x176;" horiz-adv-x="1390" d="M51 1499h432l215 -663l232 663h432l-473 -1089v-410h-397v410zM377 1632l205 287h268l186 -287h-227l-100 105l-103 -105h-229z" />
<glyph unicode="&#x177;" horiz-adv-x="1226" d="M25 1087h411l125 -688q14 -76 88 -80l142 768h403l-293 -1431l-145 -209h-295l121 553q-315 0 -387 319zM279 1221l204 286h271l184 -286h-225l-103 104l-102 -104h-229z" />
<glyph unicode="&#x178;" horiz-adv-x="1390" d="M51 1499h432l215 -663l232 663h432l-473 -1089v-410h-397v410zM311 1767.5q0 55.5 40 94.5t95.5 39t94.5 -39t39 -94.5t-39 -95.5t-94.5 -40t-95.5 40t-40 95.5zM834 1767.5q0 55.5 39.5 94.5t95 39t94.5 -39t39 -94.5t-39 -95.5t-94.5 -40t-95 40t-39.5 95.5z" />
<glyph unicode="&#x179;" horiz-adv-x="1130" d="M41 0v356l586 787h-586v356h1051v-356l-525 -787h525v-356h-1051zM455 1632l157 293h297l-231 -293h-223z" />
<glyph unicode="&#x17a;" horiz-adv-x="1001" d="M35 772v315h934v-315l-371 -455h371v-315h-903v311l403 459h-434zM389 1221l160 292h295l-230 -292h-225z" />
<glyph unicode="&#x17b;" horiz-adv-x="1130" d="M41 0v356l586 787h-586v356h1051v-356l-525 -787h525v-356h-1051zM426 1679v193q0 51 49 51h184q47 0 48 -51v-193q0 -47 -48 -47h-184q-49 0 -49 47z" />
<glyph unicode="&#x17c;" horiz-adv-x="1001" d="M35 772v315h934v-315l-371 -455h371v-315h-903v311l403 459h-434zM360 1268v192q0 51 50 51h184q49 0 49 -51v-192q0 -47 -49 -47h-184q-50 0 -50 47z" />
<glyph unicode="&#x17d;" horiz-adv-x="1130" d="M41 0v356l586 787h-586v356h1051v-356l-525 -787h525v-356h-1051zM238 1919h225l102 -104l103 104h229l-205 -287h-270z" />
<glyph unicode="&#x17e;" horiz-adv-x="1001" d="M35 772v315h934v-315l-371 -455h371v-315h-903v311l403 459h-434zM172 1507h227l101 -104l102 104h229l-204 -286h-269z" />
<glyph unicode="&#x192;" horiz-adv-x="1216" d="M23 -367l38 244h82q41 0 74 18.5t52.5 45t34.5 71.5t22.5 80t15.5 88l86 551h-152l43 275h152l6 30q43 272 155.5 437t285.5 165q45 0 83.5 -3t63.5 -7t49.5 -10t34.5 -10t26.5 -11.5t18.5 -9.5l-37 -244h-78q-96 0 -138 -74.5t-67 -232.5l-6 -30h195l-43 -275h-195 l-86 -551q-45 -295 -150.5 -446.5t-285.5 -151.5q-210 0 -280 51z" />
<glyph unicode="&#x2c6;" horiz-adv-x="774" d="M57 1087l205 287h268l187 -287h-228l-100 105l-102 -105h-230z" />
<glyph unicode="&#x2c7;" horiz-adv-x="774" d="M57 1374h228l100 -104l102 104h230l-205 -287h-268z" />
<glyph unicode="&#x2d8;" horiz-adv-x="583" d="M57 1319h138q0 -96 96 -96q100 0 100 96h137q0 -104 -64.5 -169t-172.5 -65q-106 0 -170 65t-64 169z" />
<glyph unicode="&#x2d9;" horiz-adv-x="395" d="M57 1098v192q0 51 49 51h185q47 0 47 -51v-192q0 -47 -47 -47h-185q-49 0 -49 47z" />
<glyph unicode="&#x2da;" horiz-adv-x="530" d="M57 1294q0 88 61.5 149.5t147.5 61.5t146.5 -61.5t60.5 -149.5t-60.5 -148.5t-146.5 -60.5t-147.5 60.5t-61.5 148.5zM197 1294.5q0 -28.5 20.5 -48t49 -19.5t48 19.5t19.5 48t-19.5 49t-48 20.5t-49 -20.5t-20.5 -49z" />
<glyph unicode="&#x2db;" horiz-adv-x="403" d="M54 -188.5q-5 47.5 27.5 98.5t98.5 90h142q-45 -31 -64.5 -64.5t-15.5 -59.5t20.5 -46t40 -30.5t45.5 -6.5v-184q-53 -18 -101 -6t-93 40.5t-70 74.5t-30 93.5z" />
<glyph unicode="&#x2dc;" horiz-adv-x="827" d="M57 1225q104 152 252 151q47 0 112.5 -35.5t104.5 -35.5q106 -6 191 81l53 -151q-98 -147 -229 -148q-45 0 -122 36t-116 36q-98 0 -190 -72z" />
<glyph unicode="&#x2dd;" horiz-adv-x="858" d="M23 1087l157 293h297l-231 -293h-223zM377 1087l158 293h296l-231 -293h-223z" />
<glyph unicode="&#x338;" horiz-adv-x="1271" d="M80 393v692q0 201 102.5 307.5t294.5 106.5h336q379 0 379 -393v-713q0 -184 -99.5 -288.5t-281.5 -104.5h-336q-197 0 -296 102.5t-99 290.5zM477 631l273 499q-20 12 -54 13h-116q-102 0 -103 -119v-301v-92zM514 377q27 -20 80 -21h86q59 0 87 21.5t28 97.5v338v78z " />
<glyph unicode="&#x3a9;" horiz-adv-x="1538" d="M74 815q0 127 34.5 244t110.5 222t217.5 168.5t333.5 63.5q184 0 320.5 -57t213 -158.5t113.5 -224.5t37 -268q0 -164 -41 -259t-129 -204l180 -20v-322h-549v344q80 80 111 187.5t31 256.5q0 45 -6.5 90.5t-24.5 97.5t-48 90t-84 64.5t-124 26.5q-299 0 -299 -379 q0 -150 29.5 -248t117.5 -186v-344h-532v324l190 20q-202 139 -202 471z" />
<glyph unicode="&#x3c0;" horiz-adv-x="1331" d="M23 731v356h1187v-356h-120v-309q0 -86 29.5 -110.5t111.5 -24.5h78v-234q-94 -63 -283 -63q-334 0 -334 411v330h-137v-731h-397v731h-135z" />
<glyph unicode="&#x1e02;" horiz-adv-x="1251" d="M92 0v1499h651q451 0 451 -409q0 -109 -58.5 -206.5t-160.5 -105.5q113 -18 184.5 -109t71.5 -210q0 -246 -117 -352.5t-360 -106.5h-662zM489 336h244q55 0 78 36t23 107q0 147 -101 148h-244v-291zM489 942h224q45 0 68.5 29.5t23.5 75.5q0 117 -92 116h-224v-221z M500 1679v193q0 51 49 51h184q49 0 49 -51v-193q0 -47 -49 -47h-184q-49 0 -49 47z" />
<glyph unicode="&#x1e03;" horiz-adv-x="1144" d="M49 0v1608h397v-566q117 61 271 62q211 0 281.5 -128t70.5 -437q0 -293 -84 -422t-268 -129q-84 0 -141.5 27.5t-126.5 84.5l-60 -100h-340zM106 1778v192q0 51 50 51h184q47 0 47 -51v-192q0 -47 -47 -47h-184q-50 0 -50 47zM449 354q27 -45 133 -45q49 0 69.5 47 t20.5 203q0 162 -20.5 211t-69.5 49q-104 0 -133 -31v-434z" />
<glyph unicode="&#x1e0a;" horiz-adv-x="1366" d="M92 0v1499h703q119 0 209 -39t146 -104.5t92 -163.5t49.5 -205.5t13.5 -243.5q0 -389 -125 -566t-385 -177h-703zM489 336h265q86 0 119.5 94t33.5 315q0 178 -19.5 272.5t-50 120t-83.5 25.5h-265v-827zM500 1679v193q0 51 49 51h184q47 0 47 -51v-193q0 -47 -47 -47 h-184q-49 0 -49 47z" />
<glyph unicode="&#x1e0b;" horiz-adv-x="1144" d="M57 539q0 317 70 441t283 124q154 0 270 -62v566h397v-1608h-340l-59 100q-70 -57 -127 -84.5t-141 -27.5q-186 0 -269.5 124t-83.5 427zM455 559q0 -156 20.5 -203t69.5 -47q106 0 133 45v434q-29 31 -133 31q-49 0 -69.5 -49t-20.5 -211zM741 1778v192q0 51 50 51h184 q47 0 47 -51v-192q0 -47 -47 -47h-184q-50 0 -50 47z" />
<glyph unicode="&#x1e1e;" horiz-adv-x="1161" d="M82 0v1143q0 100 34 173t92 111.5t121.5 55t133.5 16.5q430 0 670 -33v-333h-547q-49 0 -75 -19.5t-29 -39t-3 -56.5v-90l551 -23v-330l-551 -18v-557h-397zM500 1679v193q0 51 49 51h184q47 0 47 -51v-193q0 -47 -47 -47h-184q-49 0 -49 47z" />
<glyph unicode="&#x1e1f;" horiz-adv-x="833" d="M23 813v240l147 34v203q0 178 91 249t286 71q168 0 264 -49v-228l-149 2q-35 0 -54.5 -5t-29 -26.5t-10.5 -41t-1 -68.5v-27v-80h201v-274h-201v-813h-397v813h-147zM342 1780v192q0 51 49 51h184q47 0 48 -51v-192q0 -47 -48 -47h-184q-49 0 -49 47z" />
<glyph unicode="&#x1e40;" horiz-adv-x="1814" d="M63 0l160 1499h553l127 -842l135 842h553l162 -1499h-391l-102 817l-125 -817h-455l-131 817l-94 -817h-392zM766 1679v193q0 51 49 51h184q49 0 50 -51v-193q0 -47 -50 -47h-184q-49 0 -49 47z" />
<glyph unicode="&#x1e41;" horiz-adv-x="1755" d="M70 0v1087h331l66 -106q49 45 75.5 64.5t86 40t137.5 20.5q197 0 266 -125q63 41 100 60.5t108 42t144 22.5q102 0 168 -29.5t96.5 -91t41 -126t10.5 -163.5v-696h-397v705q0 61 -16.5 83.5t-51.5 22.5q-117 0 -156 -61q0 -8 1 -25.5t1 -28.5v-696h-397v705 q0 61 -16.5 83.5t-51.5 22.5q-117 0 -149 -76v-735h-397zM725 1276v192q0 51 49 52h184q47 0 48 -52v-192q0 -47 -48 -47h-184q-49 0 -49 47z" />
<glyph unicode="&#x1e56;" horiz-adv-x="1269" d="M90 0v1499h668q72 0 129 -8t122.5 -38t109.5 -80t73 -142t29 -217q0 -137 -31 -237.5t-77 -153t-112.5 -81t-122 -33.5t-120.5 -1q-57 4 -159.5 20.5t-111.5 20.5v-549h-397zM422 1679v193q0 51 49 51h184q47 0 47 -51v-193q0 -47 -47 -47h-184q-49 0 -49 47zM487 844 h230q104 0 104 164q0 154 -104 153h-230v-317z" />
<glyph unicode="&#x1e57;" horiz-adv-x="1144" d="M70 -553v1640h340l59 -100q70 57 127 85t141 28q184 0 268.5 -130t84.5 -421q0 -111 -8.5 -192t-31 -154.5t-61.5 -119.5t-102.5 -72.5t-149.5 -26.5q-154 0 -270 61v-598h-397zM440 1270v192q0 51 49 51h185q47 0 47 -51v-192q0 -47 -47 -47h-185q-49 0 -49 47zM469 299 q29 -31 133 -31q49 0 69.5 49.5t20.5 210.5q0 156 -20.5 203t-69.5 47q-106 0 -133 -45v-434z" />
<glyph unicode="&#x1e60;" horiz-adv-x="1220" d="M76 981v125q0 193 111.5 293t293.5 112q385 23 635 -67v-309q-186 20 -491 20q-90 0 -121 -14.5t-31 -75.5v-23q0 -53 22.5 -75.5t100.5 -22.5h192q90 0 160 -29.5t111 -75.5t67.5 -106.5t35.5 -114t9 -108.5v-68q0 -459 -415 -458q-299 0 -391.5 9t-241.5 60v309 q225 -23 530 -22q66 0 93.5 19.5t27.5 64.5v33q0 47 -22.5 68.5t-85.5 21.5h-185q-111 0 -191.5 37t-119.5 86t-62.5 117.5t-27.5 109.5t-4 84zM455 1683v193q0 51 49 51h184q47 0 47 -51v-193q0 -47 -47 -47h-184q-49 0 -49 47z" />
<glyph unicode="&#x1e61;" horiz-adv-x="1046" d="M45 692v94q0 139 67.5 225.5t215.5 86.5q388 0 491 -19q96 -17 127 -55v-233h-459q-16 0 -24 -1.5t-14.5 -9.5t-6.5 -26v-13q0 -16 7.5 -23t14.5 -8t23 -1h205q162 0 234.5 -81t72.5 -214v-121q0 -156 -77.5 -229.5t-188.5 -73.5h-72q-174 0 -260 2t-183 19.5t-128 54.5 v233h475q25 0 31 8t6 27v10q0 20 -7 28.5t-30 8.5h-196q-150 0 -237 78.5t-87 232.5zM383 1268v192q0 51 49 51h184q47 0 48 -51v-192q0 -47 -48 -47h-184q-49 0 -49 47z" />
<glyph unicode="&#x1e6a;" horiz-adv-x="1243" d="M41 1143v356h1163v-356h-389v-1143h-397v1143h-377zM483 1679v193q0 51 49 51h185q45 0 45 -51v-193q0 -47 -45 -47h-185q-49 0 -49 47z" />
<glyph unicode="&#x1e6b;" horiz-adv-x="788" d="M23 815v197l153 78l57 303h340v-303h183v-275h-183v-344q0 -100 17.5 -139t56.5 -60q86 -43 101 -43v-231h-308q-129 0 -196.5 91t-67.5 300v426h-153zM233 1563v192q0 51 50 51h184q49 0 49 -51v-192q0 -47 -49 -47h-184q-50 0 -50 47z" />
<glyph unicode="&#x1e80;" horiz-adv-x="2084" d="M51 1499h418l248 -1012l186 1012h418l-76 -311l209 -701l186 1012h418l-366 -1499h-480l-137 489l-121 -489h-479zM713 1925h295l159 -293h-225z" />
<glyph unicode="&#x1e81;" horiz-adv-x="1734" d="M23 1087h421l134 -659l122 659h385l-47 -247l133 -412l119 659h424l-299 -1087h-459l-98 281l-78 -281h-458zM528 1513h297l158 -292h-223z" />
<glyph unicode="&#x1e82;" horiz-adv-x="2084" d="M51 1499h418l248 -1012l186 1012h418l-76 -311l209 -701l186 1012h418l-366 -1499h-480l-137 489l-121 -489h-479zM942 1632l160 293h295l-230 -293h-225z" />
<glyph unicode="&#x1e83;" horiz-adv-x="1734" d="M23 1087h421l134 -659l122 659h385l-47 -247l133 -412l119 659h424l-299 -1087h-459l-98 281l-78 -281h-458zM760 1221l158 292h296l-231 -292h-223z" />
<glyph unicode="&#x1e84;" horiz-adv-x="2084" d="M51 1499h418l248 -1012l186 1012h418l-76 -311l209 -701l186 1012h418l-366 -1499h-480l-137 489l-121 -489h-479zM645 1767.5q0 55.5 40 94.5t95.5 39t94 -39t38.5 -94.5t-38.5 -95.5t-94 -40t-95.5 40t-40 95.5zM1167 1767.5q0 55.5 40 94.5t95.5 39t94.5 -39t39 -94.5 t-39 -95.5t-94.5 -40t-95.5 40t-40 95.5z" />
<glyph unicode="&#x1e85;" horiz-adv-x="1734" d="M23 1087h421l134 -659l122 659h385l-47 -247l133 -412l119 659h424l-299 -1087h-459l-98 281l-78 -281h-458zM479 1355.5q0 55.5 40 94.5t95.5 39t94.5 -39t39 -94.5t-39 -95t-94.5 -39.5t-95.5 39.5t-40 95zM1001 1355.5q0 55.5 40 94.5t95.5 39t94.5 -39t39 -94.5 t-39 -95t-94.5 -39.5t-95.5 39.5t-40 95z" />
<glyph unicode="&#x1ef2;" horiz-adv-x="1390" d="M51 1499h432l215 -663l232 663h432l-473 -1089v-410h-397v410zM365 1925h294l160 -293h-225z" />
<glyph unicode="&#x1ef3;" horiz-adv-x="1226" d="M25 1087h411l125 -688q14 -76 88 -80l142 768h403l-293 -1431l-145 -209h-295l121 553q-315 0 -387 319zM266 1513h297l158 -292h-223z" />
<glyph unicode="&#x2000;" horiz-adv-x="1026" />
<glyph unicode="&#x2001;" horiz-adv-x="2052" />
<glyph unicode="&#x2002;" horiz-adv-x="1026" />
<glyph unicode="&#x2003;" horiz-adv-x="2052" />
<glyph unicode="&#x2004;" horiz-adv-x="684" />
<glyph unicode="&#x2005;" horiz-adv-x="513" />
<glyph unicode="&#x2006;" horiz-adv-x="342" />
<glyph unicode="&#x2007;" horiz-adv-x="342" />
<glyph unicode="&#x2008;" horiz-adv-x="256" />
<glyph unicode="&#x2009;" horiz-adv-x="410" />
<glyph unicode="&#x200a;" horiz-adv-x="114" />
<glyph unicode="&#x2010;" horiz-adv-x="724" d="M41 436v316h643v-316h-643z" />
<glyph unicode="&#x2011;" horiz-adv-x="724" d="M41 436v316h643v-316h-643z" />
<glyph unicode="&#x2012;" horiz-adv-x="724" d="M41 436v316h643v-316h-643z" />
<glyph unicode="&#x2013;" horiz-adv-x="1050" d="M41 430v318h969v-318h-969z" />
<glyph unicode="&#x2014;" horiz-adv-x="1507" d="M41 434v318h1425v-318h-1425z" />
<glyph unicode="&#x2018;" horiz-adv-x="512" d="M92 989v328q0 76 33 124t79 63.5t93 19.5t80 -2l33 -6v-148q-63 0 -64 -63v-31h23q51 0 51 -51v-234q0 -55 -51 -55h-228q-49 0 -49 55z" />
<glyph unicode="&#x2019;" horiz-adv-x="512" d="M92 1235v233q0 55 51 56h228q49 0 49 -56v-327q0 -76 -33 -124t-79 -63.5t-93 -19.5t-80 2l-33 6v148q63 0 64 63v31h-23q-51 0 -51 51z" />
<glyph unicode="&#x201a;" horiz-adv-x="512" d="M92 51v234q0 55 51 55h228q49 0 49 -55v-328q0 -76 -33 -124t-79 -63.5t-93 -19.5t-80 2l-33 6v148q63 0 64 63v31h-23q-51 0 -51 51z" />
<glyph unicode="&#x201c;" horiz-adv-x="884" d="M84 985v328q0 76 33 124t79 63.5t93 19.5t80 -2l32 -7v-147q-63 0 -63 -64v-30h22q51 0 52 -51v-234q0 -55 -52 -55h-227q-49 0 -49 55zM475 985v328q0 76 33 124t80 63.5t93 19.5t79 -2l33 -7v-147q-63 0 -64 -64v-30h23q51 0 51 -51v-234q0 -55 -51 -55h-228 q-49 0 -49 55z" />
<glyph unicode="&#x201d;" horiz-adv-x="884" d="M84 1231v233q0 55 51 56h227q49 0 50 -56v-327q0 -76 -33 -124t-79 -63.5t-93 -19.5t-80 2l-33 6v147q63 0 64 64v31h-23q-51 0 -51 51zM475 1231v233q0 55 51 56h228q49 0 49 -56v-327q0 -76 -33 -124t-80 -63.5t-93 -19.5t-79 2l-33 6v147q63 0 64 64v31h-23 q-51 0 -51 51z" />
<glyph unicode="&#x201e;" horiz-adv-x="884" d="M84 51v234q0 55 51 55h227q49 0 50 -55v-328q0 -76 -33 -124t-79 -63.5t-93 -19.5t-80 2l-33 6v148q63 0 64 63v31h-23q-51 0 -51 51zM475 51v234q0 55 51 55h228q49 0 49 -55v-328q0 -76 -33 -124t-80 -63.5t-93 -19.5t-79 2l-33 6v148q63 0 64 63v31h-23q-51 0 -51 51z " />
<glyph unicode="&#x2020;" horiz-adv-x="995" d="M23 868v306l272 30l27 373h354l26 -373l271 -30v-306l-271 -30l-28 -985h-355l-24 985z" />
<glyph unicode="&#x2021;" horiz-adv-x="1017" d="M23 254v305l278 39l-6 240l-272 30v306l272 30l27 373h354l26 -373l271 -30v-306l-271 -30l-6 -242l277 -37v-305l-289 -35l-10 -366h-355l-8 362z" />
<glyph unicode="&#x2022;" horiz-adv-x="628" d="M98 627v307q0 72 68 72h295q72 0 71 -72v-307q0 -66 -71 -66h-295q-68 0 -68 66z" />
<glyph unicode="&#x2026;" horiz-adv-x="1640" d="M49 47v240q0 51 49 51h232q51 0 51 -51v-240q0 -47 -51 -47h-232q-49 0 -49 47zM606 47v240q0 51 49 51h232q51 0 51 -51v-240q0 -47 -51 -47h-232q-49 0 -49 47zM1163 47v240q0 51 49 51h232q51 0 51 -51v-240q0 -47 -51 -47h-232q-49 0 -49 47z" />
<glyph unicode="&#x202f;" horiz-adv-x="410" />
<glyph unicode="&#x2030;" horiz-adv-x="2822" d="M49 991v232q0 135 67.5 205.5t217.5 70.5h207q281 0 280 -276v-232q0 -135 -67.5 -205.5t-216.5 -70.5h-207q-281 0 -281 276zM305 1053q0 -41 14.5 -61.5t61.5 -20.5h104q47 0 63.5 21.5t16.5 60.5v108q0 49 -17.5 65.5t-58.5 16.5h-104q-39 0 -59.5 -16.5t-20.5 -65.5 v-108zM393 0l930 1499h254l-915 -1499h-269zM1163 283v231q0 135 66.5 206t216.5 71h209q281 0 280 -277v-231q0 -135 -67.5 -206t-216.5 -71h-209q-279 1 -279 277zM1419 344q0 -41 14.5 -61.5t61.5 -20.5h102q82 0 82 82v109q0 49 -18.5 65.5t-58.5 16.5h-103 q-39 0 -59.5 -16.5t-20.5 -65.5v-109zM2003 283v231q0 135 67.5 206t217.5 71h206q281 0 281 -277v-231q0 -135 -67.5 -206t-217.5 -71h-206q-281 1 -281 277zM2259 344q0 -41 14.5 -61.5t61.5 -20.5h104q47 0 63.5 21.5t16.5 60.5v109q0 49 -17.5 65.5t-58.5 16.5h-104 q-39 0 -59.5 -16.5t-20.5 -65.5v-109z" />
<glyph unicode="&#x2039;" horiz-adv-x="729" d="M57 725l422 416l199 -195l-225 -221l227 -225l-191 -201z" />
<glyph unicode="&#x203a;" horiz-adv-x="729" d="M57 500l228 225l-226 221l199 195l422 -416l-432 -426z" />
<glyph unicode="&#x2044;" horiz-adv-x="808" d="M-104 0l749 1577h268l-749 -1577h-268z" />
<glyph unicode="&#x205f;" horiz-adv-x="513" />
<glyph unicode="&#x2070;" horiz-adv-x="946" d="M70 989v461q0 133 74.5 203.5t213.5 70.5h244q276 0 277 -262v-473q0 -123 -72 -192.5t-205 -69.5h-246q-143 0 -214.5 68.5t-71.5 193.5zM369 1067q0 -72 77 -72h58q41 0 58.5 12.5t17.5 57.5v321q0 70 -66 70h-78q-16 0 -28.5 -3t-19.5 -8t-12 -10t-6 -13.5t-1 -13.5 v-13v-9v-319z" />
<glyph unicode="&#x2074;" horiz-adv-x="905" d="M18 1024l289 700h293l-223 -559h131v178l43 105h256v-283h82v-229l-82 -8v-197h-299v160h-442z" />
<glyph unicode="&#x2075;" horiz-adv-x="847" d="M63 758v237h361q23 0 39 3t24.5 6.5t12.5 11.5t5 11t0 13l-1 11v30q0 29 -14.5 42.5t-51.5 13.5h-59q-59 0 -60 -47h-253l30 634h660v-268h-404l-4 -98q72 45 207 31q125 -10 186.5 -83t61.5 -190v-131q0 -133 -85 -198.5t-204 -65.5q-246 0 -451 37z" />
<glyph unicode="&#x2076;" horiz-adv-x="897" d="M61 1251q0 442 256 478q186 31 496 -29v-227h-319q-47 0 -76 -9.5t-41 -32t-14.5 -41t-2.5 -55.5q59 33 211 33q158 0 218.5 -68.5t60.5 -195.5v-127q0 -250 -285 -250h-207q-98 0 -159.5 40t-99.5 158.5t-38 325.5zM360 1116q0 -78 20.5 -99.5t88.5 -21.5h23 q35 0 47 9.5t12 35.5v21q0 35 -7 45t-44 10h-140z" />
<glyph unicode="&#x2077;" horiz-adv-x="866" d="M16 1456v268h758l74 -120l-377 -877h-324l314 729h-445z" />
<glyph unicode="&#x2078;" horiz-adv-x="946" d="M76 971v71q0 59 27.5 104.5t86.5 53.5q-41 18 -65.5 40t-34.5 52.5t-12 52t-2 62.5v88q0 238 293 238h231q137 0 204.5 -54.5t67.5 -179.5v-59q0 -27 -6 -55.5t-34.5 -61.5t-73.5 -39q115 -20 114 -197v-104q0 -154 -71.5 -205t-200.5 -51h-231q-82 0 -139.5 18.5t-87 42 t-45 61.5t-18.5 62.5t-3 59.5zM375 1028q0 -27 14 -38t49 -11h72q41 0 52 12.5t11 36.5v43q0 25 -12 37t-49 12h-74q-39 0 -51 -12t-12 -37v-43zM375 1401q0 -29 13 -37t50 -8h72q41 0 52 9t11 36v31q0 33 -15 41t-48 8h-72q-35 0 -49 -8.5t-14 -40.5v-31z" />
<glyph unicode="&#x2079;" horiz-adv-x="897" d="M51 1356v129q0 256 287 256h205q74 0 125 -22.5t91 -81t60.5 -167t20.5 -270.5q0 -256 -70 -363.5t-186 -125.5q-186 -31 -496 28v230h320q47 0 75.5 9t41 34.5t14.5 45t2 60.5q-59 -33 -209 -33q-158 0 -219.5 71t-61.5 200zM350 1401q0 -39 8.5 -50.5t44.5 -11.5h138 q0 86 -20.5 110t-88.5 24h-22q-35 0 -47.5 -10.5t-12.5 -41.5v-20z" />
<glyph unicode="&#x2080;" horiz-adv-x="946" d="M70 -147v460q0 133 74.5 204t213.5 71h244q276 0 277 -262v-473q0 -123 -72 -193t-205 -70h-246q-143 0 -214.5 69t-71.5 194zM369 -70q0 -72 77 -71h58q41 0 58.5 12t17.5 57v322q0 70 -66 69h-78q-16 0 -28.5 -3t-19.5 -8t-12 -10t-6 -13.5t-1 -13.5v-13v-8v-320z" />
<glyph unicode="&#x2081;" horiz-adv-x="552" d="M18 311v164l166 113h295v-998h-299v748z" />
<glyph unicode="&#x2082;" horiz-adv-x="854" d="M35 334v223q201 45 440 45q164 0 248 -85t84 -228q0 -184 -322 -430h322v-269h-764v258q123 72 294 208.5t171 197.5q0 51 -35 65.5t-127 14.5h-311z" />
<glyph unicode="&#x2083;" horiz-adv-x="854" d="M35 324v223q143 53 477 45q123 -2 198.5 -68.5t75.5 -185.5v-53q0 -156 -129 -199q129 -35 129 -211v-39q0 -123 -74.5 -189.5t-209.5 -66.5h-49h-51h-48q-37 0 -50 1t-45 3t-47 4t-43 5.5t-46.5 7.5t-40 10t-39.5 12l2 225h305q88 0 112.5 6.5t24.5 39.5v8 q0 31 -27.5 39t-101.5 10l-229 10v242l229 16q47 0 64.5 1t38 6t26 14.5t5.5 25.5v8q0 33 -32 41.5t-102 8.5h-323z" />
<glyph unicode="&#x2084;" horiz-adv-x="917" d="M18 -113l289 701h305l-215 -559h123v178l43 104h256v-282h82v-230l-82 -8v-197h-299v160h-454z" />
<glyph unicode="&#x2085;" horiz-adv-x="856" d="M63 -141h367q16 0 29.5 2t23 4t15.5 6t9 7t4 9.5t1 9.5v9v8v31q0 29 -14.5 42t-51.5 13h-61q-61 0 -61 -23h-258l30 611h668v-269h-408l-6 -98q72 45 211 31q125 -10 187.5 -83t62.5 -189v-132q0 -133 -87 -198.5t-206 -65.5q-248 0 -455 37v238z" />
<glyph unicode="&#x2086;" horiz-adv-x="897" d="M61 115q0 442 256 477q186 31 496 -29v-227h-319q-47 0 -76 -9.5t-41 -32t-14.5 -40.5t-2.5 -55q59 33 211 32q158 0 218.5 -68.5t60.5 -195.5v-127q0 -250 -285 -250h-207q-98 0 -159.5 40t-99.5 159t-38 326zM360 -20q0 -78 20.5 -99.5t88.5 -21.5h23q35 0 47 9t12 36 v20q0 35 -7 45.5t-44 10.5h-140z" />
<glyph unicode="&#x2087;" horiz-adv-x="866" d="M16 319v269h758l74 -121l-377 -877h-324l314 729h-445z" />
<glyph unicode="&#x2088;" horiz-adv-x="946" d="M76 -94q0 141 114 157q-41 18 -65.5 40t-34.5 52.5t-12 52t-2 62.5v88q0 238 293 238h231q137 0 204.5 -54.5t67.5 -179.5v-59q0 -27 -7 -55.5t-34.5 -61t-72.5 -39.5q115 -20 114 -196v-105q0 -154 -71.5 -205t-200.5 -51h-231q-82 0 -139.5 18.5t-87 42t-45 61.5 t-18.5 62.5t-3 59.5v72zM375 -66v-43q0 -27 14 -38t49 -11h72q41 0 52 12.5t11 36.5v43q0 25 -12 37.5t-49 12.5h-74q-39 0 -51 -12.5t-12 -37.5zM375 264q0 -29 13 -37t50 -8h72q41 0 52 9.5t11 35.5v31q0 33 -15 41t-48 8h-72q-35 0 -49 -8t-14 -41v-31z" />
<glyph unicode="&#x2089;" horiz-adv-x="897" d="M51 219v129q0 256 287 256h205q98 0 159.5 -41t99.5 -161.5t38 -333.5q0 -449 -256 -488q-162 -27 -496 23v229h320q47 0 75.5 9t41 35t14.5 45.5t2 60.5q-59 -33 -209 -33q-158 0 -219.5 70.5t-61.5 199.5zM350 264q0 -39 8.5 -50t44.5 -11h138q0 86 -20.5 109.5 t-88.5 23.5h-22q-35 0 -47.5 -10.5t-12.5 -40.5v-21z" />
<glyph unicode="&#x20ac;" horiz-adv-x="1275" d="M23 502v178l139 14v84l-139 17v170l139 18q0 61 5 113.5t34.5 135.5t81 140.5t155 100.5t244.5 43q115 0 280.5 -19.5t282.5 -62.5v-285q-272 31 -440 31q-92 0 -143.5 -9.5t-73 -40t-25.5 -56t-4 -91.5l479 -14v-176l-479 -15v-84l479 -14v-178q-31 0 -81 -1t-155.5 -4 t-175 -5.5t-67.5 -4.5q0 -53 15.5 -90t35 -55t59.5 -27.5t63.5 -10.5t72.5 -1q78 0 190.5 14.5t185.5 27.5l72 13v-278q-96 -55 -228 -73.5t-343 -18.5q-61 0 -116.5 7t-133.5 36.5t-134 80t-96 147.5t-40 228z" />
<glyph unicode="&#x2113;" horiz-adv-x="1073" d="M35 528q51 47 117 115v487q0 383 477 383q152 0 263.5 -94t111.5 -297q0 -102 -48.5 -202.5t-125 -178t-146.5 -131t-135 -90.5v-8q0 -53 5 -84t25.5 -70t73 -64.5t133.5 -37.5q109 -23 123 -23v-231h-426q-160 0 -245.5 82t-85.5 278v17q-18 -14 -70 -41zM549 893 q94 106 125 233q13 56 -36 82q-47 25 -75 -13q-14 -19 -14 -50v-252z" />
<glyph unicode="&#x2116;" horiz-adv-x="2340" d="M82 0v1165q0 111 58.5 193t146.5 120t193.5 41t196.5 -30t157.5 -104.5t76.5 -170.5l88 -841q2 -18 14.5 -23.5t24 5t11.5 24.5v778q0 180 94 263t250 83h610q160 0 225.5 -81t65.5 -289q0 -193 -73 -269t-259 -84h-53q-102 4 -154.5 15.5t-98.5 51.5t-62.5 117.5 t-16.5 213.5h291q0 -88 8 -107.5t45 -19.5h29q37 0 45 11t8 71q0 39 -1 51t-9 25.5t-23.5 15.5t-48.5 2q-109 2 -225 2q-68 0 -97.5 -1t-67.5 -8.5t-51.5 -21.5t-23.5 -41t-10 -70v-749q0 -104 -57.5 -184t-145.5 -119t-191.5 -44t-194.5 25.5t-157.5 108.5t-76.5 188 l-91 852q-3 26 -28 18q-23 -7 -23 -32v-1151h-399z" />
<glyph unicode="&#x2122;" horiz-adv-x="1466" d="M23 1307v192h612v-192h-189v-523h-233v523h-190zM633 784l96 715h248l67 -366l46 366h256l104 -715h-233l-41 349l-27 -349h-211l-41 344l-31 -344h-233z" />
<glyph unicode="&#x212e;" horiz-adv-x="1370" d="M70 545q0 231 172 393q172 154 444 154q252 0 426 -136q178 -137 191 -428h-981q-2 0 -6 1q-7 0 -10 -0.5t-6 -6.5t-3 -16v-273q0 -51 115.5 -120.5t273.5 -69.5q113 0 218.5 48t172.5 124h115q-119 -125 -231 -170q-119 -45 -275 -45q-283 0 -446 152q-170 157 -170 393 zM297 582q0 -18 18 -19h732q25 0 25 2q1 3 1 13v272q0 66 -129 134.5t-260 68.5q-102 0 -196.5 -39t-142.5 -82t-48 -70v-280z" />
<glyph unicode="&#x2202;" horiz-adv-x="1280" d="M66 465q0 229 124.5 358t333.5 129q88 0 162 -28.5t100 -87.5q0 166 -45 244.5t-143 78.5q-111 0 -220.5 -31.5t-174.5 -72.5l-47 301q244 160 448 160q291 0 436.5 -190.5t145.5 -532.5q0 -803 -602 -803q-217 0 -367.5 123t-150.5 352zM459 471q0 -63 41 -97t100 -34 q80 0 116 79t36 150q-57 33 -142 33q-151 0 -151 -131z" />
<glyph unicode="&#x2206;" horiz-adv-x="1445" d="M23 0l636 1499h152l612 -1499h-1400zM547 336h454l-231 547z" />
<glyph unicode="&#x220f;" horiz-adv-x="1343" d="M23 1143v356h1298v-356h-137v-1143h-398v1143h-231v-1143h-397v1143h-135z" />
<glyph unicode="&#x2211;" horiz-adv-x="1144" d="M45 -47l438 600l-438 590v356h1077v-356h-585l434 -590l-434 -600h585v-363h-1077v363z" />
<glyph unicode="&#x2212;" horiz-adv-x="933" d="M41 571v316h852v-316h-852z" />
<glyph unicode="&#x221a;" horiz-adv-x="1402" d="M23 418v356h389l96 -235l436 1099h436l-645 -1638h-395l-211 418h-106z" />
<glyph unicode="&#x221e;" horiz-adv-x="1519" d="M57 698q0 354 340 355q115 0 198 -42t157 -137q102 178 370 179q340 0 340 -355q0 -158 -78.5 -255t-261.5 -97q-115 0 -204 35t-170 141q-70 -109 -147 -142.5t-204 -33.5q-182 0 -261 97t-79 255zM330 698q0 -100 94 -100q82 0 149 100q-27 41 -67.5 72t-81.5 31 q-61 0 -77.5 -25t-16.5 -78zM938 696q66 -98 154 -98q98 0 98 100q0 51 -19.5 77t-78.5 26q-86 -1 -154 -105z" />
<glyph unicode="&#x222b;" horiz-adv-x="907" d="M23 -123h81q51 0 83 24.5t45.5 76t17.5 93.5t4 109v856q0 272 87 437t259 165q45 0 84 -3t64.5 -7t51 -10t36 -10t29 -11.5t20.5 -9.5v-244h-78q-96 0 -126 -74.5t-30 -232.5v-856q0 -295 -81 -446.5t-259 -151.5q-213 0 -288 51v244z" />
<glyph unicode="&#x2248;" horiz-adv-x="1007" d="M57 549q150 145 301 145q61 0 152.5 -38t153.5 -38q70 0 117.5 17.5t113.5 62.5l55 -161q-137 -154 -291 -154q-43 0 -141 39t-164 39q-47 0 -86 -12.5t-86 -34t-82 -31.5zM57 926q150 145 301 145q61 0 152.5 -38t153.5 -38q70 0 117.5 17.5t113.5 62.5l55 -162 q-137 -154 -291 -153q-43 0 -141 39t-164 39q-47 0 -86 -12.5t-86 -34t-82 -31.5z" />
<glyph unicode="&#x2260;" horiz-adv-x="919" d="M23 332v315h313l76 133h-389v316h569l67 118h166l-67 -118h139v-316h-319l-76 -133h395v-315h-573l-80 -142h-166l80 142h-135z" />
<glyph unicode="&#x2264;" horiz-adv-x="880" d="M57 129v274h766v-274h-766zM57 709v348l768 225v-348l-379 -47l379 -68v-348z" />
<glyph unicode="&#x2265;" horiz-adv-x="880" d="M57 129v274h768v-274h-768zM57 471v348l379 68l-379 47v348l768 -225v-348z" />
<glyph unicode="&#x25ca;" horiz-adv-x="1032" d="M23 764l423 735h152l412 -735l-412 -764h-152zM389 764l133 -256l123 256l-123 237z" />
<glyph unicode="&#xe000;" horiz-adv-x="1085" d="M0 1085h1085v-1085h-1085v1085z" />
<glyph unicode="&#xfb00;" horiz-adv-x="1652" d="M23 813v240l202 34v183q0 127 82 223t252 96q182 0 287 -49v-229l-129 2q-63 2 -78.5 -32t-15.5 -120v-74h366v203q0 178 91 249t286 71q168 0 264 -49v-228l-149 2q-35 0 -54.5 -5t-28.5 -26.5t-10.5 -41t-1.5 -68.5v-27v-80h201v-274h-201v-813h-397v813h-371v-813 h-397v813h-198z" />
<glyph unicode="&#xfb03;" horiz-adv-x="2123" d="M23 813v240l202 34v183q0 127 82 223t252 96q182 0 287 -49v-229l-129 2q-59 2 -75.5 -29t-20.5 -107q-1 -10 0 -16v-74h350v60q0 193 130 325t349 138q115 2 306.5 -10.5t244.5 -38.5v-228l-395 2q-47 0 -82 -7t-74 -26.5t-60.5 -63.5t-21.5 -112v-39l688 -20v-1067 h-397v813h-291v-813h-397v813h-350v-813h-400v813h-198z" />
<glyph unicode="&#xfb04;" horiz-adv-x="2295" d="M23 813v240l202 34v183q0 127 82 223t252 96q182 0 287 -49v-229l-129 2q-33 0 -53.5 -8.5t-28.5 -32t-11 -45t-3 -66.5v-74h360v80q0 137 36 228.5t103.5 136.5t142 61.5t177.5 16.5l659 -6v-1135q0 -68 10.5 -109t24.5 -56t41 -30q86 -43 100 -43v-231h-282 q-150 0 -220.5 88t-70.5 299v946l-189 2q-76 0 -105.5 -35.5t-29.5 -132.5v-80h201v-274h-201v-813h-397v813h-360v-813h-400v813h-198z" />
<glyph unicode="&#xfb06;" horiz-adv-x="1822" d="M45 692v94q0 133 76 217t227 84h869l57 304h340v-304h182v-274h-182v-344q0 -100 17.5 -139t56.5 -60q86 -43 100 -43v-231h-307q-129 0 -196.5 91t-67.5 300v404h-730q-16 0 -24 -1.5t-14.5 -9.5t-6.5 -26v-13q0 -16 7.5 -23t14.5 -8t23 -1h205q162 0 234.5 -81 t72.5 -214v-121q0 -156 -77.5 -229.5t-188.5 -73.5h-47q-528 -2 -596 76v233h475q25 0 31 8t6 27v10q0 20 -7 28.5t-30 8.5h-196q-150 0 -237 78.5t-87 232.5z" />
<glyph horiz-adv-x="567" d="M94 0l43 1096h299l35 -1096h-377zM123 1210v240q0 47 47 47h236q49 0 49 -47v-240q0 -51 -49 -51h-236q-47 0 -47 51z" />
<glyph horiz-adv-x="1271" d="M80 393v490q0 201 102.5 307t294.5 106h336q379 0 379 -393v-510q0 -184 -99.5 -288.5t-281.5 -104.5h-336q-197 0 -296 102.5t-99 290.5zM477 477q0 -53 21.5 -81.5t43 -34t52.5 -5.5h86q59 0 87 21.5t28 97.5v346q0 119 -99 119h-116q-102 0 -103 -119v-344z" />
<glyph horiz-adv-x="770" d="M35 874v252l246 168h393v-1294h-398v915z" />
<glyph horiz-adv-x="1193" d="M47 956v297q281 61 623 62q242 0 354.5 -98.5t112.5 -311.5q0 -80 -33 -158.5t-76 -136t-105.5 -113t-104.5 -85t-87 -56.5h406v-356h-1076v344q12 6 41 22q117 64 193 108t195.5 122t184 145.5t64.5 116.5q0 68 -48 83t-187 15h-457z" />
<glyph horiz-adv-x="1200" d="M57 952v299q84 29 201 43.5t230.5 15.5t240.5 -1q174 -4 280.5 -102.5t106.5 -276.5v-80q0 -238 -172 -299q172 -55 172 -315v-60q0 -184 -106.5 -284.5t-294.5 -100.5h-76h-81q-15 0 -72.5 1t-79 2t-68.5 4t-73.5 7.5t-65.5 10.5t-70 14t-59 18l2 302h446q129 0 165 15 t36 83v18q0 66 -38 82.5t-151 22.5l-333 14v324l333 20q55 2 76 4t51.5 7t40 15.5t17.5 28t8 45.5v19q0 37 -13.5 59.5t-45 31.5t-57 11t-77.5 2h-473z" />
<glyph horiz-adv-x="1300" d="M23 254l432 1040h426l-322 -854h199v275l55 159h342v-434h123v-305l-123 -59v-277h-397v277h-666z" />
<glyph horiz-adv-x="1232" d="M88 154h541q45 0 71.5 9t37 30.5t11.5 33t1 35.5v64q0 55 -21.5 81.5t-77.5 26.5h-90q-49 0 -69.5 -21.5t-20.5 -70.5h-381l45 952h948v-356h-561l-8 -209q57 35 133 41q78 6 156 0q172 -14 258 -122.5t86 -278.5v-193q0 -195 -123 -292t-293 -97q-211 0 -330.5 8 t-312.5 41v318z" />
<glyph horiz-adv-x="1222" d="M76 786q0 195 28.5 335.5t81 217t109.5 113.5t133 49q274 43 680 -43v-303h-449q-68 0 -107.5 -17.5t-56 -59.5t-19.5 -76.5t-3 -106.5q53 29 114.5 36t198.5 7q209 0 290 -100.5t81 -286.5v-186q0 -367 -391 -367h-283q-80 0 -139 19.5t-111.5 71.5t-86 140t-52 227.5 t-18.5 329.5zM473 602q0 -160 31 -204t133 -44h35q51 0 69.5 19.5t18.5 75.5v40q0 72 -12.5 92.5t-65.5 20.5h-209z" />
<glyph horiz-adv-x="1148" d="M35 938v356h985l96 -159l-469 -1340h-422l406 1143h-596z" />
<glyph horiz-adv-x="1263" d="M86 367v108q0 88 36 157.5t116 82.5q-43 23 -74 51.5t-45.5 53t-22.5 64.5t-9 64.5t-1 73.5v133q0 354 401 354h320q188 0 280.5 -83t92.5 -273v-90q0 -39 -9.5 -83t-46.5 -95t-98 -60q154 -29 154 -290v-156q0 -121 -29 -200t-86 -115.5t-116.5 -50t-143.5 -13.5h-318 q-80 0 -144 14.5t-105 35t-71 54t-45.5 63.5t-23.5 71t-10 66.5t-2 62.5zM483 430q0 -53 21.5 -73.5t75.5 -20.5h106q33 0 53.5 6t29.5 20.5t11 29t2 38.5v82q0 47 -18.5 71.5t-73.5 24.5h-110q-59 0 -78 -23.5t-19 -72.5v-82zM483 1012q0 -57 20.5 -73.5t76.5 -16.5h106 q63 0 79.5 19.5t16.5 70.5v61q0 35 -7 56.5t-23.5 30.5t-28.5 11.5t-37 2.5h-106q-53 0 -75 -17.5t-22 -83.5v-61z" />
<glyph horiz-adv-x="1222" d="M70 743v187q0 367 391 366h282q80 0 139.5 -19.5t112 -71.5t86 -140t52 -227.5t18.5 -329.5q0 -195 -28.5 -335t-81 -217t-110 -114t-132.5 -49q-274 -43 -680 43v303h448q68 0 108 17.5t56.5 59.5t19.5 77t3 106q-53 -29 -114.5 -36t-199.5 -7q-209 0 -289.5 100.5 t-80.5 286.5zM467 805q0 -72 12.5 -92.5t65.5 -20.5h209q0 160 -31 204t-133 44h-35q-51 0 -69.5 -19.5t-18.5 -74.5v-41z" />
<glyph horiz-adv-x="1114" d="M45 403v105q0 221 97.5 326.5t340.5 97.5v166h295v-455h-188q-78 -4 -113 -34.5t-35 -108.5v-31q0 -127 176 -127h476v-297q-279 -74 -578 -61q-219 0 -345 127.5t-126 291.5zM467 1210v240q0 47 49 47h234q49 0 49 -47v-240q0 -51 -49 -51h-234q-49 0 -49 51z" />
<glyph horiz-adv-x="1818" d="M76 295v549q0 209 115.5 334t371.5 125h355q70 0 117.5 -5.5t105 -25t91.5 -55t57.5 -102t23.5 -161.5v-700h-242l-49 111l-12 -14q-12 -13 -35 -32.5t-53.5 -38t-78.5 -31.5t-100 -13q-133 0 -197.5 90t-64.5 211v67q0 293 326 293h211q2 31 0 33q0 49 -19.5 63.5 t-70.5 14.5h-365q-90 0 -141 -37t-51 -148v-487q0 -125 58 -178.5t134 -53.5h654q119 0 164.5 58.5t45.5 173.5v844q0 117 -57 180t-153 63h-828v240q281 57 651 55h177q94 0 179 -26.5t160.5 -85t120.5 -168t45 -258.5v-844q0 -279 -124.5 -404t-360.5 -125h-674 q-211 0 -349 115t-138 373zM795 604q0 -10 2 -12q0 -33 15 -47.5t56 -14.5q119 0 150 70v88l-160 -12q-35 -4 -48 -14.5t-13 -45.5q-2 -2 -2 -12z" />
<glyph d="M57 582q0 530 416 530q170 0 343 -20.5t253 -53.5v-1087q0 -242 -129 -388.5t-381 -119.5l-467 49v264h406q174 0 174 195v139q-61 -78 -199 -78q-229 0 -322.5 133.5t-93.5 436.5zM455 596q0 -182 20.5 -239.5t95.5 -57.5q70 0 101 39v500h-97q-43 0 -68.5 -18.5 t-36.5 -58.5t-13 -73t-2 -92z" />
<glyph horiz-adv-x="2062" d="M51 711v170q0 143 34 235t110.5 144.5t177 72t254.5 21.5h862l37 215h360v-219h154v-265l-154 -38v-547q0 -147 -45 -250t-129 -156t-181 -75.5t-224 -22.5h-336q-180 2 -313.5 92t-133.5 258q-227 0 -350 77t-123 288zM449 729q0 -55 15 -76.5t60 -21.5q0 182 109.5 259 t316.5 77h60q424 0 424 -344q0 -76 -25 -128.5t-56.5 -78t-96 -38.5t-105.5 -15.5t-125 -2.5h-22h-82q0 -55 59 -55h326q117 0 149.5 48t32.5 153v538h-842q-74 0 -114.5 -8t-59 -33.5t-21.5 -48t-3 -73.5v-152zM922 627h77q37 0 37 41q0 33 -37 32h-28q-20 0 -28.5 -3 t-14.5 -19t-6 -51z" />
<glyph horiz-adv-x="765" d="M35 961v53q0 203 246 203q141 -2 141 0q2 6 0 8q0 27 -4 41t-19.5 19t-24.5 6t-40 1l-275 -18v176q115 61 320 61q174 0 258 -53t84 -196v-488h-238l-61 84q-37 -96 -156 -92q-121 4 -176 64.5t-55 130.5zM309 1008q0 -20 9.5 -31.5t18.5 -12.5t28 -1q56 2 57 41v73 l-74 -6q-39 -4 -39 -50v-5v-8z" />
<glyph horiz-adv-x="831" d="M43 774v1071h299v-364q88 47 195 47q152 0 203 -87t51 -298q0 -201 -60.5 -289t-193.5 -88q-98 0 -193 84l-45 -76h-256zM344 1034q18 -27 88 -26q33 0 46.5 27.5t13.5 121.5q0 96 -14.5 126t-49.5 30q-63 0 -84 -23v-256z" />
<glyph horiz-adv-x="708" d="M35 1136.5q0 368.5 252 368.5h35h48q13 0 48 -2t58.5 -5t57 -9t64.5 -16.5t61 -22.5v-174q-82 8 -202 8q-77 0 -94 -13q-29 -23 -29 -136q0 -90 23.5 -118t99.5 -28l213 8v-170q-39 -29 -93.5 -43t-90 -16t-108.5 -1t-91 1q-252 0 -252 368.5z" />
<glyph horiz-adv-x="829" d="M35 1143q0 217 50 301t204 84q106 0 194 -47v364h299v-1071h-256l-45 76q-94 -84 -192 -84q-133 0 -193.5 85t-60.5 292zM334 1157q0 -94 13 -121.5t46 -27.5q70 0 88 26v256q-20 23 -88 23q-33 0 -46 -29t-13 -127z" />
<glyph horiz-adv-x="790" d="M35 1139q0 219 74.5 291.5t275.5 72.5q213 0 290 -50t77 -224q0 -109 -59.5 -153t-174.5 -44h-184q0 -35 16.5 -40t104.5 -5q170 0 280 8v-184q-23 -10 -49.5 -17.5t-64 -12.5t-61 -8t-73 -4t-63.5 -1h-68h-57q-147 0 -205.5 88t-58.5 283zM334 1221h80q39 0 39 28 q0 20 -2 27.5t-12.5 13.5t-32.5 6q-45 0 -59.5 -13t-12.5 -62z" />
<glyph horiz-adv-x="618" d="M31 1296v181h98v143q0 127 66.5 177t205.5 50q119 0 189 -37v-172l-98 2q-45 2 -54.5 -16t-9.5 -76v-45h129v-207h-129v-522h-299v522h-98z" />
<glyph horiz-adv-x="860" d="M35 907q0 43 22.5 84t71.5 47q-88 47 -88 209q0 264 276 264h508v-159l-63 -35q8 -10 12 -29.5t4 -34t-1 -41t-1 -36.5q0 -211 -262 -211h-158h-10h-12h-12q-7 0 -11 -2t-9 -5.5t-7 -8.5t-2 -11q0 -10 3 -17.5t11 -10.5t13.5 -4t19.5 -1h18l205 -16q135 -10 185.5 -65.5 t50.5 -190.5v-17q0 -31 -3 -55t-18.5 -58t-41 -55.5t-77 -38t-122.5 -16.5h-213q-119 0 -197 50t-78 163v103l103 43q-63 18 -90 51t-27 104zM340 1245q0 -47 14.5 -60.5t44.5 -13.5h31q35 0 44 15.5t9 60.5q0 27 -11 41.5t-20.5 16.5t-23.5 2h-35q-16 0 -25.5 -3.5 t-18.5 -17.5t-9 -41zM348 670q0 -20 2 -29.5t15.5 -18t40.5 -8.5h49q16 0 22 1t14.5 10.5t8.5 29.5v11q0 25 -10.5 32t-45.5 11l-47 4l-49 4v-47z" />
<glyph horiz-adv-x="829" d="M43 774v1067h297v-414q94 94 219 95q139 0 183 -70t44 -207v-471h-299v455q0 41 -10 55t-35 14q-78 0 -100 -47v-477h-299z" />
<glyph horiz-adv-x="382" d="M39 1573v180q0 39 37 39h231q35 0 35 -39v-180q0 -35 -35 -35h-231q-37 0 -37 35zM41 774v729h299v-729h-299z" />
<glyph horiz-adv-x="385" d="M41 1577v180q0 39 37 39h231q35 0 35 -39v-180q0 -35 -35 -35h-231q-37 0 -37 35zM45 399v1100h299v-733q4 -254 -70 -367h-229z" />
<glyph horiz-adv-x="872" d="M43 774v1067h299v-575h27l147 229h326l-238 -317l238 -404h-312l-161 316h-27v-316h-299z" />
<glyph horiz-adv-x="489" d="M43 1032v811h299v-739q0 -63 11.5 -88t37.5 -39q57 -29 68 -29v-174h-205q-109 0 -160 58.5t-51 199.5z" />
<glyph horiz-adv-x="1273" d="M43 774v723h248l41 -80q31 31 52.5 47.5t65.5 31.5t101 15q145 0 197 -94q117 94 256 94t183 -68.5t44 -203.5v-465h-299v449q0 39 -10.5 53t-34.5 14q-78 0 -103 -39v-32v-445h-299v449q0 39 -10 53t-35 14q-78 0 -100 -47v-469h-297z" />
<glyph horiz-adv-x="829" d="M43 774v723h250l41 -80q33 33 54.5 48.5t65.5 30.5t101 15q76 0 124 -19t70.5 -60t29.5 -84t7 -109v-465h-299v449q0 39 -10 53t-35 14q-78 0 -100 -47v-469h-299z" />
<glyph horiz-adv-x="825" d="M35 1126q0 219 81 299t291.5 80t292.5 -83t82 -296q0 -203 -80.5 -280.5t-293.5 -77.5q-209 0 -291 80.5t-82 277.5zM334 1128q0 -92 12 -115.5t62 -23.5q53 0 64 21.5t11 117.5q0 104 -10 130t-65 26q-53 0 -63.5 -27t-10.5 -129z" />
<glyph horiz-adv-x="831" d="M43 391v1120h256l45 -77q96 86 193 86q131 0 192.5 -90.5t61.5 -290.5q0 -197 -52.5 -293t-201.5 -96q-106 0 -195 47v-406h-299zM344 983q23 -23 84 -22q33 0 48.5 31.5t15.5 131.5q0 96 -13.5 124t-46.5 28q-68 0 -88 -31v-262z" />
<glyph horiz-adv-x="825" d="M35 1139q0 203 77.5 291t227.5 88q311 0 438 -56v-1071h-299v416q-45 -61 -143 -62q-166 0 -233.5 92.5t-67.5 301.5zM334 1147q0 -113 13 -148.5t65 -35.5q47 0 67 22v324h-65q-29 0 -46.5 -13.5t-24.5 -41t-8 -48t-1 -59.5z" />
<glyph horiz-adv-x="604" d="M43 774v723h266l23 -102q20 45 65 77.5t99 32.5q45 0 67 -8v-287h-106q-37 0 -56.5 -2t-39 -19.5t-19.5 -51.5v-363h-299z" />
<glyph horiz-adv-x="733" d="M35 1249v60q0 197 196 196q295 0 426 -57v-174h-317q-31 0 -31 -21v-8q0 -18 31 -18h147q207 0 207 -166v-82q0 -109 -54 -160t-130 -51q-399 0 -440 57v174h321q31 0 31 23v6q0 23 -31 23h-131q-104 0 -164.5 50t-60.5 148z" />
<glyph horiz-adv-x="589" d="M31 1298v148l102 39l43 215h256v-195h121v-207h-121v-204q0 -61 11.5 -84t37.5 -35q55 -27 66 -27v-174h-221q-193 0 -193 252v272h-102z" />
<glyph horiz-adv-x="831" d="M41 1032v465h299v-448q0 -39 10 -53.5t35 -14.5q78 0 100 45v471h299v-723h-249l-50 88q-43 -57 -87 -79.5t-130 -22.5q-139 0 -183 68.5t-44 203.5z" />
<glyph horiz-adv-x="831" d="M29 1497h280l103 -430l108 430h281l-240 -723h-305z" />
<glyph horiz-adv-x="1214" d="M29 1497h280l103 -430l82 430h258l-33 -164l90 -266l92 430h283l-228 -723h-290l-66 197l-53 -197h-291z" />
<glyph horiz-adv-x="858" d="M31 774l239 367l-239 356h315l82 -166l84 166h317l-245 -360l233 -363h-305l-84 176l-82 -176h-315z" />
<glyph horiz-adv-x="886" d="M29 1499h274l84 -463q10 -51 59 -55l117 518h293l-217 -960l-111 -140h-215l84 369q-209 0 -256 215z" />
<glyph horiz-adv-x="727" d="M35 1276v221h649v-221l-244 -279h244v-221h-629v219l273 281h-293z" />
<glyph horiz-adv-x="1247" d="M68 393v692q0 201 102 307.5t295 106.5h336q381 0 381 -393v-713q0 -184 -99.5 -288.5t-281.5 -104.5h-336q-197 0 -297 102.5t-100 290.5zM465 477q0 -53 22.5 -81.5t44 -34t52.5 -5.5h86q59 0 86.5 21.5t27.5 97.5v549q0 119 -98 119h-119q-102 0 -102 -119v-547z" />
<glyph horiz-adv-x="1247" d="M213 0v315h262v807l-242 -41v252l246 166h393v-1184h263v-315h-922z" />
<glyph horiz-adv-x="1247" d="M66 1161v297q281 61 622 62q231 0 349 -133.5t118 -358.5q0 -98 -45 -202.5t-127 -202t-133 -148.5t-125 -119h430v-356h-1077v344q180 121 430 349.5t250 328.5q0 88 -51.5 113.5t-186.5 25.5h-454z" />
<glyph horiz-adv-x="1247" d="M76 1147v299q84 29 200.5 43t230.5 15t241 -1q174 -4 280.5 -102t106.5 -277v-80q0 -238 -172 -299q172 -55 172 -315v-59q0 -184 -106.5 -284.5t-295.5 -100.5h-75h-82q-15 0 -72.5 1t-79 2t-68.5 4t-73.5 7t-65.5 10t-69.5 14.5t-59.5 18.5l2 301h447q129 0 164.5 15.5 t35.5 82.5v19q0 66 -37.5 82t-150.5 22l-334 15v323l334 21q55 2 75.5 4t51.5 7t40 15.5t17 27.5t8 46v18q0 37 -13 59.5t-45 32t-57.5 11.5t-76.5 2h-473z" />
<glyph horiz-adv-x="1247" d="M33 459l432 1040h426l-322 -854h199v275l55 159h342v-434h123v-305l-123 -59v-277h-397v277h-666z" />
<glyph horiz-adv-x="1247" d="M88 41v317h541q45 0 71.5 9.5t37 31t11.5 32.5t1 36v63q0 55 -21.5 82t-77.5 27h-90q-49 0 -69.5 -21.5t-20.5 -70.5h-381l45 952h948v-356h-561l-8 -209q57 35 133 41q78 6 156 0q172 -14 258 -123t86 -279v-192q0 -195 -123 -292t-293 -97q-211 0 -330.5 8t-312.5 41z " />
<glyph horiz-adv-x="1247" d="M70 786q0 195 28.5 335.5t80.5 217t109.5 113.5t133.5 49q274 43 680 -43v-303h-449q-68 0 -107.5 -17.5t-56 -59.5t-19.5 -76.5t-3 -106.5q53 29 114.5 36t198.5 7q209 0 290 -100.5t81 -286.5v-186q0 -367 -391 -367h-283q-80 0 -139 19.5t-111.5 71.5t-86.5 140 t-52 227.5t-18 329.5zM467 602q0 -160 30.5 -204t133.5 -44h35q51 0 69.5 19.5t18.5 75.5v40q0 72 -12.5 92.5t-65.5 20.5h-209z" />
<glyph horiz-adv-x="1247" d="M78 1143v356h985l96 -160l-469 -1339h-422l406 1143h-596z" />
<glyph horiz-adv-x="1247" d="M78 367v108q0 88 36 157.5t115 82.5q-43 23 -73.5 51.5t-45 53t-22.5 64.5t-9 64.5t-1 73.5v133q0 354 401 354h320q188 0 280 -83t92 -273v-90q0 -39 -9 -83t-46 -95t-98 -60q154 -29 153 -290v-156q0 -121 -28.5 -200t-86 -115.5t-116.5 -50t-143 -13.5h-318 q-80 0 -144.5 14.5t-105.5 35t-70.5 54t-45 63.5t-23.5 71t-10 66.5t-2 62.5zM475 430q0 -53 21.5 -73.5t74.5 -20.5h107q33 0 53.5 6t29.5 20.5t11 29t2 38.5v82q0 47 -18.5 71.5t-73.5 24.5h-111q-59 0 -77.5 -23.5t-18.5 -72.5v-82zM475 1012q0 -57 20.5 -73.5 t75.5 -16.5h107q63 0 79.5 19.5t16.5 70.5v61q0 35 -7 56.5t-23.5 30.5t-29 11.5t-36.5 2.5h-107q-53 0 -74.5 -17.5t-21.5 -83.5v-61z" />
<glyph horiz-adv-x="1247" d="M70 948v187q0 367 391 366h282q80 0 139.5 -19.5t112 -71.5t86 -140t52 -227.5t18.5 -329.5q0 -195 -28.5 -335t-81 -217t-110 -114t-132.5 -49q-274 -43 -680 43v303h448q68 0 108 17.5t56.5 59.5t19.5 76.5t3 106.5q-53 -29 -114.5 -36t-199.5 -7q-209 0 -289.5 100.5 t-80.5 286.5zM467 1010q0 -72 12.5 -92.5t65.5 -20.5h209q0 160 -31 204t-133 44h-35q-51 0 -69.5 -19.5t-18.5 -74.5v-41z" />
<glyph horiz-adv-x="1247" d="M68 393v490q0 201 102 307t295 106h336q381 0 381 -393v-510q0 -184 -99.5 -288.5t-281.5 -104.5h-336q-197 0 -297 102.5t-100 290.5zM465 477q0 -53 22.5 -81.5t44 -34t52.5 -5.5h86q59 0 86.5 21.5t27.5 97.5v346q0 119 -98 119h-119q-102 0 -102 -119v-344z" />
<glyph horiz-adv-x="1247" d="M182 0v315h262v600l-241 -41v252l246 168h393v-979h262v-315h-922z" />
<glyph horiz-adv-x="1247" d="M66 956v297q281 61 622 62q242 0 354.5 -98.5t112.5 -311.5q0 -80 -32.5 -158.5t-75.5 -136t-105.5 -113t-104.5 -85t-87 -56.5h405v-356h-1077v344q357 197 489 293q191 139 191 221q0 68 -48 83t-190 15h-454z" />
<glyph horiz-adv-x="1247" d="M76 952v299q84 29 200.5 43.5t230.5 15.5t241 -1q174 -4 280.5 -102.5t106.5 -276.5v-80q0 -238 -172 -299q172 -55 172 -315v-60q0 -184 -106.5 -284.5t-295.5 -100.5h-75h-82q-15 0 -72.5 1t-79 2t-68.5 4t-73.5 7.5t-65.5 10.5t-69.5 14t-59.5 18l2 302h447 q129 0 164.5 15t35.5 83v18q0 66 -37.5 82.5t-150.5 22.5l-334 14v324l334 20q55 2 75.5 4t51.5 7t40 15.5t17 28t8 45.5v19q0 37 -13 59.5t-45 31.5t-57.5 11t-76.5 2h-473z" />
<glyph horiz-adv-x="1247" d="M-2 254l432 1040h426l-321 -854h198v275l55 159h342v-434h123v-305l-123 -59v-277h-397v277h-665z" />
<glyph horiz-adv-x="1247" d="M88 154h541q45 0 71.5 9t37 30.5t11.5 33t1 35.5v64q0 55 -21.5 81.5t-77.5 26.5h-90q-49 0 -69.5 -21.5t-20.5 -70.5h-381l45 952h948v-356h-561l-8 -209q57 35 133 41q78 6 156 0q172 -14 258 -122.5t86 -278.5v-193q0 -195 -123 -292t-293 -97q-211 0 -330.5 8 t-312.5 41v318z" />
<glyph horiz-adv-x="1247" d="M70 786q0 195 28.5 335.5t80.5 217t109.5 113.5t133.5 49q274 43 680 -43v-303h-449q-68 0 -107.5 -17.5t-56 -59.5t-19.5 -76.5t-3 -106.5q53 29 114.5 36t198.5 7q209 0 290 -100.5t81 -286.5v-186q0 -367 -391 -367h-283q-80 0 -139 19.5t-111.5 71.5t-86.5 140 t-52 227.5t-18 329.5zM467 602q0 -160 30.5 -204t133.5 -44h35q51 0 69.5 19.5t18.5 75.5v40q0 72 -12.5 92.5t-65.5 20.5h-209z" />
<glyph horiz-adv-x="1247" d="M78 938v356h985l96 -159l-469 -1340h-422l406 1143h-596z" />
<glyph horiz-adv-x="1247" d="M78 367v108q0 88 36 157.5t115 82.5q-43 23 -73.5 51.5t-45 53t-22.5 64.5t-9 64.5t-1 73.5v133q0 354 401 354h320q188 0 280 -83t92 -273v-90q0 -39 -9 -83t-46 -95t-98 -60q154 -29 153 -290v-156q0 -121 -28.5 -200t-86 -115.5t-116.5 -50t-143 -13.5h-318 q-80 0 -144.5 14.5t-105.5 35t-70.5 54t-45 63.5t-23.5 71t-10 66.5t-2 62.5zM475 430q0 -53 21.5 -73.5t74.5 -20.5h107q33 0 53.5 6t29.5 20.5t11 29t2 38.5v82q0 47 -18.5 71.5t-73.5 24.5h-111q-59 0 -77.5 -23.5t-18.5 -72.5v-82zM475 1012q0 -57 20.5 -73.5 t75.5 -16.5h107q63 0 79.5 19.5t16.5 70.5v61q0 35 -7 56.5t-23.5 30.5t-29 11.5t-36.5 2.5h-107q-53 0 -74.5 -17.5t-21.5 -83.5v-61z" />
<glyph horiz-adv-x="1247" d="M70 743v187q0 367 391 366h282q80 0 139.5 -19.5t112 -71.5t86 -140t52 -227.5t18.5 -329.5q0 -195 -28.5 -335t-81 -217t-110 -114t-132.5 -49q-274 -43 -680 43v303h448q68 0 108 17.5t56.5 59.5t19.5 77t3 106q-53 -29 -114.5 -36t-199.5 -7q-209 0 -289.5 100.5 t-80.5 286.5zM467 805q0 -72 12.5 -92.5t65.5 -20.5h209q0 160 -31 204t-133 44h-35q-51 0 -69.5 -19.5t-18.5 -74.5v-41z" />
<glyph d="M57 582q0 530 416 530q170 0 343 -20.5t253 -53.5v-1087q0 -242 -129 -388.5t-381 -119.5l-467 49v264h406q174 0 174 195v139q-61 -78 -199 -78q-229 0 -322.5 133.5t-93.5 436.5zM352 1468h137q0 -96 97 -96q100 0 100 96h137q0 -104 -64.5 -168.5t-172.5 -64.5 q-106 0 -170 64.5t-64 168.5zM455 596q0 -182 20.5 -239.5t95.5 -57.5q70 0 101 39v500h-97q-43 0 -68.5 -18.5t-36.5 -58.5t-13 -73t-2 -92z" />
<glyph d="M57 582q0 530 416 530q170 0 343 -20.5t253 -53.5v-1087q0 -242 -129 -388.5t-381 -119.5l-467 49v264h406q174 0 174 195v139q-61 -78 -199 -78q-229 0 -322.5 133.5t-93.5 436.5zM446 1282v193q0 51 50 51h184q45 0 45 -51v-193q0 -47 -45 -47h-184q-50 0 -50 47z M455 596q0 -182 20.5 -239.5t95.5 -57.5q70 0 101 39v500h-97q-43 0 -68.5 -18.5t-36.5 -58.5t-13 -73t-2 -92z" />
<glyph d="M57 582q0 530 416 530q170 0 343 -20.5t253 -53.5v-1087q0 -242 -129 -388.5t-381 -119.5l-467 49v264h406q174 0 174 195v139q-61 -78 -199 -78q-229 0 -322.5 133.5t-93.5 436.5zM252 1235l205 287h268l186 -287h-227l-100 104l-103 -104h-229zM455 596 q0 -182 20.5 -239.5t95.5 -57.5q70 0 101 39v500h-97q-43 0 -68.5 -18.5t-36.5 -58.5t-13 -73t-2 -92z" />
<glyph horiz-adv-x="1748" d="M45 534.5q0 172.5 28.5 287t85 171t119 78t148.5 21.5l723 -5l57 304h340v-304h183v-274h-183v-344q0 -100 17.5 -139t56.5 -60q86 -43 100 -43v-231h-307q-129 0 -196.5 91t-67.5 300v426l-498 -2h-27q-53 2 -76.5 -3t-53 -29.5t-41 -86t-11.5 -166.5q0 -92 6.5 -142 t32 -73.5t48 -26.5t81.5 -4q16 0 25 1l319 16v-234q-117 -47 -228.5 -62t-315.5 -15q-88 0 -147.5 19.5t-113 74.5t-79 168.5t-25.5 286z" />
<glyph horiz-adv-x="1576" d="M23 815v197l153 78l57 303h340v-303h402l57 303h340v-303h182v-275h-182v-344q0 -100 18.5 -138t57.5 -61q86 -43 100 -43v-231h-307q-266 0 -266 391v426h-402v-344q0 -100 17.5 -139t56.5 -60q86 -43 101 -43v-231h-308q-129 0 -196.5 91t-67.5 300v426h-153z" />
<glyph horiz-adv-x="1548" d="M23 813v240l147 34v203q0 178 91 249t286 71q168 0 264 -49v-228l-149 2q-35 0 -54.5 -5t-29 -26.5t-10.5 -41t-1 -68.5v-27v-77h381l58 303h340v-303h182v-275h-182v-344q0 -100 17 -139t56 -60q86 -43 101 -43v-231h-308q-129 0 -196.5 91t-67.5 300v426h-381v-815 h-397v813h-147z" />
<glyph horiz-adv-x="1994" d="M23 815v197l153 78l57 303h340v-303h279q180 0 284.5 -76t129.5 -213l73 -402q14 -76 88 -80l144 768h403l-293 -1431l-145 -209h-295l121 553q-317 0 -389 319l-72 326q-23 102 -65.5 136t-137.5 34h-125v-344q0 -100 17.5 -139t56.5 -60q86 -43 101 -43v-231h-308 q-129 0 -196.5 91t-67.5 300v426h-153z" />
<glyph horiz-adv-x="2025" d="M23 813v240l147 34v203q0 178 91 249t286 71q168 0 264 -49v-228l-149 2q-35 0 -54.5 -5t-29 -26.5t-10.5 -41t-1 -68.5v-27v-80h305q371 2 424 -286l74 -402q14 -76 88 -80l144 768h403l-293 -1431l-145 -209h-295l121 553q-317 0 -389 319l-72 326q-23 102 -66 136 t-139 32h-160v-813h-397v813h-147z" />
<glyph d="M57 582q0 530 416 530q170 0 343 -20.5t253 -53.5v-1087q0 -242 -129 -388.5t-381 -119.5l-467 49v264h406q174 0 174 195v139q-61 -78 -199 -78q-229 0 -322.5 133.5t-93.5 436.5zM442 1264v276q0 168 190 159q52 -2 95 -16v-114q-27 0 -40 -6.5t-15 -13.5t-2 -19v-10 h20q47 0 47 -45v-211q0 -49 -47 -50h-205q-43 1 -43 50zM455 596q0 -182 20.5 -239.5t95.5 -57.5q70 0 101 39v500h-97q-43 0 -68.5 -18.5t-36.5 -58.5t-13 -73t-2 -92z" />
<glyph horiz-adv-x="565" d="M94 1167h375l-45 -764h-297zM109 47v240q0 51 49 51h235q47 0 47 -51v-240q0 -47 -47 -47h-235q-49 0 -49 47z" />
<glyph horiz-adv-x="1017" d="M98 1032v137h377v-137l-20 -274h-332zM545 1032v137h377v-137l-21 -274h-336z" />
<glyph horiz-adv-x="1325" d="M23 270l40 271h242l25 151h-242l41 271h242l41 251h270l-41 -251h150l40 251h271l-41 -251h244l-41 -271h-244l-25 -151l240 -2l-37 -271h-246l-43 -268h-270l43 268l-150 2l-43 -270h-270l43 270h-239zM575 541h150l25 151h-150z" />
<glyph horiz-adv-x="1095" d="M57 745v76q0 348 334 353v169h221v-178q223 -14 369 -43v-280q-244 18 -477 18q-49 0 -49 -49v-25q0 -45 49 -45h225q94 0 157.5 -28.5t94.5 -81.5t43 -110.5t12 -135.5v-61q0 -117 -26.5 -189t-89 -104.5t-128 -41.5t-180.5 -9v-164h-221v170q-233 12 -289 47v276 q270 -14 484 -14q23 0 36 10t15 21l2 10v29q0 41 -53 41h-205q-180 0 -252 88.5t-72 250.5z" />
<glyph horiz-adv-x="2074" d="M33 659v232q0 135 67.5 205.5t216.5 70.5h207q281 0 281 -276v-232q0 -135 -67.5 -205.5t-217.5 -70.5h-207q-280 0 -280 276zM289 721q0 -41 14 -61.5t62 -20.5h104q47 0 63.5 21.5t16.5 60.5v108q0 49 -17.5 65.5t-58.5 16.5h-104q-39 0 -59.5 -16t-20.5 -66v-108z M643 0l528 1167h256l-516 -1167h-268zM1270 283v231q0 276 286 277h205q281 0 281 -277v-231q0 -135 -67.5 -206t-217.5 -71h-205q-282 1 -282 277zM1526 344q0 -41 14 -61.5t62 -20.5h106q47 0 62.5 20.5t15.5 61.5v109q0 49 -16.5 65.5t-57.5 16.5h-106q-39 0 -59.5 -16.5 t-20.5 -65.5v-109z" />
<glyph horiz-adv-x="1265" d="M106 143q-180 268 93 514l86 76l-41 58q-57 86 -50 165.5t58 140t119 72.5q102 18 258.5 -1t222.5 -46v-272h-164q-78 0 -41 -49l146 -207l223 164l151 -172l-133 -187l-55 -53l260 -346h-414l-96 123l-65 -57q-51 -45 -149.5 -68t-218.5 9t-190 136zM387 340 q33 -43 80 -6l61 51l-59 84l-63 -51q-50 -37 -19 -78z" />
<glyph horiz-adv-x="571" d="M98 1032v137h377v-137l-20 -274h-334z" />
<glyph horiz-adv-x="854" d="M57 805v143l285 39l10 -192zM156 502l51 282l186 -49l-100 -276zM322 1124l137 45l125 -258l-181 -69zM360 586l105 162l233 -183l-86 -114zM471 815l244 166l84 -117l-207 -198z" />
<glyph horiz-adv-x="1148" d="M80 332v504q0 164 98 247.5t254 83.5h295q90 0 156.5 -25.5t100.5 -61.5t54.5 -86t25.5 -86t5 -72v-504q0 -332 -342 -332h-295q-154 0 -253 80t-99 252zM477 442q0 -55 15.5 -70.5t54.5 -15.5h61q31 0 45.5 13.5t16.5 28t2 46.5v263v27v26q0 4 -4 19.5t-11.5 18.5 t-20.5 8t-32 5h-61q-14 0 -25 -3l-17 -5q-7 -2 -11.5 -10.5t-7.5 -11.5t-4 -15t-1 -16v-21v-20v-267z" />
<glyph horiz-adv-x="776" d="M45 750v251l246 166h393v-1167h-397v791z" />
<glyph horiz-adv-x="1069" d="M45 827v297q31 6 86 19.5t80 18.5t76 12.5t111.5 9.5t146.5 2q240 0 353.5 -104.5t113.5 -319.5q0 -274 -254 -406h254v-356h-951v344q100 37 216 92.5t226.5 140.5t110.5 152q0 61 -34.5 79.5t-157.5 18.5h-377z" />
<glyph horiz-adv-x="1032" d="M35 827v301q170 59 600 46q145 -4 229 -86t84 -209v-50q0 -104 -24.5 -168.5t-98.5 -78.5q76 -33 99.5 -94.5t23.5 -165.5v-33q0 -145 -73.5 -218t-249.5 -81q-403 -18 -580 43v303h440q61 0 62 35v10q0 25 -12.5 31t-53.5 8l-338 10v307l338 8q47 2 58.5 7.5t11.5 33.5 v7q0 23 -13.5 28.5t-52.5 5.5h-450z" />
<glyph horiz-adv-x="1163" d="M23 420l323 747h412l-248 -602h131v174l76 195h321v-369h103v-305l-103 -39v-217h-397v217h-522z" />
<glyph horiz-adv-x="1069" d="M88 47v297h459q25 0 34 2t17 12.5t8 32.5v15q0 39 -8 46t-41 7h-68q-72 0 -71 -51h-328l35 759h825v-356h-495l-13 -109q49 49 152 50h65q180 0 262.5 -86t82.5 -267v-88q0 -309 -345 -313q-381 -4 -571 49z" />
<glyph horiz-adv-x="1091" d="M76 614q0 162 32.5 278t89 175t119 86t136.5 27q387 0 536 -31v-326h-414q-37 0 -58 -5t-30.5 -20.5t-11.5 -27.5t-2 -43q106 25 275 25q279 0 278 -322v-90q0 -166 -96 -254t-223 -88h-242q-102 0 -169 24.5t-120 90t-76.5 188.5t-23.5 313zM473 467q0 -78 10.5 -95.5 t55.5 -17.5h45q27 0 36 10.5t9 45.5v10q0 31 -8.5 39t-36.5 8h-111z" />
<glyph horiz-adv-x="978" d="M35 811v356h805l106 -159l-362 -1008h-424l293 811h-418z" />
<glyph horiz-adv-x="1128" d="M86 266v144q0 43 11.5 71.5t37 46t40.5 23.5t50 18q-70 25 -104.5 90.5t-34.5 139.5v88q0 180 76 235.5t235 55.5h340q154 0 230.5 -57.5t76.5 -233.5v-88q0 -166 -118 -191q59 -10 88.5 -72.5t29.5 -125.5v-144q0 -266 -292 -266h-375q-94 0 -155.5 22.5t-89.5 65.5 t-37 83t-9 95zM483 377q0 -41 11.5 -50.5t50.5 -9.5h47q39 0 47 8.5t8 45.5v30q0 33 -8 42.5t-43 9.5h-61q-29 0 -40.5 -8.5t-11.5 -36.5v-31zM483 776q0 -18 1 -25.5t12.5 -16.5t35.5 -9h70q23 0 33 8t10 15v22v51q0 39 -47 39h-66q-49 0 -49 -39v-45z" />
<glyph horiz-adv-x="1091" d="M70 748v90q0 168 95 255t220 87h246q102 0 168.5 -25t120 -90.5t77 -188t23.5 -313.5q0 -565 -336 -565q-428 0 -578 31v325h414q37 0 58.5 5.5t30.5 20.5t11.5 27.5t2.5 43.5q-127 -25 -279 -25q-274 0 -274 322zM467 758q0 -33 6 -40t35 -7h115q0 78 -12.5 95t-57.5 17 h-45q-27 0 -34 -10t-7 -45v-10z" />
<glyph horiz-adv-x="970" d="M23 809v324q256 55 505 43q199 0 298.5 -82t99.5 -287v-43q0 -174 -100.5 -259t-274.5 -52v-50h-279v308h197q43 0 51 6t8 37v12q0 10 -1 18.5t-6 12.5t-8 7t-12 4t-15 1h-19h-21h-423zM244 47v240q0 51 49 51h231q51 0 51 -51v-240q0 -47 -51 -47h-231q-49 0 -49 47z " />
<glyph horiz-adv-x="1818" d="M76 123v549q0 209 115.5 333.5t371.5 124.5h355q70 0 117.5 -5t105 -24.5t91.5 -55t57.5 -102t23.5 -161.5v-700h-242l-49 111l-12 -14q-12 -13 -35 -31.5t-53.5 -38t-78.5 -33t-100 -13.5q-133 0 -197.5 90.5t-64.5 211.5v67q0 293 326 293h211q2 31 0 33 q0 49 -19.5 63.5t-70.5 14.5h-365q-90 0 -141 -37t-51 -148v-487q0 -125 58 -178.5t134 -53.5h654q119 0 164.5 58.5t45.5 173.5v844q0 117 -57 180t-153 63h-828v240q281 57 651 55h177q94 0 179 -26.5t160.5 -85t120.5 -168t45 -258.5v-844q0 -279 -124.5 -404 t-360.5 -125h-674q-211 0 -349 115t-138 373zM795 432q0 -10 2 -12q0 -33 15 -47.5t56 -14.5q119 0 150 70v88l-160 -12q-35 -4 -48 -14.5t-13 -45.5q-2 -2 -2 -12z" />
<glyph horiz-adv-x="1269" d="M41 0l354 1167h500l336 -1167h-412l-45 178h-272l-49 -178h-412zM580 473h120l-57 232z" />
<glyph horiz-adv-x="1126" d="M92 0v1169h561q207 0 312.5 -68.5t105.5 -244.5q0 -127 -54 -193.5t-134 -66.5q82 -10 138 -77.5t56 -186.5q0 -197 -104.5 -264.5t-319.5 -67.5h-561zM489 317h123q31 0 46.5 15.5t15.5 66.5q0 78 -62 78h-123v-160zM489 731h123q61 0 62 64q0 59 -62 59h-123v-123z" />
<glyph horiz-adv-x="1044" d="M63 604q0 299 104.5 439.5t375.5 140.5q172 0 264 -12.5t199 -59.5v-264q-205 41 -340 41q-45 0 -77 -6t-54.5 -13.5t-37 -31t-21.5 -37t-11 -54t-4 -61.5v-82q0 -16 -1 -60t0 -60.5t4 -51.5t11 -49t22.5 -36.5t37 -33t55.5 -18.5t76 -8l340 39v-260 q-102 -53 -182.5 -63.5t-280.5 -10.5q-125 0 -213 30.5t-139.5 80t-80 132t-38 165.5t-9.5 204z" />
<glyph horiz-adv-x="1189" d="M92 0v1171h588q135 -2 227 -47t138.5 -132t64.5 -184t18 -228q0 -121 -15 -215.5t-35.5 -154.5t-59.5 -102t-68.5 -62.5t-83 -32t-83 -12.5t-85.5 -1h-18h-588zM489 336h134q37 0 60.5 18.5t32.5 57.5t12 74.5t3 93.5q0 141 -25.5 198.5t-82.5 57.5h-134v-500z" />
<glyph horiz-adv-x="1044" d="M92 252v651q0 258 295 266q418 0 608 -34v-299h-440q-43 0 -54.5 -13.5t-11.5 -54.5v-27l422 -16v-289l-422 -14v-25q0 -41 18.5 -53t55.5 -12h432v-299q-104 -25 -266 -34t-272 -6l-111 3q-254 6 -254 256z" />
<glyph horiz-adv-x="1044" d="M92 0v903q0 260 295 266q418 0 608 -34v-299h-440q-43 0 -54.5 -13.5t-11.5 -54.5v-68l422 -16v-289l-422 -14v-381h-397z" />
<glyph horiz-adv-x="1144" d="M63 566v20q0 297 87.5 442.5t308.5 157.5q401 25 596 -51v-271q-203 27 -391 27q-72 0 -102 -5t-58.5 -34t-35.5 -89.5t-7 -172.5q0 -12 -1 -55t0 -59.5t7 -49.5t18.5 -46t37 -26.5t59.5 -13.5q104 0 104 86v49h-78v203q113 31 338 31q63 0 137 -7v-702h-299l-92 90 q-35 -57 -86 -80.5t-168 -23.5q-381 0 -375 580z" />
<glyph horiz-adv-x="1181" d="M92 -2v1169h397v-426h228v426h397v-1169h-397v387h-228v-387h-397z" />
<glyph horiz-adv-x="557" d="M92 0v1167h397v-1167h-397z" />
<glyph horiz-adv-x="694" d="M41 43v315q70 0 111 8.5t57 33t18 41t2 61.5v665h398v-829q0 -250 -129 -307q-119 -47 -248 -41t-209 53z" />
<glyph horiz-adv-x="1222" d="M92 -2v1169h377v-438h88l191 438h436l-279 -594l279 -575h-436l-195 416h-84v-416h-377z" />
<glyph horiz-adv-x="1036" d="M92 299v868h397v-673q0 -51 9.5 -80t36 -41.5t47 -14.5t67.5 -2h348v-356h-606q-131 0 -215 73.5t-84 225.5z" />
<glyph horiz-adv-x="1619" d="M63 0l109 1169h522l119 -639l117 639h522l107 -1169h-392l-61 600l-80 -600h-420l-86 596l-53 -596h-404z" />
<glyph horiz-adv-x="1230" d="M92 0v1169h391l285 -450v450h395v-1169h-389l-285 461v-461h-397z" />
<glyph horiz-adv-x="1208" d="M63 573q0 184 35 305t110 185.5t167 89.5t229 25q111 0 185.5 -11.5t148.5 -46.5t116 -98.5t67.5 -172t25.5 -261.5q0 -184 -35 -304t-109.5 -183.5t-167 -87t-231.5 -23.5q-137 0 -226 20.5t-166 80t-113 178t-36 304.5zM461 583.5q0 -151.5 22.5 -194.5t120.5 -43 q94 0 120 46t26 196q0 154 -24 193.5t-122 39.5q-90 0 -116.5 -43t-26.5 -194.5z" />
<glyph horiz-adv-x="1087" d="M70 0v1165h575q195 0 294 -85t99 -308q0 -109 -24.5 -188.5t-59 -121.5t-88 -67.5t-92.5 -32t-88 -8.5q-53 -2 -133 7.5t-86 19.5v-381h-397zM467 629h108q35 0 50.5 24.5t15.5 81.5q0 43 -3 62.5t-17.5 36t-45.5 16.5h-108v-221z" />
<glyph horiz-adv-x="1208" d="M63 573q0 184 35 305t110 185.5t167 89.5t229 25q111 0 185.5 -11.5t148.5 -46.5t116 -98.5t67.5 -172t25.5 -261.5q0 -184 -35 -304t-109.5 -183.5t-167 -87t-231.5 -23.5q-137 0 -226 20.5t-166 80t-113 178t-36 304.5zM461 583.5q0 -151.5 22.5 -194.5t120.5 -43 q94 0 120 46t26 196q0 154 -24 193.5t-122 39.5q-90 0 -116.5 -43t-26.5 -194.5zM508 -68h209q12 -133 323 -71v-287q-135 -20 -250.5 5.5t-198.5 115.5t-83 237z" />
<glyph horiz-adv-x="1134" d="M70 0v1165h555q199 0 306 -86t107 -307q0 -289 -131 -369l189 -403h-418l-133 373l-78 8v-381h-397zM467 629h108q35 0 50.5 24.5t15.5 81.5q0 43 -3 62.5t-17.5 36t-45.5 16.5h-108v-221z" />
<glyph horiz-adv-x="1103" d="M63 745v76q0 352 345 353q373 0 579 -52v-280q-244 18 -477 18q-49 0 -49 -49v-25q0 -45 49 -45h225q178 0 242.5 -96t64.5 -260v-61q0 -186 -78.5 -265t-228.5 -79q-547 0 -626 53v276q270 -14 483 -14q23 0 36 10t15 21l2 10v29q0 41 -53 41h-205q-180 0 -252 88.5 t-72 250.5z" />
<glyph horiz-adv-x="1075" d="M41 811v356h995v-356h-299v-811h-397v811h-299z" />
<glyph horiz-adv-x="1210" d="M90 532v635h399v-635q0 -113 33 -149.5t98.5 -36.5t93 38t27.5 148v635h400v-635q0 -137 -32 -238t-79 -158.5t-119.5 -91.5t-139 -44t-150.5 -10q-96 0 -164 9t-142.5 41t-119.5 89t-75 159.5t-30 243.5z" />
<glyph horiz-adv-x="1269" d="M41 1167h412l190 -704l176 704h412l-336 -1167h-500z" />
<glyph horiz-adv-x="1738" d="M41 1167h412l129 -704l114 704h412l-64 -270l132 -434l114 704h412l-275 -1167h-499l-47 203l-47 -203h-500z" />
<glyph horiz-adv-x="1255" d="M41 0l344 578l-336 589h475l105 -288l114 288h476l-345 -596l336 -571h-458l-121 268l-115 -268h-475z" />
<glyph horiz-adv-x="1259" d="M41 1167h432l162 -331l153 331h433l-390 -757v-412h-397v412z" />
<glyph horiz-adv-x="1034" d="M41 0v356l446 455h-446v356h954v-356l-417 -455h417v-356h-954z" />
<glyph horiz-adv-x="499" d="M23 1380h296l158 -293h-223z" />
<glyph horiz-adv-x="1269" d="M41 0l354 1167h500l336 -1167h-131q-70 -49 -75 -101.5t31 -80t74 -21.5v-184q-72 -25 -147.5 9t-116.5 97.5t-22.5 144.5t112.5 136h-137l-45 178h-272l-49 -178h-412zM580 473h120l-57 232z" />
<glyph horiz-adv-x="1134" d="M70 0v1165h555q199 0 306 -86t107 -307q0 -289 -131 -369l189 -403h-418l-133 373l-78 8v-381h-397zM424 -201q0 49 47 49h205q43 0 43 -49v-276q0 -167 -192 -157q-51 3 -93 16v114q57 -2 58 37v10h-21q-47 0 -47 47v209zM467 629h108q35 0 50.5 24.5t15.5 81.5 q0 43 -3 62.5t-17.5 36t-45.5 16.5h-108v-221z" />
<glyph horiz-adv-x="557" d="M-90 1427q104 152 252 152q47 0 112.5 -36t104.5 -36q106 -6 190 82l54 -151q-98 -147 -230 -148q-45 0 -121.5 36t-115.5 36q-98 0 -191 -72zM92 0v1167h397v-1167h-397z" />
<glyph horiz-adv-x="1036" d="M92 299v868h397v-673q0 -51 9.5 -80t36 -41.5t47 -14.5t67.5 -2h348v-356h-606q-131 0 -215 73.5t-84 225.5zM371 -201q0 49 47 49h205q43 0 43 -49v-276q0 -167 -192 -157q-51 3 -93 16v114q57 -2 57 37v10h-20q-47 0 -47 47v209z" />
<glyph horiz-adv-x="905" d="M57 1192q0 55 40 94t95.5 39t94.5 -39t39 -94t-39 -95t-94.5 -40t-95.5 40t-40 95zM580 1192q0 55 39.5 94t95 39t94.5 -39t39 -94t-39 -95t-94.5 -40t-95 40t-39.5 95z" />
<glyph horiz-adv-x="1103" d="M63 745v76q0 352 345 353q373 0 579 -52v-280q-244 18 -477 18q-49 0 -49 -49v-25q0 -45 49 -45h225q178 0 242.5 -96t64.5 -260v-61q0 -186 -78.5 -265t-228.5 -79q-547 0 -626 53v276q270 -14 483 -14q23 0 36 10t15 21l2 10v29q0 41 -53 41h-205q-180 0 -252 88.5 t-72 250.5zM233 1583h228l100 -104l103 104h229l-205 -287h-268z" />
<glyph horiz-adv-x="1044" d="M92 252v651q0 258 295 266q418 0 608 -34v-299h-440q-43 0 -54.5 -13.5t-11.5 -54.5v-27l422 -16v-289l-422 -14v-25q0 -41 18.5 -53t55.5 -12h432v-299q-104 -25 -266 -34t-272 -6l-111 3q-254 6 -254 256zM252 1292v191h598v-191h-598z" />
<glyph horiz-adv-x="1142" d="M63 566v20q0 297 87.5 442.5t308.5 157.5q401 25 596 -51v-271q-203 27 -391 27q-72 0 -102 -5t-58.5 -34t-35.5 -89.5t-7 -172.5q0 -12 -1 -55t0 -59.5t7 -49.5t18.5 -46t37 -26.5t59.5 -13.5q104 0 104 86v49h-78v203q113 31 338 31q63 0 137 -7v-702h-299l-92 90 q-35 -57 -86 -80.5t-168 -23.5q-381 0 -375 580zM453 -205q0 49 47 49h205q43 0 43 -49v-276q0 -167 -193 -157q-51 3 -92 15v115q57 -2 57 37v10h-20q-47 0 -47 47v209z" />
<glyph horiz-adv-x="1040" d="M23 811v356h995v-356h-299v-172h178v-152h-178v-487h-397v487h-185v152h185v172h-299z" />
<glyph horiz-adv-x="1034" d="M41 0v356l446 455h-446v356h954v-356l-417 -455h417v-356h-954zM188 1577h228l100 -104l102 104h230l-205 -287h-268z" />
<glyph horiz-adv-x="712" d="M57 985v191h598v-191h-598z" />
<glyph horiz-adv-x="530" d="M57 956q0 88 61.5 149.5t147.5 61.5t146.5 -61.5t60.5 -149.5t-60.5 -148t-146.5 -60t-147.5 60t-61.5 148zM197 956.5q0 -28.5 20.5 -48t49 -19.5t48 19.5t19.5 48t-19.5 49t-48 20.5t-49 -20.5t-20.5 -49z" />
<glyph horiz-adv-x="499" d="M23 1087l157 293h297l-231 -293h-223z" />
<glyph horiz-adv-x="774" d="M57 1374h228l100 -104l102 104h230l-205 -287h-268z" />
<glyph horiz-adv-x="1230" d="M80 0v1169h391l285 -450v450h395v-1169v-86q0 -217 -122 -288.5t-404 -59.5v260q80 0 106.5 20.5t26.5 104.5v55l-281 455v-461h-397z" />
<glyph horiz-adv-x="1269" d="M41 0l354 1167h500l336 -1167h-412l-45 178h-272l-49 -178h-412zM346 1290v191h598v-191h-598zM580 473h120l-57 232z" />
<glyph horiz-adv-x="1269" d="M41 0l354 1167h500l336 -1167h-412l-45 178h-272l-49 -178h-412zM532 1290l160 293h295l-229 -293h-226zM580 473h120l-57 232z" />
<glyph horiz-adv-x="1269" d="M41 0l354 1167h500l336 -1167h-412l-45 178h-272l-49 -178h-412zM315 1290l205 287h268l187 -287h-227l-101 105l-102 -105h-230zM580 473h120l-57 232z" />
<glyph horiz-adv-x="1269" d="M41 0l354 1167h500l336 -1167h-412l-45 178h-272l-49 -178h-412zM289 1427q104 152 252 152q45 0 110.5 -36t106.5 -36q106 -6 190 82l53 -151q-98 -147 -229 -148q-45 0 -122 36t-115 36q-98 0 -191 -72zM580 473h120l-57 232z" />
<glyph horiz-adv-x="1269" d="M41 0l354 1167h500l336 -1167h-412l-45 178h-272l-49 -178h-412zM250 1425.5q0 55.5 40 94.5t95 39t94 -39t39 -94.5t-39 -95.5t-94 -40t-95 40t-40 95.5zM580 473h120l-57 232zM772 1425.5q0 55.5 40 94.5t95.5 39t94 -39t38.5 -94.5t-38.5 -95.5t-94 -40t-95.5 40 t-40 95.5z" />
<glyph horiz-adv-x="1269" d="M41 0l354 1167h221q-76 10 -127 68.5t-51 138.5q0 88 61.5 149.5t147.5 61.5t145.5 -61.5t59.5 -149.5q0 -80 -50 -138t-126 -69h219l336 -1167h-412l-45 178h-272l-49 -178h-412zM578 1374.5q0 -28.5 19 -48t50 -19.5q29 0 47.5 19.5t18.5 48t-19.5 49t-46.5 20.5 q-31 0 -50 -20.5t-19 -49zM580 473h120l-57 232z" />
<glyph horiz-adv-x="1689" d="M27 0l348 911q16 45 43.5 82t60.5 62.5t72 46t80 32t85 19.5t86 10l84 4q42 2 78.5 0t69.5 0q418 0 608 -34v-299h-440q-43 0 -54 -13.5t-11 -54.5v-27l422 -16v-289l-422 -14v-25q0 -41 18.5 -53t54.5 -12h432v-299q-104 -25 -266 -34t-272 -6l-111 3q-102 -2 -178 52 t-76 181v15h-194l-92 -242h-426zM643 496h96v254z" />
<glyph horiz-adv-x="557" d="M92 0v1167h397v-1167h-114q-68 -49 -72 -100.5t32 -79t75 -21.5v-184q-72 -25 -148 9t-117 96.5t-23.5 142.5t109.5 137h-139z" />
<glyph horiz-adv-x="1044" d="M63 604q0 299 104.5 439.5t375.5 140.5q172 0 264 -12.5t199 -59.5v-264q-205 41 -340 41q-45 0 -77 -6t-54.5 -13.5t-37 -31t-21.5 -37t-11 -54t-4 -61.5v-82q0 -16 -1 -60t0 -60.5t4 -51.5t11 -49t22.5 -36.5t37 -33t55.5 -18.5t76 -8l340 39v-260 q-102 -53 -182.5 -63.5t-280.5 -10.5q-125 0 -213 30.5t-139.5 80t-80 132t-38 165.5t-9.5 204zM270 1604h228l100 -105l102 105h230l-205 -287h-268z" />
<glyph horiz-adv-x="1044" d="M92 252v651q0 258 295 266q418 0 608 -34v-299h-440q-43 0 -54.5 -13.5t-11.5 -54.5v-27l422 -16v-289l-422 -14v-25q0 -41 18.5 -53t55.5 -12h432v-299q-104 -25 -266 -34t-272 -6l-111 3q-254 6 -254 256zM463 1292l155 293h300l-234 -293h-221z" />
<glyph horiz-adv-x="1044" d="M92 252v651q0 258 295 266q418 0 608 -34v-299h-440q-43 0 -54.5 -13.5t-11.5 -54.5v-27l422 -16v-289l-422 -14v-25q0 -41 18.5 -53t55.5 -12h432v-299q-45 -31 -64.5 -65t-15 -59.5t20.5 -46t39.5 -30.5t46.5 -6v-184q-70 -25 -142.5 5.5t-114.5 89t-34 135.5t82 134 q-219 -20 -467 -10q-254 6 -254 256z" />
<glyph horiz-adv-x="1044" d="M92 252v651q0 258 295 266q418 0 608 -34v-299h-440q-43 0 -54.5 -13.5t-11.5 -54.5v-27l422 -16v-289l-422 -14v-25q0 -41 18.5 -53t55.5 -12h432v-299q-104 -25 -266 -34t-272 -6l-111 3q-254 6 -254 256zM145 1427.5q0 55.5 40 94.5t95.5 39t94.5 -39t39 -94.5 t-39 -95.5t-94.5 -40t-95.5 40t-40 95.5zM668 1427.5q0 55.5 40 94.5t95 39t94 -39t39 -94.5t-39 -95.5t-94 -40t-95 40t-40 95.5z" />
<glyph horiz-adv-x="1044" d="M92 252v651q0 258 295 266q418 0 608 -34v-299h-440q-43 0 -54.5 -13.5t-11.5 -54.5v-27l422 -16v-289l-422 -14v-25q0 -41 18.5 -53t55.5 -12h432v-299q-104 -25 -266 -34t-272 -6l-111 3q-254 6 -254 256zM430 1339v193q0 51 49 51h185q49 0 49 -51v-193q0 -47 -49 -47 h-185q-49 0 -49 47z" />
<glyph horiz-adv-x="557" d="M92 0v1167h397v-1167h-397zM147 1290l156 293h299l-233 -293h-222z" />
<glyph horiz-adv-x="557" d="M-72 1290l205 287h268l187 -287h-228l-100 105l-102 -105h-230zM92 0v1167h397v-1167h-397z" />
<glyph horiz-adv-x="557" d="M-20 1290v191h598v-191h-598zM92 0v1167h397v-1167h-397z" />
<glyph horiz-adv-x="1241" d="M23 518v152h112v501h588q135 -2 227 -47t138.5 -132t64.5 -184t18 -228q0 -121 -15 -215.5t-35.5 -154.5t-59.5 -102t-68.5 -62.5t-83 -32t-83 -12.5t-85.5 -1h-18h-588v518h-112zM532 336h134q37 0 60.5 18.5t32.5 57.5t12 74.5t3 93.5q0 141 -25.5 198.5t-82.5 57.5 h-134v-166h134v-152h-134v-182z" />
<glyph horiz-adv-x="1230" d="M92 0v1169h391l285 -450v450h395v-1169h-389l-285 461v-461h-397zM457 -201q0 49 47 49h205q43 0 43 -49v-276q0 -167 -192 -157q-51 3 -93 16v114q57 -2 57 37v10h-20q-47 0 -47 47v209z" />
<glyph horiz-adv-x="1208" d="M63 573q0 184 35 305t110 185.5t167 89.5t229 25q111 0 185.5 -11.5t148.5 -46.5t116 -98.5t67.5 -172t25.5 -261.5q0 -184 -35 -304t-109.5 -183.5t-167 -87t-231.5 -23.5q-137 0 -226 20.5t-166 80t-113 178t-36 304.5zM305 1300v191h598v-191h-598zM461 583.5 q0 -151.5 22.5 -194.5t120.5 -43q94 0 120 46t26 196q0 154 -24 193.5t-122 39.5q-90 0 -116.5 -43t-26.5 -194.5z" />
<glyph horiz-adv-x="1222" d="M92 -2v1169h377v-438h88l191 438h436l-279 -594l279 -575h-436l-195 416h-84v-416h-377zM467 -203q0 49 47 49h205q43 0 43 -49v-276q0 -168 -189 -158q-52 3 -96 16v115q27 0 40 6t15.5 13.5t2.5 19.5v8h-21q-47 0 -47 45v211z" />
<glyph horiz-adv-x="1208" d="M63 573q0 184 35 305t110 185.5t167 89.5t229 25q111 0 185.5 -11.5t148.5 -46.5t116 -98.5t67.5 -172t25.5 -261.5q0 -184 -35 -304t-109.5 -183.5t-167 -87t-231.5 -23.5q-137 0 -226 20.5t-166 80t-113 178t-36 304.5zM272 1300l205 287h268l187 -287h-227l-101 105 l-102 -105h-230zM461 583.5q0 -151.5 22.5 -194.5t120.5 -43q94 0 120 46t26 196q0 154 -24 193.5t-122 39.5q-90 0 -116.5 -43t-26.5 -194.5z" />
<glyph horiz-adv-x="1208" d="M63 573q0 184 35 305t110 185.5t167 89.5t229 25q111 0 185.5 -11.5t148.5 -46.5t116 -98.5t67.5 -172t25.5 -261.5q0 -184 -35 -304t-109.5 -183.5t-167 -87t-231.5 -23.5q-137 0 -226 20.5t-166 80t-113 178t-36 304.5zM248 1438q104 152 252 151q45 0 110.5 -35.5 t106.5 -35.5q106 -6 190 81l54 -151q-98 -147 -230 -148q-45 0 -122 36t-115 36q-98 0 -191 -72zM461 583.5q0 -151.5 22.5 -194.5t120.5 -43q94 0 120 46t26 196q0 154 -24 193.5t-122 39.5q-90 0 -116.5 -43t-26.5 -194.5z" />
<glyph horiz-adv-x="1208" d="M63 573q0 184 35 305t110 185.5t167 89.5t229 25q111 0 185.5 -11.5t148.5 -46.5t116 -98.5t67.5 -172t25.5 -261.5q0 -184 -35 -304t-109.5 -183.5t-167 -87t-231.5 -23.5q-137 0 -226 20.5t-166 80t-113 178t-36 304.5zM209 1435.5q0 55.5 40 94.5t95 39t94 -39 t39 -94.5t-39 -95.5t-94 -40t-95 40t-40 95.5zM461 583.5q0 -151.5 22.5 -194.5t120.5 -43q94 0 120 46t26 196q0 154 -24 193.5t-122 39.5q-90 0 -116.5 -43t-26.5 -194.5zM731 1435.5q0 55.5 40 94.5t95.5 39t94 -39t38.5 -94.5t-38.5 -95.5t-94 -40t-95.5 40t-40 95.5z " />
<glyph horiz-adv-x="1216" d="M68 573q0 184 34.5 305t109.5 185.5t167 89.5t229 25q201 0 303 -41l23 32h176l-82 -112q123 -133 123 -469q0 -184 -35 -304t-109.5 -183.5t-166.5 -87t-232 -23.5q-217 0 -323 53l-31 -43h-176l96 133q-106 131 -106 440zM465 528l211 289q-18 4 -68 4 q-90 0 -116.5 -42.5t-26.5 -194.5v-56zM518 360q29 -14 90 -14q94 0 120 46t26 196q0 66 -2 92z" />
<glyph horiz-adv-x="1210" d="M90 532v635h399v-635q0 -113 33 -149.5t98.5 -36.5t93 38t27.5 148v635h400v-635q0 -154 -36 -261t-101.5 -163.5t-137 -83t-164.5 -32.5q-70 -49 -73.5 -100.5t32 -79t74.5 -21.5v-184q-72 -25 -147.5 9t-116.5 96.5t-23.5 142t109.5 137.5q-84 2 -146.5 15t-126 48 t-104.5 93.5t-65.5 155.5t-24.5 228z" />
<glyph horiz-adv-x="1210" d="M90 532v635h399v-635q0 -113 33 -149.5t98.5 -36.5t93 38t27.5 148v635h400v-635q0 -137 -32 -238t-79 -158.5t-119.5 -91.5t-139 -44t-150.5 -10q-96 0 -164 9t-142.5 41t-119.5 89t-75 159.5t-30 243.5zM504 1290l158 293h296l-231 -293h-223z" />
<glyph horiz-adv-x="1210" d="M90 532v635h399v-635q0 -113 33 -149.5t98.5 -36.5t93 38t27.5 148v635h400v-635q0 -137 -32 -238t-79 -158.5t-119.5 -91.5t-139 -44t-150.5 -10q-96 0 -164 9t-142.5 41t-119.5 89t-75 159.5t-30 243.5zM287 1290l205 287h266l188 -287h-229l-99 105l-102 -105h-229z " />
<glyph horiz-adv-x="1210" d="M90 532v635h399v-635q0 -113 33 -149.5t98.5 -36.5t93 38t27.5 148v635h400v-635q0 -137 -32 -238t-79 -158.5t-119.5 -91.5t-139 -44t-150.5 -10q-96 0 -164 9t-142.5 41t-119.5 89t-75 159.5t-30 243.5zM221 1425.5q0 55.5 40 94.5t95.5 39t93 -39t37.5 -94.5 t-37.5 -95.5t-93 -40t-95.5 40t-40 95.5zM741 1425.5q0 55.5 40 94.5t95.5 39t95.5 -39t40 -94.5t-40 -95.5t-95.5 -40t-95.5 40t-40 95.5z" />
<glyph horiz-adv-x="1210" d="M90 532v635h399v-635q0 -113 33 -149.5t98.5 -36.5t93 38t27.5 148v635h400v-635q0 -137 -32 -238t-79 -158.5t-119.5 -91.5t-139 -44t-150.5 -10q-96 0 -164 9t-142.5 41t-119.5 89t-75 159.5t-30 243.5zM258 1427q109 152 254 152q45 0 110.5 -36t106.5 -36 q104 -6 189 82l53 -151q-98 -147 -230 -148q-43 0 -119.5 36t-117.5 36q-98 0 -189 -72z" />
<glyph horiz-adv-x="1210" d="M90 532v635h399v-635q0 -113 33 -149.5t98.5 -36.5t93 38t27.5 148v635h400v-635q0 -137 -32 -238t-79 -158.5t-119.5 -91.5t-139 -44t-150.5 -10q-96 0 -164 9t-142.5 41t-119.5 89t-75 159.5t-30 243.5zM315 1290v191h598v-191h-598z" />
<glyph horiz-adv-x="2123" d="M43 745q0 -162 71.5 -250.5t252.5 -88.5h204q53 0 54 -41v-29q0 -16 -2 -23.5t-14.5 -12.5t-37.5 -5l-483 14v-276q80 -53 627 -53q150 0 228.5 78.5t78.5 265.5v61q0 164 -64.5 260t-242.5 96h-226q-49 0 -49 45v25q0 49 49 49q104 0 223 -4t187 -9l68 -5v280 q-270 51 -580 52q-344 0 -344 -353v-76zM1096 741v80q0 352 344 353q309 0 579 -52v-280q-244 18 -477 18q-49 0 -49 -49v-25q0 -45 49 -45h225q178 0 243 -96t65 -260v-61q0 -186 -79 -265t-229 -79q-547 0 -626 53v276q270 -14 483 -14q35 0 44 9t9 32v29q0 41 -53 41 h-205q-180 0 -251.5 87t-71.5 248z" />
<glyph horiz-adv-x="1269" d="M41 0l354 1167h500l336 -1167h-412l-45 178h-272l-49 -178h-412zM303 1583h295l160 -293h-226zM580 473h120l-57 232z" />
<glyph horiz-adv-x="1044" d="M63 604q0 299 104.5 439.5t375.5 140.5q172 0 264 -12.5t199 -59.5v-264q-205 41 -340 41q-45 0 -77 -6t-54.5 -13.5t-37 -31t-21.5 -37t-11 -54t-4 -61.5v-82q0 -16 -1 -60t0 -60.5t4 -51.5t11 -49t22.5 -36.5t37 -33t55.5 -18.5t76 -8l340 39v-260 q-102 -53 -182.5 -63.5t-280.5 -10.5q-125 0 -213 30.5t-139.5 80t-80 132t-38 165.5t-9.5 204zM344 -201l76 31q43 18 50 32.5t7 74.5h240q0 -160 -54.5 -229.5t-193.5 -69.5h-125v161z" />
<glyph horiz-adv-x="1241" d="M23 518v152h112v501h588q135 -2 227 -47t138.5 -132t64.5 -184t18 -228q0 -121 -15 -215.5t-35.5 -154.5t-59.5 -102t-68.5 -62.5t-83 -32t-83 -12.5t-85.5 -1h-18h-588v518h-112zM532 336h134q37 0 60.5 18.5t32.5 57.5t12 74.5t3 93.5q0 141 -25.5 198.5t-82.5 57.5 h-134v-166h134v-152h-134v-182z" />
<glyph horiz-adv-x="1044" d="M92 252v651q0 258 295 266q418 0 608 -34v-299h-440q-43 0 -54.5 -13.5t-11.5 -54.5v-27l422 -16v-289l-422 -14v-25q0 -41 18.5 -53t55.5 -12h432v-299q-104 -25 -266 -34t-272 -6l-111 3q-254 6 -254 256zM248 1585h297l157 -293h-223z" />
<glyph horiz-adv-x="1044" d="M92 252v651q0 258 295 266q418 0 608 -34v-299h-440q-43 0 -54.5 -13.5t-11.5 -54.5v-27l422 -16v-289l-422 -14v-25q0 -41 18.5 -53t55.5 -12h432v-299q-104 -25 -266 -34t-272 -6l-111 3q-254 6 -254 256zM229 1292l205 287h268l187 -287h-227l-101 105l-102 -105h-230 z" />
<glyph horiz-adv-x="557" d="M-86 1583h299l156 -293h-222zM92 0v1167h397v-1167h-397z" />
<glyph horiz-adv-x="557" d="M-137 1425.5q0 55.5 40 94.5t95 39t94 -39t39 -94.5t-39 -95.5t-94 -40t-95 40t-40 95.5zM92 0v1167h397v-1167h-397zM385 1425.5q0 55.5 40 94.5t95 39t94 -39t39 -94.5t-39 -95.5t-94 -40t-95 40t-40 95.5z" />
<glyph horiz-adv-x="1230" d="M92 0v1169h391l285 -450v450h395v-1169h-389l-285 461v-461h-397zM270 1430q109 152 254 151q45 0 110.5 -36t106.5 -36q104 -6 189 82l53 -151q-98 -147 -229 -148q-43 0 -120 36t-118 36q-98 0 -188 -72z" />
<glyph horiz-adv-x="1208" d="M63 573q0 184 35 305t110 185.5t167 89.5t229 25q111 0 185.5 -11.5t148.5 -46.5t116 -98.5t67.5 -172t25.5 -261.5q0 -184 -35 -304t-109.5 -183.5t-167 -87t-231.5 -23.5q-137 0 -226 20.5t-166 80t-113 178t-36 304.5zM262 1593h295l160 -293h-225zM461 583.5 q0 -151.5 22.5 -194.5t120.5 -43q94 0 120 46t26 196q0 154 -24 193.5t-122 39.5q-90 0 -116.5 -43t-26.5 -194.5z" />
<glyph horiz-adv-x="1208" d="M63 573q0 184 35 305t110 185.5t167 89.5t229 25q111 0 185.5 -11.5t148.5 -46.5t116 -98.5t67.5 -172t25.5 -261.5q0 -184 -35 -304t-109.5 -183.5t-167 -87t-231.5 -23.5q-137 0 -226 20.5t-166 80t-113 178t-36 304.5zM461 583.5q0 -151.5 22.5 -194.5t120.5 -43 q94 0 120 46t26 196q0 154 -24 193.5t-122 39.5q-90 0 -116.5 -43t-26.5 -194.5zM492 1300l159 293h295l-229 -293h-225z" />
<glyph horiz-adv-x="1210" d="M90 532v635h399v-635q0 -113 33 -149.5t98.5 -36.5t93 38t27.5 148v635h400v-635q0 -137 -32 -238t-79 -158.5t-119.5 -91.5t-139 -44t-150.5 -10q-96 0 -164 9t-142.5 41t-119.5 89t-75 159.5t-30 243.5zM272 1583h297l158 -293h-223z" />
<glyph horiz-adv-x="1259" d="M41 1167h432l162 -331l153 331h433l-390 -757v-412h-397v412zM520 1290l156 293h299l-234 -293h-221z" />
<glyph horiz-adv-x="1095" d="M86 0v1165h395v-190h160q59 0 106.5 -6t101.5 -28.5t90 -61.5t59.5 -109t23.5 -164q0 -403 -299 -403q-123 0 -242 33v-236h-395zM481 526h76q45 0 56.5 11.5t11.5 56.5q0 41 -13.5 53t-54.5 12h-76v-133z" />
<glyph horiz-adv-x="497" d="M90 53v234q0 55 51 55h228q49 0 49 -55v-328q0 -76 -33 -124t-80 -63.5t-93 -19.5t-79 2l-33 6v148q63 0 64 63v31h-23q-51 0 -51 51z" />
<glyph horiz-adv-x="884" d="M82 653v328q0 189 196 206q65 6 123 -7v-148q-66 0 -65 -63v-31h24q49 0 50 -51v-234q0 -55 -50 -55h-229q-49 0 -49 55zM475 653v328q0 189 194 206q64 6 122 -7v-148q-61 0 -62 -63v-31h21q53 0 53 -51v-234q0 -55 -53 -55h-226q-49 0 -49 55z" />
<glyph horiz-adv-x="884" d="M82 899v234q0 55 53 55h225q49 0 50 -55v-328q0 -189 -195 -206q-64 -6 -121 7v148q61 0 62 63v31h-21q-53 0 -53 51zM475 899v234q0 55 49 55h230q49 0 49 -55v-328q0 -189 -197 -206q-65 -6 -123 7v148q66 0 66 63v31h-25q-49 0 -49 51z" />
<glyph horiz-adv-x="884" d="M82 53v234q0 55 53 55h225q49 0 50 -55v-328q0 -189 -195 -206q-64 -6 -121 7v148q61 0 62 63v31h-21q-53 0 -53 51zM475 53v234q0 55 49 55h230q49 0 49 -55v-328q0 -189 -197 -206q-65 -6 -123 7v148q66 0 66 63v31h-25q-49 0 -49 51z" />
<glyph horiz-adv-x="565" d="M94 0l39 764h297l39 -764h-375zM119 881v239q0 47 47 47h233q49 0 50 -47v-239q0 -51 -50 -52h-233q-47 1 -47 52z" />
<glyph horiz-adv-x="851" d="M51 811q0 219 81 299t292 80t293 -83t82 -296q0 -203 -81 -280.5t-294 -77.5q-209 0 -291 80.5t-82 277.5zM82 242v159h686v-159h-686zM350 813q0 -92 12.5 -115.5t61.5 -23.5q53 0 64.5 21.5t11.5 117.5q0 104 -10.5 130t-65.5 26q-53 0 -63.5 -27t-10.5 -129z" />
<glyph horiz-adv-x="845" d="M70 471l217 696h350l178 -696h-272l-25 111h-135l-27 -111h-286zM76 244v159h735v-159h-735zM428 764h61l-28 145z" />
<glyph horiz-adv-x="1069" d="M18 397v158l99 10v39l-99 12v152l99 14q0 47 5 87t29.5 101.5t68.5 104.5t130 75t203 32q213 0 473 -47v-291q-240 23 -371 22h-47q-10 0 -35.5 -4t-33 -12t-15.5 -24.5t-8 -43.5l338 -12v-156l-338 -10v-39l338 -10v-158q-23 0 -57.5 -1t-109.5 -3t-124 -4t-47 -4 q0 -14 4 -26.5t8 -20.5t15.5 -13.5t18.5 -8.5t22.5 -4t22.5 -1h25h23q66 0 160 6.5t156 13.5l61 7v-291q-115 -57 -479 -57q-70 0 -123 6t-115.5 29.5t-102.5 64.5t-67.5 116t-27.5 179z" />
<glyph horiz-adv-x="1009" d="M57 299v868h398v-673q0 -51 9 -80t35.5 -41.5t47 -14.5t67.5 -2h349v-356h-607q-131 0 -215 73.5t-84 225.5zM543 1118v137h233v-137l-20 -274h-191z" />
<glyph horiz-adv-x="1103" d="M63 745v76q0 352 345 353q373 0 579 -52v-280q-244 18 -477 18q-49 0 -49 -49v-25q0 -45 49 -45h225q178 0 242.5 -96t64.5 -260v-61q0 -186 -78.5 -265t-228.5 -79q-547 0 -626 53v276q270 -14 483 -14q23 0 36 10t15 21l2 10v29q0 41 -53 41h-205q-180 0 -252 88.5 t-72 250.5zM453 1296l157 293h297l-231 -293h-223z" />
<glyph horiz-adv-x="1103" d="M63 745v76q0 352 345 353q373 0 579 -52v-280q-244 18 -477 18q-49 0 -49 -49v-25q0 -45 49 -45h225q178 0 242.5 -96t64.5 -260v-61q0 -186 -78.5 -265t-228.5 -79q-547 0 -626 53v276q270 -14 483 -14q23 0 36 10t15 21l2 10v29q0 41 -53 41h-205q-180 0 -252 88.5 t-72 250.5zM352 -219l76 31q43 18 50 32.5t7 73.5h240q0 -160 -54.5 -229.5t-193.5 -69.5h-125v162z" />
<glyph horiz-adv-x="1179" d="M115 811v356h995v-356h-299v-811h-397v811h-299zM295 1579h227l101 -104l102 104h229l-204 -287h-269z" />
<glyph horiz-adv-x="1034" d="M41 0v356l446 455h-446v356h954v-356l-417 -455h417v-356h-954zM406 1290l159 293h295l-229 -293h-225z" />
<glyph horiz-adv-x="1034" d="M41 0v356l446 455h-446v356h954v-356l-417 -455h417v-356h-954zM377 1337v193q0 51 49 51h184q49 0 49 -51v-193q0 -47 -49 -47h-184q-49 0 -49 47z" />
<glyph horiz-adv-x="1134" d="M70 0v1165h555q199 0 306 -86t107 -307q0 -289 -131 -369l189 -403h-418l-133 373l-78 8v-381h-397zM467 629h108q35 0 50.5 24.5t15.5 81.5q0 43 -3 62.5t-17.5 36t-45.5 16.5h-108v-221zM471 1288l158 293h297l-232 -293h-223z" />
<glyph horiz-adv-x="1269" d="M41 0l354 1167h500l336 -1167h-412l-45 178h-272l-49 -178h-412zM410 1524h137q0 -96 96 -97q100 0 100 97h138q0 -104 -64.5 -169t-173.5 -65q-106 0 -169.5 65t-63.5 169zM580 473h120l-57 232z" />
<glyph horiz-adv-x="1036" d="M92 299v868h397v-673q0 -51 9.5 -80t36 -41.5t47 -14.5t67.5 -2h348v-356h-606q-131 0 -215 73.5t-84 225.5zM156 1290l159 293h295l-229 -293h-225z" />
<glyph horiz-adv-x="1044" d="M63 604q0 299 104.5 439.5t375.5 140.5q172 0 264 -12.5t199 -59.5v-264q-205 41 -340 41q-45 0 -77 -6t-54.5 -13.5t-37 -31t-21.5 -37t-11 -54t-4 -61.5v-82q0 -16 -1 -60t0 -60.5t4 -51.5t11 -49t22.5 -36.5t37 -33t55.5 -18.5t76 -8l340 39v-260 q-102 -53 -182.5 -63.5t-280.5 -10.5q-125 0 -213 30.5t-139.5 80t-80 132t-38 165.5t-9.5 204zM430 1317l160 293h295l-230 -293h-225z" />
<glyph horiz-adv-x="1044" d="M92 252v651q0 258 295 266q418 0 608 -34v-299h-440q-43 0 -54.5 -13.5t-11.5 -54.5v-27l422 -16v-289l-422 -14v-25q0 -41 18.5 -53t55.5 -12h432v-299q-104 -25 -266 -34t-272 -6l-111 3q-254 6 -254 256zM240 1579h227l100 -104l103 104h229l-205 -287h-268z" />
<glyph horiz-adv-x="1191" d="M113 0v1171h587q135 -2 227.5 -47t138.5 -132t64.5 -184t18.5 -228q0 -121 -15.5 -215.5t-36 -154.5t-59.5 -102t-68.5 -62.5t-82.5 -32t-83 -12.5t-85 -1h-19h-587zM285 1579h227l100 -104l103 104h229l-205 -287h-268zM510 336h133q37 0 60.5 18.5t32.5 57.5t12.5 74.5 t3.5 93.5q0 141 -26 198.5t-83 57.5h-133v-500z" />
<glyph horiz-adv-x="1230" d="M92 0v1169h391l285 -450v450h395v-1169h-389l-285 461v-461h-397zM516 1292l158 293h297l-232 -293h-223z" />
<glyph horiz-adv-x="1230" d="M92 0v1169h391l285 -450v450h395v-1169h-389l-285 461v-461h-397zM299 1579h225l103 -104l102 104h229l-204 -287h-271z" />
<glyph horiz-adv-x="1208" d="M63 573q0 184 35 305t110 185.5t167 89.5t229 25q111 0 185.5 -11.5t148.5 -46.5t116 -98.5t67.5 -172t25.5 -261.5q0 -184 -35 -304t-109.5 -183.5t-167 -87t-231.5 -23.5q-137 0 -226 20.5t-166 80t-113 178t-36 304.5zM315 1300l158 293h297l-231 -293h-224z M461 583.5q0 -151.5 22.5 -194.5t120.5 -43q94 0 120 46t26 196q0 154 -24 193.5t-122 39.5q-90 0 -116.5 -43t-26.5 -194.5zM670 1300l157 293h297l-231 -293h-223z" />
<glyph horiz-adv-x="1134" d="M70 0v1165h555q199 0 306 -86t107 -307q0 -289 -131 -369l189 -403h-418l-133 373l-78 8v-381h-397zM233 1575h226l102 -105l103 105h229l-205 -287h-270zM467 629h108q35 0 50.5 24.5t15.5 81.5q0 43 -3 62.5t-17.5 36t-45.5 16.5h-108v-221z" />
<glyph horiz-adv-x="1210" d="M90 532v635h399v-635q0 -113 33 -149.5t98.5 -36.5t93 38t27.5 148v635h400v-635q0 -137 -32 -238t-79 -158.5t-119.5 -91.5t-139 -44t-150.5 -10q-96 0 -164 9t-142.5 41t-119.5 89t-75 159.5t-30 243.5zM408 1499q0 88 61 149.5t147 61.5t146.5 -61.5t60.5 -149.5 t-60.5 -148.5t-146.5 -60.5t-147 60.5t-61 148.5zM547 1499q0 -29 20.5 -48t49 -19t48 19t19.5 48t-19.5 49.5t-48 20.5t-49 -20.5t-20.5 -49.5z" />
<glyph horiz-adv-x="1210" d="M90 532v635h399v-635q0 -113 33 -149.5t98.5 -36.5t93 38t27.5 148v635h400v-635q0 -137 -32 -238t-79 -158.5t-119.5 -91.5t-139 -44t-150.5 -10q-96 0 -164 9t-142.5 41t-119.5 89t-75 159.5t-30 243.5zM328 1290l155 293h299l-233 -293h-221zM680 1290l160 293h295 l-230 -293h-225z" />
<glyph horiz-adv-x="1075" d="M41 811v356h995v-356h-299v-811h-397v811h-299zM289 -233l76 30q43 18 50 32.5t7 74.5h240q0 -160 -54.5 -229.5t-193.5 -69.5h-125v162z" />
<glyph horiz-adv-x="1064" d="M23 442v166l116 47v512h398v-350l157 66v-166l-157 -66v-157q0 -51 9 -80t35.5 -41.5t47 -14.5t67.5 -2h348v-356h-606q-131 0 -215 73.5t-84 225.5v190z" />
<glyph horiz-adv-x="1007" d="M66 371v43q0 174 99 259t273 52v49h279v-307h-197q-41 0 -49 -6t-8 -37v-12q0 -10 1 -18.5t6 -12.5t8 -7t12.5 -4t14.5 -1h19h21h422v-324q-254 -55 -504 -43q-199 0 -298 82t-99 287zM414 891v239q0 47 53 48h229q49 0 49 -48v-239q0 -51 -49 -51h-229q-53 0 -53 51z " />
<glyph horiz-adv-x="1675" d="M45 573q0 184 35 305t109.5 185.5t167 89.5t229.5 25q190 0 286 -35q66 27 156 26q416 0 606 -34v-299h-438q-43 0 -54.5 -13.5t-11.5 -54.5v-27l422 -16v-289l-422 -14v-25q0 -41 18.5 -53t55.5 -12h430v-299q-231 -53 -647 -37q-82 4 -133 29q-106 -35 -268 -35 q-137 0 -226.5 20.5t-166 80t-112.5 178t-36 304.5zM442 583.5q0 -151.5 22.5 -194.5t121.5 -43q94 0 120.5 46t26.5 196q0 154 -24.5 193.5t-122.5 39.5q-90 0 -117 -43t-27 -194.5z" />
<glyph horiz-adv-x="1259" d="M41 1167h432l162 -331l153 331h433l-390 -757v-412h-397v412zM236 1425.5q0 55.5 39.5 94.5t95 39t94.5 -39t39 -94.5t-39 -95.5t-94.5 -40t-95 40t-39.5 95.5zM758 1425.5q0 55.5 40 94.5t95 39t94 -39t39 -94.5t-39 -95.5t-94 -40t-95 40t-40 95.5z" />
<glyph horiz-adv-x="1048" d="M57 0v283l115 41v127h-115v206l117 33v49q0 428 422 430l397 -26v-326h-334q-59 0 -74.5 -15.5t-15.5 -66.5v-37l297 -30v-222h-297v-112h422v-334h-934z" />
<glyph horiz-adv-x="1146" d="M23 1169h417l129 -395l133 395h422l-288 -641h133v-139h-197v-43h197v-139h-197v-207h-397v207h-180v139h180v43h-180v139h112z" />
<glyph horiz-adv-x="2961" d="M33 659v232q0 135 67.5 205.5t216.5 70.5h207q281 0 281 -276v-232q0 -135 -67.5 -205.5t-217.5 -70.5h-207q-280 0 -280 276zM289 721q0 -41 14 -61.5t62 -20.5h104q47 0 63.5 21.5t16.5 60.5v108q0 49 -17.5 65.5t-58.5 16.5h-104q-39 0 -59.5 -16t-20.5 -66v-108z M643 0l528 1167h256l-516 -1167h-268zM1270 283v231q0 276 286 277h205q281 0 281 -277v-231q0 -135 -67.5 -206t-217.5 -71h-205q-282 1 -282 277zM1526 344q0 -41 14 -61.5t62 -20.5h106q47 0 62.5 20.5t15.5 61.5v109q0 49 -16.5 65.5t-57.5 16.5h-106q-39 0 -59.5 -16.5 t-20.5 -65.5v-109zM2146 283v231q0 135 66.5 206t216.5 71h209q279 0 278 -277v-231q0 -135 -66.5 -206t-215.5 -71h-209q-279 1 -279 277zM2400 344q0 -39 15.5 -60.5t62.5 -21.5h102q82 0 82 82v109q0 49 -18 65.5t-59 16.5h-103q-39 0 -60.5 -17.5t-21.5 -64.5v-109z" />
<glyph horiz-adv-x="774" d="M57 1087l205 287h268l187 -287h-228l-100 105l-102 -105h-230z" />
<glyph horiz-adv-x="827" d="M57 1225q104 152 252 151q47 0 112.5 -35.5t104.5 -35.5q106 -6 191 81l53 -151q-98 -147 -229 -148q-45 0 -122 36t-116 36q-98 0 -190 -72z" />
<glyph horiz-adv-x="530" d="M57 1294q0 88 61.5 149.5t147.5 61.5t146.5 -61.5t60.5 -149.5t-60.5 -148.5t-146.5 -60.5t-147.5 60.5t-61.5 148.5zM197 1294.5q0 -28.5 20.5 -48t49 -19.5t48 19.5t19.5 48t-19.5 49t-48 20.5t-49 -20.5t-20.5 -49z" />
<glyph horiz-adv-x="1347" d="M57 838v145h113v184h397v-184h228v184h397v-184h98v-145h-98v-840h-397v387h-228v-387h-397v840h-113zM567 741h228v97h-228v-97z" />
<glyph horiz-adv-x="1181" d="M92 -2v1169h397v-426h228v426h397v-1169h-397v387h-228v-387h-397zM274 1290l205 287h266l189 -287h-229l-99 105l-102 -105h-230z" />
<glyph horiz-adv-x="1144" d="M63 566v20q0 297 87.5 442.5t308.5 157.5q401 25 596 -51v-271q-203 27 -391 27q-72 0 -102 -5t-58.5 -34t-35.5 -89.5t-7 -172.5q0 -12 -1 -55t0 -59.5t7 -49.5t18.5 -46t37 -26.5t59.5 -13.5q104 0 104 86v49h-78v203q113 31 338 31q63 0 137 -7v-702h-299l-92 90 q-35 -57 -86 -80.5t-168 -23.5q-381 0 -375 580zM379 1546h137q0 -96 96 -96q100 0 101 96h137q0 -104 -64.5 -168.5t-173.5 -64.5q-106 0 -169.5 64.5t-63.5 168.5z" />
<glyph horiz-adv-x="694" d="M41 43v315q70 0 111 8.5t57 33t18 41t2 61.5v665h398v-829q0 -250 -129 -307q-119 -47 -248 -41t-209 53zM98 1290l205 287h268l187 -287h-228l-100 105l-102 -105h-230z" />
<glyph horiz-adv-x="1044" d="M63 604q0 299 104.5 439.5t375.5 140.5q172 0 264 -12.5t199 -59.5v-264q-205 41 -340 41q-45 0 -77 -6t-54.5 -13.5t-37 -31t-21.5 -37t-11 -54t-4 -61.5v-82q0 -16 -1 -60t0 -60.5t4 -51.5t11 -49t22.5 -36.5t37 -33t55.5 -18.5t76 -8l340 39v-260 q-102 -53 -182.5 -63.5t-280.5 -10.5q-125 0 -213 30.5t-139.5 80t-80 132t-38 165.5t-9.5 204zM459 1364v192q0 51 49 52h184q47 0 47 -52v-192q0 -47 -47 -47h-184q-49 0 -49 47z" />
<glyph horiz-adv-x="1044" d="M63 604q0 299 104.5 439.5t375.5 140.5q172 0 264 -12.5t199 -59.5v-264q-205 41 -340 41q-45 0 -77 -6t-54.5 -13.5t-37 -31t-21.5 -37t-11 -54t-4 -61.5v-82q0 -16 -1 -60t0 -60.5t4 -51.5t11 -49t22.5 -36.5t37 -33t55.5 -18.5t76 -8l340 39v-260 q-102 -53 -182.5 -63.5t-280.5 -10.5q-125 0 -213 30.5t-139.5 80t-80 132t-38 165.5t-9.5 204zM246 1317l205 287h268l186 -287h-227l-100 104l-103 -104h-229z" />
<glyph horiz-adv-x="1144" d="M63 566v20q0 297 87.5 442.5t308.5 157.5q401 25 596 -51v-271q-203 27 -391 27q-72 0 -102 -5t-58.5 -34t-35.5 -89.5t-7 -172.5q0 -12 -1 -55t0 -59.5t7 -49.5t18.5 -46t37 -26.5t59.5 -13.5q104 0 104 86v49h-78v203q113 31 338 31q63 0 137 -7v-702h-299l-92 90 q-35 -57 -86 -80.5t-168 -23.5q-381 0 -375 580zM446 1360v192q0 51 50 52h184q47 0 47 -52v-192q0 -47 -47 -47h-184q-50 0 -50 47z" />
<glyph horiz-adv-x="1144" d="M63 566v20q0 297 87.5 442.5t308.5 157.5q401 25 596 -51v-271q-203 27 -391 27q-72 0 -102 -5t-58.5 -34t-35.5 -89.5t-7 -172.5q0 -12 -1 -55t0 -59.5t7 -49.5t18.5 -46t37 -26.5t59.5 -13.5q104 0 104 86v49h-78v203q113 31 338 31q63 0 137 -7v-702h-299l-92 90 q-35 -57 -86 -80.5t-168 -23.5q-381 0 -375 580zM268 1313l205 286h268l187 -286h-228l-100 104l-102 -104h-230z" />
<glyph horiz-adv-x="1210" d="M90 532v635h399v-635q0 -113 33 -149.5t98.5 -36.5t93 38t27.5 148v635h400v-635q0 -137 -32 -238t-79 -158.5t-119.5 -91.5t-139 -44t-150.5 -10q-96 0 -164 9t-142.5 41t-119.5 89t-75 159.5t-30 243.5zM381 1524h135q0 -96 98.5 -96.5t98.5 96.5h139 q0 -104 -65.5 -169t-172 -65t-170 65t-63.5 169z" />
<glyph horiz-adv-x="1103" d="M63 745v76q0 352 345 353q373 0 579 -52v-280q-244 18 -477 18q-49 0 -49 -49v-25q0 -45 49 -45h225q178 0 242.5 -96t64.5 -260v-61q0 -186 -78.5 -265t-228.5 -79q-547 0 -626 53v276q270 -14 483 -14q23 0 36 10t15 21l2 10v29q0 41 -53 41h-205q-180 0 -252 88.5 t-72 250.5zM227 1296l205 287h268l187 -287h-228l-100 105l-102 -105h-230z" />
<glyph horiz-adv-x="514" d="M59 0v1167h398v-1167h-398zM121 1339v193q0 51 49 51h184q47 0 47 -51v-193q0 -47 -47 -47h-184q-49 0 -49 47z" />
<glyph horiz-adv-x="526" d="M102 477v240q0 51 50 51h231q51 0 51 -51v-240q0 -47 -51 -47h-231q-50 0 -50 47z" />
<glyph horiz-adv-x="628" d="M98 504v307q0 72 68 72h295q72 0 71 -72v-307q0 -66 -71 -66h-295q-68 0 -68 66z" />
<glyph horiz-adv-x="509" d="M90 653v328q0 76 33 124t80 63.5t93 19.5t79 -2l33 -6v-148q-63 0 -64 -63v-31h23q51 0 51 -51v-234q0 -55 -51 -55h-228q-49 0 -49 55z" />
<glyph horiz-adv-x="509" d="M90 899v234q0 55 51 55h228q49 0 49 -55v-328q0 -76 -33 -124t-80 -63.5t-93 -19.5t-79 2l-33 6v148q63 0 64 63v31h-23q-51 0 -51 51z" />
<glyph horiz-adv-x="1126" d="M92 0v1169h561q207 0 312.5 -68.5t105.5 -244.5q0 -127 -54 -193.5t-134 -66.5q82 -10 138 -77.5t56 -186.5q0 -197 -104.5 -264.5t-319.5 -67.5h-561zM442 1339v193q0 51 50 51h184q47 0 47 -51v-193q0 -47 -47 -47h-184q-50 0 -50 47zM489 317h123q31 0 46.5 15.5 t15.5 66.5q0 78 -62 78h-123v-160zM489 731h123q61 0 62 64q0 59 -62 59h-123v-123z" />
<glyph horiz-adv-x="1189" d="M92 0v1171h588q135 -2 227 -47t138.5 -132t64.5 -184t18 -228q0 -121 -15 -215.5t-35.5 -154.5t-59.5 -102t-68.5 -62.5t-83 -32t-83 -12.5t-85.5 -1h-18h-588zM446 1341v193q0 51 50 51h184q47 0 47 -51v-193q0 -47 -47 -47h-184q-50 0 -50 47zM489 336h134 q37 0 60.5 18.5t32.5 57.5t12 74.5t3 93.5q0 141 -25.5 198.5t-82.5 57.5h-134v-500z" />
<glyph horiz-adv-x="1044" d="M92 0v903q0 260 295 266q418 0 608 -34v-299h-440q-43 0 -54.5 -13.5t-11.5 -54.5v-68l422 -16v-289l-422 -14v-381h-397zM406 1339v193q0 51 49 51h184q47 0 47 -51v-193q0 -47 -47 -47h-184q-49 0 -49 47z" />
<glyph horiz-adv-x="1619" d="M63 0l109 1169h522l119 -639l117 639h522l107 -1169h-392l-61 600l-80 -600h-420l-86 596l-53 -596h-404zM645 1339v193q0 51 49 51h185q47 0 47 -51v-193q0 -47 -47 -47h-185q-49 0 -49 47z" />
<glyph horiz-adv-x="1738" d="M41 1167h412l129 -704l114 704h412l-64 -270l132 -434l114 704h412l-275 -1167h-499l-47 203l-47 -203h-500zM514 1583h297l158 -293h-224z" />
<glyph horiz-adv-x="1087" d="M70 0v1165h575q195 0 294 -85t99 -308q0 -109 -24.5 -188.5t-59 -121.5t-88 -67.5t-92.5 -32t-88 -8.5q-53 -2 -133 7.5t-86 19.5v-381h-397zM412 1335v193q0 51 49 51h184q47 0 47 -51v-193q0 -47 -47 -47h-184q-49 0 -49 47zM467 629h108q35 0 50.5 24.5t15.5 81.5 q0 43 -3 62.5t-17.5 36t-45.5 16.5h-108v-221z" />
<glyph horiz-adv-x="1738" d="M41 1167h412l129 -704l114 704h412l-64 -270l132 -434l114 704h412l-275 -1167h-499l-47 203l-47 -203h-500zM745 1290l158 293h297l-231 -293h-224z" />
<glyph horiz-adv-x="1259" d="M41 1167h432l162 -331l153 331h433l-390 -757v-412h-397v412zM268 1583h297l158 -293h-223z" />
<glyph horiz-adv-x="1738" d="M41 1167h412l129 -704l114 704h412l-64 -270l132 -434l114 704h412l-275 -1167h-499l-47 203l-47 -203h-500zM465 1425.5q0 55.5 40 94.5t95 39t94 -39t39 -94.5t-39 -95.5t-94 -40t-95 40t-40 95.5zM987 1425.5q0 55.5 40 94.5t95.5 39t94 -39t38.5 -94.5t-38.5 -95.5 t-94 -40t-95.5 40t-40 95.5z" />
<glyph horiz-adv-x="1103" d="M63 745v76q0 352 345 353q373 0 579 -52v-280q-244 18 -477 18q-49 0 -49 -49v-25q0 -45 49 -45h225q178 0 242.5 -96t64.5 -260v-61q0 -186 -78.5 -265t-228.5 -79q-547 0 -626 53v276q270 -14 483 -14q23 0 36 10t15 21l2 10v29q0 41 -53 41h-205q-180 0 -252 88.5 t-72 250.5zM438 1343v193q0 51 49 51h185q47 0 47 -51v-193q0 -47 -47 -47h-185q-49 0 -49 47z" />
<glyph horiz-adv-x="1738" d="M41 1167h412l129 -704l114 704h412l-64 -270l132 -434l114 704h412l-275 -1167h-499l-47 203l-47 -203h-500zM561 1290l205 287h268l187 -287h-228l-100 105l-102 -105h-230z" />
<glyph horiz-adv-x="1075" d="M41 811v356h995v-356h-299v-811h-397v811h-299zM397 1337v193q0 51 49 51h185q47 0 47 -51v-193q0 -47 -47 -47h-185q-49 0 -49 47z" />
<glyph horiz-adv-x="1259" d="M41 1167h432l162 -331l153 331h433l-390 -757v-412h-397v412zM317 1290l205 287h269l186 -287h-227l-101 105l-102 -105h-230z" />
<glyph horiz-adv-x="2271" d="M45 551q0 301 95.5 427t265.5 126h44h54q18 0 60 -1t68.5 -4t69.5 -8.5t77 -13.5t76 -20.5t79 -26.5v-233q-125 12 -307 12q-66 0 -90.5 -3t-52 -27.5t-35 -78t-7.5 -153.5q0 -16 -1 -63.5t0 -57.5t4.5 -43t9.5 -40t18 -25.5t30.5 -22.5t45 -9t61.5 -5q182 0 475 211 v1110h398v-777q153 145 258 265l508 -3q-41 -43 -188.5 -195.5t-213.5 -221.5l402 -670h-459l-231 416q-49 -41 -76 -62v-354h-398v104q-250 -119 -475 -118q-154 0 -250 20.5t-171.5 79.5t-109.5 173t-34 292z" />
<glyph horiz-adv-x="1521" d="M92 0v1165q0 111 58.5 193t146.5 120t192.5 41t196.5 -30t157.5 -104.5t76.5 -170.5l88 -841q2 -18 14 -23.5t23.5 5t11.5 24.5v1120h397v-1161q0 -104 -57.5 -184t-145.5 -119t-191.5 -44t-194.5 25.5t-157.5 108.5t-76.5 188l-88 852q-3 26 -29 18q-23 -7 -22 -32 v-1151h-400z" />
<glyph horiz-adv-x="1855" d="M63 0l60 1229q6 106 86 178t190.5 87t220 -6.5t186.5 -103t77 -200.5v-488q0 -29 31.5 -26.5t31.5 26.5v496q0 84 42 150.5t108.5 101.5t148.5 53.5t164 7t150.5 -40t113.5 -84t49 -127.5l72 -1253h-401l-39 1020q-2 29 -31 18q-23 -8 -23 -30l-6 -455 q-6 -88 -83.5 -150.5t-183 -78t-212 -1t-183.5 78t-83 157.5l-8 471q0 26 -26 19t-28 -33l-28 -1016h-396z" />
<glyph horiz-adv-x="1855" d="M63 0l60 1229q6 106 86 178t190.5 87t220 -6.5t186.5 -103t77 -200.5v-488q0 -29 31.5 -26.5t31.5 26.5v496q0 84 42 150.5t108.5 101.5t148.5 53.5t164 7t150.5 -40t113.5 -84t49 -127.5l72 -1253h-401l-39 1020q-2 29 -31 18q-23 -8 -23 -30l-6 -455 q-6 -88 -83.5 -150.5t-183 -78t-212 -1t-183.5 78t-83 157.5l-8 471q0 26 -26 19t-28 -33l-28 -1016h-396zM758 1679v193q0 51 49 51h184q47 0 47 -51v-193q0 -47 -47 -47h-184q-49 0 -49 47z" />
<glyph horiz-adv-x="1521" d="M92 0v1165q0 111 58.5 193t146.5 120t192.5 41t196.5 -30t157.5 -104.5t76.5 -170.5l88 -841q2 -18 14 -23.5t23.5 5t11.5 24.5v1120h397v-1161q0 -104 -57.5 -184t-145.5 -119t-191.5 -44t-194.5 25.5t-157.5 108.5t-76.5 188l-88 852q-3 26 -29 18q-23 -7 -22 -32 v-1151h-400zM436 1778q104 152 252 151q45 0 110.5 -35.5t106.5 -35.5q106 -6 191 81l53 -151q-98 -147 -229 -148q-45 0 -122 36t-116 36q-98 0 -190 -72z" />
<glyph horiz-adv-x="1521" d="M92 0v1165q0 111 58.5 193t146.5 120t192.5 41t196.5 -30t157.5 -104.5t76.5 -170.5l88 -841q2 -18 14 -23.5t23.5 5t11.5 24.5v1120h397v-1161q0 -104 -57.5 -184t-145.5 -119t-191.5 -44t-194.5 25.5t-157.5 108.5t-76.5 188l-88 852q-3 26 -29 18q-23 -7 -22 -32 v-1151h-400zM612 1640l158 293h297l-231 -293h-224z" />
<glyph horiz-adv-x="1521" d="M92 0v1165q0 111 58.5 193t146.5 120t192.5 41t196.5 -30t157.5 -104.5t76.5 -170.5l88 -841q2 -18 14 -23.5t23.5 5t11.5 24.5v1120h397v-1161q0 -104 -57.5 -184t-145.5 -119t-191.5 -44t-194.5 25.5t-157.5 108.5t-76.5 188l-88 852q-3 26 -29 18q-23 -7 -22 -32 v-1151h-400zM473 1927h227l101 -104l102 104h230l-205 -287h-269z" />
<glyph horiz-adv-x="1521" d="M92 0v1165q0 111 58.5 193t146.5 120t192.5 41t196.5 -30t157.5 -104.5t76.5 -170.5l88 -841q2 -18 14 -23.5t23.5 5t11.5 24.5v1120h397v-1161q0 -104 -57.5 -184t-145.5 -119t-191.5 -44t-194.5 25.5t-157.5 108.5t-76.5 188l-88 852q-3 26 -29 18q-23 -7 -22 -32 v-1151h-400zM614 -211q0 49 48 49h204q43 0 43 -49v-276q0 -168 -189 -158q-52 3 -95 16v115q27 0 40 6t15 13.5t2 19.5v8h-20q-48 0 -48 45v211z" />
<glyph horiz-adv-x="946" d="M70 784v461q0 133 74.5 204t213.5 71h244q276 0 277 -263v-473q0 -123 -72 -192.5t-205 -69.5h-246q-143 0 -214.5 68.5t-71.5 193.5zM369 862q0 -72 77 -71h58q41 0 58.5 12t17.5 57v322q0 70 -66 69h-78q-16 0 -28.5 -3t-19.5 -8t-12 -10t-6 -13.5t-1 -13.5v-13v-8 v-320z" />
<glyph horiz-adv-x="552" d="M18 1243v164l166 113h295v-998h-299v748z" />
<glyph horiz-adv-x="854" d="M35 1266v223q201 45 440 45q164 0 248 -85t84 -228q0 -184 -322 -430h322v-269h-764v258q123 72 294 209t171 199q0 49 -35 63.5t-127 14.5h-311z" />
<glyph horiz-adv-x="854" d="M35 1257v224q137 51 477 43q123 -2 198.5 -68.5t75.5 -185.5v-53q0 -156 -129 -199q129 -35 129 -211v-39q0 -123 -74.5 -189.5t-209.5 -66.5h-49h-51h-48q-37 0 -50 1t-45 3t-47 4t-43 5t-46.5 7.5t-40 10.5t-39.5 12l2 225h305q88 0 112.5 6.5t24.5 38.5v9 q0 31 -27.5 39t-101.5 10l-229 10v242l229 16q47 0 64.5 1t38 6t26 14.5t5.5 25.5v10q0 33 -32 41t-102 8h-323z" />
<glyph horiz-adv-x="917" d="M18 819l289 701h305l-215 -559h123v180l43 104h256v-284h82v-230l-82 -8v-197h-299v160h-454z" />
<glyph horiz-adv-x="856" d="M63 553v238h367q16 0 29.5 2t23 4t15.5 6t9 7t4 9t1 9v10v8v31q0 29 -14.5 42t-51.5 13h-61q-61 0 -61 -68h-258l30 656h668v-269h-408l-6 -98q72 45 211 31q125 -10 187.5 -83t62.5 -190v-131q0 -133 -87 -198.5t-206 -65.5q-248 0 -455 37z" />
<glyph horiz-adv-x="897" d="M61 1049q0 444 256 479q199 33 496 -33v-227h-319q-47 0 -76 -9.5t-41 -32t-14.5 -41t-2.5 -55.5q59 33 211 33q158 0 218.5 -68.5t60.5 -195.5v-127q0 -250 -285 -250h-207q-98 0 -159.5 40t-99.5 159t-38 328zM360 911q0 -78 20.5 -99t88.5 -21h23q35 0 47 9t12 36v20 q0 35 -7 45t-44 10h-140z" />
<glyph horiz-adv-x="868" d="M16 1251v269h758l76 -119l-379 -879h-324l314 729h-445z" />
<glyph horiz-adv-x="946" d="M76 766v72q0 141 114 157q-41 18 -65.5 40t-34.5 52.5t-12 52t-2 62.5v88q0 238 293 238h231q137 0 204.5 -54.5t67.5 -179.5v-59q0 -27 -7 -55.5t-34.5 -61.5t-72.5 -39q115 -20 114 -196v-105q0 -154 -71.5 -205t-200.5 -51h-231q-82 0 -139.5 18.5t-87 42t-45 61.5 t-18.5 62.5t-3 59.5zM375 823q0 -27 14 -38t49 -11h72q41 0 52 12.5t11 36.5v43q0 25 -12 37t-49 12h-74q-39 0 -51 -12t-12 -37v-43zM375 1196q0 -29 13 -37t50 -8h72q41 0 52 9t11 36v31q0 33 -15 41t-48 8h-72q-35 0 -49 -8t-14 -41v-31z" />
<glyph horiz-adv-x="897" d="M51 1151v129q0 256 287 256h205q74 0 125 -22.5t91 -81t60.5 -167t20.5 -270.5q0 -256 -70 -363.5t-186 -125.5q-186 -31 -496 29v229h320q47 0 75.5 9t41 35t14.5 45t2 60q-59 -33 -209 -32q-158 0 -219.5 70.5t-61.5 199.5zM350 1196q0 -39 8.5 -50t44.5 -11h138 q0 86 -20.5 109.5t-88.5 23.5h-22q-35 0 -47.5 -10.5t-12.5 -40.5v-21z" />
<glyph horiz-adv-x="946" d="M70 262v461q0 133 74.5 203.5t213.5 70.5h244q276 0 277 -262v-473q0 -123 -72 -192.5t-205 -69.5h-246q-143 0 -214.5 68.5t-71.5 193.5zM369 340q0 -72 77 -72h58q41 0 58.5 12.5t17.5 57.5v321q0 70 -66 70h-78q-16 0 -28.5 -3t-19.5 -8t-12 -10.5t-6 -13.5t-1 -13 v-13v-9v-319z" />
<glyph horiz-adv-x="552" d="M18 723v164l166 110h295v-997h-299v750z" />
<glyph horiz-adv-x="854" d="M35 743v224q201 45 440 45q164 0 248 -85t84 -229q0 -184 -322 -430h322v-268h-764v260q125 78 295 220.5t170 205.5q0 37 -35 47t-127 10h-311z" />
<glyph horiz-adv-x="854" d="M35 733v223q143 53 477 45q123 -2 198.5 -68.5t75.5 -184.5v-54q0 -156 -129 -198q129 -35 129 -211v-39q0 -123 -74.5 -189.5t-209.5 -66.5h-49h-51h-48q-37 0 -50 1t-45 3t-47 4t-43 5t-46.5 7t-40 10.5t-39.5 12.5l2 225h305q88 0 112.5 6t24.5 39v8q0 31 -27.5 39 t-101.5 10l-229 11v241l229 17q47 0 64.5 1t38 6t26 14t5.5 26v8q0 33 -32 41t-102 8h-323z" />
<glyph horiz-adv-x="917" d="M18 299l289 698h305l-215 -559h123v178l43 105h256v-283h82v-229l-82 -45v-160h-299v160h-454z" />
<glyph horiz-adv-x="856" d="M63 31v237h367q20 0 34.5 2t23 5.5t14.5 6.5t8 10t2 9v10v8v29q0 27 -14.5 39t-51.5 12h-61q-61 0 -61 -32h-258l30 630h668v-268h-408l-6 -108q68 47 211 30q125 -8 187.5 -80.5t62.5 -187.5v-129q0 -131 -86 -195.5t-207 -64.5q-248 0 -455 37z" />
<glyph horiz-adv-x="897" d="M61 524q0 442 256 477q186 31 496 -28v-228h-319q-47 0 -76 -9t-41 -31.5t-14.5 -41t-2.5 -55.5q59 33 211 33q158 0 218.5 -68.5t60.5 -195.5v-127q0 -250 -285 -250h-207q-98 0 -159.5 40t-99.5 158.5t-38 325.5zM360 389q0 -78 20.5 -99.5t88.5 -21.5h23q35 0 47 9.5 t12 35.5v21q0 35 -7 45t-44 10h-140z" />
<glyph horiz-adv-x="868" d="M16 729v268h758l76 -120l-379 -877h-326l316 729h-445z" />
<glyph horiz-adv-x="946" d="M76 244v71q0 143 114 160q-41 18 -65.5 40t-34.5 52.5t-12 51t-2 61.5v88q0 238 293 238h231q137 0 204.5 -54.5t67.5 -179.5v-59q0 -27 -7 -55.5t-34.5 -60.5t-72.5 -38q115 -20 114 -197v-106q0 -154 -71.5 -205t-200.5 -51h-231q-82 0 -139.5 18.5t-87 42t-45 61.5 t-18.5 62.5t-3 59.5zM375 301q0 -27 14 -38t49 -11h72q41 0 52 12t11 37v43q0 25 -12 37t-49 12h-74q-39 0 -51 -12t-12 -37v-43zM375 674q0 -29 13 -37t50 -8h72q41 0 52 9t11 36v31q0 33 -15 41t-48 8h-72q-35 0 -49 -8.5t-14 -40.5v-31z" />
<glyph horiz-adv-x="897" d="M51 618v127q0 254 287 254h205q98 0 159.5 -39.5t99.5 -158.5t38 -326q0 -440 -256 -475q-125 -20 -496 12v230h320q47 0 75.5 9t41 32.5t14.5 42t2 57.5q-37 -23 -77 -28t-132 -5q-158 0 -219.5 69.5t-61.5 198.5zM350 662q0 -37 8.5 -48.5t44.5 -11.5h138 q0 82 -20.5 105.5t-88.5 23.5h-22q-35 0 -47.5 -10t-12.5 -39v-20z" />
<glyph horiz-adv-x="2183" d="M45 545q0 301 95.5 427t265.5 126h44h54q18 0 60 -1t68.5 -4t69.5 -8.5t77 -13.5t76 -20.5t79 -26.5v-233q-125 12 -307 12q-66 0 -90.5 -3t-52 -29t-35 -79t-7.5 -155q0 -166 44 -211t165 -45q299 0 382 40.5t83 206.5v1074h395v-621q117 125 301 125q102 0 168 -29.5 t96.5 -91t41 -126t10.5 -163.5v-696h-397v705q0 61 -16.5 83.5t-51.5 22.5q-117 0 -150 -76v-246q0 -111 -28.5 -195.5t-70.5 -139t-115.5 -91t-137 -54t-163 -25t-164 -6t-171 4.5t-155.5 3q-463 0 -463 559z" />
<glyph horiz-adv-x="1748" d="M70 0v948q135 102 253.5 130t381.5 28q78 0 161.5 -22.5t120.5 -59.5q162 82 393 82q156 0 236 -96.5t80 -251.5v-758h-398v676q0 68 -12 91.5t-59 23.5q-111 0 -146 -56v-43v-692h-397v676q0 68 -12.5 91.5t-59.5 23.5q-111 0 -145 -56v-735h-397z" />
<glyph d="M70 0v948q133 100 261 129t394 29q160 0 258 -99.5t98 -248.5v-758h-397v676q0 68 -12.5 91.5t-59.5 23.5q-111 0 -145 -56v-735h-397z" />
<glyph d="M70 0v948q133 100 261 129t394 29q160 0 258 -99.5t98 -248.5v-758h-397v676q0 68 -12.5 91.5t-59.5 23.5q-111 0 -145 -56v-735h-397zM219 1366q104 152 252 152q45 0 110.5 -36t106.5 -36q106 -6 191 82l53 -152q-98 -147 -230 -147q-45 0 -121.5 35.5t-115.5 35.5 q-98 0 -191 -71z" />
<glyph d="M70 0v948q133 100 261 129t394 29q160 0 258 -99.5t98 -248.5v-758h-397v676q0 68 -12.5 91.5t-59.5 23.5q-111 0 -145 -56v-735h-397zM453 -201q0 49 47 49h205q43 0 43 -49v-276q0 -167 -193 -157q-51 3 -92 16v114q57 -2 57 37v10h-20q-47 0 -47 47v209z" />
<glyph d="M70 0v948q133 100 261 129t394 29q160 0 258 -99.5t98 -248.5v-758h-397v676q0 68 -12.5 91.5t-59.5 23.5q-111 0 -145 -56v-735h-397zM295 1516h227l101 -105l102 105h229l-204 -287h-269z" />
<glyph d="M70 0v948q133 100 261 129t394 29q160 0 258 -99.5t98 -248.5v-758h-397v676q0 68 -12.5 91.5t-59.5 23.5q-111 0 -145 -56v-735h-397zM477 1229l158 293h297l-232 -293h-223z" />
<glyph horiz-adv-x="1748" d="M70 0v948q135 102 253.5 130t381.5 28q78 0 161.5 -22.5t120.5 -59.5q162 82 393 82q156 0 236 -96.5t80 -251.5v-758h-398v676q0 68 -12 91.5t-59 23.5q-111 0 -146 -56v-43v-692h-397v676q0 68 -12.5 91.5t-59.5 23.5q-111 0 -145 -56v-735h-397zM776 1276v192 q0 51 49 52h185q47 0 47 -52v-192q0 -47 -47 -47h-185q-49 0 -49 47z" />
<glyph horiz-adv-x="827" d="M70 0v969q96 100 279 127.5t456 5.5v-338q-86 20 -185.5 18t-152.5 -26v-756h-397z" />
<glyph horiz-adv-x="827" d="M70 0v969q96 100 279 127.5t456 5.5v-338q-86 20 -185.5 18t-152.5 -26v-756h-397zM340 1235l158 293h297l-232 -293h-223z" />
<glyph horiz-adv-x="827" d="M70 0v969q96 100 279 127.5t456 5.5v-338q-86 20 -185.5 18t-152.5 -26v-756h-397zM156 1522h227l100 -105l103 105h229l-205 -287h-268z" />
<glyph horiz-adv-x="827" d="M53 0v969q96 100 279.5 127.5t455.5 5.5v-338q-86 20 -185 18t-152 -26v-756h-398zM133 -201q0 49 47 49h205q43 0 43 -49v-276q0 -167 -192 -157q-51 3 -93 16v114q57 -2 58 37v10h-21q-47 0 -47 47v209z" />
<glyph horiz-adv-x="1263" d="M23 0l204 461q27 57 27 92t-31 100l-200 434h415l164 -360v-354l-164 -373h-415zM662 373q-2 352 0 354l163 360h416l-201 -434q-31 -66 -30.5 -100.5t26.5 -91.5l205 -461h-416z" />
<glyph horiz-adv-x="1419" d="M23 0l262 625q37 102 32.5 149t-53.5 162l-241 563h409l246 -502v-462l-225 -535h-430zM739 535q-2 459 0 462l248 502h410l-242 -563q-49 -115 -53 -162t33 -149l262 -625h-430z" />
<glyph horiz-adv-x="1089" d="M57 309v49q0 57 4.5 94t23.5 83.5t56 72t107.5 44t171.5 18.5h215q0 104 -36 125.5t-179 21.5q-152 0 -340 -24v227q35 12 65.5 23.5t54 19.5t53.5 13t46 9.5t49 7.5t45.5 4t52 2t52.5 1h64h69q104 0 178 -29t117 -74t67.5 -121.5t31.5 -153.5t7 -185v-177 q0 -190 -76.5 -275t-240.5 -85h-295q-363 0 -363 309zM455 350q0 -47 13 -61.5t56 -14.5h43q35 0 51.5 12.5t16.5 57.5v102l-113 -8q-43 -2 -55 -19.5t-12 -60.5v-8z" />
<glyph horiz-adv-x="1089" d="M57 309v49q0 57 4.5 94t23.5 83.5t56 72t107.5 44t171.5 18.5h215q0 104 -36 125.5t-179 21.5q-152 0 -340 -24v227q35 12 65.5 23.5t54 19.5t53.5 13t46 9.5t49 7.5t45.5 4t52 2t52.5 1h64h69q104 0 178 -29t117 -74t67.5 -121.5t31.5 -153.5t7 -185v-177 q0 -190 -76.5 -275t-240.5 -85h-295q-363 0 -363 309zM236 1516h296l158 -293h-223zM455 350q0 -47 13 -61.5t56 -14.5h43q35 0 51.5 12.5t16.5 57.5v102l-113 -8q-43 -2 -55 -19.5t-12 -60.5v-8z" />
<glyph horiz-adv-x="1089" d="M57 309v49q0 57 4.5 94t23.5 83.5t56 72t107.5 44t171.5 18.5h215q0 104 -36 125.5t-179 21.5q-152 0 -340 -24v227q35 12 65.5 23.5t54 19.5t53.5 13t46 9.5t49 7.5t45.5 4t52 2t52.5 1h64h69q104 0 178 -29t117 -74t67.5 -121.5t31.5 -153.5t7 -185v-177 q0 -190 -76.5 -275t-240.5 -85h-295q-363 0 -363 309zM455 350q0 -47 13 -61.5t56 -14.5h43q35 0 51.5 12.5t16.5 57.5v102l-113 -8q-43 -2 -55 -19.5t-12 -60.5v-8zM467 1223l158 293h297l-232 -293h-223z" />
<glyph horiz-adv-x="1089" d="M57 309v49q0 57 4.5 94t23.5 83.5t56 72t107.5 44t171.5 18.5h215q0 104 -36 125.5t-179 21.5q-152 0 -340 -24v227q35 12 65.5 23.5t54 19.5t53.5 13t46 9.5t49 7.5t45.5 4t52 2t52.5 1h64h69q104 0 178 -29t117 -74t67.5 -121.5t31.5 -153.5t7 -185v-177 q0 -190 -76.5 -275t-240.5 -85h-295q-363 0 -363 309zM221 1360q104 152 252 151q47 0 112.5 -35.5t104.5 -35.5q106 -6 191 82l53 -152q-98 -147 -229 -147q-45 0 -122 35.5t-116 35.5q-98 0 -191 -71zM455 350q0 -47 13 -61.5t56 -14.5h43q35 0 51.5 12.5t16.5 57.5v102 l-113 -8q-43 -2 -55 -19.5t-12 -60.5v-8z" />
<glyph horiz-adv-x="1089" d="M57 309v49q0 57 4.5 94t23.5 83.5t56 72t107.5 44t171.5 18.5h215q0 104 -36 125.5t-179 21.5q-152 0 -340 -24v227q35 12 65.5 23.5t54 19.5t53.5 13t46 9.5t49 7.5t45.5 4t52 2t52.5 1h64h69q104 0 178 -29t117 -74t67.5 -121.5t31.5 -153.5t7 -185v-177 q0 -190 -76.5 -275t-240.5 -85h-295q-363 0 -363 309zM371 1431.5q0 88.5 61.5 149.5t147.5 61t146 -61t60 -149.5t-60 -148.5t-146 -60t-147.5 60t-61.5 148.5zM455 350q0 -47 13 -61.5t56 -14.5h43q35 0 51.5 12.5t16.5 57.5v102l-113 -8q-43 -2 -55 -19.5t-12 -60.5v-8z M510 1431.5q0 -28.5 20.5 -48t49 -19.5t48 19.5t19.5 48t-19.5 49t-48 20.5t-49 -20.5t-20.5 -49z" />
<glyph horiz-adv-x="1089" d="M57 309v49q0 57 4.5 94t23.5 83.5t56 72t107.5 44t171.5 18.5h215q0 104 -36 125.5t-179 21.5q-152 0 -340 -24v227q35 12 65.5 23.5t54 19.5t53.5 13t46 9.5t49 7.5t45.5 4t52 2t52.5 1h64h69q104 0 178 -29t117 -74t67.5 -121.5t31.5 -153.5t7 -185v-177 q0 -190 -76.5 -275t-240.5 -85h-295q-363 0 -363 309zM248 1223l205 286h268l186 -286h-227l-100 104l-103 -104h-229zM455 350q0 -47 13 -61.5t56 -14.5h43q35 0 51.5 12.5t16.5 57.5v102l-113 -8q-43 -2 -55 -19.5t-12 -60.5v-8z" />
<glyph horiz-adv-x="1089" d="M57 309v49q0 57 4.5 94t23.5 83.5t56 72t107.5 44t171.5 18.5h215q0 104 -36 125.5t-179 21.5q-152 0 -340 -24v227q35 12 65.5 23.5t54 19.5t53.5 13t46 9.5t49 7.5t45.5 4t52 2t52.5 1h64h69q104 0 178 -29t117 -74t67.5 -121.5t31.5 -153.5t7 -185v-177 q0 -190 -76.5 -275t-240.5 -85h-295q-363 0 -363 309zM182 1358q0 55 40 94t95.5 39t94.5 -39t39 -94t-39 -95t-94.5 -40t-95.5 40t-40 95zM455 350q0 -47 13 -61.5t56 -14.5h43q35 0 51.5 12.5t16.5 57.5v102l-113 -8q-43 -2 -55 -19.5t-12 -60.5v-8zM705 1358 q0 55 39.5 94t95 39t94.5 -39t39 -94t-39 -95t-94.5 -40t-95 40t-39.5 95z" />
<glyph horiz-adv-x="1089" d="M57 309v49q0 57 4.5 94t23.5 83.5t56 72t107.5 44t171.5 18.5h215q0 104 -36 125.5t-179 21.5q-152 0 -340 -24v227q35 12 65.5 23.5t54 19.5t53.5 13t46 9.5t49 7.5t45.5 4t52 2t52.5 1h64h69q104 0 178 -29t117 -74t67.5 -121.5t31.5 -153.5t7 -185v-177 q0 -270 -162 -335q-41 -31 -58 -63t-12 -57.5t20.5 -45t39 -28.5t45.5 -5v-184q-70 -25 -141.5 4.5t-113.5 87t-37 133.5t77 133h-270q-363 0 -363 309zM455 350q0 -47 13 -61.5t56 -14.5h43q35 0 51.5 12.5t16.5 57.5v102l-113 -8q-43 -2 -55 -19.5t-12 -60.5v-8z" />
<glyph horiz-adv-x="1089" d="M57 309v49q0 57 4.5 94t23.5 83.5t56 72t107.5 44t171.5 18.5h215q0 104 -36 125.5t-179 21.5q-152 0 -340 -24v227q35 12 65.5 23.5t54 19.5t53.5 13t46 9.5t49 7.5t45.5 4t52 2t52.5 1h64h69q104 0 178 -29t117 -74t67.5 -121.5t31.5 -153.5t7 -185v-177 q0 -190 -76.5 -275t-240.5 -85h-295q-363 0 -363 309zM342 1456h137q0 -96 96 -96q100 0 101 96h137q0 -104 -64.5 -168.5t-173.5 -64.5q-106 0 -169.5 64.5t-63.5 168.5zM455 350q0 -47 13 -61.5t56 -14.5h43q35 0 51.5 12.5t16.5 57.5v102l-113 -8q-43 -2 -55 -19.5 t-12 -60.5v-8z" />
<glyph horiz-adv-x="1089" d="M57 309v49q0 57 4.5 94t23.5 83.5t56 72t107.5 44t171.5 18.5h215q0 104 -36 125.5t-179 21.5q-152 0 -340 -24v227q35 12 65.5 23.5t54 19.5t53.5 13t46 9.5t49 7.5t45.5 4t52 2t52.5 1h64h69q104 0 178 -29t117 -74t67.5 -121.5t31.5 -153.5t7 -185v-177 q0 -190 -76.5 -275t-240.5 -85h-295q-363 0 -363 309zM279 1223v190h598v-190h-598zM455 350q0 -47 13 -61.5t56 -14.5h43q35 0 51.5 12.5t16.5 57.5v102l-113 -8q-43 -2 -55 -19.5t-12 -60.5v-8z" />
<glyph d="M57 334v758h398v-676q0 -68 12 -91.5t59 -23.5q111 0 146 55v736h397v-949q-96 -92 -226 -124.5t-388 -32.5q-207 0 -302.5 94t-95.5 254z" />
<glyph d="M57 334v758h398v-676q0 -68 12 -91.5t59 -23.5q111 0 146 55v736h397v-949q-96 -92 -226 -124.5t-388 -32.5q-207 0 -302.5 94t-95.5 254zM274 1221l158 292h297l-231 -292h-224zM629 1221l157 292h297l-231 -292h-223z" />
<glyph d="M57 334v758h398v-676q0 -68 12 -91.5t59 -23.5q111 0 146 55v736h397v-949q-96 -92 -226 -124.5t-388 -32.5q-207 0 -302.5 94t-95.5 254zM221 1513h295l160 -292h-225z" />
<glyph d="M57 334v758h398v-676q0 -68 12 -91.5t59 -23.5q111 0 146 55v736h397v-949q-96 -92 -226 -124.5t-388 -32.5q-207 0 -302.5 94t-95.5 254zM451 1221l159 292h295l-229 -292h-225z" />
<glyph d="M57 334v758h398v-676q0 -68 12 -91.5t59 -23.5q111 0 146 55v736h397v-949q-96 -92 -226 -124.5t-388 -32.5q-207 0 -302.5 94t-95.5 254zM207 1358q104 152 252 151q45 0 110.5 -35.5t106.5 -35.5q106 -6 190 82l54 -152q-98 -147 -230 -147q-45 0 -121.5 35.5 t-115.5 35.5q-98 0 -191 -71z" />
<glyph d="M57 334v758h398v-676q0 -68 12 -91.5t59 -23.5q111 0 146 55v736h397v-949q-96 -92 -226 -124.5t-388 -32.5q-207 0 -302.5 94t-95.5 254zM356 1429.5q0 88.5 61.5 149.5t147.5 61t145.5 -61t59.5 -149.5t-59.5 -148.5t-145.5 -60t-147.5 60t-61.5 148.5zM496 1429.5 q0 -28.5 19.5 -48t49.5 -19.5q29 0 47.5 19.5t18.5 48t-19.5 49t-46.5 20.5q-31 0 -50 -20.5t-19 -49z" />
<glyph d="M57 334v758h398v-676q0 -68 12 -91.5t59 -23.5q111 0 146 55v736h397v-949q-96 -92 -226 -124.5t-388 -32.5q-207 0 -302.5 94t-95.5 254zM233 1221l205 286h269l186 -286h-227l-101 104l-102 -104h-230z" />
<glyph d="M57 334v758h398v-676q0 -68 12 -91.5t59 -23.5q111 0 146 55v736h397v-949q-96 -92 -226 -124.5t-388 -32.5q-207 0 -302.5 94t-95.5 254zM168 1355.5q0 55.5 40 94.5t95 39t94 -39t39 -94.5t-39 -95t-94 -39.5t-95 39.5t-40 95zM690 1355.5q0 55.5 40 94.5t95.5 39 t94 -39t38.5 -94.5t-38.5 -95t-94 -39.5t-95.5 39.5t-40 95z" />
<glyph d="M57 334v758h398v-676q0 -68 12 -91.5t59 -23.5q111 0 146 55v736h397v-949q-78 -76 -176 -110q-68 -49 -72 -100.5t31 -79t74 -21.5v-184q-68 -25 -138.5 4t-112.5 83t-41 128t64 131q-92 -8 -243 -8q-207 0 -302.5 94t-95.5 254z" />
<glyph d="M57 334v758h398v-676q0 -68 12 -91.5t59 -23.5q111 0 146 55v736h397v-949q-96 -92 -226 -124.5t-388 -32.5q-207 0 -302.5 94t-95.5 254zM328 1454h137q0 -96 96 -96q100 0 101 96h137q0 -104 -64.5 -168.5t-173.5 -64.5q-106 0 -169.5 64.5t-63.5 168.5z" />
<glyph d="M57 334v758h398v-676q0 -68 12 -91.5t59 -23.5q111 0 146 55v736h397v-949q-96 -92 -226 -124.5t-388 -32.5q-207 0 -302.5 94t-95.5 254zM264 1221v190h598v-190h-598z" />
<glyph d="M70 57v1542h397v-575q61 80 199 80q229 0 322 -133t93 -436q0 -295 -106.5 -423t-308.5 -128h-66h-74q-18 0 -72.5 1t-79 3t-70.5 5t-72.5 9t-60.5 13.5t-58.5 18.5t-42.5 23zM467 258h96q43 0 68.5 21.5t37 66.5t13.5 79t2 95q0 182 -20.5 239.5t-96.5 57.5 q-70 0 -100 -39v-520z" />
<glyph d="M57 535q0 303 93.5 436t322.5 133q137 0 199 -80v578h397v-1545q-18 -12 -43 -23t-58.5 -18.5t-60 -13.5t-73 -9t-71 -5t-78.5 -3t-71 -1h-76h-65q-203 0 -309.5 128t-106.5 423zM455 520q0 -61 2 -95t13 -79t36.5 -66.5t68.5 -21.5h97v520q-31 39 -101 39 q-76 0 -96 -57.5t-20 -239.5z" />
<glyph horiz-adv-x="776" d="M70 0v1249q0 41 6 81t28.5 93.5t59.5 92t104.5 66.5t157.5 28q209 0 328 -49v-224l-191 2q-68 0 -82 -27.5t-14 -144.5v-80h199v-274h-199v-813h-397z" />
<glyph d="M70 -553v1579q80 33 253 53.5t343 20.5q203 0 309 -128t106 -423q0 -303 -93 -436t-322 -133q-137 0 -199 79v-612h-397zM467 305q31 -39 100 -39q76 0 96.5 57.5t20.5 239.5q0 61 -2 95t-13.5 79t-37 66.5t-68.5 21.5h-96v-520z" />
<glyph horiz-adv-x="663" d="M70 389v1004h397v-303h174v-275h-174v-344q0 -100 17.5 -139t56.5 -60q86 -43 100 -43v-231h-307q-125 0 -194.5 87t-69.5 304z" />
<glyph d="M70 57v1542h397v-575q61 80 199 80q229 0 322 -133t93 -436q0 -295 -106.5 -423t-308.5 -128h-66h-74q-18 0 -72.5 1t-79 3t-70.5 5t-72.5 9t-60.5 13.5t-58.5 18.5t-42.5 23zM139 1806v193q0 51 49 51h185q47 0 47 -51v-193q0 -47 -47 -47h-185q-49 0 -49 47zM467 258 h96q43 0 68.5 21.5t37 66.5t13.5 79t2 95q0 182 -20.5 239.5t-96.5 57.5q-70 0 -100 -39v-520z" />
<glyph d="M57 535q0 303 93.5 436t322.5 133q137 0 199 -80v578h397v-1545q-18 -12 -43 -23t-58.5 -18.5t-60 -13.5t-73 -9t-71 -5t-78.5 -3t-71 -1h-76h-65q-203 0 -309.5 128t-106.5 423zM455 520q0 -61 2 -95t13 -79t36.5 -66.5t68.5 -21.5h97v520q-31 39 -101 39 q-76 0 -96 -57.5t-20 -239.5zM750 1806v193q0 51 49 51h184q47 0 47 -51v-193q0 -47 -47 -47h-184q-49 0 -49 47z" />
<glyph horiz-adv-x="776" d="M70 0v1249q0 41 6 81t28.5 93.5t59.5 92t104.5 66.5t157.5 28q209 0 328 -49v-224l-191 2q-68 0 -82 -27.5t-14 -144.5v-80h199v-274h-199v-813h-397zM295 1780v192q0 51 49 51h184q47 0 47 -51v-192q0 -47 -47 -47h-184q-49 0 -49 47z" />
<glyph d="M70 -553v1579q80 33 253 53.5t343 20.5q203 0 309 -128t106 -423q0 -303 -93 -436t-322 -133q-137 0 -199 79v-612h-397zM451 1270v192q0 51 49 51h184q47 0 47 -51v-192q0 -47 -47 -47h-184q-49 0 -49 47zM467 305q31 -39 100 -39q76 0 96.5 57.5t20.5 239.5q0 61 -2 95 t-13.5 79t-37 66.5t-68.5 21.5h-96v-520z" />
<glyph horiz-adv-x="1173" d="M57 535q0 303 93.5 436t322.5 133q137 0 199 -80v217h-166v152h166v209h397v-209h107v-152h-107v-1184q-18 -12 -43 -23t-58.5 -18.5t-60 -13.5t-73 -9t-71 -5t-78.5 -3t-71 -1h-76h-65q-203 0 -309.5 128t-106.5 423zM455 520q0 -61 2 -95t13 -79t36.5 -66.5t68.5 -21.5 h97v520q-31 39 -101 39q-76 0 -96 -57.5t-20 -239.5z" />
<glyph horiz-adv-x="663" d="M70 389v1004h397v-303h174v-275h-174v-135h131v-152h-131v-57q0 -100 17.5 -139t56.5 -60q86 -43 100 -43v-231h-307q-125 0 -194.5 87t-69.5 304z" />
</font>
</defs>
</svg>
